<?xml version="1.0" encoding="utf-8" ?>
<svg baseProfile="full" height="300" version="1.1" width="300" xmlns="http://www.w3.org/2000/svg" xmlns:ev="http://www.w3.org/2001/xml-events" xmlns:xlink="http://www.w3.org/1999/xlink"><defs /><rect fill="none" height="300" width="300" x="0" y="0" /><path d="M102.941185839,110.294121209 m-3.67647049578,110.294113906 l9.55882299885,28.676470931 6.61764698912,12.4999999758 l9.55882299885,7.35294099156 30.1470589359,5.88235298669 l22.7941169771,-1.47058824667 5.88235298669,-8.82352899642 l3.67647049578,-11.7647059734 3.67647049578,-27.9411759614 l-0.735294123337,-115.441178694 -4.41176449821,-4.41176449821 l-11.029411971,-2.2058822491 -38.2352919954,0.0 l-12.4999999758,1.47058824667 -23.5294119468,8.08823499399 m19.1176459977,0.0 l-11.7647059734,62.4999989118 -3.67647049578,68.3823548003 m37.5000008947,-144.852938791 l-15.4411759855,70.5882319713 -1.47058824667,90.4411729387 m29.4117639662,-145.588233761 l-8.82352899642,72.7941168804 0.0,83.8235259496 m22.0588239419,-153.676462951 l-1.47058824667,130.882349843 m-75.7352967591,-110.294113906 l62.4999989118,-2.2058822491 27.9411759614,-5.14705898426 m-66.9117648609,44.1176478838 l67.6470598306,-19.1176459977 m-74.2647068197,50.735294873 l81.6176487785,-30.1470589359 m-71.323526941,38.2352919954 l38.9705869651,-14.7058819831 19.1176459977,-3.67647049578 m-61.0294128415,35.2941159857 l52.2058809433,-6.61764698912 m-30.1470589359,24.264704982 l55.147056953,-19.8529409674 m-46.3235289239,18.3823529625 l10.2941179685,-7.35294099156 m-46.3235289239,-133.088234752 l-12.4999999758,-25.7352929868 -14.7058819831,-20.5882359371 l-0.735294123337,-19.8529409674 5.88235298669,-8.82352899642 l3.67647049578,4.41176449821 0.735294123337,8.08823499399 l13.2352939782,27.9411759614 17.6470579928,23.5294119468 l1.47058824667,-16.9117649577 11.029411971,-36.764705925 l7.35294099156,-13.2352939782 4.41176449821,-3.67647049578 l2.2058822491,8.82352899642 -4.41176449821,25.7352929868 l-10.2941179685,36.764705925 33.0882349456,-58.8235279324 l0.735294123337,5.88235298669 -14.7058819831,45.5882339542 l32.3529399759,-36.764705925 m13.9705879807,-16.9117649577 l1.47058824667,9.55882299885 -2.2058822491,8.82352899642 l-22.0588239419,55.147056953 2.2058822491,-5.88235298669 l17.6470579928,-16.176469988 19.1176459977,-13.2352939782 l8.08823499399,-2.2058822491 -0.735294123337,5.14705898426 l-25.7352929868,38.9705869651 -5.14705898426,3.67647049578 m-94.1176477871,-7.35294099156 l-3.67647049578,-2.94117649335 -19.1176459977,0.0 l10.2941179685,2.2058822491 24.264704982,0.0 " fill="none" stroke="black" stroke-width="1.5" /></svg>