<?xml version="1.0" encoding="utf-8" ?>
<svg baseProfile="full" height="300" version="1.1" width="300" xmlns="http://www.w3.org/2000/svg" xmlns:ev="http://www.w3.org/2001/xml-events" xmlns:xlink="http://www.w3.org/1999/xlink"><defs /><rect fill="none" height="300" width="300" x="0" y="0" /><path d="M122.294936742,60.7766115885 m-3.0541014897,12.2164059588 l-0.436300202566,12.2164059588 0.872600405132,13.5253057773 l3.0541014897,6.54450311023 8.28970363352,1.30890053596 l2.18150094109,-1.30890053596 4.799302013,-17.4520075287 l0.0,-11.3438045493 -3.0541014897,-11.3438045493 l-2.61780107191,-5.67190227465 -2.18150094109,-1.30890053596 l-1.74520081026,0.436300202566 -0.872600405132,3.0541014897 m5.23560214382,48.8656238352 l3.92670175135,69.8080301148 -0.872600405132,39.7033182183 l1.74520081026,30.5410126013 m-4.36300188217,-78.534035027 l-17.4520075287,13.9616064821 -4.36300188217,5.67190227465 l12.6527055157,-0.436300202566 0.0,5.23560214382 l-3.92670175135,15.2705063006 20.0698094615,-3.49040162053 l10.0349047308,2.61780107191 10.9075049924,-0.436300202566 l6.1082029794,-3.49040162053 3.0541014897,-3.92670175135 l1.30890053596,-6.1082029794 -3.0541014897,-7.41710337188 l-27.9232129642,-14.8342067438 m-53.2286216999,-124.345553929 l-2.61780107191,5.23560214382 -3.0541014897,24.4328119176 l0.0,13.5253057773 1.74520081026,6.98080324105 l7.41710337188,7.41710337188 8.28970363352,0.0 l3.92670175135,-4.36300188217 4.36300188217,-7.8534035027 l2.61780107191,-14.8342067438 -2.18150094109,-15.7068070054 l-2.18150094109,-5.23560214382 -6.1082029794,-3.92670175135 m-6.54450311023,50.174521358 l-1.30890053596,19.197208052 -0.436300202566,41.8848171506 l2.61780107191,32.7225138293 0.436300202566,17.4520075287 l-0.872600405132,5.23560214382 0.872600405132,4.799302013 m45.8115189019,-111.256551152 l-5.67190227465,4.799302013 -4.36300188217,13.9616064821 l-16.1431077102,17.8883082335 m-30.5410126013,-42.3211178553 l4.36300188217,3.49040162053 1.74520081026,4.36300188217 l17.0157079718,19.197208052 5.23560214382,8.28970363352 l11.780105254,9.598604026 m-32.2862154203,82.4607321869 l-10.0349047308,20.9424085753 m15.2705063006,-12.6527055157 l2.61780107191,16.579407267 m41.0122203325,-9.16230389517 l-5.23560214382,4.36300188217 -8.28970363352,13.5253057773 m13.9616064821,-10.9075049924 l2.61780107191,14.397906039 m46.6841203114,-243.455499401 l-5.23560214382,24.8691103266 m31.4136140108,-18.7609084951 l-9.16230389517,36.2129171717 m-25.7417117362,-6.98080324105 l-16.579407267,-6.98080324105 0.0,3.92670175135 l6.1082029794,3.49040162053 20.0698094615,0.872600405132 m7.8534035027,13.9616064821 l-8.28970363352,-0.436300202566 5.23560214382,1.74520081026 l4.799302013,-1.30890053596 m-20.5061101663,-57.1553234512 l6.1082029794,4.799302013 17.0157079718,4.36300188217 l15.7068070054,6.54450311023 " fill="none" stroke="black" stroke-width="1.5" /></svg>