<?xml version="1.0" encoding="utf-8" ?>
<svg baseProfile="full" height="300" version="1.1" width="300" xmlns="http://www.w3.org/2000/svg" xmlns:ev="http://www.w3.org/2001/xml-events" xmlns:xlink="http://www.w3.org/1999/xlink"><defs /><rect fill="none" height="300" width="300" x="0" y="0" /><path d="M108.737861196,113.834952676 m-0.485436899869,38.3495132537 l-1.94174759947,17.475728076 -5.82524247914,19.4174753562 l-8.25242721794,10.6796113182 -3.3980583789,16.9902906174 l-8.25242721794,15.5339807958 20.3883489963,4.368932019 l30.582524133,0.0 22.8155350122,4.368932019 l0.0,-60.6796108073 -3.3980583789,-35.4368936106 l-0.485436899869,-31.5533990502 m-11.6504849583,5.33980565909 l13.106796057,29.1262143114 10.1941744981,0.0 l6.7961167578,7.28155357785 5.33980565909,1.94174759947 l25.7281546554,-2.91262123957 m1.45631061978,-1.94174759947 l2.42718441952,-10.1941744981 2.42718441952,-0.485436899869 l8.25242721794,0.970873799737 3.88349519895,8.73786403799 l-0.970873799737,8.25242721794 -4.85436883904,2.42718441952 l-12.6213585984,-8.73786403799 0.485436899869,-6.31067929918 m-47.0873772917,-32.0388339545 l-9.22330085804,-15.5339807958 0.485436899869,-2.91262123957 l-2.91262123957,-2.42718441952 m-41.7475729098,140.291262066 l-3.88349519895,21.3592226364 -4.85436883904,16.0194169773 l0.485436899869,-5.82524247914 m40.2912630882,-32.0388339545 l0.970873799737,6.31067929918 -2.91262123957,34.951456152 l5.33980565909,-7.7669903979 0.485436899869,-3.3980583789 m-32.5242714132,-159.223302518 l5.82524247914,-8.73786403799 14.0776696971,-7.28155357785 l2.91262123957,-2.91262123957 -0.485436899869,-6.31067929918 l-3.88349519895,-5.33980565909 -1.94174759947,-11.6504849583 l0.0,-10.1941744981 3.88349519895,-7.28155357785 l19.4174753562,-16.9902906174 12.1359224169,-2.91262123957 l2.42718441952,0.0 2.91262123957,2.91262123957 l0.970873799737,3.88349519895 -0.970873799737,27.6699019355 l-2.42718441952,8.73786403799 -2.42718441952,1.94174759947 l-16.0194169773,3.88349519895 0.0,23.3009699165 l3.3980583789,6.31067929918 m-19.4174753562,-53.8834966038 l-28.6407768528,38.8349507123 -11.6504849583,22.8155350122 l-1.94174759947,8.73786403799 -7.7669903979,14.5631071557 l-2.91262123957,12.6213585984 6.31067929918,-18.9320391747 l0.970873799737,-13.5922335156 12.1359224169,-34.4660186933 l6.31067929918,-12.1359224169 8.25242721794,-10.6796113182 l13.106796057,-12.6213585984 11.6504849583,-5.82524247914 l18.4466017161,-1.45631061978 9.70873767809,-2.91262123957 l0.485436899869,1.94174759947 m18.4466017161,70.8737872212 l0.485436899869,82.5242709023 -0.970873799737,16.9902906174 l-1.94174759947,5.82524247914 -0.970873799737,24.7572822924 l2.91262123957,-1.45631061978 10.1941744981,-0.485436899869 l13.5922335156,-5.33980565909 3.3980583789,4.85436883904 l2.91262123957,0.970873799737 8.25242721794,-2.42718441952 l1.45631061978,-2.42718441952 9.22330085804,-5.33980565909 l3.88349519895,-7.7669903979 -1.45631061978,-52.4271842279 " fill="none" stroke="black" stroke-width="1.5" /></svg>