<?xml version="1.0" encoding="utf-8" ?>
<svg baseProfile="full" height="300" version="1.1" width="300" xmlns="http://www.w3.org/2000/svg" xmlns:ev="http://www.w3.org/2001/xml-events" xmlns:xlink="http://www.w3.org/1999/xlink"><defs /><rect fill="none" height="300" width="300" x="0" y="0" /><path d="M111.050725813,92.0289828882 m-1.81159414821,9.66183598672 l-6.03864729311,11.4734299363 -9.05797133684,36.2318853474 l-10.8695652865,80.9178742043 -1.20772949834,36.2318853474 l1.20772949834,3.01932364655 19.3236719734,0.0 l39.8550716579,5.43478264323 13.285023886,0.0 l7.85024124273,-3.01932364655 16.3043479297,-10.8695652865 l6.64251194298,-2.41545899668 9.05797133684,-8.45410668697 l0.0,-75.483091561 -22.9468598727,-79.1062778716 m-38.0434785026,42.8743957016 l6.03864729311,-22.3429960172 3.62318829643,-27.1739132162 l14.4927531857,-29.5893718157 10.8695652865,-12.0772945862 l22.9468598727,-13.8888893302 24.1545891724,-8.45410668697 m-71.2560398063,114.734294597 l9.66183598672,-48.9130437891 7.24637659286,-18.1159426737 l8.45410668697,-12.0772945862 6.03864729311,-4.83091799336 l30.1932372599,-18.1159426737 10.8695652865,-1.81159414821 m-118.961352707,92.391304935 l0.0,0.0 m4.22705334348,3.01932364655 l3.01932364655,0.0 16.3043479297,-9.66183598672 l15.0966186299,0.60386474917 m9.66183598672,-1.20772949834 l2.41545899668,1.20772949834 m11.4734299363,-2.41545899668 l0.0,3.62318829643 3.01932364655,1.20772949834 l7.24637659286,-3.62318829643 m1.81159414821,-0.60386474917 l3.01932364655,3.01932364655 m0.60386474917,0.60386474917 l0.0,0.0 m-29.5893718157,0.0 l22.3429960172,-0.60386474917 m-48.3091783449,30.7971027041 l6.03864729311,-3.62318829643 13.8888893302,10.2657006366 m-25.9661839164,12.0772945862 l30.7971027041,8.45410668697 24.1545891724,0.0 m-10.2657006366,-33.2125613036 l17.5120772294,16.9082133739 7.85024124273,0.60386474917 m-83.9372014254,33.2125613036 l13.285023886,13.8888893302 19.9275358289,7.85024124273 l6.03864729311,-0.60386474917 22.9468598727,-10.8695652865 l26.5700477719,13.285023886 m-94.2029012677,4.83091799336 l6.03864729311,0.0 10.8695652865,11.4734299363 l6.64251194298,0.60386474917 6.64251194298,-2.41545899668 m27.7777786604,-0.60386474917 l2.41545899668,10.2657006366 3.01932364655,2.41545899668 l4.22705334348,0.0 m-51.3285023886,7.24637659286 l0.0,0.0 m23.5507253169,-3.01932364655 l3.01932364655,9.66183598672 m13.285023886,2.41545899668 l1.20772949834,0.60386474917 m-63.4057953861,-110.507249197 l3.62318829643,4.83091799336 m19.9275358289,-6.64251194298 l13.8888893302,18.7198065292 m21.1352651287,0.0 l2.41545899668,9.66183598672 7.85024124273,13.285023886 " fill="none" stroke="black" stroke-width="1.5" /></svg>