<?xml version="1.0" encoding="utf-8" ?>
<svg baseProfile="full" height="300" version="1.1" width="300" xmlns="http://www.w3.org/2000/svg" xmlns:ev="http://www.w3.org/2001/xml-events" xmlns:xlink="http://www.w3.org/1999/xlink"><defs /><rect fill="none" height="300" width="300" x="0" y="0" /><path d="M33.2089614867,275.0 m11.9402980679,-8.20895455355 l2.98507451698,-8.20895455355 0.0,-82.8358189505 l-5.22388052742,-18.6567156084 -0.746268629244,-23.1343266476 l61.9402968408,-90.2985059792 3.73134302351,-2.23880576502 l4.47761153004,14.1791035875 -0.746268629244,18.6567156084 l-8.95522306008,17.1641785953 -14.1791035875,45.522383807 l0.746268629244,9.70149156662 14.925372094,25.3731331489 l1.49253725849,28.358207175 -5.97014903395,13.432835081 m6.71641754048,44.7761182455 l29.1044766632,-11.9402980679 20.1492526215,-4.47761153004 l14.1791035875,-18.6567156084 38.059700705,-29.1044766632 l26.1194006737,-37.3134312168 m-135.074620298,-47.7611922716 l35.8208922403,-41.7910442193 53.7313403239,-38.059700705 l3.73134302351,2.98507451698 1.49253725849,17.1641785953 l-34.3283571906,47.7611922716 -16.4179091071,14.925372094 l-4.47761153004,9.70149156662 m55.9701448618,-76.8656708982 l34.3283571906,-20.1492526215 6.71641754048,6.71641754048 l0.0,8.20895455355 -23.8805961358,35.8208922403 l-19.4029831332,18.6567156084 -10.4477610548,17.9104461202 l-20.8955221097,26.8656701619 m21.6417896345,12.6865665744 l14.925372094,-2.23880576502 12.6865665744,-5.97014903395 l55.2238793003,-79.1044715094 1.49253725849,-8.20895455355 l-5.22388052742,-1.49253725849 -28.358207175,2.23880576502 l-30.5970136763,20.1492526215 m26.8656701619,77.6119325329 l35.8208922403,-60.4477578644 0.746268629244,-9.70149156662 l-9.70149156662,-2.98507451698 " fill="none" stroke="black" stroke-width="1.5" /></svg>