<?xml version="1.0" encoding="utf-8" ?>
<svg baseProfile="full" height="300" version="1.1" width="300" xmlns="http://www.w3.org/2000/svg" xmlns:ev="http://www.w3.org/2001/xml-events" xmlns:xlink="http://www.w3.org/1999/xlink"><defs /><rect fill="none" height="300" width="300" x="0" y="0" /><path d="M69.3143924003,95.8612054388 m8.36120378899,-7.10702338562 l15.0501670402,-7.52508352008 22.1571898758,-8.77926392344 l25.5016709515,-7.10702338562 55.6020050318,-0.418060203198 l25.0836124668,10.0334443268 20.0668886536,16.722407578 l15.0501670402,20.9030100224 8.36120378899,23.411371929 l1.67224081279,24.6655517824 -1.67224081279,23.411371929 l-6.68896325117,20.0668886536 -7.94314365453,14.6321063558 l-9.1973240579,9.1973240579 -12.9598658179,5.0167221634 l-17.1404682624,2.09030094725 -42.6421414136,0.418060203198 l-22.5752505602,-4.18060189449 -44.3143797517,-15.0501670402 l-18.3946481158,-10.0334443268 -13.3779265023,-13.7959860868 l-8.77926392344,-19.2307694846 -2.92642149113,-25.0836124668 l1.67224081279,-27.5919721737 4.18060189449,-24.2474910981 m79.0133725613,26.7558530047 l0.0,0.0 m73.5785924632,15.8862873091 l0.0,0.0 m-99.916389183,-13.3779265023 l5.85284298226,-0.836120406396 3.34448162558,1.25418054085 l1.67224081279,2.92642149113 -0.418060203198,3.34448162558 l-7.10702338562,4.18060189449 m78.5953206759,0.0 l17.5585278469,-2.09030094725 -0.418060203198,2.5083610817 l-6.68896325117,0.418060203198 -0.836120406396,-3.34448162558 m-112.458192117,47.2408001429 l52.2575239561,2.92642149113 73.9966531476,0.0 l8.36120378899,-1.67224081279 1.67224081279,-5.0167221634 m-181.438125851,-83.1939794052 l194.816050153,1.25418054085 12.5418062334,-2.5083610817 l3.34448162558,-3.76254176004 -4.59866202895,-3.34448162558 l-10.4515050112,-4.18060189449 -17.1404682624,-5.85284298226 l-24.2474910981,-5.43478229786 -34.6989972091,-4.18060189449 l-48.4949821961,1.67224081279 -26.3377923203,4.59866202895 l-42.2240807292,11.2876252801 -27.5919721737,9.61538474229 l54.3478273781,-15.0501670402 67.3076909963,-11.7056859645 l26.3377923203,-1.67224081279 43.4782583829,0.418060203198 l13.3779265023,3.76254176004 3.76254176004,3.76254176004 l-2.5083610817,4.59866202895 -15.4682277245,4.59866202895 l-88.2106988189,5.85284298226 -70.6521720719,9.61538474229 l6.68896325117,-4.18060189449 26.7558530047,-9.61538474229 l40.5518379916,-10.4515050112 46.4046831736,-7.10702338562 l44.3143797517,-1.67224081279 33.8628758403,1.67224081279 l17.1404682624,5.85284298226 2.5083610817,6.68896325117 l-10.4515050112,10.4515050112 -23.411371929,7.10702338562 l-116.220738276,20.484949338 -35.1170556938,7.94314365453 l32.1906353025,-9.61538474229 40.5518379916,-9.1973240579 l42.2240807292,-6.27090311671 59.3645467918,-3.34448162558 l-44.3143797517,-1.67224081279 -45.1505011205,-4.18060189449 l-48.4949821961,-2.09030094725 " fill="none" stroke="black" stroke-width="1.5" /></svg>