<?xml version="1.0" encoding="utf-8" ?>
<svg baseProfile="full" height="300" version="1.1" width="300" xmlns="http://www.w3.org/2000/svg" xmlns:ev="http://www.w3.org/2001/xml-events" xmlns:xlink="http://www.w3.org/1999/xlink"><defs /><rect fill="none" height="300" width="300" x="0" y="0" /><path d="M46.309766234,113.357591836 m2.07900215078,-5.71725565827 l11.9542624525,-6.75675656273 8.31600860314,-18.1912678793 l3.11850305525,-3.11850305525 14.0332642614,-8.31600860314 l21.3097719601,-0.519750537696 18.1912678793,3.63825384934 l12.474012221,6.2370061105 15.0727651659,15.0727651659 l19.2307701511,29.6257791958 7.79625815091,-1.55925152762 l4.6777547538,-4.15800430157 0.519750537696,-7.79625815091 l-5.71725565827,-11.9542624525 -11.9542624525,-8.83575905537 l-0.519750537696,-17.6715181107 1.55925152762,-3.63825384934 m2.59875260302,-2.07900215078 l6.2370061105,-2.59875260302 m3.63825384934,-1.03950107539 l20.2702710556,-3.63825384934 m8.83575905537,5.19750520603 l7.79625815091,8.83575905537 0.519750537696,9.3555095076 l-5.19750520603,5.19750520603 -4.15800430157,1.55925152762 l-10.9147608643,-0.519750537696 -4.15800430157,4.15800430157 l11.4345113165,20.7900208241 2.07900215078,12.474012221 m-18.1912678793,16.1122660703 l-10.3950104121,3.63825384934 m-12.474012221,1.55925152762 l-12.474012221,-1.55925152762 -23.388773769,-7.27650769867 m-22.8690226331,10.3950104121 l-22.3492728645,1.55925152762 m121.621623599,-23.388773769 l-7.79625815091,13.5135131255 -12.474012221,10.9147608643 l-12.474012221,4.15800430157 -18.7110190152,1.55925152762 l-44.6985457291,-15.0727651659 -16.1122660703,-2.07900215078 l-18.1912678793,2.59875260302 -18.1912678793,-0.519750537696 l-21.8295217286,-3.11850305525 -4.6777547538,-8.83575905537 l-6.75675656273,-6.75675656273 14.5530153973,-7.27650769867 l9.87525995984,-8.31600860314 m29.1060307947,16.6320172063 l-15.5925163018,91.4760905323 -4.15800430157,14.0332642614 m22.8690226331,-93.0353439401 l-9.3555095076,32.7442832766 -7.79625815091,43.6590434572 l-6.75675656273,24.948024442 m155.925154814,-167.879420001 l3.11850305525,-2.59875260302 10.3950104121,-2.07900215078 l10.9147608643,0.0 6.75675656273,2.59875260302 l18.1912678793,15.0727651659 11.9542624525,5.19750520603 l-3.11850305525,-3.11850305525 -3.11850305525,-0.519750537696 l-15.5925163018,2.59875260302 -14.5530153973,-0.519750537696 l-12.9937633569,-5.19750520603 3.11850305525,-1.03950107539 l31.1850326036,13.5135131255 m10.3950104121,4.15800430157 " fill="none" stroke="black" stroke-width="1.5" /></svg>