<?xml version="1.0" encoding="utf-8" ?>
<svg baseProfile="full" height="300" version="1.1" width="300" xmlns="http://www.w3.org/2000/svg" xmlns:ev="http://www.w3.org/2001/xml-events" xmlns:xlink="http://www.w3.org/1999/xlink"><defs /><rect fill="none" height="300" width="300" x="0" y="0" /><path d="M76.2048183575,76.0374847935 m-29.7858093642,2.34270423591 l-13.3868805933,3.01204817752 -4.01606408995,4.68540847181 l-2.34270423591,6.69344029666 -1.67336007416,13.7215530044 l0.334672025839,8.70147212151 19.0763045373,-6.35876832585 l37.8179366636,-4.68540847181 m-7.02811226747,-29.116466303 l2.00803204497,-1.33868810336 36.8139229524,-1.33868810336 m-28.4471214809,7.36278423828 l11.3788487685,0.0 11.3788487685,-2.00803204497 m-13.0522090628,2.00803204497 l0.669344051678,7.02811226747 m-17.7376166541,17.7376166541 l4.68540847181,3.34672014833 4.35073606075,8.70147212151 l0.669344051678,19.4109769484 -2.00803204497,15.3949132987 l-0.334672025839,25.1004008924 1.00401602249,10.0401608852 l4.68540847181,16.3989287708 m17.402944243,-132.1954474 l5.35475241343,9.03614453256 2.67737620671,13.7215530044 l0.0,19.7456493594 -4.35073606075,30.7898265973 l-0.334672025839,9.37081694362 0.334672025839,10.0401608852 l1.67336007416,9.70548847418 4.68540847181,15.3949132987 m39.1566263078,-15.0602408876 l-1.67336007416,-1.00401602249 -3.68139211914,0.0 l-8.03212817989,1.33868810336 -16.0642563598,9.37081694362 l-27.4431060087,10.3748324158 0.334672025839,2.00803204497 l8.70147212151,11.3788487685 11.0441763574,6.69344029666 l7.02811226747,2.00803204497 27.4431060087,3.34672014833 l20.4149924205,0.0 10.0401608852,-1.00401602249 l19.4109769484,-4.01606408995 15.7295857097,-5.02008044262 l12.7175366517,-6.02409635504 9.03614453256,-8.03212817989 m-83.3333317374,-19.4109769484 l23.092369948,0.334672025839 25.1004008924,4.68540847181 l12.7175366517,5.35475241343 -5.35475241343,1.33868810336 l25.7697457145,7.36278423828 3.68139211914,1.67336007416 l3.68139211914,4.68540847181 m-214.524761904,-118.139220223 l4.68540847181,0.0 3.68139211914,4.35073606075 l2.00803204497,9.03614453256 0.0,11.0441763574 m41.8340020742,75.9705457382 l3.68139211914,13.0522090628 10.0401608852,23.7617130091 m130.522085345,-17.7376166541 l2.00803204497,-1.33868810336 13.7215530044,-2.34270423591 l29.116466303,-7.69745664933 -8.03212817989,23.4270405981 l-5.35475241343,10.3748324158 -6.35876832585,3.68139211914 l-21.7536820648,1.00401602249 m-81.6599696822,-47.8580984293 l7.02811226747,0.0 21.4190096537,7.02811226747 l-8.70147212151,13.0522090628 -7.36278423828,7.69745664933 l4.01606408995,0.669344051678 7.02811226747,-2.34270423591 l10.0401608852,-1.00401602249 2.34270423591,1.67336007416 l0.334672025839,5.02008044262 -8.03212817989,7.36278423828 " fill="none" stroke="black" stroke-width="1.5" /></svg>