<?xml version="1.0" encoding="utf-8" ?>
<svg baseProfile="full" height="300" version="1.1" width="300" xmlns="http://www.w3.org/2000/svg" xmlns:ev="http://www.w3.org/2001/xml-events" xmlns:xlink="http://www.w3.org/1999/xlink"><defs /><rect fill="none" height="300" width="300" x="0" y="0" /><path d="M47.5988718624,57.4858570176 m-0.941619606098,29.6610170502 l-9.41619575132,63.5593222504 m41.4312608103,-97.457622496 l-1.8832392122,12.7118644501 -1.41242933173,43.3145021902 l-3.29566869876,41.9020711553 m-34.3691155452,-9.41619575132 l-4.23728815003,52.2598888352 -8.00376657442,51.7890784902 l-0.470809803049,12.2410541051 m45.6685489604,-105.932198796 l-2.82485866346,23.0696796527 0.0,36.7231647927 l-1.8832392122,24.9529185552 m42.8436918452,-182.203385497 l2.35404893783,10.8286255475 10.8286255475,16.4783422551 l35.7815441027,69.2090414353 5.17890760129,8.94538602569 l5.17890760129,5.64971732693 -8.00376657442,1.8832392122 l-19.3032018476,10.3578152026 -55.0847459503,38.1355933502 l-9.41619575132,8.94538602569 m1.41242933173,-140.301314341 l15.0659136976,31.0734456078 11.2994346539,19.3032018476 l10.3578152026,23.5404899976 m0.470809803049,-2.35404893783 l-38.6064036952,36.2523544477 m137.476462181,-139.830503996 l6.59133739752,9.88700547695 5.64971732693,12.7118644501 l3.29566869876,11.7702449988 0.0,8.00376657442 m1.8832392122,-4.23728815003 l-1.8832392122,2.35404893783 -10.8286255475,32.0150662977 l0.0,13.182674795 2.82485866346,6.12052705256 l15.5367228039,25.8945392451 11.2994346539,23.0696796527 l5.64971732693,5.64971732693 9.41619575132,-2.82485866346 l10.8286255475,-16.9491526001 0.941619606098,-8.47457630005 l-2.82485866346,-24.9529185552 2.35404893783,-46.6101696503 l-15.5367228039,-25.8945392451 -11.7702449988,-31.5442559527 m21.1864407501,110.169491901 l-3.76647842439,-3.29566869876 -18.8323915026,0.0 l-5.17890760129,2.82485866346 -9.88700547695,11.7702449988 l-1.41242933173,3.76647842439 m31.0734456078,19.3032018476 l-3.29566869876,-12.7118644501 m3.76647842439,-53.2015045705 l-0.941619606098,5.17890760129 " fill="none" stroke="black" stroke-width="1.5" /></svg>