<?xml version="1.0" encoding="utf-8" ?>
<svg baseProfile="full" height="300" version="1.1" width="300" xmlns="http://www.w3.org/2000/svg" xmlns:ev="http://www.w3.org/2001/xml-events" xmlns:xlink="http://www.w3.org/1999/xlink"><defs /><rect fill="none" height="300" width="300" x="0" y="0" /><path d="M25.0,170.579267204 m3.91986059374,1.52439029456 l8.27526118979,1.30662015017 11.1062720642,0.871080147857 l12.8484320735,0.0 48.99825513,-3.26655059027 l48.7804894259,0.0 44.2073179693,-2.39547029918 l55.3135888876,3.48432059143 14.8083623703,0.217770036964 l1.74216029571,0.217770036964 -1.30662015017,0.435540073929 m-114.764804073,13.2839715028 l1.30662015017,-4.79094059836 0.871080147857,-10.670731489 m-0.435540073929,16.7682926672 l-2.61324030034,0.0 -8.27526118979,1.95993029687 l-7.40418118517,3.04878058912 m18.7282229641,-4.57317059721 l6.53310118054,5.87979089061 4.57317059721,1.95993029687 m-12.6306617858,-4.57317059721 l0.871080147857,6.31533089292 m1.95993029687,-22.6480824119 l-1.95993029687,-11.5418114936 -3.48432059143,-11.7595817812 l-4.1376305949,-18.7282229641 -0.217770036964,-4.79094059836 l1.08885014901,-1.08885014901 m-27.6567944438,-6.09756117823 l3.91986059374,3.04878058912 4.35540059605,2.17770029803 l5.66202060299,1.52439029456 9.36411148204,0.653310075084 l30.0522653159,-4.1376305949 3.70209059258,-1.52439029456 l1.74216029571,-2.17770029803 0.871080147857,-3.70209059258 l0.0,-4.79094059836 -1.08885014901,-4.35540059605 l-1.52439029456,-2.61324030034 -2.83101030149,-0.871080147857 l-9.79965148435,0.217770036964 -15.4616720873,-1.95993029687 l-11.1062720642,0.653310075084 -8.0574914751,2.39547029918 l-7.83972118748,3.70209059258 -1.95993029687,1.30662015017 l1.52439029456,7.40418118517 m2.39547029918,-3.26655059027 l-3.70209059258,-0.217770036964 -8.7108011921,1.95993029687 l-1.95993029687,4.1376305949 -5.4442508883,17.2038320966 l-2.17770029803,12.4128914982 0.871080147857,27.2212538686 l11.5418114936,0.871080147857 7.83972118748,2.17770029803 l1.08885014901,0.653310075084 0.217770036964,1.08885014901 l-0.435540073929,5.22648060067 -1.95993029687,1.30662015017 l-12.4128914982,0.217770036964 -25.9146344346,-3.91986059374 l16.332752092,-6.53310118054 8.27526118979,-0.871080147857 m59.2334494813,-56.6202106133 l2.61324030034,7.40418118517 1.95993029687,10.4529612013 l-3.48432059143,10.8885017766 m6.75087089523,-12.4128914982 l6.75087089523,13.2839715028 3.26655059027,2.61324030034 l1.74216029571,-0.435540073929 m-14.8083623703,-10.4529612013 l3.70209059258,2.17770029803 " fill="none" stroke="black" stroke-width="1.5" /></svg>