<?xml version="1.0" encoding="utf-8" ?>
<svg baseProfile="full" height="600.770595707" version="1.1" width="890.230508577" xmlns="http://www.w3.org/2000/svg" xmlns:ev="http://www.w3.org/2001/xml-events" xmlns:xlink="http://www.w3.org/1999/xlink"><defs /><rect fill="none" height="600.770595707" width="890.230508577" x="0" y="0" /><path d="M25,25 m0.0,0.0 m78.2336044312,71.8282371759 l-4.19126033783,9.51529324055 -8.49579751492,16.651763916 l-1.5858823061,5.89041948318 0.0,0.679663792253 l0.679663792253,0.45310921967 34.8894095421,0.113277304918 l23.1085705757,1.69915959239 21.8625187874,1.13277301192 l20.5031919479,1.92571416497 1.01949572563,-4.41781491041 l2.37882331014,-18.1243681908 0.45310921967,-12.4605035782 l0.906218439341,-9.17546153069 -0.113277304918,-2.71865516901 l-1.4726048708,-0.566386505961 -7.13647007942,-0.113277304918 l-15.8588218689,0.792941153049 m-91.0749530792,-0.113277304918 l-1.13277301192,7.47630178928 -1.92571416497,6.57008349895 l-2.49210059643,11.8941164017 m7.13647007942,-27.2998309135 l7.02319264412,-0.226554609835 2.15226873755,0.566386505961 m-18.0110907555,8.72235238552 l0.339831896126,0.566386505961 1.4726048708,0.792941153049 l3.62487375736,1.24605029821 13.0268895626,2.03899145126 l7.36302495003,0.792941153049 m9.85512554646,-16.9915950298 l0.0,1.92571416497 -1.69915959239,5.89041948318 l-2.83193260431,17.2181499004 0.792941153049,0.339831896126 l8.83562982082,0.566386505961 m13.0268895626,-18.8040328026 l0.113277304918,2.37882331014 -1.81243687868,7.70285665989 l-3.85142832994,13.2534444332 m7.70285665989,-22.3156285286 l1.69915959239,9.28873896599 1.13277301192,12.3472261429 m-8.60907495022,-7.70285665989 l4.30453747511,-1.4726048708 3.1717646122,-0.113277304918 m13.0268895626,-11.7808389664 l1.5858823061,14.1596627235 0.113277304918,6.79663836956 m-1.81243687868,-21.9757962227 l2.71865516901,4.53109204769 1.13277301192,3.28504174948 l2.94520974159,6.11697435379 3.73815089464,6.00369691849 l1.13277301192,-8.72235238552 1.69915959239,-7.92941093445 l0.679663792253,-1.81243687868 m7.13647007942,0.566386505961 l0.45310921967,0.566386505961 0.45310921967,3.96470546722 l0.792941153049,11.4410078526 -0.226554609835,2.26554602385 l-0.906218439341,1.13277301192 m5.89041948318,-21.5226864815 l0.566386505961,3.39831918478 1.13277301192,14.8393261433 l1.01949572563,7.02319264412 m-1.24605029821,-22.089073658 l7.70285665989,18.1243681908 2.03899145126,3.85142832994 l0.45310921967,-1.01949572563 0.113277304918,-15.0658810139 m7.13647007942,-3.73815089464 l1.13277301192,4.75764662027 0.679663792253,5.43731033802 l1.35932758451,17.1048724651 m117.896304131,-20.1067215204 l3.39831918478,-8.26924324036 0.339831896126,-2.71865516901 l0.0,-6.23025178909 -1.01949572563,-3.62487375736 l11.1011755466,-0.113277304918 m-9.06218409538,8.60907495022 l6.11697435379,0.113277304918 m9.74184811115,-12.4605035782 l-0.679663792253,1.81243687868 -0.906218439341,6.00369691849 l0.0,4.07798290253 -0.679663792253,5.77714264393 l4.07798290253,1.35932758451 6.00369691849,0.906218439341 m1.69915959239,1.69915959239 l2.83193260431,-4.30453747511 1.81243687868,-5.89041948318 l0.226554609835,11.3277304173 0.339831896126,0.45310921967 m-1.5858823061,-1.13277301192 l-2.71865516901,-1.92571416497 2.94520974159,0.0 m5.09747862816,2.94520974159 l-0.45310921967,-9.85512554646 0.792941153049,-3.51159632206 l0.339831896126,1.69915959239 1.92571416497,4.87092405558 l2.83193260431,-6.79663836956 1.01949572563,1.92571416497 l0.566386505961,3.1717646122 0.226554609835,8.15596580505 l0.566386505961,1.5858823061 m8.15596580505,-14.1596627235 l-0.113277304918,12.3472261429 -0.566386505961,-4.19126033783 m-0.339831896126,-15.9720993042 l-0.566386505961,1.35932758451 0.679663792253,0.0 l-0.226554609835,0.566386505961 -0.226554609835,-1.4726048708 m7.13647007942,18.2376456261 l3.39831918478,-5.55058777332 0.339831896126,-2.26554602385 l-0.792941153049,-5.32403349876 -0.339831896126,3.85142832994 l0.566386505961,5.32403349876 3.1717646122,0.566386505961 l2.83193260431,-0.226554609835 3.96470546722,-7.36302495003 l-0.113277304918,-6.45680606365 -0.45310921967,-1.01949572563 m14.7260499001,2.26554602385 l-0.792941153049,-0.226554609835 -1.92571416497,3.0584871769 l-2.03899145126,6.00369691849 -0.566386505961,4.41781491041 l1.4726048708,0.45310921967 0.0,-2.49210059643 l-1.4726048708,-1.69915959239 1.4726048708,0.226554609835 l0.566386505961,-0.679663792253 m18.3509230614,-9.40201640129 l-1.92571416497,0.0 -1.4726048708,2.26554602385 l-1.92571416497,9.40201640129 0.226554609835,4.75764662027 l1.81243687868,0.0 9.06218409538,-17.6712596416 l-1.92571416497,-2.49210059643 -2.83193260431,-0.339831896126 m-15.7455456257,4.19126033783 l-1.13277301192,0.45310921967 -2.03899145126,1.5858823061 l-1.35932758451,10.081679821 1.01949572563,4.07798290253 l5.66386520863,-3.28504174948 0.906218439341,-2.71865516901 l-0.226554609835,-0.679663792253 -1.81243687868,-1.24605029821 l0.0,-0.566386505961 3.0584871769,-1.4726048708 m-29.1122674942,-3.1717646122 l1.69915959239,5.55058777332 1.5858823061,2.94520974159 l1.24605029821,1.69915959239 1.81243687868,1.35932758451 l1.69915959239,-8.60907495022 -0.113277304918,-3.1717646122 l0.45310921967,-3.1717646122 m-41.4594936371,14.3862175941 m223.300836086,8.26924324036 l0.0,0.0 m-33.0769729614,-15.1791584492 l0.792941153049,3.96470546722 0.226554609835,3.28504174948 l-0.226554609835,12.800334692 m-4.64436948299,-9.85512554646 l10.4215121269,-2.94520974159 0.906218439341,-0.113277304918 l0.339831896126,0.566386505961 -0.339831896126,0.113277304918 m-7.02319264412,-8.26924324036 l8.49579751492,-1.13277301192 4.87092405558,1.13277301192 l1.4726048708,0.566386505961 0.679663792253,0.679663792253 m10.6480669975,0.792941153049 l0.566386505961,6.11697435379 2.60537803173,12.9136121273 m8.38252067566,-0.566386505961 l-0.566386505961,-1.35932758451 0.113277304918,-1.5858823061 l2.94520974159,-5.21075606346 11.1011755466,-14.8393261433 l3.28504174948,-3.73815089464 0.45310921967,0.679663792253 l1.69915959239,5.77714264393 0.45310921967,3.62487375736 l-0.113277304918,2.49210059643 -1.35932758451,2.49210059643 l-12.4605035782,6.68336093426 -6.57008349895,0.226554609835 l-2.49210059643,-0.339831896126 0.566386505961,-0.566386505961 m31.7176437378,-15.9720993042 l-2.37882331014,8.72235238552 -0.906218439341,6.90991520882 m4.98420119286,1.01949572563 l2.49210059643,-2.26554602385 3.39831918478,-2.37882331014 l2.03899145126,-0.792941153049 1.4726048708,-0.113277304918 l0.792941153049,0.226554609835 0.339831896126,0.566386505961 l0.45310921967,5.32403349876 2.71865516901,-0.906218439341 l2.26554602385,-0.226554609835 0.792941153049,0.906218439341 l-0.226554609835,0.906218439341 m-15.2924358845,-4.75764662027 l1.4726048708,7.70285665989 m17.784537077,-0.45310921967 l0.113277304918,1.69915959239 m0.906218439341,-13.1401669979 l0.0,0.0 m-18.4642004967,8.49579751492 l8.49579751492,-8.04268836975 1.24605029821,-0.339831896126 l0.566386505961,0.566386505961 0.792941153049,2.37882331014 l1.35932758451,8.15596580505 -0.113277304918,2.03899145126 l-1.01949572563,3.1717646122 m-7.81613409519,-11.7808389664 l0.339831896126,0.339831896126 m19.9368047714,5.77714264393 l-0.45310921967,-5.32403349876 0.45310921967,-5.21075606346 l1.13277301192,-5.77714264393 1.69915959239,-5.21075606346 l1.4726048708,-3.1717646122 1.13277301192,-1.35932758451 l1.24605029821,-0.339831896126 9.17546153069,4.53109204769 l3.51159632206,2.49210059643 1.24605029821,1.69915959239 l1.4726048708,5.09747862816 0.0,5.43731033802 l-1.13277301192,5.09747862816 -2.26554602385,7.36302495003 l-1.13277301192,1.81243687868 -0.792941153049,0.339831896126 l-2.37882331014,-0.566386505961 -2.15226873755,-1.24605029821 m167.511754036,-2.83193349838 l-0.226554609835,-12.4605035782 0.339831896126,-2.26554602385 l0.0,-5.43731033802 1.4726048708,-7.47630178928 l2.03899145126,-5.32403349876 1.69915959239,-3.1717646122 m-12.800334692,8.15596580505 l-2.03899145126,22.2023510933 0.0,3.28504174948 m-11.2144529819,-25.0342845917 l-0.113277304918,15.6322681904 -1.24605029821,9.85512554646 m-12.5737810135,-24.5811748505 l-1.01949572563,4.30453747511 0.0,16.0853767395 m38.740837574,-21.5226864815 l-5.32403349876,-0.792941153049 -4.30453747511,0.0 l-8.83562982082,1.13277301192 -10.874620676,0.226554609835 l-10.4215121269,2.37882331014 -3.1717646122,0.339831896126 l-0.226554609835,-0.566386505961 2.15226873755,-1.5858823061 l3.62487375736,-4.30453747511 2.71865516901,-1.5858823061 l29.3388223648,0.226554609835 7.24974751472,1.81243687868 m-1.81243687868,0.792941153049 l-0.45310921967,-1.4726048708 0.566386505961,-2.26554602385 l2.26554602385,-4.53109204769 1.5858823061,-1.81243687868 l6.90991520882,-5.09747862816 6.57008349895,-2.60537803173 l4.07798290253,0.0 2.03899145126,1.5858823061 l0.45310921967,3.39831918478 -0.566386505961,1.92571416497 l-2.49210059643,2.37882331014 -4.41781491041,1.92571416497 l-4.87092405558,0.906218439341 -8.26924324036,0.679663792253 l-0.906218439341,-0.792941153049 -1.69915959239,-2.94520974159 m15.6322681904,-5.32403349876 l2.03899145126,-0.113277304918 m4.19126033783,37.154955864 l-0.906218439341,-2.71865516901 -0.339831896126,-2.60537803173 l0.113277304918,-7.36302495003 1.01949572563,-5.32403349876 l0.792941153049,-2.37882331014 0.792941153049,-0.679663792253 l1.35932758451,0.339831896126 4.64436948299,2.49210059643 m-15.6322681904,8.94890666008 l2.94520974159,0.679663792253 4.30453747511,1.5858823061 l3.0584871769,0.566386505961 m10.1949572563,-12.9136121273 l0.113277304918,10.5347895622 0.679663792253,5.43731033802 m6.79663836956,0.792941153049 l-0.45310921967,-1.4726048708 -0.792941153049,-10.5347895622 m0.792941153049,-7.70285665989 l-0.226554609835,0.0 m1.01949572563,19.9368047714 l0.339831896126,-3.1717646122 1.69915959239,-3.62487375736 l1.69915959239,-1.81243687868 0.792941153049,3.85142832994 l2.26554602385,-6.23025178909 m-733.054622412,146.375126839 l-12.800334692,3.51159632206 0.679663792253,-0.113277304918 l7.24974751472,6.23025178909 2.49210059643,-0.566386505961 l1.13277301192,-0.906218439341 1.13277301192,-3.28504174948 l-0.339831896126,-2.71865516901 1.5858823061,-3.73815089464 l3.28504174948,-6.11697435379 0.792941153049,-0.113277304918 l3.96470546722,0.906218439341 8.38252067566,2.60537803173 l2.26554602385,1.69915959239 1.13277301192,1.92571416497 l0.679663792253,2.26554602385 -2.26554602385,1.92571416497 l-2.94520974159,1.69915959239 -6.45680606365,2.83193260431 l-5.09747862816,0.906218439341 -5.66386520863,0.45310921967 l-1.35932758451,-0.226554609835 6.23025178909,-1.5858823061 l2.15226873755,0.339831896126 -0.339831896126,9.06218409538 l-0.906218439341,6.11697435379 -3.1717646122,9.74184811115 l-3.0584871769,-5.89041948318 -2.94520974159,-4.75764662027 l-1.24605029821,-4.87092405558 1.81243687868,-1.13277301192 l2.71865516901,-0.792941153049 5.77714264393,1.24605029821 l1.35932758451,1.13277301192 -1.69915959239,1.01949572563 l-3.1717646122,4.98420119286 -5.09747862816,16.7650413513 l-1.92571416497,4.07798290253 -1.13277301192,0.906218439341 l-1.81243687868,0.0 0.679663792253,-5.09747862816 l0.226554609835,1.5858823061 -0.339831896126,-3.73815089464 l1.24605029821,2.94520974159 1.13277301192,-5.32403349876 l0.226554609835,4.98420119286 0.339831896126,-2.60537803173 l1.4726048708,-0.906218439341 m4.64436948299,-5.55058777332 l3.28504174948,9.85512554646 1.13277301192,2.26554602385 l0.113277304918,-0.792941153049 -0.792941153049,-0.906218439341 l-2.15226873755,-1.35932758451 -3.0584871769,-0.906218439341 l1.4726048708,2.83193260431 2.49210059643,2.26554602385 l1.01949572563,-0.339831896126 0.906218439341,-1.13277301192 l1.13277301192,-2.03899145126 0.566386505961,-2.83193260431 l-0.113277304918,4.98420119286 0.566386505961,-2.49210059643 l-2.60537803173,-5.89041948318 -0.906218439341,-1.24605029821 l-0.339831896126,0.0 m-25.9405016899,-47.689743042 l-0.679663792253,2.15226873755 -0.566386505961,9.17546153069 l0.339831896126,3.0584871769 0.226554609835,-4.98420119286 m-0.339831896126,-9.28873896599 l3.62487375736,-0.792941153049 3.85142832994,0.0 m-7.92941093445,5.55058777332 l2.83193260431,-0.792941153049 8.15596580505,0.679663792253 l-0.792941153049,-0.339831896126 m3.0584871769,-6.57008349895 l-0.45310921967,11.7808389664 0.339831896126,0.339831896126 m2.15226873755,-5.89041948318 l-0.792941153049,1.4726048708 -0.566386505961,3.28504174948 l3.51159632206,-0.113277304918 1.69915959239,-1.69915959239 l-0.113277304918,-1.4726048708 -0.792941153049,-1.24605029821 l-0.226554609835,2.26554602385 1.35932758451,1.4726048708 l4.19126033783,0.906218439341 m220.752093196,-14.5561307669 l-0.339831896126,-2.03899145126 -2.15226873755,-1.4726048708 l-1.5858823061,-0.45310921967 -4.75764662027,-0.113277304918 l-2.26554602385,0.339831896126 -2.26554602385,1.01949572563 l-2.60537803173,3.0584871769 -0.906218439341,2.03899145126 l-1.01949572563,5.77714264393 -0.113277304918,10.9878981113 l1.81243687868,17.6712596416 m-5.55058777332,-19.0305864811 l0.113277304918,-0.566386505961 8.15596580505,-1.81243687868 l7.24974751472,-0.45310921967 m11.8941164017,-12.5737810135 l-0.679663792253,-0.339831896126 0.0,1.01949572563 l1.24605029821,9.74184811115 0.679663792253,9.85512554646 l1.69915959239,8.60907495022 1.35932758451,2.03899145126 m14.0463852882,-19.1438639164 l-1.4726048708,-1.4726048708 -2.60537803173,-0.113277304918 l-3.51159632206,3.62487375736 -3.51159632206,6.00369691849 l-1.24605029821,4.53109204769 0.0,1.92571416497 l1.13277301192,1.92571416497 2.71865516901,2.71865516901 l4.19126033783,1.92571416497 4.30453747511,0.226554609835 l1.5858823061,-0.792941153049 1.13277301192,-1.92571416497 m-3.51159632206,-17.444704771 l1.24605029821,2.83193260431 2.60537803173,8.26924324036 l2.83193260431,11.7808389664 0.566386505961,-0.566386505961 m6.11697435379,-4.30453747511 l-1.5858823061,-6.90991520882 0.226554609835,-5.66386520863 l0.566386505961,-0.792941153049 2.26554602385,-0.45310921967 l2.60537803173,2.49210059643 2.15226873755,3.51159632206 l0.226554609835,-2.83193260431 1.01949572563,-4.30453747511 l1.92571416497,-2.49210059643 1.35932758451,-0.113277304918 l3.51159632206,4.19126033783 1.24605029821,2.03899145126 l1.81243687868,4.64436948299 1.01949572563,5.32403349876 l0.113277304918,6.23025178909 m-77.8215074539,9.51529324055 l-0.679663792253,0.226554609835 8.04268836975,0.0 m12.2339487076,-3.62487375736 l0.679663792253,9.85512554646 1.35932758451,5.21075606346 l0.226554609835,1.5858823061 -0.45310921967,-0.339831896126 m-1.4726048708,-23.1085705757 l1.35932758451,0.792941153049 0.792941153049,0.0 m8.15596580505,5.89041948318 l1.5858823061,16.9915950298 -1.13277301192,-4.41781491041 l-0.45310921967,-8.04268836975 1.01949572563,-3.1717646122 l1.35932758451,-1.5858823061 2.71865516901,-1.69915959239 l3.96470546722,0.226554609835 1.24605029821,1.01949572563 l3.96470546722,7.92941093445 1.81243687868,6.90991520882 l0.226554609835,0.566386505961 0.339831896126,0.0 m13.5932767391,-17.5579822063 m162.867391109,-16.1986505985 l0.0,-14.6127724648 11.7808389664,1.5858823061 m-10.9878981113,3.96470546722 l7.24974751472,1.01949572563 m5.32403349876,-6.68336093426 l0.0,12.6870584488 1.24605029821,0.679663792253 l1.5858823061,0.226554609835 9.40201640129,0.339831896126 m1.69915959239,-0.566386505961 l0.0,-2.37882331014 2.49210059643,-10.3082346916 l0.906218439341,3.85142832994 0.339831896126,8.72235238552 l0.339831896126,0.566386505961 m-3.28504174948,-5.21075606346 l2.83193260431,-0.113277304918 m3.96470546722,3.85142832994 l0.0,-4.07798290253 2.83193260431,-11.1011755466 l0.566386505961,0.679663792253 0.906218439341,2.60537803173 l2.60537803173,8.49579751492 1.01949572563,-8.15596580505 l0.45310921967,1.5858823061 0.906218439341,9.40201640129 l0.226554609835,0.792941153049 0.226554609835,-0.113277304918 m3.28504174948,-0.906218439341 l0.113277304918,-7.58957922459 0.679663792253,-4.19126033783 m-3.0584871769,-1.13277301192 l6.45680606365,0.226554609835 m-6.68336093426,11.7808389664 l1.92571416497,0.0 4.07798290253,0.906218439341 m4.64436948299,-0.906218439341 l1.01949572563,-7.47630178928 0.566386505961,-1.81243687868 l0.566386505961,1.13277301192 1.69915959239,8.38252067566 l1.01949572563,2.49210059643 1.24605029821,-4.98420119286 l0.566386505961,-5.09747862816 m7.13647007942,-0.339831896126 l-0.566386505961,0.0 -0.339831896126,2.94520974159 l0.226554609835,4.53109204769 0.339831896126,0.566386505961 l1.24605029821,0.679663792253 2.15226873755,0.0 l0.566386505961,-0.45310921967 0.566386505961,-0.566386505961 l0.0,-2.03899145126 -0.566386505961,-0.566386505961 l-1.81243687868,-0.113277304918 m9.40201640129,2.71865516901 l-7.36302495003,-7.24974751472 1.81243687868,6.23025178909 l2.71865516901,1.24605029821 1.81243687868,-0.792941153049 m0.45310921967,-0.226554609835 m137.040157318,1.24604970217 l-1.81243687868,-9.17546153069 -0.113277304918,-7.02319264412 l1.01949572563,-3.85142832994 1.5858823061,-1.24605029821 l3.0584871769,-4.07798290253 0.566386505961,-0.45310921967 l0.566386505961,0.45310921967 m-13.2534444332,15.9720993042 l0.679663792253,0.45310921967 1.13277301192,0.113277304918 l2.71865516901,-0.226554609835 2.15226873755,-1.13277301192 l2.03899145126,0.0 3.39831918478,-1.35932758451 m9.74184811115,-10.9878981113 l-0.113277304918,10.9878981113 0.906218439341,3.0584871769 l3.28504174948,5.89041948318 m7.70285665989,-5.66386520863 l-1.81243687868,1.5858823061 -0.45310921967,1.24605029821 l0.339831896126,0.679663792253 1.13277301192,1.01949572563 l2.37882331014,1.01949572563 2.03899145126,0.113277304918 l1.81243687868,-0.679663792253 -0.566386505961,-4.75764662027 l-0.792941153049,-2.15226873755 -2.37882331014,-3.73815089464 l-1.4726048708,-0.792941153049 4.53109204769,7.92941093445 l14.4994950294,16.0853767395 m-3.39831918478,-18.577477932 l0.792941153049,2.37882331014 -0.792941153049,-7.02319264412 l0.679663792253,-0.45310921967 2.60537803173,1.24605029821 l1.81243687868,3.1717646122 0.679663792253,-2.49210059643 l-0.226554609835,-4.19126033783 0.566386505961,-0.226554609835 l3.39831918478,3.96470546722 3.62487375736,3.28504174948 l1.13277301192,2.60537803173 0.226554609835,3.1717646122 m6.79663836956,-6.3435292244 l0.792941153049,3.73815089464 m-1.5858823061,-8.60907495022 l0.0,0.0 m-0.679663792253,1.24605029821 l-0.113277304918,0.679663792253 m6.11697435379,4.41781491041 l0.339831896126,-1.69915959239 1.5858823061,-3.0584871769 l1.13277301192,-0.679663792253 1.35932758451,0.0 l1.4726048708,0.792941153049 0.792941153049,0.906218439341 l1.24605029821,3.85142832994 0.45310921967,3.1717646122 m7.92941093445,-5.21075606346 l-2.49210059643,0.45310921967 -0.226554609835,0.566386505961 l0.792941153049,2.15226873755 1.13277301192,1.01949572563 l0.566386505961,-0.113277304918 0.226554609835,-0.566386505961 l0.113277304918,-2.83193260431 -0.226554609835,-0.566386505961 l-0.113277304918,0.566386505961 -1.01949572563,7.02319264412 l-7.58957922459,15.0658810139 -2.71865516901,7.81613409519 l-5.66386520863,5.66386520863 -0.792941153049,-1.92571416497 l-0.113277304918,-3.28504174948 m33.1902503967,-29.5653748512 l-0.566386505961,0.45310921967 -0.45310921967,1.13277301192 l1.01949572563,1.01949572563 1.81243687868,0.226554609835 l0.566386505961,-0.339831896126 -0.226554609835,-2.15226873755 l-3.51159632206,-1.35932758451 m-763.3562994,166.311930418 l0.113277304918,8.04268836975 -0.906218439341,12.800334692 l-0.226554609835,-0.566386505961 m1.13277301192,-20.2766370773 l7.92941093445,0.566386505961 m-8.15596580505,10.1949572563 l6.90991520882,-0.113277304918 m3.96470546722,-6.3435292244 l0.113277304918,14.9526035786 12.4605035782,-2.15226873755 m-0.906218439341,-4.87092405558 l0.45310921967,3.1717646122 0.679663792253,1.81243687868 l0.0,-1.81243687868 -3.1717646122,-9.62857067585 l-1.4726048708,-6.57008349895 1.24605029821,3.28504174948 l6.00369691849,7.58957922459 1.35932758451,2.49210059643 m-4.64436948299,0.339831896126 l2.37882331014,-1.35932758451 1.81243687868,-0.566386505961 m1.4726048708,-10.6480669975 l0.339831896126,4.07798290253 1.01949572563,3.0584871769 l0.339831896126,2.26554602385 1.01949572563,2.26554602385 l0.339831896126,0.113277304918 m-2.83193260431,-11.8941164017 l0.45310921967,1.13277301192 0.679663792253,0.566386505961 l3.0584871769,1.69915959239 0.566386505961,-4.19126033783 l0.113277304918,16.4252090454 m7.58957922459,-13.5932767391 l0.113277304918,13.4799993038 m8.15596580505,-10.6480669975 l0.0,11.6675627232 m1.4726048708,-10.1949572563 l1.92571416497,1.35932758451 1.24605029821,1.5858823061 l0.792941153049,1.5858823061 0.339831896126,2.03899145126 l0.0,-14.9526035786 m6.23025178909,5.32403349876 l-0.566386505961,0.113277304918 -1.5858823061,4.19126033783 l-0.566386505961,2.15226873755 -0.113277304918,2.83193260431 l0.566386505961,0.566386505961 1.13277301192,0.226554609835 l1.4726048708,-0.679663792253 0.792941153049,-1.13277301192 l0.45310921967,0.566386505961 -0.679663792253,2.94520974159 l0.226554609835,8.49579751492 m9.85512554646,-18.2376456261 l-1.35932758451,0.0 -1.35932758451,1.35932758451 l-1.35932758451,4.87092405558 0.226554609835,2.49210059643 l1.13277301192,1.13277301192 1.24605029821,0.339831896126 l4.19126033783,0.113277304918 2.60537803173,-0.566386505961 l1.69915959239,-1.81243687868 0.45310921967,-3.96470546722 l-2.03899145126,-2.60537803173 -3.85142832994,-1.69915959239 l-6.00369691849,-1.24605029821 -1.13277301192,0.0 l-1.01949572563,1.13277301192 m182.577655315,-14.6694111824 l1.69915959239,-1.81243687868 2.03899145126,-3.1717646122 l0.792941153049,-0.45310921967 2.37882331014,-0.113277304918 l2.26554602385,0.679663792253 m-7.70285665989,0.566386505961 l1.35932758451,1.35932758451 1.92571416497,0.792941153049 m8.04268836975,-0.226554609835 l-0.339831896126,0.679663792253 -5.89041948318,5.77714264393 l-0.906218439341,1.5858823061 0.226554609835,0.679663792253 l1.13277301192,1.13277301192 2.60537803173,1.4726048708 l1.24605029821,-0.45310921967 0.566386505961,-0.566386505961 l4.64436948299,-5.77714264393 -1.13277301192,11.6675627232 m-1.5858823061,-8.04268836975 l0.113277304918,0.566386505961 1.13277301192,0.679663792253 m1.92571416497,6.23025178909 l0.566386505961,-0.113277304918 1.01949572563,-1.4726048708 l3.0584871769,-6.79663836956 -0.339831896126,5.32403349876 l3.1717646122,-2.49210059643 -1.01949572563,2.83193260431 l-2.26554602385,3.96470546722 m1.24605029821,0.566386505961 l1.13277301192,-0.566386505961 1.4726048708,-1.81243687868 l2.83193260431,-5.43731033802 m-2.37882331014,8.04268836975 l2.83193260431,-2.15226873755 -1.13277301192,3.73815089464 l1.01949572563,-0.339831896126 3.96470546722,-4.75764662027 l1.81243687868,-2.83193260431 m-2.26554602385,8.83562982082 l-1.01949572563,-0.339831896126 -1.24605029821,2.03899145126 l-0.45310921967,1.35932758451 1.35932758451,0.226554609835 l0.0,-0.906218439341 -0.566386505961,-1.13277301192 m3.51159632206,2.71865516901 l0.0,-4.07798290253 -0.45310921967,-0.339831896126 l-2.37882331014,5.09747862816 -0.113277304918,3.28504174948 l0.339831896126,0.792941153049 1.01949572563,0.45310921967 l0.792941153049,-0.792941153049 1.5858823061,-7.70285665989 l-1.01949572563,-4.30453747511 -0.906218439341,-1.35932758451 m-14.3862175941,13.1401669979 l-12.9136121273,-4.75764662027 m25.600669384,1.69915959239 l-3.1717646122,-0.566386505961 -5.66386520863,-2.60537803173 l-7.02319264412,-4.07798290253 -8.94890666008,-5.89041948318 m12.5737810135,9.06218409538 l-4.07798290253,-0.226554609835 -6.79663836956,-1.5858823061 l-4.19126033783,-1.35932758451 m193.112441897,-5.49394369125 l1.35932758451,-8.04268836975 1.69915959239,-5.32403349876 l1.4726048708,-3.28504174948 6.00369691849,-2.60537803173 l1.13277301192,0.113277304918 0.226554609835,2.26554602385 l-0.339831896126,0.906218439341 -1.5858823061,1.4726048708 m-12.800334692,1.01949572563 l3.39831918478,1.92571416497 1.24605029821,0.113277304918 m-0.792941153049,-0.906218439341 l4.07798290253,0.113277304918 m-4.41781491041,-0.792941153049 l6.45680606365,1.01949572563 m6.00369691849,8.15596580505 l3.39831918478,-12.3472261429 m10.1949572563,10.7613432407 l-4.30453747511,1.13277301192 -2.49210059643,1.35932758451 l0.906218439341,0.679663792253 2.37882331014,0.113277304918 l1.24605029821,-0.679663792253 1.01949572563,-1.92571416497 l1.69915959239,4.98420119286 0.679663792253,1.13277301192 l1.13277301192,-0.226554609835 m0.679663792253,-2.26554602385 l0.679663792253,0.0 3.39831918478,-1.92571416497 l1.24605029821,-0.339831896126 0.113277304918,5.66386520863 l3.39831918478,-4.64436948299 1.13277301192,-0.906218439341 l0.566386505961,0.45310921967 1.92571416497,3.96470546722 l1.4726048708,1.69915959239 m-0.45310921967,1.24605029821 l2.60537803173,-3.1717646122 2.49210059643,-8.60907495022 m-0.792941153049,-1.69915959239 l4.87092405558,0.0 m-2.15226873755,11.5542852879 l-0.113277304918,-0.566386505961 1.24605029821,-1.92571416497 l1.81243687868,-1.81243687868 3.39831918478,-2.37882331014 l1.69915959239,4.30453747511 1.01949572563,0.566386505961 m8.94890666008,-6.3435292244 l-1.92571416497,-0.339831896126 -1.5858823061,0.566386505961 l-1.01949572563,1.13277301192 -0.566386505961,2.03899145126 l0.566386505961,0.45310921967 1.24605029821,-0.226554609835 l1.13277301192,-1.35932758451 1.01949572563,-2.37882331014 l1.69915959239,-1.24605029821 0.339831896126,0.906218439341 l-0.566386505961,3.1717646122 -1.69915959239,3.96470546722 l-2.60537803173,3.62487375736 -4.19126033783,3.62487375736 l-0.792941153049,-0.113277304918 m36.3620138168,-17.3314273357 l-3.0584871769,2.60537803173 -4.30453747511,1.92571416497 l-8.49579751492,4.98420119286 -1.24605029821,1.01949572563 l0.906218439341,0.339831896126 4.75764662027,-1.35932758451 l1.24605029821,-0.792941153049 0.906218439341,-1.4726048708 l0.679663792253,-2.26554602385 0.0,-2.60537803173 l-0.339831896126,-1.13277301192 m135.22772789,12.9136133194 l1.01949572563,6.57008349895 1.92571416497,5.43731033802 l3.0584871769,5.77714264393 m-6.57008349895,-14.1596627235 l13.5932767391,-9.28873896599 m-9.06218409538,18.2376456261 l8.38252067566,-5.09747862816 m7.24974751472,-12.800334692 l0.113277304918,2.60537803173 1.35932758451,4.98420119286 l2.83193260431,5.32403349876 m7.47630178928,-6.11697435379 l-1.35932758451,1.01949572563 -1.35932758451,3.73815089464 l-0.792941153049,7.02319264412 1.4726048708,-0.339831896126 l1.81243687868,-2.37882331014 2.94520974159,-5.77714264393 l0.906218439341,-0.906218439341 0.792941153049,0.0 l1.01949572563,2.26554602385 2.15226873755,8.04268836975 l0.679663792253,0.906218439341 1.35932758451,-7.47630178928 l0.679663792253,-1.92571416497 0.792941153049,-0.45310921967 l1.35932758451,0.566386505961 1.81243687868,2.94520974159 l1.13277301192,0.679663792253 1.13277301192,-4.98420119286 l1.24605029821,-1.5858823061 1.24605029821,-0.226554609835 l1.5858823061,0.45310921967 3.85142832994,6.11697435379 l0.679663792253,0.0 1.5858823061,-4.53109204769 l1.01949572563,-1.35932758451 1.01949572563,-0.226554609835 l1.5858823061,0.566386505961 1.5858823061,2.94520974159 l1.24605029821,1.4726048708 m1.81243687868,-7.13647007942 l0.566386505961,2.15226873755 0.339831896126,4.30453747511 m-3.0584871769,-13.3667218685 l0.113277304918,-3.1717646122 m4.41781491041,14.0463852882 l0.45310921967,1.69915959239 0.566386505961,0.339831896126 l1.24605029821,-0.45310921967 4.07798290253,-5.77714264393 l2.15226873755,-1.4726048708 2.60537803173,0.0 l0.45310921967,2.71865516901 -0.226554609835,4.64436948299 m6.11697435379,-10.1949572563 l-4.19126033783,10.081679821 m8.72235238552,-6.79663836956 l0.792941153049,2.60537803173 -0.45310921967,7.58957922459 l-1.92571416497,2.15226873755 -2.94520974159,1.69915959239 l-2.83193260431,0.339831896126 -2.37882331014,-0.45310921967 l-0.792941153049,-1.5858823061 0.792941153049,-3.0584871769 m15.7455456257,-13.3667218685 l-2.71865516901,0.0 -0.679663792253,0.339831896126 l-0.679663792253,1.4726048708 -0.113277304918,3.73815089464 l0.339831896126,4.53109204769 1.35932758451,1.92571416497 l1.35932758451,0.679663792253 1.35932758451,0.0 l1.24605029821,-2.15226873755 0.566386505961,-2.71865516901 l0.113277304918,-8.72235238552 -1.01949572563,-1.81243687868 l-1.69915959239,-0.339831896126 -2.60537803173,0.679663792253 l-2.94520974159,2.71865516901 -0.113277304918,0.906218439341 m-7.36302495003,9.96840238571 l9.51529324055,-2.49210059643 m-3.85142832994,-9.51529324055 l2.60537803173,0.113277304918 m-762.789902687,136.576641798 l-3.73815089464,0.679663792253 -2.03899145126,0.906218439341 l-0.566386505961,1.35932758451 0.113277304918,4.53109204769 l2.26554602385,6.90991520882 1.35932758451,2.03899145126 m-5.43731033802,-4.07798290253 l3.28504174948,-0.339831896126 m13.1401669979,-13.1401669979 l1.24605029821,18.577477932 m12.2339487076,-5.55058777332 l-1.24605029821,0.0 -0.792941153049,2.03899145126 l-0.226554609835,3.1717646122 0.339831896126,0.792941153049 l0.566386505961,0.113277304918 1.01949572563,-0.679663792253 l0.906218439341,-2.03899145126 0.113277304918,-2.37882331014 l3.51159632206,4.87092405558 1.4726048708,1.13277301192 m0.679663792253,-6.11697435379 l3.73815089464,6.57008349895 -4.41781491041,-8.26924324036 l1.01949572563,-0.339831896126 3.0584871769,0.226554609835 l4.53109204769,3.28504174948 1.13277301192,1.35932758451 l-1.69915959239,-2.60537803173 -1.13277301192,-2.60537803173 l1.35932758451,-0.679663792253 4.30453747511,0.226554609835 l1.35932758451,1.01949572563 2.37882331014,4.19126033783 m2.49210059643,-3.1717646122 l0.792941153049,2.26554602385 2.83193260431,3.62487375736 m-4.64436948299,-12.4605035782 l0.0,0.0 m-1.35932758451,0.226554609835 l0.339831896126,1.4726048708 0.45310921967,-0.45310921967 m8.60907495022,6.00369691849 l1.69915959239,4.41781491041 3.96470546722,7.47630178928 l-0.113277304918,-0.906218439341 -4.19126033783,-8.04268836975 l-2.15226873755,-3.1717646122 0.226554609835,-0.566386505961 l3.28504174948,-0.339831896126 7.24974751472,0.0 l1.35932758451,2.60537803173 1.13277301192,3.62487375736 m10.4215121269,-6.11697435379 l-4.19126033783,0.566386505961 -1.13277301192,0.679663792253 l-0.566386505961,0.679663792253 -1.13277301192,3.0584871769 l-0.113277304918,3.51159632206 0.339831896126,1.35932758451 l0.792941153049,0.45310921967 1.4726048708,-0.566386505961 l2.15226873755,-3.0584871769 2.26554602385,-5.21075606346 l1.13277301192,12.5737810135 -0.226554609835,5.21075606346 l-0.906218439341,2.03899145126 -1.69915959239,1.92571416497 l-1.13277301192,0.113277304918 -1.69915959239,-1.5858823061 m17.3314273357,-17.2181499004 l-2.03899145126,1.13277301192 -1.81243687868,1.5858823061 l-1.4726048708,2.83193260431 0.113277304918,4.64436948299 l1.13277301192,1.01949572563 1.35932758451,0.113277304918 l1.35932758451,-0.566386505961 1.4726048708,-1.92571416497 l0.339831896126,-1.13277301192 0.226554609835,-3.96470546722 l-0.679663792253,-2.60537803173 -1.13277301192,-0.906218439341 m161.90454483,-7.81613588333 l2.60537803173,0.906218439341 8.49579751492,0.566386505961 l8.72235238552,1.35932758451 m-20.2766370773,-3.51159632206 l2.03899145126,-6.57008349895 2.26554602385,-4.98420119286 l1.24605029821,-1.4726048708 3.39831918478,-2.15226873755 l3.62487375736,-0.45310921967 1.13277301192,0.339831896126 l1.92571416497,3.85142832994 2.37882331014,8.49579751492 l0.339831896126,4.07798290253 m-13.7065541744,-1.13277301192 l0.0,-1.4726048708 3.62487375736,-8.94890666008 l2.49210059643,-4.64436948299 0.792941153049,0.45310921967 l0.339831896126,1.24605029821 -0.113277304918,6.90991520882 l0.45310921967,8.83562982082 m-4.87092405558,-1.01949572563 l0.0,0.792941153049 -3.73815089464,2.15226873755 l0.0,0.679663792253 0.566386505961,1.69915959239 l3.85142832994,5.32403349876 2.15226873755,1.35932758451 l2.71865516901,0.45310921967 2.49210059643,-0.113277304918 l2.26554602385,-1.01949572563 2.37882331014,-2.15226873755 l0.113277304918,-1.01949572563 -2.83193260431,-4.30453747511 l-1.69915959239,-1.92571416497 -4.41781491041,-2.94520974159 l-2.83193260431,-0.679663792253 -1.13277301192,0.0 l-0.113277304918,0.566386505961 m3.39831918478,10.081679821 l-0.226554609835,13.2534444332 0.339831896126,4.19126033783 m-0.906218439341,-4.87092405558 l0.113277304918,-1.4726048708 -3.73815089464,-5.55058777332 l-6.23025178909,-4.75764662027 0.339831896126,1.24605029821 m8.49579751492,5.21075606346 l0.0,0.566386505961 0.679663792253,0.792941153049 l1.35932758451,0.0 4.07798290253,-2.60537803173 l4.87092405558,-3.85142832994 m-9.62857067585,13.9331078529 l-0.339831896126,1.35932758451 -1.92571416497,1.92571416497 l-1.13277301192,4.41781491041 m26.0537791252,-36.2487363815 l1.13277301192,15.2924358845 0.226554609835,0.679663792253 l0.113277304918,-0.339831896126 m-2.60537803173,-15.6322681904 l0.566386505961,-0.113277304918 7.02319264412,1.92571416497 l-0.566386505961,0.679663792253 m-8.26924324036,6.11697435379 l0.679663792253,-0.339831896126 8.38252067566,-0.679663792253 m-1.13277301192,-4.07798290253 l-0.906218439341,10.874620676 0.679663792253,0.45310921967 l2.37882331014,0.0 1.35932758451,-0.45310921967 l1.13277301192,-9.06218409538 2.26554602385,-10.874620676 l0.679663792253,16.8783175945 -2.60537803173,-1.4726048708 m170.966725349,4.07798230648 l-1.5858823061,11.3277304173 m0.679663792253,-8.94890666008 l7.47630178928,0.45310921967 m-6.79663836956,1.35932758451 l7.70285665989,1.35932758451 m0.906218439341,-3.51159632206 l-3.39831918478,7.92941093445 7.47630178928,1.01949572563 m-0.45310921967,0.792941153049 l3.62487375736,-6.45680606365 1.81243687868,-1.69915959239 l2.03899145126,2.03899145126 0.226554609835,1.4726048708 l-1.35932758451,3.85142832994 m-4.30453747511,-2.37882331014 l7.24974751472,0.226554609835 m0.679663792253,2.26554602385 l2.49210059643,-7.70285665989 0.679663792253,6.68336093426 l0.45310921967,1.01949572563 2.26554602385,-3.73815089464 l1.13277301192,-1.13277301192 0.906218439341,2.71865516901 l-0.45310921967,3.73815089464 m4.75764662027,-7.47630178928 l-0.226554609835,6.00369691849 m1.5858823061,1.69915959239 l1.5858823061,-2.83193260431 2.49210059643,-6.45680606365 l0.679663792253,7.81613409519 0.679663792253,-0.113277304918 l1.5858823061,-3.1717646122 1.81243687868,-2.37882331014 m4.07798290253,-1.92571416497 l-3.1717646122,2.60537803173 -0.679663792253,1.5858823061 l0.226554609835,2.60537803173 0.679663792253,1.13277301192 l1.5858823061,1.01949572563 2.71865516901,-1.01949572563 l0.226554609835,-0.679663792253 -0.45310921967,-1.35932758451 l-1.35932758451,-0.792941153049 -1.35932758451,-0.113277304918 m10.1949572563,-1.24605029821 l-3.85142832994,-0.339831896126 -1.5858823061,0.906218439341 l0.0,3.85142832994 2.03899145126,1.5858823061 l0.679663792253,0.113277304918 5.21075606346,-1.4726048708 l0.906218439341,-0.906218439341 0.0,-3.28504174948 l-1.81243687868,-1.24605029821 -1.35932758451,-0.339831896126 l-3.1717646122,1.24605029821 -1.35932758451,1.24605029821 l-0.679663792253,1.92571416497 0.226554609835,0.113277304918 m172.722525597,-28.8857126236 l-2.37882331014,0.0 -1.13277301192,0.792941153049 l-0.792941153049,3.96470546722 -0.45310921967,5.55058777332 l0.226554609835,7.13647007942 m-2.94520974159,-6.3435292244 l7.02319264412,-2.03899145126 4.41781491041,0.339831896126 m4.98420119286,-5.66386520863 l-0.226554609835,2.37882331014 0.792941153049,6.90991520882 m4.64436948299,-4.75764662027 l-1.13277301192,2.83193260431 -0.792941153049,3.51159632206 l0.113277304918,1.13277301192 1.4726048708,-0.566386505961 l1.24605029821,-1.4726048708 -0.113277304918,-1.69915959239 l3.73815089464,7.24974751472 m1.5858823061,-4.53109204769 l1.35932758451,8.04268836975 1.35932758451,-2.60537803173 l0.906218439341,-3.62487375736 1.13277301192,-2.83193260431 l0.566386505961,0.226554609835 1.01949572563,3.0584871769 l0.566386505961,0.0 1.24605029821,-2.15226873755 l2.03899145126,-2.26554602385 1.24605029821,6.11697435379 m2.94520974159,-4.30453747511 l0.45310921967,3.28504174948 m-0.566386505961,-9.28873896599 l0.0,1.81243687868 -0.566386505961,0.113277304918 l0.0,-2.03899145126 m6.57008349895,5.89041948318 l0.792941153049,3.73815089464 -0.113277304918,5.09747862816 l1.69915959239,-7.13647007942 1.4726048708,-1.5858823061 l1.01949572563,0.906218439341 1.69915959239,3.51159632206 l0.566386505961,4.07798290253 m1.81243687868,-7.24974751472 l-0.679663792253,1.35932758451 -0.679663792253,2.94520974159 l0.339831896126,1.01949572563 1.35932758451,-0.226554609835 l0.792941153049,-0.792941153049 0.339831896126,-1.69915959239 l1.4726048708,3.28504174948 0.339831896126,2.83193260431 l-0.45310921967,2.03899145126 -1.01949572563,2.15226873755 l-1.5858823061,0.45310921967 -0.566386505961,-0.226554609835 l-0.566386505961,-0.906218439341 m10.6480669975,-12.5737810135 l0.679663792253,3.1717646122 1.01949572563,2.60537803173 l2.26554602385,0.679663792253 1.4726048708,-2.26554602385 l-0.113277304918,-2.83193260431 -0.45310921967,-1.69915959239 l-1.01949572563,-0.906218439341 -2.60537803173,-1.24605029821 l-1.13277301192,0.679663792253 -0.566386505961,0.792941153049 " fill="none" stroke="black" stroke-width="1" /></svg>