<?xml version="1.0" encoding="utf-8" ?>
<svg baseProfile="full" height="1100.37559975" version="1.1" width="912.149762623" xmlns="http://www.w3.org/2000/svg" xmlns:ev="http://www.w3.org/2001/xml-events" xmlns:xlink="http://www.w3.org/1999/xlink"><defs /><rect fill="none" height="1100.37559975" width="912.149762623" x="0" y="0" /><path d="M25,45.9458676726 m0.0,0.0 m106.326385736,88.2534432411 l0.45310921967,13.8198304176 -0.226554609835,7.92941093445 l-9.62857067585,2.94520974159 -3.62487375736,0.792941153049 l0.113277304918,-0.679663792253 m18.3509230614,-31.4910912514 l0.45310921967,27.4131083488 -6.45680606365,2.49210059643 m3.85142832994,-30.1317620277 l-6.57008349895,8.15596580505 -15.5189907551,-5.77714264393 l13.8198304176,-10.7613432407 15.0658810139,3.0584871769 l-0.113277304918,0.339831896126 m-20.7297468185,-3.85142832994 l-2.83193260431,-5.32403349876 -0.792941153049,-0.906218439341 l6.11697435379,-2.37882331014 2.49210059643,1.69915959239 l5.66386520863,5.09747862816 0.906218439341,1.4726048708 l-1.13277301192,-5.43731033802 -0.339831896126,5.55058777332 l-1.35932758451,0.0 m-8.49579751492,-5.43731033802 l-0.906218439341,1.01949572563 0.566386505961,-0.906218439341 m-1.01949572563,3.28504174948 l2.03899145126,0.226554609835 4.53109204769,-1.81243687868 m10.6480669975,12.007393837 l-1.81243687868,2.94520974159 0.113277304918,13.1401669979 l0.566386505961,9.17546153069 -0.45310921967,0.679663792253 l-2.94520974159,1.13277301192 m-4.19126033783,-19.9368047714 l1.35932758451,6.90991520882 0.226554609835,7.81613409519 l-1.35932758451,2.26554602385 -11.4410078526,2.60537803173 l0.226554609835,2.37882331014 1.24605029821,3.28504174948 l0.45310921967,0.0 m7.24974751472,-31.4910912514 l-0.113277304918,4.53109204769 7.02319264412,-2.15226873755 l9.28873896599,8.49579751492 21.2961339951,-2.94520974159 l-26.2803339958,-12.2339487076 m7.92941093445,-0.339831896126 l-11.1011755466,5.77714264393 11.6675627232,-2.83193260431 l12.2339487076,3.85142832994 -0.226554609835,1.24605029821 l-12.800334692,10.3082346916 m172.835800648,12.0074057579 l0.906218439341,-19.2571413517 0.45310921967,-21.7492413521 l1.81243687868,-18.8040328026 -0.226554609835,-21.2961339951 l-0.226554609835,0.679663792253 -1.5858823061,0.226554609835 l-14.9526035786,-3.39831918478 -12.007393837,-2.03899145126 l-4.07798290253,-0.906218439341 -2.26554602385,-0.906218439341 l-1.35932758451,-1.35932758451 -0.906218439341,-1.13277301192 l-0.45310921967,-1.35932758451 0.0,-3.1717646122 l2.26554602385,-4.98420119286 2.26554602385,-3.1717646122 l7.24974751472,-6.3435292244 5.43731033802,-2.71865516901 l6.11697435379,-2.03899145126 6.79663836956,-1.35932758451 l6.3435292244,-0.906218439341 21.7492413521,-0.45310921967 l13.5932767391,2.03899145126 1.81243687868,1.13277301192 l2.26554602385,2.26554602385 5.66386520863,2.94520974159 l9.06218409538,2.49210059643 14.2729401588,0.679663792253 l4.30453747511,-0.679663792253 7.70285665989,-3.85142832994 l11.3277304173,-3.1717646122 4.98420119286,-2.71865516901 l6.3435292244,-5.21075606346 6.11697435379,-7.70285665989 l4.07798290253,5.89041948318 11.5542852879,10.6480669975 l-0.45310921967,1.13277301192 -2.49210059643,2.49210059643 l-4.98420119286,2.94520974159 -7.47630178928,1.5858823061 l-8.60907495022,-0.906218439341 -4.98420119286,5.89041948318 l-0.679663792253,2.03899145126 -0.679663792253,0.906218439341 l-9.74184811115,9.74184811115 -3.39831918478,4.07798290253 l-3.39831918478,0.0 -8.60907495022,-1.35932758451 l-17.6712596416,-1.81243687868 -3.85142832994,0.0 l-4.07798290253,0.226554609835 -7.02319264412,2.03899145126 l-9.06218409538,1.35932758451 0.0,7.24974751472 l-1.35932758451,10.1949572563 -2.03899145126,11.3277304173 l-5.89041948318,25.600669384 -1.35932758451,11.3277304173 m-0.679663792253,-1.13277301192 l-1.5858823061,-0.226554609835 -8.83562982082,-3.85142832994 l-10.4215121269,-3.1717646122 0.0,-0.45310921967 m9.51529324055,-54.3731069565 l13.8198304176,-2.94520974159 7.24974751472,-0.679663792253 m-29.4520998001,77.0285654068 l0.0,1.81243687868 1.5858823061,6.57008349895 l0.45310921967,5.66386520863 -0.226554609835,6.11697435379 l-1.35932758451,10.4215121269 0.226554609835,-1.5858823061 l2.71865516901,-3.62487375736 m113.277301788,-113.277301788 l-19.7102510929,-0.45310921967 -3.39831918478,-0.679663792253 l-1.13277301192,-1.35932758451 m9.74184811115,-3.39831918478 l-0.45310921967,0.679663792253 1.13277301192,0.45310921967 l1.5858823061,-0.906218439341 -0.906218439341,-0.45310921967 m158.053116798,59.7537690401 l-4.19126033783,3.51159632206 1.24605029821,-4.75764662027 l3.1717646122,-3.96470546722 2.83193260431,-2.83193260431 l7.47630178928,-6.23025178909 1.13277301192,-0.339831896126 l1.01949572563,0.679663792253 0.226554609835,2.15226873755 l2.49210059643,5.89041948318 1.35932758451,7.24974751472 l1.24605029821,4.07798290253 3.1717646122,13.9331078529 l0.113277304918,2.49210059643 -0.566386505961,6.00369691849 l-0.45310921967,2.15226873755 -3.0584871769,8.26924324036 l0.566386505961,-1.35932758451 3.28504174948,-3.51159632206 l1.24605029821,-1.92571416497 6.3435292244,-12.3472261429 l7.13647007942,-15.4057133198 5.66386520863,-2.60537803173 l5.77714264393,-1.81243687868 3.51159632206,-0.226554609835 l2.83193260431,2.03899145126 2.83193260431,3.28504174948 l1.13277301192,3.1717646122 -0.566386505961,12.2339487076 l-4.19126033783,9.62857067585 -1.92571416497,13.1401669979 l-0.679663792253,1.13277301192 -0.679663792253,-1.13277301192 m-47.0100784302,-44.0648698807 l2.37882331014,5.55058777332 6.00369691849,11.3277304173 l2.94520974159,9.74184811115 1.69915959239,10.6480669975 l-0.45310921967,2.94520974159 -1.81243687868,4.98420119286 l-0.226554609835,-0.113277304918 m34.6628546715,-34.096467495 l2.37882331014,1.24605029821 5.89041948318,4.07798290253 l5.32403349876,2.49210059643 m-11.8941164017,-2.37882331014 l-8.15596580505,1.13277301192 -9.74184811115,0.792941153049 l-9.28873896599,1.81243687868 -7.70285665989,3.51159632206 l-11.3277304173,4.07798290253 -6.68336093426,2.94520974159 l-7.13647007942,-4.87092405558 -0.792941153049,-0.906218439341 l-1.13277301192,-2.49210059643 -0.45310921967,-2.60537803173 l0.113277304918,-7.02319264412 1.13277301192,-7.47630178928 l2.03899145126,-7.47630178928 1.4726048708,-3.28504174948 l6.45680606365,-8.94890666008 4.30453747511,-3.85142832994 l3.51159632206,-2.15226873755 m1.24605029821,3.39831918478 l16.1986541748,-1.13277301192 3.39831918478,0.566386505961 l2.94520974159,1.69915959239 16.8783175945,7.92941093445 l4.53109204769,3.73815089464 2.26554602385,3.0584871769 l-10.4215121269,4.07798290253 -11.4410078526,3.96470546722 l-20.5031919479,5.21075606346 -7.70285665989,1.13277301192 l-6.90991520882,0.45310921967 -34.7761321068,1.24605029821 l-11.2144529819,0.792941153049 0.339831896126,-0.906218439341 l13.3667218685,-9.17546153069 18.0110907555,-7.47630178928 l16.0853767395,-4.07798290253 12.5737810135,-1.01949572563 l4.53109204769,0.226554609835 3.73815089464,0.792941153049 m-21.8625187874,26.5068888664 l-1.35932758451,-1.4726048708 m240.235794038,6.23025476933 l0.113277304918,11.4410078526 2.37882331014,15.5189907551 l0.679663792253,7.13647007942 m-3.51159632206,-32.5105857849 l-7.47630178928,1.35932758451 -6.23025178909,3.0584871769 l-1.01949572563,1.92571416497 0.679663792253,3.62487375736 l4.30453747511,3.85142832994 1.01949572563,0.566386505961 l12.3472261429,4.87092405558 2.49210059643,1.35932758451 l0.0,-0.566386505961 m-4.19126033783,-21.7492413521 l-1.01949572563,0.45310921967 -1.01949572563,-3.51159632206 l-2.83193260431,-5.09747862816 -6.68336093426,0.0 l-6.68336093426,8.26924324036 1.13277301192,4.53109204769 l0.566386505961,0.0 2.03899145126,-1.5858823061 l-0.792941153049,3.51159632206 3.96470546722,7.58957922459 l8.26924324036,-5.43731033802 0.0,-0.679663792253 l-0.45310921967,0.226554609835 7.70285665989,0.566386505961 l3.85142832994,-7.47630178928 -0.113277304918,-0.679663792253 l2.15226873755,5.55058777332 0.566386505961,0.679663792253 l3.96470546722,-0.792941153049 2.60537803173,-6.90991520882 l0.113277304918,-3.62487375736 m1.69915959239,-0.339831896126 l-16.1986541748,-10.874620676 -16.3119316101,-2.49210059643 l-2.37882331014,0.679663792253 -8.04268836975,10.7613432407 l0.0,2.03899145126 7.24974751472,7.13647007942 l3.39831918478,1.13277301192 20.8430242538,2.71865516901 l16.5384864807,-5.09747862816 1.35932758451,-1.69915959239 l-2.26554602385,-9.17546153069 -1.4726048708,-1.69915959239 l-18.8040328026,-7.24974751472 -7.36302495003,1.24605029821 m-8.60907495022,0.226554609835 l0.0,-3.28504174948 -0.566386505961,-9.62857067585 l-1.35932758451,-6.90991520882 -0.679663792253,-1.92571416497 l-1.4726048708,-0.566386505961 -3.39831918478,-0.113277304918 l-2.83193260431,1.69915959239 -1.5858823061,9.28873896599 l1.4726048708,6.68336093426 3.0584871769,5.43731033802 l4.64436948299,1.24605029821 1.5858823061,-1.92571416497 l1.24605029821,-5.21075606346 m-4.07798290253,-20.0500822067 l-3.73815089464,-1.69915959239 -0.906218439341,0.0 l-5.66386520863,4.53109204769 4.64436948299,8.72235238552 l4.64436948299,-1.01949572563 0.113277304918,-2.94520974159 m-5.43731033802,0.226554609835 l-0.906218439341,0.0 -4.30453747511,1.24605029821 l-0.792941153049,0.566386505961 -1.24605029821,3.96470546722 l0.226554609835,0.792941153049 3.96470546722,0.45310921967 m22.5421833992,5.43731033802 l0.226554609835,-0.679663792253 7.58957922459,-3.28504174948 l-0.339831896126,4.19126033783 3.73815089464,1.24605029821 l1.81243687868,4.30453747511 m-682.193110436,169.200510979 l1.4726048708,15.7455456257 -0.45310921967,8.83562982082 l-1.01949572563,6.00369691849 m4.30453747511,-27.1865534782 l-1.35932758451,2.37882331014 -7.92941093445,9.17546153069 l5.55058777332,7.81613409519 3.51159632206,7.02319264412 l0.792941153049,2.49210059643 0.0,-0.566386505961 m-4.19126033783,-53.4668874741 l-5.32403349876,4.98420119286 0.113277304918,7.58957922459 l4.64436948299,11.7808389664 2.37882331014,4.07798290253 l1.35932758451,1.01949572563 2.83193260431,0.45310921967 l7.92941093445,-5.55058777332 3.62487375736,-12.2339487076 l0.566386505961,-9.40201640129 -0.226554609835,-0.566386505961 l-1.81243687868,-3.1717646122 -2.49210059643,-2.37882331014 l-6.79663836956,-4.07798290253 -3.96470546722,1.24605029821 l-8.15596580505,8.60907495022 -0.566386505961,1.24605029821 m6.90991520882,-17.444704771 l-2.15226873755,3.28504174948 2.49210059643,3.96470546722 l2.49210059643,1.69915959239 5.21075606346,1.5858823061 l1.35932758451,-0.113277304918 3.96470546722,-3.73815089464 l0.792941153049,-3.0584871769 -2.94520974159,-4.53109204769 l-1.69915959239,-1.92571416497 -2.03899145126,-0.906218439341 l-1.69915959239,0.0 -4.87092405558,4.07798290253 l0.0,0.339831896126 m8.04268836975,2.60537803173 l7.81613409519,4.07798290253 5.89041948318,4.30453747511 m-13.9331078529,-9.06218409538 l16.1986541748,2.49210059643 m-20.0500822067,-7.58957922459 l1.81243687868,1.81243687868 1.13277301192,-0.339831896126 l-0.906218439341,-0.792941153049 -0.566386505961,0.113277304918 l0.113277304918,1.13277301192 0.679663792253,-0.113277304918 l-1.01949572563,-1.81243687868 -0.226554609835,0.113277304918 m-2.60537803173,15.9720993042 l-0.792941153049,1.24605029821 -7.24974751472,6.23025178909 l-13.0268895626,6.3435292244 -8.15596580505,3.1717646122 l-1.13277301192,-6.3435292244 13.5932767391,-5.77714264393 l2.03899145126,0.679663792253 0.679663792253,1.5858823061 l-6.79663836956,1.4726048708 -16.9915950298,-3.28504174948 l-0.113277304918,-1.24605029821 5.55058777332,-6.68336093426 l7.58957922459,-1.24605029821 6.3435292244,0.566386505961 l5.89041948318,3.0584871769 -3.96470546722,1.92571416497 l-7.24974751472,-0.792941153049 -9.62857067585,-5.89041948318 l-0.226554609835,-5.32403349876 6.57008349895,-1.01949572563 l19.8235285282,4.53109204769 5.43731033802,5.66386520863 l1.24605029821,6.68336093426 0.566386505961,0.0 m165.869280994,3.96471202374 l-2.71865516901,5.43731033802 -1.5858823061,4.64436948299 l-4.07798290253,18.1243681908 -0.566386505961,4.19126033783 m5.55058777332,-25.2608394623 l2.03899145126,-0.339831896126 10.874620676,0.0 l-8.60907495022,3.39831918478 -2.94520974159,0.792941153049 l-3.96470546722,2.49210059643 m26.8467211723,-28.3193254471 l-9.62857067585,0.113277304918 -7.02319264412,2.03899145126 l-5.09747862816,1.92571416497 -1.92571416497,1.92571416497 l-2.03899145126,3.0584871769 -1.24605029821,2.94520974159 l-1.01949572563,3.0584871769 -0.226554609835,5.09747862816 l35.5690741539,0.0 9.06218409538,-0.339831896126 l5.66386520863,-0.45310921967 9.28873896599,-1.35932758451 l2.94520974159,-1.24605029821 3.51159632206,-5.21075606346 l2.26554602385,-2.60537803173 2.49210059643,-1.5858823061 l2.26554602385,-0.679663792253 1.35932758451,-1.92571416497 l-1.5858823061,-0.226554609835 -11.4410078526,-4.30453747511 l-6.57008349895,-2.03899145126 -6.45680606365,-1.81243687868 l-14.7260499001,-2.94520974159 -2.94520974159,1.01949572563 l-4.75764662027,3.0584871769 -1.69915959239,2.26554602385 l-1.92571416497,4.98420119286 m49.7287368774,-2.49210059643 l2.15226873755,-0.906218439341 3.0584871769,-2.71865516901 l10.3082346916,-11.8941164017 4.75764662027,-3.28504174948 l4.07798290253,-2.26554602385 3.51159632206,-0.792941153049 m-23.674955368,26.3936114311 l5.21075606346,-2.03899145126 3.39831918478,-1.92571416497 l9.06218409538,-6.3435292244 1.92571416497,-0.792941153049 l4.19126033783,-0.792941153049 m-1.5858823061,-15.6322681904 l5.21075606346,-0.566386505961 -1.81243687868,0.792941153049 l0.679663792253,0.566386505961 0.45310921967,4.98420119286 l-1.35932758451,4.98420119286 15.2924358845,1.81243687868 l-4.87092405558,5.43731033802 -1.24605029821,0.339831896126 l-1.24605029821,-0.226554609835 -1.4726048708,-0.906218439341 l-1.35932758451,-1.5858823061 -3.0584871769,-5.77714264393 l-2.83193260431,-2.26554602385 -2.03899145126,0.679663792253 l-1.24605029821,1.01949572563 m-3.1717646122,0.339831896126 l0.0,-0.113277304918 m-113.277301788,59.4705820084 l13.5932767391,-1.4726048708 17.1048724651,-2.94520974159 l26.6201663017,-3.96470546722 16.1986541748,-1.5858823061 l24.6944522858,-1.13277301192 13.5932767391,-1.24605029821 l9.96840238571,0.226554609835 4.53109204769,0.566386505961 l8.49579751492,0.339831896126 8.72235238552,1.24605029821 l2.60537803173,0.679663792253 0.0,3.1717646122 m129.507231712,-24.8077303171 l0.0,3.96470546722 0.0,-3.28504174948 l53.4668874741,-0.226554609835 -3.96470546722,-6.00369691849 l-3.96470546722,0.906218439341 -20.2766370773,7.81613409519 l-22.7687382698,5.09747862816 -17.784537077,2.03899145126 l-1.24605029821,0.45310921967 -2.83193260431,2.37882331014 l-4.98420119286,-2.83193260431 -3.73815089464,-1.13277301192 l-2.26554602385,-0.226554609835 -0.566386505961,-0.45310921967 l-2.26554602385,-2.94520974159 0.113277304918,-1.69915959239 l0.566386505961,-1.24605029821 5.32403349876,-8.15596580505 l4.30453747511,-3.51159632206 2.71865516901,-1.5858823061 l9.06218409538,-2.37882331014 12.4605035782,-1.01949572563 l7.47630178928,0.0 3.96470546722,0.566386505961 l1.81243687868,0.792941153049 0.339831896126,0.566386505961 l11.5542852879,-5.55058777332 2.71865516901,-2.03899145126 l1.69915959239,-0.679663792253 m16.9915950298,6.57008349895 l-0.906218439341,1.24605029821 m-1.81243687868,2.83193260431 l-1.01949572563,2.94520974159 -0.679663792253,-0.566386505961 l-1.5858823061,-2.37882331014 -0.906218439341,-2.71865516901 l-1.13277301192,-1.81243687868 m-9.85512554646,-2.15226873755 l2.83193260431,-1.5858823061 4.75764662027,-0.113277304918 l3.51159632206,5.55058777332 0.566386505961,2.71865516901 l3.62487375736,1.24605029821 m0.566386505961,0.226554609835 l0.0,0.0 m0.0,-0.113277304918 l0.0,-9.74184811115 0.45310921967,-1.24605029821 l0.566386505961,-1.13277301192 8.83562982082,-9.85512554646 l1.4726048708,-3.39831918478 1.4726048708,-1.81243687868 l10.7613432407,0.0 3.96470546722,1.13277301192 l10.081679821,5.09747862816 -13.0268895626,0.906218439341 l-7.36302495003,0.0 -3.28504174948,-0.339831896126 l-0.113277304918,2.94520974159 -1.13277301192,2.26554602385 l-0.566386505961,0.45310921967 m0.0,0.0 l0.0,0.0 m0.0,0.0 l-1.92571416497,0.0 -0.339831896126,1.81243687868 l-2.83193260431,5.89041948318 -3.39831918478,5.66386520863 l-1.35932758451,0.339831896126 2.03899145126,-1.81243687868 m13.2534444332,-23.674955368 l0.0,1.01949572563 m-72.6107501984,44.178147316 l0.679663792253,8.83562982082 1.13277301192,6.00369691849 m35.9089040756,-23.3351254463 l2.03899145126,3.96470546722 0.906218439341,3.28504174948 m-26.733443737,-19.1438639164 l-4.53109204769,3.51159632206 -7.13647007942,7.81613409519 l-0.792941153049,1.24605029821 0.226554609835,0.566386505961 l3.39831918478,-0.566386505961 8.04268836975,-3.96470546722 l10.4215121269,-4.30453747511 16.4252090454,-5.32403349876 m-16.7650413513,4.98420119286 l-3.96470546722,1.81243687868 -6.23025178909,3.73815089464 m196.567385197,-4.47444975376 l0.0,-30.4715943336 m36.815123558,34.2097449303 l0.226554609835,-24.2413425446 0.906218439341,-5.66386520863 l0.0,-2.71865516901 m-47.1233558655,-0.679663792253 l-4.07798290253,-2.26554602385 -3.39831918478,-2.83193260431 l-0.566386505961,-1.5858823061 0.0,-2.26554602385 l0.45310921967,-1.35932758451 2.94520974159,-2.26554602385 l9.51529324055,-4.07798290253 11.8941164017,-2.71865516901 l9.17546153069,-1.13277301192 28.659157753,0.0 l3.1717646122,0.226554609835 7.36302495003,2.49210059643 l12.9136121273,5.66386520863 4.07798290253,2.71865516901 l2.03899145126,2.26554602385 -0.226554609835,5.66386520863 l-2.83193260431,2.71865516901 -2.49210059643,0.679663792253 l-5.21075606346,0.566386505961 -18.3509230614,0.906218439341 l-16.0853767395,-0.113277304918 -24.2413425446,-5.21075606346 l-10.874620676,-2.94520974159 -5.21075606346,-1.01949572563 l-14.3862175941,-0.226554609835 m67.6265478134,-13.2534444332 l-0.45310921967,-0.679663792253 -0.226554609835,-13.2534444332 l2.03899145126,-9.17546153069 3.1717646122,-0.45310921967 l44.0648698807,-0.45310921967 7.70285665989,2.26554602385 l3.39831918478,1.13277301192 5.43731033802,3.39831918478 l4.75764662027,8.26924324036 1.35932758451,6.11697435379 l-0.679663792253,16.4252090454 -1.92571416497,3.28504174948 l-1.81243687868,2.03899145126 -5.09747862816,2.37882331014 l-7.02319264412,0.226554609835 -43.7250375748,-11.5542852879 l-7.81613409519,-2.37882331014 -15.9720993042,-6.3435292244 l-7.24974751472,-6.00369691849 -2.83193260431,-3.1717646122 m35.229241848,-1.35932758451 l-0.113277304918,-0.566386505961 m24.1280651093,-6.79663836956 l0.0,0.0 m-32.6238632202,15.1791584492 l0.566386505961,-0.566386505961 4.07798290253,0.0 l2.37882331014,0.679663792253 6.11697435379,3.62487375736 l15.8588218689,6.79663836956 16.7650413513,2.94520974159 l16.3119316101,1.5858823061 11.3277304173,-0.45310921967 l3.39831918478,-2.37882331014 1.13277301192,-8.72235238552 l-0.679663792253,-7.24974751472 -2.49210059643,-2.94520974159 l-4.98420119286,-3.28504174948 -7.70285665989,-2.83193260431 m-28.9989900589,4.30453747511 l0.0,-0.226554609835 m-733.054616451,228.897631168 l2.03899145126,12.007393837 0.45310921967,1.01949572563 l1.13277301192,9.06218409538 m0.113277304918,-0.566386505961 l0.679663792253,0.679663792253 3.51159632206,-0.45310921967 m1.5858823061,-19.7102510929 l1.4726048708,15.6322681904 2.60537803173,5.89041948318 l0.906218439341,1.13277301192 0.113277304918,-0.45310921967 m-0.906218439341,-0.679663792253 l1.69915959239,0.0 21.7492413521,-5.89041948318 l2.94520974159,-1.13277301192 m-45.310921669,-23.1085705757 l2.26554602385,1.81243687868 27.6396608353,13.2534444332 l9.62857067585,3.1717646122 1.13277301192,-1.69915959239 l1.24605029821,-13.8198304176 -0.339831896126,-4.41781491041 l-5.89041948318,-10.3082346916 -2.60537803173,-2.60537803173 l-9.74184811115,-6.00369691849 -2.94520974159,-0.226554609835 l-4.87092405558,3.39831918478 -6.3435292244,5.66386520863 l-7.81613409519,11.6675627232 -7.24974751472,6.57008349895 l-0.113277304918,0.45310921967 m40.1001644135,-27.0732760429 l0.792941153049,-0.113277304918 3.0584871769,-5.09747862816 l4.30453747511,-10.5347895622 2.49210059643,-5.43731033802 l0.566386505961,-0.113277304918 9.62857067585,1.92571416497 l6.57008349895,0.0 0.792941153049,4.30453747511 l14.4994950294,20.3899145126 0.226554609835,-0.906218439341 m-37.3815107346,3.1717646122 l-0.566386505961,0.0 0.339831896126,-6.11697435379 l2.83193260431,-6.57008349895 -2.03899145126,2.83193260431 l-14.9526035786,15.8588218689 2.83193260431,-5.32403349876 l8.60907495022,-19.5969736576 1.92571416497,-10.4215121269 l-2.15226873755,7.36302495003 -2.49210059643,13.2534444332 l4.98420119286,-6.90991520882 6.90991520882,-8.26924324036 l14.6127724648,-1.5858823061 3.73815089464,2.49210059643 l5.21075606346,14.3862175941 7.13647007942,10.4215121269 m195.377982855,17.2747898102 l0.792941153049,25.600669384 -1.24605029821,0.906218439341 l-7.13647007942,2.37882331014 -21.4094090462,6.11697435379 m33.4168052673,-8.60907495022 l-5.89041948318,0.906218439341 -14.2729401588,7.70285665989 l-1.4726048708,1.13277301192 m23.3351254463,-10.9878981113 l2.71865516901,14.6127724648 m-38.2877278328,-41.3462162018 l-1.92571416497,10.4215121269 -0.679663792253,5.66386520863 m0.0,0.0 l-6.79663836956,2.94520974159 -17.784537077,6.00369691849 l-4.64436948299,3.51159632206 -1.24605029821,2.26554602385 l0.339831896126,0.339831896126 m28.5458803177,-10.4215121269 l0.906218439341,3.0584871769 -0.226554609835,4.30453747511 l-2.94520974159,6.11697435379 m-2.83193260431,-10.4215121269 l-3.62487375736,4.41781491041 -2.49210059643,3.73815089464 m13.5932767391,-33.303527832 l2.37882331014,1.24605029821 4.30453747511,0.792941153049 l12.800334692,0.339831896126 7.24974751472,-0.45310921967 l12.4605035782,-2.49210059643 15.6322681904,-5.21075606346 l8.26924324036,-1.69915959239 6.11697435379,-0.792941153049 l4.87092405558,0.339831896126 2.26554602385,0.792941153049 l5.66386520863,2.71865516901 2.83193260431,2.26554602385 m-38.2877278328,-0.906218439341 l-7.92941093445,-7.47630178928 -4.98420119286,-3.73815089464 l-18.9173090458,-17.2181499004 -4.64436948299,-1.13277301192 l-8.94890666008,-0.679663792253 -2.83193260431,2.15226873755 l-2.94520974159,1.35932758451 -0.566386505961,0.45310921967 l-0.45310921967,1.4726048708 -1.24605029821,0.339831896126 m0.226554609835,0.226554609835 l-0.113277304918,0.226554609835 m0.0,0.0 l-2.60537803173,2.15226873755 -1.4726048708,4.19126033783 l-2.37882331014,4.07798290253 -3.28504174948,7.81613409519 l-3.62487375736,0.226554609835 -1.01949572563,-0.113277304918 l-0.906218439341,-0.679663792253 -0.792941153049,-8.15596580505 l-1.13277301192,-3.73815089464 -2.15226873755,-2.37882331014 l-6.45680606365,-3.1717646122 -4.53109204769,-0.113277304918 l-3.0584871769,0.566386505961 -3.51159632206,1.81243687868 l-1.69915959239,1.5858823061 -2.26554602385,4.75764662027 l2.49210059643,3.1717646122 m279.146544337,-10.4215097427 l-2.60537803173,-3.0584871769 1.35932758451,0.0 l1.13277301192,0.566386505961 -0.566386505961,-0.45310921967 l-1.24605029821,-2.83193260431 0.679663792253,0.113277304918 l1.13277301192,0.906218439341 0.339831896126,-6.00369691849 l2.94520974159,-1.92571416497 0.792941153049,-0.113277304918 m0.0,0.0 l3.0584871769,3.85142832994 1.24605029821,1.24605029821 l0.566386505961,0.113277304918 0.113277304918,1.81243687868 l-0.113277304918,0.792941153049 -0.566386505961,0.679663792253 l-2.03899145126,1.4726048708 -0.906218439341,1.35932758451 l-2.03899145126,3.51159632206 -0.792941153049,2.15226873755 l0.113277304918,3.1717646122 0.792941153049,4.30453747511 l-0.113277304918,-6.3435292244 3.0584871769,-2.15226873755 l2.71865516901,-0.339831896126 0.339831896126,0.566386505961 l0.113277304918,2.15226873755 -2.37882331014,3.39831918478 l-3.73815089464,2.60537803173 0.566386505961,0.339831896126 l0.0,11.5542852879 -1.92571416497,1.24605029821 m0.679663792253,-23.7882328033 l-2.15226873755,1.01949572563 -0.906218439341,1.4726048708 l-0.226554609835,4.87092405558 0.679663792253,2.15226873755 l1.81243687868,2.03899145126 1.24605029821,1.01949572563 l2.83193260431,0.566386505961 m11.2144529819,-15.7455456257 l0.0,0.0 m0.45310921967,-0.339831896126 l3.28504174948,-2.15226873755 m-5.43731033802,-9.06218409538 l0.0,-1.35932758451 3.0584871769,-3.96470546722 l0.339831896126,-1.69915959239 1.01949572563,-1.81243687868 l-2.71865516901,1.01949572563 m-27.9794931412,43.9515924454 l5.43731033802,-1.13277301192 7.92941093445,-0.226554609835 l35.3425192833,0.226554609835 -4.75764662027,0.113277304918 l-3.85142832994,1.35932758451 -8.94890666008,1.01949572563 l-3.0584871769,0.679663792253 -16.651763916,0.226554609835 l-10.3082346916,-1.92571416497 -23.9015102386,-0.339831896126 l2.37882331014,0.566386505961 16.4252090454,-0.226554609835 l3.73815089464,-0.45310921967 11.1011755466,-2.83193260431 l8.15596580505,-0.226554609835 4.41781491041,-1.01949572563 l11.3277304173,-0.113277304918 -52.5606679916,0.113277304918 l29.1122674942,0.113277304918 12.4605035782,1.01949572563 l6.23025178909,1.13277301192 7.58957922459,0.113277304918 l10.7613432407,1.4726048708 16.9915950298,0.0 l0.566386505961,0.339831896126 -3.0584871769,1.24605029821 l-1.4726048708,0.226554609835 -44.8578119278,0.0 l-13.5932767391,0.566386505961 -34.8894095421,0.0 m264.647054076,-33.2468879223 l0.566386505961,-0.45310921967 -0.566386505961,-13.7065541744 l-1.01949572563,-3.28504174948 -1.81243687868,-2.94520974159 l-0.906218439341,-0.792941153049 -1.5858823061,-0.566386505961 l-1.4726048708,0.113277304918 -2.15226873755,1.5858823061 l-2.26554602385,3.0584871769 -2.49210059643,6.45680606365 l2.71865516901,-1.24605029821 0.0,0.792941153049 l-0.792941153049,1.5858823061 0.0,0.566386505961 l0.679663792253,0.226554609835 3.28504174948,-1.13277301192 l2.15226873755,0.0 2.03899145126,10.7613432407 l0.679663792253,1.13277301192 1.13277301192,0.792941153049 l1.4726048708,4.19126033783 0.113277304918,7.02319264412 l-3.85142832994,8.26924324036 -0.566386505961,4.07798290253 l0.226554609835,1.5858823061 1.35932758451,2.49210059643 l3.0584871769,3.85142832994 2.83193260431,5.09747862816 l0.45310921967,7.13647007942 0.45310921967,-3.39831918478 l2.60537803173,-6.57008349895 1.24605029821,2.94520974159 l2.37882331014,3.85142832994 0.566386505961,0.45310921967 l0.339831896126,-0.566386505961 1.35932758451,-6.57008349895 l1.35932758451,-10.874620676 3.73815089464,-10.6480669975 l0.226554609835,-5.77714264393 -1.01949572563,-2.15226873755 l-5.32403349876,-4.64436948299 -2.71865516901,-1.81243687868 l-4.07798290253,-2.03899145126 -3.73815089464,-1.5858823061 l-1.69915959239,-0.339831896126 0.0,1.5858823061 l1.69915959239,2.71865516901 1.4726048708,1.13277301192 l7.13647007942,1.92571416497 6.11697435379,1.01949572563 l2.94520974159,1.24605029821 1.5858823061,1.69915959239 l-0.226554609835,2.83193260431 -1.01949572563,1.5858823061 l-2.94520974159,2.83193260431 9.85512554646,-8.04268836975 l-8.83562982082,7.81613409519 2.37882331014,-0.226554609835 l8.26924324036,-3.51159632206 -9.40201640129,6.00369691849 l0.792941153049,0.0 4.41781491041,-3.51159632206 l14.3862175941,-14.6127724648 m1.01949572563,-3.39831918478 l-8.15596580505,3.62487375736 -10.3082346916,6.57008349895 l-10.9878981113,9.85512554646 7.81613409519,-8.38252067566 l17.784537077,-15.5189907551 2.15226873755,-1.01949572563 l1.01949572563,0.0 -1.81243687868,3.28504174948 l-7.81613409519,6.90991520882 -16.9915950298,13.2534444332 m-3.73815089464,2.37882331014 m-3.0584871769,1.4726048708 l-2.15226873755,0.45310921967 6.3435292244,-23.9015102386 l1.69915959239,-4.41781491041 m0.566386505961,-3.28504174948 l-0.566386505961,-1.4726048708 -2.83193260431,0.0 l-4.41781491041,-2.15226873755 m-6.23025178909,12.4605035782 l1.81243687868,20.3899145126 m-664.465209842,131.649079323 l-0.113277304918,-4.87092405558 -1.13277301192,-6.90991520882 l-1.4726048708,-14.9526035786 -0.679663792253,-2.15226873755 l-1.35932758451,-0.679663792253 -1.81243687868,-0.226554609835 l-10.6480669975,0.226554609835 -4.75764662027,1.13277301192 l-4.87092405558,1.69915959239 -2.26554602385,1.4726048708 l0.566386505961,0.226554609835 8.15596580505,-0.792941153049 l5.89041948318,-0.113277304918 0.566386505961,-0.339831896126 l-0.566386505961,-2.37882331014 0.792941153049,-0.566386505961 l-0.45310921967,3.96470546722 -1.4726048708,6.3435292244 l0.0,9.28873896599 1.13277301192,10.7613432407 l1.35932758451,5.55058777332 -0.45310921967,10.7613432407 l-1.13277301192,5.89041948318 0.45310921967,3.62487375736 l20.8430242538,-0.792941153049 19.9368047714,-3.0584871769 l13.8198304176,-2.60537803173 7.02319264412,-2.37882331014 l12.9136121273,-3.62487375736 4.19126033783,-1.5858823061 l3.0584871769,-2.26554602385 3.0584871769,-3.73815089464 l0.45310921967,-4.19126033783 -2.83193260431,-2.71865516901 l-2.94520974159,-1.69915959239 -23.3351254463,-3.39831918478 l-29.6786522865,-0.226554609835 -3.96470546722,1.4726048708 l-4.98420119286,1.24605029821 -1.69915959239,1.01949572563 m3.62487375736,27.1865534782 l0.0,3.39831918478 -1.5858823061,9.85512554646 l-0.792941153049,2.83193260431 -0.566386505961,0.339831896126 l-12.5737810135,-0.679663792253 -49.8420143127,-0.792941153049 l-5.89041948318,0.339831896126 0.113277304918,0.566386505961 l0.906218439341,0.45310921967 4.07798290253,1.01949572563 l8.94890666008,1.4726048708 25.2608394623,2.83193260431 l6.3435292244,1.4726048708 9.51529324055,0.792941153049 l2.03899145126,-0.566386505961 1.5858823061,-1.01949572563 l3.39831918478,-8.26924324036 1.4726048708,-1.01949572563 l7.58957922459,-3.62487375736 m28.8857126236,-15.6322681904 l1.69915959239,2.26554602385 1.35932758451,2.71865516901 l3.73815089464,11.5542852879 7.47630178928,9.06218409538 l2.03899145126,3.28504174948 -19.5969736576,1.24605029821 l-17.8978133202,0.0 -38.2877278328,-3.39831918478 l-7.13647007942,-0.906218439341 -24.1280651093,-0.45310921967 l-1.81243687868,-0.906218439341 0.792941153049,0.226554609835 l6.90991520882,-1.92571416497 12.4605035782,-5.32403349876 l12.2339487076,-1.5858823061 44.6312570572,0.226554609835 l8.60907495022,0.906218439341 8.04268836975,0.226554609835 l7.47630178928,0.906218439341 7.47630178928,2.03899145126 m163.490421772,-10.7047009468 l-1.24605029821,6.79663836956 0.45310921967,3.96470546722 l-0.339831896126,2.49210059643 0.226554609835,2.71865516901 m13.0268895626,-14.4994950294 l-1.35932758451,8.83562982082 -1.69915959239,4.07798290253 l-0.792941153049,1.35932758451 -0.679663792253,0.45310921967 m-1.5858823061,-22.7687382698 l-13.9331078529,-0.566386505961 -6.00369691849,-0.792941153049 l-6.00369691849,-1.35932758451 -1.24605029821,-0.45310921967 l-2.60537803173,-1.92571416497 -2.37882331014,-2.15226873755 l-2.15226873755,-2.94520974159 1.5858823061,-1.01949572563 l7.13647007942,-2.83193260431 15.7455456257,-4.98420119286 l6.11697435379,-1.4726048708 11.1011755466,-0.679663792253 l2.94520974159,0.566386505961 7.47630178928,4.30453747511 l2.71865516901,3.28504174948 -16.7650413513,3.96470546722 l-14.0463852882,1.69915959239 -3.28504174948,0.113277304918 l-3.73815089464,1.01949572563 -3.62487375736,1.5858823061 l0.906218439341,-1.01949572563 13.5932767391,-3.51159632206 l1.81243687868,0.339831896126 12.2339487076,15.7455456257 l-1.92571416497,-0.113277304918 -5.32403349876,-1.35932758451 l-12.800334692,-5.77714264393 -16.7650413513,-11.1011755466 l0.226554609835,-0.566386505961 6.45680606365,-2.60537803173 l10.4215121269,2.94520974159 1.4726048708,0.792941153049 l-6.57008349895,1.69915959239 -2.71865516901,-0.226554609835 l-2.37882331014,-2.26554602385 -1.01949572563,-2.03899145126 l-1.01949572563,-3.73815089464 20.3899145126,4.87092405558 l12.2339487076,4.64436948299 4.75764662027,4.87092405558 l-1.35932758451,-0.566386505961 -8.26924324036,-5.66386520863 l-2.49210059643,-1.13277301192 -1.13277301192,0.0 l0.566386505961,6.3435292244 3.28504174948,13.9331078529 l4.98420119286,10.1949572563 1.24605029821,1.81243687868 l-0.339831896126,-1.13277301192 -4.64436948299,-4.19126033783 l-8.26924324036,-6.11697435379 -8.72235238552,-3.96470546722 l3.0584871769,1.35932758451 3.39831918478,0.566386505961 l1.24605029821,-1.4726048708 1.69915959239,-3.0584871769 m7.13647007942,-3.39831918478 l2.03899145126,0.45310921967 7.02319264412,0.0 l6.11697435379,-2.49210059643 4.98420119286,-0.906218439341 l4.87092405558,-2.37882331014 1.24605029821,-0.906218439341 l3.51159632206,-4.64436948299 1.69915959239,-3.51159632206 l2.26554602385,-3.28504174948 m0.113277304918,-1.13277301192 l-0.792941153049,-1.13277301192 0.45310921967,-3.62487375736 l0.226554609835,-0.566386505961 1.24605029821,-0.566386505961 l3.62487375736,0.45310921967 2.26554602385,0.906218439341 l1.92571416497,3.85142832994 0.45310921967,3.0584871769 l-0.792941153049,1.01949572563 -1.01949572563,0.339831896126 l-2.83193260431,0.339831896126 -2.60537803173,-0.226554609835 l-1.69915959239,-1.4726048708 0.113277304918,-0.792941153049 m173.118999004,-11.2710952759 l-1.24605029821,0.226554609835 -1.4726048708,1.13277301192 l-0.906218439341,1.24605029821 -0.45310921967,2.71865516901 l1.01949572563,1.92571416497 2.71865516901,2.71865516901 l5.09747862816,1.13277301192 3.0584871769,0.0 l3.85142832994,-1.5858823061 2.60537803173,-3.39831918478 l-0.339831896126,-3.1717646122 -1.13277301192,-2.15226873755 l-7.36302495003,-2.60537803173 -3.1717646122,0.339831896126 l-2.26554602385,0.906218439341 -4.19126033783,3.73815089464 l0.0,0.679663792253 0.45310921967,0.566386505961 l3.28504174948,-3.0584871769 3.73815089464,-2.49210059643 l6.79663836956,-3.51159632206 5.55058777332,-1.81243687868 l7.92941093445,-0.226554609835 3.39831918478,2.94520974159 l1.35932758451,6.3435292244 -4.53109204769,13.5932767391 l-7.58957922459,6.68336093426 -7.02319264412,4.07798290253 l-0.226554609835,0.679663792253 0.566386505961,3.85142832994 l4.53109204769,0.226554609835 15.1791584492,-3.73815089464 l2.26554602385,-15.7455456257 -0.226554609835,-4.07798290253 l-3.0584871769,-2.83193260431 -5.09747862816,-1.69915959239 l-7.92941093445,1.24605029821 -6.3435292244,4.07798290253 l-5.09747862816,6.3435292244 2.03899145126,9.74184811115 l9.17546153069,5.66386520863 18.1243681908,-1.5858823061 l5.32403349876,-2.94520974159 5.21075606346,-10.3082346916 l-2.15226873755,-2.94520974159 -5.32403349876,-3.0584871769 l-8.15596580505,0.566386505961 -11.6675627232,2.94520974159 l-4.19126033783,5.09747862816 -0.792941153049,4.07798290253 m10.874620676,4.75764662027 l-1.81243687868,12.2339487076 -0.566386505961,5.09747862816 l0.0,3.51159632206 m-0.226554609835,-1.81243687868 l1.13277301192,0.0 3.1717646122,0.906218439341 m-5.09747862816,-1.01949572563 l-1.81243687868,0.339831896126 -2.37882331014,1.13277301192 m12.007393837,-39.9868869781 l-2.03899145126,0.113277304918 -13.1401669979,4.30453747511 l-2.15226873755,1.5858823061 -1.24605029821,6.3435292244 l4.53109204769,3.62487375736 5.09747862816,1.92571416497 l10.6480669975,1.5858823061 6.45680606365,-1.69915959239 l5.32403349876,-4.98420119286 2.37882331014,-5.66386520863 l0.0,-3.73815089464 -3.73815089464,-1.13277301192 l-13.1401669979,1.01949572563 -9.96840238571,3.51159632206 l-1.69915959239,1.24605029821 -0.226554609835,2.60537803173 l4.41781491041,4.98420119286 5.21075606346,-0.679663792253 l5.43731033802,-2.03899145126 2.15226873755,-3.39831918478 l0.45310921967,-4.19126033783 -9.06218409538,-2.03899145126 l-4.41781491041,3.39831918478 1.81243687868,6.3435292244 l4.53109204769,2.15226873755 3.85142832994,-1.5858823061 l-0.226554609835,-3.51159632206 -1.4726048708,-1.35932758451 m-1.01949572563,-13.1401669979 m214.238656759,41.9125986099 l1.24605029821,-3.1717646122 6.11697435379,-11.1011755466 l3.62487375736,-4.19126033783 2.71865516901,-2.26554602385 l1.24605029821,-0.679663792253 1.92571416497,-0.113277304918 l1.4726048708,0.45310921967 1.69915959239,1.13277301192 l5.21075606346,6.00369691849 2.49210059643,3.85142832994 l3.1717646122,6.11697435379 0.906218439341,4.98420119286 m-27.6396608353,-21.6359639168 l32.8504180908,-0.226554609835 3.85142832994,-11.7808389664 l2.71865516901,-4.98420119286 1.13277301192,-0.679663792253 l2.49210059643,-0.679663792253 8.83562982082,-1.24605029821 l0.45310921967,0.566386505961 0.45310921967,4.41781491041 l-7.24974751472,0.226554609835 -0.566386505961,1.13277301192 l-0.566386505961,2.15226873755 -0.679663792253,6.00369691849 l-0.45310921967,8.83562982082 -10.081679821,1.35932758451 l-27.7529382706,0.113277304918 -8.60907495022,-1.13277301192 l1.81243687868,-4.41781491041 1.92571416497,-0.113277304918 l1.81243687868,0.45310921967 m46.6702508926,-16.9915950298 l0.566386505961,-1.24605029821 0.566386505961,-0.339831896126 l0.339831896126,0.566386505961 -1.4726048708,0.45310921967 m4.41781491041,2.37882331014 l2.60537803173,-0.339831896126 -3.0584871769,-1.92571416497 l-1.01949572563,-1.92571416497 m-66.4937782288,-7.13647007942 l9.28873896599,-13.3667218685 0.339831896126,2.60537803173 l-0.113277304918,8.72235238552 -0.906218439341,1.13277301192 l-1.4726048708,0.0 -1.01949572563,-0.679663792253 l-9.74184811115,-7.13647007942 -1.69915959239,-1.5858823061 l-0.226554609835,-0.679663792253 5.77714264393,-1.35932758451 l13.9331078529,-0.566386505961 12.1206712723,0.0 l2.71865516901,0.226554609835 0.226554609835,0.566386505961 l-4.64436948299,5.32403349876 -8.49579751492,6.23025178909 l-8.15596580505,3.39831918478 -9.74184811115,2.26554602385 l-4.87092405558,0.45310921967 -0.792941153049,0.0 l-0.339831896126,-0.339831896126 m-45.4241991043,37.4947881699 l1.24605029821,0.792941153049 4.64436948299,1.01949572563 l49.7287368774,7.24974751472 15.1791584492,0.113277304918 l4.41781491041,-0.679663792253 8.94890666008,-0.45310921967 l12.800334692,-1.92571416497 11.3277304173,-2.71865516901 l18.577477932,-2.60537803173 6.23025178909,-1.24605029821 l9.17546153069,-0.339831896126 m-726.54117465,111.315799952 l2.37882331014,-3.28504174948 4.07798290253,-0.566386505961 l0.0,1.5858823061 -0.339831896126,0.679663792253 l-2.83193260431,2.49210059643 -2.83193260431,3.85142832994 l-1.69915959239,4.41781491041 0.566386505961,14.2729401588 l-0.679663792253,3.51159632206 -2.49210059643,2.37882331014 l-3.96470546722,-3.51159632206 -0.906218439341,-3.62487375736 l0.45310921967,-7.81613409519 3.0584871769,-10.874620676 l1.01949572563,-1.24605029821 1.01949572563,-0.339831896126 l2.15226873755,1.35932758451 m-3.62487375736,18.9173090458 l-0.339831896126,1.4726048708 -18.9173090458,-6.90991520882 l-25.7139468193,-0.566386505961 1.4726048708,2.03899145126 l11.3277304173,10.1949572563 23.4484004974,10.4215121269 l15.4057133198,-1.92571416497 3.0584871769,-5.43731033802 l-0.226554609835,-4.07798290253 -1.5858823061,-1.35932758451 l-12.3472261429,-6.57008349895 -2.37882331014,1.35932758451 m-0.679663792253,-0.906218439341 l-2.60537803173,1.92571416497 -2.94520974159,6.23025178909 l4.30453747511,-3.1717646122 -3.51159632206,-1.24605029821 l-13.2534444332,1.35932758451 6.11697435379,7.36302495003 l8.83562982082,0.792941153049 -0.792941153049,-6.57008349895 l-2.60537803173,-1.81243687868 -0.792941153049,0.906218439341 m28.4326028824,-30.245039463 l-1.69915959239,0.0 -0.566386505961,-0.45310921967 l5.89041948318,-2.03899145126 -2.15226873755,5.89041948318 l-1.13277301192,0.45310921967 -3.62487375736,-1.69915959239 m-2.03899145126,-2.15226873755 l-1.81243687868,4.07798290253 0.226554609835,-2.15226873755 m171.589747667,3.17176103592 l-2.26554602385,2.03899145126 -4.53109204769,5.32403349876 l9.85512554646,-2.60537803173 -2.15226873755,-3.28504174948 l0.0,-1.35932758451 -0.45310921967,-0.113277304918 m0.0,-0.113277304918 l-0.339831896126,-1.35932758451 3.0584871769,-4.30453747511 l0.906218439341,-0.45310921967 6.3435292244,-1.24605029821 l7.24974751472,0.0 2.94520974159,0.45310921967 l0.906218439341,0.45310921967 3.51159632206,5.09747862816 l0.0,13.9331078529 0.566386505961,3.96470546722 m-23.221848011,-12.1206712723 l6.57008349895,2.71865516901 3.73815089464,0.0 l0.792941153049,-0.906218439341 1.13277301192,-0.339831896126 l0.679663792253,1.4726048708 2.26554602385,9.17546153069 l2.37882331014,7.24974751472 1.5858823061,7.13647007942 l-0.792941153049,8.94890666008 -0.45310921967,2.15226873755 l-0.792941153049,1.01949572563 m-0.45310921967,-18.9173090458 l-5.21075606346,12.6870584488 4.75764662027,0.906218439341 l4.75764662027,1.4726048708 m2.03899145126,-22.6554608345 l0.339831896126,1.81243687868 0.906218439341,0.226554609835 l8.15596580505,-0.792941153049 16.9915950298,-0.226554609835 l6.00369691849,-1.01949572563 1.81243687868,14.7260499001 l-5.43731033802,-3.1717646122 0.0,-4.75764662027 l-6.45680606365,0.339831896126 1.24605029821,0.792941153049 l1.01949572563,1.35932758451 6.68336093426,16.5384864807 l3.28504174948,9.06218409538 0.566386505961,0.792941153049 l0.679663792253,0.0 -5.89041948318,-1.24605029821 l-9.17546153069,-2.94520974159 -6.45680606365,-3.1717646122 l-11.4410078526,-6.57008349895 -2.83193260431,-0.792941153049 l1.24605029821,-2.94520974159 3.1717646122,-4.53109204769 l-0.339831896126,1.24605029821 -1.69915959239,1.35932758451 l-1.69915959239,2.60537803173 -2.71865516901,8.83562982082 l-1.5858823061,2.83193260431 -1.35932758451,1.24605029821 m14.3862175941,-25.4873919487 l0.679663792253,-2.49210059643 15.8588218689,-26.1670565605 l3.28504174948,-3.73815089464 1.24605029821,-0.906218439341 l0.226554609835,0.679663792253 -2.37882331014,3.62487375736 l-2.03899145126,4.87092405558 2.03899145126,0.113277304918 l4.64436948299,-1.01949572563 3.62487375736,-0.339831896126 l0.792941153049,0.0 0.339831896126,0.679663792253 l-8.49579751492,5.09747862816 2.15226873755,5.43731033802 l0.0,0.792941153049 -2.26554602385,1.81243687868 l-4.53109204769,2.49210059643 -7.02319264412,2.37882331014 l-2.37882331014,0.45310921967 -2.26554602385,-0.226554609835 l6.68336093426,-0.113277304918 -2.26554602385,0.566386505961 l-8.83562982082,0.226554609835 m-24.9210071564,-18.9173090458 l0.0,0.113277304918 m253.659152985,24.7510953248 l0.566386505961,8.49579751492 5.32403349876,30.0184845924 l0.679663792253,9.06218409538 -2.94520974159,2.49210059643 l-3.96470546722,4.64436948299 6.45680606365,-8.94890666008 l1.01949572563,2.71865516901 2.49210059643,2.49210059643 l0.679663792253,0.0 m-10.7613432407,-49.6154594421 l-0.792941153049,0.45310921967 -1.81243687868,4.75764662027 l-1.81243687868,3.28504174948 -3.1717646122,4.07798290253 l-5.55058777332,4.75764662027 -5.21075606346,-1.81243687868 l-3.51159632206,0.113277304918 -5.66386520863,1.35932758451 l-2.60537803173,2.37882331014 -0.792941153049,0.0 l0.0,-4.41781491041 -1.01949572563,0.566386505961 l-0.679663792253,-0.679663792253 3.96470546722,-0.339831896126 l-2.37882331014,0.0 2.15226873755,0.339831896126 l3.28504174948,-0.679663792253 m26.1670565605,-13.1401669979 l-3.85142832994,-2.60537803173 -4.19126033783,-5.43731033802 l-4.87092405558,-13.8198304176 0.113277304918,-6.3435292244 l2.26554602385,-7.36302495003 3.73815089464,-4.07798290253 l3.62487375736,-2.26554602385 4.87092405558,-1.13277301192 l4.98420119286,1.5858823061 6.68336093426,14.3862175941 l-0.45310921967,7.92941093445 -7.02319264412,14.8393261433 l-4.41781491041,3.0584871769 -3.51159632206,1.13277301192 l-1.24605029821,-0.679663792253 m-1.13277301192,-35.5690741539 l-3.28504174948,-1.13277301192 -0.679663792253,-1.69915959239 l0.566386505961,-5.89041948318 2.83193260431,-2.83193260431 l4.87092405558,-0.339831896126 m9.74184811115,13.4799993038 l-0.566386505961,-3.62487375736 0.226554609835,-1.69915959239 l2.26554602385,-4.30453747511 m-3.62487375736,-0.113277304918 l7.58957922459,0.226554609835 1.81243687868,0.679663792253 l2.37882331014,3.1717646122 -5.09747862816,1.01949572563 l-2.26554602385,-3.28504174948 -2.26554602385,-1.24605029821 l3.1717646122,-0.226554609835 3.39831918478,0.566386505961 l-2.60537803173,1.24605029821 -2.26554602385,0.339831896126 l2.83193260431,-0.45310921967 1.4726048708,0.113277304918 l-0.906218439341,0.566386505961 1.5858823061,0.566386505961 l-1.01949572563,0.906218439341 -0.226554609835,-0.45310921967 l-0.679663792253,0.792941153049 m-23.7882328033,5.77714264393 l4.41781491041,-2.03899145126 2.03899145126,0.339831896126 l4.98420119286,13.1401669979 m232.532935441,-5.32404601574 l-0.792941153049,-2.49210059643 -2.15226873755,-4.53109204769 l-1.81243687868,-2.03899145126 -4.98420119286,-4.07798290253 l-1.5858823061,-0.679663792253 -2.94520974159,-0.566386505961 l-1.5858823061,0.226554609835 -3.62487375736,1.4726048708 l-1.13277301192,1.24605029821 -1.24605029821,5.66386520863 l3.73815089464,17.2181499004 3.85142832994,13.1401669979 l2.83193260431,13.8198304176 0.906218439341,2.71865516901 l-0.113277304918,9.06218409538 -0.45310921967,2.49210059643 l-0.45310921967,-1.13277301192 -0.339831896126,-3.28504174948 l0.113277304918,-3.73815089464 2.15226873755,-7.36302495003 l4.87092405558,9.06218409538 2.15226873755,2.71865516901 l1.81243687868,1.4726048708 m-7.81613409519,-33.6433577538 l-7.02319264412,-0.906218439341 -6.00369691849,0.339831896126 l-9.28873896599,4.07798290253 -3.51159632206,2.49210059643 l-1.5858823061,2.83193260431 0.226554609835,2.26554602385 l4.75764662027,5.32403349876 5.55058777332,1.24605029821 l12.1206712723,-2.94520974159 5.55058777332,-2.71865516901 l4.87092405558,-4.98420119286 0.0,-3.1717646122 l-6.3435292244,-4.98420119286 -6.23025178909,-0.339831896126 m15.7455456257,-14.6127724648 l-2.37882331014,-0.226554609835 -1.01949572563,-2.60537803173 l-2.26554602385,-3.39831918478 -2.49210059643,-1.5858823061 l-2.03899145126,-0.679663792253 m0.0,-0.113277304918 l-0.679663792253,2.26554602385 -1.5858823061,1.69915959239 l-2.60537803173,-0.339831896126 -1.81243687868,-1.4726048708 l-0.566386505961,-1.01949572563 1.5858823061,15.4057133198 l0.226554609835,6.79663836956 m-0.45310921967,7.24974751472 l-11.3277304173,2.49210059643 -9.28873896599,4.30453747511 m16.8783175945,-3.51159632206 l-9.85512554646,2.15226873755 m15.9720993042,0.45310921967 l-2.26554602385,0.566386505961 -6.45680606365,3.28504174948 m14.9526035786,-8.38252067566 l-4.30453747511,0.792941153049 -6.79663836956,1.92571416497 m8.26924324036,-9.96840238571 l-14.8393261433,3.73815089464 m12.4605035782,-3.85142832994 l-4.75764662027,0.792941153049 -6.11697435379,1.69915959239 m12.6870584488,-1.13277301192 l-3.1717646122,0.906218439341 -7.24974751472,3.28504174948 l-5.77714264393,4.75764662027 m13.0268895626,-3.96470546722 l-5.43731033802,2.26554602385 m-689.7260499,126.608229876 l2.03899145126,-3.0584871769 2.15226873755,-1.69915959239 l0.906218439341,-0.339831896126 3.28504174948,0.0 l1.01949572563,0.339831896126 0.792941153049,0.792941153049 l0.679663792253,1.69915959239 0.226554609835,2.03899145126 l-0.339831896126,13.8198304176 m-8.60907495022,-15.4057133198 l-4.87092405558,7.13647007942 1.24605029821,-0.226554609835 l5.77714264393,-2.83193260431 1.01949572563,11.4410078526 l1.92571416497,5.32403349876 -0.906218439341,4.98420119286 l0.566386505961,2.37882331014 -0.679663792253,3.62487375736 l4.07798290253,-0.226554609835 0.339831896126,-0.792941153049 l-0.113277304918,-6.90991520882 0.45310921967,-1.24605029821 l0.906218439341,3.1717646122 1.35932758451,0.226554609835 l2.26554602385,-0.339831896126 -0.792941153049,-4.98420119286 m0.45310921967,-0.566386505961 l2.15226873755,0.113277304918 5.21075606346,1.35932758451 l3.96470546722,0.113277304918 3.28504174948,-0.45310921967 l1.01949572563,-0.566386505961 1.5858823061,-1.69915959239 l1.01949572563,-4.19126033783 -0.113277304918,-2.60537803173 l-0.45310921967,-0.906218439341 -2.83193260431,-1.92571416497 l-4.87092405558,-0.113277304918 -2.15226873755,0.45310921967 l-7.81613409519,3.85142832994 -5.43731033802,0.792941153049 m21.1828565598,-2.37882331014 l5.43731033802,-7.24974751472 -4.41781491041,5.55058777332 m3.51159632206,-1.92571416497 l4.30453747511,-4.64436948299 m-6.57008349895,7.02319264412 l4.87092405558,-2.71865516901 m-4.64436948299,4.64436948299 l6.68336093426,-5.09747862816 m-10.3082346916,11.3277304173 l5.21075606346,-2.26554602385 m-25.3741168976,6.90991520882 l1.13277301192,4.53109204769 0.226554609835,8.15596580505 l-0.226554609835,-8.49579751492 -0.45310921967,-2.71865516901 l0.339831896126,11.8941164017 0.226554609835,-2.03899145126 l-1.13277301192,-11.2144529819 -0.113277304918,5.21075606346 l-1.24605029821,7.58957922459 -0.226554609835,0.566386505961 l-0.566386505961,-0.566386505961 -0.339831896126,-1.5858823061 l-0.113277304918,-9.06218409538 1.01949572563,11.7808389664 l0.45310921967,1.01949572563 0.566386505961,0.45310921967 l0.113277304918,-9.51529324055 -0.339831896126,-1.92571416497 l-0.566386505961,0.45310921967 -1.4726048708,8.83562982082 l0.113277304918,3.39831918478 0.566386505961,0.0 l0.226554609835,-12.2339487076 0.566386505961,-4.75764662027 l0.226554609835,6.00369691849 -0.792941153049,10.3082346916 m202.967566252,-15.9154620767 l-12.6870584488,-2.83193260431 -5.43731033802,-3.62487375736 l-10.081679821,-2.15226873755 -8.72235238552,-7.02319264412 l-0.679663792253,-1.92571416497 -1.01949572563,-1.35932758451 l-0.339831896126,-1.24605029821 0.226554609835,-0.679663792253 l2.37882331014,-2.60537803173 2.60537803173,-0.679663792253 l7.24974751472,1.01949572563 13.0268895626,2.71865516901 l9.28873896599,3.39831918478 1.4726048708,0.792941153049 l2.60537803173,2.37882331014 6.23025178909,1.5858823061 l2.37882331014,1.69915959239 4.07798290253,-2.03899145126 l4.87092405558,-0.906218439341 -1.24605029821,-8.94890666008 l0.339831896126,-2.26554602385 1.01949572563,-3.73815089464 l1.01949572563,-2.03899145126 2.15226873755,-2.15226873755 l0.566386505961,-0.339831896126 0.679663792253,0.113277304918 l0.906218439341,0.679663792253 3.0584871769,0.906218439341 l3.28504174948,-0.113277304918 0.566386505961,3.0584871769 l-1.69915959239,0.566386505961 -5.89041948318,0.566386505961 l-5.89041948318,1.4726048708 0.566386505961,0.45310921967 l3.51159632206,0.45310921967 1.4726048708,2.15226873755 l0.679663792253,1.92571416497 0.45310921967,3.96470546722 l1.24605029821,4.75764662027 0.339831896126,2.71865516901 l-0.45310921967,2.37882331014 -2.37882331014,3.62487375736 l-1.13277301192,0.792941153049 -6.23025178909,1.4726048708 l-12.007393837,-0.226554609835 -4.19126033783,0.906218439341 m-21.9757962227,-7.02319264412 l-0.679663792253,18.1243681908 -2.60537803173,1.24605029821 l-6.00369691849,5.89041948318 6.57008349895,-3.0584871769 l0.45310921967,-1.81243687868 1.92571416497,-1.5858823061 l4.98420119286,7.47630178928 -0.566386505961,0.0 l-3.39831918478,-3.28504174948 -1.13277301192,-1.81243687868 l-0.45310921967,-1.81243687868 0.113277304918,6.57008349895 m38.740837574,-19.8235285282 l-0.339831896126,18.0110907555 -0.792941153049,1.13277301192 l-0.566386505961,-0.226554609835 -0.679663792253,0.45310921967 l-2.94520974159,3.96470546722 2.71865516901,-3.73815089464 l3.28504174948,-3.28504174948 0.113277304918,2.49210059643 l2.83193260431,5.43731033802 -2.94520974159,-4.30453747511 l-1.01949572563,-2.83193260431 0.45310921967,2.83193260431 l-0.113277304918,3.85142832994 m15.5189907551,-54.3731069565 l11.1011755466,1.13277301192 16.3119316101,0.566386505961 l6.79663836956,1.01949572563 6.68336093426,1.4726048708 l4.75764662027,1.4726048708 -20.3899145126,-0.339831896126 l-12.5737810135,0.566386505961 -3.62487375736,-0.906218439341 l-1.92571416497,0.226554609835 -4.75764662027,-1.35932758451 l-2.26554602385,-0.226554609835 m197.870085239,26.2803378701 l-1.01949572563,5.21075606346 -1.5858823061,13.3667218685 l-4.64436948299,18.0110907555 -4.30453747511,2.15226873755 l-9.85512554646,2.71865516901 -1.4726048708,1.01949572563 m16.3119316101,-6.68336093426 l1.13277301192,3.73815089464 0.906218439341,1.24605029821 l1.81243687868,1.81243687868 1.69915959239,0.792941153049 m0.792941153049,-43.1586503983 l2.83193260431,0.906218439341 6.68336093426,1.13277301192 l9.40201640129,1.01949572563 5.32403349876,-0.113277304918 l1.13277301192,-0.45310921967 1.5858823061,-1.24605029821 l0.792941153049,-1.35932758451 0.339831896126,-2.71865516901 l-0.679663792253,-0.45310921967 -6.90991520882,-1.13277301192 l-2.71865516901,-0.792941153049 -7.58957922459,-1.01949572563 l-3.96470546722,0.226554609835 -8.60907495022,2.71865516901 l0.226554609835,1.01949572563 1.4726048708,1.13277301192 l4.53109204769,1.35932758451 m16.8783175945,1.92571416497 l0.226554609835,2.03899145126 1.69915959239,6.45680606365 l0.566386505961,5.55058777332 2.15226873755,7.47630178928 l6.00369691849,13.8198304176 -2.03899145126,1.5858823061 l-6.3435292244,3.51159632206 -4.19126033783,3.0584871769 m10.9878981113,-7.36302495003 l1.24605029821,0.226554609835 2.15226873755,1.4726048708 l4.87092405558,4.07798290253 m-23.674955368,-49.7287368774 l1.01949572563,-3.62487375736 0.566386505961,-4.98420119286 l1.13277301192,-3.0584871769 1.4726048708,-13.9331078529 l1.69915959239,-4.53109204769 3.62487375736,-0.339831896126 l14.0463852882,3.28504174948 32.5105857849,4.64436948299 l0.113277304918,1.92571416497 -0.792941153049,2.94520974159 l-1.92571416497,1.81243687868 -0.792941153049,0.226554609835 l-5.09747862816,0.113277304918 -8.49579751492,-1.13277301192 l-12.6870584488,-2.83193260431 -7.13647007942,-0.339831896126 l-7.13647007942,-1.92571416497 m42.1391582489,4.41781491041 l8.83562982082,4.07798290253 -9.17546153069,0.226554609835 m-41.2329387665,-8.94890666008 l-2.49210059643,0.113277304918 m4.30453747511,-4.53109204769 l-0.339831896126,0.45310921967 m-3.96470546722,4.07798290253 l-0.45310921967,0.679663792253 -1.69915959239,7.70285665989 l-4.75764662027,10.9878981113 -1.69915959239,5.66386520863 m243.577479124,51.4279049635 l17.1048724651,1.69915959239 4.30453747511,0.0 l4.30453747511,-0.566386505961 -1.13277301192,-4.19126033783 l-0.906218439341,-6.90991520882 -1.5858823061,-17.1048724651 l-0.566386505961,-14.4994950294 -0.339831896126,-2.71865516901 l-0.226554609835,-0.566386505961 -0.113277304918,0.566386505961 l0.339831896126,4.98420119286 m-9.74184811115,6.45680606365 l0.0,0.0 m12.9136121273,-8.26924324036 l-12.3472261429,0.0 -0.339831896126,0.679663792253 l0.113277304918,13.7065541744 0.679663792253,5.43731033802 l-10.6480669975,0.113277304918 m-4.75764662027,-24.5811748505 l1.5858823061,0.679663792253 19.8235285282,0.226554609835 l8.04268836975,1.01949572563 10.081679821,0.679663792253 l5.55058777332,0.0 2.83193260431,-1.01949572563 l1.69915959239,-1.5858823061 0.45310921967,-9.40201640129 l-2.37882331014,-4.30453747511 -2.49210059643,-2.60537803173 l-1.81243687868,-1.13277301192 -2.15226873755,0.0 l-6.57008349895,2.37882331014 -1.5858823061,0.226554609835 l-4.87092405558,0.113277304918 -3.85142832994,-1.24605029821 l-12.4605035782,-12.1206712723 -2.60537803173,-5.21075606346 l-2.71865516901,-2.60537803173 -6.00369691849,-2.15226873755 l-2.03899145126,-0.339831896126 -1.81243687868,0.0 l-0.226554609835,0.339831896126 m15.5189907551,9.96840238571 l-0.566386505961,-0.792941153049 -0.792941153049,-3.73815089464 l-4.19126033783,-6.90991520882 -1.81243687868,-5.66386520863 l-0.792941153049,-6.00369691849 m2.03899145126,20.3899145126 l-0.906218439341,-0.113277304918 -2.37882331014,-2.15226873755 l-0.792941153049,-0.906218439341 -1.35932758451,-3.1717646122 l-6.00369691849,-5.21075606346 -1.81243687868,-3.28504174948 l-1.69915959239,-2.03899145126 -2.15226873755,-1.4726048708 l-0.566386505961,-0.113277304918 -0.339831896126,0.679663792253 m7.13647007942,7.36302495003 l-1.35932758451,0.45310921967 -3.62487375736,6.90991520882 l-0.679663792253,2.60537803173 -0.113277304918,6.00369691849 l-0.679663792253,2.49210059643 -1.24605029821,2.26554602385 l-0.566386505961,0.113277304918 -0.113277304918,-0.566386505961 l-0.339831896126,-6.68336093426 -1.92571416497,-0.226554609835 l-0.906218439341,3.96470546722 -2.37882331014,2.03899145126 l-1.13277301192,0.339831896126 -2.15226873755,-3.73815089464 l0.113277304918,-3.39831918478 0.45310921967,-1.4726048708 l0.792941153049,-1.13277301192 2.49210059643,-2.15226873755 l0.906218439341,-1.81243687868 1.4726048708,-5.32403349876 l2.15226873755,-3.85142832994 2.94520974159,-3.85142832994 l1.4726048708,-1.35932758451 2.37882331014,-1.24605029821 l1.69915959239,-0.45310921967 1.24605029821,0.113277304918 l0.0,2.26554602385 m-11.7808389664,10.3082346916 l3.85142832994,2.49210059643 6.45680606365,2.03899145126 m-707.850413918,217.456622124 l2.26554602385,0.0 1.5858823061,0.566386505961 m-4.19126033783,-0.566386505961 l1.01949572563,-1.35932758451 2.26554602385,-5.66386520863 l0.45310921967,-2.03899145126 0.113277304918,-12.9136121273 l0.906218439341,-12.2339487076 4.30453747511,3.0584871769 l2.15226873755,2.03899145126 1.24605029821,0.339831896126 l3.85142832994,0.906218439341 14.3862175941,2.03899145126 l8.26924324036,0.226554609835 3.96470546722,-1.81243687868 l2.15226873755,-1.69915959239 3.1717646122,-1.5858823061 l3.1717646122,-2.15226873755 2.94520974159,-4.07798290253 l0.906218439341,-2.15226873755 0.45310921967,-2.49210059643 l-0.226554609835,-3.0584871769 -1.13277301192,-4.53109204769 l-0.679663792253,-1.01949572563 -0.679663792253,-0.339831896126 l-11.4410078526,-1.69915959239 -5.21075606346,-0.906218439341 l-5.09747862816,-1.35932758451 -14.6127724648,-2.26554602385 l-17.8978133202,0.113277304918 -2.60537803173,0.792941153049 l-6.11697435379,1.01949572563 -2.83193260431,1.35932758451 l-1.13277301192,1.13277301192 -1.24605029821,2.94520974159 l0.0,1.24605029821 4.41781491041,5.89041948318 l1.4726048708,1.35932758451 6.90991520882,3.73815089464 l4.64436948299,1.5858823061 7.13647007942,3.28504174948 m3.39831918478,-16.3119316101 l7.58957922459,1.69915959239 5.09747862816,1.81243687868 l3.39831918478,0.792941153049 6.11697435379,0.792941153049 l-3.51159632206,6.23025178909 -4.53109204769,5.21075606346 l-2.37882331014,1.81243687868 0.792941153049,-3.62487375736 l-0.566386505961,0.566386505961 -2.37882331014,-5.32403349876 l-2.03899145126,1.69915959239 -0.45310921967,-1.13277301192 l-1.24605029821,1.24605029821 -0.566386505961,-0.113277304918 l-0.339831896126,-1.81243687868 -2.37882331014,0.792941153049 l-5.21075606346,0.906218439341 0.339831896126,-0.906218439341 l3.1717646122,-3.85142832994 -0.566386505961,0.113277304918 l-0.45310921967,-0.566386505961 0.906218439341,-2.71865516901 l0.339831896126,-2.94520974159 m-1.81243687868,18.2376456261 l-0.45310921967,12.2339487076 -3.28504174948,7.02319264412 l-0.45310921967,7.92941093445 -0.45310921967,2.37882331014 l5.77714264393,0.566386505961 m23.4484004974,-53.9199972153 l2.71865516901,-13.3667218685 2.26554602385,-6.00369691849 l0.226554609835,-1.5858823061 5.77714264393,-0.113277304918 l42.2524356842,9.51529324055 0.679663792253,0.339831896126 l0.226554609835,0.566386505961 0.0,1.4726048708 l-4.30453747511,11.4410078526 -0.906218439341,0.0 l-6.00369691849,-2.37882331014 -6.45680606365,-1.81243687868 l-4.07798290253,-1.4726048708 -2.60537803173,-1.35932758451 l-3.96470546722,0.0 -3.85142832994,3.51159632206 l-4.53109204769,2.83193260431 m210.16066581,10.4215028882 l-0.679663792253,0.679663792253 0.339831896126,3.85142832994 l0.0,10.4215121269 -1.13277301192,7.92941093445 l6.90991520882,2.83193260431 m-8.38252067566,-1.35932758451 l0.113277304918,0.566386505961 2.37882331014,1.35932758451 l1.4726048708,1.35932758451 1.81243687868,2.15226873755 l0.679663792253,1.4726048708 m-4.64436948299,-8.15596580505 l-0.792941153049,0.45310921967 -2.15226873755,2.49210059643 m-1.35932758451,-0.45310921967 l1.4726048708,1.5858823061 2.60537803173,5.43731033802 l0.113277304918,0.906218439341 m-10.7613432407,-38.0611729622 l-0.906218439341,1.01949572563 -2.03899145126,6.90991520882 l-1.92571416497,10.6480669975 -1.69915959239,7.47630178928 l-1.01949572563,2.60537803173 0.0,0.679663792253 l2.60537803173,3.62487375736 1.4726048708,2.94520974159 m-5.32403349876,-6.68336093426 l1.81243687868,3.39831918478 0.226554609835,9.85512554646 m-0.45310921967,-14.9526035786 l-5.77714264393,7.24974751472 -2.49210059643,4.30453747511 m14.8393261433,-42.8188180923 l0.566386505961,0.566386505961 3.28504174948,1.01949572563 l11.7808389664,2.15226873755 2.60537803173,-9.85512554646 l1.24605029821,-3.0584871769 2.26554602385,-3.85142832994 l2.94520974159,-3.85142832994 1.81243687868,-1.4726048708 l2.03899145126,-0.906218439341 1.24605029821,-0.113277304918 l0.792941153049,0.339831896126 0.792941153049,2.49210059643 l0.0,2.60537803173 -1.13277301192,2.60537803173 l-2.15226873755,3.0584871769 -5.21075606346,5.43731033802 l-5.66386520863,6.90991520882 -0.339831896126,2.26554602385 m-15.9720993042,-4.75764662027 l-1.4726048708,0.339831896126 -1.69915959239,4.53109204769 m15.7455456257,-2.03899145126 l0.566386505961,7.92941093445 m2.60537803173,-7.81613409519 l-1.24605029821,-0.339831896126 -0.566386505961,-10.874620676 l-0.45310921967,-0.679663792253 -1.35932758451,-0.45310921967 l-1.5858823061,0.0 -8.72235238552,2.03899145126 l-3.85142832994,-0.113277304918 0.792941153049,0.906218439341 l2.26554602385,5.55058777332 1.13277301192,1.81243687868 m28.0927705765,-13.8198304176 l-1.01949572563,-2.71865516901 -0.339831896126,0.45310921967 m-6.3435292244,1.24605029821 l2.03899145126,-1.5858823061 0.0,1.24605029821 m-1.35932758451,5.43731033802 l0.45310921967,-1.5858823061 0.0,1.24605029821 m-3.85142832994,-0.792941153049 l0.45310921967,0.566386505961 1.69915959239,6.00369691849 l0.566386505961,0.906218439341 0.792941153049,0.339831896126 m230.833786428,-23.3351108432 l-4.19126033783,0.226554609835 -4.41781491041,0.906218439341 l-16.9915950298,6.45680606365 -6.79663836956,2.03899145126 l-5.66386520863,3.28504174948 -3.0584871769,1.13277301192 l-6.68336093426,3.62487375736 -1.81243687868,-6.57008349895 l-0.792941153049,-1.69915959239 -0.679663792253,-0.566386505961 l-3.28504174948,-1.69915959239 -3.73815089464,-1.01949572563 l-6.79663836956,-0.792941153049 -1.81243687868,2.94520974159 l-1.4726048708,4.87092405558 -0.566386505961,3.85142832994 l0.113277304918,8.15596580505 0.792941153049,3.28504174948 l1.69915959239,3.0584871769 6.45680606365,-0.113277304918 l3.39831918478,-1.35932758451 2.83193260431,-0.679663792253 l0.339831896126,-0.566386505961 0.226554609835,-7.81613409519 l2.37882331014,-5.09747862816 0.226554609835,-1.4726048708 m-16.4252090454,20.3899145126 l0.339831896126,-1.92571416497 0.226554609835,0.679663792253 l0.226554609835,55.7324314117 -0.45310921967,1.69915959239 l-1.24605029821,0.226554609835 -2.15226873755,-2.26554602385 l1.01949572563,-1.13277301192 m7.81613409519,-57.4315929413 l0.113277304918,6.45680606365 1.92571416497,15.4057133198 l1.4726048708,7.13647007942 0.226554609835,2.94520974159 l6.45680606365,22.2023510933 0.113277304918,5.77714264393 m49.3889045715,-91.4147853851 l0.113277304918,-6.68336093426 1.5858823061,-8.94890666008 l1.24605029821,-0.45310921967 1.13277301192,0.113277304918 l1.69915959239,0.566386505961 1.92571416497,1.24605029821 l2.49210059643,2.60537803173 1.4726048708,2.15226873755 l4.30453747511,9.06218409538 0.226554609835,11.1011755466 l-0.45310921967,1.24605029821 -2.94520974159,2.71865516901 l-1.81243687868,0.339831896126 -1.81243687868,-0.679663792253 l-6.45680606365,-1.01949572563 -1.01949572563,-2.26554602385 l-2.60537803173,-9.06218409538 -0.679663792253,-1.5858823061 l-0.566386505961,-0.339831896126 -0.113277304918,-1.69915959239 l-0.566386505961,-0.566386505961 m18.8040328026,0.792941153049 l4.41781491041,-1.24605029821 m172.326048613,82.9756313562 l-0.45310921967,2.60537803173 0.0,3.0584871769 m2.37882331014,-4.64436948299 l6.00369691849,4.98420119286 m-2.94520974159,-2.94520974159 l5.21075606346,-0.679663792253 1.24605029821,1.13277301192 l-1.13277301192,-2.37882331014 -1.01949572563,-0.906218439341 l-1.01949572563,-0.679663792253 -1.92571416497,-0.226554609835 l-0.566386505961,-0.792941153049 0.226554609835,-0.792941153049 m-4.98420119286,0.566386505961 l3.85142832994,-26.0537791252 1.69915959239,-21.2961339951 m2.94520974159,8.94890666008 l0.226554609835,1.01949572563 0.566386505961,0.45310921967 m-2.83193260431,-8.83562982082 l2.26554602385,1.69915959239 3.85142832994,6.45680606365 l10.5347895622,15.7455456257 1.35932758451,3.0584871769 l-1.13277301192,0.0 -1.69915959239,0.679663792253 l-9.74184811115,4.07798290253 -6.57008349895,3.1717646122 l-0.339831896126,0.566386505961 1.24605029821,3.1717646122 l0.0,2.94520974159 m-1.35932758451,-6.3435292244 l-1.81243687868,6.68336093426 m2.94520974159,-6.45680606365 l4.98420119286,2.60537803173 m-4.19126033783,-36.2487363815 l-8.15596580505,-0.226554609835 -4.75764662027,-1.81243687868 l-3.85142832994,-2.83193260431 -1.92571416497,-2.71865516901 l-0.906218439341,-2.15226873755 -2.26554602385,-8.04268836975 l-2.15226873755,-9.85512554646 3.85142832994,7.13647007942 l2.26554602385,2.49210059643 1.35932758451,0.566386505961 l1.81243687868,-11.6675627232 1.13277301192,-4.98420119286 l4.53109204769,5.55058777332 1.35932758451,0.566386505961 l1.4726048708,0.0 4.87092405558,-7.36302495003 l2.94520974159,-2.71865516901 3.1717646122,-1.69915959239 l3.73815089464,-0.339831896126 1.01949572563,0.113277304918 l1.4726048708,1.24605029821 2.83193260431,4.30453747511 l1.35932758451,4.19126033783 0.679663792253,5.43731033802 l1.81243687868,0.226554609835 8.60907495022,-1.81243687868 l4.53109204769,0.113277304918 0.906218439341,0.45310921967 l0.45310921967,0.566386505961 0.113277304918,1.13277301192 l-1.69915959239,1.69915959239 -4.98420119286,1.24605029821 l-9.96840238571,1.4726048708 -2.49210059643,0.906218439341 l-2.83193260431,1.69915959239 -3.28504174948,3.96470546722 l-3.73815089464,5.89041948318 -3.62487375736,7.92941093445 " fill="none" stroke="black" stroke-width="1" /></svg>