<?xml version="1.0" encoding="utf-8" ?>
<svg baseProfile="full" height="925.691620745" version="1.1" width="901.161833573" xmlns="http://www.w3.org/2000/svg" xmlns:ev="http://www.w3.org/2001/xml-events" xmlns:xlink="http://www.w3.org/1999/xlink"><defs /><rect fill="none" height="925.691620745" width="901.161833573" x="0" y="0" /><path d="M25,25 m0.0,0.0 m128.698650599,81.7399948835 l1.24605029821,-5.66386520863 -1.01949572563,-8.38252067566 l-5.43731033802,-8.15596580505 -5.89041948318,-6.11697435379 l-1.13277301192,-4.98420119286 -0.226554609835,-2.94520974159 l-0.566386505961,-18.577477932 8.94890666008,0.339831896126 l3.1717646122,0.566386505961 2.94520974159,2.60537803173 l0.0,4.53109204769 -0.906218439341,0.0 l3.28504174948,1.01949572563 9.85512554646,0.113277304918 l-7.92941093445,2.83193260431 -4.41781491041,0.566386505961 l3.0584871769,4.53109204769 7.02319264412,5.43731033802 l5.21075606346,11.7808389664 3.85142832994,9.96840238571 l0.792941153049,6.11697435379 -0.339831896126,3.62487375736 m-20.9563016891,2.60537803173 l-7.70285665989,-6.11697435379 -17.444704771,-11.5542852879 l-5.89041948318,-17.8978133202 -0.113277304918,-21.5226864815 l-1.5858823061,2.49210059643 -15.4057133198,13.8198304176 l0.226554609835,0.792941153049 -6.3435292244,12.9136121273 l0.566386505961,6.57008349895 3.39831918478,8.38252067566 l-4.41781491041,7.92941093445 1.13277301192,10.6480669975 l-1.4726048708,4.98420119286 12.4605035782,2.49210059643 l4.30453747511,-1.5858823061 m56.2988185883,-16.4252090454 l4.19126033783,9.51529324055 -3.96470546722,3.62487375736 l-3.39831918478,-2.26554602385 m-20.7297468185,-60.1502466202 l0.226554609835,1.5858823061 m7.47630178928,4.19126033783 l-4.98420119286,0.226554609835 0.679663792253,4.07798290253 l2.03899145126,1.92571416497 4.30453747511,-0.339831896126 m-2.03899145126,-1.4726048708 l-3.39831918478,-0.792941153049 -3.85142832994,-4.07798290253 l-1.4726048708,-2.26554602385 m20.3899145126,53.3536100388 l11.1011755466,25.600669384 3.51159632206,0.0 l-5.43731033802,-3.62487375736 m-67.2867155075,-13.9331078529 l-1.5858823061,13.3667218685 -1.5858823061,4.19126033783 l0.906218439341,-2.71865516901 m68.1929349899,-10.7613432407 l-4.30453747511,3.85142832994 -23.5616779327,4.98420119286 l-15.4057133198,0.0 -11.1011755466,-3.96470546722 l-14.9526035786,-8.38252067566 m38.9673924446,1.4726048708 l7.58957922459,12.9136121273 2.26554602385,2.60537803173 l-2.71865516901,-4.30453747511 m-18.3509230614,-4.87092405558 l-6.3435292244,9.17546153069 -3.51159632206,0.0 l0.0,-2.26554602385 m32.0574760437,-25.8272242546 l-2.83193260431,4.53109204769 -10.4215121269,5.32403349876 l-12.1206712723,-3.85142832994 -0.226554609835,3.85142832994 l-9.62857067585,4.53109204769 -3.28504174948,-7.47630178928 l-12.007393837,0.45310921967 -0.226554609835,-1.4726048708 m-10.3082346916,-10.874620676 l0.0,-1.35932758451 m252.752933502,21.3527792692 l0.566386505961,-1.5858823061 7.81613409519,-9.06218409538 m-0.339831896126,0.792941153049 l1.4726048708,-3.62487375736 3.62487375736,-6.79663836956 l3.73815089464,-4.87092405558 m-1.35932758451,-1.13277301192 l2.49210059643,4.19126033783 1.24605029821,3.0584871769 l4.75764662027,16.8783175945 0.906218439341,2.03899145126 m-7.47630178928,-24.9210071564 l0.226554609835,-7.47630178928 -0.792941153049,-2.03899145126 m-1.13277301192,-2.26554602385 l-2.03899145126,0.45310921967 -5.21075606346,2.60537803173 l-12.007393837,6.68336093426 m-1.69915959239,-0.339831896126 l-3.96470546722,-5.77714264393 -4.30453747511,-9.96840238571 m-1.4726048708,-0.113277304918 l4.75764662027,-2.03899145126 3.85142832994,-1.13277301192 l21.6359639168,-4.87092405558 m7.92941093445,1.69915959239 l9.40201640129,4.19126033783 6.68336093426,2.49210059643 l6.00369691849,1.5858823061 m0.0,0.339831896126 l-0.906218439341,10.9878981113 m-1.81243687868,-1.24605029821 l-1.4726048708,-1.13277301192 -6.00369691849,-1.5858823061 l-14.9526035786,-1.13277301192 m9.74184811115,-8.49579751492 l6.68336093426,0.566386505961 2.94520974159,0.906218439341 m-9.51529324055,1.5858823061 l11.4410078526,0.226554609835 m-10.1949572563,3.0584871769 l10.5347895622,-0.226554609835 m-17.1048724651,-0.45310921967 l7.13647007942,0.339831896126 9.96840238571,-0.113277304918 l2.37882331014,-1.01949572563 m-24.4678974152,-2.26554602385 l0.679663792253,-0.339831896126 14.8393261433,-1.69915959239 m-16.651763916,1.92571416497 l6.68336093426,-0.113277304918 5.43731033802,-1.01949572563 l4.98420119286,-1.4726048708 m-25.600669384,-1.01949572563 l0.0,0.0 m-1.13277301192,-2.94520974159 l-4.53109204769,1.24605029821 -13.7065541744,8.38252067566 m17.444704771,-9.62857067585 l-2.03899145126,0.679663792253 -3.85142832994,2.15226873755 l-10.4215121269,8.26924324036 m14.7260499001,-5.66386520863 l-3.1717646122,0.792941153049 -8.04268836975,6.45680606365 m14.3862175941,-7.58957922459 l-4.07798290253,0.792941153049 -4.53109204769,2.15226873755 l-4.87092405558,3.1717646122 m13.0268895626,-5.89041948318 l-1.4726048708,1.69915959239 -12.1206712723,8.72235238552 m15.9720993042,-7.24974751472 l-3.96470546722,1.4726048708 -4.87092405558,2.94520974159 l-9.40201640129,7.13647007942 -0.792941153049,1.4726048708 m231.173627377,-1.58589243889 l-2.37882331014,2.15226873755 -4.53109204769,2.94520974159 l0.566386505961,0.45310921967 7.36302495003,-0.113277304918 m-2.03899145126,-6.90991520882 l0.339831896126,-4.19126033783 0.906218439341,-1.5858823061 l1.81243687868,-1.92571416497 3.0584871769,-0.113277304918 l2.49210059643,1.24605029821 1.81243687868,2.26554602385 l0.679663792253,2.49210059643 0.566386505961,0.0 l0.679663792253,-1.13277301192 7.02319264412,-5.21075606346 l5.32403349876,-5.55058777332 0.792941153049,-0.679663792253 l0.679663792253,0.0 11.5542852879,5.32403349876 l12.2339487076,6.90991520882 10.7613432407,7.70285665989 l3.28504174948,2.83193260431 -6.79663836956,3.1717646122 l-7.81613409519,2.83193260431 -17.3314273357,4.87092405558 l-11.3277304173,3.85142832994 0.113277304918,-1.24605029821 l-1.01949572563,-1.92571416497 -3.51159632206,-4.75764662027 l-1.4726048708,-1.24605029821 -8.49579751492,-2.49210059643 l-3.1717646122,-2.26554602385 -2.83193260431,-2.94520974159 m9.06218409538,6.3435292244 l-2.60537803173,6.68336093426 -0.566386505961,0.45310921967 l-4.41781491041,0.113277304918 m4.64436948299,-1.01949572563 l-4.64436948299,4.30453747511 m3.28504174948,-3.62487375736 l0.566386505961,1.69915959239 0.226554609835,3.28504174948 m25.9405016899,-6.68336093426 l-0.339831896126,1.13277301192 0.0,3.28504174948 l-3.73815089464,2.26554602385 -1.81243687868,2.37882331014 m6.23025178909,-3.96470546722 l-2.03899145126,2.94520974159 -2.71865516901,2.83193260431 m4.41781491041,-5.55058777332 l1.4726048708,3.51159632206 0.45310921967,2.26554602385 m-26.2803339958,-14.1596627235 l-4.64436948299,-1.69915959239 -5.89041948318,-1.4726048708 l-10.7613432407,-0.45310921967 -6.68336093426,1.24605029821 l-14.3862175941,5.77714264393 -4.30453747511,-0.113277304918 l-4.19126033783,-1.5858823061 m86.0907459259,-0.566386505961 l2.71865516901,-0.906218439341 6.68336093426,-0.226554609835 l1.5858823061,0.339831896126 3.28504174948,1.5858823061 l3.39831918478,2.83193260431 3.51159632206,1.24605029821 l3.39831918478,0.0 4.98420119286,-1.69915959239 m-44.6312570572,-32.0574760437 l-9.74184811115,7.47630178928 -1.13277301192,1.13277301192 l-1.69915959239,2.94520974159 m20.9563016891,-8.49579751492 l-19.1438639164,15.5189907551 m30.1317620277,-12.4605035782 l-6.11697435379,5.32403349876 -11.5542852879,7.81613409519 l-4.75764662027,4.64436948299 m31.9441986084,-12.007393837 l-9.85512554646,6.57008349895 -7.47630178928,4.07798290253 l-6.00369691849,4.19126033783 -3.96470546722,3.62487375736 m181.501524448,11.8374717236 l0.45310921967,-0.566386505961 0.226554609835,-3.85142832994 l0.566386505961,-2.26554602385 3.1717646122,-7.58957922459 l1.01949572563,-1.13277301192 0.566386505961,1.24605029821 l1.81243687868,0.566386505961 9.51529324055,-0.226554609835 l-0.566386505961,7.02319264412 0.906218439341,3.85142832994 l0.339831896126,4.75764662027 -10.7613432407,0.792941153049 l-7.58957922459,-2.26554602385 -1.35932758451,0.226554609835 l-1.24605029821,1.01949572563 m33.4168052673,0.45310921967 l-1.01949572563,0.0 0.113277304918,-18.9173090458 l1.81243687868,-0.113277304918 3.39831918478,-1.5858823061 l6.57008349895,-0.906218439341 3.73815089464,-1.24605029821 l0.45310921967,4.64436948299 2.15226873755,9.51529324055 l0.792941153049,5.66386520863 -6.23025178909,4.30453747511 l-3.39831918478,0.906218439341 -3.85142832994,0.45310921967 l-8.38252067566,-1.35932758451 m-10.081679821,-17.6712596416 l4.75764662027,0.679663792253 1.5858823061,-0.226554609835 l4.19126033783,-1.5858823061 9.51529324055,-1.4726048708 m11.1011755466,-2.15226873755 l-1.13277301192,-0.226554609835 -1.13277301192,-1.4726048708 l-1.35932758451,-6.3435292244 -1.35932758451,-8.94890666008 l-0.792941153049,-0.339831896126 -41.5727710724,0.679663792253 l2.71865516901,14.9526035786 0.566386505961,6.57008349895 l0.566386505961,1.24605029821 m38.8541150093,-18.4642004967 l-0.566386505961,-0.566386505961 -0.339831896126,-12.007393837 l0.906218439341,-5.09747862816 0.226554609835,-3.85142832994 l1.92571416497,-0.792941153049 2.15226873755,-0.339831896126 l9.74184811115,0.45310921967 0.906218439341,1.4726048708 l0.45310921967,2.83193260431 -2.71865516901,0.792941153049 l-4.75764662027,0.0 -3.1717646122,-0.906218439341 l-4.53109204769,0.0 m14.3862175941,-4.53109204769 l2.83193260431,-0.113277304918 4.98420119286,0.45310921967 l0.566386505961,0.45310921967 -0.226554609835,0.566386505961 l-6.57008349895,3.73815089464 -1.92571416497,0.566386505961 m-12.3472261429,15.5189907551 l0.792941153049,-1.81243687868 6.45680606365,0.339831896126 l-0.113277304918,-5.43731033802 0.45310921967,-10.1949572563 m-731.63864851,171.012938619 l0.0,-1.4726048708 3.62487375736,-6.00369691849 l1.35932758451,0.0 1.92571416497,2.83193260431 l-0.113277304918,6.23025178909 1.5858823061,1.13277301192 l7.47630178928,-0.566386505961 18.0110907555,0.0 l3.28504174948,6.79663836956 0.339831896126,5.43731033802 l-0.113277304918,8.60907495022 -2.37882331014,0.792941153049 l-2.03899145126,0.0 -0.339831896126,-0.679663792253 l0.0,-3.96470546722 -0.226554609835,-1.35932758451 l-0.566386505961,-0.906218439341 -9.85512554646,-1.69915959239 l-6.11697435379,0.0 -0.906218439341,2.03899145126 l-1.35932758451,4.64436948299 -0.45310921967,0.679663792253 l-4.75764662027,-0.113277304918 1.69915959239,-4.75764662027 l0.0,-1.4726048708 -0.566386505961,-1.13277301192 l-3.39831918478,-0.906218439341 -5.89041948318,-0.566386505961 l-0.566386505961,-0.792941153049 -0.339831896126,-1.4726048708 l-0.226554609835,-7.24974751472 1.01949572563,-4.19126033783 l0.906218439341,-2.03899145126 m2.26554602385,0.113277304918 l0.0,2.71865516901 m2.03899145126,-3.28504174948 l0.45310921967,1.92571416497 m-3.0584871769,5.66386520863 l-1.24605029821,-0.792941153049 -4.30453747511,-0.679663792253 l-8.83562982082,0.0 0.679663792253,0.679663792253 l13.2534444332,3.85142832994 0.339831896126,-2.26554602385 m-0.113277304918,0.566386505961 l-7.92941093445,-2.15226873755 m38.8541150093,-2.15226873755 l2.83193260431,0.226554609835 20.163359642,-5.89041948318 l1.01949572563,1.13277301192 24.5811748505,-0.113277304918 l-0.679663792253,0.0 -6.00369691849,3.39831918478 l-13.8198304176,4.87092405558 -16.3119316101,4.87092405558 l-8.49579751492,0.906218439341 m-28.5458803177,-15.7455456257 l9.40201640129,-2.60537803173 m-15.4057133198,3.39831918478 l-2.71865516901,-2.03899145126 -3.51159632206,-0.792941153049 m10.4215121269,0.0 l0.566386505961,0.0 9.62857067585,-3.96470546722 m-13.2534444332,3.96470546722 l-8.72235238552,-5.89041948318 m9.96840238571,5.21075606346 l0.339831896126,-5.66386520863 1.24605029821,-4.53109204769 m2.49210059643,33.4168052673 l-1.24605029821,0.0 -7.13647007942,1.4726048708 l-0.566386505961,1.35932758451 7.24974751472,0.0 l3.28504174948,-1.81243687868 m-6.90991520882,0.226554609835 l0.339831896126,0.792941153049 m-0.906218439341,-0.906218439341 l-0.339831896126,0.45310921967 -2.26554602385,0.339831896126 m237.63041243,-27.2431951761 l-1.24605029821,-0.339831896126 -4.53109204769,0.0 l-3.28504174948,0.679663792253 -4.75764662027,2.15226873755 l-1.35932758451,1.35932758451 -1.13277301192,3.39831918478 l0.45310921967,3.28504174948 2.15226873755,2.26554602385 l2.60537803173,1.24605029821 4.07798290253,1.24605029821 l5.21075606346,0.906218439341 4.75764662027,0.113277304918 l5.77714264393,-1.35932758451 2.94520974159,-2.15226873755 l1.35932758451,-1.81243687868 0.45310921967,-1.13277301192 l-0.226554609835,-3.0584871769 -1.13277301192,-1.4726048708 l-3.96470546722,-3.0584871769 -7.24974751472,-3.0584871769 l-3.73815089464,-0.906218439341 -1.92571416497,0.0 m12.1206712723,2.94520974159 l4.30453747511,0.906218439341 13.8198304176,1.24605029821 l32.9636955261,0.0 0.113277304918,5.89041948318 l-0.566386505961,0.45310921967 -10.3082346916,-1.01949572563 l-10.081679821,0.0 -7.13647007942,0.679663792253 l-18.6907553673,0.339831896126 m-23.5616779327,-4.75764662027 l4.19126033783,0.906218439341 10.874620676,1.35932758451 l18.0110907555,0.906218439341 m-21.1828565598,-0.679663792253 l14.0463852882,1.24605029821 25.3741168976,0.226554609835 m-39.4205021858,-2.60537803173 l7.24974751472,0.792941153049 30.245039463,0.566386505961 l7.81613409519,0.45310921967 m-39.3072247505,-4.19126033783 l39.4205021858,1.81243687868 m-25.7139468193,0.226554609835 l7.58957922459,0.339831896126 24.2413425446,-0.113277304918 m-16.3119316101,-3.1717646122 l0.566386505961,1.35932758451 0.792941153049,4.98420119286 m-40.66655159,-6.79663836956 l-3.51159632206,-0.113277304918 -1.81243687868,0.566386505961 l-0.566386505961,0.566386505961 -0.226554609835,2.83193260431 l1.13277301192,1.01949572563 2.26554602385,1.13277301192 l2.37882331014,0.566386505961 3.73815089464,0.113277304918 l1.69915959239,-0.113277304918 1.13277301192,-0.792941153049 l0.113277304918,-1.24605029821 -0.679663792253,-1.24605029821 l-1.35932758451,-1.24605029821 -3.0584871769,-1.35932758451 l-3.96470546722,-0.679663792253 m58.451089859,0.226554609835 l0.45310921967,6.00369691849 m0.906218439341,-4.98420119286 l0.339831896126,6.00369691849 m-2.71865516901,-5.55058777332 l7.92941093445,0.226554609835 m-20.2766370773,-2.15226873755 l-0.679663792253,4.07798290253 0.113277304918,2.03899145126 m-40.8931064606,4.19126033783 l-0.226554609835,2.37882331014 -1.35932758451,4.64436948299 l-1.5858823061,8.15596580505 2.26554602385,-5.21075606346 l2.83193260431,-4.75764662027 2.15226873755,-5.32403349876 m2.83193260431,-6.23025178909 l2.71865516901,13.7065541744 2.60537803173,8.72235238552 m-4.98420119286,-21.7492413521 l-5.32403349876,11.7808389664 -4.07798290253,7.13647007942 m272.123352885,-25.3741085529 l-7.02319264412,-1.4726048708 -9.96840238571,-0.339831896126 l-2.15226873755,0.679663792253 -1.01949572563,1.4726048708 l-0.113277304918,3.96470546722 1.13277301192,9.62857067585 l0.679663792253,4.75764662027 1.01949572563,3.0584871769 l2.37882331014,2.26554602385 3.28504174948,1.35932758451 l2.03899145126,0.339831896126 5.66386520863,-0.566386505961 l2.94520974159,-1.01949572563 3.39831918478,-1.81243687868 l4.64436948299,-3.62487375736 4.19126033783,-4.98420119286 l0.906218439341,-1.81243687868 0.45310921967,-10.6480669975 l-0.339831896126,-3.0584871769 -0.792941153049,-1.24605029821 l-2.37882331014,-1.81243687868 -3.62487375736,-0.906218439341 l-4.53109204769,0.792941153049 -1.5858823061,0.679663792253 l-5.32403349876,3.96470546722 m-12.9136121273,16.9915950298 l-6.90991520882,0.113277304918 -3.73815089464,0.792941153049 l-2.37882331014,0.906218439341 -3.1717646122,1.81243687868 l-4.87092405558,3.62487375736 -1.13277301192,1.4726048708 l-2.71865516901,5.32403349876 -4.64436948299,13.2534444332 l0.0,3.85142832994 -0.113277304918,0.566386505961 l-0.45310921967,0.0 m0.226554609835,-3.39831918478 l-0.45310921967,5.55058777332 0.679663792253,4.64436948299 m1.13277301192,-14.2729401588 l26.1670565605,-12.3472261429 6.11697435379,-0.679663792253 l4.75764662027,1.92571416497 -4.30453747511,3.28504174948 l-17.1048724651,17.6712596416 -3.39831918478,2.60537803173 l-7.92941093445,0.0 m-4.41781491041,-12.5737810135 l-5.09747862816,-2.49210059643 -9.40201640129,-3.85142832994 l-19.8235285282,-6.3435292244 -4.41781491041,-0.792941153049 l0.0,0.566386505961 9.74184811115,15.7455456257 l5.21075606346,6.90991520882 7.47630178928,4.75764662027 l28.9989900589,0.0 m40.2134418488,-56.5253734589 l1.5858823061,1.4726048708 0.906218439341,-0.906218439341 l-0.339831896126,-0.566386505961 -1.81243687868,-0.226554609835 l-0.339831896126,0.566386505961 0.226554609835,0.566386505961 l1.13277301192,-0.339831896126 -0.226554609835,0.566386505961 l-0.339831896126,-0.566386505961 m-13.1401669979,6.57008349895 l5.77714264393,3.0584871769 3.0584871769,0.906218439341 l10.3082346916,-2.15226873755 -0.113277304918,-0.566386505961 l3.96470546722,-12.5737810135 5.77714264393,-12.4605035782 l7.58957922459,-13.7065541744 4.19126033783,0.0 l-0.113277304918,0.566386505961 m-47.689743042,28.4326028824 l-5.77714264393,-2.94520974159 -5.32403349876,-1.4726048708 l-6.90991520882,-0.566386505961 -2.37882331014,0.566386505961 l2.83193260431,4.19126033783 10.081679821,11.4410078526 l1.5858823061,1.35932758451 7.81613409519,4.98420119286 m245.729750395,13.5366415977 l1.01949572563,-17.5579822063 3.1717646122,-17.3314273357 m-5.55058777332,37.3815107346 l-0.226554609835,0.566386505961 -2.03899145126,-0.679663792253 l-4.19126033783,0.0 -6.11697435379,1.01949572563 m-22.6554608345,-39.7603321075 l0.339831896126,7.58957922459 1.69915959239,16.7650413513 l-0.113277304918,-0.45310921967 -1.13277301192,0.113277304918 l-3.73815089464,2.37882331014 m6.23025178909,-12.5737810135 l-1.5858823061,5.89041948318 -0.792941153049,6.68336093426 l1.92571416497,9.40201640129 -2.49210059643,-1.13277301192 l-6.57008349895,-0.566386505961 -8.72235238552,2.37882331014 m15.7455456257,-36.7018461227 l-0.45310921967,0.113277304918 0.0,-0.566386505961 l-9.51529324055,-3.0584871769 -6.11697435379,-3.73815089464 l-0.226554609835,-0.679663792253 4.53109204769,-4.19126033783 l0.679663792253,-1.92571416497 0.226554609835,-4.19126033783 l-0.679663792253,-1.69915959239 -1.4726048708,-1.4726048708 l-1.81243687868,-0.792941153049 -2.26554602385,-0.226554609835 l-2.49210059643,0.113277304918 -5.43731033802,1.01949572563 l-11.4410078526,-0.113277304918 -1.92571416497,-0.226554609835 l-1.35932758451,-0.679663792253 -0.45310921967,-0.906218439341 l0.339831896126,-1.24605029821 1.24605029821,-2.03899145126 l1.81243687868,-1.81243687868 2.03899145126,-1.35932758451 l1.92571416497,-0.792941153049 4.19126033783,0.0 l4.87092405558,0.45310921967 2.26554602385,0.792941153049 l4.30453747511,0.792941153049 5.09747862816,0.339831896126 l17.2181499004,-2.71865516901 4.64436948299,-1.24605029821 l3.51159632206,-0.226554609835 11.2144529819,2.03899145126 l8.83562982082,2.49210059643 1.4726048708,0.679663792253 l3.0584871769,3.85142832994 2.49210059643,1.92571416497 l6.45680606365,-1.81243687868 2.49210059643,-0.226554609835 l3.62487375736,0.113277304918 3.1717646122,1.01949572563 l3.39831918478,2.49210059643 3.62487375736,3.51159632206 l2.15226873755,3.0584871769 2.26554602385,4.98420119286 l0.566386505961,4.19126033783 -0.792941153049,3.51159632206 l-2.60537803173,2.49210059643 -4.30453747511,1.13277301192 l-9.06218409538,-1.35932758451 -11.8941164017,-2.94520974159 m-37.4947881699,2.94520974159 l6.3435292244,-0.906218439341 16.9915950298,0.679663792253 l17.444704771,-0.566386505961 m-83.7119293213,-24.9210071564 l-1.5858823061,-1.01949572563 -4.30453747511,-0.792941153049 l-3.0584871769,1.4726048708 10.3082346916,2.26554602385 l1.81243687868,1.01949572563 -0.113277304918,0.226554609835 m9.96840238571,1.35932758451 l-0.226554609835,-0.45310921967 -2.83193260431,0.566386505961 l-4.87092405558,4.53109204769 -0.339831896126,1.35932758451 l5.66386520863,-0.566386505961 8.15596580505,-3.73815089464 l3.28504174948,-0.906218439341 1.81243687868,1.4726048708 m-652.061353326,190.27009964 l-0.45310921967,-19.5969736576 -0.45310921967,-3.0584871769 l-0.226554609835,0.679663792253 m5.89041948318,27.4131083488 l-1.01949572563,-15.6322681904 -1.24605029821,-12.800334692 l-0.339831896126,-0.906218439341 m27.2998309135,24.1280651093 l0.113277304918,-2.71865516901 -1.5858823061,-5.77714264393 l-3.51159632206,-17.2181499004 m13.4799993038,26.1670565605 l-0.45310921967,-3.62487375736 -1.13277301192,-3.96470546722 l-1.5858823061,-12.5737810135 -1.24605029821,-3.73815089464 l-1.69915959239,-3.51159632206 m-34.8894095421,3.96470546722 l0.566386505961,-0.45310921967 3.62487375736,-0.339831896126 l5.43731033802,0.0 2.83193260431,0.566386505961 l6.23025178909,0.0 3.0584871769,-1.13277301192 l6.3435292244,-4.53109204769 m-2.60537803173,1.13277301192 l3.73815089464,-0.45310921967 2.94520974159,0.113277304918 l3.62487375736,2.15226873755 m-35.4557967186,3.28504174948 l-2.26554602385,-0.45310921967 -1.24605029821,-0.792941153049 l-1.69915959239,-1.5858823061 -1.92571416497,-2.83193260431 l-0.45310921967,-2.83193260431 0.0,-6.3435292244 l-0.226554609835,-0.792941153049 -1.01949572563,-1.01949572563 l-4.19126033783,-1.69915959239 -4.07798290253,-0.906218439341 l-3.73815089464,-0.113277304918 -5.43731033802,1.24605029821 l-0.566386505961,-0.906218439341 -0.113277304918,-1.81243687868 l0.113277304918,-0.906218439341 1.13277301192,-2.03899145126 l0.906218439341,-0.792941153049 1.81243687868,-0.792941153049 l4.64436948299,-0.339831896126 7.58957922459,1.5858823061 l4.07798290253,1.4726048708 6.79663836956,1.81243687868 l7.13647007942,0.226554609835 2.03899145126,0.679663792253 l3.85142832994,2.49210059643 1.81243687868,0.679663792253 l12.3472261429,-0.226554609835 0.906218439341,0.339831896126 l1.81243687868,1.81243687868 5.43731033802,8.26924324036 l4.98420119286,11.2144529819 m-65.3610038757,-27.2998309135 l-6.3435292244,16.1986541748 -0.339831896126,0.679663792253 l-0.566386505961,0.0 m1.5858823061,2.60537803173 l-0.45310921967,0.792941153049 0.113277304918,13.4799993038 l0.339831896126,2.15226873755 m3.96470546722,-19.7102510929 l1.81243687868,8.60907495022 2.37882331014,7.02319264412 m0.0,-13.5932767391 l0.226554609835,2.26554602385 5.43731033802,12.3472261429 m-0.339831896126,-13.1401669979 l2.83193260431,8.83562982082 0.906218439341,4.53109204769 l0.339831896126,5.89041948318 m13.9331078529,-15.7455456257 l1.13277301192,6.00369691849 1.01949572563,11.7808389664 l1.5858823061,8.83562982082 0.792941153049,-0.45310921967 l3.73815089464,0.113277304918 -2.03899145126,-10.081679821 l-1.69915959239,-12.007393837 m26.1670565605,18.1243681908 l0.679663792253,-0.45310921967 4.30453747511,0.0 l4.98420119286,0.566386505961 m175.554443002,-19.4270597398 l2.03899145126,-0.226554609835 1.69915959239,0.339831896126 l19.2571413517,0.0 18.577477932,-9.62857067585 l3.85142832994,-6.11697435379 -2.26554602385,-8.26924324036 l1.69915959239,4.87092405558 1.81243687868,1.69915959239 l0.679663792253,0.226554609835 2.03899145126,2.26554602385 l1.24605029821,2.03899145126 0.339831896126,1.69915959239 l9.62857067585,-1.24605029821 1.69915959239,0.113277304918 l-0.679663792253,3.62487375736 -6.45680606365,3.0584871769 l-3.39831918478,-0.566386505961 6.45680606365,-0.339831896126 l1.81243687868,1.35932758451 -1.5858823061,2.83193260431 l-3.51159632206,1.01949572563 -3.96470546722,0.339831896126 l-7.81613409519,6.00369691849 -13.0268895626,18.4642004967 l-11.2144529819,14.4994950294 -2.49210059643,0.339831896126 l-6.68336093426,-1.4726048708 -9.85512554646,-6.90991520882 l-24.5811748505,-15.8588218689 -7.13647007942,-9.74184811115 l-0.339831896126,-2.03899145126 4.53109204769,-1.5858823061 l27.8662157059,-4.19126033783 4.30453747511,0.113277304918 l-4.19126033783,1.01949572563 -9.85512554646,-6.3435292244 l1.4726048708,0.0 -1.13277301192,4.07798290253 l-1.69915959239,-4.19126033783 -4.19126033783,3.39831918478 l-7.70285665989,13.4799993038 0.566386505961,-4.19126033783 l-3.1717646122,-1.69915959239 -5.77714264393,-0.226554609835 l2.94520974159,0.45310921967 m47.1233558655,38.4010052681 l-0.792941153049,5.43731033802 0.566386505961,10.4215121269 l0.45310921967,0.792941153049 0.906218439341,0.113277304918 m201.834795475,-13.6499118805 l-0.679663792253,-1.13277301192 0.0,-3.96470546722 l2.37882331014,-9.51529324055 9.85512554646,5.66386520863 l2.03899145126,1.4726048708 0.906218439341,1.24605029821 l1.69915959239,0.906218439341 2.49210059643,0.679663792253 m-16.651763916,-10.081679821 l3.39831918478,-7.58957922459 3.1717646122,-3.39831918478 l3.96470546722,-2.49210059643 m-6.23025178909,4.53109204769 l-8.60907495022,-8.26924324036 -5.32403349876,-5.66386520863 l-1.4726048708,-1.24605029821 -0.45310921967,0.0 m15.1791584492,14.0463852882 l12.4605035782,4.98420119286 10.081679821,5.21075606346 l2.94520974159,1.92571416497 m-18.3509230614,-27.2998309135 l-4.64436948299,6.11697435379 -0.226554609835,4.87092405558 l0.679663792253,0.792941153049 2.71865516901,1.69915959239 l2.03899145126,0.792941153049 6.79663836956,-0.339831896126 l4.53109204769,-1.35932758451 6.00369691849,-5.55058777332 l-4.19126033783,-8.83562982082 -8.38252067566,-3.28504174948 l-1.4726048708,-0.45310921967 -2.26554602385,-0.113277304918 l-4.19126033783,2.60537803173 -0.679663792253,2.03899145126 l0.339831896126,2.49210059643 m9.62857067585,-1.69915959239 l-2.15226873755,1.35932758451 -0.792941153049,1.35932758451 l0.113277304918,0.679663792253 1.92571416497,0.566386505961 l1.35932758451,-0.679663792253 0.226554609835,-1.13277301192 l-0.45310921967,-1.24605029821 m3.73815089464,2.94520974159 l-2.15226873755,2.83193260431 0.792941153049,1.01949572563 l0.679663792253,0.113277304918 1.35932758451,-0.113277304918 l1.13277301192,-0.566386505961 0.45310921967,-0.679663792253 l-0.45310921967,-2.37882331014 m-13.9331078529,2.26554602385 l3.1717646122,1.24605029821 1.92571416497,4.41781491041 l-3.39831918478,-2.83193260431 -1.69915959239,-3.28504174948 m12.9136121273,-7.92941093445 l0.566386505961,-3.0584871769 2.94520974159,-1.01949572563 l1.4726048708,0.113277304918 0.0,1.4726048708 l-2.49210059643,5.89041948318 0.566386505961,0.113277304918 l12.9136121273,-4.19126033783 -0.45310921967,1.35932758451 l-1.69915959239,2.71865516901 -3.28504174948,3.62487375736 l1.92571416497,-1.5858823061 3.73815089464,-4.30453747511 l-8.38252067566,6.23025178909 -2.60537803173,1.01949572563 l-2.49210059643,-6.23025178909 -6.00369691849,-9.51529324055 l-4.19126033783,0.566386505961 -1.01949572563,1.13277301192 l1.81243687868,-0.226554609835 7.24974751472,-3.28504174948 l2.37882331014,-1.69915959239 1.69915959239,-1.81243687868 l-0.679663792253,4.75764662027 -1.4726048708,4.30453747511 m186.712276936,14.4994917512 l-1.5858823061,0.679663792253 -3.73815089464,2.60537803173 l-2.83193260431,1.01949572563 m9.62857067585,-5.21075606346 l-5.09747862816,-1.81243687868 -3.0584871769,-0.679663792253 m0.679663792253,-0.226554609835 l1.01949572563,-3.51159632206 1.69915959239,-2.60537803173 l6.3435292244,-5.66386520863 5.09747862816,-2.49210059643 l2.60537803173,-8.26924324036 0.566386505961,0.226554609835 l0.113277304918,4.98420119286 0.566386505961,2.26554602385 l2.15226873755,1.5858823061 2.71865516901,1.24605029821 l2.49210059643,2.03899145126 1.35932758451,1.92571416497 l2.03899145126,4.30453747511 0.45310921967,1.13277301192 l0.113277304918,2.37882331014 m-30.0184845924,9.17546153069 l1.4726048708,1.81243687868 2.15226873755,0.792941153049 l3.51159632206,-0.226554609835 9.85512554646,-1.92571416497 l6.68336093426,6.45680606365 4.87092405558,6.11697435379 l2.37882331014,3.85142832994 m-1.13277301192,-26.0537791252 l-2.03899145126,3.73815089464 -1.13277301192,2.94520974159 l-0.906218439341,3.73815089464 0.113277304918,2.03899145126 l0.906218439341,1.35932758451 3.28504174948,2.37882331014 l3.85142832994,5.32403349876 1.24605029821,0.679663792253 l0.792941153049,0.0 9.06218409538,-2.03899145126 l2.60537803173,-0.226554609835 8.60907495022,3.39831918478 l8.72235238552,5.66386520863 m-35.7956266403,-2.60537803173 l2.37882331014,6.11697435379 1.13277301192,1.5858823061 l5.66386520863,3.62487375736 1.69915959239,0.45310921967 l7.70285665989,0.45310921967 10.081679821,-3.1717646122 l3.85142832994,-1.69915959239 m-83.4853744507,-2.37882331014 l2.15226873755,0.0 15.2924358845,-2.60537803173 l1.81243687868,1.5858823061 6.3435292244,4.19126033783 l3.51159632206,0.226554609835 11.2144529819,-3.62487375736 l12.007393837,-2.94520974159 m30.9247040749,0.113277304918 l1.35932758451,-0.226554609835 6.00369691849,-4.19126033783 l3.28504174948,-1.69915959239 2.37882331014,-0.566386505961 l9.17546153069,10.3082346916 3.85142832994,0.339831896126 m-52.4473905563,2.83193260431 l0.339831896126,0.679663792253 0.0,4.75764662027 m16.9915950298,-4.64436948299 l0.113277304918,2.71865516901 m-40.1001644135,-44.7445344925 l0.0,1.4726048708 -0.45310921967,0.906218439341 l0.0,-3.28504174948 m3.73815089464,-1.81243687868 l0.0,2.49210059643 -0.792941153049,1.69915959239 l-1.24605029821,-1.69915959239 0.0,-1.24605029821 l-2.94520974159,6.11697435379 0.113277304918,-6.11697435379 l0.906218439341,0.113277304918 0.0,3.1717646122 l-0.339831896126,1.4726048708 0.0,-5.32403349876 l2.03899145126,4.41781491041 0.679663792253,-5.77714264393 m-652.401185036,156.003699005 l-0.45310921967,2.83193260431 2.15226873755,-1.69915959239 l2.26554602385,-1.13277301192 1.13277301192,-0.113277304918 l2.94520974159,0.339831896126 2.94520974159,1.69915959239 l8.15596580505,7.47630178928 3.28504174948,2.49210059643 l5.43731033802,5.89041948318 -2.37882331014,1.35932758451 l-0.906218439341,1.01949572563 0.792941153049,1.69915959239 l0.792941153049,0.792941153049 2.03899145126,1.35932758451 l7.13647007942,2.37882331014 2.37882331014,-0.226554609835 l0.906218439341,9.06218409538 -0.226554609835,2.37882331014 l1.81243687868,0.113277304918 0.226554609835,-0.792941153049 l-0.339831896126,-10.5347895622 0.566386505961,-0.339831896126 l1.13277301192,-0.113277304918 0.339831896126,1.13277301192 l-0.339831896126,3.1717646122 0.339831896126,7.24974751472 l2.03899145126,-0.679663792253 2.71865516901,-0.226554609835 l-1.24605029821,-5.55058777332 0.679663792253,-3.0584871769 l0.566386505961,-0.45310921967 1.81243687868,-0.113277304918 l0.339831896126,0.566386505961 0.906218439341,7.47630178928 l6.23025178909,0.226554609835 0.339831896126,-0.566386505961 l-0.113277304918,-6.00369691849 -1.81243687868,-7.47630178928 l-10.3082346916,-10.081679821 -2.60537803173,-0.906218439341 l-6.90991520882,-0.339831896126 -4.98420119286,-1.24605029821 l-6.3435292244,-6.3435292244 -7.47630178928,-4.98420119286 l-5.32403349876,-2.71865516901 -0.906218439341,-1.01949572563 l-6.79663836956,-1.92571416497 -0.566386505961,0.113277304918 l-0.566386505961,0.566386505961 -2.49210059643,6.3435292244 m30.1317620277,25.600669384 l1.24605029821,7.47630178928 -0.906218439341,3.51159632206 l0.339831896126,-0.679663792253 1.13277301192,0.226554609835 l0.339831896126,-0.566386505961 0.0,-7.47630178928 m-24.1280651093,-9.28873896599 l-3.28504174948,-1.24605029821 -8.72235238552,-2.03899145126 l-5.32403349876,0.792941153049 -3.85142832994,1.69915959239 l-9.17546153069,5.77714264393 -8.38252067566,4.07798290253 l-5.32403349876,1.5858823061 -10.5347895622,0.792941153049 l-9.85512554646,-1.5858823061 -4.41781491041,-1.5858823061 l-0.566386505961,-0.906218439341 0.113277304918,-11.6675627232 m69.2124319077,4.64436948299 l3.96470546722,1.81243687868 2.03899145126,-0.45310921967 m200.98521769,-29.338811636 l-2.03899145126,-1.35932758451 -2.60537803173,-0.566386505961 l-3.39831918478,0.113277304918 -1.69915959239,1.13277301192 l-1.5858823061,2.37882331014 -0.679663792253,2.26554602385 l0.0,6.90991520882 -0.566386505961,0.906218439341 l-1.24605029821,0.792941153049 -5.77714264393,0.906218439341 l-1.92571416497,1.01949572563 -0.113277304918,1.4726048708 l0.339831896126,1.24605029821 1.81243687868,1.81243687868 l1.4726048708,0.566386505961 2.26554602385,0.0 l1.5858823061,-0.45310921967 3.0584871769,-1.69915959239 l1.4726048708,-1.24605029821 3.0584871769,-5.43731033802 l2.49210059643,-2.15226873755 0.566386505961,0.339831896126 l0.566386505961,1.5858823061 -0.45310921967,6.79663836956 l1.35932758451,2.60537803173 4.98420119286,1.35932758451 l2.26554602385,2.60537803173 2.94520974159,1.69915959239 l6.11697435379,1.35932758451 3.51159632206,-0.339831896126 l2.71865516901,-2.60537803173 0.226554609835,-2.71865516901 l1.35932758451,-0.226554609835 8.15596580505,-9.40201640129 l-0.792941153049,-0.339831896126 -3.96470546722,1.5858823061 l-4.64436948299,1.13277301192 -4.75764662027,2.15226873755 l2.49210059643,-3.1717646122 2.03899145126,-1.5858823061 l3.39831918478,-3.73815089464 -0.792941153049,-1.81243687868 l-5.55058777332,2.71865516901 -5.89041948318,2.15226873755 l-3.85142832994,0.226554609835 -6.68336093426,-2.71865516901 l-0.45310921967,-1.13277301192 -0.226554609835,-3.85142832994 l-1.01949572563,-5.55058777332 m4.87092405558,24.6944522858 l-0.113277304918,4.30453747511 -1.24605029821,3.96470546722 l-0.45310921967,4.41781491041 -1.13277301192,3.96470546722 l-0.566386505961,0.113277304918 -0.339831896126,0.566386505961 l4.64436948299,-0.792941153049 2.60537803173,-15.8588218689 m6.57008349895,3.85142832994 l-0.113277304918,3.39831918478 -4.75764662027,12.4605035782 l1.24605029821,0.339831896126 4.98420119286,-0.226554609835 l1.81243687868,-0.226554609835 0.679663792253,-0.566386505961 l-1.92571416497,-11.6675627232 0.679663792253,-4.75764662027 l2.94520974159,-7.02319264412 m-26.2803339958,-16.1986541748 l-0.113277304918,1.24605029821 0.906218439341,0.45310921967 l0.113277304918,-0.566386505961 0.566386505961,-0.339831896126 m6.23025178909,-4.07798290253 l-0.226554609835,1.69915959239 0.906218439341,2.71865516901 l2.94520974159,6.23025178909 -3.73815089464,-9.06218409538 l3.39831918478,7.36302495003 0.566386505961,1.69915959239 l-0.339831896126,-0.226554609835 m1.69915959239,-6.57008349895 l0.0,0.0 m-8.38252067566,15.6322681904 l-1.4726048708,2.71865516901 -3.73815089464,11.1011755466 l4.98420119286,-1.92571416497 m-0.792941153049,1.24605029821 l3.73815089464,-6.11697435379 12.007393837,-12.4605035782 l21.4094090462,-7.58957922459 m190.053949952,7.1931129694 l-2.15226873755,3.0584871769 -0.339831896126,2.03899145126 l0.0,1.01949572563 0.679663792253,1.4726048708 l2.26554602385,2.03899145126 5.89041948318,1.92571416497 l12.5737810135,2.83193260431 3.1717646122,0.0 l2.37882331014,-1.01949572563 -0.226554609835,1.13277301192 l-2.03899145126,2.26554602385 -4.19126033783,1.13277301192 l-0.339831896126,0.566386505961 -0.679663792253,3.39831918478 l-1.35932758451,1.35932758451 -1.4726048708,0.679663792253 l-5.55058777332,0.339831896126 -7.02319264412,-1.01949572563 l-2.15226873755,-0.45310921967 -4.41781491041,-2.37882331014 l-1.69915959239,-1.69915959239 -1.35932758451,-2.26554602385 l-0.339831896126,-1.81243687868 0.0,-4.53109204769 l0.45310921967,-1.4726048708 4.64436948299,-7.70285665989 l0.113277304918,-1.4726048708 -1.01949572563,-2.03899145126 l-3.51159632206,-2.37882331014 0.0,-0.566386505961 l1.5858823061,-1.4726048708 1.92571416497,-0.45310921967 l1.69915959239,2.37882331014 2.71865516901,-0.113277304918 l1.4726048708,1.92571416497 2.60537803173,0.0 l0.0,0.45310921967 -0.679663792253,1.5858823061 l-6.68336093426,4.87092405558 -2.15226873755,3.0584871769 l-0.339831896126,1.35932758451 m-0.906218439341,10.874620676 l-5.21075606346,7.58957922459 -0.566386505961,2.15226873755 m0.906218439341,-3.28504174948 l-3.73815089464,0.566386505961 -4.87092405558,1.81243687868 m9.28873896599,-3.1717646122 l2.94520974159,5.43731033802 m15.0658810139,-8.04268836975 l-0.566386505961,3.0584871769 -0.226554609835,4.19126033783 m-1.01949572563,-2.03899145126 l-1.92571416497,1.01949572563 -3.51159632206,3.1717646122 m6.11697435379,-6.11697435379 l8.15596580505,2.03899145126 m-2.37882331014,-21.2961339951 l-0.113277304918,0.339831896126 m-14.8393261433,9.74184811115 l1.92571416497,-3.62487375736 2.37882331014,-2.49210059643 l5.66386520863,-3.1717646122 m-5.77714264393,9.40201640129 l1.24605029821,-1.24605029821 5.55058777332,-3.39831918478 l13.0268895626,-1.4726048708 12.5737810135,6.68336093426 m-35.0026869774,-6.79663836956 l2.15226873755,-1.5858823061 3.85142832994,-1.24605029821 l9.06218409538,1.92571416497 6.90991520882,20.3899145126 m-18.9173090458,-12.6870584488 l-0.113277304918,-2.94520974159 0.792941153049,-2.37882331014 l4.87092405558,-5.77714264393 5.89041948318,1.01949572563 l2.49210059643,3.28504174948 2.26554602385,21.5226864815 m208.178319335,-2.3788189888 l-3.85142832994,13.4799993038 0.0,1.35932758451 l4.41781491041,-14.4994950294 3.39831918478,-9.62857067585 l1.24605029821,2.03899145126 2.37882331014,5.66386520863 l2.94520974159,11.7808389664 1.4726048708,2.83193260431 l-6.11697435379,-14.1596627235 -0.906218439341,-7.24974751472 l-0.679663792253,-2.26554602385 5.09747862816,1.4726048708 l3.85142832994,-0.226554609835 5.09747862816,-1.92571416497 l3.0584871769,-3.51159632206 0.0,-3.28504174948 l-0.45310921967,-1.13277301192 -1.35932758451,-1.69915959239 l-1.81243687868,-1.01949572563 -2.37882331014,-0.339831896126 l-3.1717646122,0.566386505961 -1.81243687868,0.906218439341 l-3.73815089464,3.28504174948 -1.13277301192,0.0 l-2.37882331014,-2.03899145126 -6.11697435379,-6.68336093426 l-3.0584871769,-1.69915959239 -1.5858823061,-0.226554609835 l-0.792941153049,0.45310921967 -1.13277301192,3.73815089464 l1.01949572563,3.39831918478 1.24605029821,1.4726048708 l2.94520974159,1.92571416497 -0.792941153049,0.226554609835 l-3.0584871769,0.0 -4.87092405558,-3.51159632206 l-0.679663792253,0.339831896126 -0.45310921967,3.28504174948 l0.339831896126,0.566386505961 2.71865516901,2.03899145126 l6.11697435379,2.03899145126 4.41781491041,0.113277304918 l3.62487375736,-0.339831896126 6.3435292244,1.92571416497 m-5.55058777332,-1.4726048708 l2.60537803173,2.15226873755 m-2.94520974159,-2.71865516901 l0.792941153049,3.85142832994 m-0.226554609835,-3.62487375736 l-0.226554609835,0.679663792253 m1.69915959239,-7.24974751472 l1.24605029821,-0.113277304918 m10.081679821,-3.73815089464 l-0.906218439341,2.03899145126 -4.41781491041,3.62487375736 l-4.19126033783,0.45310921967 m13.3667218685,-4.75764662027 l-0.566386505961,1.35932758451 -5.66386520863,5.43731033802 l-6.79663836956,-0.226554609835 m14.6127724648,0.226554609835 l-7.13647007942,2.71865516901 -2.26554602385,0.226554609835 l-7.13647007942,-3.51159632206 m0.679663792253,-3.96470546722 l-0.679663792253,7.13647007942 m-12.9136121273,-14.4994950294 l0.0,3.1717646122 0.679663792253,1.69915959239 l3.51159632206,-3.51159632206 -2.83193260431,-0.45310921967 l-1.5858823061,2.71865516901 m-703.489239812,142.92016685 l-7.81613409519,-1.69915959239 1.13277301192,-0.792941153049 l1.92571416497,-0.45310921967 8.94890666008,-1.35932758451 l-0.226554609835,-2.37882331014 1.81243687868,-6.23025178909 l0.792941153049,-1.35932758451 3.28504174948,-2.37882331014 l3.1717646122,-0.792941153049 7.36302495003,-1.01949572563 l10.5347895622,-0.113277304918 2.60537803173,0.339831896126 l4.07798290253,1.24605029821 4.53109204769,2.71865516901 l0.226554609835,4.19126033783 -0.566386505961,2.37882331014 l-2.03899145126,5.21075606346 -2.71865516901,2.26554602385 l-4.75764662027,2.15226873755 -5.43731033802,1.81243687868 l7.81613409519,6.90991520882 3.73815089464,2.83193260431 l4.87092405558,2.94520974159 4.30453747511,2.03899145126 l14.4994950294,5.09747862816 6.00369691849,1.5858823061 l7.36302495003,0.339831896126 4.30453747511,0.566386505961 l-1.81243687868,1.35932758451 -4.53109204769,1.69915959239 l-4.75764662027,0.792941153049 -18.9173090458,-0.113277304918 l-8.38252067566,-1.24605029821 -0.45310921967,4.98420119286 l0.0,8.94890666008 -0.566386505961,0.45310921967 l-0.679663792253,-0.113277304918 -1.69915959239,-3.73815089464 l-1.4726048708,-5.77714264393 0.0,-1.24605029821 l-1.01949572563,-2.26554602385 -1.4726048708,3.1717646122 l-1.35932758451,9.40201640129 -1.35932758451,-2.49210059643 l-1.01949572563,-5.55058777332 0.0,-2.49210059643 l-0.45310921967,-0.566386505961 -7.58957922459,-3.28504174948 l-6.00369691849,-2.15226873755 -2.49210059643,-1.4726048708 l-8.15596580505,-15.2924358845 -1.01949572563,-5.21075606346 l-3.28504174948,-2.94520974159 -1.81243687868,-0.679663792253 m19.370418787,-16.5384864807 l-2.83193260431,3.85142832994 -0.45310921967,1.4726048708 l0.0,1.81243687868 0.906218439341,0.906218439341 l0.566386505961,0.226554609835 1.01949572563,-1.01949572563 l0.566386505961,-1.01949572563 0.226554609835,-2.60537803173 l-0.566386505961,-1.13277301192 -1.13277301192,-0.113277304918 m-6.79663836956,-2.60537803173 l0.339831896126,-0.906218439341 2.26554602385,-2.71865516901 l3.28504174948,-2.94520974159 8.26924324036,-3.62487375736 m-5.43731033802,7.13647007942 l10.081679821,-2.60537803173 6.45680606365,-1.01949572563 m-2.83193260431,4.19126033783 l0.566386505961,0.339831896126 4.30453747511,-0.113277304918 l5.89041948318,-1.01949572563 3.39831918478,-1.13277301192 m-3.39831918478,8.60907495022 l1.35932758451,-0.339831896126 0.679663792253,-0.792941153049 l1.81243687868,-3.51159632206 m-51.6544485092,15.8588218689 l1.69915959239,2.03899145126 4.53109204769,1.13277301192 m3.96470546722,-5.55058777332 l0.566386505961,-0.113277304918 4.75764662027,2.71865516901 l3.51159632206,-2.60537803173 4.41781491041,-0.906218439341 m239.72604692,-2.09562957287 l-0.566386505961,-1.24605029821 -6.45680606365,-6.00369691849 l-0.45310921967,0.566386505961 0.0,8.83562982082 l-0.566386505961,-0.339831896126 -4.75764662027,0.113277304918 l-1.35932758451,0.906218439341 -2.83193260431,3.51159632206 l-4.53109204769,7.81613409519 -0.792941153049,5.55058777332 l0.679663792253,1.24605029821 0.566386505961,0.0 l1.01949572563,-1.01949572563 4.87092405558,-0.226554609835 l3.1717646122,0.45310921967 5.66386520863,2.26554602385 l3.51159632206,0.792941153049 7.47630178928,0.113277304918 l7.13647007942,-0.566386505961 9.28873896599,0.0 l3.0584871769,0.566386505961 3.51159632206,1.4726048708 l0.339831896126,0.792941153049 -1.4726048708,10.7613432407 m-26.2803339958,-14.1596627235 l1.13277301192,8.60907495022 0.0,3.85142832994 l-0.339831896126,1.4726048708 m-7.02319264412,-14.0463852882 l0.226554609835,5.66386520863 -0.339831896126,7.81613409519 m39.8736095428,-10.5347895622 l-1.81243687868,12.3472261429 m0.45310921967,-12.3472261429 l0.45310921967,-0.679663792253 0.226554609835,-5.32403349876 l-1.69915959239,-6.3435292244 0.339831896126,-0.792941153049 l1.35932758451,-0.339831896126 2.03899145126,0.566386505961 l0.566386505961,0.792941153049 1.35932758451,2.83193260431 l2.15226873755,8.49579751492 1.13277301192,-4.19126033783 l0.679663792253,-6.57008349895 -0.226554609835,-4.41781491041 l-2.26554602385,-6.68336093426 -0.679663792253,-0.792941153049 l-2.71865516901,-0.226554609835 -8.60907495022,3.0584871769 l-3.62487375736,2.37882331014 -0.792941153049,0.113277304918 l-3.85142832994,-2.94520974159 -4.19126033783,-1.24605029821 l-14.0463852882,0.0 -1.35932758451,-3.85142832994 m-9.85512554646,6.3435292244 l1.24605029821,4.75764662027 -0.113277304918,0.566386505961 l-0.339831896126,-0.679663792253 -1.4726048708,-4.64436948299 l0.792941153049,5.09747862816 -0.45310921967,-1.13277301192 l-0.339831896126,-3.39831918478 0.113277304918,1.24605029821 l0.906218439341,2.37882331014 m-0.792941153049,-7.36302495003 l2.03899145126,1.5858823061 1.01949572563,1.4726048708 m-3.73815089464,1.92571416497 l0.45310921967,3.73815089464 -0.226554609835,-3.28504174948 m-0.339831896126,7.47630178928 l-8.83562982082,3.96470546722 -0.45310921967,1.24605029821 m254.565383941,-7.13646322489 l-1.13277301192,-4.87092405558 -3.39831918478,-10.5347895622 l-0.45310921967,-0.339831896126 -0.906218439341,0.0 l-3.51159632206,1.81243687868 -2.37882331014,0.566386505961 l0.226554609835,-1.81243687868 2.83193260431,-2.37882331014 l-3.1717646122,-0.792941153049 -3.1717646122,0.0 l4.75764662027,-2.49210059643 0.906218439341,-0.113277304918 l0.0,-3.51159632206 0.339831896126,-2.03899145126 l1.4726048708,-1.01949572563 2.03899145126,-0.226554609835 l4.07798290253,1.5858823061 2.15226873755,2.60537803173 l0.226554609835,1.5858823061 -0.113277304918,5.55058777332 l0.566386505961,2.94520974159 4.87092405558,12.6870584488 l1.01949572563,0.0 4.87092405558,-1.5858823061 l8.04268836975,0.339831896126 2.26554602385,0.45310921967 l1.4726048708,0.679663792253 2.26554602385,2.37882331014 l3.62487375736,2.94520974159 5.55058777332,-1.81243687868 l-2.71865516901,5.32403349876 m-34.2097449303,-6.79663836956 l0.792941153049,1.92571416497 1.24605029821,8.38252067566 l-0.226554609835,11.2144529819 1.13277301192,-5.55058777332 l1.92571416497,4.19126033783 0.906218439341,0.679663792253 l0.906218439341,-0.906218439341 0.566386505961,-1.13277301192 l1.5858823061,-6.68336093426 1.13277301192,5.32403349876 l0.679663792253,1.81243687868 2.15226873755,3.73815089464 l0.45310921967,0.45310921967 0.45310921967,-0.113277304918 l0.566386505961,-1.01949572563 0.792941153049,-3.51159632206 l0.792941153049,-8.04268836975 3.96470546722,10.3082346916 l2.03899145126,1.81243687868 0.906218439341,0.113277304918 l1.01949572563,-1.5858823061 1.13277301192,-9.17546153069 l0.45310921967,-1.35932758451 1.13277301192,-0.679663792253 l2.60537803173,-0.679663792253 3.39831918478,-1.92571416497 m-96.512260437,1.5858823061 l1.5858823061,-0.339831896126 6.57008349895,-3.1717646122 l3.0584871769,-0.792941153049 2.49210059643,0.113277304918 l7.36302495003,3.51159632206 1.4726048708,0.45310921967 l2.15226873755,0.113277304918 2.94520974159,-0.679663792253 l7.47630178928,-3.0584871769 3.39831918478,-0.339831896126 l11.2144529819,3.62487375736 7.92941093445,1.5858823061 l6.3435292244,2.15226873755 5.77714264393,-0.792941153049 l16.1986541748,-0.339831896126 5.21075606346,0.45310921967 l12.4605035782,2.03899145126 6.45680606365,0.45310921967 l22.9952931404,-1.4726048708 m-77.481675148,-38.5142827034 l0.0,1.13277301192 m-3.28504174948,12.4605035782 l-1.69915959239,0.679663792253 -3.0584871769,3.0584871769 l-6.11697435379,7.02319264412 -1.92571416497,3.0584871769 m-6.11697435379,15.6322681904 l0.113277304918,-0.45310921967 2.49210059643,-1.4726048708 m192.999161333,-4.19126480818 l0.0,0.0 m0.0,0.226554609835 l0.0,0.0 m87.7899074554,-7.24974751472 l1.24605029821,-8.72235238552 -1.13277301192,-6.11697435379 l-0.906218439341,-2.94520974159 0.0,-2.71865516901 m3.73815089464,20.2766370773 l1.81243687868,-5.55058777332 0.226554609835,-2.83193260431 l-1.35932758451,-4.64436948299 -1.4726048708,-7.70285665989 l-0.113277304918,-2.94520974159 -0.566386505961,-1.24605029821 l-1.24605029821,-1.69915959239 -1.24605029821,-0.679663792253 l-2.37882331014,0.226554609835 -1.13277301192,1.69915959239 l-0.226554609835,3.39831918478 -2.94520974159,1.81243687868 l0.566386505961,0.45310921967 2.83193260431,0.0 l2.71865516901,-0.792941153049 m-1.35932758451,-2.94520974159 l1.01949572563,-0.906218439341 m5.77714264393,23.7882328033 l2.26554602385,-1.13277301192 3.85142832994,-3.51159632206 l5.09747862816,-1.81243687868 10.6480669975,-0.566386505961 l5.77714264393,1.24605029821 2.26554602385,0.0 l2.94520974159,-0.45310921967 2.83193260431,-1.4726048708 l-0.906218439341,4.53109204769 -1.81243687868,3.96470546722 l-2.49210059643,1.92571416497 -2.83193260431,1.01949572563 l-9.62857067585,0.339831896126 -2.03899145126,0.339831896126 l-5.55058777332,2.37882331014 -4.53109204769,0.45310921967 l-4.41781491041,-0.792941153049 -3.51159632206,-2.15226873755 l-1.01949572563,-1.13277301192 -0.339831896126,-2.37882331014 m12.2339487076,3.62487375736 l1.01949572563,5.32403349876 0.906218439341,13.5932767391 m0.113277304918,-0.906218439341 l-2.37882331014,0.906218439341 m-3.96470546722,-15.7455456257 l1.81243687868,5.77714264393 0.792941153049,4.53109204769 l0.0,2.49210059643 -1.35932758451,1.5858823061 m14.8393261433,-16.9915950298 l0.566386505961,4.75764662027 -0.566386505961,8.38252067566 l-0.113277304918,0.566386505961 -1.92571416497,2.26554602385 l-0.339831896126,1.13277301192 m5.89041948318,-15.8588218689 l1.13277301192,2.15226873755 1.69915959239,7.13647007942 l0.339831896126,6.11697435379 -1.69915959239,2.83193260431 m-14.4994950294,-24.014787674 l0.679663792253,0.339831896126 1.81243687868,-0.45310921967 l2.71865516901,-2.37882331014 0.792941153049,-0.113277304918 l3.0584871769,1.5858823061 2.37882331014,0.113277304918 l3.62487375736,-1.35932758451 2.26554602385,-2.03899145126 m-21.7492413521,25.8272242546 l-2.15226873755,1.24605029821 -1.92571416497,0.0 m-699.864382148,113.694627285 l-4.64436948299,-1.13277301192 -5.77714264393,-0.113277304918 l-3.1717646122,0.339831896126 -3.1717646122,0.679663792253 l-3.51159632206,1.35932758451 -3.85142832994,2.26554602385 l-0.45310921967,0.566386505961 0.226554609835,1.69915959239 l2.71865516901,2.49210059643 3.62487375736,1.5858823061 l7.24974751472,1.24605029821 5.43731033802,0.0 l3.0584871769,-0.566386505961 10.1949572563,-3.96470546722 l1.35932758451,-1.5858823061 -0.45310921967,-1.13277301192 l-1.35932758451,-1.69915959239 -3.39831918478,-1.5858823061 l-6.23025178909,-1.13277301192 -4.41781491041,0.226554609835 m-13.8198304176,8.38252067566 l-2.71865516901,4.75764662027 -3.1717646122,4.53109204769 l-3.39831918478,4.07798290253 -2.60537803173,2.37882331014 l-4.53109204769,2.71865516901 m37.154955864,-16.5384864807 l4.07798290253,6.68336093426 3.28504174948,4.30453747511 l3.85142832994,4.07798290253 1.92571416497,1.5858823061 l1.13277301192,0.45310921967 m-9.96840238571,-27.1865534782 l1.81243687868,-1.4726048708 2.94520974159,-3.28504174948 l4.75764662027,-7.81613409519 10.874620676,-24.6944522858 l2.26554602385,-1.69915959239 3.39831918478,-1.81243687868 l2.26554602385,0.226554609835 1.92571416497,0.679663792253 l2.26554602385,1.5858823061 0.679663792253,1.13277301192 l0.339831896126,2.83193260431 0.0,0.566386505961 l-0.566386505961,0.45310921967 -2.37882331014,-0.226554609835 l-3.51159632206,-2.49210059643 -3.62487375736,1.5858823061 l-1.01949572563,0.906218439341 -9.96840238571,20.163359642 l-8.49579751492,13.1401669979 -1.92571416497,2.26554602385 m29.7919297218,-35.7956266403 l4.41781491041,7.36302495003 1.81243687868,2.37882331014 l-2.15226873755,-4.75764662027 -3.28504174948,-5.66386520863 m-60.9431886673,48.7092399597 l-3.1717646122,4.07798290253 -5.55058777332,5.32403349876 l-5.21075606346,7.24974751472 -6.00369691849,6.23025178909 l-6.3435292244,8.60907495022 -10.4215121269,12.007393837 l-2.94520974159,3.0584871769 -0.113277304918,-0.566386505961 l0.566386505961,-1.24605029821 m61.0564661026,-48.822517395 l4.19126033783,5.32403349876 15.6322681904,24.014787674 l10.4215121269,15.5189907551 4.87092405558,6.57008349895 m-44.9710893631,-50.7482337952 l-0.113277304918,1.92571416497 -3.1717646122,11.5542852879 l-3.39831918478,9.40201640129 -2.60537803173,6.45680606365 l-4.64436948299,9.40201640129 -4.30453747511,11.3277304173 l-0.906218439341,1.92571416497 0.113277304918,-1.81243687868 m24.1280651093,-48.4826850891 l2.26554602385,6.23025178909 6.45680606365,23.221848011 l4.87092405558,14.3862175941 1.13277301192,2.49210059643 m-7.92941093445,-48.9357948303 l2.49210059643,1.92571416497 1.5858823061,2.03899145126 m206.705709696,-13.1968021393 l-1.81243687868,-1.13277301192 -1.92571416497,0.113277304918 l-3.96470546722,1.35932758451 -1.5858823061,1.01949572563 l-2.49210059643,4.41781491041 -0.339831896126,1.24605029821 l-0.339831896126,2.60537803173 0.113277304918,6.00369691849 l1.35932758451,5.55058777332 0.906218439341,6.90991520882 l0.566386505961,0.339831896126 8.83562982082,-0.226554609835 l0.792941153049,-1.13277301192 1.13277301192,-0.339831896126 l0.113277304918,3.0584871769 1.13277301192,4.75764662027 l2.71865516901,6.90991520882 0.792941153049,3.0584871769 l0.566386505961,0.113277304918 3.0584871769,-2.03899145126 l0.792941153049,-4.87092405558 -4.19126033783,-17.1048724651 l2.49210059643,4.87092405558 6.3435292244,14.4994950294 l0.679663792253,0.45310921967 0.792941153049,-0.339831896126 l0.906218439341,-1.13277301192 3.51159632206,-6.57008349895 l0.339831896126,-1.4726048708 -1.4726048708,-0.566386505961 l-1.4726048708,-2.03899145126 -3.39831918478,-8.04268836975 l-3.85142832994,-15.6322681904 -0.906218439341,-1.81243687868 m-8.49579751492,-3.0584871769 l0.339831896126,-4.19126033783 1.5858823061,-6.3435292244 l2.71865516901,-3.39831918478 5.21075606346,-7.70285665989 l1.35932758451,-1.01949572563 1.24605029821,-0.45310921967 l2.49210059643,0.226554609835 2.49210059643,1.13277301192 l5.09747862816,3.96470546722 1.13277301192,8.49579751492 l-6.23025178909,4.19126033783 -2.03899145126,0.45310921967 l-2.49210059643,-0.226554609835 -2.94520974159,-2.15226873755 l-1.81243687868,-2.15226873755 -2.26554602385,-5.32403349876 m2.03899145126,-5.09747862816 l-0.792941153049,-0.792941153049 0.0,-2.94520974159 l5.43731033802,3.28504174948 4.07798290253,-3.28504174948 l1.01949572563,-0.339831896126 3.1717646122,-0.113277304918 l0.566386505961,2.03899145126 0.0,4.19126033783 l-0.226554609835,-0.339831896126 m-10.5347895622,11.7808389664 l-1.81243687868,4.30453747511 -0.679663792253,2.60537803173 l-0.226554609835,4.53109204769 m-16.3119316101,1.13277301192 l-0.339831896126,15.2924358845 0.792941153049,2.37882331014 l4.19126033783,-7.81613409519 4.53109204769,-13.0268895626 l0.45310921967,-0.792941153049 0.45310921967,0.792941153049 l-0.113277304918,3.85142832994 -1.24605029821,10.3082346916 l0.113277304918,5.09747862816 -1.01949572563,-5.09747862816 l-0.339831896126,-8.94890666008 0.339831896126,-2.49210059643 l1.92571416497,-6.23025178909 m213.672266304,0.169917941093 l6.79663836956,-0.566386505961 21.0695791245,0.0 l0.339831896126,0.679663792253 0.113277304918,3.96470546722 l-1.5858823061,1.69915959239 -7.92941093445,0.0 l1.5858823061,1.81243687868 1.81243687868,1.01949572563 l4.53109204769,1.4726048708 3.85142832994,0.679663792253 l2.26554602385,0.0 -8.60907495022,-0.226554609835 l-0.679663792253,-0.45310921967 -2.71865516901,-0.45310921967 l-2.15226873755,-1.4726048708 -4.07798290253,-1.4726048708 l-2.37882331014,0.566386505961 -14.4994950294,0.0 m24.4678974152,-6.23025178909 l0.0,0.0 m-23.1085705757,-2.94520974159 l-4.07798290253,-2.71865516901 -10.4215121269,-10.6480669975 l-1.35932758451,-0.906218439341 -0.792941153049,-0.113277304918 l-0.339831896126,0.792941153049 0.226554609835,4.07798290253 l2.49210059643,3.39831918478 2.03899145126,4.07798290253 l3.1717646122,4.30453747511 1.4726048708,2.71865516901 m9.17546153069,5.09747862816 l-1.35932758451,0.0 -1.92571416497,0.566386505961 l-4.19126033783,2.03899145126 -1.81243687868,1.01949572563 l-3.51159632206,3.51159632206 -0.566386505961,2.26554602385 l-0.226554609835,6.90991520882 -0.226554609835,-0.566386505961 l-1.24605029821,-0.339831896126 -1.4726048708,0.339831896126 l-3.51159632206,0.0 -0.113277304918,-0.679663792253 l2.49210059643,-5.89041948318 2.03899145126,-3.1717646122 l0.906218439341,-0.679663792253 1.81243687868,-3.1717646122 l3.73815089464,-4.75764662027 1.24605029821,-0.679663792253 l1.4726048708,-0.226554609835 0.45310921967,-0.45310921967 m13.9331078529,-5.89041948318 l2.49210059643,-3.1717646122 4.75764662027,-4.53109204769 l4.07798290253,-4.53109204769 0.45310921967,4.87092405558 l-2.49210059643,3.73815089464 -2.26554602385,2.49210059643 m-29.6786522865,17.444704771 l-0.679663792253,7.70285665989 m61.3962984085,-5.21075606346 l2.26554602385,0.0 2.03899145126,-0.45310921967 l2.03899145126,-0.906218439341 5.66386520863,-1.13277301192 l1.81243687868,-0.906218439341 3.39831918478,0.0 l2.26554602385,-0.45310921967 0.0,15.8588218689 l-14.4994950294,0.226554609835 -0.45310921967,-0.45310921967 m9.06218409538,-10.7613432407 l0.0,4.07798290253 -0.906218439341,1.01949572563 m-8.94890666008,5.66386520863 l-18.9173090458,0.45310921967 -1.92571416497,1.01949572563 l-0.113277304918,1.24605029821 -0.45310921967,0.679663792253 l-3.0584871769,0.906218439341 -1.81243687868,1.81243687868 l-0.339831896126,0.679663792253 0.0,2.49210059643 l0.679663792253,0.45310921967 m220.015796721,-49.9552881718 l0.792941153049,-1.13277301192 3.51159632206,-3.0584871769 l9.40201640129,-6.23025178909 3.96470546722,-2.15226873755 l5.55058777332,-2.03899145126 2.15226873755,-0.226554609835 l-2.94520974159,6.79663836956 -2.26554602385,3.51159632206 l-4.07798290253,5.09747862816 -4.87092405558,4.07798290253 l-4.07798290253,4.07798290253 m-10.1949572563,-22.5421833992 l-3.96470546722,-2.26554602385 -3.28504174948,0.113277304918 l-3.51159632206,2.26554602385 -1.35932758451,1.81243687868 l-1.01949572563,2.15226873755 -0.45310921967,2.03899145126 l1.92571416497,6.00369691849 2.60537803173,1.5858823061 l2.03899145126,0.45310921967 3.73815089464,0.113277304918 l4.07798290253,-2.83193260431 1.35932758451,-12.9136121273 l-5.09747862816,-2.37882331014 -2.49210059643,0.113277304918 l-1.13277301192,0.679663792253 m-4.87092405558,15.5189907551 l1.24605029821,9.74184811115 0.0,8.38252067566 l-0.906218439341,9.51529324055 -0.566386505961,-0.113277304918 l-4.64436948299,5.32403349876 -8.26924324036,11.5542852879 l-2.03899145126,3.39831918478 0.566386505961,0.113277304918 l9.74184811115,8.60907495022 7.81613409519,6.3435292244 l-3.85142832994,-4.19126033783 -6.23025178909,-9.74184811115 l-2.26554602385,-2.60537803173 6.45680606365,-4.75764662027 l6.68336093426,-6.23025178909 4.53109204769,-4.87092405558 l7.92941093445,22.6554608345 1.81243687868,4.19126033783 l12.3472261429,-5.89041948318 2.03899145126,-1.35932758451 l-5.77714264393,-5.89041948318 -9.40201640129,-13.5932767391 l-5.77714264393,-6.3435292244 0.566386505961,0.0 l1.24605029821,-1.35932758451 2.49210059643,-3.85142832994 l4.07798290253,-8.04268836975 " fill="none" stroke="black" stroke-width="1" /></svg>