<?xml version="1.0" encoding="utf-8" ?>
<svg baseProfile="full" height="312.438134532" version="1.1" width="849.90386067" xmlns="http://www.w3.org/2000/svg" xmlns:ev="http://www.w3.org/2001/xml-events" xmlns:xlink="http://www.w3.org/1999/xlink"><defs /><rect fill="none" height="312.438134532" width="849.90386067" x="0" y="0" /><path d="M25,25 m0.0,0.0 m104.683869481,85.8746218681 l-0.566386505961,16.9915950298 1.4726048708,4.41781491041 l1.01949572563,1.92571416497 1.4726048708,1.13277301192 l4.64436948299,0.906218439341 3.51159632206,-0.226554609835 l0.906218439341,-1.35932758451 0.566386505961,-1.81243687868 l0.566386505961,-4.30453747511 -0.113277304918,-17.784537077 l-0.679663792253,-0.679663792253 -1.69915959239,-0.339831896126 l-5.89041948318,0.0 -1.92571416497,0.226554609835 l-3.62487375736,1.24605029821 m2.94520974159,0.0 l-1.81243687868,9.62857067585 -0.566386505961,10.5347895622 m5.77714264393,-22.3156285286 l-2.37882331014,10.874620676 -0.226554609835,13.9331078529 m4.53109204769,-22.4289059639 l-1.35932758451,11.2144529819 0.0,12.9136121273 m3.39831918478,-23.674955368 l-0.226554609835,20.163359642 m-11.6675627232,-16.9915950298 l9.62857067585,-0.339831896126 4.30453747511,-0.792941153049 m-10.3082346916,6.79663836956 l10.4215121269,-2.94520974159 m-11.4410078526,7.81613409519 l12.5737810135,-4.64436948299 m-10.9878981113,5.89041948318 l6.00369691849,-2.26554602385 2.94520974159,-0.566386505961 m-9.40201640129,5.43731033802 l8.04268836975,-1.01949572563 m-4.64436948299,3.73815089464 l8.49579751492,-3.0584871769 m-7.13647007942,2.83193260431 l1.5858823061,-1.13277301192 m-7.13647007942,-20.5031919479 l-1.92571416497,-3.96470546722 -2.26554602385,-3.1717646122 l-0.113277304918,-3.0584871769 0.906218439341,-1.35932758451 l0.566386505961,0.679663792253 0.113277304918,1.24605029821 l2.03899145126,4.30453747511 2.71865516901,3.62487375736 l0.226554609835,-2.60537803173 1.69915959239,-5.66386520863 l1.13277301192,-2.03899145126 0.679663792253,-0.566386505961 l0.339831896126,1.35932758451 -0.679663792253,3.96470546722 l-1.5858823061,5.66386520863 5.09747862816,-9.06218409538 l0.113277304918,0.906218439341 -2.26554602385,7.02319264412 l4.98420119286,-5.66386520863 m2.15226873755,-2.60537803173 l0.226554609835,1.4726048708 -0.339831896126,1.35932758451 l-3.39831918478,8.49579751492 0.339831896126,-0.906218439341 l2.71865516901,-2.49210059643 2.94520974159,-2.03899145126 l1.24605029821,-0.339831896126 -0.113277304918,0.792941153049 l-3.96470546722,6.00369691849 -0.792941153049,0.566386505961 m-14.4994950294,-1.13277301192 l-0.566386505961,-0.45310921967 -2.94520974159,0.0 l1.5858823061,0.339831896126 3.73815089464,0.0 m223.697312176,-30.9813460335 l-0.792941153049,3.1717646122 -0.113277304918,3.1717646122 l0.226554609835,3.51159632206 0.792941153049,1.69915959239 l2.15226873755,0.339831896126 0.566386505961,-0.339831896126 l1.24605029821,-4.53109204769 0.0,-2.94520974159 l-0.792941153049,-2.94520974159 -0.679663792253,-1.4726048708 l-0.566386505961,-0.339831896126 -0.45310921967,0.113277304918 l-0.226554609835,0.792941153049 m1.35932758451,12.6870584488 l1.01949572563,18.1243681908 -0.226554609835,10.3082346916 l0.45310921967,7.92941093445 m-1.13277301192,-20.3899145126 l-4.53109204769,3.62487375736 -1.13277301192,1.4726048708 l3.28504174948,-0.113277304918 0.0,1.35932758451 l-1.01949572563,3.96470546722 5.21075606346,-0.906218439341 l2.60537803173,0.679663792253 2.83193260431,-0.113277304918 l1.5858823061,-0.906218439341 0.792941153049,-1.01949572563 l0.339831896126,-1.5858823061 -0.792941153049,-1.92571416497 l-7.24974751472,-3.85142832994 m-13.8198304176,-32.2840309143 l-0.679663792253,1.35932758451 -0.792941153049,6.3435292244 l0.0,3.51159632206 0.45310921967,1.81243687868 l1.92571416497,1.92571416497 2.15226873755,0.0 l1.01949572563,-1.13277301192 1.13277301192,-2.03899145126 l0.679663792253,-3.85142832994 -0.566386505961,-4.07798290253 l-0.566386505961,-1.35932758451 -1.5858823061,-1.01949572563 m-1.69915959239,13.0268895626 l-0.339831896126,4.98420119286 -0.113277304918,10.874620676 l0.679663792253,8.49579751492 0.113277304918,4.53109204769 l-0.226554609835,1.35932758451 0.226554609835,1.24605029821 m11.8941164017,-28.8857126236 l-1.4726048708,1.24605029821 -1.13277301192,3.62487375736 l-4.19126033783,4.64436948299 m-7.92941093445,-10.9878981113 l1.13277301192,0.906218439341 0.45310921967,1.13277301192 l4.41781491041,4.98420119286 1.35932758451,2.15226873755 l3.0584871769,2.49210059643 m-8.38252067566,21.4094090462 l-2.60537803173,5.43731033802 m3.96470546722,-3.28504174948 l0.679663792253,4.30453747511 m10.6480669975,-2.37882331014 l-1.35932758451,1.13277301192 -2.15226873755,3.51159632206 m3.62487375736,-2.83193260431 l0.679663792253,3.73815089464 m12.1206712723,-63.208732605 l-1.35932758451,6.45680606365 m8.15596580505,-4.87092405558 l-2.37882331014,9.40201640129 m-6.68336093426,-1.81243687868 l-4.30453747511,-1.81243687868 0.0,1.01949572563 l1.5858823061,0.906218439341 5.21075606346,0.226554609835 m2.03899145126,3.62487375736 l-2.15226873755,-0.113277304918 1.35932758451,0.45310921967 l1.24605029821,-0.339831896126 m-5.32403349876,-14.8393261433 l1.5858823061,1.24605029821 4.41781491041,1.13277301192 l4.07798290253,1.69915959239 m198.209910393,25.7139438391 l-0.113277304918,8.94890666008 -0.45310921967,4.07798290253 l-1.35932758451,4.53109204769 -1.92571416497,2.49210059643 l-0.792941153049,3.96470546722 -1.92571416497,3.62487375736 l4.75764662027,1.01949572563 7.13647007942,0.0 l5.32403349876,1.01949572563 0.0,-14.1596627235 l-0.792941153049,-8.26924324036 -0.113277304918,-7.36302495003 m-2.71865516901,1.24605029821 l3.0584871769,6.79663836956 2.37882331014,0.0 l1.5858823061,1.69915959239 1.24605029821,0.45310921967 l6.00369691849,-0.679663792253 m0.339831896126,-0.45310921967 l0.566386505961,-2.37882331014 0.566386505961,-0.113277304918 l1.92571416497,0.226554609835 0.906218439341,2.03899145126 l-0.226554609835,1.92571416497 -1.13277301192,0.566386505961 l-2.94520974159,-2.03899145126 0.113277304918,-1.4726048708 m-10.9878981113,-7.47630178928 l-2.15226873755,-3.62487375736 0.113277304918,-0.679663792253 l-0.679663792253,-0.566386505961 m-9.74184811115,32.7371406555 l-0.906218439341,4.98420119286 -1.13277301192,3.73815089464 l0.113277304918,-1.35932758451 m9.40201640129,-7.47630178928 l0.226554609835,1.4726048708 -0.679663792253,8.15596580505 l1.24605029821,-1.81243687868 0.113277304918,-0.792941153049 m-7.58957922459,-37.154955864 l1.35932758451,-2.03899145126 3.28504174948,-1.69915959239 l0.679663792253,-0.679663792253 -0.113277304918,-1.4726048708 l-0.906218439341,-1.24605029821 -0.45310921967,-2.71865516901 l0.0,-2.37882331014 0.906218439341,-1.69915959239 l4.53109204769,-3.96470546722 2.83193260431,-0.679663792253 l0.566386505961,0.0 0.679663792253,0.679663792253 l0.226554609835,0.906218439341 -0.226554609835,6.45680606365 l-0.566386505961,2.03899145126 -0.566386505961,0.45310921967 l-3.73815089464,0.906218439341 0.0,5.43731033802 l0.792941153049,1.4726048708 m-4.53109204769,-12.5737810135 l-6.68336093426,9.06218409538 -2.71865516901,5.32403349876 l-0.45310921967,2.03899145126 -1.81243687868,3.39831918478 l-0.679663792253,2.94520974159 1.4726048708,-4.41781491041 l0.226554609835,-3.1717646122 2.83193260431,-8.04268836975 l1.4726048708,-2.83193260431 1.92571416497,-2.49210059643 l3.0584871769,-2.94520974159 2.71865516901,-1.35932758451 l4.30453747511,-0.339831896126 2.26554602385,-0.679663792253 l0.113277304918,0.45310921967 m4.30453747511,16.5384864807 l0.113277304918,19.2571413517 -0.226554609835,3.96470546722 l-0.45310921967,1.35932758451 -0.226554609835,5.77714264393 l0.679663792253,-0.339831896126 2.37882331014,-0.113277304918 l3.1717646122,-1.24605029821 0.792941153049,1.13277301192 l0.679663792253,0.226554609835 1.92571416497,-0.566386505961 l0.339831896126,-0.566386505961 2.15226873755,-1.24605029821 l0.906218439341,-1.81243687868 -0.339831896126,-12.2339487076 m199.342690706,-21.6926026344 l-0.339831896126,1.81243687868 -1.13277301192,2.15226873755 l-1.69915959239,6.79663836956 -2.03899145126,15.1791584492 l-0.226554609835,6.79663836956 0.226554609835,0.566386505961 l3.62487375736,0.0 7.47630178928,1.01949572563 l2.49210059643,0.0 1.4726048708,-0.566386505961 l3.0584871769,-2.03899145126 1.24605029821,-0.45310921967 l1.69915959239,-1.5858823061 0.0,-14.1596627235 l-4.30453747511,-14.8393261433 m-7.13647007942,8.04268836975 l1.13277301192,-4.19126033783 0.679663792253,-5.09747862816 l2.71865516901,-5.55058777332 2.03899145126,-2.26554602385 l4.30453747511,-2.60537803173 4.53109204769,-1.5858823061 m-13.3667218685,21.5226864815 l1.81243687868,-9.17546153069 1.35932758451,-3.39831918478 l1.5858823061,-2.26554602385 1.13277301192,-0.906218439341 l5.66386520863,-3.39831918478 2.03899145126,-0.339831896126 m-22.3156285286,17.3314273357 l0.0,0.0 m0.792941153049,0.566386505961 l0.566386505961,0.0 3.0584871769,-1.81243687868 l2.83193260431,0.113277304918 m1.81243687868,-0.226554609835 l0.45310921967,0.226554609835 m2.15226873755,-0.45310921967 l0.0,0.679663792253 0.566386505961,0.226554609835 l1.35932758451,-0.679663792253 m0.339831896126,-0.113277304918 l0.566386505961,0.566386505961 m0.113277304918,0.113277304918 l0.0,0.0 m-5.55058777332,0.0 l4.19126033783,-0.113277304918 m-9.06218409538,5.77714264393 l1.13277301192,-0.679663792253 2.60537803173,1.92571416497 m-4.87092405558,2.26554602385 l5.77714264393,1.5858823061 4.53109204769,0.0 m-1.92571416497,-6.23025178909 l3.28504174948,3.1717646122 1.4726048708,0.113277304918 m-15.7455456257,6.23025178909 l2.49210059643,2.60537803173 3.73815089464,1.4726048708 l1.13277301192,-0.113277304918 4.30453747511,-2.03899145126 l4.98420119286,2.49210059643 m-17.6712596416,0.906218439341 l1.13277301192,0.0 2.03899145126,2.15226873755 l1.24605029821,0.113277304918 1.24605029821,-0.45310921967 m5.21075606346,-0.113277304918 l0.45310921967,1.92571416497 0.566386505961,0.45310921967 l0.792941153049,0.0 m-9.62857067585,1.35932758451 l0.0,0.0 m4.41781491041,-0.566386505961 l0.566386505961,1.81243687868 m2.49210059643,0.45310921967 l0.226554609835,0.113277304918 m-11.8941164017,-20.7297468185 l0.679663792253,0.906218439341 m3.73815089464,-1.24605029821 l2.60537803173,3.51159632206 m3.96470546722,0.0 l0.45310921967,1.81243687868 1.4726048708,2.49210059643 m-692.897818089,158.042684793 l1.81243687868,-1.24605029821 0.45310921967,-1.24605029821 l0.0,-12.5737810135 -0.792941153049,-2.83193260431 l-0.113277304918,-3.51159632206 9.40201640129,-13.7065541744 l0.566386505961,-0.339831896126 0.679663792253,2.15226873755 l-0.113277304918,2.83193260431 -1.35932758451,2.60537803173 l-2.15226873755,6.90991520882 0.113277304918,1.4726048708 l2.26554602385,3.85142832994 0.226554609835,4.30453747511 l-0.906218439341,2.03899145126 m1.01949572563,6.79663836956 l4.41781491041,-1.81243687868 3.0584871769,-0.679663792253 l2.15226873755,-2.83193260431 5.77714264393,-4.41781491041 l3.96470546722,-5.66386520863 m-20.5031919479,-7.24974751472 l5.43731033802,-6.3435292244 8.15596580505,-5.77714264393 l0.566386505961,0.45310921967 0.226554609835,2.60537803173 l-5.21075606346,7.24974751472 -2.49210059643,2.26554602385 l-0.679663792253,1.4726048708 m8.49579751492,-11.6675627232 l5.21075606346,-3.0584871769 1.01949572563,1.01949572563 l0.0,1.24605029821 -3.62487375736,5.43731033802 l-2.94520974159,2.83193260431 -1.5858823061,2.71865516901 l-3.1717646122,4.07798290253 m3.28504174948,1.92571416497 l2.26554602385,-0.339831896126 1.92571416497,-0.906218439341 l8.38252067566,-12.007393837 0.226554609835,-1.24605029821 l-0.792941153049,-0.226554609835 -4.30453747511,0.339831896126 l-4.64436948299,3.0584871769 m4.07798290253,11.7808389664 l5.43731033802,-9.17546153069 0.113277304918,-1.4726048708 l-1.4726048708,-0.45310921967 m188.12823534,-5.6072306633 l2.26554602385,-1.92571416497 4.07798290253,-2.03899145126 l6.00369691849,-2.37882331014 6.90991520882,-1.92571416497 l15.0658810139,-0.113277304918 6.79663836956,2.71865516901 l5.43731033802,4.53109204769 4.07798290253,5.66386520863 l2.26554602385,6.3435292244 0.45310921967,6.68336093426 l-0.45310921967,6.3435292244 -1.81243687868,5.43731033802 l-2.15226873755,3.96470546722 -2.49210059643,2.49210059643 l-3.51159632206,1.35932758451 -4.64436948299,0.566386505961 l-11.5542852879,0.113277304918 -6.11697435379,-1.13277301192 l-12.007393837,-4.07798290253 -4.98420119286,-2.71865516901 l-3.62487375736,-3.73815089464 -2.37882331014,-5.21075606346 l-0.792941153049,-6.79663836956 0.45310921967,-7.47630178928 l1.13277301192,-6.57008349895 m21.4094090462,7.24974751472 l0.0,0.0 m19.9368047714,4.30453747511 l0.0,0.0 m-27.0732760429,-3.62487375736 l1.5858823061,-0.226554609835 0.906218439341,0.339831896126 l0.45310921967,0.792941153049 -0.113277304918,0.906218439341 l-1.92571416497,1.13277301192 m21.2961339951,0.0 l4.75764662027,-0.566386505961 -0.113277304918,0.679663792253 l-1.81243687868,0.113277304918 -0.226554609835,-0.906218439341 m-30.4715943336,12.800334692 l14.1596627235,0.792941153049 20.0500822067,0.0 l2.26554602385,-0.45310921967 0.45310921967,-1.35932758451 m-49.1623497009,-22.5421833992 l52.7872228622,0.339831896126 3.39831918478,-0.679663792253 l0.906218439341,-1.01949572563 -1.24605029821,-0.906218439341 l-2.83193260431,-1.13277301192 -4.64436948299,-1.5858823061 l-6.57008349895,-1.4726048708 -9.40201640129,-1.13277301192 l-13.1401669979,0.45310921967 -7.13647007942,1.24605029821 l-11.4410078526,3.0584871769 -7.47630178928,2.60537803173 l14.7260499001,-4.07798290253 18.2376456261,-3.1717646122 l7.13647007942,-0.45310921967 11.7808389664,0.113277304918 l3.62487375736,1.01949572563 1.01949572563,1.01949572563 l-0.679663792253,1.24605029821 -4.19126033783,1.24605029821 l-23.9015102386,1.5858823061 -19.1438639164,2.60537803173 l1.81243687868,-1.13277301192 7.24974751472,-2.60537803173 l10.9878981113,-2.83193260431 12.5737810135,-1.92571416497 l12.007393837,-0.45310921967 9.17546153069,0.45310921967 l4.64436948299,1.5858823061 0.679663792253,1.81243687868 l-2.83193260431,2.83193260431 -6.3435292244,1.92571416497 l-31.4910912514,5.55058777332 -9.51529324055,2.15226873755 l8.72235238552,-2.60537803173 10.9878981113,-2.49210059643 l11.4410078526,-1.69915959239 16.0853767395,-0.906218439341 l-12.007393837,-0.45310921967 -12.2339487076,-1.13277301192 l-13.1401669979,-0.566386505961 m235.704696178,15.7455503941 l3.1717646122,12.1206712723 3.1717646122,14.0463852882 m-5.66386520863,1.13277301192 l3.1717646122,-0.45310921967 15.2924358845,0.0 l5.77714264393,-0.792941153049 1.01949572563,-0.45310921967 m-4.07798290253,1.4726048708 l-13.4799993038,9.96840238571 -1.35932758451,1.81243687868 l-0.113277304918,1.13277301192 0.566386505961,0.339831896126 l0.0,-1.81243687868 -1.92571416497,-6.00369691849 l-1.4726048708,-7.36302495003 -1.24605029821,-2.03899145126 l-0.906218439341,-0.45310921967 m-36.0221815109,-8.04268836975 l4.19126033783,-0.566386505961 38.0611729622,0.0 l16.8783175945,-3.39831918478 m-3.39831918478,-7.92941093445 l2.49210059643,7.13647007942 1.5858823061,9.96840238571 l0.0,2.15226873755 0.679663792253,0.113277304918 l2.83193260431,-2.03899145126 7.58957922459,-8.15596580505 l6.79663836956,-6.11697435379 -0.679663792253,-0.45310921967 l-10.4215121269,-0.226554609835 -14.6127724648,-2.71865516901 m-51.7677259445,8.83562982082 l0.0,1.81243687868 1.81243687868,8.26924324036 l-0.45310921967,1.81243687868 -1.13277301192,0.0 l-7.36302495003,-2.83193260431 -6.57008349895,-3.0584871769 l-2.71865516901,-0.679663792253 2.26554602385,-1.13277301192 l5.55058777332,-0.792941153049 5.55058777332,-2.37882331014 l2.26554602385,-0.226554609835 2.94520974159,-1.01949572563 m9.85512554646,-9.28873896599 l19.1438639164,0.339831896126 5.66386520863,-1.01949572563 l5.66386520863,-2.60537803173 -6.57008349895,-4.30453747511 l-4.53109204769,-4.30453747511 -0.566386505961,-0.113277304918 l-3.39831918478,1.5858823061 -3.51159632206,2.26554602385 l-3.28504174948,4.07798290253 -5.89041948318,5.66386520863 m40.3267192841,-8.72235238552 l-4.19126033783,5.43731033802 -1.4726048708,2.49210059643 l-5.09747862816,5.66386520863 -3.51159632206,2.71865516901 l-2.83193260431,3.28504174948 -9.28873896599,7.81613409519 l-3.28504174948,3.28504174948 -6.45680606365,3.62487375736 m-1.5858823061,-3.85142832994 l5.32403349876,8.60907495022 -1.24605029821,0.679663792253 l-7.02319264412,0.0 0.906218439341,-0.566386505961 l0.906218439341,-2.26554602385 0.339831896126,-3.1717646122 l-0.226554609835,-3.51159632206 0.45310921967,-0.792941153049 l2.15226873755,-0.906218439341 m30.6981492043,-30.1317620277 l10.5347895622,7.92941093445 0.792941153049,-6.23025178909 l0.792941153049,-2.37882331014 -0.566386505961,-0.679663792253 l-3.0584871769,-0.566386505961 -17.444704771,0.0 " fill="none" stroke="black" stroke-width="1" /></svg>