<?xml version="1.0" encoding="utf-8" ?>
<svg baseProfile="full" height="487.529053316" version="1.1" width="911.186886858" xmlns="http://www.w3.org/2000/svg" xmlns:ev="http://www.w3.org/2001/xml-events" xmlns:xlink="http://www.w3.org/1999/xlink"><defs /><rect fill="none" height="487.529053316" width="911.186886858" x="0" y="0" /><path d="M25,25 m0.0,0.0 m93.979164362,57.6119351387 l-0.566386505961,-0.113277304918 -4.30453747511,2.49210059643 l-10.6480669975,5.09747862816 -13.2534444332,5.77714264393 l-16.651763916,6.45680606365 -44.0648698807,13.0268895626 l61.2830209732,-28.4326028824 10.3082346916,-2.37882331014 l0.45310921967,0.792941153049 -2.15226873755,2.60537803173 l-5.32403349876,3.73815089464 -10.874620676,4.30453747511 l-9.40201640129,-22.7687382698 22.9952931404,-2.49210059643 l22.3156285286,0.906218439341 22.089073658,5.77714264393 l13.9331078529,6.3435292244 4.98420119286,4.87092405558 l-81.2198257446,2.03899145126 2.60537803173,-1.24605029821 l19.2571413517,-1.5858823061 15.8588218689,0.339831896126 l17.444704771,2.71865516901 -69.5522642136,25.4873919487 l-2.03899145126,0.339831896126 8.83562982082,-0.792941153049 l78.0480623245,-4.07798290253 -36.5885686874,0.0 l26.8467211723,-13.3667218685 31.3778138161,-5.32403349876 l2.26554602385,-0.679663792253 -14.3862175941,0.792941153049 l-36.5885686874,-1.81243687868 7.92941093445,-2.03899145126 l11.2144529819,-1.5858823061 38.0611729622,-2.60537803173 l-70.458483696,0.0 53.4668874741,-13.4799993038 l22.089073658,-2.94520974159 -24.3546199799,3.73815089464 l-45.4241991043,4.75764662027 95.2662086487,21.2961339951 l-113.277301788,-0.226554609835 -23.9015102386,0.679663792253 l5.89041948318,1.81243687868 33.6433577538,5.09747862816 l44.178147316,4.75764662027 21.1828565598,0.45310921967 l19.4836962223,0.906218439341 47.1233558655,-14.0463852882 l0.0,-2.37882331014 -19.9368047714,0.45310921967 l-48.1428527832,3.73815089464 -41.9126033783,22.5421833992 l102.742509842,0.0 -103.308897018,-34.2097449303 l20.6164693832,2.83193260431 49.0490722656,5.89041948318 l1.35932758451,0.906218439341 -10.874620676,3.39831918478 l-42.0258808136,5.21075606346 -25.8272242546,2.37882331014 l-62.0759630203,2.15226873755 113.277301788,-24.014787674 l5.77714264393,0.0 -0.339831896126,0.792941153049 l-15.4057133198,5.32403349876 -113.277301788,23.9015102386 l-20.9563016891,5.43731033802 0.0,8.60907495022 l113.277301788,-7.58957922459 21.0695791245,-5.32403349876 l12.007393837,-14.7260499001 0.0,-3.51159632206 l-113.277301788,16.7650413513 0.0,9.40201640129 l13.7065541744,2.60537803173 14.7260499001,0.0 l38.4010052681,-2.26554602385 37.9478955269,-3.0584871769 l-104.781503677,0.0 0.0,-3.1717646122 l77.0285654068,-6.90991520882 16.651763916,0.0 l42.8188180923,-4.30453747511 10.874620676,-2.15226873755 l-7.36302495003,-1.92571416497 -16.651763916,-0.45310921967 l-63.0954551697,-0.339831896126 m293.872607946,-15.0092422962 l0.0,0.0 0.226554609835,0.566386505961 l-113.277301788,-5.21075606346 m113.277301788,22.3156285286 m0.0,0.339831896126 l-113.277301788,-9.40201640129 m-1.13277301192,-7.13647007942 m0.0,0.0 l113.277301788,9.85512554646 m-1.92571416497,-6.11697435379 m0.0,0.0 l-113.277301788,-6.3435292244 m113.277301788,16.5384864807 m0.0,0.0 l-113.277301788,-8.26924324036 m113.277301788,14.8393261433 m0.0,0.0 l-113.277301788,-11.4410078526 m-0.792941153049,0.226554609835 l0.339831896126,-0.792941153049 m0.0,0.0 l0.0,-1.69915959239 m-0.226554609835,-0.45310921967 l-0.113277304918,-0.792941153049 m0.226554609835,-1.01949572563 l0.226554609835,-1.35932758451 m0.679663792253,-0.679663792253 l2.03899145126,0.906218439341 m113.277301788,21.5226864815 m0.0,0.0 l-113.277301788,-23.674955368 m113.277301788,24.5811748505 m0.0,0.226554609835 l-113.277301788,-28.4326028824 m113.277301788,28.7724351883 m0.0,0.0 l-113.277301788,-30.8114266396 m113.277301788,29.5653748512 m0.0,0.0 l-113.277301788,-30.1317620277 m113.277301788,31.8309211731 m0.0,0.0 l-113.277301788,-33.0769729614 m0.792941153049,0.339831896126 l113.277301788,33.4168052673 m-113.277301788,-34.4362998009 m0.226554609835,0.0 l0.339831896126,-0.906218439341 m0.339831896126,1.4726048708 m0.0,0.0 l0.0,0.226554609835 m113.277301788,30.9247040749 m0.0,0.0 l-113.277301788,-31.1512589455 m113.277301788,29.6786522865 m0.0,0.0 l-113.277301788,-30.0184845924 m113.277301788,28.8857126236 m0.0,0.0 l-113.277301788,-30.245039463 m113.277301788,27.6396608353 m0.0,0.0 l-113.277301788,-26.9599986076 m0.0,-0.339831896126 l113.277301788,24.014787674 m-113.277301788,-24.8077297211 m0.0,0.0 l113.277301788,24.1280651093 m186.598989964,-17.6146233082 l0.0,0.0 m36.7018461227,-4.07798290253 l0.566386505961,-3.51159632206 0.0,-19.370418787 l0.0,4.75764662027 -0.45310921967,0.906218439341 l-4.75764662027,2.94520974159 -9.40201640129,3.51159632206 l-7.02319264412,2.15226873755 -7.36302495003,1.5858823061 l-13.8198304176,0.339831896126 -3.85142832994,-0.45310921967 l-9.40201640129,-2.15226873755 -9.74184811115,-2.71865516901 l-4.98420119286,-1.81243687868 -10.5347895622,-4.07798290253 l-10.7613432407,-4.98420119286 -8.94890666008,-4.98420119286 l-8.83562982082,0.0 31.3778138161,0.0 l13.1401669979,1.01949572563 14.1596627235,4.53109204769 l14.8393261433,8.94890666008 23.7882328033,18.3509230614 l12.5737810135,12.9136121273 0.0,34.8894095421 l-0.566386505961,1.4726048708 -7.47630178928,1.35932758451 l-21.9757962227,-1.69915959239 -7.24974751472,-2.49210059643 l-31.7176437378,-15.9720993042 -46.3304185867,-26.8467211723 l-0.566386505961,-11.7808389664 0.0,-24.6944522858 l23.3351254463,0.792941153049 5.66386520863,2.03899145126 l31.2645363808,20.9563016891 33.303527832,27.6396608353 l10.9878981113,7.81613409519 1.13277301192,0.45310921967 l-4.41781491041,-0.339831896126 -15.4057133198,-8.60907495022 l-12.4605035782,-9.74184811115 -11.8941164017,-11.7808389664 l-10.3082346916,-10.9878981113 -7.70285665989,-9.28873896599 l-4.53109204769,-6.57008349895 -0.792941153049,-2.37882331014 l15.8588218689,0.0 22.8820157051,9.62857067585 l21.6359639168,15.1791584492 17.3314273357,21.0695791245 l0.0,36.0221815109 -3.62487375736,-2.26554602385 l-5.43731033802,-4.19126033783 -16.651763916,-16.4252090454 l-50.4084014893,-57.9979801178 -30.1317620277,-1.01949572563 l13.0268895626,17.3314273357 21.6359639168,32.8504180908 l4.30453747511,8.04268836975 1.5858823061,4.75764662027 l-1.81243687868,-0.566386505961 -4.64436948299,-2.60537803173 l-38.9673924446,-37.7213406563 -4.75764662027,-22.089073658 l17.444704771,14.6127724648 64.6813392639,67.853102684 l33.7566351891,4.41781491041 0.0,-0.792941153049 l-6.79663836956,-12.2339487076 -22.8820157051,-25.8272242546 l-24.5811748505,-37.4947881699 -23.5616779327,-10.5347895622 l-13.4799993038,0.0 0.792941153049,1.81243687868 l36.7018461227,45.7640314102 53.80671978,39.3072247505 l0.0,-2.83193260431 -8.94890666008,-20.7297468185 l-24.5811748505,-35.229241848 -31.8309211731,-28.0927705765 l-37.154955864,0.0 28.0927705765,31.7176437378 l49.955291748,53.9199972153 16.0853767395,1.24605029821 l-32.2840309143,-29.9052071571 -33.0769729614,-35.5690741539 l-39.6470570564,-21.4094090462 -2.49210059643,0.0 m342.695114613,51.0880613327 l-9.96840238571,-1.35932758451 -89.0359592438,1.5858823061 l16.5384864807,0.679663792253 75.7825136185,-2.83193260431 l-73.5169696808,2.49210059643 -15.6322681904,2.37882331014 l41.799325943,1.69915959239 61.6228532791,-6.3435292244 l-77.8215074539,-0.792941153049 -52.2208356857,1.35932758451 l8.49579751492,1.4726048708 13.2534444332,0.792941153049 l-7.24974751472,3.96470546722 -0.566386505961,-0.226554609835 l0.113277304918,-1.35932758451 m33.0769729614,-14.6127724648 l1.4726048708,-2.03899145126 m0.113277304918,-0.113277304918 l1.01949572563,3.1717646122 1.35932758451,1.4726048708 m2.03899145126,3.28504174948 l5.21075606346,1.69915959239 21.0695791245,0.566386505961 m4.07798290253,-0.792941153049 l0.566386505961,-0.226554609835 0.113277304918,-0.679663792253 l-3.1717646122,-2.03899145126 0.339831896126,-2.15226873755 l-1.01949572563,-0.906218439341 -5.09747862816,-1.13277301192 l-9.74184811115,0.679663792253 -3.39831918478,0.679663792253 m-34.7761321068,6.79663836956 l-13.2534444332,2.37882331014 m-9.40201640129,4.30453747511 l-2.71865516901,3.73815089464 -1.13277301192,2.37882331014 l0.226554609835,0.566386505961 m4.87092405558,4.41781491041 l4.30453747511,1.81243687868 16.8783175945,-0.113277304918 m8.26924324036,-1.35932758451 l0.679663792253,-0.906218439341 m-51.9942808151,-42.7055454254 l-7.47630178928,1.4726048708 -1.13277301192,1.24605029821 l36.7018461227,-1.01949572563 29.3388223648,4.41781491041 l3.73815089464,1.01949572563 49.2756271362,-1.5858823061 l-43.6117601395,2.15226873755 -20.0500822067,1.92571416497 l39.3072247505,-0.113277304918 30.6981492043,-2.49210059643 l-58.3378124237,4.30453747511 -4.53109204769,1.35932758451 l24.8077297211,-0.566386505961 59.697136879,-15.2924358845 l6.68336093426,-3.28504174948 m-747.893947959,166.2552917 l8.26924324036,-5.55058777332 6.3435292244,-2.60537803173 m-6.11697435379,11.7808389664 l8.83562982082,-4.53109204769 3.0584871769,-1.13277301192 m-11.3277304173,12.1206712723 l11.1011755466,-7.13647007942 4.07798290253,-0.45310921967 l-1.92571416497,1.81243687868 m-10.4215121269,11.5542852879 l17.6712596416,-8.94890666008 m-9.74184811115,12.4605035782 l14.3862175941,-11.1011755466 m-37.7213406563,10.6480669975 l7.92941093445,-7.81613409519 2.15226873755,-1.69915959239 l6.23025178909,-6.45680606365 -8.94890666008,5.09747862816 l7.36302495003,-5.32403349876 7.24974751472,-3.85142832994 l2.71865516901,-1.81243687868 m-15.2924358845,22.8820157051 l26.2803339958,-18.9173090458 0.566386505961,0.113277304918 m-21.6359639168,20.2766370773 l22.2023510933,-15.4057133198 m-16.0853767395,15.8588218689 l10.6480669975,-10.7613432407 3.1717646122,-2.15226873755 l3.0584871769,-4.19126033783 m-33.9831900597,3.39831918478 l5.32403349876,-4.53109204769 9.28873896599,-6.79663836956 m-15.8588218689,13.5932767391 l21.4094090462,-18.577477932 m-24.5811748505,13.4799993038 l9.06218409538,-6.68336093426 5.66386520863,-4.98420119286 m-13.4799993038,6.11697435379 l14.1596627235,-12.3472261429 m-15.8588218689,9.17546153069 l4.87092405558,-4.30453747511 12.6870584488,-6.00369691849 m2.83193260431,19.2571413517 l-3.62487375736,4.64436948299 5.66386520863,-4.75764662027 l3.85142832994,-3.96470546722 -14.6127724648,11.6675627232 l10.3082346916,-11.4410078526 7.02319264412,-8.83562982082 l-12.1206712723,3.1717646122 -6.90991520882,3.39831918478 l-8.49579751492,6.45680606365 12.1206712723,-7.92941093445 l4.53109204769,-6.68336093426 -0.45310921967,-1.13277301192 l-6.79663836956,-1.24605029821 -9.06218409538,5.89041948318 l2.83193260431,12.007393837 4.64436948299,0.339831896126 l15.5189907551,-8.15596580505 4.19126033783,-2.49210059643 l-16.3119316101,19.370418787 4.64436948299,4.75764662027 l17.3314273357,-8.26924324036 3.51159632206,-4.64436948299 l-15.0658810139,16.1986541748 0.0,0.45310921967 l13.9331078529,-9.74184811115 0.679663792253,-0.906218439341 m-20.3899145126,4.30453747511 l4.07798290253,-5.21075606346 15.9720993042,-13.9331078529 m179.575798512,25.3174674511 l0.339831896126,-8.26924324036 4.98420119286,-19.9368047714 l6.90991520882,-24.3546199799 4.98420119286,-12.4605035782 l3.73815089464,0.0 1.24605029821,0.339831896126 l2.03899145126,1.13277301192 9.96840238571,3.96470546722 l8.15596580505,4.75764662027 10.5347895622,7.81613409519 l19.9368047714,16.1986541748 24.9210071564,21.4094090462 l7.02319264412,7.13647007942 3.73815089464,5.66386520863 l0.906218439341,8.49579751492 0.0,9.96840238571 l-4.53109204769,-4.30453747511 -8.26924324036,-6.3435292244 l-9.85512554646,-5.77714264393 -12.800334692,-6.45680606365 l-17.784537077,-8.26924324036 -19.4836962223,-7.13647007942 l-23.674955368,-7.92941093445 -30.245039463,-11.3277304173 l-27.9794931412,-22.9952931404 0.0,-5.89041948318 m113.277301788,26.0537791252 l0.0,-0.45310921967 m0.0,0.0 l0.0,-13.3667218685 m-113.277301788,58.2245349884 l42.1391582489,-27.7529382706 25.600669384,-14.8393261433 l24.4678974152,-11.6675627232 12.9136121273,-2.94520974159 l10.081679821,-0.792941153049 9.28873896599,0.0 l0.0,3.73815089464 m-70.458483696,24.1280651093 l0.0,0.0 m0.0,0.0 l19.370418787,-5.77714264393 11.5542852879,-2.37882331014 l6.45680606365,-0.679663792253 -7.92941093445,1.92571416497 l-33.6433577538,12.6870584488 -15.4057133198,4.53109204769 l-14.0463852882,3.39831918478 -10.7613432407,2.15226873755 l-13.3667218685,0.0 -12.1206712723,-1.5858823061 l-7.58957922459,-0.226554609835 -1.24605029821,-0.339831896126 l-0.339831896126,-0.566386505961 2.03899145126,-10.3082346916 m0.0,0.0 l0.0,0.0 m87.3367977142,-6.23025178909 l0.0,0.0 m-18.6907553673,4.19126033783 l0.0,0.0 m5.66386520863,16.5384864807 l0.0,0.0 m0.0,0.0 l0.0,0.0 m-2.94520974159,-0.45310921967 l13.1401669979,-13.3667218685 11.1011755466,-13.5932767391 l6.00369691849,-8.60907495022 0.792941153049,-1.92571416497 l3.0584871769,12.007393837 1.5858823061,10.4215121269 l0.113277304918,14.1596627235 -2.71865516901,13.9331078529 l-0.792941153049,8.26924324036 -22.2023510933,-56.2988185883 l-6.00369691849,-16.4252090454 -10.3082346916,-6.23025178909 l-35.5690741539,0.0 -0.226554609835,0.566386505961 l2.83193260431,1.69915959239 23.1085705757,16.651763916 l34.5495772362,20.6164693832 22.8820157051,16.4252090454 l28.8857126236,18.3509230614 5.89041948318,12.5737810135 m-113.277301788,-31.0379815102 l0.0,0.0 m236.044535637,-15.8021950722 l-0.226554609835,-1.81243687868 0.45310921967,1.4726048708 l0.45310921967,3.28504174948 3.62487375736,30.245039463 l0.226554609835,5.43731033802 -0.679663792253,-6.45680606365 l0.113277304918,-6.11697435379 0.906218439341,-8.60907495022 l2.94520974159,-14.1596627235 2.49210059643,-8.83562982082 l2.15226873755,-5.43731033802 1.24605029821,-2.15226873755 l0.792941153049,1.13277301192 0.45310921967,10.3082346916 l0.113277304918,17.8978133202 -0.113277304918,12.6870584488 l-0.679663792253,6.45680606365 0.679663792253,-10.1949572563 l4.64436948299,-19.0305864811 5.21075606346,-13.0268895626 l4.75764662027,-8.72235238552 2.49210059643,-2.83193260431 l-0.45310921967,5.09747862816 -5.43731033802,22.8820157051 l-2.37882331014,14.7260499001 -2.15226873755,20.0500822067 l2.37882331014,-12.5737810135 3.85142832994,-14.9526035786 l14.4994950294,-34.4362998009 -8.49579751492,14.1596627235 l-8.15596580505,20.5031919479 -3.0584871769,12.9136121273 l-0.679663792253,7.47630178928 4.41781491041,-9.28873896599 l4.30453747511,-12.007393837 6.00369691849,-14.6127724648 l6.23025178909,-11.7808389664 3.96470546722,-5.21075606346 l-1.01949572563,4.30453747511 -9.17546153069,19.370418787 l-8.26924324036,23.5616779327 8.15596580505,-29.7919297218 l8.94890666008,-20.5031919479 -4.87092405558,9.62857067585 l-7.47630178928,30.584871769 0.339831896126,10.6480669975 l1.5858823061,5.32403349876 2.15226873755,-1.24605029821 l15.7455456257,-45.0843667984 9.28873896599,-12.5737810135 l-4.53109204769,9.51529324055 -11.1011755466,25.3741168976 l-4.53109204769,13.9331078529 3.0584871769,-10.1949572563 l27.5263834,-43.6117601395 2.83193260431,-0.113277304918 l-8.83562982082,16.0853767395 -16.3119316101,36.1354589462 l-2.83193260431,20.2766370773 0.792941153049,-1.4726048708 l3.51159632206,-13.1401669979 19.8235285282,-43.2719278336 l2.94520974159,-3.85142832994 -14.6127724648,24.4678974152 l-7.58957922459,15.8588218689 17.444704771,-27.0732760429 l14.2729401588,-18.8040328026 -7.47630178928,7.47630178928 l-8.04268836975,8.72235238552 -13.4799993038,18.2376456261 l-10.6480669975,20.5031919479 1.5858823061,1.24605029821 l16.9915950298,-24.3546199799 8.72235238552,-16.3119316101 l-8.15596580505,8.49579751492 -19.9368047714,26.5068888664 l-0.679663792253,2.03899145126 1.81243687868,-2.03899145126 l27.9794931412,-46.2171411514 -8.49579751492,8.49579751492 l-7.58957922459,8.94890666008 -17.8978133202,28.3193254471 l-0.226554609835,1.35932758451 16.1986541748,-29.1122674942 m213.275802657,52.6739549637 l-0.45310921967,14.0463852882 m10.874620676,-14.8393261433 l-0.339831896126,0.906218439341 0.0,2.49210059643 l-1.35932758451,10.5347895622 m-16.1986541748,-14.0463852882 l16.3119316101,0.0 4.53109204769,-0.679663792253 l2.15226873755,-0.792941153049 0.679663792253,-0.792941153049 l0.45310921967,-1.5858823061 -0.339831896126,-2.94520974159 l-1.01949572563,-1.5858823061 -1.5858823061,-1.4726048708 l-2.49210059643,-1.35932758451 -1.69915959239,-0.339831896126 l-5.21075606346,0.0 -2.83193260431,0.679663792253 l-4.53109204769,0.45310921967 -1.01949572563,-1.01949572563 l-1.01949572563,-4.98420119286 -0.679663792253,-6.23025178909 l0.566386505961,-10.6480669975 -0.566386505961,-0.113277304918 l0.0,-2.26554602385 -0.792941153049,-1.01949572563 l-3.39831918478,-0.906218439341 -4.53109204769,-0.113277304918 l-0.679663792253,0.339831896126 -0.566386505961,1.24605029821 l-0.339831896126,3.62487375736 -1.24605029821,0.566386505961 l-6.3435292244,-0.226554609835 -0.339831896126,0.566386505961 l7.81613409519,2.71865516901 -3.96470546722,-32.9636955261 l-3.73815089464,3.0584871769 7.81613409519,30.584871769 l-11.7808389664,-25.9405016899 12.1206712723,28.3193254471 l-12.800334692,-27.0732760429 12.9136121273,28.4326028824 l-13.1401669979,-26.8467211723 13.2534444332,28.0927705765 l-11.6675627232,-27.9794931412 11.6675627232,28.3193254471 l-3.73815089464,-31.1512589455 3.73815089464,31.2645363808 l1.5858823061,-35.9089040756 9.85512554646,-8.94890666008 l3.39831918478,-1.4726048708 -14.8393261433,46.443696022 l18.2376456261,-46.6702508926 -18.0110907555,48.1428527832 l19.0305864811,-46.443696022 -18.577477932,47.3499107361 l17.2181499004,-41.799325943 -15.8588218689,44.8578119278 l14.4994950294,-42.7055454254 -14.0463852882,44.178147316 l16.651763916,-37.3815107346 -16.3119316101,42.4789905548 l29.4520998001,-47.1233558655 -29.4520998001,48.7092399597 l38.740837574,-53.9199972153 -38.6275601387,54.4863843918 l38.6275601387,-54.4863843918 m-718.328571841,182.510597706 l6.00369691849,20.9563016891 0.566386505961,6.00369691849 l-1.01949572563,-3.51159632206 -1.01949572563,-9.28873896599 l-1.81243687868,-4.87092405558 -0.906218439341,-3.73815089464 l0.339831896126,-6.00369691849 2.26554602385,-8.60907495022 l1.4726048708,-3.51159632206 6.3435292244,2.15226873755 l16.9915950298,4.75764662027 18.0110907555,4.41781491041 l7.47630178928,2.94520974159 1.92571416497,1.01949572563 l1.4726048708,1.4726048708 -2.83193260431,1.24605029821 l-58.2245349884,18.8040328026 -26.6201663017,9.17546153069 l-25.3741168976,9.40201640129 0.0,8.94890666008 l0.566386505961,-1.35932758451 7.02319264412,-6.68336093426 l7.81613409519,-6.3435292244 13.4799993038,-8.15596580505 l20.2766370773,-7.36302495003 29.2255449295,-5.09747862816 l34.5495772362,8.15596580505 25.9405016899,6.90991520882 l15.7455456257,4.41781491041 0.0,1.69915959239 l-2.15226873755,-2.60537803173 -6.23025178909,-5.77714264393 l-11.3277304173,-8.26924324036 -65.1344490051,-26.9599986076 l-29.1122674942,-5.09747862816 -28.8857126236,-1.24605029821 l-11.7808389664,2.71865516901 0.0,36.0221815109 l0.906218439341,0.226554609835 24.3546199799,-1.24605029821 l23.5616779327,-0.113277304918 30.245039463,0.679663792253 l33.0769729614,1.4726048708 32.3973083496,2.15226873755 l10.081679821,2.26554602385 0.0,1.35932758451 l-0.339831896126,-11.6675627232 -2.26554602385,-7.24974751472 l-4.75764662027,-8.72235238552 -9.06218409538,-10.081679821 l-15.0658810139,-10.6480669975 -21.4094090462,-9.40201640129 l-25.7139468193,-5.89041948318 -27.1865534782,-1.24605029821 l-26.3936114311,3.85142832994 -22.4289059639,8.60907495022 l0.0,53.4668874741 4.87092405558,-0.339831896126 l8.60907495022,0.566386505961 36.3620138168,3.85142832994 l49.7287368774,5.89041948318 40.4399967194,3.39831918478 l11.8941164017,0.113277304918 2.71865516901,-0.339831896126 l-1.13277301192,-1.81243687868 m153.182195425,-65.3609955311 l-0.566386505961,0.906218439341 -0.113277304918,1.24605029821 l3.85142832994,0.226554609835 1.4726048708,-0.339831896126 l5.21075606346,-1.81243687868 5.09747862816,-3.28504174948 l1.13277301192,-1.24605029821 -0.226554609835,-41.799325943 l0.0,49.2756271362 0.566386505961,0.339831896126 l0.906218439341,-0.113277304918 1.35932758451,-0.679663792253 l2.60537803173,-2.15226873755 3.1717646122,-3.96470546722 l2.49210059643,-4.64436948299 1.4726048708,-4.19126033783 l0.113277304918,-0.679663792253 -0.679663792253,0.0 l-7.02319264412,5.21075606346 -13.8198304176,12.1206712723 l-11.7808389664,8.60907495022 2.03899145126,-2.71865516901 l3.28504174948,-3.0584871769 21.7492413521,-17.444704771 l8.38252067566,-7.47630178928 -0.566386505961,0.0 l-28.659157753,15.5189907551 -37.154955864,19.1438639164 l-20.8430242538,9.74184811115 4.64436948299,-3.73815089464 l8.83562982082,-6.23025178909 11.8941164017,-7.81613409519 l30.1317620277,-18.0110907555 13.7065541744,-7.70285665989 l11.7808389664,-5.89041948318 8.26924324036,-3.51159632206 l3.0584871769,-0.906218439341 0.792941153049,0.906218439341 l-1.69915959239,3.73815089464 -7.47630178928,8.04268836975 l-13.2534444332,11.3277304173 -17.784537077,13.0268895626 l-19.9368047714,13.3667218685 -36.4752912521,22.8820157051 l-21.9757962227,12.6870584488 0.226554609835,-0.792941153049 l3.73815089464,-4.19126033783 8.04268836975,-7.70285665989 l11.6675627232,-10.081679821 26.6201663017,-19.4836962223 l11.8941164017,-7.81613409519 9.06218409538,-5.43731033802 l4.64436948299,-2.60537803173 0.566386505961,0.0 l-0.792941153049,1.24605029821 -5.77714264393,4.75764662027 l-42.7055454254,32.0574760437 -9.17546153069,7.36302495003 l-6.68336093426,5.66386520863 -3.51159632206,3.85142832994 l-1.4726048708,2.49210059643 0.113277304918,1.5858823061 l1.5858823061,1.24605029821 4.75764662027,2.03899145126 l7.24974751472,1.92571416497 8.83562982082,0.339831896126 l113.277301788,0.0 -78.5011720657,0.0 l-12.9136121273,-0.45310921967 -11.6675627232,-1.81243687868 l-14.1596627235,-4.30453747511 -2.26554602385,-1.69915959239 l-1.01949572563,-2.37882331014 0.226554609835,-2.71865516901 l2.03899145126,-3.96470546722 3.39831918478,-4.75764662027 l5.77714264393,-5.55058777332 7.36302495003,-5.77714264393 l18.9173090458,-11.4410078526 11.7808389664,-5.55058777332 l23.674955368,-9.85512554646 29.6786522865,-10.874620676 l12.2339487076,-3.51159632206 m-47.4631881714,48.3694076538 l1.24605029821,-9.51529324055 m197.416986823,-28.7724322081 l2.49210059643,0.679663792253 3.51159632206,0.226554609835 l16.5384864807,0.45310921967 0.113277304918,1.13277301192 l-0.906218439341,6.68336093426 -0.566386505961,2.03899145126 l-1.81243687868,1.69915959239 -1.4726048708,0.339831896126 l-4.75764662027,0.0 -2.03899145126,-0.566386505961 l-4.98420119286,-3.0584871769 -4.64436948299,-8.94890666008 m-0.113277304918,0.113277304918 l1.35932758451,1.69915959239 1.92571416497,1.5858823061 l3.28504174948,1.35932758451 5.32403349876,1.01949572563 l4.64436948299,-1.24605029821 1.69915959239,-1.13277301192 l0.906218439341,-1.13277301192 2.03899145126,-1.24605029821 m-18.2376456261,0.339831896126 l1.35932758451,0.339831896126 10.874620676,0.226554609835 m-1.92571416497,3.73815089464 l0.226554609835,-9.17546153069 0.45310921967,-2.94520974159 l0.339831896126,-0.792941153049 2.94520974159,-0.113277304918 l6.57008349895,1.5858823061 35.9089040756,13.0268895626 l0.679663792253,4.64436948299 -0.226554609835,6.57008349895 l-2.03899145126,4.07798290253 -5.32403349876,5.43731033802 l-9.74184811115,8.49579751492 -19.5969736576,10.6480669975 l-5.77714264393,0.226554609835 -2.49210059643,-1.24605029821 l-6.11697435379,-5.32403349876 -5.43731033802,-3.62487375736 l-0.226554609835,-9.28873896599 -1.24605029821,-8.83562982082 l-2.37882331014,-50.5216789246 16.1986541748,16.0853767395 l22.2023510933,24.2413425446 12.5737810135,21.8625187874 l0.113277304918,1.81243687868 -33.8699126244,0.566386505961 l0.566386505961,-1.4726048708 0.679663792253,-4.07798290253 l17.1048724651,-13.2534444332 -14.4994950294,0.45310921967 l-23.7882328033,0.0 -14.2729401588,0.906218439341 l13.3667218685,-0.906218439341 30.4715943336,-1.01949572563 l-67.2867155075,-0.226554609835 13.4799993038,-0.792941153049 l56.6386508942,-0.679663792253 -26.1670565605,1.13277301192 l-7.70285665989,1.81243687868 2.37882331014,-0.906218439341 l5.43731033802,-0.339831896126 12.6870584488,-2.37882331014 l22.2023510933,-2.37882331014 -3.39831918478,-0.45310921967 l-66.0406684875,-3.85142832994 68.5327672958,-0.339831896126 l-2.49210059643,-0.45310921967 -41.9126033783,-0.906218439341 l19.0305864811,-0.45310921967 -19.370418787,-1.13277301192 l-15.4057133198,-0.113277304918 3.96470546722,-1.4726048708 l23.674955368,-5.43731033802 -1.5858823061,0.113277304918 l-3.28504174948,-0.906218439341 -0.339831896126,-0.566386505961 l38.6275601387,-13.8198304176 m192.885882854,25.4874014854 l-3.62487375736,-0.45310921967 -0.113277304918,-0.566386505961 l4.41781491041,-2.03899145126 1.13277301192,-0.113277304918 l0.0,-1.13277301192 1.13277301192,-1.69915959239 l2.37882331014,-0.906218439341 1.69915959239,0.226554609835 l2.26554602385,1.81243687868 1.5858823061,3.0584871769 l0.566386505961,2.49210059643 -1.24605029821,7.70285665989 l0.45310921967,5.09747862816 1.24605029821,2.71865516901 l2.26554602385,1.35932758451 2.83193260431,1.01949572563 l1.01949572563,0.906218439341 1.5858823061,6.23025178909 l-0.113277304918,1.13277301192 -0.566386505961,0.45310921967 l-6.57008349895,1.13277301192 -4.19126033783,-0.339831896126 l-1.24605029821,-2.26554602385 -0.339831896126,-3.1717646122 l1.24605029821,-12.1206712723 -0.566386505961,-3.0584871769 l-0.113277304918,-3.62487375736 -0.792941153049,-2.26554602385 l-1.4726048708,-1.24605029821 -3.39831918478,0.339831896126 l-1.69915959239,-0.792941153049 12.3472261429,23.3351254463 l7.13647007942,17.784537077 m-7.58957922459,-12.2339487076 l0.45310921967,10.874620676 m-8.15596580505,-34.4362998009 l2.03899145126,3.62487375736 2.71865516901,3.62487375736 l3.73815089464,7.24974751472 2.15226873755,3.39831918478 l1.69915959239,1.92571416497 3.96470546722,-9.06218409538 l8.72235238552,-28.659157753 0.0,-13.4799993038 l-0.566386505961,-8.26924324036 -2.15226873755,-3.85142832994 l-26.2803339958,0.226554609835 -13.8198304176,3.51159632206 l-16.9915950298,7.58957922459 -29.2255449295,16.9915950298 l-12.2339487076,9.96840238571 -7.47630178928,9.28873896599 l0.0,11.1011755466 0.226554609835,0.679663792253 l2.60537803173,0.45310921967 6.57008349895,-4.30453747511 l11.1011755466,-4.07798290253 16.3119316101,-8.38252067566 l32.9636955261,-19.5969736576 25.7139468193,-14.7260499001 l10.081679821,-4.87092405558 -1.13277301192,2.71865516901 l-3.39831918478,2.37882331014 -5.09747862816,6.23025178909 l-7.58957922459,12.2339487076 -12.5737810135,15.9720993042 l-11.6675627232,16.4252090454 -13.9331078529,21.0695791245 l1.24605029821,0.0 16.7650413513,-7.02319264412 l18.8040328026,-11.3277304173 40.8931064606,-27.9794931412 l18.0110907555,-16.8783175945 -23.4484004974,15.5189907551 l-18.6907553673,15.6322681904 -13.1401669979,6.57008349895 l28.659157753,-26.3936114311 23.3351254463,-20.2766370773 l12.007393837,-8.72235238552 -2.26554602385,6.57008349895 l-1.5858823061,6.90991520882 -1.35932758451,7.70285665989 l-0.792941153049,7.92941093445 0.566386505961,3.62487375736 l5.43731033802,20.7297468185 m-74.4231891632,-0.113277304918 l2.15226873755,0.339831896126 " fill="none" stroke="black" stroke-width="1" /></svg>