<?xml version="1.0" encoding="utf-8" ?>
<svg baseProfile="full" height="158.133625872" version="1.1" width="903.540661614" xmlns="http://www.w3.org/2000/svg" xmlns:ev="http://www.w3.org/2001/xml-events" xmlns:xlink="http://www.w3.org/1999/xlink"><defs /><rect fill="none" height="158.133625872" width="903.540661614" x="0" y="0" /><path d="M25,25 m0.0,0.0 m90.3542900085,65.7679021358 l0.45310921967,-1.24605029821 2.60537803173,-1.4726048708 l1.81243687868,-3.96470546722 0.679663792253,-0.679663792253 l3.0584871769,-1.81243687868 4.64436948299,-0.113277304918 l3.96470546722,0.792941153049 2.71865516901,1.35932758451 l3.28504174948,3.28504174948 4.19126033783,6.45680606365 l1.69915959239,-0.339831896126 1.01949572563,-0.906218439341 l0.113277304918,-1.69915959239 -1.24605029821,-2.60537803173 l-2.60537803173,-1.92571416497 -0.113277304918,-3.85142832994 l0.339831896126,-0.792941153049 m0.566386505961,-0.45310921967 l1.35932758451,-0.566386505961 m0.792941153049,-0.226554609835 l4.41781491041,-0.792941153049 m1.92571416497,1.13277301192 l1.69915959239,1.92571416497 0.113277304918,2.03899145126 l-1.13277301192,1.13277301192 -0.906218439341,0.339831896126 l-2.37882331014,-0.113277304918 -0.906218439341,0.906218439341 l2.49210059643,4.53109204769 0.45310921967,2.71865516901 m-3.96470546722,3.51159632206 l-2.26554602385,0.792941153049 m-2.71865516901,0.339831896126 l-2.71865516901,-0.339831896126 -5.09747862816,-1.5858823061 m-4.98420119286,2.26554602385 l-4.87092405558,0.339831896126 m26.5068888664,-5.09747862816 l-1.69915959239,2.94520974159 -2.71865516901,2.37882331014 l-2.71865516901,0.906218439341 -4.07798290253,0.339831896126 l-9.74184811115,-3.28504174948 -3.51159632206,-0.45310921967 l-3.96470546722,0.566386505961 -3.96470546722,-0.113277304918 l-4.75764662027,-0.679663792253 -1.01949572563,-1.92571416497 l-1.4726048708,-1.4726048708 3.1717646122,-1.5858823061 l2.15226873755,-1.81243687868 m6.3435292244,3.62487375736 l-3.39831918478,19.9368047714 -0.906218439341,3.0584871769 m4.98420119286,-20.2766370773 l-2.03899145126,7.13647007942 -1.69915959239,9.51529324055 l-1.4726048708,5.43731033802 m33.9831900597,-36.5885686874 l0.679663792253,-0.566386505961 2.26554602385,-0.45310921967 l2.37882331014,0.0 1.4726048708,0.566386505961 l3.96470546722,3.28504174948 2.60537803173,1.13277301192 l-0.679663792253,-0.679663792253 -0.679663792253,-0.113277304918 l-3.39831918478,0.566386505961 -3.1717646122,-0.113277304918 l-2.83193260431,-1.13277301192 0.679663792253,-0.226554609835 l6.79663836956,2.94520974159 m2.26554602385,0.906218439341 m163.263874054,-12.0640254021 l-10.081679821,0.792941153049 -4.53109204769,1.01949572563 l-1.35932758451,1.5858823061 -0.792941153049,2.26554602385 l-0.566386505961,4.64436948299 0.113277304918,2.94520974159 l6.45680606365,-2.15226873755 12.800334692,-1.5858823061 m-2.37882331014,-9.85512554646 l0.679663792253,-0.45310921967 12.4605035782,-0.45310921967 m-9.62857067585,2.49210059643 l3.85142832994,0.0 3.85142832994,-0.679663792253 m-4.41781491041,0.679663792253 l0.226554609835,2.37882331014 m-6.00369691849,6.00369691849 l1.5858823061,1.13277301192 1.4726048708,2.94520974159 l0.226554609835,6.57008349895 -0.679663792253,5.21075606346 l-0.113277304918,8.49579751492 0.339831896126,3.39831918478 l1.5858823061,5.55058777332 m5.89041948318,-44.7445344925 l1.81243687868,3.0584871769 0.906218439341,4.64436948299 l0.0,6.68336093426 -1.4726048708,10.4215121269 l-0.113277304918,3.1717646122 0.113277304918,3.39831918478 l0.566386505961,3.28504174948 1.5858823061,5.21075606346 m13.2534444332,-5.09747862816 l-0.566386505961,-0.339831896126 -1.24605029821,0.0 l-2.71865516901,0.45310921967 -5.43731033802,3.1717646122 l-9.28873896599,3.51159632206 0.113277304918,0.679663792253 l2.94520974159,3.85142832994 3.73815089464,2.26554602385 l2.37882331014,0.679663792253 9.28873896599,1.13277301192 l6.90991520882,0.0 3.39831918478,-0.339831896126 l6.57008349895,-1.35932758451 5.32403349876,-1.69915959239 l4.30453747511,-2.03899145126 3.0584871769,-2.71865516901 m-28.2060480118,-6.57008349895 l7.81613409519,0.113277304918 8.49579751492,1.5858823061 l4.30453747511,1.81243687868 -1.81243687868,0.45310921967 l8.72235238552,2.49210059643 1.24605029821,0.566386505961 l1.24605029821,1.5858823061 m-72.6107501984,-39.9868869781 l1.5858823061,0.0 1.24605029821,1.4726048708 l0.679663792253,3.0584871769 0.0,3.73815089464 m14.1596627235,25.7139468193 l1.24605029821,4.41781491041 3.39831918478,8.04268836975 m44.178147316,-6.00369691849 l0.679663792253,-0.45310921967 4.64436948299,-0.792941153049 l9.85512554646,-2.60537803173 -2.71865516901,7.92941093445 l-1.81243687868,3.51159632206 -2.15226873755,1.24605029821 l-7.36302495003,0.339831896126 m-27.6396608353,-16.1986541748 l2.37882331014,0.0 7.24974751472,2.37882331014 l-2.94520974159,4.41781491041 -2.49210059643,2.60537803173 l1.35932758451,0.226554609835 2.37882331014,-0.792941153049 l3.39831918478,-0.339831896126 0.792941153049,0.566386505961 l0.113277304918,1.69915959239 -2.71865516901,2.49210059643 m200.078988075,-39.8169672489 l-0.226554609835,7.13647007942 -2.26554602385,15.2924358845 m9.96840238571,-23.4484004974 l-0.45310921967,3.0584871769 -0.339831896126,10.4215121269 l-0.792941153049,10.081679821 m-8.26924324036,-2.26554602385 l-1.01949572563,12.5737810135 -1.92571416497,12.4605035782 l-0.113277304918,2.94520974159 m10.9878981113,-25.4873919487 l-0.679663792253,5.55058777332 0.0,8.83562982082 l-0.45310921967,6.00369691849 m10.3082346916,-43.8383150101 l0.566386505961,2.60537803173 2.60537803173,3.96470546722 l8.60907495022,16.651763916 1.24605029821,2.15226873755 l1.24605029821,1.35932758451 -1.92571416497,0.45310921967 l-4.64436948299,2.49210059643 -13.2534444332,9.17546153069 l-2.26554602385,2.15226873755 m0.339831896126,-33.7566351891 l3.62487375736,7.47630178928 2.71865516901,4.64436948299 l2.49210059643,5.66386520863 m0.113277304918,-0.566386505961 l-9.28873896599,8.72235238552 m33.0769729614,-33.6433577538 l1.5858823061,2.37882331014 1.35932758451,3.0584871769 l0.792941153049,2.83193260431 0.0,1.92571416497 m0.45310921967,-1.01949572563 l-0.45310921967,0.566386505961 -2.60537803173,7.70285665989 l0.0,3.1717646122 0.679663792253,1.4726048708 l3.73815089464,6.23025178909 2.71865516901,5.55058777332 l1.35932758451,1.35932758451 2.26554602385,-0.679663792253 l2.60537803173,-4.07798290253 0.226554609835,-2.03899145126 l-0.679663792253,-6.00369691849 0.566386505961,-11.2144529819 l-3.73815089464,-6.23025178909 -2.83193260431,-7.58957922459 m5.09747862816,26.5068888664 l-0.906218439341,-0.792941153049 -4.53109204769,0.0 l-1.24605029821,0.679663792253 -2.37882331014,2.83193260431 l-0.339831896126,0.906218439341 m7.47630178928,4.64436948299 l-0.792941153049,-3.0584871769 m0.906218439341,-12.800334692 l-0.226554609835,1.24605029821 m134.774618149,10.1949584484 l2.03899145126,0.792941153049 4.30453747511,0.679663792253 l5.77714264393,0.45310921967 6.68336093426,0.0 l25.4873919487,-1.69915959239 25.3741168976,0.0 l22.9952931404,-1.24605029821 28.7724351883,1.81243687868 l7.70285665989,0.113277304918 0.906218439341,0.113277304918 l-0.679663792253,0.226554609835 m-59.697136879,6.90991520882 l0.679663792253,-2.49210059643 0.45310921967,-5.55058777332 m-0.226554609835,8.72235238552 l-1.35932758451,0.0 -4.30453747511,1.01949572563 l-3.85142832994,1.5858823061 m9.74184811115,-2.37882331014 l3.39831918478,3.0584871769 2.37882331014,1.01949572563 m-6.57008349895,-2.37882331014 l0.45310921967,3.28504174948 m1.01949572563,-11.7808389664 l-1.01949572563,-6.00369691849 -1.81243687868,-6.11697435379 l-2.15226873755,-9.74184811115 -0.113277304918,-2.49210059643 l0.566386505961,-0.566386505961 m-14.3862175941,-3.1717646122 l2.03899145126,1.5858823061 2.26554602385,1.13277301192 l2.94520974159,0.792941153049 4.87092405558,0.339831896126 l15.6322681904,-2.15226873755 1.92571416497,-0.792941153049 l0.906218439341,-1.13277301192 0.45310921967,-1.92571416497 l0.0,-2.49210059643 -0.566386505961,-2.26554602385 l-0.792941153049,-1.35932758451 -1.4726048708,-0.45310921967 l-5.09747862816,0.113277304918 -8.04268836975,-1.01949572563 l-5.77714264393,0.339831896126 -4.19126033783,1.24605029821 l-4.07798290253,1.92571416497 -1.01949572563,0.679663792253 l0.792941153049,3.85142832994 m1.24605029821,-1.69915959239 l-1.92571416497,-0.113277304918 -4.53109204769,1.01949572563 l-1.01949572563,2.15226873755 -2.83193260431,8.94890666008 l-1.13277301192,6.45680606365 0.45310921967,14.1596627235 l6.00369691849,0.45310921967 4.07798290253,1.13277301192 l0.566386505961,0.339831896126 0.113277304918,0.566386505961 l-0.226554609835,2.71865516901 -1.01949572563,0.679663792253 l-6.45680606365,0.113277304918 -13.4799993038,-2.03899145126 l8.49579751492,-3.39831918478 4.30453747511,-0.45310921967 m30.8114266396,-29.4520998001 l1.35932758451,3.85142832994 1.01949572563,5.43731033802 l-1.81243687868,5.66386520863 m3.51159632206,-6.45680606365 l3.51159632206,6.90991520882 1.69915959239,1.35932758451 l0.906218439341,-0.226554609835 m-7.70285665989,-5.43731033802 l1.92571416497,1.13277301192 " fill="none" stroke="black" stroke-width="1" /></svg>