<?xml version="1.0" encoding="utf-8" ?>
<svg baseProfile="full" height="286.065706089" version="1.1" width="732.542182934" xmlns="http://www.w3.org/2000/svg" xmlns:ev="http://www.w3.org/2001/xml-events" xmlns:xlink="http://www.w3.org/1999/xlink"><defs /><rect fill="none" height="286.065706089" width="732.542182934" x="0" y="0" /><path d="M25,26.0630236566 m0.0,0.0 m27.3194909096,31.9006717205 l0.339831896126,-2.83193260431 2.37882331014,-1.5858823061 l3.96470546722,0.0 0.792941153049,-0.792941153049 l3.96470546722,0.0 0.792941153049,-0.792941153049 l3.1717646122,0.0 1.5858823061,-0.792941153049 l3.1717646122,0.0 2.37882331014,-0.792941153049 l6.3435292244,0.0 1.5858823061,0.792941153049 l3.1717646122,0.0 1.5858823061,1.5858823061 l3.51159632206,1.13277301192 2.37882331014,2.37882331014 l1.24605029821,0.45310921967 3.96470546722,0.0 l0.792941153049,0.792941153049 0.792941153049,0.0 l1.92571416497,-2.71865516901 0.0,-5.55058777332 l0.792941153049,-3.1717646122 -0.679663792253,-0.792941153049 l0.0,-2.37882331014 -0.792941153049,-0.792941153049 l0.0,-4.75764662027 -0.792941153049,-3.1717646122 l-1.5858823061,-1.5858823061 -2.37882331014,-1.5858823061 l0.0,-3.96470546722 0.679663792253,-0.792941153049 l2.03899145126,-0.45310921967 0.792941153049,-0.792941153049 l9.51529324055,0.0 1.5858823061,1.5858823061 l1.13277301192,0.339831896126 2.83193260431,2.83193260431 l0.792941153049,0.0 1.92571416497,1.92571416497 l0.0,0.792941153049 -1.13277301192,0.45310921967 l-1.5858823061,-1.5858823061 -0.792941153049,0.0 l-0.792941153049,-0.792941153049 -6.3435292244,0.0 l-0.339831896126,1.13277301192 0.0,7.92941093445 l0.679663792253,2.37882331014 0.0,15.8588218689 l-0.679663792253,0.792941153049 0.0,1.5858823061 l-0.792941153049,0.792941153049 0.0,2.37882331014 l-0.792941153049,0.792941153049 0.0,1.5858823061 l-0.792941153049,0.792941153049 0.0,1.5858823061 l-1.24605029821,0.45310921967 -1.13277301192,1.13277301192 l-3.62487375736,2.03899145126 -0.792941153049,0.792941153049 l-0.792941153049,0.0 -0.792941153049,0.792941153049 l-1.92571416497,0.339831896126 -2.83193260431,2.03899145126 l-4.75764662027,0.0 -0.339831896126,1.13277301192 l0.0,16.651763916 -1.5858823061,2.03899145126 l0.0,5.89041948318 0.0,-13.3667218685 l-0.792941153049,-1.5858823061 0.0,-3.96470546722 l-0.792941153049,-3.1717646122 -1.5858823061,-1.5858823061 m122.548754811,-14.6127745509 l-1.5858823061,-2.26554602385 0.0,-0.792941153049 l-0.792941153049,0.0 -0.792941153049,-1.5858823061 l-1.5858823061,-1.5858823061 -2.37882331014,-2.03899145126 l-0.792941153049,0.0 -0.792941153049,-0.792941153049 l-1.92571416497,-0.792941153049 -1.5858823061,-0.339831896126 l-3.96470546722,0.0 -3.62487375736,2.71865516901 l0.0,0.792941153049 -0.792941153049,0.339831896126 l0.0,0.792941153049 -0.792941153049,0.45310921967 l-0.339831896126,1.5858823061 -0.792941153049,0.339831896126 l-0.792941153049,1.5858823061 0.0,4.75764662027 l0.339831896126,1.5858823061 0.792941153049,0.45310921967 l0.0,0.792941153049 0.792941153049,1.5858823061 l3.1717646122,3.51159632206 5.09747862816,2.37882331014 l2.37882331014,0.0 0.792941153049,0.45310921967 l8.72235238552,0.0 2.83193260431,-0.792941153049 l0.792941153049,-0.792941153049 1.5858823061,0.0 l1.92571416497,-1.13277301192 0.45310921967,-0.792941153049 l0.339831896126,-16.651763916 0.45310921967,-1.5858823061 l0.0,-2.03899145126 0.792941153049,-2.37882331014 l0.0,-2.37882331014 0.339831896126,-2.37882331014 l0.45310921967,-0.792941153049 0.0,-2.37882331014 l0.792941153049,-0.339831896126 0.0,-0.792941153049 l3.96470546722,0.0 4.75764662027,2.26554602385 l2.37882331014,0.0 0.792941153049,-1.4726048708 l0.339831896126,-1.5858823061 0.0,-1.5858823061 l-0.679663792253,-1.5858823061 -1.5858823061,-1.24605029821 l-5.55058777332,-2.37882331014 -7.58957922459,0.0 l-2.37882331014,3.51159632206 -1.5858823061,3.1717646122 l0.0,1.5858823061 -1.13277301192,3.1717646122 l-0.792941153049,6.3435292244 -0.45310921967,0.792941153049 l0.0,1.5858823061 -0.792941153049,2.37882331014 l0.0,4.75764662027 m-5.55058777332,15.9720993042 l-0.339831896126,3.85142832994 -1.24605029821,3.1717646122 l0.0,1.5858823061 -0.792941153049,2.03899145126 l-0.339831896126,2.37882331014 0.679663792253,0.0 m10.7613432407,-14.6127724648 l0.0,2.26554602385 1.13277301192,3.1717646122 l2.03899145126,3.96470546722 1.5858823061,7.92941093445 m95.7586550713,-11.6675642133 l-0.679663792253,16.651763916 1.24605029821,0.566386505961 m0.0,0.0 l0.0,0.0 m0.0,0.0 l0.0,0.0 m0.0,0.0 l0.0,0.0 m0.0,0.0 l0.0,0.0 m0.0,0.0 l1.24605029821,0.906218439341 -0.45310921967,0.226554609835 l-1.81243687868,0.226554609835 0.0,-0.906218439341 m0.0,-1.01949572563 l0.0,-0.566386505961 m8.49579751492,-14.1596627235 l0.0,11.5542852879 -0.566386505961,-0.113277304918 l-0.679663792253,-1.5858823061 -1.13277301192,-1.24605029821 l-0.792941153049,-2.37882331014 -0.566386505961,1.69915959239 l0.0,-1.24605029821 m0.0,-0.226554609835 l0.0,-0.45310921967 m-1.92571416497,-18.2376456261 l0.0,0.0 m0.0,0.0 l-1.35932758451,-0.679663792253 -2.71865516901,0.0 l-1.13277301192,0.566386505961 -2.15226873755,1.69915959239 l-0.679663792253,1.35932758451 -0.566386505961,1.24605029821 l0.0,1.01949572563 0.566386505961,0.566386505961 l5.77714264393,2.83193260431 2.71865516901,0.339831896126 l1.5858823061,0.566386505961 1.69915959239,0.0 l2.49210059643,-1.35932758451 2.83193260431,-2.83193260431 l2.03899145126,-0.792941153049 3.62487375736,0.0 l1.92571416497,0.906218439341 2.26554602385,1.69915959239 l2.37882331014,2.71865516901 1.69915959239,2.60537803173 l1.13277301192,1.13277301192 1.69915959239,0.45310921967 l4.19126033783,-2.71865516901 0.792941153049,-0.906218439341 l2.15226873755,-3.51159632206 0.792941153049,-6.11697435379 l3.85142832994,-2.03899145126 0.566386505961,-0.566386505961 l0.113277304918,-1.01949572563 -2.60537803173,-0.566386505961 l-0.906218439341,0.0 -0.45310921967,0.45310921967 l-2.26554602385,4.53109204769 -0.679663792253,2.49210059643 l-2.26554602385,3.62487375736 -2.94520974159,2.26554602385 l-1.81243687868,-0.113277304918 -1.5858823061,-1.01949572563 l-0.566386505961,-1.24605029821 0.0,-4.64436948299 l-0.566386505961,-2.03899145126 -1.24605029821,-0.566386505961 l-3.1717646122,-4.19126033783 -2.15226873755,-1.69915959239 l-9.17546153069,-0.226554609835 -1.92571416497,-0.339831896126 l-2.49210059643,0.0 -1.69915959239,0.45310921967 l-1.13277301192,0.792941153049 -1.69915959239,2.83193260431 l-0.226554609835,2.83193260431 m0.792941153049,8.15596580505 l0.0,0.0 m0.0,0.0 l0.0,1.5858823061 m132.290592939,10.5914252996 l-0.339831896126,-0.679663792253 0.0,-5.21075606346 l0.339831896126,-0.792941153049 0.0,-2.71865516901 l0.45310921967,-0.792941153049 0.339831896126,-4.75764662027 m2.49210059643,15.0658810139 l0.679663792253,-2.83193260431 0.0,-4.75764662027 l0.45310921967,-1.13277301192 0.0,-5.55058777332 l0.339831896126,-0.792941153049 0.0,-3.96470546722 l0.45310921967,-0.792941153049 0.0,-2.83193260431 m-5.09747862816,8.72235238552 l1.4726048708,-9.85512554646 m-0.679663792253,0.0 l-0.792941153049,-0.45310921967 -2.37882331014,0.0 l-1.5858823061,0.792941153049 -0.792941153049,0.0 l-3.96470546722,1.92571416497 -1.24605029821,1.5858823061 l-0.792941153049,0.45310921967 0.0,-1.13277301192 l0.792941153049,-0.45310921967 3.96470546722,-5.89041948318 l2.37882331014,-2.03899145126 1.5858823061,-0.339831896126 l0.0,-0.45310921967 m-0.339831896126,0.0 l1.4726048708,0.339831896126 3.96470546722,-0.679663792253 l3.1717646122,-1.24605029821 6.00369691849,0.0 l0.792941153049,-0.339831896126 0.339831896126,-0.792941153049 l0.0,-2.37882331014 -0.339831896126,-0.792941153049 l-0.339831896126,-4.75764662027 -0.45310921967,-0.792941153049 l-0.339831896126,-4.75764662027 -0.45310921967,-0.792941153049 l-0.339831896126,-2.37882331014 0.0,-3.96470546722 l1.4726048708,-0.792941153049 1.5858823061,0.0 l0.792941153049,-0.45310921967 3.1717646122,0.0 l3.1717646122,1.5858823061 0.0,1.5858823061 l-3.51159632206,0.0 2.37882331014,0.339831896126 l0.0,0.792941153049 -0.792941153049,0.45310921967 l-0.792941153049,1.5858823061 -0.792941153049,0.0 l-0.792941153049,1.5858823061 -0.339831896126,5.89041948318 l-0.45310921967,1.5858823061 0.0,9.17546153069 l-1.5858823061,6.68336093426 -0.792941153049,1.24605029821 l-2.71865516901,1.13277301192 -3.1717646122,0.0 l-2.83193260431,-0.679663792253 0.0,-1.24605029821 m3.62487375736,-5.55058777332 l0.0,3.1717646122 -0.45310921967,1.92571416497 l-2.71865516901,-2.26554602385 -0.792941153049,0.0 l-1.5858823061,-0.792941153049 -1.24605029821,-1.5858823061 l0.792941153049,-0.45310921967 1.13277301192,0.339831896126 l4.41781491041,0.0 1.13277301192,-0.339831896126 m107.935963869,18.7473893166 l0.0,10.6480669975 -0.45310921967,0.792941153049 l0.0,5.09747862816 m0.0,-0.339831896126 l-1.5858823061,0.339831896126 -0.339831896126,1.5858823061 l0.679663792253,0.792941153049 1.5858823061,0.45310921967 l0.792941153049,-0.339831896126 0.45310921967,-0.792941153049 l0.0,-0.792941153049 -1.5858823061,-0.45310921967 l0.0,-0.792941153049 -0.792941153049,-0.339831896126 l0.0,-0.45310921967 m2.37882331014,-8.38252067566 l7.13647007942,0.0 2.37882331014,-1.13277301192 l0.0,-1.5858823061 -1.5858823061,-0.339831896126 l-3.51159632206,0.0 m0.0,0.0 l0.0,0.0 m0.0,-0.45310921967 l0.0,-3.96470546722 0.679663792253,-0.792941153049 l4.75764662027,0.0 2.37882331014,-1.13277301192 l0.45310921967,-1.5858823061 0.0,-6.00369691849 l-0.339831896126,-1.5858823061 -0.792941153049,-0.792941153049 l0.0,-0.792941153049 -0.792941153049,-0.339831896126 l-1.5858823061,-2.03899145126 -3.62487375736,-2.37882331014 l-0.339831896126,-0.792941153049 -0.792941153049,0.0 l-2.37882331014,-1.5858823061 -4.75764662027,0.0 l-1.5858823061,0.339831896126 -0.792941153049,0.792941153049 l-3.62487375736,1.5858823061 -1.5858823061,1.24605029821 l-0.339831896126,0.792941153049 -0.792941153049,0.339831896126 l-1.24605029821,1.5858823061 -0.339831896126,1.5858823061 l0.0,5.21075606346 1.13277301192,2.37882331014 l0.792941153049,0.339831896126 0.339831896126,0.792941153049 l0.792941153049,0.45310921967 3.1717646122,1.13277301192 l9.17546153069,0.0 m5.55058777332,-15.4057133198 l0.792941153049,-0.339831896126 1.13277301192,-2.03899145126 l0.792941153049,-0.339831896126 3.96470546722,-4.41781491041 l2.83193260431,-4.30453747511 0.792941153049,-0.45310921967 l0.792941153049,-1.92571416497 m0.792941153049,-1.24605029821 l-0.792941153049,0.339831896126 -1.13277301192,1.5858823061 l-0.45310921967,1.5858823061 1.5858823061,1.24605029821 l2.37882331014,-0.339831896126 0.792941153049,-1.5858823061 l-1.92571416497,-0.792941153049 m-0.45310921967,-2.03899145126 l1.5858823061,0.792941153049 0.339831896126,0.792941153049 m0.0,0.339831896126 l1.5858823061,-0.339831896126 3.96470546722,0.0 l-0.339831896126,0.792941153049 -1.5858823061,0.792941153049 l-3.1717646122,0.0 m-22.5421833992,34.8894095421 l1.4726048708,0.0 0.45310921967,1.5858823061 l-0.792941153049,0.0 m130.87462157,-42.5356298685 l-2.37882331014,0.0 -0.792941153049,0.339831896126 l-0.339831896126,0.792941153049 -1.5858823061,0.792941153049 l-0.45310921967,0.792941153049 0.0,1.5858823061 l-1.13277301192,2.37882331014 -3.62487375736,3.96470546722 l-8.72235238552,3.51159632206 -0.792941153049,1.5858823061 l-0.339831896126,2.37882331014 0.0,3.1717646122 l0.339831896126,0.792941153049 0.792941153049,0.45310921967 l0.792941153049,0.0 1.5858823061,0.792941153049 l7.92941093445,0.0 0.792941153049,-0.339831896126 l0.0,-0.792941153049 0.792941153049,-0.45310921967 l0.0,-0.792941153049 0.792941153049,-0.339831896126 l0.339831896126,-2.37882331014 0.45310921967,-0.792941153049 l0.339831896126,-1.5858823061 0.0,-4.75764662027 l0.792941153049,-1.5858823061 0.0,-0.792941153049 l2.03899145126,-2.37882331014 0.792941153049,0.0 l0.339831896126,-0.792941153049 0.792941153049,-0.45310921967 l0.0,-0.792941153049 1.5858823061,0.0 l0.45310921967,0.792941153049 0.792941153049,0.0 l2.37882331014,1.13277301192 1.5858823061,0.0 l0.0,-1.4726048708 -2.37882331014,-0.792941153049 l-1.13277301192,-1.5858823061 0.0,-0.792941153049 l-2.37882331014,-0.45310921967 -0.45310921967,-1.13277301192 m-15.0658810139,23.674955368 l-0.339831896126,2.37882331014 -0.45310921967,0.792941153049 l-0.339831896126,3.62487375736 -0.45310921967,0.792941153049 l0.0,1.5858823061 -0.792941153049,0.339831896126 l-0.339831896126,1.5858823061 -0.792941153049,1.24605029821 m0.0,0.0 l-0.45310921967,0.0 m-574.965714812,35.2554655075 l-0.792941153049,0.0 -1.5858823061,-0.792941153049 l-4.30453747511,-0.339831896126 -0.792941153049,-0.45310921967 l-5.55058777332,0.0 -1.5858823061,0.792941153049 l-0.792941153049,1.13277301192 -0.792941153049,0.45310921967 l0.0,0.792941153049 -1.24605029821,2.37882331014 l0.0,5.89041948318 0.339831896126,2.03899145126 l2.83193260431,6.68336093426 0.0,1.24605029821 l-9.51529324055,-0.339831896126 -0.792941153049,-0.45310921967 l-1.5858823061,0.0 -2.37882331014,0.792941153049 l-1.5858823061,0.0 -1.5858823061,1.92571416497 l0.0,1.5858823061 0.792941153049,1.5858823061 l0.792941153049,0.792941153049 3.96470546722,2.03899145126 l3.1717646122,0.792941153049 10.6480669975,0.0 l0.792941153049,-0.339831896126 2.03899145126,0.0 l1.13277301192,-1.5858823061 0.0,-3.96470546722 l-1.4726048708,-3.96470546722 0.0,-1.5858823061 l-0.45310921967,-0.792941153049 -0.339831896126,-3.96470546722 l-0.45310921967,-1.24605029821 0.0,-0.792941153049 l1.13277301192,-2.37882331014 -0.339831896126,-1.5858823061 l1.5858823061,-1.5858823061 2.37882331014,-1.13277301192 l4.30453747511,0.0 3.62487375736,0.679663792253 l3.1717646122,0.0 3.1717646122,-2.26554602385 l1.13277301192,-1.5858823061 -0.679663792253,-0.45310921967 l-8.72235238552,0.339831896126 m2.26554602385,1.5858823061 l0.45310921967,-0.339831896126 m2.71865516901,-0.339831896126 l-0.339831896126,0.0 m-28.0927705765,27.2998309135 l-0.45310921967,1.5858823061 0.0,3.51159632206 l-0.339831896126,1.5858823061 0.0,8.72235238552 l0.339831896126,1.24605029821 0.0,9.06218409538 l0.339831896126,0.792941153049 0.45310921967,-1.4726048708 m8.38252067566,-25.3741168976 l-0.45310921967,0.679663792253 -0.792941153049,3.96470546722 l-0.339831896126,9.96840238571 -0.792941153049,3.51159632206 l0.0,7.92941093445 m135.972097516,-43.3852052689 l1.4726048708,0.45310921967 -2.03899145126,-1.13277301192 l0.566386505961,0.0 0.226554609835,-1.13277301192 l0.0,-0.566386505961 -0.566386505961,-0.45310921967 l-0.566386505961,-0.113277304918 -0.679663792253,0.45310921967 l0.0,1.5858823061 0.792941153049,0.339831896126 l0.792941153049,-0.226554609835 0.0,-1.24605029821 l-1.24605029821,-0.45310921967 -1.4726048708,0.0 l-1.01949572563,1.24605029821 1.01949572563,0.906218439341 l1.24605029821,0.113277304918 0.792941153049,-0.339831896126 l0.0,-1.13277301192 -0.906218439341,-0.792941153049 l-1.69915959239,0.339831896126 0.0,1.13277301192 l1.01949572563,0.906218439341 1.4726048708,0.0 l0.113277304918,-1.24605029821 -1.13277301192,-1.01949572563 l-2.03899145126,0.226554609835 0.339831896126,1.01949572563 l1.5858823061,0.906218439341 1.24605029821,0.113277304918 l0.113277304918,-1.92571416497 -0.679663792253,-0.792941153049 l-1.24605029821,-0.226554609835 -0.679663792253,0.339831896126 l0.113277304918,1.13277301192 0.679663792253,0.679663792253 l2.03899145126,0.566386505961 0.113277304918,-2.15226873755 l-0.566386505961,-0.566386505961 -1.13277301192,-0.113277304918 l-0.45310921967,1.13277301192 0.339831896126,0.566386505961 l2.37882331014,0.566386505961 -0.566386505961,-1.35932758451 l-1.13277301192,-0.339831896126 -0.792941153049,0.113277304918 l0.0,0.792941153049 0.226554609835,0.566386505961 l0.792941153049,0.339831896126 0.339831896126,-0.679663792253 l-2.37882331014,-0.792941153049 -3.51159632206,0.0 l-0.566386505961,0.339831896126 -0.45310921967,0.566386505961 l-0.566386505961,2.37882331014 0.226554609835,9.74184811115 l-0.339831896126,0.566386505961 -1.24605029821,0.226554609835 l-1.69915959239,-0.45310921967 -3.73815089464,0.0 l-1.69915959239,0.792941153049 -0.679663792253,0.792941153049 l-0.113277304918,3.0584871769 0.679663792253,0.566386505961 l2.26554602385,0.906218439341 3.51159632206,0.113277304918 l0.792941153049,-0.45310921967 0.792941153049,-1.35932758451 l0.113277304918,-2.94520974159 -1.24605029821,-1.13277301192 l-3.51159632206,0.113277304918 0.113277304918,0.226554609835 m-0.339831896126,5.55058777332 l0.113277304918,14.4994950294 m-0.113277304918,-0.226554609835 l-0.45310921967,2.37882331014 -0.566386505961,1.13277301192 l-0.113277304918,-0.226554609835 m1.13277301192,-3.51159632206 l0.679663792253,0.792941153049 1.5858823061,3.62487375736 m123.285042644,-27.9228550196 l-4.07798290253,1.69915959239 -0.679663792253,0.0 l-2.71865516901,1.35932758451 -0.339831896126,0.679663792253 l-0.679663792253,0.339831896126 -1.01949572563,2.03899145126 l0.0,4.07798290253 0.339831896126,0.679663792253 l0.679663792253,0.679663792253 4.75764662027,2.03899145126 l3.39831918478,0.679663792253 2.03899145126,0.0 l1.35932758451,-0.679663792253 0.339831896126,-0.679663792253 l0.679663792253,-0.339831896126 1.01949572563,-1.35932758451 l1.35932758451,-0.679663792253 1.01949572563,-1.35932758451 l1.35932758451,-3.39831918478 0.0,-2.03899145126 l-0.679663792253,-1.35932758451 -0.679663792253,0.0 l-2.03899145126,-1.01949572563 -6.79663836956,-1.69915959239 m-1.35932758451,14.2729401588 l0.339831896126,0.679663792253 0.0,6.45680606365 l0.339831896126,0.679663792253 0.0,9.17546153069 l-0.679663792253,2.71865516901 0.0,2.03899145126 l-0.339831896126,2.03899145126 -3.39831918478,0.679663792253 l-0.679663792253,0.339831896126 0.339831896126,0.0 m3.73815089464,-1.35932758451 l0.0,0.679663792253 -2.03899145126,4.07798290253 m-2.03899145126,-38.740837574 l-2.03899145126,-0.339831896126 -0.339831896126,-2.71865516901 l0.339831896126,-2.71865516901 3.39831918478,-7.47630178928 l0.679663792253,-3.39831918478 0.0,-3.39831918478 l-0.679663792253,-0.339831896126 -1.35932758451,-1.69915959239 l-2.03899145126,-1.01949572563 -2.71865516901,0.0 l-1.69915959239,1.35932758451 -0.679663792253,1.35932758451 l-1.69915959239,1.35932758451 0.0,-0.679663792253 l-0.679663792253,-0.339831896126 -0.339831896126,-0.679663792253 l-0.679663792253,0.0 -0.679663792253,-1.35932758451 l0.339831896126,-2.03899145126 1.35932758451,-0.679663792253 l0.339831896126,-0.679663792253 2.03899145126,-0.679663792253 l2.03899145126,0.0 4.75764662027,1.35932758451 l4.07798290253,2.03899145126 1.35932758451,2.03899145126 l0.0,10.874620676 -0.679663792253,2.03899145126 l-1.35932758451,2.03899145126 -1.35932758451,4.75764662027 l0.0,1.35932758451 m133.649913669,3.05848926306 l-1.5858823061,0.792941153049 -3.1717646122,0.339831896126 l-1.13277301192,0.792941153049 -1.24605029821,0.0 l-1.92571416497,0.792941153049 -2.03899145126,0.0 l-2.71865516901,0.792941153049 -4.75764662027,0.0 l-3.96470546722,-1.13277301192 -1.24605029821,0.0 l-0.339831896126,-0.792941153049 -2.03899145126,-0.792941153049 l-1.13277301192,-1.92571416497 -0.792941153049,-0.45310921967 l-0.45310921967,-1.13277301192 -0.792941153049,-0.792941153049 l-0.792941153049,-1.5858823061 0.0,-3.62487375736 l-0.339831896126,-0.792941153049 1.4726048708,-1.13277301192 l4.41781491041,0.0 2.71865516901,1.13277301192 l1.5858823061,0.0 1.5858823061,0.792941153049 l3.96470546722,-0.339831896126 4.41781491041,0.679663792253 l8.26924324036,0.0 0.792941153049,-0.339831896126 l0.45310921967,-0.792941153049 0.0,-0.792941153049 l0.792941153049,-1.5858823061 0.339831896126,-2.71865516901 l2.83193260431,-6.00369691849 3.1717646122,-3.51159632206 l1.92571416497,-0.792941153049 0.792941153049,0.0 l0.45310921967,0.679663792253 0.0,2.83193260431 l-2.71865516901,3.51159632206 0.0,0.792941153049 l-1.5858823061,1.24605029821 -0.792941153049,4.30453747511 l-1.24605029821,1.5858823061 0.0,1.5858823061 l-0.792941153049,1.5858823061 -0.339831896126,4.75764662027 l-0.792941153049,0.45310921967 0.0,0.792941153049 l-2.83193260431,0.792941153049 m-19.8235285282,2.83193260431 l-0.339831896126,7.02319264412 -0.45310921967,0.792941153049 l-0.339831896126,4.75764662027 -0.45310921967,0.792941153049 l0.0,6.00369691849 -0.339831896126,0.792941153049 l0.339831896126,5.89041948318 1.13277301192,-2.71865516901 m8.83562982082,-23.3351254463 l0.0,10.1949572563 -0.45310921967,1.24605029821 l-0.792941153049,7.47630178928 -0.792941153049,2.37882331014 l0.0,2.83193260431 -0.339831896126,0.792941153049 l0.0,1.13277301192 0.339831896126,-1.4726048708 m110.258157849,-49.3322625756 l0.113277304918,-1.13277301192 1.01949572563,-1.92571416497 l2.37882331014,-2.15226873755 2.37882331014,-0.792941153049 l2.83193260431,0.113277304918 4.64436948299,3.51159632206 l2.71865516901,4.30453747511 0.906218439341,2.71865516901 l0.566386505961,4.41781491041 0.113277304918,4.87092405558 l-1.4726048708,11.3277304173 -2.37882331014,-0.679663792253 l-2.71865516901,0.0 -1.13277301192,0.679663792253 l-1.81243687868,1.81243687868 -1.01949572563,2.37882331014 l-1.01949572563,3.85142832994 0.113277304918,4.87092405558 l1.35932758451,5.55058777332 2.26554602385,3.0584871769 l3.0584871769,2.03899145126 6.00369691849,2.71865516901 l4.41781491041,1.35932758451 7.92941093445,-0.113277304918 l4.53109204769,-1.01949572563 3.62487375736,-3.73815089464 l2.71865516901,-4.87092405558 0.45310921967,-1.5858823061 l-0.339831896126,-6.57008349895 -0.792941153049,-2.60537803173 l-0.792941153049,-1.13277301192 -1.35932758451,-1.13277301192 l-4.07798290253,-2.15226873755 -2.60537803173,-0.792941153049 l-4.75764662027,-0.792941153049 -4.53109204769,-0.45310921967 l-5.66386520863,0.0 0.45310921967,-1.81243687868 l0.113277304918,-5.43731033802 1.35932758451,-6.3435292244 l0.0,-6.57008349895 -0.566386505961,-4.64436948299 l-0.566386505961,-1.69915959239 -1.24605029821,-1.92571416497 l-2.71865516901,-1.92571416497 -2.83193260431,-2.71865516901 l-2.37882331014,-1.13277301192 -3.28504174948,-0.679663792253 l-3.96470546722,0.113277304918 -2.26554602385,0.792941153049 l-1.13277301192,0.792941153049 -1.24605029821,1.81243687868 l-0.566386505961,1.81243687868 0.0,1.69915959239 l0.566386505961,1.81243687868 1.13277301192,0.792941153049 l1.13277301192,-0.339831896126 -0.792941153049,-0.339831896126 l-2.37882331014,0.226554609835 -3.85142832994,1.13277301192 l-1.69915959239,1.24605029821 -1.01949572563,1.24605029821 l-0.45310921967,1.24605029821 0.0,1.69915959239 l0.792941153049,0.339831896126 2.37882331014,-0.113277304918 l0.566386505961,-0.339831896126 1.4726048708,-1.92571416497 l1.81243687868,-3.96470546722 1.35932758451,-1.92571416497 m0.792941153049,-3.1717646122 l-0.226554609835,0.0 m0.113277304918,-0.113277304918 l0.0,0.0 m0.0,0.0 l0.0,0.0 m0.0,0.0 l0.0,0.0 m136.481847763,14.5561343431 l-4.87092405558,0.0 -1.35932758451,0.45310921967 l-2.83193260431,2.26554602385 -2.15226873755,2.94520974159 l0.0,0.679663792253 0.566386505961,0.566386505961 l2.60537803173,1.69915959239 7.13647007942,1.13277301192 l3.1717646122,0.0 0.906218439341,-0.226554609835 l1.81243687868,-1.24605029821 0.906218439341,-1.92571416497 l0.0,-2.60537803173 -1.24605029821,-2.15226873755 l-1.92571416497,-1.13277301192 -2.60537803173,-0.45310921967 l-4.19126033783,0.0 m-4.53109204769,-2.71865516901 l-0.679663792253,-0.45310921967 -2.94520974159,0.113277304918 l-0.679663792253,0.339831896126 -0.906218439341,1.35932758451 l0.0,1.13277301192 0.679663792253,1.35932758451 l0.679663792253,0.792941153049 1.35932758451,0.45310921967 l4.53109204769,0.0 1.13277301192,-1.24605029821 l0.0,-3.1717646122 -2.15226873755,-1.13277301192 l-3.96470546722,0.113277304918 m0.679663792253,1.24605029821 l-1.81243687868,0.566386505961 -0.906218439341,1.01949572563 l3.62487375736,0.0 m0.566386505961,-1.81243687868 l0.0,-0.113277304918 m7.13647007942,11.6675627232 l0.0,3.28504174948 -0.45310921967,1.35932758451 l0.0,1.81243687868 -0.45310921967,1.24605029821 l0.0,1.81243687868 -0.906218439341,3.85142832994 l0.0,1.35932758451 -0.45310921967,1.81243687868 l-1.35932758451,0.679663792253 0.45310921967,-0.792941153049 l0.566386505961,0.0 1.24605029821,1.92571416497 l1.35932758451,1.24605029821 m-2.71865516901,-2.83193260431 l-0.679663792253,2.37882331014 m-595.468911231,90.4781544209 l0.0,-9.40201640129 -0.339831896126,-1.5858823061 l0.339831896126,-13.1401669979 -0.679663792253,-0.339831896126 l-5.55058777332,0.339831896126 -1.5858823061,-0.339831896126 l-0.792941153049,-0.45310921967 -0.45310921967,-0.792941153049 l-0.792941153049,0.0 0.0,-0.792941153049 l-0.792941153049,0.0 -0.792941153049,-0.792941153049 l-1.92571416497,-3.1717646122 -0.792941153049,-2.71865516901 l0.0,-4.41781491041 0.679663792253,-1.5858823061 l2.03899145126,-1.92571416497 0.792941153049,0.0 l0.339831896126,-0.792941153049 3.1717646122,-1.5858823061 l9.51529324055,0.0 5.21075606346,0.679663792253 l0.792941153049,0.45310921967 1.92571416497,0.0 l2.37882331014,1.13277301192 1.5858823061,3.1717646122 l0.0,1.5858823061 -1.4726048708,3.1717646122 l-0.792941153049,0.45310921967 -1.24605029821,2.37882331014 l-1.5858823061,0.792941153049 -6.3435292244,5.55058777332 l0.0,1.5858823061 1.5858823061,1.13277301192 l1.13277301192,1.5858823061 0.113277304918,0.792941153049 l-1.5858823061,0.0 0.0,0.792941153049 l1.4726048708,0.45310921967 -0.679663792253,0.339831896126 l-1.5858823061,0.0 -0.792941153049,-0.679663792253 l-0.45310921967,-2.37882331014 -0.792941153049,-0.792941153049 l-0.339831896126,-1.5858823061 -0.45310921967,-0.45310921967 m-8.72235238552,-20.6164693832 l-0.339831896126,-0.792941153049 0.0,-11.4410078526 l-0.45310921967,-0.792941153049 -0.339831896126,-3.96470546722 l-0.792941153049,-0.45310921967 -1.5858823061,-0.339831896126 l-3.62487375736,0.0 -1.92571416497,1.13277301192 l-1.5858823061,1.5858823061 -1.5858823061,3.51159632206 l0.0,2.83193260431 -0.792941153049,1.92571416497 m33.6433577538,16.3119316101 l2.37882331014,0.792941153049 2.37882331014,0.0 l1.92571416497,-0.792941153049 2.37882331014,-0.339831896126 l1.5858823061,-0.792941153049 0.45310921967,-0.792941153049 l0.792941153049,-0.45310921967 0.792941153049,-2.37882331014 l0.339831896126,-5.89041948318 m-46.6702508926,-6.45680606365 l2.26554602385,-0.339831896126 1.24605029821,-4.75764662027 l0.792941153049,-0.339831896126 0.339831896126,-0.792941153049 l2.37882331014,-0.792941153049 1.5858823061,0.0 l1.24605029821,1.4726048708 0.339831896126,2.37882331014 l0.45310921967,0.792941153049 0.0,2.37882331014 l0.792941153049,2.03899145126 0.0,1.92571416497 l1.13277301192,2.37882331014 0.0,2.83193260431 m113.090082407,-5.26739120483 l-5.43731033802,0.792941153049 -3.1717646122,0.906218439341 l-1.92571416497,1.35932758451 -0.906218439341,1.01949572563 l-0.792941153049,2.26554602385 0.0,0.45310921967 l0.566386505961,0.0 7.58957922459,-2.60537803173 l1.92571416497,-0.226554609835 2.15226873755,0.226554609835 l0.45310921967,0.113277304918 -0.906218439341,0.0 m0.339831896126,-5.21075606346 l0.113277304918,-1.4726048708 1.5858823061,-2.37882331014 l1.35932758451,-0.906218439341 2.15226873755,-0.566386505961 l1.24605029821,0.0 4.19126033783,1.35932758451 l1.13277301192,0.906218439341 1.81243687868,2.37882331014 l0.906218439341,3.96470546722 -1.5858823061,7.24974751472 l-0.679663792253,13.1401669979 0.45310921967,2.94520974159 l0.792941153049,2.37882331014 1.35932758451,2.15226873755 l1.35932758451,1.13277301192 m-14.8393261433,-26.0537791252 l2.83193260431,-1.35932758451 2.15226873755,-0.45310921967 l1.35932758451,0.339831896126 0.45310921967,0.679663792253 l0.339831896126,1.24605029821 0.679663792253,18.3509230614 l1.01949572563,4.64436948299 1.69915959239,2.94520974159 m0.45310921967,1.01949572563 l0.0,1.13277301192 1.69915959239,2.83193260431 l2.26554602385,2.26554602385 2.71865516901,1.69915959239 l3.73815089464,1.35932758451 3.1717646122,0.113277304918 l2.26554602385,-0.226554609835 3.0584871769,-0.906218439341 l2.83193260431,-1.69915959239 1.4726048708,-1.5858823061 l1.01949572563,-1.81243687868 0.226554609835,-2.03899145126 l-0.45310921967,-1.92571416497 -1.35932758451,-1.81243687868 l-2.49210059643,-1.4726048708 -3.1717646122,-0.906218439341 l-1.81243687868,0.0 -1.81243687868,0.0 l-3.51159632206,0.679663792253 -1.69915959239,0.45310921967 l-3.85142832994,2.26554602385 -0.679663792253,0.792941153049 l-0.792941153049,2.03899145126 m3.1717646122,7.70285665989 l0.45310921967,2.83193260431 0.113277304918,5.77714264393 l0.226554609835,0.45310921967 -2.71865516901,-1.35932758451 l-5.09747862816,-1.5858823061 -1.24605029821,-0.679663792253 l-0.226554609835,-0.45310921967 0.0,0.226554609835 m122.038984299,-43.2152926922 l-1.69915959239,0.792941153049 -1.01949572563,1.4726048708 l-0.792941153049,1.4726048708 0.0,1.35932758451 l0.566386505961,0.792941153049 1.69915959239,0.0 l2.03899145126,-1.81243687868 0.792941153049,-1.5858823061 l0.0,-1.24605029821 -0.45310921967,-0.679663792253 l-2.03899145126,-0.113277304918 -1.4726048708,0.792941153049 l-0.792941153049,1.4726048708 -0.113277304918,1.4726048708 l1.35932758451,0.0 1.13277301192,-0.45310921967 l1.35932758451,-1.35932758451 0.566386505961,-2.03899145126 l-1.35932758451,-0.226554609835 -0.792941153049,0.45310921967 l-0.566386505961,0.906218439341 -0.566386505961,2.26554602385 l0.45310921967,0.566386505961 1.81243687868,-0.339831896126 l1.01949572563,-1.24605029821 0.226554609835,-1.4726048708 l-1.4726048708,0.339831896126 -1.35932758451,1.92571416497 l-0.226554609835,1.4726048708 1.13277301192,0.45310921967 l0.792941153049,-0.679663792253 m0.566386505961,-2.94520974159 l0.226554609835,-0.679663792253 1.4726048708,-1.13277301192 l1.81243687868,-0.226554609835 0.679663792253,0.566386505961 l0.906218439341,3.39831918478 0.0,2.94520974159 l-5.09747862816,7.47630178928 -0.566386505961,1.92571416497 l0.0,1.5858823061 0.566386505961,0.906218439341 l1.24605029821,1.01949572563 2.71865516901,1.01949572563 l2.26554602385,0.113277304918 3.0584871769,-1.01949572563 l1.4726048708,-0.906218439341 1.13277301192,-1.4726048708 l0.792941153049,-1.5858823061 0.226554609835,-3.0584871769 l-1.24605029821,-1.92571416497 -1.24605029821,-0.679663792253 l-2.03899145126,-0.339831896126 -3.85142832994,0.0 l-1.92571416497,0.792941153049 -1.81243687868,1.35932758451 m5.21075606346,8.49579751492 l-0.226554609835,16.9915950298 m-0.906218439341,-16.651763916 l-4.87092405558,4.64436948299 -0.906218439341,1.24605029821 l-1.13277301192,2.71865516901 0.679663792253,0.339831896126 l4.07798290253,-0.566386505961 6.23025178909,-0.113277304918 l3.85142832994,-0.566386505961 m-17.1048724651,-24.4678974152 l-1.4726048708,2.26554602385 -0.339831896126,1.24605029821 l0.679663792253,0.0 2.26554602385,-1.13277301192 m109.012100697,-9.62857604027 l-0.113277304918,-0.906218439341 -0.792941153049,-0.45310921967 l-0.45310921967,-1.81243687868 -0.113277304918,-4.53109204769 l0.906218439341,-0.45310921967 0.45310921967,-0.906218439341 l1.81243687868,-0.906218439341 7.70285665989,0.0 l6.79663836956,2.26554602385 0.45310921967,0.679663792253 l0.0,2.71865516901 -0.45310921967,1.5858823061 l-3.62487375736,5.43731033802 -1.69915959239,1.35932758451 l-2.26554602385,2.71865516901 -0.906218439341,2.26554602385 l0.0,3.39831918478 1.24605029821,1.35932758451 l3.62487375736,1.5858823061 4.98420119286,0.226554609835 l2.71865516901,-1.13277301192 0.45310921967,-0.906218439341 l0.906218439341,0.0 0.45310921967,-0.906218439341 l3.62487375736,-1.81243687868 3.62487375736,-0.906218439341 l3.62487375736,0.0 4.53109204769,2.03899145126 l1.81243687868,1.35932758451 0.45310921967,1.35932758451 l0.0,2.03899145126 -0.906218439341,2.49210059643 l-1.69915959239,2.49210059643 -2.26554602385,1.81243687868 l-3.62487375736,1.35932758451 -3.28504174948,0.0 l-7.70285665989,1.13277301192 -8.60907495022,0.679663792253 l-4.87092405558,0.0 -1.92571416497,-0.906218439341 l-3.51159632206,-4.98420119286 -0.45310921967,-1.81243687868 l0.0,-2.71865516901 0.792941153049,-1.81243687868 l0.0,-0.906218439341 1.35932758451,-2.71865516901 l0.45310921967,-2.71865516901 1.35932758451,-2.71865516901 l0.906218439341,-0.45310921967 1.81243687868,-2.26554602385 l0.906218439341,0.0 0.45310921967,-0.906218439341 l0.0,-1.81243687868 -1.69915959239,-2.71865516901 l-1.92571416497,0.0 -0.906218439341,0.45310921967 l-2.15226873755,1.35932758451 -1.01949572563,1.35932758451 l-1.69915959239,1.13277301192 2.60537803173,-2.03899145126 m18.1243681908,25.3741168976 l0.0,4.53109204769 -0.339831896126,0.679663792253 l-0.113277304918,3.1717646122 -0.792941153049,1.35932758451 l-0.566386505961,11.3277304173 -1.35932758451,4.07798290253 l-3.62487375736,0.226554609835 8.15596580505,0.0 l0.0,-3.62487375736 0.45310921967,-1.35932758451 l0.0,-5.43731033802 0.45310921967,-0.906218439341 l0.0,-1.81243687868 0.906218439341,-3.1717646122 l0.0,-2.71865516901 0.906218439341,-1.81243687868 l0.0,-3.1717646122 m-6.3435292244,0.0 l-2.60537803173,0.906218439341 -8.15596580505,4.07798290253 l-6.90991520882,4.98420119286 -0.45310921967,0.679663792253 l18.577477932,0.226554609835 m132.290585041,-49.3322706223 l-0.792941153049,-0.679663792253 -2.15226873755,-0.792941153049 l-2.94520974159,-0.45310921967 -1.4726048708,0.0 l-1.24605029821,0.566386505961 -1.01949572563,1.01949572563 l-0.45310921967,1.69915959239 0.0,1.92571416497 l0.792941153049,1.81243687868 1.35932758451,1.35932758451 l1.5858823061,0.566386505961 1.92571416497,0.113277304918 l1.69915959239,-0.226554609835 1.35932758451,-1.01949572563 l1.01949572563,-1.13277301192 0.792941153049,-1.69915959239 l0.0,-0.679663792253 -1.5858823061,-1.69915959239 l-1.69915959239,-0.906218439341 -0.792941153049,0.566386505961 m-3.28504174948,6.45680606365 l0.0,10.874620676 0.906218439341,10.874620676 l0.0,1.92571416497 -0.339831896126,0.0 m1.24605029821,-0.906218439341 l-1.81243687868,-0.113277304918 -4.19126033783,-1.24605029821 l-7.47630178928,0.0 -1.81243687868,0.45310921967 l-1.69915959239,0.906218439341 -1.5858823061,1.35932758451 l-0.906218439341,2.03899145126 -0.45310921967,2.60537803173 l0.0,5.09747862816 0.792941153049,2.26554602385 l1.5858823061,2.15226873755 2.49210059643,1.81243687868 l2.83193260431,1.24605029821 5.21075606346,0.339831896126 l2.37882331014,-1.01949572563 4.19126033783,-3.62487375736 l1.13277301192,-2.03899145126 0.45310921967,-2.37882331014 l-0.45310921967,-4.64436948299 -0.906218439341,-1.81243687868 l-0.792941153049,-1.01949572563 -2.15226873755,-0.679663792253 m-7.58957922459,16.5384864807 l-0.45310921967,0.679663792253 0.0,1.13277301192 l0.679663792253,4.07798290253 0.339831896126,6.79663836956 l-0.45310921967,3.0584871769 -0.566386505961,0.0 l-1.24605029821,3.51159632206 3.1717646122,-3.85142832994 l0.45310921967,3.62487375736 0.45310921967,-2.83193260431 l1.69915959239,2.71865516901 m4.07798290253,-20.2766370773 l0.792941153049,6.3435292244 1.5858823061,5.66386520863 m102.385383248,9.79849815369 l0.0,-4.30453747511 1.13277301192,-9.96840238571 l0.0,-15.6322681904 0.226554609835,0.226554609835 m1.13277301192,27.1865534782 l0.0,-6.3435292244 0.679663792253,-2.49210059643 l0.226554609835,-8.38252067566 0.679663792253,-3.1717646122 l0.0,-3.39831918478 0.906218439341,-3.85142832994 m-3.39831918478,-2.03899145126 l-1.5858823061,0.0 -2.49210059643,-0.679663792253 l-0.679663792253,-0.679663792253 -1.13277301192,-0.226554609835 l-2.26554602385,-1.35932758451 -2.71865516901,-2.26554602385 l-1.5858823061,-2.71865516901 -0.226554609835,-3.39831918478 l2.71865516901,-5.66386520863 2.26554602385,-2.71865516901 l6.3435292244,-2.71865516901 7.02319264412,-1.81243687868 l2.94520974159,0.0 0.679663792253,0.906218439341 l0.906218439341,0.45310921967 3.1717646122,5.21075606346 l1.5858823061,3.39831918478 0.0,1.35932758451 l0.679663792253,2.26554602385 0.0,3.62487375736 l-1.35932758451,2.94520974159 -2.71865516901,2.49210059643 l-4.98420119286,2.49210059643 -2.71865516901,0.226554609835 l-0.226554609835,-0.679663792253 -1.35932758451,-0.679663792253 l-0.45310921967,-0.906218439341 m5.66386520863,-23.3351254463 l0.0,-1.5858823061 2.49210059643,-5.66386520863 l2.71865516901,-5.21075606346 0.679663792253,-0.45310921967 l1.81243687868,-3.1717646122 3.1717646122,-1.5858823061 l4.30453747511,-1.35932758451 4.07798290253,0.0 l-3.39831918478,0.0 -0.679663792253,0.45310921967 l-2.49210059643,0.45310921967 -0.679663792253,1.35932758451 l0.0,1.5858823061 1.35932758451,0.906218439341 l2.71865516901,0.679663792253 1.5858823061,0.0 l3.39831918478,-1.35932758451 1.35932758451,-2.03899145126 l0.0,-1.35932758451 -0.45310921967,-0.679663792253 l-0.679663792253,-0.45310921967 -2.71865516901,0.0 l-1.5858823061,0.679663792253 -0.226554609835,0.679663792253 m4.98420119286,0.0 l1.81243687868,0.0 1.35932758451,-0.45310921967 l0.0,0.679663792253 -4.30453747511,2.26554602385 l-0.679663792253,0.0 " fill="none" stroke="black" stroke-width="1" /></svg>