<?xml version="1.0" encoding="utf-8" ?>
<svg baseProfile="full" height="128.274614718" version="1.1" width="106.072265189" xmlns="http://www.w3.org/2000/svg" xmlns:ev="http://www.w3.org/2001/xml-events" xmlns:xlink="http://www.w3.org/1999/xlink"><defs /><rect fill="none" height="128.274614718" width="106.072265189" x="0" y="0" /><path d="M53.998988755,69.1781460308 m0.113277304918,11.4410078526 l2.37882331014,15.5189907551 0.679663792253,7.13647007942 m-3.51159632206,-32.5105857849 l-7.47630178928,1.35932758451 -6.23025178909,3.0584871769 l-1.01949572563,1.92571416497 0.679663792253,3.62487375736 l4.30453747511,3.85142832994 1.01949572563,0.566386505961 l12.3472261429,4.87092405558 2.49210059643,1.35932758451 l0.0,-0.566386505961 m-4.19126033783,-21.7492413521 l-1.01949572563,0.45310921967 -1.01949572563,-3.51159632206 l-2.83193260431,-5.09747862816 -6.68336093426,0.0 l-6.68336093426,8.26924324036 1.13277301192,4.53109204769 l0.566386505961,0.0 2.03899145126,-1.5858823061 l-0.792941153049,3.51159632206 3.96470546722,7.58957922459 l8.26924324036,-5.43731033802 0.0,-0.679663792253 l-0.45310921967,0.226554609835 7.70285665989,0.566386505961 l3.85142832994,-7.47630178928 -0.113277304918,-0.679663792253 l2.15226873755,5.55058777332 0.566386505961,0.679663792253 l3.96470546722,-0.792941153049 2.60537803173,-6.90991520882 l0.113277304918,-3.62487375736 m1.69915959239,-0.339831896126 l-16.1986541748,-10.874620676 -16.3119316101,-2.49210059643 l-2.37882331014,0.679663792253 -8.04268836975,10.7613432407 l0.0,2.03899145126 7.24974751472,7.13647007942 l3.39831918478,1.13277301192 20.8430242538,2.71865516901 l16.5384864807,-5.09747862816 1.35932758451,-1.69915959239 l-2.26554602385,-9.17546153069 -1.4726048708,-1.69915959239 l-18.8040328026,-7.24974751472 -7.36302495003,1.24605029821 m-8.60907495022,0.226554609835 l0.0,-3.28504174948 -0.566386505961,-9.62857067585 l-1.35932758451,-6.90991520882 -0.679663792253,-1.92571416497 l-1.4726048708,-0.566386505961 -3.39831918478,-0.113277304918 l-2.83193260431,1.69915959239 -1.5858823061,9.28873896599 l1.4726048708,6.68336093426 3.0584871769,5.43731033802 l4.64436948299,1.24605029821 1.5858823061,-1.92571416497 l1.24605029821,-5.21075606346 m-4.07798290253,-20.0500822067 l-3.73815089464,-1.69915959239 -0.906218439341,0.0 l-5.66386520863,4.53109204769 4.64436948299,8.72235238552 l4.64436948299,-1.01949572563 0.113277304918,-2.94520974159 m-5.43731033802,0.226554609835 l-0.906218439341,0.0 -4.30453747511,1.24605029821 l-0.792941153049,0.566386505961 -1.24605029821,3.96470546722 l0.226554609835,0.792941153049 3.96470546722,0.45310921967 m22.5421833992,5.43731033802 l0.226554609835,-0.679663792253 7.58957922459,-3.28504174948 l-0.339831896126,4.19126033783 3.73815089464,1.24605029821 l1.81243687868,4.30453747511 " fill="none" stroke="black" stroke-width="1" /></svg>