<?xml version="1.0" encoding="utf-8" ?>
<svg baseProfile="full" height="127.138234694" version="1.1" width="423.207909383" xmlns="http://www.w3.org/2000/svg" xmlns:ev="http://www.w3.org/2001/xml-events" xmlns:xlink="http://www.w3.org/1999/xlink"><defs /><rect fill="none" height="127.138234694" width="423.207909383" x="0" y="0" /><path d="M25,38.687886484 m0.0,0.0 m33.5505013855,9.54984209362 l0.688862800598,-0.769200921059 1.85599416494,-3.85929912329 l0.312788002193,-1.74082934856 0.00088009837782,-5.20908772945 l-0.5639507249,-1.74167558551 -0.855071470141,-1.4926995337 l-1.0652474314,-1.00989043713 -1.22401282191,-0.623426623642 l-1.2788811326,-0.237699225545 -2.20530152321,9.51165293372e-05 l-1.83013483882,0.392057970166 -2.53440260887,1.29547268152 l-0.785035863519,0.701103284955 -1.31544262171,2.12186604738 l-0.209190752357,1.06602884829 0.102854622528,0.954848155379 l0.942367389798,1.19037821889 1.51597157121,0.627256557345 l2.02041566372,0.132363745943 0.964101701975,-0.643628835678 l0.292819049209,-1.26320958138 -0.254883598536,-1.9342058897 l-0.921037793159,-1.13493688405 -0.772106051445,-0.510954260826 l-1.20961219072,-0.344149395823 -0.82820057869,0.0406751362607 l-1.19165986776,0.452431999147 -1.50976091623,1.29619091749 l-0.814951583743,1.23281039298 -1.15073546767,2.75824695826 l-0.333600975573,2.05583557487 0.00750269566197,2.19364508986 l0.75741328299,1.73131585121 1.69252634048,1.25795885921 l0.112230759114,-7.39942697692e-05 -0.353647656739,-3.68108600378 l0.761746913195,-1.91434651613 1.02460868657,-1.16890773177 l2.20731765032,-1.31763234735 1.59268349409,-0.440658442676 l1.27490624785,0.121622281149 2.12403580546,1.10526785254 l0.942710489035,0.815301761031 0.724534317851,1.16980411112 l0.601734519005,2.1123623848 -0.105731571093,3.83428514004 l-1.77910402417,4.45818722248 -0.703912079334,3.17958772182 l-1.1508910358,3.70386809111 -0.33650059253,2.43126139045 m4.52642828226,-16.6655933857 l0.453516058624,0.00289713701932 2.87109315395,2.09835931659 l1.3509953022,3.62728893757 0.0942723732442,2.1781873703 l-0.199961476028,1.27712905407 0.0381744536571,1.11876256764 l0.304550081491,0.695680901408 1.22617937624,0.453215129673 l2.86277115345,-0.185911767185 8.03860485554,-1.40742629766 l3.67141902447,0.00140965072205 1.41799017787,0.265457872301 l1.7768804729,0.634527057409 1.63641408086,1.1090375483 l1.63169652224,1.71813458204 0.993217453361,1.51130750775 l0.451976507902,1.3450025022 0.0486722309142,1.25636920333 l-0.392361655831,1.66302546859 -0.689541101456,1.1962211132 l-1.18545547128,1.36254385114 -2.19061806798,1.67341858149 l-3.51457715034,1.62537261844 -2.7873134613,0.854319036007 l-4.01244312525,0.584891922772 -7.56050884724,0.0640119705349 l-3.51222395897,-0.544494912028 -2.74597465992,-0.782995000482 l-3.00788253546,-1.32473543286 -1.32468268275,-1.16634823382 l-2.01993003488,-3.24957698584 -0.746256262064,-3.73461157084 l0.0114664505236,-2.97193020582 m14.4481778145,12.670276165 l0.166567191482,2.91593372822 -0.35346839577,4.63026851416 l0.0983366556466,8.51924359798 0.301603116095,1.70912370086 m2.73574322462,-17.9459607601 l-0.413101837039,0.883676037192 -1.97644233704,8.63466024399 l-1.36886909604,9.73937630653 -0.162973888218,3.16260814667 l0.151838771999,1.08391851187 0.315014868975,0.365120247006 m52.7539232533,-51.0214908423 l0.361634418368,-1.74116194248 1.43994733691,-3.25959682465 l3.17883789539,-5.94417572021 1.59924954176,-2.06565007567 l3.95228624344,-2.94400542974 2.16519728303,-0.85605725646 l2.1420699358,-0.394458323717 2.68240869045,-0.000158177008416 l1.80074766278,0.613057352602 2.44734913111,1.6946990788 l1.67350575328,1.96124315262 2.09637969732,4.14121121168 l0.695757120848,2.29770943522 0.177903845906,1.65766850114 l-0.553868785501,4.86489772797 -1.29740208387,2.84173041582 l-3.93053680658,6.13424479961 -1.5995156765,1.69039458036 l-0.985196009278,1.65881231427 -0.722036138177,1.81802749634 l-0.53031604737,3.07596027851 -0.0590645195916,3.30287545919 l0.511539652944,3.18768590689 0.832015946507,1.76847204566 l1.23350903392,1.30626648664 1.88511282206,1.07665024698 l3.16534668207,1.13401390612 2.92333632708,0.556947700679 l3.82414877415,0.197239797562 6.88553333282,-0.893845260143 l3.18725198507,-1.00675567985 5.21863520145,-2.50615656376 l5.52251040936,-4.38352704048 1.78344234824,-2.88812756538 l0.651039928198,-2.99066841602 -0.205557309091,-3.16621601582 l-1.32022738457,-2.73523747921 -1.37535065413,-1.36785566807 l-1.68068110943,-1.18988126516 -1.75439178944,-0.764175653458 l-3.33684444427,-0.577311217785 -5.81118226051,-0.0845167785883 l-4.24042463303,0.984188467264 -5.71960568428,2.38561138511 l-3.91841560602,2.62846618891 -1.75678580999,1.77907899022 l-1.36978700757,2.12926894426 m6.47697031498,14.4199120998 l-0.321749933064,2.25677058101 -1.62421196699,8.53222131729 l-1.18486881256,10.371710062 0.464483499527,3.86729478836 m15.309432745,-26.2240505219 l-0.844009742141,1.20479866862 -0.563804171979,2.576585114 l5.64462379771e-05,6.51362001896 0.358028225601,4.30245429277 l0.942850932479,5.10923564434 0.582254528999,2.10460215807 m72.6534974704,-67.8872238286 l-0.834953412414,-0.118769137189 -1.53830394149,0.876413062215 l-2.50488847494,2.14870661497 -1.69971182942,2.55029201508 l-0.53150780499,1.24351128936 -0.294195991009,2.43492737412 l0.479088686407,2.3387478292 1.00152865052,0.956881791353 l1.60199075937,0.699547380209 1.72035157681,0.164180304855 l1.0418112576,-0.638046339154 1.16610266268,-1.3025817275 l1.0083001852,-1.78569555283 1.29925906658,-4.89310711622 l-0.195646379143,-2.44768038392 -1.33473366499,-1.99533507228 l-1.09572760761,-0.768766477704 m-5.87373375893,7.67816603184 l-5.21891355515,6.80150270462 -7.93401181698,9.87822175026 l8.37483525276,-5.00903308392 3.19233268499,-1.26417338848 l7.1315073967,-2.13945150375 3.88820230961,-0.575087890029 m-2.77294099331,-4.75566655397 l-0.0642610574141,2.87414520979 0.867991298437,4.38930720091 l2.89369672537,11.7808043957 1.0412222147,5.4163056612 l-0.0292391562834,1.75909534097 -0.471614003181,1.59420952201 l-0.778920501471,1.06774657965 -0.917579084635,0.596137233078 l-1.830445081,0.540888831019 -9.16355073452,2.57840871811 l-4.70133692026,1.01031251252 -4.49483543634,1.62920847535 l-3.61706584692,1.92188367248 -1.35486245155,1.03283762932 l-0.877192541957,1.02558091283 -0.301357097924,1.25725850463 l0.232125911862,1.55229315162 0.505422577262,0.880128145218 l4.18117076159,2.17102438211 3.27973246574,0.619149953127 l4.27565038204,0.0505185686052 4.90335434675,-0.773474052548 l3.20603221655,-0.939808487892 4.73506420851,-3.08088988066 l3.87223720551,-4.25844341516 2.15741172433,-4.21991348267 l0.188761167228,-1.98715850711 -0.679482743144,-2.08041712642 l-1.97751894593,-2.72686421871 -1.50001868606,-1.25992700458 m-15.0969409943,21.1727833748 l-0.390800014138,7.77588665485 0.456418059766,4.80950891972 l0.476870313287,2.2378256917 m12.1068525314,-18.0238366127 l0.0520128523931,5.52229464054 -0.636536702514,11.8018996716 l0.120872799307,4.42822217941 0.307793784887,1.35851919651 m-7.65204310417,-2.79793232679 l-1.37441024184,1.148911044 -1.78682506084,2.66932576895 m67.2351746376,-61.1998710866 l0.699516385794,-0.760505869985 1.95416346192,-1.17157526314 l0.826108306646,-0.311363451183 3.03680032492,-0.155394263566 l1.08134448528,0.247258152813 2.30592668056,1.44231855869 l1.57989576459,1.676748842 1.39422386885,2.95370697975 l0.439046546817,2.36477985978 6.40862344881e-05,3.8366523385 l-1.22622005641,4.53638076782 -0.607476457953,3.9026093483 l0.00017759446564,2.54909306765 0.308481864631,0.870190411806 l1.02120764554,1.35249704123 1.00508876145,0.851834714413 l2.55413562059,1.31352424622 1.58974915743,0.461816117167 l3.57485920191,-3.28588271259e-05 2.74350374937,-0.430523753166 l2.41440877318,-0.703535750508 1.93319946527,-0.144428499043 l1.57573863864,-0.442705377936 3.55214834213,-1.32171005011 l1.14153802395,-0.893217623234 0.561279244721,-0.714743733406 l0.630389526486,-1.80701315403 0.0804932042956,-2.7312618494 l-0.734578371048,-1.58086910844 -1.38952508569,-1.48125454783 l-4.12295550108,-2.08198085427 -2.9663836956,-0.346908718348 l-4.18532639742,0.326812751591 -3.03806215525,0.771109983325 l-2.73135215044,1.31739348173 -2.05146357417,1.48256793618 m5.54270744324,10.7099223137 l0.206169113517,4.77507919073 -0.129826990888,3.00077289343 l-0.374556966126,2.57369846106 -0.675176456571,2.42388024926 l-0.846574082971,1.9418361783 -1.37103721499,4.33983653784 l-0.439309440553,0.915856286883 m9.9456602335,-18.8855910301 l0.303383916616,1.8319632113 0.13253627345,5.22235929966 l-0.299116335809,2.06535294652 -0.0253598857671,8.68300795555 l-0.29765104875,1.60062849522 m-24.4651556015,-45.8162403107 l-1.35155186057,0.0369763141498 -2.16615855694,1.08946807683 l-1.19895011187,1.13400489092 -0.674975961447,0.318657122552 l-0.528887659311,0.432308129966 -0.196966640651,-0.352341122925 l0.765055418015,-0.89562676847 1.6108083725,-1.15037202835 l2.53483533859,-1.01579971611 2.33659803867,-0.395426079631 l1.75902619958,-0.000166589707078 1.34449392557,0.319516286254 m78.0465042654,25.9539194021 l0.540833249688,1.03480696678 1.00057467818,1.4166623354 l2.95142561197,3.08514505625 2.19576075673,1.06713727117 l2.06987723708,0.685832500458 2.42402240634,0.41169822216 l2.9667404294,0.037483794149 2.06792160869,-0.371968336403 l1.93162694573,-0.652190595865 1.69306799769,-0.965610444546 l1.44174426794,-1.26955866814 0.83900667727,-1.1669959873 l0.641814768314,-1.53765797615 0.470548607409,-2.22660973668 l-0.0153246137779,-2.19777986407 -0.638509020209,-2.37384855747 l-1.06290854514,-1.2699110806 -2.43727952242,-1.37858092785 l-2.46637538075,-0.740706548095 -1.71273231506,-0.237609371543 l-3.55492711067,0.090292384848 -4.62091445923,1.1322259903 l-3.2058185339,1.32274225354 -2.52120792866,1.50452658534 l-1.35156363249,1.30426287651 -0.62912248075,1.0493902117 l-0.176140144467,0.757272094488 0.123586514965,0.60000628233 l0.596616864204,0.355255268514 1.07434123755,0.0795388966799 l1.38503849506,-0.195870362222 m10.0307905674,-5.08344888687 l-0.815937370062,-1.85283094645 -0.515630580485,-1.87489315867 l-0.595755577087,-5.44204890728 -0.00313788739732,-3.31253856421 l0.535949394107,-3.01914185286 0.846345797181,-2.29607194662 l1.03182114661,-1.91826656461 1.21456444263,-1.24083317816 l1.53446570039,-0.915108770132 4.01900291443,-1.06074035168 l1.58121034503,-0.00222690025112 0.725475773215,0.246028937399 l0.626708418131,0.511733964086 0.200546868145,0.441495589912 l-0.0978741422296,1.28747373819 -0.603217370808,1.02469041944 l-0.870601162314,0.451359413564 -1.57753258944,0.221155043691 l-0.763543173671,-0.164068080485 -2.41261318326,-1.28184884787 l-1.34411931038,-0.126910051331 -1.03827439249,0.38043178618 l-0.65720371902,0.487156324089 -0.965702310205,1.42133787274 l-0.429401732981,1.49526506662 -0.259045455605,2.34602898359 l0.108203375712,4.583979249 0.228790491819,0.915402248502 l0.28416518122,5.19404649734 -0.174707714468,1.05726890266 l-0.388600751758,0.696856677532 m8.67100417614,-15.9710264206 l1.49625912309,0.137581126764 2.49019548297,1.04818455875 l0.041968380101,0.514298118651 -1.52409359813,0.778046697378 l-0.563013255596,0.131774879992 m-12.1302390099,27.3595643044 l-0.0797732453793,0.752495974302 -0.115392077714,6.20300531387 l-0.165500994772,1.97088360786 0.104871448129,5.7451325655 l0.217183697969,0.965609624982 -0.0922195240855,1.23153440654 l0.149122113362,0.63037276268 m4.19891744852,-18.7992918491 l-0.322461910546,0.738411620259 0.139999045059,7.11966454983 l0.369287803769,3.14237833023 0.071134865284,5.65153539181 l-0.280152354389,2.2956584394 " fill="none" stroke="black" stroke-width="1" /></svg>