<?xml version="1.0" encoding="UTF-8" standalone="no"?>
<svg
   xmlns:dc="http://purl.org/dc/elements/1.1/"
   xmlns:cc="http://creativecommons.org/ns#"
   xmlns:rdf="http://www.w3.org/1999/02/22-rdf-syntax-ns#"
   xmlns:svg="http://www.w3.org/2000/svg"
   xmlns="http://www.w3.org/2000/svg"
   xmlns:sodipodi="http://sodipodi.sourceforge.net/DTD/sodipodi-0.dtd"
   xmlns:inkscape="http://www.inkscape.org/namespaces/inkscape"
   height="498.743507341"
   version="1.1"
   width="887.908422835"
   id="svg2"
   inkscape:version="0.91 r13725"
   sodipodi:docname="graffiti_censored.svg">
  <metadata
     id="metadata12">
    <rdf:RDF>
      <cc:Work
         rdf:about="">
        <dc:format>image/svg+xml</dc:format>
        <dc:type
           rdf:resource="http://purl.org/dc/dcmitype/StillImage" />
        <dc:title></dc:title>
      </cc:Work>
    </rdf:RDF>
  </metadata>
  <sodipodi:namedview
     pagecolor="#ffffff"
     bordercolor="#666666"
     borderopacity="1"
     objecttolerance="10"
     gridtolerance="10"
     guidetolerance="10"
     inkscape:pageopacity="0"
     inkscape:pageshadow="2"
     inkscape:window-width="1809"
     inkscape:window-height="975"
     id="namedview10"
     showgrid="false"
     inkscape:zoom="1.39"
     inkscape:cx="456.38072"
     inkscape:cy="247.62771"
     inkscape:window-x="1957"
     inkscape:window-y="41"
     inkscape:window-maximized="0"
     inkscape:current-layer="svg2" />
  <defs
     id="defs4" />
  <rect
     height="498.743507341"
     width="887.908422835"
     x="0"
     y="0"
     id="rect6"
     fill="white" />
  <path
     d="M25,25 m0.0,0.0 m55.8613538742,62.029747963 l8.38252067566,-2.94520974159 22.089073658,-2.49210059643 m-14.6127724648,2.37882331014 l-0.339831896126,4.41781491041 0.566386505961,13.7065541744 m7.47630178928,-2.83193260431 l2.37882331014,-1.13277301192 -1.01949572563,-3.73815089464 l-4.41781491041,1.24605029821 0.0,4.30453747511 l7.81613409519,2.83193260431 0.792941153049,-0.226554609835 l0.226554609835,-0.792941153049 m-8.04268836975,-9.28873896599 l0.0,0.0 m2.60537803173,-0.226554609835 l0.0,0.0 m-4.07798290253,0.0 l1.4726048708,0.113277304918 m2.83193260431,-0.906218439341 l3.0584871769,-0.113277304918 0.113277304918,-0.566386505961 m39.1939473152,4.87092405558 l-5.43731033802,-3.85142832994 -12.4605035782,1.24605029821 l-1.81243687868,8.94890666008 11.8941164017,8.49579751492 l4.19126033783,-24.014787674 -9.28873896599,-2.03899145126 m4.19126033783,-2.15226873755 l0.792941153049,3.39831918478 0.792941153049,14.4994950294 m13.9331078529,2.03899145126 l-0.566386505961,-1.5858823061 -1.69915959239,0.0 l3.96470546722,11.7808389664 3.73815089464,-4.87092405558 l1.35932758451,-4.98420119286 m12.5737810135,-0.792941153049 l-0.339831896126,-1.01949572563 -13.5932767391,6.00369691849 l2.71865516901,11.2144529819 10.1949572563,-4.87092405558 l-0.792941153049,-2.26554602385 -6.45680606365,-3.0584871769 m4.75764662027,-0.792941153049 l13.3667218685,15.4057133198 m-44.7445344925,-41.6860485077 l3.1717646122,28.4326028824 m48.5959625244,-34.096467495 l-4.41781491041,-1.81243687868 -8.49579751492,-1.4726048708 l0.45310921967,5.21075606346 11.3277304173,8.94890666008 m2.60537803173,-9.96840238571 l-0.566386505961,-1.4726048708 5.77714264393,-2.49210059643 l5.43731033802,7.58957922459 -8.72235238552,8.26924324036 l-2.49210059643,0.679663792253 m148.25463295,-29.3954846263 l-2.03899145126,1.81243687868 -4.30453747511,4.98420119286 l-5.55058777332,7.47630178928 -3.28504174948,7.24974751472 l-2.94520974159,9.62857067585 -0.792941153049,6.57008349895 l-0.113277304918,6.11697435379 0.792941153049,13.7065541744 l1.24605029821,5.89041948318 m48.7092399597,-64.9078941345 l2.83193260431,1.4726048708 2.03899145126,1.5858823061 l12.1206712723,11.2144529819 4.07798290253,5.32403349876 l3.39831918478,7.02319264412 1.24605029821,3.39831918478 l1.35932758451,5.43731033802 1.5858823061,8.94890666008 l0.45310921967,5.43731033802 -0.226554609835,12.6870584488 l-1.4726048708,4.53109204769 m-42.1391582489,-55.845708847 l-0.566386505961,6.79663836956 0.226554609835,10.7613432407 l0.339831896126,9.28873896599 0.792941153049,8.83562982082 l0.45310921967,14.6127724648 4.19126033783,8.60907495022 l3.0584871769,5.09747862816 5.77714264393,7.81613409519 l13.2534444332,15.7455456257 m-25.9405016899,-37.4947881699 l-4.41781491041,10.7613432407 -1.5858823061,2.49210059643 l-2.83193260431,6.3435292244 -3.1717646122,8.49579751492 l-1.13277301192,4.64436948299 m-22.089073658,-30.1317620277 l0.226554609835,6.90991520882 0.566386505961,3.96470546722 l-0.226554609835,13.7065541744 0.679663792253,10.081679821 m75.2161312103,-31.6043663025 l-0.906218439341,2.71865516901 -1.92571416497,8.83562982082 l-0.792941153049,6.23025178909 0.0,3.51159632206 l0.792941153049,8.15596580505 0.45310921967,2.37882331014 l0.339831896126,0.0 m-26.733443737,-99.5707511902 l-1.5858823061,-4.75764662027 -0.906218439341,-4.87092405558 m-28.8857126236,11.5542852879 l0.0,-10.7613432407 m18.1243681908,73.8568019867 l-0.566386505961,2.37882331014 0.226554609835,2.03899145126 l0.566386505961,0.45310921967 1.13277301192,0.566386505961 l1.24605029821,0.113277304918 2.37882331014,-1.69915959239 l0.45310921967,-0.566386505961 -0.792941153049,-0.226554609835 m-3.1717646122,-1.69915959239 l0.0,2.15226873755 m0.0,0.0 l0.113277304918,2.15226873755 m2.03899145126,-2.83193260431 l-0.339831896126,-1.24605029821 -1.5858823061,-2.15226873755 m-2.26554602385,2.26554602385 l-0.45310921967,-0.792941153049 m225.849583149,-19.1438490152 l-4.41781491041,-6.00369691849 -1.69915959239,-3.0584871769 l-1.4726048708,-5.89041948318 1.92571416497,1.35932758451 l2.49210059643,4.75764662027 2.26554602385,5.43731033802 l0.339831896126,1.69915959239 m0.113277304918,-0.679663792253 l0.339831896126,-14.0463852882 0.906218439341,-3.1717646122 l0.679663792253,-1.5858823061 0.679663792253,-0.566386505961 l0.339831896126,1.81243687868 -2.26554602385,18.6907553673 m0.0,0.0 l0.679663792253,-0.679663792253 2.94520974159,-6.23025178909 l4.98420119286,-4.30453747511 1.35932758451,-1.81243687868 l-0.113277304918,0.566386505961 -2.26554602385,3.39831918478 l-3.39831918478,3.96470546722 -3.39831918478,3.28504174948 l-1.24605029821,2.83193260431 m-2.37882331014,0.0 l-5.43731033802,-1.81243687868 -3.73815089464,-2.37882331014 l-1.5858823061,-2.60537803173 -0.339831896126,-2.37882331014 l0.792941153049,-0.113277304918 4.75764662027,2.94520974159 l7.02319264412,5.77714264393 m2.37882331014,-1.13277301192 l3.39831918478,-2.26554602385 7.36302495003,-3.73815089464 l1.69915959239,-0.339831896126 0.566386505961,0.45310921967 l0.339831896126,1.13277301192 -0.45310921967,1.24605029821 l-2.60537803173,2.49210059643 -1.92571416497,0.906218439341 l-7.36302495003,1.13277301192 m-7.92941093445,0.906218439341 l6.3435292244,0.0 2.60537803173,0.906218439341 l-9.62857067585,-2.15226873755 6.57008349895,1.69915959239 l5.21075606346,0.792941153049 -9.85512554646,0.113277304918 l11.8941164017,2.60537803173 -9.06218409538,0.113277304918 l7.02319264412,0.226554609835 2.26554602385,0.45310921967 l-4.87092405558,-0.339831896126 -5.21075606346,-1.35932758451 l3.51159632206,-0.113277304918 -3.96470546722,-0.113277304918 l-5.55058777332,-1.24605029821 9.28873896599,0.906218439341 l-3.39831918478,0.113277304918 5.89041948318,0.0 l-7.58957922459,0.226554609835 -1.01949572563,-0.226554609835 l0.0,-0.566386505961 m-15.5189907551,-29.2255449295 l-0.45310921967,5.55058777332 0.0,14.0463852882 l0.792941153049,4.30453747511 0.226554609835,6.79663836956 l0.566386505961,-0.226554609835 0.566386505961,-1.35932758451 l2.26554602385,-7.92941093445 0.45310921967,-9.85512554646 l-0.113277304918,-0.906218439341 -1.4726048708,-2.26554602385 l0.0,-4.19126033783 -1.01949572563,-3.51159632206 l-2.37882331014,-1.01949572563 0.226554609835,0.566386505961 l2.49210059643,0.679663792253 5.43731033802,0.0 l15.0658810139,1.01949572563 13.3667218685,-0.226554609835 l1.69915959239,-0.339831896126 2.15226873755,-1.01949572563 l3.96470546722,-0.45310921967 -0.113277304918,16.4252090454 l-0.45310921967,3.28504174948 -0.226554609835,16.3119316101 m157.60001421,-26.6768079996 l0.0,6.3435292244 1.01949572563,10.6480669975 l1.01949572563,4.07798290253 12.1206712723,23.1085705757 l2.26554602385,-1.4726048708 2.37882331014,-0.906218439341 l7.24974751472,-1.5858823061 -4.07798290253,-4.30453747511 l-1.01949572563,-10.1949572563 -1.92571416497,-5.09747862816 l-0.792941153049,-0.679663792253 18.0110907555,-4.75764662027 l6.90991520882,-0.679663792253 6.3435292244,-1.81243687868 l7.58957922459,-3.62487375736 -0.113277304918,-0.566386505961 l-2.83193260431,-2.71865516901 -1.81243687868,-2.37882331014 l-4.98420119286,-1.24605029821 -7.58957922459,-0.566386505961 l-5.66386520863,0.0 -16.9915950298,0.792941153049 l-4.19126033783,0.566386505961 -3.62487375736,-0.566386505961 l-2.83193260431,-1.01949572563 -4.75764662027,1.92571416497 m18.577477932,22.7687382698 l5.21075606346,-1.5858823061 0.566386505961,-0.566386505961 l0.792941153049,-2.15226873755 1.24605029821,-1.5858823061 l0.339831896126,-3.28504174948 -2.49210059643,3.28504174948 l-0.906218439341,2.03899145126 -2.26554602385,2.03899145126 l-1.92571416497,0.906218439341 m37.154955864,-20.5031919479 l6.11697435379,0.226554609835 2.15226873755,0.906218439341 l2.83193260431,0.113277304918 6.3435292244,-1.69915959239 l5.55058777332,-1.81243687868 0.339831896126,-0.792941153049 l-1.01949572563,-1.92571416497 -1.35932758451,-1.24605029821 l-3.28504174948,-0.792941153049 -6.45680606365,0.0 l-1.4726048708,0.226554609835 -8.38252067566,3.62487375736 l-0.45310921967,0.792941153049 -0.226554609835,1.92571416497 l-1.81243687868,0.792941153049 m39.0806698799,-4.98420119286 l-4.07798290253,0.45310921967 -3.1717646122,1.4726048708 l-1.01949572563,2.83193260431 0.0,3.62487375736 l6.11697435379,6.45680606365 5.55058777332,0.226554609835 l1.4726048708,-1.4726048708 0.0,-6.00369691849 l-2.37882331014,-4.98420119286 -1.13277301192,-0.679663792253 l-6.3435292244,-1.13277301192 -2.49210059643,0.0 m-77.0285654068,4.53109204769 l-1.13277301192,0.906218439341 -1.5858823061,2.15226873755 l-0.792941153049,1.81243687868 -0.226554609835,3.62487375736 l4.64436948299,0.566386505961 4.41781491041,-2.03899145126 l0.113277304918,-1.92571416497 -2.15226873755,0.0 m4.75764662027,-2.37882331014 l0.226554609835,1.5858823061 2.49210059643,4.53109204769 l4.41781491041,-8.15596580505 0.566386505961,4.64436948299 m3.62487375736,-2.37882331014 l-0.113277304918,1.81243687868 m-652.514442801,146.261847019 l-1.69915959239,-12.5737810135 -0.679663792253,-2.37882331014 l-0.679663792253,0.0 -4.87092405558,1.4726048708 l0.226554609835,7.36302495003 1.13277301192,6.45680606365 l2.03899145126,3.1717646122 0.792941153049,-0.226554609835 l2.71865516901,-3.0584871769 m-6.68336093426,-14.0463852882 l-0.113277304918,-2.71865516901 1.24605029821,-3.28504174948 l1.81243687868,-2.94520974159 0.566386505961,-0.339831896126 l0.792941153049,1.35932758451 0.113277304918,2.26554602385 l-0.792941153049,3.39831918478 m-0.566386505961,-5.09747862816 l-0.113277304918,1.13277301192 m-3.1717646122,16.4252090454 l-1.69915959239,0.679663792253 -3.28504174948,2.37882331014 l-0.792941153049,1.35932758451 -1.01949572563,4.41781491041 l1.24605029821,2.71865516901 1.13277301192,1.13277301192 l2.49210059643,0.566386505961 1.81243687868,-0.226554609835 l3.0584871769,-1.01949572563 1.5858823061,-2.71865516901 l0.226554609835,-2.94520974159 -0.339831896126,-1.35932758451 m-0.113277304918,4.41781491041 l1.92571416497,1.01949572563 4.98420119286,-0.226554609835 l3.28504174948,-1.35932758451 1.35932758451,-2.26554602385 l0.113277304918,-1.81243687868 -0.679663792253,-2.49210059643 l-2.83193260431,-1.69915959239 -2.60537803173,-0.113277304918 l-1.24605029821,-0.45310921967 m-0.906218439341,-0.45310921967 l2.94520974159,-2.83193260431 0.45310921967,1.69915959239 l0.679663792253,-0.113277304918 1.01949572563,1.24605029821 l1.24605029821,-0.679663792253 1.4726048708,-0.113277304918 l0.679663792253,2.37882331014 1.35932758451,-0.339831896126 l0.339831896126,0.566386505961 -0.113277304918,12.6870584488 l0.45310921967,3.73815089464 -7.36302495003,0.0 l-2.37882331014,-1.69915959239 -0.45310921967,-1.01949572563 l-0.45310921967,1.13277301192 -1.24605029821,-5.66386520863 l-0.906218439341,0.339831896126 -0.45310921967,0.792941153049 l-1.4726048708,-0.113277304918 -2.60537803173,3.96470546722 l-2.71865516901,-2.15226873755 -1.92571416497,4.64436948299 l-2.49210059643,-1.81243687868 -0.566386505961,0.45310921967 l-1.81243687868,-2.37882331014 -0.226554609835,-3.51159632206 l-1.81243687868,2.15226873755 -0.113277304918,-7.13647007942 l-0.566386505961,0.113277304918 0.339831896126,-6.79663836956 l4.41781491041,4.07798290253 0.0,-13.2534444332 l3.39831918478,3.1717646122 2.71865516901,-0.113277304918 l0.566386505961,0.679663792253 m4.07798290253,-9.85512554646 l-2.60537803173,0.113277304918 m0.0,0.0 l-1.01949572563,0.113277304918 m187.845047116,39.2505824566 l-1.92571416497,5.43731033802 0.0,2.94520974159 l1.13277301192,2.15226873755 4.75764662027,0.679663792253 l4.19126033783,-2.03899145126 1.69915959239,0.0 l4.07798290253,1.13277301192 2.37882331014,0.0 l1.81243687868,-1.24605029821 1.13277301192,-2.03899145126 l0.679663792253,-2.26554602385 0.339831896126,-4.30453747511 l11.3277304173,-3.1717646122 2.37882331014,-0.906218439341 l12.2339487076,-6.57008349895 4.07798290253,-3.0584871769 m-42.3657131195,5.43731033802 l0.792941153049,0.113277304918 15.2924358845,-3.85142832994 l19.7102510929,-8.38252067566 m0.113277304918,-1.81243687868 l0.339831896126,0.906218439341 4.75764662027,5.32403349876 l2.49210059643,2.03899145126 2.71865516901,0.566386505961 l3.1717646122,-3.0584871769 2.37882331014,-6.57008349895 l0.113277304918,-1.13277301192 -0.45310921967,-1.13277301192 l-0.906218439341,-0.45310921967 -3.51159632206,-1.24605029821 l-3.85142832994,0.339831896126 -2.49210059643,0.679663792253 l-2.03899145126,1.01949572563 -2.26554602385,2.15226873755 m13.1401669979,-3.0584871769 l0.0,2.71865516901 m-14.9526035786,29.6786522865 l1.24605029821,7.47630178928 m-4.64436948299,-9.40201640129 l0.45310921967,-2.03899145126 0.45310921967,-0.339831896126 l6.3435292244,0.566386505961 -3.73815089464,4.07798290253 m6.90991520882,0.792941153049 l2.26554602385,-4.87092405558 -1.01949572563,0.906218439341 l7.24974751472,3.85142832994 m3.1717646122,-7.24974751472 l5.55058777332,6.68336093426 m2.37882331014,-3.62487375736 l1.01949572563,3.85142832994 m-1.5858823061,-9.85512554646 l0.0,0.339831896126 m13.0268895626,2.26554602385 l-7.02319264412,9.06218409538 m165.359506607,-27.8662180901 l-9.06218409538,-2.03899145126 -5.77714264393,0.0 l-0.566386505961,0.566386505961 -2.60537803173,6.3435292244 l-2.03899145126,8.94890666008 0.0,3.28504174948 l1.69915959239,3.0584871769 3.73815089464,2.15226873755 l9.85512554646,2.94520974159 6.57008349895,-0.113277304918 l1.92571416497,-2.71865516901 3.51159632206,-2.15226873755 l0.566386505961,-1.13277301192 0.113277304918,-2.83193260431 l2.26554602385,5.21075606346 4.07798290253,4.30453747511 l2.03899145126,0.792941153049 0.339831896126,-1.13277301192 l1.69915959239,-1.13277301192 0.45310921967,-0.679663792253 l0.45310921967,-3.62487375736 0.0,-7.02319264412 l-1.01949572563,-3.1717646122 0.0,-1.35932758451 l-1.01949572563,-2.49210059643 -3.0584871769,-2.60537803173 l-1.81243687868,-3.96470546722 -2.37882331014,-0.113277304918 l-0.566386505961,-1.13277301192 0.0,-3.28504174948 l-0.566386505961,-3.0584871769 -1.5858823061,-4.07798290253 l-0.792941153049,-0.792941153049 -1.81243687868,-0.339831896126 l-0.45310921967,-1.35932758451 -1.4726048708,-1.01949572563 l-3.28504174948,-0.906218439341 -1.4726048708,2.49210059643 l-2.37882331014,2.03899145126 -1.13277301192,1.92571416497 l-0.679663792253,0.226554609835 -0.339831896126,0.679663792253 l0.0,2.94520974159 2.49210059643,4.41781491041 m-1.01949572563,-7.36302495003 l2.15226873755,-0.679663792253 17.2181499004,-0.226554609835 m-13.3667218685,-6.68336093426 l1.01949572563,4.87092405558 m-5.21075606346,10.874620676 l-6.57008349895,-1.01949572563 -7.47630178928,-3.1717646122 l-1.13277301192,0.0 1.4726048708,0.226554609835 l1.13277301192,1.13277301192 m22.089073658,14.0463852882 l-2.94520974159,2.60537803173 -0.566386505961,0.113277304918 l-0.679663792253,1.01949572563 m-1.13277301192,-13.3667218685 l-14.2729401588,2.26554602385 -5.66386520863,1.81243687868 l-6.00369691849,0.0 -2.83193260431,1.13277301192 m25.3741168976,-0.906218439341 l-5.21075606346,1.5858823061 -12.3472261429,8.94890666008 l-2.49210059643,0.906218439341 m24.8077297211,-10.081679821 l38.6275601387,1.13277301192 5.66386520863,0.566386505961 l10.1949572563,0.226554609835 6.68336093426,-0.226554609835 m-49.5021820068,-6.11697435379 l0.0,-6.23025178909 2.94520974159,-2.94520974159 l8.49579751492,-2.71865516901 4.19126033783,-4.07798290253 l1.24605029821,-0.792941153049 1.01949572563,-0.113277304918 m183.767058849,19.5403379202 l-1.5858823061,9.62857067585 -0.792941153049,2.26554602385 m2.15226873755,-11.5542852879 l-2.83193260431,-5.66386520863 m3.39831918478,5.43731033802 l7.92941093445,-2.94520974159 m-0.45310921967,6.68336093426 l-1.81243687868,1.92571416497 -0.339831896126,1.13277301192 l0.226554609835,0.679663792253 1.92571416497,2.15226873755 l1.81243687868,0.0 1.35932758451,-1.4726048708 l-0.679663792253,-1.69915959239 -1.92571416497,-2.83193260431 l-1.69915959239,-0.226554609835 m5.21075606346,0.679663792253 l1.13277301192,3.0584871769 0.566386505961,0.566386505961 l1.24605029821,0.792941153049 1.81243687868,0.0 l0.906218439341,-2.37882331014 1.4726048708,-2.15226873755 l0.339831896126,-1.4726048708 m18.6907553673,0.792941153049 l-1.81243687868,1.35932758451 -0.339831896126,1.13277301192 l2.60537803173,2.37882331014 1.01949572563,2.15226873755 l0.0,1.69915959239 -1.13277301192,-0.226554609835 l-3.0584871769,-2.37882331014 m5.32403349876,-4.19126033783 l1.69915959239,6.90991520882 0.792941153049,1.69915959239 l1.92571416497,2.37882331014 1.81243687868,0.113277304918 l0.566386505961,-0.679663792253 0.906218439341,-3.62487375736 l0.45310921967,-0.566386505961 0.339831896126,-2.60537803173 m6.23025178909,3.0584871769 l-1.13277301192,-0.792941153049 -1.01949572563,-1.35932758451 l0.679663792253,-1.92571416497 2.26554602385,-1.13277301192 l7.81613409519,-1.69915959239 m0.0,-6.11697435379 l0.113277304918,8.15596580505 0.45310921967,3.96470546722 m-0.339831896126,-7.13647007942 l8.15596580505,-1.69915959239 m-7.47630178928,1.35932758451 l2.71865516901,5.89041948318 m-50.1818466187,8.60907495022 l3.51159632206,10.1949572563 0.566386505961,0.0 l1.01949572563,-2.26554602385 1.13277301192,-1.01949572563 l0.679663792253,-0.113277304918 1.92571416497,2.94520974159 l1.5858823061,1.24605029821 1.92571416497,0.566386505961 l0.566386505961,-1.13277301192 0.113277304918,-2.37882331014 l3.39831918478,-8.15596580505 m4.30453747511,1.01949572563 l-1.01949572563,8.15596580505 m-0.906218439341,-9.74184811115 l4.19126033783,1.01949572563 1.4726048708,0.906218439341 m-721.160504818,117.149584889 l0.906218439341,-7.81613409519 0.0,-6.79663836956 l0.679663792253,-0.226554609835 2.60537803173,1.13277301192 l13.4799993038,2.71865516901 6.45680606365,1.92571416497 m-22.8820157051,1.69915959239 l8.04268836975,1.69915959239 11.6675627232,1.24605029821 m8.49579751492,-0.906218439341 l-0.339831896126,6.68336093426 10.081679821,1.35932758451 l5.43731033802,0.0 1.13277301192,-1.13277301192 l0.679663792253,-2.03899145126 0.113277304918,-5.55058777332 m12.3472261429,1.01949572563 l-1.13277301192,1.13277301192 -0.792941153049,0.226554609835 l-5.09747862816,3.85142832994 -2.03899145126,2.49210059643 l-0.226554609835,1.4726048708 0.792941153049,1.69915959239 l4.07798290253,3.0584871769 4.64436948299,2.37882331014 l4.64436948299,1.13277301192 0.566386505961,0.0 l0.906218439341,-2.83193260431 2.15226873755,-14.4994950294 m0.679663792253,-6.45680606365 l0.0,25.0342845917 0.906218439341,-7.47630178928 l2.49210059643,-6.57008349895 5.09747862816,-1.13277301192 m-8.38252067566,-2.83193260431 l10.7613432407,-0.113277304918 2.94520974159,-0.792941153049 m-62.4157953262,18.2376456261 l0.339831896126,1.69915959239 -0.339831896126,5.55058777332 l-2.83193260431,5.21075606346 -2.26554602385,5.77714264393 l-4.41781491041,-10.1949572563 1.13277301192,-1.01949572563 l2.15226873755,-1.01949572563 6.45680606365,-2.26554602385 l0.226554609835,3.1717646122 m195.604519844,4.30453658104 l8.15596580505,-1.24605029821 8.15596580505,-1.81243687868 l4.98420119286,-1.4726048708 m11.8941164017,-1.81243687868 l1.92571416497,-1.01949572563 10.3082346916,-3.62487375736 l6.23025178909,-1.4726048708 m-21.0695791245,24.3546199799 l2.83193260431,-1.24605029821 4.87092405558,-0.226554609835 l1.92571416497,-0.45310921967 3.62487375736,-1.69915959239 m-13.2534444332,-7.13647007942 l0.679663792253,1.01949572563 1.69915959239,1.01949572563 m0.0,-17.8978133202 l1.92571416497,-0.792941153049 2.83193260431,-0.339831896126 m-32.2840309143,7.92941093445 l4.07798290253,-0.45310921967 2.49210059643,-0.792941153049 m41.3462162018,5.89041948318 l4.07798290253,-1.81243687868 m3.85142832994,-7.70285665989 l2.60537803173,-1.5858823061 3.73815089464,-0.566386505961 l0.226554609835,1.13277301192 -2.49210059643,5.32403349876 l0.0,1.24605029821 1.13277301192,0.679663792253 l1.13277301192,0.0 8.26924324036,-4.75764662027 m-4.19126033783,-6.57008349895 l0.45310921967,-0.566386505961 1.35932758451,-0.566386505961 l4.19126033783,-0.45310921967 0.45310921967,0.339831896126 l0.226554609835,1.24605029821 0.0,1.4726048708 l-1.01949572563,2.03899145126 0.0,0.45310921967 l0.45310921967,0.226554609835 7.81613409519,-3.51159632206 m-0.45310921967,-3.1717646122 l6.11697435379,-1.81243687868 0.113277304918,1.01949572563 l-0.45310921967,1.4726048708 0.906218439341,0.0 l2.03899145126,-0.679663792253 1.4726048708,-1.13277301192 m1.24605029821,-3.73815089464 l3.73815089464,-0.339831896126 0.566386505961,0.906218439341 l1.24605029821,0.679663792253 2.26554602385,-0.45310921967 l0.679663792253,-0.566386505961 m0.113277304918,-3.1717646122 l3.1717646122,-0.906218439341 0.45310921967,1.4726048708 l0.906218439341,0.339831896126 0.906218439341,-0.226554609835 m-2.26554602385,-3.0584871769 l2.37882331014,-0.226554609835 m141.004862785,20.7863795757 l-0.339831896126,35.229241848 0.792941153049,9.17546153069 l0.339831896126,14.7260499001 -0.679663792253,4.19126033783 l0.0,5.43731033802 -1.01949572563,6.3435292244 m36.815123558,-76.5754556656 l-0.113277304918,1.35932758451 0.906218439341,7.92941093445 l0.0,3.85142832994 1.81243687868,13.3667218685 l1.4726048708,15.1791584492 1.69915959239,4.98420119286 l1.01949572563,4.41781491041 0.45310921967,4.30453747511 l1.81243687868,6.57008349895 1.4726048708,7.24974751472 l0.113277304918,4.41781491041 -0.566386505961,1.92571416497 l0.226554609835,1.4726048708 m-36.2487363815,-0.226554609835 l0.45310921967,-1.81243687868 0.113277304918,-15.8588218689 l0.566386505961,-2.60537803173 0.339831896126,-22.2023510933 l0.339831896126,-5.55058777332 0.792941153049,-3.1717646122 m25.2608394623,48.0295753479 l0.45310921967,2.71865516901 m0.226554609835,0.679663792253 l-0.566386505961,-3.28504174948 -3.1717646122,-9.40201640129 l-4.07798290253,-17.6712596416 -1.69915959239,-5.89041948318 l-1.4726048708,-9.74184811115 -0.566386505961,-8.72235238552 m-14.9526035786,6.68336093426 l2.15226873755,-3.73815089464 3.73815089464,-4.64436948299 m-1.13277301192,2.37882331014 l0.0,0.679663792253 m10.6480669975,-1.35932758451 l-2.83193260431,-0.792941153049 -2.83193260431,-1.69915959239 m-4.30453747511,0.566386505961 l-0.792941153049,5.21075606346 0.226554609835,4.64436948299 l1.35932758451,3.0584871769 1.01949572563,0.679663792253 l1.13277301192,0.113277304918 0.792941153049,-0.226554609835 l1.81243687868,-2.71865516901 0.113277304918,-0.679663792253 l0.113277304918,-6.11697435379 -0.566386505961,-2.37882331014 l0.0,-2.49210059643 "
     fill="none"
     stroke="black"
     stroke-width="1"
     id="path8" />
  <rect
     style="fill:#000000;stroke-width:4.5;stroke-miterlimit:4;stroke-dasharray:none;stroke-dashoffset:0"
     id="rect3340"
     width="154.42749"
     height="71.223022"
     x="274.82016"
     y="67.088814" />
  <flowRoot
     xml:space="preserve"
     id="flowRoot3344"
     style="font-style:normal;font-weight:normal;font-size:40px;line-height:125%;font-family:Sans;letter-spacing:0px;word-spacing:0px;fill:#000000;fill-opacity:1;stroke:none;stroke-width:1px;stroke-linecap:butt;stroke-linejoin:miter;stroke-opacity:1"><flowRegion
       id="flowRegion3346"><rect
         id="rect3348"
         width="155.39569"
         height="48.920864"
         x="-54.676258"
         y="142.62839" /></flowRegion><flowPara
       id="flowPara3350">CENSORE</flowPara></flowRoot>  <rect
     style="fill:#000000;stroke-width:4.5;stroke-miterlimit:4;stroke-dasharray:none;stroke-dashoffset:0"
     id="rect3340-0"
     width="59.603119"
     height="29.021959"
     x="107.67836"
     y="218.95247" />
  <rect
     style="fill:#000000;stroke-width:4.5;stroke-miterlimit:4;stroke-dasharray:none;stroke-dashoffset:0"
     id="rect3340-0-3"
     width="53.847725"
     height="36.935627"
     x="323.43585"
     y="234.59222" />
  <rect
     style="fill:#000000;stroke-width:4.5;stroke-miterlimit:4;stroke-dasharray:none;stroke-dashoffset:0"
     id="rect3340-0-3-0"
     width="53.847725"
     height="36.935627"
     x="536.3855"
     y="229.19655" />
  <rect
     style="fill:#000000;stroke-width:4.5;stroke-miterlimit:4;stroke-dasharray:none;stroke-dashoffset:0"
     id="rect3340-0-3-0-0"
     width="53.847725"
     height="36.935627"
     x="557.24878"
     y="406.17496" />
  <rect
     style="fill:#000000;stroke-width:4.5;stroke-miterlimit:4;stroke-dasharray:none;stroke-dashoffset:0"
     id="rect3340-0-3-0-0-3"
     width="22.912474"
     height="24.70541"
     x="122.71642"
     y="370.92322" />
  <rect
     style="fill:#000000;stroke-width:4.5;stroke-miterlimit:4;stroke-dasharray:none;stroke-dashoffset:0"
     id="rect3340-0-3-0-4"
     width="87.660675"
     height="31.899658"
     x="751.49341"
     y="77.397995" />
</svg>
