<?xml version="1.0" encoding="utf-8" ?>
<svg baseProfile="full" height="141.188229211" version="1.1" width="482.469754312" xmlns="http://www.w3.org/2000/svg" xmlns:ev="http://www.w3.org/2001/xml-events" xmlns:xlink="http://www.w3.org/1999/xlink"><defs /><rect fill="none" height="141.188229211" width="482.469754312" x="0" y="0" /><path d="M25,39.1057289205 m0.0,0.0 m23.0808401108,9.399330616 l-3.0584871769,-0.113277304918 -3.51159632206,2.26554602385 l-2.60537803173,4.41781491041 -0.792941153049,2.15226873755 l3.28504174948,-1.92571416497 4.30453747511,-1.81243687868 l2.71865516901,-0.339831896126 3.28504174948,0.113277304918 m0.906218439341,0.566386505961 l-3.0584871769,-3.39831918478 -0.906218439341,-1.81243687868 l-0.792941153049,-3.0584871769 0.0,-2.71865516901 l1.24605029821,-1.35932758451 2.37882331014,-1.13277301192 l1.5858823061,-0.339831896126 2.71865516901,0.113277304918 l1.69915959239,1.69915959239 4.64436948299,22.7687382698 l2.60537803173,9.62857067585 1.69915959239,4.75764662027 l0.45310921967,2.60537803173 m-13.8198304176,-30.0184845924 l0.339831896126,2.37882331014 2.49210059643,4.98420119286 l3.0584871769,11.8941164017 0.792941153049,4.64436948299 l3.96470546722,12.1206712723 2.26554602385,2.71865516901 l1.69915959239,0.906218439341 3.73815089464,1.24605029821 l5.55058777332,0.113277304918 4.30453747511,-1.69915959239 l2.94520974159,-2.15226873755 6.11697435379,-6.57008349895 l1.5858823061,-2.37882331014 2.60537803173,-6.45680606365 l1.24605029821,-4.64436948299 -1.5858823061,-0.226554609835 l-1.92571416497,1.01949572563 -6.90991520882,5.77714264393 l-0.113277304918,-1.13277301192 1.5858823061,-3.96470546722 l-3.62487375736,1.69915959239 -0.566386505961,-0.566386505961 l-1.5858823061,0.113277304918 -4.30453747511,2.49210059643 l-1.01949572563,2.49210059643 -1.5858823061,2.49210059643 l-2.03899145126,2.03899145126 -2.83193260431,1.4726048708 l-1.4726048708,1.35932758451 -2.26554602385,1.24605029821 l-1.35932758451,0.226554609835 -0.566386505961,-0.113277304918 l-0.113277304918,-0.45310921967 m11.3277304173,9.40201640129 l1.4726048708,4.87092405558 1.01949572563,6.3435292244 l0.792941153049,2.71865516901 m2.03899145126,-15.4057133198 l2.83193260431,4.30453747511 0.906218439341,0.792941153049 l1.35932758451,0.0 5.55058777332,-6.79663836956 l2.60537803173,-2.15226873755 m53.6379933357,-23.9581573009 l-0.45310921967,-2.83193260431 -1.13277301192,-3.39831918478 l-0.113277304918,-3.1717646122 0.339831896126,-1.92571416497 l1.81243687868,-4.87092405558 1.13277301192,-5.66386520863 l0.226554609835,-3.85142832994 -0.45310921967,-1.4726048708 l-1.35932758451,-0.792941153049 -2.83193260431,0.0 l-5.32403349876,2.03899145126 -3.1717646122,0.679663792253 l-2.03899145126,2.37882331014 -0.679663792253,3.0584871769 l0.0,1.69915959239 -0.226554609835,-0.792941153049 l0.0,-1.13277301192 0.906218439341,-1.01949572563 l1.69915959239,-1.01949572563 1.69915959239,0.0 l0.45310921967,-0.566386505961 0.0,-2.83193260431 l-0.113277304918,3.0584871769 2.37882331014,0.566386505961 l1.5858823061,2.26554602385 0.679663792253,1.4726048708 l0.226554609835,1.81243687868 -2.26554602385,5.77714264393 l-0.113277304918,5.09747862816 0.339831896126,3.39831918478 l3.39831918478,8.04268836975 2.37882331014,2.83193260431 l4.07798290253,2.49210059643 2.71865516901,1.01949572563 l4.07798290253,0.339831896126 7.58957922459,-3.39831918478 l3.85142832994,-1.24605029821 2.26554602385,-1.24605029821 l4.19126033783,-3.0584871769 4.30453747511,-4.19126033783 l5.66386520863,-7.36302495003 m1.5858823061,-3.51159632206 l-7.36302495003,1.5858823061 m-2.60537803173,0.906218439341 l-4.19126033783,1.69915959239 m-26.3936114311,2.49210059643 l-0.113277304918,0.113277304918 m2.37882331014,3.51159632206 l11.7808389664,-3.51159632206 12.3472261429,-2.15226873755 l7.47630178928,-2.37882331014 m-16.1986541748,18.577477932 l-6.3435292244,6.00369691849 -3.73815089464,4.75764662027 l3.51159632206,2.60537803173 10.6480669975,6.57008349895 l4.64436948299,3.85142832994 m-9.17546153069,-23.5616779327 l0.0,19.0305864811 1.13277301192,8.94890666008 l0.792941153049,3.28504174948 m-20.7297468185,-65.9273910522 l0.226554609835,1.92571416497 m91.5858879685,8.21259856224 l0.113277304918,-1.01949572563 -1.01949572563,-0.906218439341 l-1.69915959239,-0.113277304918 -1.69915959239,1.01949572563 l-1.4726048708,2.71865516901 -0.113277304918,1.5858823061 l3.85142832994,-2.83193260431 0.792941153049,-0.113277304918 l0.566386505961,0.339831896126 m1.01949572563,-4.30453747511 l0.566386505961,-0.906218439341 4.30453747511,-1.5858823061 l3.51159632206,0.0 1.35932758451,0.679663792253 l0.679663792253,1.13277301192 0.226554609835,3.28504174948 l-2.49210059643,3.51159632206 -1.5858823061,0.45310921967 m-3.96470546722,-5.09747862816 l-0.566386505961,0.45310921967 0.113277304918,1.5858823061 l0.906218439341,0.0 0.679663792253,-0.792941153049 l0.0,-0.906218439341 -0.566386505961,-0.45310921967 l-0.45310921967,0.679663792253 m-3.1717646122,2.03899145126 l2.37882331014,0.0 0.113277304918,0.679663792253 l-0.45310921967,3.96470546722 -0.339831896126,16.1986541748 m2.60537803173,-19.0305864811 l-1.01949572563,18.9173090458 m-1.5858823061,1.81243687868 l-0.566386505961,0.679663792253 0.566386505961,3.85142832994 l1.92571416497,2.49210059643 1.5858823061,0.906218439341 l1.92571416497,0.792941153049 5.32403349876,1.01949572563 l5.43731033802,-0.226554609835 2.26554602385,-0.906218439341 l2.94520974159,-2.15226873755 0.792941153049,-1.4726048708 l0.113277304918,-2.83193260431 -3.0584871769,-2.49210059643 l-2.37882331014,-0.906218439341 -5.09747862816,-0.906218439341 l-6.68336093426,-0.226554609835 -2.03899145126,0.226554609835 l-0.226554609835,0.566386505961 m19.7102510929,1.92571416497 l-0.566386505961,-0.113277304918 0.792941153049,0.566386505961 l5.55058777332,1.4726048708 4.19126033783,1.81243687868 l-1.81243687868,0.566386505961 -3.73815089464,-1.13277301192 l-2.37882331014,-1.13277301192 0.792941153049,0.113277304918 l1.35932758451,0.906218439341 2.37882331014,2.26554602385 l0.0,0.792941153049 -2.60537803173,0.0 l-2.37882331014,-1.69915959239 2.26554602385,1.5858823061 l1.13277301192,1.4726048708 0.339831896126,1.24605029821 l-0.792941153049,0.226554609835 m-18.6907553673,-2.94520974159 l0.113277304918,13.7065541744 -1.13277301192,9.28873896599 m3.62487375736,-22.7687382698 l0.226554609835,9.28873896599 -0.339831896126,9.17546153069 m125.172607899,-45.2542877197 l3.28504174948,-3.51159632206 1.01949572563,-2.71865516901 l0.339831896126,-3.0584871769 -1.01949572563,-2.71865516901 l-3.39831918478,-4.64436948299 -2.37882331014,-4.19126033783 l-5.21075606346,-5.09747862816 -2.60537803173,-1.35932758451 l-3.39831918478,-0.45310921967 -2.71865516901,0.226554609835 l-1.92571416497,1.35932758451 -2.26554602385,2.94520974159 l-0.792941153049,1.35932758451 -1.01949572563,3.39831918478 l0.113277304918,6.45680606365 2.83193260431,15.1791584492 l0.0,8.26924324036 -0.679663792253,5.32403349876 l-0.566386505961,1.69915959239 -3.51159632206,6.79663836956 l-1.4726048708,0.906218439341 -1.24605029821,0.226554609835 l-16.5384864807,-1.13277301192 -3.51159632206,-1.13277301192 l-4.19126033783,-2.15226873755 -2.71865516901,-1.92571416497 l-1.24605029821,-1.92571416497 -0.792941153049,-2.03899145126 l-0.339831896126,-4.87092405558 0.566386505961,-5.55058777332 l1.4726048708,-4.07798290253 1.92571416497,-2.37882331014 l1.35932758451,-1.01949572563 2.37882331014,-0.906218439341 l1.69915959239,-0.226554609835 7.13647007942,0.0 l2.94520974159,0.566386505961 4.30453747511,1.81243687868 l9.62857067585,8.15596580505 0.906218439341,1.69915959239 m-5.66386520863,1.35932758451 l-8.15596580505,-1.92571416497 -5.32403349876,0.0 l-10.1949572563,1.4726048708 -8.72235238552,-0.226554609835 l-1.92571416497,0.679663792253 -1.35932758451,1.01949572563 l-1.92571416497,5.32403349876 -0.45310921967,3.62487375736 l0.0,0.566386505961 0.792941153049,0.339831896126 l5.66386520863,-2.94520974159 1.5858823061,-0.566386505961 l1.92571416497,-0.113277304918 0.45310921967,0.906218439341 l-0.566386505961,1.35932758451 -2.60537803173,2.83193260431 l-4.19126033783,3.28504174948 -1.35932758451,1.4726048708 l0.0,0.566386505961 8.94890666008,-4.19126033783 l0.679663792253,0.113277304918 6.00369691849,5.32403349876 l1.24605029821,0.566386505961 1.35932758451,0.0 l2.26554602385,-1.13277301192 2.49210059643,-1.92571416497 l4.98420119286,-7.81613409519 1.69915959239,-2.03899145126 l3.62487375736,-2.83193260431 3.0584871769,-1.13277301192 m-3.85142832994,12.3472261429 l-1.5858823061,8.72235238552 -0.226554609835,12.5737810135 l-1.01949572563,13.8198304176 0.0,2.71865516901 l0.226554609835,-1.01949572563 m1.69915959239,-36.4752912521 l1.35932758451,0.339831896126 8.04268836975,8.38252067566 l5.66386520863,8.38252067566 -3.62487375736,1.69915959239 l-6.3435292244,2.15226873755 -13.1401669979,2.83193260431 l-6.23025178909,2.03899145126 m89.7168028355,-40.5532777309 l-5.32403349876,-0.566386505961 -9.40201640129,0.226554609835 l-6.68336093426,1.01949572563 -1.92571416497,0.679663792253 l-0.566386505961,0.339831896126 -1.24605029821,2.26554602385 l0.0,1.24605029821 2.26554602385,3.62487375736 l0.566386505961,0.566386505961 2.26554602385,0.906218439341 l4.87092405558,1.35932758451 13.1401669979,0.0 l2.49210059643,-0.792941153049 2.37882331014,-1.24605029821 l8.04268836975,-1.4726048708 3.51159632206,-0.113277304918 l3.1717646122,-1.69915959239 1.92571416497,-1.35932758451 l1.01949572563,-2.26554602385 -0.226554609835,-7.13647007942 l-3.28504174948,-6.11697435379 -0.906218439341,-2.49210059643 l0.113277304918,-4.75764662027 2.26554602385,-4.53109204769 l1.4726048708,-1.35932758451 2.60537803173,-1.35932758451 l5.43731033802,-1.5858823061 2.03899145126,0.0 l2.15226873755,1.01949572563 1.69915959239,1.35932758451 l0.113277304918,2.83193260431 0.45310921967,1.13277301192 l1.13277301192,0.906218439341 2.26554602385,0.566386505961 l1.81243687868,-2.26554602385 -0.566386505961,-4.75764662027 l-1.01949572563,-1.69915959239 -2.37882331014,-1.92571416497 l-8.38252067566,-2.83193260431 -4.87092405558,-0.113277304918 l-9.06218409538,2.37882331014 -1.35932758451,1.81243687868 l-1.4726048708,4.07798290253 -0.226554609835,5.32403349876 l0.679663792253,4.07798290253 0.679663792253,1.4726048708 l0.226554609835,2.60537803173 -1.69915959239,3.62487375736 l-1.13277301192,4.75764662027 -0.566386505961,1.13277301192 l-1.35932758451,0.792941153049 -2.03899145126,0.0 l-5.77714264393,-1.35932758451 m40.3267192841,-18.4642004967 l0.792941153049,1.13277301192 0.0,2.26554602385 l-0.45310921967,1.24605029821 -2.15226873755,4.64436948299 l-1.5858823061,2.49210059643 -1.13277301192,1.13277301192 l-1.24605029821,0.45310921967 -2.37882331014,0.0 l-1.24605029821,-0.45310921967 -0.45310921967,-0.566386505961 l-0.339831896126,-1.81243687868 0.906218439341,-1.01949572563 l2.83193260431,0.906218439341 1.35932758451,-0.792941153049 l1.4726048708,-1.92571416497 0.906218439341,-2.37882331014 l0.113277304918,-2.26554602385 -0.566386505961,-1.69915959239 l-1.13277301192,-0.45310921967 -0.339831896126,-0.906218439341 m-40.1001644135,32.0574760437 l-3.1717646122,10.1949572563 -0.226554609835,14.8393261433 l0.45310921967,12.9136121273 0.339831896126,1.4726048708 l0.566386505961,0.226554609835 6.45680606365,-0.339831896126 " fill="none" stroke="black" stroke-width="1" /></svg>