<?xml version="1.0" encoding="utf-8" ?>
<svg baseProfile="full" height="135.750918686" version="1.1" width="137.223521098" xmlns="http://www.w3.org/2000/svg" xmlns:ev="http://www.w3.org/2001/xml-events" xmlns:xlink="http://www.w3.org/1999/xlink"><defs /><rect fill="none" height="135.750918686" width="137.223521098" x="0" y="0" /><path d="M83.5643652268,80.2793238498 m1.24605029821,-5.66386520863 l-1.01949572563,-8.38252067566 -5.43731033802,-8.15596580505 l-5.89041948318,-6.11697435379 -1.13277301192,-4.98420119286 l-0.226554609835,-2.94520974159 -0.566386505961,-18.577477932 l8.94890666008,0.339831896126 3.1717646122,0.566386505961 l2.94520974159,2.60537803173 0.0,4.53109204769 l-0.906218439341,0.0 3.28504174948,1.01949572563 l9.85512554646,0.113277304918 -7.92941093445,2.83193260431 l-4.41781491041,0.566386505961 3.0584871769,4.53109204769 l7.02319264412,5.43731033802 5.21075606346,11.7808389664 l3.85142832994,9.96840238571 0.792941153049,6.11697435379 l-0.339831896126,3.62487375736 m-20.9563016891,2.60537803173 l-7.70285665989,-6.11697435379 -17.444704771,-11.5542852879 l-5.89041948318,-17.8978133202 -0.113277304918,-21.5226864815 l-1.5858823061,2.49210059643 -15.4057133198,13.8198304176 l0.226554609835,0.792941153049 -6.3435292244,12.9136121273 l0.566386505961,6.57008349895 3.39831918478,8.38252067566 l-4.41781491041,7.92941093445 1.13277301192,10.6480669975 l-1.4726048708,4.98420119286 12.4605035782,2.49210059643 l4.30453747511,-1.5858823061 m56.2988185883,-16.4252090454 l4.19126033783,9.51529324055 -3.96470546722,3.62487375736 l-3.39831918478,-2.26554602385 m-20.7297468185,-60.1502466202 l0.226554609835,1.5858823061 m7.47630178928,4.19126033783 l-4.98420119286,0.226554609835 0.679663792253,4.07798290253 l2.03899145126,1.92571416497 4.30453747511,-0.339831896126 m-2.03899145126,-1.4726048708 l-3.39831918478,-0.792941153049 -3.85142832994,-4.07798290253 l-1.4726048708,-2.26554602385 m20.3899145126,53.3536100388 l11.1011755466,25.600669384 3.51159632206,0.0 l-5.43731033802,-3.62487375736 m-67.2867155075,-13.9331078529 l-1.5858823061,13.3667218685 -1.5858823061,4.19126033783 l0.906218439341,-2.71865516901 m68.1929349899,-10.7613432407 l-4.30453747511,3.85142832994 -23.5616779327,4.98420119286 l-15.4057133198,0.0 -11.1011755466,-3.96470546722 l-14.9526035786,-8.38252067566 m38.9673924446,1.4726048708 l7.58957922459,12.9136121273 2.26554602385,2.60537803173 l-2.71865516901,-4.30453747511 m-18.3509230614,-4.87092405558 l-6.3435292244,9.17546153069 -3.51159632206,0.0 l0.0,-2.26554602385 m32.0574760437,-25.8272242546 l-2.83193260431,4.53109204769 -10.4215121269,5.32403349876 l-12.1206712723,-3.85142832994 -0.226554609835,3.85142832994 l-9.62857067585,4.53109204769 -3.28504174948,-7.47630178928 l-12.007393837,0.45310921967 -0.226554609835,-1.4726048708 m-10.3082346916,-10.874620676 l0.0,-1.35932758451 " fill="none" stroke="black" stroke-width="1" /></svg>
