<?xml version="1.0" encoding="utf-8" ?>
<svg baseProfile="full" height="155.041181356" version="1.1" width="155.74554719" xmlns="http://www.w3.org/2000/svg" xmlns:ev="http://www.w3.org/2001/xml-events" xmlns:xlink="http://www.w3.org/1999/xlink"><defs /><rect fill="none" height="155.041181356" width="155.74554719" x="0" y="0" /><path d="M25,3 m0.0,0.0 m33.7381532788,28.0255439878 l-0.679663792253,0.679663792253 0.339831896126,3.85142832994 l0.0,10.4215121269 -1.13277301192,7.92941093445 l6.90991520882,2.83193260431 m-8.38252067566,-1.35932758451 l0.113277304918,0.566386505961 2.37882331014,1.35932758451 l1.4726048708,1.35932758451 1.81243687868,2.15226873755 l0.679663792253,1.4726048708 m-4.64436948299,-8.15596580505 l-0.792941153049,0.45310921967 -2.15226873755,2.49210059643 m-1.35932758451,-0.45310921967 l1.4726048708,1.5858823061 2.60537803173,5.43731033802 l0.113277304918,0.906218439341 m-10.7613432407,-38.0611729622 l-0.906218439341,1.01949572563 -2.03899145126,6.90991520882 l-1.92571416497,10.6480669975 -1.69915959239,7.47630178928 l-1.01949572563,2.60537803173 0.0,0.679663792253 l2.60537803173,3.62487375736 1.4726048708,2.94520974159 m-5.32403349876,-6.68336093426 l1.81243687868,3.39831918478 0.226554609835,9.85512554646 m-0.45310921967,-14.9526035786 l-5.77714264393,7.24974751472 -2.49210059643,4.30453747511 m14.8393261433,-42.8188180923 l0.566386505961,0.566386505961 3.28504174948,1.01949572563 l11.7808389664,2.15226873755 2.60537803173,-9.85512554646 l1.24605029821,-3.0584871769 2.26554602385,-3.85142832994 l2.94520974159,-3.85142832994 1.81243687868,-1.4726048708 l2.03899145126,-0.906218439341 1.24605029821,-0.113277304918 l0.792941153049,0.339831896126 0.792941153049,2.49210059643 l0.0,2.60537803173 -1.13277301192,2.60537803173 l-2.15226873755,3.0584871769 -5.21075606346,5.43731033802 l-5.66386520863,6.90991520882 -0.339831896126,2.26554602385 m-15.9720993042,-4.75764662027 l-1.4726048708,0.339831896126 -1.69915959239,4.53109204769 m15.7455456257,-2.03899145126 l0.566386505961,7.92941093445 m2.60537803173,-7.81613409519 l-1.24605029821,-0.339831896126 -0.566386505961,-10.874620676 l-0.45310921967,-0.679663792253 -1.35932758451,-0.45310921967 l-1.5858823061,0.0 -8.72235238552,2.03899145126 l-3.85142832994,-0.113277304918 0.792941153049,0.906218439341 l2.26554602385,5.55058777332 1.13277301192,1.81243687868 m28.0927705765,-13.8198304176 l-1.01949572563,-2.71865516901 -0.339831896126,0.45310921967 m-6.3435292244,1.24605029821 l2.03899145126,-1.5858823061 0.0,1.24605029821 m-1.35932758451,5.43731033802 l0.45310921967,-1.5858823061 0.0,1.24605029821 m-3.85142832994,-0.792941153049 l0.45310921967,0.566386505961 1.69915959239,6.00369691849 l0.566386505961,0.906218439341 0.792941153049,0.339831896126 m56.828237474,29.3388214707 l0.906218439341,-3.0584871769 1.24605029821,-8.04268836975 m-16.5384864807,10.4215121269 l2.49210059643,-4.75764662027 1.69915959239,-5.32403349876 l0.226554609835,-2.15226873755 m0.0,0.0 l5.09747862816,0.0 8.49579751492,2.26554602385 l-0.566386505961,-0.226554609835 -0.339831896126,-4.98420119286 l0.113277304918,-10.4215121269 m-13.4799993038,11.8941164017 l3.28504174948,-8.49579751492 2.60537803173,-4.98420119286 l-3.62487375736,3.28504174948 -1.4726048708,1.92571416497 l-9.17546153069,7.02319264412 m21.8625187874,-9.96840238571 l0.0,-3.62487375736 -1.81243687868,-2.03899145126 l-0.339831896126,-1.13277301192 -0.113277304918,-4.87092405558 l-4.75764662027,1.5858823061 -4.87092405558,2.71865516901 l-2.15226873755,1.69915959239 -4.98420119286,5.43731033802 l-6.90991520882,4.07798290253 1.13277301192,-0.566386505961 l0.566386505961,0.113277304918 0.679663792253,3.96470546722 l3.62487375736,4.87092405558 m-4.07798290253,-4.53109204769 l0.0,0.0 m0.906218439341,-0.113277304918 l-5.77714264393,2.15226873755 0.339831896126,-1.24605029821 l3.85142832994,-3.0584871769 m-0.566386505961,-2.03899145126 l2.60537803173,0.566386505961 m0.226554609835,-0.792941153049 l0.339831896126,1.69915959239 0.45310921967,-1.4726048708 m-48.672272563,90.5440402031 l1.4726048708,15.7455456257 -0.45310921967,8.83562982082 l-1.01949572563,6.00369691849 m4.30453747511,-27.1865534782 l-1.35932758451,2.37882331014 -7.92941093445,9.17546153069 l5.55058777332,7.81613409519 3.51159632206,7.02319264412 l0.792941153049,2.49210059643 0.0,-0.566386505961 m-4.19126033783,-53.4668874741 l-5.32403349876,4.98420119286 0.113277304918,7.58957922459 l4.64436948299,11.7808389664 2.37882331014,4.07798290253 l1.35932758451,1.01949572563 2.83193260431,0.45310921967 l7.92941093445,-5.55058777332 3.62487375736,-12.2339487076 l0.566386505961,-9.40201640129 -0.226554609835,-0.566386505961 l-1.81243687868,-3.1717646122 -2.49210059643,-2.37882331014 l-6.79663836956,-4.07798290253 -3.96470546722,1.24605029821 l-8.15596580505,8.60907495022 -0.566386505961,1.24605029821 m6.90991520882,-17.444704771 l-2.15226873755,3.28504174948 2.49210059643,3.96470546722 l2.49210059643,1.69915959239 5.21075606346,1.5858823061 l1.35932758451,-0.113277304918 3.96470546722,-3.73815089464 l0.792941153049,-3.0584871769 -2.94520974159,-4.53109204769 l-1.69915959239,-1.92571416497 -2.03899145126,-0.906218439341 l-1.69915959239,0.0 -4.87092405558,4.07798290253 l0.0,0.339831896126 m8.04268836975,2.60537803173 l7.81613409519,4.07798290253 5.89041948318,4.30453747511 m-13.9331078529,-9.06218409538 l16.1986541748,2.49210059643 m-20.0500822067,-7.58957922459 l1.81243687868,1.81243687868 1.13277301192,-0.339831896126 l-0.906218439341,-0.792941153049 -0.566386505961,0.113277304918 l0.113277304918,1.13277301192 0.679663792253,-0.113277304918 l-1.01949572563,-1.81243687868 -0.226554609835,0.113277304918 m-2.60537803173,15.9720993042 l-0.792941153049,1.24605029821 -7.24974751472,6.23025178909 l-13.0268895626,6.3435292244 -8.15596580505,3.1717646122 l-1.13277301192,-6.3435292244 13.5932767391,-5.77714264393 l2.03899145126,0.679663792253 0.679663792253,1.5858823061 l-6.79663836956,1.4726048708 -16.9915950298,-3.28504174948 l-0.113277304918,-1.24605029821 5.55058777332,-6.68336093426 l7.58957922459,-1.24605029821 6.3435292244,0.566386505961 l5.89041948318,3.0584871769 -3.96470546722,1.92571416497 l-7.24974751472,-0.792941153049 -9.62857067585,-5.89041948318 l-0.226554609835,-5.32403349876 6.57008349895,-1.01949572563 l19.8235285282,4.53109204769 5.43731033802,5.66386520863 l1.24605029821,6.68336093426 0.566386505961,0.0 m55.5821850896,-5.49394369125 l-0.339831896126,1.01949572563 0.0,16.3119316101 l1.5858823061,5.66386520863 m-0.339831896126,-23.1085705757 l-8.83562982082,0.566386505961 -4.75764662027,-0.226554609835 l-0.906218439341,-6.90991520882 0.339831896126,-6.57008349895 l-5.32403349876,0.113277304918 m6.68336093426,0.45310921967 l7.47630178928,-1.13277301192 5.55058777332,-0.113277304918 l4.87092405558,0.906218439341 1.24605029821,0.792941153049 l0.226554609835,6.68336093426 -0.906218439341,5.89041948318 l-6.11697435379,0.0 m-10.874620676,-13.1401669979 l-0.339831896126,-7.02319264412 -0.566386505961,-0.339831896126 l-5.43731033802,0.226554609835 -1.13277301192,0.226554609835 l-0.113277304918,0.566386505961 0.113277304918,7.36302495003 m4.07798290253,-5.77714264393 l0.226554609835,0.679663792253 m0.226554609835,7.13647007942 l-3.51159632206,0.113277304918 -0.45310921967,-0.566386505961 l0.0,-2.03899145126 m19.5969736576,35.3425192833 l-6.3435292244,-0.226554609835 m0.679663792253,0.113277304918 l-1.13277301192,-0.566386505961 -0.45310921967,-2.60537803173 m1.92571416497,3.73815089464 l-5.21075606346,0.226554609835 m5.21075606346,0.792941153049 l-0.679663792253,2.94520974159 " fill="none" stroke="black" stroke-width="1" /></svg>