<?xml version="1.0" encoding="utf-8" ?>
<svg baseProfile="full" height="300" version="1.1" width="300" xmlns="http://www.w3.org/2000/svg" xmlns:ev="http://www.w3.org/2001/xml-events" xmlns:xlink="http://www.w3.org/1999/xlink"><defs /><rect fill="none" height="300" width="300" x="0" y="0" /><path d="M129.111758119,129.902478527 m-0.658935168639,-0.131787038062 l-5.00790731633,2.89931470734 -12.3879819679,5.93041660444 l-15.4190831715,6.72113904951 -19.3726947034,7.51186080114 l-51.2651557908,15.155508792 71.296786443,-33.0785457951 l11.9926203986,-2.76752769095 0.527148152248,0.922509288103 l-2.50395365817,3.03110189709 -6.19399098394,4.34897206101 l-12.6515549605,5.00790731633 -10.9383242675,-26.4891946288 l26.7527690083,-2.89931470734 25.9620458698,1.0542963045 l25.6984714903,6.72113904951 16.2098049232,7.38007430483 l5.79862941468,5.66684257165 -94.4913041017,2.37216664177 l3.03110189709,-1.44965735367 22.4037959071,-1.84501857621 l18.4501843752,0.395361092516 20.2952036448,3.16288874013 l-80.9172401998,29.6520816353 -2.37216664177,0.395361092516 l10.2793890122,-0.922509288103 90.8012683362,-4.74433328355 l-42.5672123622,0.0 31.2335279123,-15.5508703613 l36.5050099549,-6.19399098394 2.63574067456,-0.790722185031 l-16.7369536822,0.922509288103 -42.5672123622,-2.10859260899 l9.22509218759,-2.37216664177 13.0469165298,-1.84501857621 l44.2804430552,-3.03110189709 -81.9715377178,0.0 l62.2034814451,-15.682657551 25.6984714903,-3.42646277291 l-28.3342125115,4.34897206101 -52.8466020678,5.5350553819 l110.832893441,24.7759639358 -131.787034421,-0.263574076124 l-27.8070637525,0.790722185031 6.85292554582,2.10859260899 l39.1407482024,5.93041660444 51.3969429805,5.5350553819 l24.644176746,0.527148152248 22.6673702866,1.0542963045 l54.8234043665,-16.3415921129 0.0,-2.76752769095 l-23.1945176587,0.527148152248 -56.0094890743,4.34897206101 l-48.761204733,26.2256202493 119.530836869,0.0 l-120.189772818,-39.7996841511 23.9852407972,3.29467592988 l57.0637865923,6.85292554582 1.58144437006,1.0542963045 l-12.6515549605,3.9536111852 -48.8929919228,6.06220379419 l-30.0474432045,2.76752769095 -72.2192967712,2.50395365817 l131.787034421,-27.9388509423 6.72113904951,0.0 l-0.395361092516,0.922509288103 -17.9230370031,6.19399098394 l-131.787034421,27.8070637525 -24.3806023665,6.32577748025 l0.0,10.0158146327 131.787034421,-8.82973131178 l24.5123895563,-6.19399098394 13.9694254711,-17.1323152514 l0.0,-4.08539802823 -131.787034421,19.5044818932 l0.0,10.9383242675 15.9462319305,3.03110189709 l17.1323152514,0.0 44.6758046244,-2.63574067456 l44.1486558654,-3.55824996266 -121.903006285,0.0 l0.0,-3.69003715241 89.6151836284,-8.0390088667 l19.3726947034,0.0 49.8154967035,-5.00790731633 l12.6515549605,-2.50395365817 -8.56615762571,-2.24037962538 l-19.3726947034,-0.527148152248 -73.4053759315,-0.395361092516 " fill="none" stroke="black" stroke-width="1.5" /></svg>