<?xml version="1.0" encoding="utf-8" ?>
<svg baseProfile="full" height="300" version="1.1" width="300" xmlns="http://www.w3.org/2000/svg" xmlns:ev="http://www.w3.org/2001/xml-events" xmlns:xlink="http://www.w3.org/1999/xlink"><defs /><rect fill="none" height="300" width="300" x="0" y="0" /><path d="M194.599218212,125.195504962 m0.0,0.0 m79.1788830512,-8.79765367235 l1.22189632552,-7.5757571861 0.0,-41.7888549437 l0.0,10.2639290701 -0.977517092566,1.95503418513 l-10.2639290701,6.35386069984 -20.2834798717,7.5757571861 l-15.1515143722,4.64320606913 -15.8846530355,3.42130990435 l-29.8142696355,0.73313777924 -8.30889520644,-0.977517092566 l-20.2834798717,-4.64320606913 -21.0166172491,-5.86510223392 l-10.752687536,-3.91006837026 -22.7272728442,-8.79765367235 l-23.2160293813,-10.752687536 -19.3059616539,-10.752687536 l-19.0615833854,0.0 67.6930594237,0.0 l28.3479948807,2.19941341809 30.5474082988,9.77517060418 l32.0136830536,19.3059616539 51.3196447076,39.5894415256 l27.1260996803,27.8592357719 0.0,75.2688153239 l-1.22189632552,3.17693034992 -16.129031304,2.93255111696 l-47.4095769802,-3.6656891373 -15.640273481,-5.37634376801 l-68.4261929434,-34.4574760261 -99.9511246035,-57.9178875336 l-1.22189632552,-25.4154427993 0.0,-53.274681143 l50.3421316334,1.71065495217 12.2189635767,4.39882683618 l67.4486798692,45.2101661339 71.8475067054,59.6285392711 l23.7047884901,16.8621699673 2.44379265105,0.977517092566 l-9.5307916927,-0.73313777924 -33.2355808258,-18.5728242765 l-26.8817201259,-21.0166172491 -25.6598223538,-25.4154427993 l-22.2385137353,-23.7047884901 -16.6177904129,-20.0391003172 l-9.77517060418,-14.1739974404 -1.71065495217,-5.13196453505 l34.2130964717,0.0 49.3646134157,20.7722376946 l46.676438317,32.7468217169 37.3900281075,45.4545456883 l0.0,77.7126057246 -7.82013674052,-4.88758530209 l-11.7302044678,-9.04203322678 -35.9237533527,-35.4349942438 l-108.748778276,-125.122187848 -65.0048843249,-2.19941341809 l28.1036153263,37.3900281075 46.676438317,70.8699884877 l9.28641213827,17.3509277903 3.42130990435,10.2639290701 l-3.91006837026,-1.22189632552 -10.0195501586,-5.62072332244 l-84.0664689962,-81.3782938975 -10.2639290701,-47.6539565347 l37.6344076619,31.5249265165 139.540560986,146.383178222 l72.8250197796,9.5307916927 0.0,-1.71065495217 l-14.6627565492,-26.3929610171 -49.3646134157,-55.7184715437 l-53.0303015886,-80.8895399322 -50.8308855987,-22.7272728442 l-29.081133544,0.0 1.71065495217,3.91006837026 l79.1788830512,98.7292268313 116.080154622,84.7996076595 l0.0,-6.10948178835 -19.3059616539,-44.7214070251 l-53.0303015886,-76.0019539872 -68.6705724978,-60.6060574888 l-80.1564012689,0.0 60.6060574888,68.4261929434 l107.771260058,116.324534176 34.7018555806,2.688171884 l-69.6480907156,-64.5161252161 -71.3587475965,-76.7350926504 l-85.5327463228,-46.1876792081 -5.37634376801,0.0 " fill="none" stroke="black" stroke-width="1.5" /></svg>