<?xml version="1.0" encoding="utf-8" ?>
<svg baseProfile="full" height="300" version="1.1" width="300" xmlns="http://www.w3.org/2000/svg" xmlns:ev="http://www.w3.org/2001/xml-events" xmlns:xlink="http://www.w3.org/1999/xlink"><defs /><rect fill="none" height="300" width="300" x="0" y="0" /><path d="M262.728936718,164.560442795 m-16.1172158915,-2.19780214512 l-143.95604448,2.56410270341 26.7399275043,1.09890107256 l122.527470855,-4.57875468984 -118.864470573,4.02930397287 l-25.2747262349,3.84615381418 67.5824203592,2.74725286209 l99.6337017426,-10.2564108136 -125.824178048,-1.2820513517 l-84.4322339943,2.19780214512 13.7362635877,2.3809523038 l21.4285716979,1.2820513517 -11.7216120831,6.41025627667 l-0.915750913876,-0.366300377597 0.183150188798,-2.19780214512 m53.4798550086,-23.6263745658 l2.3809523038,-3.29670333814 m0.183150188798,-0.183150188798 l1.64835166907,5.12820540682 2.19780214512,2.3809523038 m3.29670333814,5.31135532457 l8.42490874495,2.74725286209 34.065935779,0.915750913876 m6.59340667627,-1.2820513517 l0.915750913876,-0.366300377597 0.183150188798,-1.09890107256 l-5.12820540682,-3.29670333814 0.549450536279,-3.47985349682 l-1.64835166907,-1.46520151039 -8.24175834534,-1.83150182775 l-15.750916056,1.09890107256 -5.49450572418,1.09890107256 m-56.2271071479,10.9890114484 l-21.4285716979,3.84615381418 m-15.2014658208,6.95970699364 l-4.39560429023,6.0439559593 -1.83150182775,3.84615381418 l0.366300377597,0.915750913876 m7.87545802798,7.14285739325 l6.95970699364,2.93040302077 27.2893767757,-0.183150188798 m13.3699637522,-2.19780214512 l1.09890107256,-1.46520151039 m-84.0659331951,-69.0476235561 l-12.0879119186,2.3809523038 -1.83150182775,2.01465198643 l59.3406600865,-1.64835166907 47.4358995312,7.14285739325 l6.0439559593,1.64835166907 79.6703313141,-2.56410270341 l-70.5128190433,3.47985349682 -32.4175821825,3.11355317945 l63.5531154227,-0.183150188798 49.6337004717,-4.02930397287 l-94.3223478635,6.95970699364 -7.326007311,2.19780214512 l40.1098912565,-0.915750913876 96.5201449492,-24.725275036 l10.8058610488,-5.31135532457 " fill="none" stroke="black" stroke-width="1.5" /></svg>