<?xml version="1.0" encoding="utf-8" ?>
<svg baseProfile="full" height="300" version="1.1" width="300" xmlns="http://www.w3.org/2000/svg" xmlns:ev="http://www.w3.org/2001/xml-events" xmlns:xlink="http://www.w3.org/1999/xlink"><defs /><rect fill="none" height="300" width="300" x="0" y="0" /><path d="M25.6711409509,120.805363782 m-0.671140950855,-5.36912760684 l1.34228190171,4.36241590467 1.34228190171,9.73154351151 l10.7382552137,89.5973141251 0.671140950855,16.1073819377 l-2.01342274221,-19.1275161613 0.335570475428,-18.120805342 l2.68456380342,-25.5033554704 8.72483180933,-41.9463082697 l7.38255012834,-26.1744971937 6.37583886759,-16.1073819377 l3.69127506417,-6.37583886759 2.34899338317,3.35570464392 l1.34228190171,30.5369130984 0.335570475428,53.0201325793 l-0.335570475428,37.5838941308 -2.01342274221,19.1275161613 l2.01342274221,-30.2013422367 13.7583894374,-56.3758376647 l15.43624198,-38.5906031844 14.0939594162,-25.838926332 l7.38255012834,-8.38926183051 -1.34228190171,15.1006711183 l-16.1073819377,67.7852363675 -7.04697970809,43.6241625781 l-6.37583886759,59.3959718884 7.04697970809,-37.2483232691 l11.4093960542,-44.29530077 42.9530208547,-102.013421881 l-25.1677846087,41.9463082697 -24.1610737894,60.7382553351 l-9.06040267101,38.2550323227 -2.01342274221,22.147650385 l13.0872485969,-27.5167788747 12.7516777352,-35.5704689607 l17.7852344803,-43.2885917164 18.4563762037,-34.8993272373 l11.744966033,-15.43624198 -3.02013422367,12.7516777352 l-27.181208013,57.3825502497 -24.496644651,69.7986544747 l24.1610737894,-88.2550306784 26.5100662897,-60.7382553351 l-14.4295302779,28.523489694 -22.147650385,90.6040267101 l1.0067113711,31.5436256834 4.69798676634,15.7718128417 l6.37583886759,-3.69127506417 46.6442968018,-133.557047565 l27.5167788747,-37.2483232691 -13.4228185757,28.1879188323 l-32.8859055987,75.1677882615 -13.4228185757,41.2751665463 l9.06040267101,-30.2013422367 81.5436205077,-129.194626363 l8.38926183051,-0.335570475428 -26.1744971937,47.6510058554 l-48.3221475787,107.046977744 -8.38926183051,60.0671136117 l2.34899338317,-4.36241590467 10.402684352,-38.926174046 l58.7248336964,-128.187913778 8.72483180933,-11.4093960542 l-43.2885917164,72.4832213681 -22.4832212467,46.979864132 l51.6778526641,-80.2013441238 42.2818791314,-55.7046994728 l-22.147650385,22.147650385 -23.8255029277,25.838926332 l-39.9328866311,54.0268451644 -31.5436256834,60.7382553351 l4.69798676634,3.69127506417 50.3355692174,-72.1476505064 l25.838926332,-48.3221475787 -24.1610737894,25.1677846087 l-59.0604010267,78.5234898154 -2.01342274221,6.04026844734 l5.36912760684,-6.04026844734 82.8859039544,-136.912756182 l-25.1677846087,25.1677846087 -22.4832212467,26.5100662897 l-53.0201325793,83.8926165394 -0.671140950855,4.02684548442 l47.986576717,-86.2416125711 " fill="none" stroke="black" stroke-width="1.5" /></svg>