<?xml version="1.0" encoding="utf-8" ?>
<svg baseProfile="full" height="300" version="1.1" width="300" xmlns="http://www.w3.org/2000/svg" xmlns:ev="http://www.w3.org/2001/xml-events" xmlns:xlink="http://www.w3.org/1999/xlink"><defs /><rect fill="none" height="300" width="300" x="0" y="0" /><path d="M154.032253516,233.333333923 m-1.3440860524,41.6666660773 m32.2580634895,-44.0188158402 l-1.00806448405,2.6881721048 0.0,7.39247295668 l-4.03225793619,31.2500013261 m-48.0510751025,-41.6666660773 l48.3870970023,0.0 13.440860082,-2.01612896809 l6.38440858314,-2.35215064695 2.01612896809,-2.35215064695 l1.3440860524,-4.7043012939 -1.00806448405,-8.73655878807 l-3.02419356265,-4.7043012939 -4.7043012939,-4.36827939403 l-7.39247295668,-4.03225793619 -5.04032275175,-1.00806448405 l-15.4569897131,0.0 -8.40053777224,2.01612896809 l-13.440860082,1.3440860524 -3.02419356265,-3.02419356265 l-3.02419356265,-14.7849459134 -2.01612896809,-18.4811832757 l1.68010751025,-31.5860232259 -1.68010751025,-0.3360215131 l0.0,-6.72043004099 -2.35215064695,-3.02419356265 l-10.0806455035,-2.6881721048 -13.440860082,-0.3360215131 l-2.01612896809,1.00806448405 -1.68010751025,3.69623647834 l-1.00806448405,10.7526884192 -3.69623647834,1.68010751025 l-18.8172051756,-0.6720430262 -1.00806448405,1.68010751025 l23.1854845696,8.06451587237 -11.7607523507,-97.7822597043 l-11.088709435,9.07258068794 23.1854845696,90.7258068794 l-34.9462351523,-76.9489231294 35.9543008519,84.0053759543 l-37.9704287149,-80.3091421281 38.3064506148,84.3413978542 l-38.9784944145,-79.6370983284 39.3145163144,83.3333321546 l-34.6102167886,-82.9973102547 34.6102167886,84.0053759543 l-11.088709435,-92.4059163787 11.088709435,92.7419382786 l4.7043012939,-106.518814956 29.2338716949,-26.5456982641 l10.0806455035,-4.36827939403 -44.0188158402,137.768823355 l54.0994622278,-138.440867154 -53.427418428,142.809137708 l56.4516119907,-137.768823355 -55.1075279274,140.456984409 l51.0752686651,-123.991939605 -47.0430094029,133.064516756 l43.0107536768,-126.680114804 -41.6666660773,131.048385357 l49.3951627019,-110.887099654 -48.3870970023,126.008071004 l87.365594953,-139.784940609 -87.365594953,144.489247207 l114.919355381,-159.946240457 -114.583333481,161.626349956 l114.583333481,-161.626349956 " fill="none" stroke="black" stroke-width="1.5" /></svg>