<?xml version="1.0" encoding="utf-8" ?>
<svg baseProfile="full" height="300" version="1.1" width="300" xmlns="http://www.w3.org/2000/svg" xmlns:ev="http://www.w3.org/2001/xml-events" xmlns:xlink="http://www.w3.org/1999/xlink"><defs /><rect fill="none" height="300" width="300" x="0" y="0" /><path d="M113.827844283,133.516484843 m9.70695944759,33.8827847957 l0.915750898101,9.70695944759 -1.64835164067,-5.67765554413 l-1.64835164067,-15.0183151625 -2.93040297029,-7.87545789231 l-1.46520148515,-6.04395585519 0.549450526814,-9.70695944759 l3.6630035924,-13.9194137475 2.38095226278,-5.67765554413 l10.256410637,3.47985343688 27.4725267021,7.69230749586 l29.1208783428,7.1428572702 12.0879117104,4.76190452557 l3.11355312582,1.64835164067 2.38095226278,2.38095226278 l-4.57875461097,2.01465195173 -94.1391958423,30.4029311179 l-43.040293054,14.8351647661 -41.0256425478,15.201465559 l0.0,14.4688639732 0.915750898101,-2.19780210726 l11.3553110883,-10.8058608626 12.6373628997,-10.256410637 l21.7948721217,-13.1868131254 32.783882417,-11.9047622776 l47.2527483176,-8.24175820337 55.8608053865,13.1868131254 l41.9413906752,11.1721606918 25.4578761959,7.1428572702 l0.0,2.74725281477 -3.47985343688,-4.21245429991 l-10.0732602405,-9.34065961839 -18.3150184439,-13.3699635218 l-105.311354607,-43.5897442433 -47.0695979211,-8.24175820337 l-46.7032971282,-2.01465195173 -19.0476181023,4.39560421451 l0.0,58.2417566855 1.46520148515,0.366300371287 l39.3772889797,-2.01465195173 38.0952362045,-0.183150185643 l48.9010980309,1.09890105363 53.4798540874,2.38095226278 l52.3809517087,3.47985343688 16.3003660103,3.6630035924 l0.0,2.19780210726 -0.549450526814,-18.8644696332 l-3.6630035924,-11.7216118812 -7.69230749586,-14.102564144 l-14.6520143696,-16.3003660103 -24.3589738172,-17.2161179926 l-34.6153825267,-15.201465559 -41.5750898823,-9.52380905113 l-43.9560450362,-2.01465195173 -42.6739922611,6.22710625164 l-36.2637360948,13.9194137475 0.0,86.4468869009 l7.87545789231,-0.549450526814 13.9194137475,0.915750898101 l58.7912078749,6.22710625164 80.4029315275,9.52380905113 l65.3846144376,5.49450562953 19.2307684987,0.183150185643 l4.39560421451,-0.549450526814 -1.8315017962,-2.93040297029 " fill="none" stroke="black" stroke-width="1.5" /></svg>