<?xml version="1.0" encoding="utf-8" ?>
<svg baseProfile="full" height="300" version="1.1" width="300" xmlns="http://www.w3.org/2000/svg" xmlns:ev="http://www.w3.org/2001/xml-events" xmlns:xlink="http://www.w3.org/1999/xlink"><defs /><rect fill="none" height="300" width="300" x="0" y="0" /><path d="M169.223110779,133.067729816 m-0.996015944215,1.59362556315 l-0.199203195394,2.19123505107 6.77290857789,0.398406390788 l2.58964137635,-0.597609553427 9.16334705364,-3.18725112631 l8.96414362896,-5.77689250265 1.99203188843,-2.19123505107 l-0.398406390788,-73.5059798538 0.0,86.6533891121 l0.996015944215,0.597609553427 1.59362556315,-0.199203195394 l2.39043821371,-1.19521910685 4.58167352682,-3.78486061422 l5.57768960206,-6.97211147849 4.38247010214,-8.16733097841 l2.58964137635,-7.37051832785 0.199203195394,-1.19521910685 l-1.19521910685,0.0 -12.3505976559,9.16334705364 l-24.3027884624,21.3147412848 -20.7171310108,15.1394424569 l3.58565745158,-4.78087642742 5.77689250265,-5.37848617738 l38.2470114193,-30.6772917631 14.7410366557,-13.1474103064 l-0.996015944215,0.0 -50.3984077469,27.2908377362 l-65.3386478272,33.6653389407 -36.6533882146,17.1314746074 l8.16733097841,-6.57370515321 15.5378493063,-10.9561757794 l20.9163344355,-13.7450205805 52.988048075,-31.6733067902 l24.103587134,-13.5458171558 20.7171310108,-10.3585655054 l14.541833231,-6.17529882793 5.37848617738,-1.59362556315 l1.39442240051,1.59362556315 -2.98804796367,6.57370515321 l-13.1474103064,14.1434263817 -23.3067734353,19.9203194084 l-31.2749020372,22.9083665859 -35.0597608171,23.50597686 l-64.1434272792,40.2390456662 -38.6454182687,22.3107584082 l0.398406390788,-1.39442240051 6.57370515321,-7.37051832785 l14.1434263817,-13.5458171558 20.5179296824,-17.7290838332 l46.8127502953,-34.2629492147 20.9163344355,-13.7450205805 l15.9362551074,-9.56175285483 8.16733097841,-4.58167352682 l0.996015944215,0.0 -1.39442240051,2.19123505107 l-10.1593631289,8.366533879 -75.0996072513,56.3745021019 l-16.1354585321,12.9482079299 -11.75298843,9.9601597042 l-6.17529882793,6.77290857789 -2.58964137635,4.38247010214 l0.199203195394,2.78884480103 2.78884480103,2.19123505107 l8.366533879,3.58565745158 12.7490045052,3.38645428895 l15.5378493063,0.597609553427 199.203189891,0.0 l-138.047813982,0.0 -22.7091631613,-0.796812781577 l-20.5179296824,-3.18725112631 -24.9003987364,-7.56972122845 l-3.98406377686,-2.98804796367 -1.79282872579,-4.1832669395 l0.398406390788,-4.78087642742 3.58565745158,-6.97211147849 l5.97609592734,-8.366533879 10.1593631289,-9.76095627952 l12.9482079299,-10.1593631289 33.2669320913,-20.1195228331 l20.7171310108,-9.76095627952 41.6334654462,-17.330678032 l52.1912343763,-19.1235057097 21.5139447095,-6.17529882793 m-83.4661343172,85.0597617146 l2.19123505107,-16.733067758 " fill="none" stroke="black" stroke-width="1.5" /></svg>