<?xml version="1.0" encoding="utf-8" ?>
<svg baseProfile="full" height="300" version="1.1" width="300" xmlns="http://www.w3.org/2000/svg" xmlns:ev="http://www.w3.org/2001/xml-events" xmlns:xlink="http://www.w3.org/1999/xlink"><defs /><rect fill="none" height="300" width="300" x="0" y="0" /><path d="M32.1921743204,164.384351479 m3.4522438706,-20.4257766444 l4.31530512209,-13.5212896601 3.73993082828,-8.34292290805 l15.2474106493,-6.61680116197 2.87686995524,0.287687004985 l0.575374009971,5.75373991049 -0.863060967651,2.30149603988 l-4.02761816441,3.73993082828 m-32.5086296238,2.58918299756 l8.63061024417,4.89067903745 3.16455691292,0.287687004985 m-2.0138090822,-2.30149603988 l10.3567319903,0.287687004985 m-11.2197932417,-2.0138090822 l16.39815848,2.58918299756 m15.2474106493,20.7134639805 l8.63061024417,-31.3578833069 m25.8918299756,27.3302636287 l-10.9321059056,2.87686995524 -6.32911382585,3.4522438706 l2.30149603988,1.7261219353 6.04142686817,0.287687004985 l3.16455691292,-1.7261219353 2.58918299756,-4.89067903745 l4.31530512209,12.6582276517 1.7261219353,2.87686995524 l2.87686995524,-0.575374009971 m1.7261219353,-5.75373991049 l1.7261219353,0.0 8.63061024417,-4.89067903745 l3.16455691292,-0.863060967651 0.287687004985,14.3843501547 l8.63061024417,-11.7951671571 2.87686995524,-2.30149603988 l1.43843497762,1.15074801994 4.89067903745,10.0690446541 l3.73993082828,4.31530512209 m-1.15074801994,3.16455691292 l6.61680116197,-8.05523632881 6.32911382585,-21.8642118112 m-2.0138090822,-4.31530512209 l12.3705410725,0.0 m-5.46605295281,29.3440749816 l-0.287687004985,-1.43843497762 3.16455691292,-4.89067903745 l4.60299207977,-4.60299207977 8.63061024417,-6.04142686817 l4.31530512209,10.9321059056 2.58918299756,1.43843497762 m22.7272723058,-16.1104726576 l-4.89067903745,-0.863060967651 -4.02761816441,1.43843497762 l-2.58918299756,2.87686995524 -1.43843497762,5.17836599513 l1.43843497762,1.15074801994 3.16455691292,-0.575374009971 l2.87686995524,-3.4522438706 2.58918299756,-6.04142686817 l4.31530512209,-3.16455691292 0.863060967651,2.30149603988 l-1.43843497762,8.05523632881 -4.31530512209,10.0690446541 l-6.61680116197,9.20598415953 -10.6444193264,9.20598415953 l-2.0138090822,-0.287687004985 m92.3475259039,-44.0161109586 l-7.76754899269,6.61680116197 -10.9321059056,4.89067903745 l-21.5765244751,12.6582276517 -3.16455691292,2.58918299756 l2.30149603988,0.863060967651 12.0828537363,-3.4522438706 l3.16455691292,-2.0138090822 2.30149603988,-3.73993082828 l1.7261219353,-5.75373991049 0.0,-6.61680116197 l-0.863060967651,-2.87686995524 " fill="none" stroke="black" stroke-width="1.5" /></svg>