<?xml version="1.0" encoding="utf-8" ?>
<svg baseProfile="full" height="300" version="1.1" width="300" xmlns="http://www.w3.org/2000/svg" xmlns:ev="http://www.w3.org/2001/xml-events" xmlns:xlink="http://www.w3.org/1999/xlink"><defs /><rect fill="none" height="300" width="300" x="0" y="0" /><path d="M26.4236899768,139.1799551 m2.56264233276,16.514805978 l4.84054667016,13.6674252753 7.68792699828,14.521640385 m-16.514805978,-35.5922542887 l34.1685654356,-23.3485193647 m-22.7790426249,45.8428236197 l21.0706154019,-12.8132116638 m18.2232346992,-32.1753968462 l0.284738042175,6.54897501686 3.41685631882,12.5284732939 l7.11845100757,13.3826884036 m18.7927099408,-15.3758539966 l-3.41685631882,2.56264233276 -3.41685631882,9.39635497041 l-1.99316634205,17.6537579594 3.70159431418,-0.854214079706 l4.55580867481,-5.97949865158 7.40318862836,-14.521640385 l2.2779043374,-2.2779043374 1.99316634205,0.0 l2.56264233276,5.69476065623 5.41002266087,20.2164002922 l1.70842815941,2.2779043374 3.41685631882,-18.7927099408 l1.70842815941,-4.84054667016 1.99316634205,-1.1389521687 l3.41685631882,1.42369016406 4.55580867481,7.40318862836 l2.84738032811,1.70842815941 2.84738032811,-12.5284732939 l3.13211832347,-3.9863326841 3.13211832347,-0.569476084351 l3.9863326841,1.1389521687 9.68109334032,15.3758539966 l1.70842815941,0.0 3.9863326841,-11.3895213125 l2.56264233276,-3.41685631882 2.56264233276,-0.569476084351 l3.9863326841,1.42369016406 3.9863326841,7.40318862836 l3.13211832347,3.70159431418 m4.55580867481,-17.9384963293 l1.42369016406,5.41002266087 0.854214079706,10.8200453217 m-7.68792699828,-33.5990886958 l0.284738042175,-7.97266536819 m11.1047836917,35.3075159188 l1.1389521687,4.27107067945 1.42369016406,0.854214079706 l3.13211832347,-1.1389521687 10.250569331,-14.521640385 l5.41002266087,-3.70159431418 6.54897501686,0.0 l1.1389521687,6.83371263765 -0.569476084351,11.6742596824 m15.3758539966,-25.6264233276 l-10.535307701,25.3416849577 m21.9248290134,-17.0842827178 l1.99316634205,6.54897501686 -1.1389521687,19.0774483107 l-4.84054667016,5.41002266087 -7.40318862836,4.27107067945 l-7.11845100757,0.854214079706 -5.97949865158,-1.1389521687 l-1.99316634205,-3.9863326841 1.99316634205,-7.68792699828 m39.578588471,-33.5990886958 l-6.83371263765,0.0 -1.70842815941,0.854214079706 l-1.70842815941,3.70159431418 -0.284738042175,9.39635497041 l0.854214079706,11.3895213125 3.41685631882,4.84054667016 l3.41685631882,1.70842815941 3.41685631882,0.0 l3.13211832347,-5.41002266087 1.42369016406,-6.83371263765 l0.284738042175,-21.9248290134 -2.56264233276,-4.55580867481 l-4.27107067945,-0.854214079706 -6.54897501686,1.70842815941 l-7.40318862836,6.83371263765 -0.284738042175,2.2779043374 m-18.5079730691,25.0569465878 l23.9179946063,-6.26423664694 m-9.68109334032,-23.9179946063 l6.54897501686,0.284738042175 " fill="none" stroke="black" stroke-width="1.5" /></svg>