<?xml version="1.0" encoding="utf-8" ?>
<svg baseProfile="full" height="300" version="1.1" width="300" xmlns="http://www.w3.org/2000/svg" xmlns:ev="http://www.w3.org/2001/xml-events" xmlns:xlink="http://www.w3.org/1999/xlink"><defs /><rect fill="none" height="300" width="300" x="0" y="0" /><path d="M45.5916470301,106.641531261 m-9.57076553511,1.74013917086 l-5.22041770334,2.32018568832 -1.45011600751,3.48027834172 l0.29002321104,11.6009280601 5.80046403004,17.691414872 l3.48027834172,5.22041770334 m-13.9211133669,-10.4408354067 l8.41067288171,-0.870069585431 m33.6426915268,-33.6426915268 l3.19025517837,47.5638064198 m31.32250622,-14.2111369118 l-3.19025517837,0.0 -2.03016252497,5.22041770334 l-0.58004642208,8.12065009987 0.870069585431,2.03016252497 l1.45011600751,0.29002321104 2.61020885167,-1.74013917086 l2.32018568832,-5.22041770334 0.29002321104,-6.09048719339 l8.99071920841,12.4709979316 3.77030150507,2.90023201502 m1.74013917086,-15.66125311 l9.57076553511,16.8213457634 -11.3109052782,-21.1716943582 l2.61020885167,-0.870069585431 7.83062655501,0.58004642208 l11.6009280601,8.41067288171 2.90023201502,3.48027834172 l-4.35034821329,-6.67053390161 -2.90023201502,-6.67053390161 l3.48027834172,-1.74013917086 11.0208817334,0.58004642208 l3.48027834172,2.61020885167 6.09048719339,10.7308589515 m6.38051035674,-8.12065009987 l2.03016252497,5.80046403004 7.25058022831,9.28074275328 m-11.8909516049,-31.9025533098 l0.0,0.0 m-3.48027834172,0.58004642208 l0.870069585431,3.77030150507 1.16009284416,-1.16009284416 m22.0417634668,15.3712295652 l4.35034821329,11.3109052782 10.1508118618,19.1415310702 l-0.29002321104,-2.32018568832 -10.7308589515,-20.5916472685 l-5.51044086669,-8.12065009987 0.58004642208,-1.45011600751 l8.41067288171,-0.870069585431 18.5614855066,0.0 l3.48027834172,6.67053390161 2.90023201502,9.28074275328 m26.6821356064,-15.66125311 l-10.7308589515,1.45011600751 -2.90023201502,1.74013917086 l-1.45011600751,1.74013917086 -2.90023201502,7.83062655501 l-0.29002321104,8.99071920841 0.870069585431,3.48027834172 l2.03016252497,1.16009284416 3.77030150507,-1.45011600751 l5.51044086669,-7.83062655501 5.80046403004,-13.3410678032 l2.90023201502,32.1925768546 -0.58004642208,13.3410678032 l-2.32018568832,5.22041770334 -4.35034821329,4.93039453999 l-2.90023201502,0.29002321104 -4.35034821329,-4.06032504994 m44.3735504784,-44.0835269335 l-5.22041770334,2.90023201502 -4.64037137664,4.06032504994 l-3.77030150507,7.25058022831 0.29002321104,11.8909516049 l2.90023201502,2.61020885167 3.48027834172,0.29002321104 l3.48027834172,-1.45011600751 3.77030150507,-4.93039453999 l0.870069585431,-2.90023201502 0.58004642208,-10.1508118618 l-1.74013917086,-6.67053390161 -2.90023201502,-2.32018568832 " fill="none" stroke="black" stroke-width="1.5" /></svg>