<?xml version="1.0" encoding="utf-8" ?>
<svg baseProfile="full" height="300" version="1.1" width="300" xmlns="http://www.w3.org/2000/svg" xmlns:ev="http://www.w3.org/2001/xml-events" xmlns:xlink="http://www.w3.org/1999/xlink"><defs /><rect fill="none" height="300" width="300" x="0" y="0" /><path d="M37.2437427832,107.004553734 m13.0979501269,4.55580870723 l42.7107048511,2.84738034838 43.8496583389,6.83371268628 m-101.936217296,-17.653758085 l10.250569404,-33.029612191 11.3895213935,-25.0569467661 l6.26423669152,-7.40318868105 17.0842828394,-10.8200453987 l18.2232348289,-2.27790435361 5.69476069676,1.70842817157 l9.68109340922,19.3621868184 11.9589973883,42.7107048511 l1.70842817157,20.501138808 m-68.9066081014,-5.69476069676 l0.0,-7.40318868105 18.2232348289,-44.9886088302 l12.528473383,-23.3485195309 3.98633271247,2.27790435361 l1.70842817157,6.26423669152 -0.569476088404,34.7380394262 l2.27790435361,44.4191350828 m-24.4874715204,-5.12528470199 l0.0,3.98633271247 -18.7927100746,10.8200453987 l0.0,3.41685634314 2.84738034838,8.5421414197 l19.3621868184,26.7653769977 10.8200453987,6.83371268628 l13.6674253726,2.27790435361 12.528473383,-0.569476088404 l11.3895213935,-5.12528470199 11.9589973883,-10.8200453987 l0.569476088404,-5.12528470199 -14.2369021165,-21.6400907975 l-8.5421414197,-9.68109340922 -22.2095675414,-14.8063773621 l-14.2369021165,-3.41685634314 -5.69476069676,0.0 l-0.569476088404,2.84738034838 m17.0842828394,50.683370276 l-1.13895217681,66.6287011259 1.70842817157,21.0706155519 m-4.55580870723,-24.4874715204 l0.569476088404,-7.40318868105 -18.7927100746,-27.904327489 l-31.3211849558,-23.9179947766 1.70842817157,6.26423669152 m42.7107048511,26.1959002538 l0.0,2.84738034838 3.41685634314,3.98633271247 l6.83371268628,0.0 20.501138808,-13.0979501269 l24.4874715204,-19.3621868184 m-48.405466297,70.0455555962 l-1.70842817157,6.83371268628 -9.68109340922,9.68109340922 l-5.69476069676,22.2095675414 m130.979495276,-182.232342296 l5.69476069676,76.8792705299 1.13895217681,3.41685634314 l0.569476088404,-1.70842817157 m-13.0979501269,-78.5877007615 l2.84738034838,-0.569476088404 35.3075161701,9.68109340922 l-2.84738034838,3.41685634314 m-41.5717543598,30.751708212 l3.41685634314,-1.70842817157 42.1412311037,-3.41685634314 m-5.69476069676,-20.501138808 l-4.55580870723,54.6697014903 3.41685634314,2.27790435361 l11.9589973883,0.0 6.83371268628,-2.27790435361 l5.69476069676,-45.558085574 11.3895213935,-54.6697014903 l3.41685634314,84.8519329583 -13.0979501269,-7.40318868105 " fill="none" stroke="black" stroke-width="1.5" /></svg>