<?xml version="1.0" encoding="utf-8" ?>
<svg baseProfile="full" height="300" version="1.1" width="300" xmlns="http://www.w3.org/2000/svg" xmlns:ev="http://www.w3.org/2001/xml-events" xmlns:xlink="http://www.w3.org/1999/xlink"><defs /><rect fill="none" height="300" width="300" x="0" y="0" /><path d="M31.3868616325,122.399632882 m-6.38686163254,45.6204388608 m2.73722619962,-36.0401452117 l30.1094884959,1.82481756643 m-27.3722637966,5.47445239924 l31.0218983293,5.47445239924 m3.64963513287,-14.1423356148 l-13.6861318983,31.9343057623 30.1094884959,4.10583944946 m-1.82481756643,3.19343081627 l14.5985405315,-26.0036490464 7.29927026573,-6.84306594914 l8.21167889892,8.21167889892 0.912408783216,5.93065671583 l-5.47445239924,15.5109491646 m-17.335766431,-9.5802918487 l29.1970810629,0.912408783216 m2.73722619962,9.12408753211 l10.0364961653,-31.0218983293 2.73722619962,26.9160588798 l1.82481756643,4.10583944946 9.12408753211,-15.0547442479 l4.56204376605,-4.56204376605 3.64963513287,10.9489047985 l-1.82481756643,15.0547442479 m19.1605836974,-30.1094884959 l-0.912408783216,24.17883178 m6.38686163254,6.84306594914 l6.38686163254,-11.4051097152 10.0364961653,-26.0036490464 l2.73722619962,31.478103246 2.73722619962,-0.456204391608 l6.38686163254,-12.7737232651 7.29927026573,-9.5802918487 m16.4233577978,-7.75547458232 l-12.7737232651,10.492701082 -2.73722619962,6.38686163254 l0.912408783216,10.492701082 2.73722619962,4.56204376605 l6.38686163254,4.10583944946 10.9489047985,-4.10583944946 l0.912408783216,-2.73722619962 -1.82481756643,-5.47445239924 l-5.47445239924,-3.19343081627 -5.47445239924,-0.456204391608 m41.0583944946,-5.01824808265 l-15.5109491646,-1.36861309981 -6.38686163254,3.64963513287 l0.0,15.5109491646 8.21167889892,6.38686163254 l2.73722619962,0.456204391608 20.985402164,-5.93065671583 l3.64963513287,-3.64963513287 0.0,-13.2299269816 l-7.29927026573,-5.01824808265 -5.47445239924,-1.36861309981 l-12.7737232651,5.01824808265 -5.47445239924,5.01824808265 l-2.73722619962,7.75547458232 0.912408783216,0.456204391608 " fill="none" stroke="black" stroke-width="1.5" /></svg>