<?xml version="1.0" encoding="utf-8" ?>
<svg baseProfile="full" height="300" version="1.1" width="300" xmlns="http://www.w3.org/2000/svg" xmlns:ev="http://www.w3.org/2001/xml-events" xmlns:xlink="http://www.w3.org/1999/xlink"><defs /><rect fill="none" height="300" width="300" x="0" y="0" /><path d="M50.9026682756,99.9607564741 m-8.24175809354,0.0 l-3.9246467358,2.74725286994 -2.74725286994,13.7362633171 l-1.56985874595,19.230769057 0.784929372973,24.7252747969 m-10.2040812033,-21.9780229595 l24.3328096587,-7.06436422769 15.3061228375,1.17739399493 m17.268445431,-19.6232341952 l-0.784929372973,8.24175809354 2.74725286994,23.9403445205 m16.0910520814,-16.4835161871 l-3.9246467358,9.81161709762 -2.74725286994,12.1664048293 l0.392464686486,3.9246467358 5.10204060165,-1.9623233679 l4.31711135775,-5.10204060165 -0.392464686486,-5.88697036183 l12.9513340732,25.1177399351 m5.49450573988,-15.6985869432 l4.7095759797,27.8649917725 4.7095759797,-9.02668785372 l3.13971749189,-12.5588699676 3.9246467358,-9.81161709762 l1.9623233679,0.784929372973 3.53218211384,10.5965463415 l1.9623233679,0.0 4.31711135775,-7.45682884964 l7.06436422769,-7.84929347159 4.31711135775,21.1930926831 m10.2040812033,-14.9136576993 l1.56985874595,11.3814755854 m-1.9623233679,-32.1821041628 l0.0,6.27943498378 -1.9623233679,0.392464686486 l0.0,-7.06436422769 m22.7629511709,20.4081624066 l2.74725286994,12.9513340732 -0.392464686486,17.6609105692 l5.88697036183,-24.7252747969 5.10204060165,-5.49450573988 l3.53218211384,3.13971749189 5.88697036183,12.1664048293 l1.9623233679,14.1287284554 m6.27943498378,-25.1177399351 l-2.35478798985,4.7095759797 -2.35478798985,10.2040812033 l1.17739399493,3.53218211384 4.7095759797,-0.784929372973 l2.74725286994,-2.74725286994 1.17739399493,-5.88697036183 l5.10204060165,11.3814755854 1.17739399493,9.81161709762 l-1.56985874595,7.06436422769 -3.53218211384,7.45682884964 l-5.49450573988,1.56985874595 -1.9623233679,-0.784929372973 l-1.9623233679,-3.13971749189 m36.8916816913,-43.5635807808 l2.35478798985,10.9890114798 3.53218211384,9.02668785372 l7.84929347159,2.35478798985 5.10204060165,-7.84929347159 l-0.392464686486,-9.81161709762 -1.56985874595,-5.88697036183 l-3.53218211384,-3.13971749189 -9.02668785372,-4.31711135775 l-3.9246467358,2.35478798985 -1.9623233679,2.74725286994 " fill="none" stroke="black" stroke-width="1.5" /></svg>