<?xml version="1.0" encoding="utf-8" ?>
<svg baseProfile="full" height="300" version="1.1" width="300" xmlns="http://www.w3.org/2000/svg" xmlns:ev="http://www.w3.org/2001/xml-events" xmlns:xlink="http://www.w3.org/1999/xlink"><defs /><rect fill="none" height="300" width="300" x="0" y="0" /><path d="M101.026121482,163.409514431 m0.0,0.0 m-68.0970168402,-31.2500001055 l1.63246277449,8.16231325891 0.466417924613,6.76305971516 l-0.466417924613,26.3526111684 m-9.56156741623,-20.289179759 l21.4552246856,-6.0634326365 1.86567169845,-0.233208962307 l0.699626848573,1.16604477319 -0.699626848573,0.233208962307 m-14.4589551262,-17.02425421 l17.4906714444,-2.33208954637 10.0279852641,2.33208954637 l3.03171631825,1.16604477319 1.39925369715,1.39925369715 m21.9216431471,1.63246277449 l1.16604477319,12.5932837345 5.3638061714,26.5858203992 m17.2574634408,-1.16604477319 l-1.16604477319,-2.79850739429 0.233208962307,-3.26492554899 l6.0634326365,-10.7276123428 22.8544776158,-30.5503724132 l6.76305971516,-7.695895411 0.932835849227,1.39925369715 l3.49813447295,11.8936572694 0.932835849227,7.46268679381 l-0.233208962307,5.13059694066 -2.79850739429,5.13059694066 l-25.6529859304,13.7593286611 -13.5261194303,0.466417924613 l-5.13059694066,-0.699626848573 1.16604477319,-1.16604477319 m65.2985060713,-32.8824622664 l-4.8973880167,17.9570899059 -1.86567169845,14.2257458954 m10.2611938813,2.09888062241 l5.13059694066,-4.66417909274 6.99626894589,-4.8973880167 l4.19776124483,-1.63246277449 3.03171631825,-0.233208962307 l1.63246277449,0.466417924613 0.699626848573,1.16604477319 l0.932835849227,10.9608215735 5.59701478858,-1.86567169845 l4.66417909274,-0.466417924613 1.63246277449,1.86567169845 l-0.466417924613,1.86567169845 m-31.4832093362,-9.79477603341 l3.03171631825,15.8582092835 m36.613807504,-0.932835849227 l0.233208962307,3.49813447295 m1.86567169845,-27.0522388606 l0.0,0.0 m-38.0130604342,17.4906714444 l17.4906714444,-16.5578357486 2.56529847033,-0.699626848573 l1.16604477319,1.16604477319 1.63246277449,4.8973880167 l2.79850739429,16.7910449793 -0.233208962307,4.19776124483 l-2.09888062241,6.52985109797 m-16.0914185142,-24.253730546 l0.699626848573,0.699626848573 m41.0447755253,11.8936572694 l-0.932835849227,-10.9608215735 0.932835849227,-10.7276123428 l2.33208954637,-11.8936572694 3.49813447295,-10.7276123428 l3.03171631825,-6.52985109797 2.33208954637,-2.79850739429 l2.56529847033,-0.699626848573 18.8899256017,9.32835818549 l7.22947756308,5.13059694066 2.56529847033,3.49813447295 l3.03171631825,10.4944031121 0.0,11.1940295772 l-2.33208954637,10.4944031121 -4.66417909274,15.1585828184 l-2.33208954637,3.73134339691 -1.63246277449,0.699626848573 l-4.8973880167,-1.16604477319 -4.43097016878,-2.56529847033 " fill="none" stroke="black" stroke-width="1.5" /></svg>