<?xml version="1.0" encoding="utf-8" ?>
<svg baseProfile="full" height="300" version="1.1" width="300" xmlns="http://www.w3.org/2000/svg" xmlns:ev="http://www.w3.org/2001/xml-events" xmlns:xlink="http://www.w3.org/1999/xlink"><defs /><rect fill="none" height="300" width="300" x="0" y="0" /><path d="M132.795371491,213.794153022 m-0.609013404759,-33.4957373619 l0.913520057068,-6.09013384731 0.0,-14.6163209131 l3.95858688058,-20.0974414558 5.48112054269,-14.3118154625 l4.56760058577,-8.52618786692 m-34.409255316,21.9244821708 l-5.48112054269,59.6833118639 0.0,8.83069411866 m-30.1461629848,-67.2959817767 l-0.30450670238,42.0219252288 -3.34957357596,26.4920831571 m-33.8002444148,-66.0779535652 l-2.74056027135,11.57125439 0.0,43.2399502358 m104.141290311,-57.8562695466 l-14.3118154625,-2.13154696673 -11.57125439,0.0 l-23.7515228858,3.04506692366 -29.2326418262,0.609013404759 l-28.0146168192,6.39464049962 -8.52618786692,0.913520057068 l-0.609013404759,-1.52253346183 5.785627195,-4.26309393346 l9.74421447615,-11.57125439 7.30816045655,-4.26309393346 l78.8672369678,0.609013404759 19.4884289523,4.87210723808 m-4.87210723808,2.13154696673 l-1.21802680952,-3.95858688058 1.52253346183,-6.09013384731 l6.09013384731,-12.1802676946 4.26309393346,-4.87210723808 l18.5749077937,-13.7028013567 17.6613882373,-7.0036542048 l10.9622410854,0.0 5.48112054269,4.26309393346 l1.21802680952,9.13520117153 -1.52253346183,5.17661389038 l-6.69914715193,6.39464049962 -11.8757614429,5.17661389038 l-13.0937880521,2.43605361904 -22.2289892236,1.82704011414 l-2.43605361904,-2.13154696673 -4.56760058577,-7.91717376117 m42.0219252288,-14.3118154625 l5.48112054269,-0.30450670238 m11.2667481383,99.87819798 l-2.43605361904,-7.30816045655 -0.913520057068,-7.0036542048 l0.30450670238,-19.7929360052 2.74056027135,-14.3118154625 l2.13154696673,-6.39464049962 2.13154696673,-1.82704011414 l3.65408022827,0.913520057068 12.4847747475,6.69914715193 m-42.0219252288,24.0560283364 l7.91717376117,1.82704011414 11.57125439,4.26309393346 l8.22168081404,1.52253346183 m27.4056027135,-34.7137623689 l0.30450670238,28.3191238721 1.82704011414,14.6163209131 m18.2704023431,2.13154696673 l-1.21802680952,-3.95858688058 -2.13154696673,-28.3191238721 m2.13154696673,-20.7064555615 l-0.609013404759,0.0 m2.74056027135,53.5931772154 l0.913520057068,-8.52618786692 4.56760058577,-9.74421447615 l4.56760058577,-4.87210723808 2.13154696673,10.3532277808 l6.09013384731,-16.747868681 " fill="none" stroke="black" stroke-width="1.5" /></svg>