<?xml version="1.0" encoding="utf-8" ?>
<svg baseProfile="full" height="300" version="1.1" width="300" xmlns="http://www.w3.org/2000/svg" xmlns:ev="http://www.w3.org/2001/xml-events" xmlns:xlink="http://www.w3.org/1999/xlink"><defs /><rect fill="none" height="300" width="300" x="0" y="0" /><path d="M154.158960033,89.232893612 m-52.2181135981,14.3253235222 l2.77264321335,-0.462107227553 29.5748625634,25.4158975914 l10.1663585502,-2.31053606178 4.62107212356,-3.69685782042 l4.62107212356,-13.4011092191 -1.38632160667,-11.0905728534 l6.46950133771,-15.2495378254 13.4011092191,-24.9537898319 l3.23475066885,-0.462107227553 16.1737521285,3.69685782042 l34.1959352948,10.6284663097 9.24214424711,6.93160848928 l4.62107212356,7.85582279241 2.77264321335,9.24214424711 l-9.24214424711,7.85582279241 -12.0147871565,6.93160848928 l-26.3401106788,11.5526806128 -20.7948248599,3.69685782042 l-23.1053612257,1.84842891021 -5.54528642669,-0.924214455106 l25.4158975914,-6.46950133771 8.78003709555,1.38632160667 l-1.38632160667,36.9685769885 -3.69685782042,24.9537898319 l-12.9390026754,39.7412211136 -12.476894916,-24.029574313 l-12.0147871565,-19.4085027974 -5.08317927512,-19.8706105568 l7.39371564084,-4.62107212356 11.0905728534,-3.23475066885 l23.5674689851,5.08317927512 5.54528642669,4.62107212356 l-6.93160848928,4.15896497199 -12.9390026754,20.3327171005 l-20.7948248599,68.3918705896 -7.85582279241,16.635859888 l-4.62107212356,3.69685782042 -7.39371564084,0.0 l2.77264321335,-20.7948248599 0.924214455106,6.46950133771 l-1.38632160667,-15.2495378254 5.08317927512,12.0147871565 l4.62107212356,-21.7190403788 0.924214455106,20.3327171005 l1.38632160667,-10.6284663097 6.00739357826,-3.69685782042 m18.9463962537,-22.6432534662 l13.4011092191,40.2033288731 4.62107212356,9.24214424711 l0.462107227553,-3.23475066885 -3.23475066885,-3.69685782042 l-8.78003709555,-5.54528642669 -12.476894916,-3.69685782042 l6.00739357826,11.5526806128 10.1663585502,9.24214424711 l4.15896497199,-1.38632160667 3.69685782042,-4.62107212356 l4.62107212356,-8.31792994398 2.31053606178,-11.5526806128 l-0.462107227553,20.3327171005 2.31053606178,-10.1663585502 l-10.6284663097,-24.029574313 -3.69685782042,-5.08317927512 l-1.38632160667,0.0 m-105.822550474,-194.547133302 l-2.77264321335,8.78003709555 -2.31053606178,37.4306847479 l1.38632160667,12.476894916 0.924214455106,-20.3327171005 m-1.38632160667,-37.8927925074 l14.7874312817,-3.23475066885 15.7116455848,0.0 m-32.347504257,22.6432534662 l11.5526806128,-3.23475066885 33.2717197759,2.77264321335 l-3.23475066885,-1.38632160667 m12.476894916,-26.8022184382 l-1.84842891021,48.0591486261 1.38632160667,1.38632160667 m8.78003709555,-24.029574313 l-3.23475066885,6.00739357826 -2.31053606178,13.4011092191 l14.3253235222,-0.462107227553 6.93160848928,-6.93160848928 l-0.462107227553,-6.00739357826 -3.23475066885,-5.08317927512 l-0.924214455106,9.24214424711 5.54528642669,6.00739357826 l17.0979676474,3.69685782042 " fill="none" stroke="black" stroke-width="1.5" /></svg>