<?xml version="1.0" encoding="utf-8" ?>
<svg baseProfile="full" height="300" version="1.1" width="300" xmlns="http://www.w3.org/2000/svg" xmlns:ev="http://www.w3.org/2001/xml-events" xmlns:xlink="http://www.w3.org/1999/xlink"><defs /><rect fill="none" height="300" width="300" x="0" y="0" /><path d="M99.6753262785,59.0909100562 m-1.08225103757,-6.49350646269 l-6.854256769,-4.68975445659 -5.05050523745,-1.44300146252 l-15.1515147632,-0.360750365629 -7.21500707531,1.08225103757 l-7.21500707531,3.24675323135 -8.2972584688,9.74025969404 l-2.88600292504,6.49350646269 -3.24675323135,18.3982689437 l-0.360750365629,34.9927839831 5.77200585007,56.2770572755 m-17.676767382,-60.606059053 l0.360750365629,-1.80375176883 25.9740258508,-5.77200585007 l23.0880234003,-1.44300146252 m37.8787864336,-40.0432911187 l-2.16450207514,-1.08225103757 0.0,3.24675323135 l3.96825384397,31.0245310882 2.16450207514,31.3852818691 l5.41125554376,27.417027076 4.32900415028,6.49350646269 m44.7330436771,-60.9668098338 l-4.68975445659,-4.68975445659 -8.2972584688,-0.360750365629 l-11.1832609193,11.5440117001 -11.1832609193,19.1197686072 l-3.96825384397,14.4300141506 0.0,6.13275615638 l3.60750353766,6.13275615638 8.65800830055,8.65800830055 l13.3477637062,6.13275615638 13.708513538,0.721500731259 l5.05050523745,-2.52525261872 3.60750353766,-6.13275615638 m-11.1832609193,-55.5555557137 l3.96825384397,9.01875908142 8.2972584688,26.3347766316 l9.01875908142,37.5180356527 1.80375176883,-1.80375176883 m19.4805193881,-13.708513538 l-5.05050523745,-22.0057710577 0.721500731259,-18.0375181628 l1.80375176883,-2.52525261872 7.21500707531,-1.44300146252 l8.2972584688,7.93650768793 6.854256769,11.1832609193 l0.721500731259,-9.01875908142 3.24675323135,-13.708513538 l6.13275615638,-7.93650768793 4.32900415028,-0.360750365629 l11.1832609193,13.3477637062 3.96825384397,6.49350646269 l5.77200585007,14.7907649315 3.24675323135,16.9552677185 l0.360750365629,19.8412701689 m-247.835497925,30.3030295265 l-2.16450207514,0.721500731259 25.6132750699,0.0 m38.9610387761,-11.5440117001 l2.16450207514,31.3852818691 4.32900415028,16.5945169376 l0.721500731259,5.05050523745 -1.44300146252,-1.08225103757 m-4.68975445659,-73.5930757748 l4.32900415028,2.52525261872 2.52525261872,0.0 m25.9740258508,18.7590178263 l5.05050523745,54.1125525903 -3.60750353766,-14.0692643189 l-1.44300146252,-25.6132750699 3.24675323135,-10.1010104749 l4.32900415028,-5.05050523745 8.65800830055,-5.41125554376 l12.6262621445,0.721500731259 3.96825384397,3.24675323135 l12.6262621445,25.252524289 5.77200585007,22.0057710577 l0.721500731259,1.80375176883 1.08225103757,0.0 m43.2900443501,-55.9163064946 " fill="none" stroke="black" stroke-width="1.5" /></svg>