<?xml version="1.0" encoding="utf-8" ?>
<svg baseProfile="full" height="300" version="1.1" width="300" xmlns="http://www.w3.org/2000/svg" xmlns:ev="http://www.w3.org/2001/xml-events" xmlns:xlink="http://www.w3.org/1999/xlink"><defs /><rect fill="none" height="300" width="300" x="0" y="0" /><path d="M25.0,177.060055703 m0.0,-45.0419004328 l36.3128473408,4.88826833524 m-33.8687140918,12.2206699195 l22.3463690076,3.14245808428 m16.4106152567,-20.6005587566 l0.0,39.1061466819 3.84078200094,2.09497197964 l4.88826833524,0.698324031488 28.9804475938,1.04748598982 m5.23743029357,-1.74581002131 l0.0,-7.33240204355 7.68156400188,-31.7737432604 l2.79329612595,11.8715084205 1.04748598982,26.8854749252 l1.04748598982,1.74581002131 m-10.1256981695,-16.061452839 l8.72905033618,-0.349162015744 m12.2206699195,11.8715084205 l0.0,-12.5698323371 8.72905033618,-34.2178765095 l1.74581002131,2.09497197964 2.79329612595,8.03072641952 l8.03072641952,26.1871500899 3.14245808428,-25.1396646742 l1.39664806298,4.88826833524 2.79329612595,28.9804475938 l0.698324031488,2.44413416762 0.698324031488,-0.349162015744 m10.1256981695,-2.79329612595 l0.349162015744,-23.3938544233 2.09497197964,-12.9189947548 m-9.42737425284,-3.49162004261 l19.9022339214,0.698324031488 m-20.6005587566,36.3128473408 l5.93575421023,0.0 12.5698323371,2.79329612595 m14.3156425881,-2.79329612595 l3.14245808428,-23.0446920056 1.74581002131,-5.5865922519 l1.74581002131,3.49162004261 5.23743029357,25.8379895095 l3.14245808428,7.68156400188 3.84078200094,-15.3631280038 l1.74581002131,-15.7122904214 m21.99720659,-1.04748598982 l-1.74581002131,0.0 -1.04748598982,9.0782118352 l0.698324031488,13.9664801704 1.04748598982,1.74581002131 l3.84078200094,2.09497197964 6.63407812689,0.0 l1.74581002131,-1.39664806298 1.74581002131,-1.74581002131 l0.0,-6.28491616856 -1.74581002131,-1.74581002131 l-5.5865922519,-0.349162015744 m28.9804475938,8.37988791854 l-22.6955314252,-22.3463690076 5.5865922519,19.2039109233 l8.37988791854,3.84078200094 5.5865922519,-2.44413416762 m1.39664806298,-0.698324031488 " fill="none" stroke="black" stroke-width="1.5" /></svg>