<?xml version="1.0" encoding="utf-8" ?>
<svg baseProfile="full" height="300" version="1.1" width="300" xmlns="http://www.w3.org/2000/svg" xmlns:ev="http://www.w3.org/2001/xml-events" xmlns:xlink="http://www.w3.org/1999/xlink"><defs /><rect fill="none" height="300" width="300" x="0" y="0" /><path d="M44.210799371,150.259606789 m-4.15368643356,-21.0280371857 l-0.259605402097,-16.0955343324 2.33644857619,-8.82658358593 l3.63447571474,-2.85565929501 7.00934572857,-9.34579430475 l1.2980269678,-1.03842160839 1.2980269678,1.03842160839 m-30.3738314905,36.6043601163 l1.55763232721,1.03842160839 2.5960539356,0.259605402097 l6.23052930884,-0.519210804195 4.93250251179,-2.5960539356 l4.67289715238,0.0 7.7881621483,-3.11526465442 m22.3260643242,-25.1817229363 l-0.259605402097,25.1817229363 2.07684321678,7.00934572857 l7.52855644739,13.4994800553 m17.6531671719,-12.9802700195 l-4.15368643356,3.63447571474 -1.03842160839,2.85565929501 l0.778816163605,1.55763232721 2.5960539356,2.33644857619 l5.45171323061,2.33644857619 4.67289715238,0.259605402097 l4.15368643356,-1.55763232721 -1.2980269678,-10.9034264612 l-1.81723785737,-4.93250251179 -5.45171323061,-8.56697788502 l-3.37487001383,-1.81723785737 10.3842157424,18.1723772077 l33.2294914685,36.8639658172 m-7.7881621483,-42.5752857732 l1.81723785737,5.45171323061 -1.81723785737,-16.0955343324 l1.55763232721,-1.03842160839 5.97092429093,2.85565929501 l4.15368643356,7.26895142948 1.55763232721,-5.71131859002 l-0.519210804195,-9.60540000566 1.2980269678,-0.519210804195 l7.7881621483,9.08618860384 8.30737286712,7.52855644739 l2.5960539356,5.97092429093 0.519210804195,7.26895142948 m15.5763242966,-14.537902859 l1.81723785737,8.56697788502 m-3.63447571474,-19.7300100471 l0.0,0.0 m-1.55763232721,2.85565929501 l-0.259605402097,1.55763232721 m14.0186914571,10.1246107245 l0.778816163605,-3.89408107415 3.63447571474,-7.00934572857 l2.5960539356,-1.55763232721 3.11526465442,0.0 l3.37487001383,1.81723785737 1.81723785737,2.07684321678 l2.85565929501,8.82658358593 1.03842160839,7.26895142948 m18.1723772077,-11.9418485819 l-5.71131859002,1.03842160839 -0.519210804195,1.2980269678 l1.81723785737,4.93250251179 2.5960539356,2.33644857619 l1.2980269678,-0.259605402097 0.519210804195,-1.2980269678 l0.259605402097,-6.49013500975 -0.519210804195,-1.2980269678 l-0.259605402097,1.2980269678 -2.33644857619,16.0955343324 l-17.393561471,34.527517241 -6.23052930884,17.9127728728 l-12.9802700195,12.9802700195 -1.81723785737,-4.41329179297 l-0.259605402097,-7.52855644739 m76.0643829426,-67.7570059775 l-1.2980269678,1.03842160839 -1.03842160839,2.5960539356 l2.33644857619,2.33644857619 4.15368643356,0.519210804195 l1.2980269678,-0.778816163605 -0.519210804195,-4.93250251179 l-8.04776716621,-3.11526465442 " fill="none" stroke="black" stroke-width="1.5" /></svg>