<?xml version="1.0" encoding="utf-8" ?>
<svg baseProfile="full" height="300" version="1.1" width="300" xmlns="http://www.w3.org/2000/svg" xmlns:ev="http://www.w3.org/2001/xml-events" xmlns:xlink="http://www.w3.org/1999/xlink"><defs /><rect fill="none" height="300" width="300" x="0" y="0" /><path d="M28.1468532228,116.083918456 m0.349650358093,24.8251745622 l-2.79720286475,39.5104881073 -0.699300716187,-1.74825173297 m3.49650346595,-62.5874125464 l24.4755238017,1.74825173297 m-25.1748253228,31.4685316535 l21.3286706363,-0.349650358093 m12.2377619008,-19.5804205132 l0.349650358093,46.1538451986 38.4615395053,-6.6433566313 m-2.79720286475,-15.0349652255 l1.39860143237,9.79021025659 2.09790203357,5.5944057295 l0.0,-5.5944057295 -9.79021025659,-29.7202796905 l-4.54545436775,-20.2797201945 3.84615376655,10.1398600972 l18.5314682315,23.4265733598 4.19580406715,7.69230753309 m-14.3356646243,1.04895101679 l7.34265723249,-4.19580406715 5.5944057295,-1.74825173297 m4.54545436775,-32.8671346957 l1.04895101679,12.5874126614 3.14685316535,9.44055949604 l1.04895101679,6.99300693189 3.14685316535,6.99300693189 l1.04895101679,0.349650358093 m-8.74125889484,-36.7132857025 l1.39860143237,3.49650346595 2.09790203357,1.74825173297 l9.44055949604,5.2447554289 1.74825173297,-12.9370634219 l0.349650358093,50.6993014061 m23.4265733598,-41.9580434312 l0.349650358093,41.6083926706 m25.1748253228,-32.8671346957 l0.0,36.013987861 m4.54545436775,-31.4685316535 l5.9440560301,4.19580406715 3.84615376655,4.8951051283 l2.44755256415,4.8951051283 1.04895101679,6.2937063307 l0.0,-46.1538451986 m19.2307697526,16.4335673478 l-1.74825173297,0.349650358093 -4.8951051283,12.9370634219 l-1.74825173297,6.6433566313 -0.349650358093,8.74125889484 l1.74825173297,1.74825173297 3.49650346595,0.699300716187 l4.54545436775,-2.09790203357 2.44755256415,-3.49650346595 l1.39860143237,1.74825173297 -2.09790203357,9.09090873549 l0.699300716187,26.2237757646 m30.4195812116,-56.2937062157 l-4.19580406715,0.0 -4.19580406715,4.19580406715 l-4.19580406715,15.0349652255 0.699300716187,7.69230753309 l3.49650346595,3.49650346595 3.84615376655,1.04895101679 l12.9370634219,0.349650358093 8.04195829364,-1.74825173297 l5.2447554289,-5.5944057295 1.39860143237,-12.2377619008 l-6.2937063307,-8.04195829364 -11.8881120602,-5.2447554289 l-18.5314682315,-3.84615376655 -3.49650346595,0.0 l-3.14685316535,3.49650346595 " fill="none" stroke="black" stroke-width="1.5" /></svg>