<?xml version="1.0" encoding="utf-8" ?>
<svg baseProfile="full" height="300" version="1.1" width="300" xmlns="http://www.w3.org/2000/svg" xmlns:ev="http://www.w3.org/2001/xml-events" xmlns:xlink="http://www.w3.org/1999/xlink"><defs /><rect fill="none" height="300" width="300" x="0" y="0" /><path d="M25.0,70.4545441145 m12.6262629115,-13.4680136246 l15.1515150509,-23.5690243967 5.89225609917,-3.36700340615 l17.6767671902,-0.841750851537 16.8350164771,5.0505048324 m-57.2390573509,4.20875411928 l10.1010096648,10.1010096648 14.3097643377,5.89225609917 m59.764308383,-1.68350170307 l-2.5252524162,5.0505048324 -43.7710415117,42.9292941205 l-6.7340068123,11.7845121983 1.68350170307,5.0505048324 l8.41750823855,8.41750823855 19.3602697238,10.9427603779 l9.25925895168,-3.36700340615 4.20875411928,-4.20875411928 l34.5117847746,-42.9292941205 -8.41750823855,86.7003400613 m-11.7845121983,-59.764308383 l0.841750851537,4.20875411928 8.41750823855,5.0505048324 m14.3097643377,46.296296973 l4.20875411928,-0.841750851537 7.57575752543,-10.9427603779 l22.7272725763,-50.5050516459 -2.5252524162,39.562291268 l23.5690243967,-18.5185179034 -7.57575752543,21.04377115 l-16.8350164771,29.4612782813 m9.25925895168,4.20875411928 l8.41750823855,-4.20875411928 10.9427603779,-13.4680136246 l21.04377115,-40.4040386592 m-17.6767671902,59.764308383 l21.04377115,-15.993265764 -8.41750823855,27.777776855 l7.57575752543,-2.5252524162 29.4612782813,-35.3535343805 l13.4680136246,-21.04377115 m-16.8350164771,65.6565666967 l-7.57575752543,-2.5252524162 -9.25925895168,15.1515150509 l-3.36700340615,10.1010096648 10.1010096648,1.68350170307 l0.0,-6.7340068123 -4.20875411928,-8.41750823855 m26.0942754288,20.2020193296 l0.0,-30.3030301017 -3.36700340615,-2.5252524162 l-17.6767671902,37.8787876271 -0.841750851537,24.4107740025 l2.5252524162,5.89225609917 7.57575752543,3.36700340615 l5.89225609917,-5.89225609917 11.7845121983,-57.2390573509 l-7.57575752543,-31.986531528 -6.7340068123,-10.1010096648 m-106.902357176,97.6430960101 l-95.9595923693,-35.3535343805 m190.235681098,12.6262629115 l-23.5690243967,-4.20875411928 -42.0875423001,-19.3602697238 l-52.1885508576,-30.3030301017 -66.498314088,-43.7710415117 m93.4343457664,67.3400659084 l-30.3030301017,-1.68350170307 -50.5050516459,-11.7845121983 l-31.1447819221,-10.1010096648 " fill="none" stroke="black" stroke-width="1.5" /></svg>