<?xml version="1.0" encoding="utf-8" ?>
<svg baseProfile="full" height="300" version="1.1" width="300" xmlns="http://www.w3.org/2000/svg" xmlns:ev="http://www.w3.org/2001/xml-events" xmlns:xlink="http://www.w3.org/1999/xlink"><defs /><rect fill="none" height="300" width="300" x="0" y="0" /><path d="M117.427616087,147.216038715 m2.22717151831,67.928727463 l-1.11358575915,38.9754995561 -47.3273935738,14.4766139534 l-17.8173721464,3.89755024859 0.556792879576,-3.34075709435 m90.2004448434,-154.788422903 l2.22717151831,134.743879604 -31.7371925794,12.2494428013 m18.9309577225,-148.106900657 l-32.2939860999,40.0890865971 -76.2806244104,-28.3964373162 l67.928727463,-52.8953199891 74.0534503286,15.0334074739 l-0.556792879576,1.67037854717 m-101.893097054,-18.9309577225 l-13.9198218979,-26.1692661641 -3.89755024859,-4.45434303661 l30.0668149478,-11.6926500133 12.2494428013,8.3518932852 l27.8396437957,25.0556791232 4.45434303661,7.23830697672 l-5.56792861265,-26.7260567548 -1.67037854717,27.2828502752 l-6.6815141887,0.0 m-41.7594642287,-26.7260567548 l-4.45434303661,5.01113582463 2.78396430633,-4.45434303661 m-5.01113582463,16.1469930499 l10.0222716493,1.11358575915 22.2717144506,-8.90868607322 m52.3385323282,59.0200428547 l-8.90868607322,14.4766139534 0.556792879576,64.5879721998 l2.78396430633,45.1002224217 -2.22717151831,3.34075709435 l-14.4766139534,5.56792861265 m-20.601336819,-97.9955424108 l6.6815141887,33.9643637315 1.11358575915,38.4187089654 l-6.6815141887,11.1358572253 -56.2360811119,12.8062363218 l1.11358575915,11.6926500133 6.12472140067,16.1469930499 l2.22717151831,0.0 m35.6347442929,-154.788422903 l-0.556792879576,22.2717144506 34.521157252,-10.5790644373 l45.6570159421,41.7594642287 104.677064656,-14.4766139534 l-129.1759444,-60.1336298956 m38.9754995561,-1.67037854717 l-54.5657005505,28.3964373162 57.3496681528,-13.9198218979 l60.1336298956,18.9309577225 -1.11358575915,6.12472140067 l-62.9175916384,50.6681517668 " fill="none" stroke="black" stroke-width="1.5" /></svg>