<?xml version="1.0" encoding="utf-8" ?>
<svg baseProfile="full" height="300" version="1.1" width="300" xmlns="http://www.w3.org/2000/svg" xmlns:ev="http://www.w3.org/2001/xml-events" xmlns:xlink="http://www.w3.org/1999/xlink"><defs /><rect fill="none" height="300" width="300" x="0" y="0" /><path d="M111.325966149,172.272099516 m-3.79834246513,20.7182327842 l1.38121550381,12.0856350337 -1.03591157108,7.59668493026 l0.690607751903,8.2872925686 m39.7099442014,-44.1988961218 l-4.1436462843,26.9337024378 -5.17955819605,12.4309393071 l-2.41712718844,4.1436462843 -2.07182314215,1.38121550381 m-4.83425437688,-69.4060790095 l-42.4723747548,-1.72651932298 -18.3011046873,-2.41712718844 l-18.3011046873,-4.1436462843 -3.79834246513,-1.38121550381 l-7.94198920366,-5.8701658344 -7.25138111109,-6.56077347274 l-6.56077347274,-8.97790020695 4.83425437688,-3.10773482678 l21.7541437875,-8.63259684201 47.9972394954,-15.1933698605 l18.6464089607,-4.48895010347 33.8397788212,-2.07182314215 l8.97790020695,1.72651932298 22.7900547908,13.1215469455 l8.2872925686,10.0138121187 -51.1049743222,12.0856350337 l-42.8176790282,5.17955819605 -10.0138121187,0.345303875952 l-11.3950273954,3.10773482678 -11.0497240304,4.83425437688 l2.76243100761,-3.10773482678 41.4364655684,-10.704419757 l5.52486201522,1.03591157108 37.2928179214,47.9972394954 l-5.8701658344,-0.345303875952 -16.2292826807,-4.1436462843 l-39.0193356546,-17.6104979574 -51.1049743222,-33.8397788212 l0.690607751903,-1.72651932298 19.682319964,-7.94198920366 l31.7679568147,8.97790020695 4.48895010347,2.41712718844 l-20.0276242374,5.17955819605 -8.2872925686,-0.690607751903 l-7.25138111109,-6.90607729191 -3.10773482678,-6.21546965357 l-3.10773482678,-11.3950273954 62.1546965357,14.8480664956 l37.2928179214,14.1574588572 14.5027622222,14.8480664956 l-4.1436462843,-1.72651932298 -25.2071828877,-17.265193684 l-7.59668493026,-3.45303864596 -3.45303864596,0.0 l1.72651932298,19.3370175075 10.0138121187,42.4723747548 l15.1933698605,31.0773482678 3.79834246513,5.52486201522 l-1.03591157108,-3.45303864596 -14.1574588572,-12.7762435805 l-25.2071828877,-18.6464089607 -26.5883981644,-12.0856350337 l9.32320448035,4.1436462843 10.3591163921,1.72651932298 l3.79834246513,-4.48895010347 5.17955819605,-9.32320448035 m21.7541437875,-10.3591163921 l6.21546965357,1.38121550381 21.4088395141,0.0 l18.6464089607,-7.59668493026 15.1933698605,-2.76243100761 l14.8480664956,-7.25138111109 3.79834246513,-2.76243100761 l10.704419757,-14.1574588572 5.17955819605,-10.704419757 l6.90607729191,-10.0138121187 m0.345303875952,-3.45303864596 l-2.41712718844,-3.45303864596 1.38121550381,-11.0497240304 l0.690607751903,-1.72651932298 3.79834246513,-1.72651932298 l11.0497240304,1.38121550381 6.90607729191,2.76243100761 l5.8701658344,11.7403316688 1.38121550381,9.32320448035 l-2.41712718844,3.10773482678 -3.10773482678,1.03591157108 l-8.63259684201,1.03591157108 -7.94198920366,-0.690607751903 l-5.17955819605,-4.48895010347 0.345303875952,-2.41712718844 " fill="none" stroke="black" stroke-width="1.5" /></svg>