<?xml version="1.0" encoding="utf-8" ?>
<svg baseProfile="full" height="300" version="1.1" width="300" xmlns="http://www.w3.org/2000/svg" xmlns:ev="http://www.w3.org/2001/xml-events" xmlns:xlink="http://www.w3.org/1999/xlink"><defs /><rect fill="none" height="300" width="300" x="0" y="0" /><path d="M60.1239692269,55.4752093396 m-5.68181800809,1.03305786598 l-6.7148757042,5.16528916003 -4.13223146392,5.68181800809 l-2.06611573196,12.3966937123 4.64876031198,8.7809917759 l12.3966937123,12.3966937123 23.2438015599,5.16528916003 l13.9462809359,0.0 17.5619835518,-7.23140523173 l11.8801655437,-15.4958681596 -1.54958671404,-14.4628104635 l-5.16528916003,-9.81404947201 -33.5743812389,-11.8801655437 l-14.4628104635,1.54958671404 -10.3305783201,4.13223146392 l-19.1115707754,17.0454540243 0.0,3.09917342807 l2.06611573196,2.58264458002 14.979338632,-13.9462809359 l17.0454540243,-11.3636360162 30.9917363191,-16.0123963282 l25.3099169521,-8.26446292784 36.1570234408,-1.03305786598 l15.4958681596,13.4297514084 6.19834685615,28.9256209269 l-20.6611566401,61.9834726383 -34.6074375761,30.4752067916 l-32.0247926563,18.5950412479 -1.03305786598,3.09917342807 l2.58264458002,17.5619835518 20.6611566401,1.03305786598 l69.2148751521,-17.0454540243 10.3305783201,-71.7975227898 l-1.03305786598,-18.5950412479 -13.9462809359,-12.9132232398 l-23.2438015599,-7.74793407979 -36.1570234408,5.68181800809 l-28.9256209269,18.5950412479 -23.2438015599,28.9256209269 l9.29752062395,44.4214877275 41.8388428078,25.8264464796 l82.6446265605,-7.23140523173 24.2768606149,-13.4297514084 l23.7603310874,-47.0041326473 -9.81404947201,-13.4297514084 l-24.2768606149,-13.9462809359 -37.1900824958,2.58264458002 l-53.2024815419,13.4297514084 -19.1115707754,23.2438015599 l-3.61570261587,18.5950412479 m49.5867748492,21.6942143362 l-8.26446292784,55.7851237437 -2.58264458002,23.2438015599 l0.0,16.0123963282 m-1.03305786598,-8.26446292784 l5.16528916003,0.0 14.4628104635,4.13223146392 m-23.2438015599,-4.64876031198 l-8.26446292784,1.54958671404 -10.8471071681,5.16528916003 m54.7520646887,-182.334705786 l-9.29752062395,0.51652893299 -59.9173545282,19.628098944 l-9.81404947201,7.23140523173 -5.68181800809,28.9256209269 l20.6611566401,16.5289258557 23.2438015599,8.7809917759 l48.5537212299,7.23140523173 29.4421477366,-7.74793407979 l24.2768606149,-22.7272720324 10.8471071681,-25.8264464796 l0.0,-17.0454540243 -17.0454540243,-5.16528916003 l-59.9173545282,4.64876031198 -45.4545440647,16.0123963282 l-7.74793407979,5.68181800809 -1.03305786598,11.8801655437 l20.1446284715,22.7272720324 23.7603310874,-3.09917342807 l24.7933874246,-9.29752062395 9.81404947201,-15.4958681596 l2.06611573196,-19.1115707754 -41.3223132803,-9.29752062395 l-20.1446284715,15.4958681596 8.26446292784,28.9256209269 l20.6611566401,9.81404947201 17.5619835518,-7.23140523173 l-1.03305786598,-16.0123963282 -6.7148757042,-6.19834685615 m-4.64876031198,-59.9173545282 " fill="none" stroke="black" stroke-width="1.5" /></svg>