<?xml version="1.0" encoding="utf-8" ?>
<svg baseProfile="full" height="300" version="1.1" width="300" xmlns="http://www.w3.org/2000/svg" xmlns:ev="http://www.w3.org/2001/xml-events" xmlns:xlink="http://www.w3.org/1999/xlink"><defs /><rect fill="none" height="300" width="300" x="0" y="0" /><path d="M224.090907768,86.1363595822 m9.54545455986,-13.1818183441 l16.36363673,-2.27272729039 0.0,6.36363677186 l-1.36363634434,2.72727268868 -11.3636367509,9.99999995814 l-11.3636367509,15.4545459334 -6.81818217015,17.7272735228 l2.27272729039,57.272728555 -2.72727268868,14.0909091406 l-9.99999995814,9.54545455986 -15.9090907338,-14.0909091406 l-3.63636378422,-14.5454551369 1.81818189211,-31.3636378631 l12.2727275475,-43.6363630189 4.0909091825,-4.99999997907 l4.0909091825,-1.36363634434 8.63636376329,5.45454537736 m-14.5454551369,75.9090904827 l-1.36363634434,5.90909077564 -75.9090904827,-27.7272722851 l-103.181816772,-2.27272729039 5.90909077564,8.181818365 l45.4545470037,40.909091825 94.0909064141,41.8181838175 l61.8181837338,-7.72727296672 12.2727275475,-21.8181815094 l-0.909090946054,-16.36363673 -6.36363677186,-5.45454537736 l-49.5454561862,-26.3636366882 -9.54545455986,5.45454537736 m-2.72727268868,-3.63636378422 l-10.4545459544,7.72727296672 -11.8181815513,25.0000010912 l17.2727275266,-12.7272735437 -14.0909091406,-4.99999997907 l-53.1818193725,5.45454537736 24.545455095,29.54545627 l35.4545470456,3.18181838593 -3.18181838593,-26.3636366882 l-10.4545459544,-7.27272756843 -3.18181838593,3.63636378422 m114.090911114,-121.363637486 l-6.81818217015,0.0 -2.27272729039,-1.81818189211 l23.6363631026,-8.181818365 -8.63636376329,23.6363631026 l-4.54545458079,1.81818189211 -14.5454551369,-6.81818217015 m-8.181818365,-8.63636376329 l-7.27272756843,16.36363673 0.909090946054,-8.63636376329 " fill="none" stroke="black" stroke-width="1.5" /></svg>