<?xml version="1.0" encoding="utf-8" ?>
<svg baseProfile="full" height="300" version="1.1" width="300" xmlns="http://www.w3.org/2000/svg" xmlns:ev="http://www.w3.org/2001/xml-events" xmlns:xlink="http://www.w3.org/1999/xlink"><defs /><rect fill="none" height="300" width="300" x="0" y="0" /><path d="M49.3111832194,76.0534755797 m-8.1037277398,7.29335507242 l-16.2074554796,19.0437614144 35.251216894,-9.31928727388 l-7.69854140611,-11.750405276 0.0,-4.86223653728 l-1.62074560126,-0.405186400315 m0.0,-0.405186400315 l-1.21555913432,-4.86223653728 10.9400326086,-15.3970828122 l3.24149120252,-1.62074560126 22.6904389507,-4.45705020359 l25.9319296202,0.0 10.5348457419,1.62074560126 l3.24149120252,1.62074560126 12.5607779434,18.2333876811 l0.0,49.8379249069 2.02593193495,14.1815232781 m-83.0632138635,-43.3549435678 l23.500810552,9.72447307456 13.3711506108,0.0 l2.83630486883,-3.24149120252 4.0518638699,-1.21555913432 l2.43111826864,5.26742287097 8.1037277398,32.8200978259 l8.50891407349,25.9319296202 5.67260973766,25.5267427535 l-2.83630486883,32.0097240925 -1.62074560126,7.69854140611 l-2.83630486883,3.64667753621 m-1.62074560126,-67.6661257212 l-18.6385745478,45.3808779013 17.017828147,3.24149120252 l17.017828147,5.26742287097 m7.29335507242,-81.03727953 l1.21555913432,6.48298240504 3.24149120252,0.81037280063 l29.1734202897,-2.83630486883 60.7779575155,-0.81037280063 l21.4748783506,-3.64667753621 6.48298240504,52.6742329737 l-19.4489461491,-11.3452194753 0.0,-17.017828147 l-23.0956236853,1.21555913432 4.45705020359,2.83630486883 l3.64667753621,4.86223653728 23.9059974187,59.1572143128 l11.750405276,32.4149109592 2.02593193495,2.83630486883 l2.43111826864,0.0 -21.0696914839,-4.45705020359 l-32.8200978259,-10.5348457419 -23.0956236853,-11.3452194753 l-40.9238266317,-23.500810552 -10.1296599413,-2.83630486883 l4.45705020359,-10.5348457419 11.3452194753,-16.2074554796 l-1.21555913432,4.45705020359 -6.07779607135,4.86223653728 l-6.07779607135,9.31928727388 -9.72447307456,31.6045393578 l-5.67260973766,10.1296599413 -4.86223653728,4.45705020359 m51.4586723736,-91.1669341412 l2.43111826864,-8.91410040718 56.7260931126,-93.5980553414 l11.750405276,-13.3711506108 4.45705020359,-3.24149120252 l0.81037280063,2.43111826864 -8.50891407349,12.9659648101 l-7.29335507242,17.4230150137 7.29335507242,0.405186400315 l16.6126423463,-3.64667753621 12.9659648101,-1.21555913432 l2.83630486883,0.0 1.21555913432,2.43111826864 l-30.3889787578,18.2333876811 7.69854140611,19.4489461491 l0.0,2.83630486883 -8.1037277398,6.48298240504 l-16.2074554796,8.91410040718 -25.1215558868,8.50891407349 l-8.50891407349,1.62074560126 -8.1037277398,-0.81037280063 l23.9059974187,-0.405186400315 -8.1037277398,2.02593193495 l-31.6045393578,0.81037280063 m-89.1410083358,-67.6661257212 l0.0,0.405186400315 " fill="none" stroke="black" stroke-width="1.5" /></svg>