<?xml version="1.0" encoding="utf-8" ?>
<svg baseProfile="full" height="300" version="1.1" width="300" xmlns="http://www.w3.org/2000/svg" xmlns:ev="http://www.w3.org/2001/xml-events" xmlns:xlink="http://www.w3.org/1999/xlink"><defs /><rect fill="none" height="300" width="300" x="0" y="0" /><path d="M166.46959416,139.020275752 m1.40765760589,21.1148639032 l13.2319823472,74.6058525567 1.68918909003,22.5225216943 l-7.31981932843,6.19369339185 -9.85360305607,11.5427927016 l16.0472964479,-22.2409898398 2.53378372764,6.75675636014 l6.19369339185,6.19369339185 1.68918909003,0.0 m-26.7454935861,-123.310810054 l-1.97072075935,1.12612612175 -4.50450448699,11.8243238154 l-4.50450448699,8.1644141512 -7.8828830374,10.1351349106 l-13.7950445748,11.8243238154 -12.9504504927,-4.50450448699 l-8.72747711949,0.281531530437 -14.0765764293,3.37837818007 l-6.47522524634,5.91216190771 -1.97072075935,0.0 l0.0,-10.9797297333 -2.53378372764,1.40765760589 l-1.68918909003,-1.68918909003 9.85360305607,-0.844594545017 l-5.91216190771,0.0 5.34909893942,0.844594545017 l8.1644141512,-1.68918909003 m65.0337813551,-32.6576566048 l-9.57207194226,-6.47522524634 -10.416666765,-13.5135127203 l-12.1058556699,-34.346844769 0.281531530437,-15.7657660748 l5.63063042356,-18.2995498024 9.29054008778,-10.1351349106 l9.00900897398,-5.63063042356 12.1058556699,-2.81531521178 l12.3873867837,3.9414415187 16.6103601569,35.7545040414 l-1.12612612175,19.7072061121 -17.454954239,36.8806284966 l-10.9797297333,7.60135118291 -8.72747711949,2.81531521178 l-3.09684669593,-1.68918909003 m-2.81531521178,-88.4009015756 l-8.1644141512,-2.81531521178 -1.68918909003,-4.22297300284 l1.40765760589,-14.6396386569 7.03828821463,-7.03828821463 l12.1058556699,-0.844594545017 m24.2117113398,33.5022521683 l-1.40765760589,-9.00900897398 0.563063060874,-4.22297300284 l5.63063042356,-10.6981978788 m-9.00900897398,-0.281531530437 l18.86261203,0.563063060874 4.50450448699,1.68918909003 l5.91216190771,7.8828830374 -12.6689186382,2.53378372764 l-5.63063042356,-8.1644141512 -5.63063042356,-3.09684669593 l7.8828830374,-0.563063060874 8.44594600569,1.40765760589 l-6.47522524634,3.09684669593 -5.63063042356,0.844594545017 l7.03828821463,-1.12612612175 3.65990966421,0.281531530437 l-2.25225224349,1.40765760589 3.9414415187,1.40765760589 l-2.53378372764,2.25225224349 -0.563063060874,-1.12612612175 l-1.68918909003,1.97072075935 m-59.1216183364,14.3581082837 l10.9797297333,-5.06756745528 5.06756745528,0.844594545017 l12.3873867837,32.6576566048 " fill="none" stroke="black" stroke-width="1.5" /></svg>