<?xml version="1.0" encoding="utf-8" ?>
<svg baseProfile="full" height="300" version="1.1" width="300" xmlns="http://www.w3.org/2000/svg" xmlns:ev="http://www.w3.org/2001/xml-events" xmlns:xlink="http://www.w3.org/1999/xlink"><defs /><rect fill="none" height="300" width="300" x="0" y="0" /><path d="M217.567569724,78.6317570366 m-2.95608125398,-9.29054044905 l-8.02364872114,-16.8918919275 -6.75675699323,-7.6013514785 l-18.5810808981,-15.202702957 -5.91216250795,-2.53378373358 l-10.9797294196,-2.11148649094 -5.91216250795,0.844594624153 l-13.5135139865,5.4898647098 -4.22297298189,4.64527022452 l-4.64527022452,21.114865465 13.9358106736,64.1891897691 l14.3581084717,48.9864868121 10.5574327325,51.5202691569 l3.37837849661,10.1351349343 -0.422297312077,33.7837838551 l-1.68918924831,9.29054044905 -1.68918924831,-4.22297298189 l-1.26689186679,-12.246621703 0.422297312077,-13.9358106736 l8.02364872114,-27.4493257711 18.158784211,33.7837838551 l8.02364872114,10.1351349343 6.75675699323,5.4898647098 m-29.1385147416,-125.422294951 l-26.1824323766,-3.37837849661 -22.3817566373,1.26689186679 l-34.6283794514,15.202702957 -13.0912161883,9.29054044905 l-5.91216250795,10.5574327325 0.844594624153,8.44594596377 l17.7364864128,19.8479742926 20.6925676668,4.64527022452 l45.1858110729,-10.9797294196 20.6925676668,-10.1351349343 l18.158784211,-18.5810808981 0.0,-11.8243250159 l-23.6486500318,-18.5810808981 -23.2263522337,-1.26689186679 m58.6993272814,-54.476353744 l-8.86824320641,-0.844594624153 -3.80067573925,-9.7128382472 l-8.44594596377,-12.6689195012 -9.29054044905,-5.91216250795 l-7.6013514785,-2.53378373358 m0.0,-0.422297312077 l-2.53378373358,8.44594596377 -5.91216250795,6.33445975059 l-9.7128382472,-1.26689186679 -6.75675699323,-5.4898647098 l-2.11148649094,-3.80067573925 5.91216250795,57.4324338869 l0.844594624153,25.3378390024 m-1.68918924831,27.0270279729 l-42.2297309299,9.29054044905 -34.6283794514,16.0472974423 m62.9222963746,-13.0912161883 l-36.7398662201,8.02364872114 m59.5439184335,1.68918924831 l-8.44594596377,2.11148649094 -24.0709456079,12.246621703 m55.7432426943,-31.2500015103 l-16.0472974423,2.95608125398 -25.3378390024,7.17905423586 m30.8277037122,-37.1621617962 l-55.3209448961,13.9358106736 m46.4527044673,-14.3581084717 l-17.7364864128,2.95608125398 -22.8040544355,6.33445975059 m47.2973000636,-4.22297298189 l-11.8243250159,3.37837849661 -27.0270279729,12.246621703 l-21.5371632631,17.7364864128 m48.5641890139,-14.7804051588 l-20.2702698686,8.44594596377 " fill="none" stroke="black" stroke-width="1.5" /></svg>