<?xml version="1.0" encoding="utf-8" ?>
<svg baseProfile="full" height="300" version="1.1" width="300" xmlns="http://www.w3.org/2000/svg" xmlns:ev="http://www.w3.org/2001/xml-events" xmlns:xlink="http://www.w3.org/1999/xlink"><defs /><rect fill="none" height="300" width="300" x="0" y="0" /><path d="M136.707564282,125.33230917 m-9.45807784684,7.92433509342 l2.81186081791,-10.7361959113 7.15746438923,-8.94682981402 l6.39059301252,-6.39059301252 16.8711649074,-14.0593047621 l2.55623713776,-0.766871124514 2.30061345761,1.53374224903 l0.511247444364,4.85685059536 5.62372163581,13.2924327128 l3.06748449806,16.3599182197 2.81186081791,9.20245383043 l7.15746438923,31.4417163573 0.255623722182,5.62372163581 l-1.27811856888,13.5480567292 -1.02249488873,4.85685059536 l-6.90184037282,18.6605316773 1.27811856888,-3.06748449806 l7.41308773312,-7.92433509342 2.81186081791,-4.34560323507 l14.3149287785,-27.8629855077 16.1042942033,-34.7648258805 l12.781186025,-5.87934565222 13.0368100415,-4.08997955492 l7.92433509342,-0.511247444364 6.39059301252,4.60122691521 l6.39059301252,7.41308773312 2.55623713776,7.15746438923 l-1.27811856888,27.6073614913 -9.45807784684,21.7280158391 l-4.34560323507,29.6523509325 -1.53374224903,2.55623713776 l-1.53374224903,-2.55623713776 m-106.083837686,-99.4376240198 l5.36809795566,12.5255620086 13.5480567292,25.5623720501 l6.64621635641,21.9836398555 3.83435587477,24.0286306417 l-1.02249488873,6.64621635641 -4.08997955492,11.2474432716 l-0.511247444364,-0.255623722182 m78.2208575586,-76.9427374766 l5.36809795566,2.81186081791 13.2924327128,9.20245383043 l12.0143153209,5.62372163581 m-26.8404894421,-5.36809795566 l-18.4049076609,2.55623713776 -21.9836398555,1.78936609731 l-20.9611451349,4.08997955492 -17.3824129403,7.92433509342 l-25.5623720501,9.20245383043 -15.0817994827,6.64621635641 l-16.1042942033,-10.9918199277 -1.78936609731,-2.04498977746 l-2.55623713776,-5.62372163581 -1.02249488873,-5.87934565222 l0.255623722182,-15.8486701868 2.55623713776,-16.8711649074 l4.60122691521,-16.8711649074 3.32310817821,-7.41308773312 l14.5705514498,-20.1942730856 9.71370119073,-8.69120647013 l7.92433509342,-4.85685059536 m2.81186081791,7.66871174953 l36.5541913053,-2.55623713776 7.66871174953,1.27811856888 l6.64621635641,3.83435587477 38.0879327137,17.893659628 l10.224948551,8.43558245372 5.11247427551,6.90184037282 l-23.5173826089,9.20245383043 -25.8179960665,8.94682981402 l-46.2678931686,11.7586913044 -17.3824129403,2.55623713776 l-15.5930461704,1.02249488873 -78.4764815751,2.81186081791 l-25.3067480337,1.78936609731 0.766871124514,-2.04498977746 l30.1635989653,-20.7055211185 40.6441701877,-16.8711649074 l36.2985672889,-9.20245383043 28.3742335405,-2.30061345761 l10.224948551,0.511247444364 8.43558245372,1.78936609731 m-49.3353759853,59.8159498978 l-3.06748449806,-3.32310817821 " fill="none" stroke="black" stroke-width="1.5" /></svg>