<?xml version="1.0" encoding="utf-8" ?>
<svg baseProfile="full" height="300" version="1.1" width="300" xmlns="http://www.w3.org/2000/svg" xmlns:ev="http://www.w3.org/2001/xml-events" xmlns:xlink="http://www.w3.org/1999/xlink"><defs /><rect fill="none" height="300" width="300" x="0" y="0" /><path d="M42.8571400963,54.2207796243 m11.6883117643,-17.5324676465 l12.337662323,-9.74026008832 5.19480532349,-1.94805188953 l18.8311687638,0.0 5.84415588215,1.94805188953 l4.54545476483,4.54545476483 3.89610377907,9.74026008832 l1.29870133087,11.6883117643 -1.94805188953,79.2207766987 m-49.3506492919,-88.3116896451 l-27.9220782934,40.9090911751 7.14285699947,-1.29870133087 l33.1168844711,-16.2337665291 5.84415588215,65.5844175294 l11.0389612056,30.5194822365 -5.19480532349,28.5714279979 l3.24675322041,13.6363634403 -3.89610377907,20.779221294 l23.3766235286,-1.29870133087 1.94805188953,-4.54545476483 l-0.649350665436,-39.6103883493 2.59740266174,-7.14285699947 l5.19480532349,18.1818190593 7.79220755814,1.29870133087 l12.9870128816,-1.94805188953 -4.54545476483,-28.5714279979 m2.59740266174,-3.24675322041 l12.337662323,0.649350665436 29.8701308236,7.79220755814 l22.7272721157,0.649350665436 18.8311687638,-2.59740266174 l5.84415588215,-3.24675322041 9.09090952965,-9.74026008832 l5.84415588215,-24.0259749415 -0.649350665436,-14.9350654118 l-2.59740266174,-5.19480532349 -16.2337665291,-11.0389612056 l-27.9220782934,-0.649350665436 -12.337662323,2.59740266174 l-44.8051962354,22.0779224113 -31.1688302325,4.54545476483 m121.428577533,-13.6363634403 l31.1688302325,-41.5584425879 -25.3246760588,31.8181816454 m20.1298698811,-11.0389612056 l24.6753246459,-26.6233771761 m-37.6623375276,40.2597397622 l27.9220782934,-15.5844151163 m-26.6233771761,26.6233771761 l38.3116889404,-29.2207794108 m-59.0909102344,64.9350661165 l29.8701308236,-12.9870128816 m-145.454552474,39.6103883493 l6.49350644081,25.9740257633 1.29870133087,46.7532470572 l-1.29870133087,-48.701297879 -2.59740266174,-15.5844151163 l1.94805188953,68.1818163472 1.29870133087,-11.6883117643 l-6.49350644081,-64.2857147037 -0.649350665436,29.8701308236 l-7.14285699947,43.5064934097 -1.29870133087,3.24675322041 l-3.24675322041,-3.24675322041 -1.94805188953,-9.09090952965 l-0.649350665436,-51.9480515265 5.84415588215,67.5324649344 l2.59740266174,5.84415588215 3.24675322041,2.59740266174 l0.649350665436,-54.5454537611 -1.94805188953,-11.0389612056 l-3.24675322041,2.59740266174 -8.4415581168,50.6493521176 l0.649350665436,19.4805201766 3.24675322041,0.0 l1.29870133087,-70.1298705858 3.24675322041,-27.2727268806 l1.29870133087,34.41558388 -4.54545476483,59.0909102344 " fill="none" stroke="black" stroke-width="1.5" /></svg>