<?xml version="1.0" encoding="utf-8" ?>
<svg baseProfile="full" height="300" version="1.1" width="300" xmlns="http://www.w3.org/2000/svg" xmlns:ev="http://www.w3.org/2001/xml-events" xmlns:xlink="http://www.w3.org/1999/xlink"><defs /><rect fill="none" height="300" width="300" x="0" y="0" /><path d="M110.232903417,160.901884271 m-27.7502486209,-6.19425173806 l-11.8929627634,-7.92864227687 -22.0515356399,-4.70763122967 l-19.078295275,-15.3617438411 -1.48662034543,-4.21209116885 l-2.22993059963,-2.97324069086 -0.743310172715,-2.72547066045 l0.495540142305,-1.48662034543 5.20317129049,-5.69871167724 l5.69871167724,-1.48662034543 15.8572845537,2.22993059963 l28.4935570825,5.94648138172 20.317145753,7.43310221605 l3.22101072127,1.73439053881 5.69871167724,5.20317129049 l13.6273539541,3.46878107761 5.20317129049,3.71655110803 l8.91972239852,-4.45986119926 10.6541129373,-1.98216056922 l-2.72547066045,-19.573834684 0.743310172715,-4.95540126008 l2.22993059963,-8.17641198135 2.22993059963,-4.45986119926 l4.70763122967,-4.70763122967 1.23885031502,-0.743310172715 l1.48662034543,0.247770071152 1.98216056922,1.48662034543 l6.68979179889,1.98216056922 7.18533185971,-0.247770071152 l1.23885031502,6.68979179889 -3.71655110803,1.23885031502 l-12.8840428851,1.23885031502 -12.8840428851,3.22101072127 l1.23885031502,0.991080284609 7.68087192053,0.991080284609 l3.22101072127,4.70763122967 1.48662034543,4.21209116885 l0.991080284609,8.67195204217 2.72547066045,10.406342581 l0.743310172715,5.94648138172 -0.991080284609,5.20317129049 l-5.20317129049,7.92864227687 -2.47770063004,1.73439053881 l-13.6273539541,3.22101072127 -26.2636264829,-0.495540142305 l-9.16749275486,1.98216056922 m-48.0673917665,-15.3617438411 l-1.48662034543,39.6432100806 -5.69871167724,2.72547066045 l-13.1318132414,12.8840428851 14.3706637194,-6.68979179889 l0.991080284609,-3.96432113844 4.21209116885,-3.46878107761 l10.9018826418,16.3528239627 -1.23885031502,0.0 l-7.43310221605,-7.18533185971 -2.47770063004,-3.96432113844 l-0.991080284609,-3.96432113844 0.247770071152,14.3706637194 m84.7373627859,-43.3597628183 l-0.743310172715,39.3954397243 -1.73439053881,2.47770063004 l-1.23885031502,-0.495540142305 -1.48662034543,0.991080284609 l-6.44202144254,8.67195204217 5.94648138172,-8.17641198135 l7.18533185971,-7.18533185971 0.247770071152,5.4509413209 l6.19425173806,11.8929627634 -6.44202144254,-9.41526245934 l-2.22993059963,-6.19425173806 0.991080284609,6.19425173806 l-0.247770071152,8.42418233769 m33.9444997071,-118.929635457 l24.2814662396,2.47770063004 35.6788895941,1.23885031502 l14.8662044321,2.22993059963 14.6184340758,3.22101072127 l10.406342581,3.22101072127 -44.5986119926,-0.743310172715 l-27.5024782646,1.23885031502 -7.92864227687,-1.98216056922 l-4.21209116885,0.495540142305 -10.406342581,-2.97324069086 l-4.95540126008,-0.495540142305 " fill="none" stroke="black" stroke-width="1.5" /></svg>