<?xml version="1.0" encoding="utf-8" ?>
<svg baseProfile="full" height="300" version="1.1" width="300" xmlns="http://www.w3.org/2000/svg" xmlns:ev="http://www.w3.org/2001/xml-events" xmlns:xlink="http://www.w3.org/1999/xlink"><defs /><rect fill="none" height="300" width="300" x="0" y="0" /><path d="M82.1266962932,137.556560684 m-2.54524881896,13.0090498498 l-3.95927610595,33.3710404015 -11.5950225628,44.9660614763 l-10.7466060418,5.37330302092 -24.6040724127,6.78732993589 l-3.67647035094,2.54524881896 m40.7239811034,-16.6855202008 l2.82805420196,9.33257875485 2.26244343597,3.11085958495 l4.52488687194,4.52488687194 4.24208148894,1.97963805297 m1.97963805297,-107.748861709 l7.0701356909,2.26244343597 16.6855202008,2.82805420196 l23.4728508807,2.54524881896 13.2918556048,-0.282805429496 l2.82805420196,-1.13122171798 3.95927610595,-3.11085958495 l1.97963805297,-3.39366496794 0.848416241986,-6.78732993589 l-1.69683248397,-1.13122171798 -17.2511302227,-2.82805420196 l-6.78732993589,-1.97963805297 -18.9479632647,-2.54524881896 l-9.89818952083,0.565610858992 -21.4932120837,6.78732993589 l0.565610858992,2.54524881896 3.67647035094,2.82805420196 l11.3122168078,3.39366496794 m42.1380069023,4.80769225493 l0.565610858992,5.09049763792 4.24208148894,16.1199086907 l1.41402710098,13.8574656268 5.37330302092,18.6651575097 l14.9886871588,34.5022604454 -5.09049763792,3.95927610595 l-15.8371044238,8.76696798886 -10.4638010309,7.63574645689 m27.4321254986,-18.3823532428 l3.11085958495,0.565610858992 5.37330302092,3.67647035094 l12.1606333288,10.1809952758 m-59.10633137,-124.151583595 l2.54524881896,-9.04977374387 1.41402710098,-12.4434383398 l2.82805420196,-7.63574645689 3.67647035094,-34.7850662004 l4.24208148894,-11.3122168078 9.04977374387,-0.848416241986 l35.0678719554,8.20135722287 81.1651564518,11.5950225628 l0.282805429496,4.80769225493 -1.97963805297,7.35294070187 l-4.80769225493,4.52488687194 -1.97963805297,0.565610858992 l-12.7262440948,0.282805429496 -21.2104063287,-2.82805420196 l-31.6742088476,-7.0701356909 -17.8167417327,-0.848416241986 l-17.8167417327,-4.80769225493 m105.203621819,11.0294117968 l22.0588235937,10.1809952758 -22.9072393707,0.565610858992 m-102.941175779,-22.3416278606 l-6.2217191699,0.282805429496 m10.7466060418,-11.3122168078 l-0.848416241986,1.13122171798 m-9.89818952083,10.1809952758 l-1.13122171798,1.69683248397 -4.24208148894,19.2307690197 l-11.8778275738,27.4321254986 -4.24208148894,14.1402713818 " fill="none" stroke="black" stroke-width="1.5" /></svg>