<?xml version="1.0" encoding="utf-8" ?>
<svg baseProfile="full" height="300" version="1.1" width="300" xmlns="http://www.w3.org/2000/svg" xmlns:ev="http://www.w3.org/2001/xml-events" xmlns:xlink="http://www.w3.org/1999/xlink"><defs /><rect fill="none" height="300" width="300" x="0" y="0" /><path d="M122.190369748,270.699541207 m43.2912832443,4.30045879274 l10.894495206,0.0 10.894495206,-1.43348620139 l-2.86697240278,-10.6077983806 -2.29357799765,-17.4885312421 l-4.01376159018,-43.2912832443 -1.43348620139,-36.6972479625 l-0.860091701978,-6.88073361582 -0.573394499413,-1.43348620139 l-0.286697249707,1.43348620139 0.860091701978,12.6146784214 m-24.6559631919,16.3417424319 l0.0,0.0 m32.6834848637,-20.9288991814 l-31.2499999823,0.0 -0.860091701978,1.72018340396 l0.286697249707,34.6903679216 1.72018340396,13.7614672316 l-26.949542321,0.286697249707 m-12.0412840163,-62.2133023849 l4.01376159018,1.72018340396 50.172019123,0.573394499413 l20.355504022,2.58027520022 25.5160544225,1.72018340396 l14.0481648113,0.0 7.16743119553,-2.58027520022 l4.30045879274,-4.01376159018 1.14678899883,-23.7958719614 l-6.02064200813,-10.894495206 -6.30733921069,-6.5940367904 l-4.58715599531,-2.86697240278 -5.447247603,0.0 l-16.6284400116,6.02064200813 -4.01376159018,0.573394499413 l-12.327981596,0.286697249707 -9.74770639574,-3.15366960535 l-31.536697562,-30.6766048229 -6.5940367904,-13.1880735808 l-6.88073361582,-6.5940367904 -15.1949536216,-5.447247603 l-5.16055040044,-0.860091701978 -4.58715599531,0.0 l-0.573394499413,0.860091701978 m39.2775231627,25.2293568428 l-1.43348620139,-2.00688079509 -2.00688079509,-9.46100881604 l-10.6077983806,-17.4885312421 -4.58715599531,-14.3348623911 l-2.00688079509,-15.1949536216 m5.16055040044,51.6055040044 l-2.29357799765,-0.286697249707 -6.02064200813,-5.447247603 l-2.00688079509,-2.29357799765 -3.44036680791,-8.02752318036 l-15.1949536216,-13.1880735808 -4.58715599531,-8.31422000578 l-4.30045879274,-5.16055040044 -5.447247603,-3.72706401048 l-1.43348620139,-0.286697249707 -0.860091701978,1.72018340396 m18.0619264015,18.6353215609 l-3.44036680791,1.14678899883 -9.17431199062,17.4885312421 l-1.72018340396,6.5940367904 -0.286697249707,15.1949536216 l-1.72018340396,6.30733921069 -3.15366960535,5.73394480557 l-1.43348620139,0.286697249707 -0.286697249707,-1.43348620139 l-0.860091701978,-16.9151375913 -4.87385319787,-0.573394499413 l-2.29357799765,10.0344032212 -6.02064200813,5.16055040044 l-2.86697240278,0.860091701978 -5.447247603,-9.46100881604 l0.286697249707,-8.60091758549 1.14678899883,-3.72706401048 l2.00688079509,-2.86697240278 6.30733921069,-5.447247603 l2.29357799765,-4.58715599531 3.72706401048,-13.4747711605 l5.447247603,-9.74770639574 7.45412802095,-9.74770639574 l3.72706401048,-3.44036680791 6.02064200813,-3.15366960535 l4.30045879274,-1.14678899883 3.15366960535,0.286697249707 l0.0,5.73394480557 m-29.8165120838,26.0894495819 l9.74770639574,6.30733921069 16.3417424319,5.16055040044 " fill="none" stroke="black" stroke-width="1.5" /></svg>