<?xml version="1.0" encoding="utf-8" ?>
<svg baseProfile="full" height="300" version="1.1" width="300" xmlns="http://www.w3.org/2000/svg" xmlns:ev="http://www.w3.org/2001/xml-events" xmlns:xlink="http://www.w3.org/1999/xlink"><defs /><rect fill="none" height="300" width="300" x="0" y="0" /><path d="M61.5918802862,237.206197484 m5.34188020937,0.0 l3.73931635737,1.33547005234 m-9.8824788441,-1.33547005234 l2.40384612935,-3.20512805535 5.34188020937,-13.3547008748 l1.06837607701,-4.80769225871 0.267094019252,-30.4487167015 l2.13675215402,-28.8461535522 10.1495724681,7.21153838806 l5.07478623404,4.80769225871 2.93803408002,0.801282013838 l9.08119656674,2.13675215402 33.9209401376,4.80769225871 l19.4978633615,0.534188038505 9.34829019073,-4.27350430804 l5.07478623404,-4.00641033271 7.47863271474,-3.73931635737 l7.47863271474,-5.07478623404 6.94444406137,-9.61538451741 l2.13675215402,-5.07478623404 1.06837607701,-5.87606816004 l-0.534188038505,-7.21153838806 -2.67094010469,-10.6837604187 l-1.60256402768,-2.40384612935 -1.60256402768,-0.801282013838 l-26.9764960763,-4.00641033271 -12.2863249734,-2.13675215402 l-12.0192306468,-3.20512805535 -34.455128791,-5.34188020937 l-42.2008530216,0.267094019252 -6.14316248672,1.86965817869 l-14.4230767761,2.40384612935 -6.67735043739,3.20512805535 l-2.67094010469,2.67094010469 -2.93803408002,6.94444406137 l0.0,2.93803408002 10.4166667948,13.8888881227 l3.47222203069,3.20512805535 16.2927342521,8.81410224006 l10.9508547454,3.73931635737 16.8269229055,7.74572633873 m8.01282066541,-38.4615380696 l17.8952988068,4.00641033271 12.0192306468,4.27350430804 l8.01282066541,1.86965817869 14.4230767761,1.86965817869 l-8.27991428939,14.6901711028 -10.6837604187,12.2863249734 l-5.60897418471,4.27350430804 1.86965817869,-8.54700861608 l-1.33547005234,1.33547005234 -5.60897418471,-12.5534193001 l-4.80769225871,4.00641033271 -1.06837607701,-2.67094010469 l-2.93803408002,2.93803408002 -1.33547005234,-0.267094019252 l-0.801282013838,-4.27350430804 -5.60897418471,1.86965817869 l-12.2863249734,2.13675215402 0.801282013838,-2.13675215402 l7.47863271474,-9.08119656674 -1.33547005234,0.267094019252 l-1.06837607701,-1.33547005234 2.13675215402,-6.41025611071 l0.801282013838,-6.94444406137 m-4.27350430804,43.0021360017 l-1.06837607701,28.8461535522 -7.74572633873,16.5598285788 l-1.06837607701,18.6965803815 -1.06837607701,5.60897418471 l13.6217952015,1.33547005234 m55.2884581643,-127.13675334 l6.41025611071,-31.5170940083 5.34188020937,-14.1559824494 l0.534188038505,-3.73931635737 13.6217952015,-0.267094019252 l99.626071421,22.4358967388 1.60256402768,0.801282013838 l0.534188038505,1.33547005234 0.0,3.47222203069 l-10.1495724681,26.9764960763 -2.13675215402,0.0 l-14.1559824494,-5.60897418471 -15.2243583508,-4.27350430804 l-9.61538451741,-3.47222203069 -6.14316248672,-3.20512805535 l-9.34829019073,0.0 -9.08119656674,8.27991428939 l-10.6837604187,6.67735043739 " fill="none" stroke="black" stroke-width="1.5" /></svg>