<?xml version="1.0" encoding="utf-8" ?>
<svg baseProfile="full" height="300" version="1.1" width="300" xmlns="http://www.w3.org/2000/svg" xmlns:ev="http://www.w3.org/2001/xml-events" xmlns:xlink="http://www.w3.org/1999/xlink"><defs /><rect fill="none" height="300" width="300" x="0" y="0" /><path d="M166.83938327,130.354049905 m-2.59067358469,2.59067358469 l1.29533679235,14.6804843093 0.0,39.7236640933 l-4.31778940249,30.2245252494 26.3385147304,10.7944737902 m-31.9516430552,-5.18134716939 l0.431778954448,2.15889470124 9.06735768843,5.18134716939 l5.61312605284,5.18134716939 6.90846327118,8.20379992153 l2.59067358469,5.61312605284 m-17.7029370614,-31.0880841523 l-3.02245275214,1.72711581779 -8.20379992153,9.49913657188 m-5.18134716939,-1.72711581779 l5.61312605284,6.04490550428 9.93091602331,20.7253886776 l0.431778954448,3.45423163559 m-41.0189979037,-145.077723015 l-3.45423163559,3.88601051904 -7.77202103808,26.3385147304 l-7.34024215463,40.5872229961 -6.47668438773,28.4974097156 l-3.88601051904,9.93091602331 0.0,2.59067358469 l9.93091602331,13.8169265424 5.61312605284,11.2262521057 m-20.2936114981,-25.4749580995 l6.90846327118,12.9533687755 0.863557908897,37.564769108 m-1.72711581779,-56.9948194313 l-22.0207270319,27.6338530847 -9.49913657188,16.4075998431 m56.5630399798,-163.212432712 l2.15889470124,2.15889470124 12.521589324,3.88601051904 l44.9050084227,8.20379992153 9.93091602331,-37.564769108 l4.74956828594,-11.6580315571 8.63557880498,-14.6804843093 l11.2262521057,-14.6804843093 6.90846327118,-5.61312605284 l7.77202103808,-3.45423163559 4.74956828594,-0.431778954448 l3.02245275214,1.29533679235 3.02245275214,9.49913657188 l0.0,9.93091602331 -4.31778940249,9.93091602331 l-8.20379992153,11.6580315571 -19.8618320466,20.7253886776 l-21.5889475804,26.3385147304 -1.29533679235,8.63557880498 m-60.8808299503,-18.1347153769 l-5.61312605284,1.29533679235 -6.47668438773,17.27115761 m60.0172755913,-7.77202103808 l2.15889470124,30.2245252494 m9.93091602331,-29.7927480699 l-4.74956828594,-1.29533679235 -2.15889470124,-41.4507773551 l-1.72711581779,-2.59067358469 -5.18134716939,-1.72711581779 l-6.04490550428,0.0 -33.2469791375,7.77202103808 l-14.6804843093,-0.431778954448 3.02245275214,3.45423163559 l8.63557880498,21.157168129 4.31778940249,6.90846327118 m107.081176727,-52.6770294608 l-3.88601051904,-10.3626943388 -1.29533679235,1.72711581779 m-24.1796220171,4.74956828594 l7.77202103808,-6.04490550428 0.0,4.74956828594 m-5.18134716939,20.7253886776 l1.72711581779,-6.04490550428 0.0,4.74956828594 m-14.6804843093,-3.02245275214 l1.72711581779,2.15889470124 6.47668438773,22.8842836628 l2.15889470124,3.45423163559 3.02245275214,1.29533679235 " fill="none" stroke="black" stroke-width="1.5" /></svg>