<?xml version="1.0" encoding="utf-8" ?>
<svg baseProfile="full" height="300" version="1.1" width="300" xmlns="http://www.w3.org/2000/svg" xmlns:ev="http://www.w3.org/2001/xml-events" xmlns:xlink="http://www.w3.org/1999/xlink"><defs /><rect fill="none" height="300" width="300" x="0" y="0" /><path d="M208.38557801,64.7074281821 m-9.66562182526,0.522466037643 l-10.188087777,2.08986415057 -39.1849511909,14.8902813426 l-15.6739813011,4.70219425287 -13.0616508552,7.57575733104 l-7.05329137931,2.6123301023 -15.4127479816,8.35945660228 l-4.17972830114,-15.1515146621 -1.8286311747,-3.91849532528 l-1.56739802702,-1.30616505115 -7.57575733104,-3.91849532528 l-8.62068923451,-2.35109712644 -15.6739813011,-1.8286311747 l-4.17972830114,6.7920580598 -3.3960290299,11.2330196805 l-1.30616505115,8.88192255402 0.261233018821,18.8087770115 l1.8286311747,7.57575733104 3.91849532528,7.05329137931 l14.8902813426,-0.261233018821 7.83699065055,-3.13479605404 l6.53082542758,-1.56739802702 0.783699013509,-1.30616505115 l0.522466037643,-18.0250784275 5.48589318047,-11.7554856322 l0.522466037643,-3.3960290299 m-37.8787873425,47.0219425287 l0.783699013509,-4.44096127701 0.522466037643,1.56739802702 l0.522466037643,128.526639246 -1.04493207529,3.91849532528 l-2.87356307817,0.522466037643 -4.96342722874,-5.22466020461 l2.35109712644,-2.6123301023 m18.0250784275,-132.445139039 l0.261233018821,14.8902813426 4.44096127701,35.5276902161 l3.3960290299,16.4576798851 0.522466037643,6.7920580598 l14.8902813426,51.2016701426 0.261233018821,13.3228841747 m113.897595347,-210.815046919 l0.261233018821,-15.4127479816 3.65726234941,-20.6374074989 l2.87356307817,-1.04493207529 2.6123301023,0.261233018821 l3.91849532528,1.30616505115 4.44096127701,2.87356307817 l5.74712615634,6.00835947585 3.3960290299,4.96342722874 l9.92685445748,20.8986408184 0.522466037643,25.6008350713 l-1.04493207529,2.87356307817 -6.7920580598,6.26959210807 l-4.17972830114,0.783699013509 -4.17972830114,-1.56739802702 l-14.8902813426,-2.35109712644 -2.35109712644,-5.22466020461 l-6.00835947585,-20.8986408184 -1.56739802702,-3.65726234941 l-1.30616505115,-0.783699013509 -0.261233018821,-3.91849532528 l-1.30616505115,-1.30616505115 m43.3646815539,1.8286311747 l10.188087777,-2.87356307817 " fill="none" stroke="black" stroke-width="1.5" /></svg>