<?xml version="1.0" encoding="utf-8" ?>
<svg baseProfile="full" height="300" version="1.1" width="300" xmlns="http://www.w3.org/2000/svg" xmlns:ev="http://www.w3.org/2001/xml-events" xmlns:xlink="http://www.w3.org/1999/xlink"><defs /><rect fill="none" height="300" width="300" x="0" y="0" /><path d="M117.438272173,258.641975769 m-1.23456791627,7.09876556931 l0.0,8.33333328258 m6.48148130667,-12.654321091 l16.3580242308,13.58024647 m-8.02469094826,-8.02469094826 l14.1975311386,-1.85185177291 3.3950616175,3.08641968918 l-3.08641968918,-6.48148130667 -2.77777776086,-2.46913583254 l-2.77777776086,-1.85185177291 -5.2469135934,-0.617283958136 l-1.54320984459,-2.16049390423 0.617283958136,-2.16049390423 m-13.58024647,1.54320984459 l10.4938271868,-70.9876524451 4.62962973677,-58.0246938918 m8.02469094826,24.3827151791 l0.617283958136,2.77777776086 1.54320984459,1.23456791627 m-7.71604942595,-24.0740744688 l6.17283937836,4.62962973677 10.4938271868,17.5925919441 l28.7037046116,42.9012357502 3.70370354581,8.33333328258 l-3.08641968918,0.0 -4.62962973677,1.85185177291 l-26.5432098953,11.1111110434 -17.9012342784,8.64197561691 l-0.925925886453,1.54320984459 3.3950616175,8.64197561691 l0.0,8.02469094826 m-3.70370354581,-17.2839512338 l-4.93827166509,18.2098766128 m8.02469094826,-17.5925919441 l13.58024647,7.09876556931 m-11.4197533778,-98.7654300537 l-22.2222220869,-0.617283958136 -12.9629626133,-4.93827166509 l-10.4938271868,-7.71604942595 -5.2469135934,-7.40740709163 l-2.46913583254,-5.86419745004 -6.17283937836,-21.9135797526 l-5.86419745004,-26.8518522297 10.4938271868,19.444444326 l6.17283937836,6.79012323499 3.70370354581,1.54320984459 l4.93827166509,-31.7901247068 3.08641968918,-13.58024647 l12.3456787567,15.1234565176 3.70370354581,1.54320984459 l4.01234547413,0.0 13.2716049477,-20.0617289947 l8.02469094826,-7.40740709163 8.64197561691,-4.62962973677 l10.1851848525,-0.925925886453 2.77777776086,0.308641979068 l4.01234547413,3.3950616175 7.71604942595,11.7283949001 l3.70370354581,11.4197533778 1.85185177291,14.8148141833 l4.93827166509,0.617283958136 23.4567898002,-4.93827166509 l12.3456787567,0.308641979068 2.46913583254,1.23456791627 l1.23456791627,1.54320984459 0.308641979068,3.08641968918 l-4.62962973677,4.62962973677 -13.58024647,3.3950616175 l-27.16049294,4.01234547413 -6.79012323499,2.46913583254 l-7.71604942595,4.62962973677 -8.95061713922,10.8024687091 l-10.1851848525,16.0493818965 -9.87654333017,21.6049374182 " fill="none" stroke="black" stroke-width="1.5" /></svg>