<?xml version="1.0" encoding="utf-8" ?>
<svg baseProfile="full" height="300" version="1.1" width="300" xmlns="http://www.w3.org/2000/svg" xmlns:ev="http://www.w3.org/2001/xml-events" xmlns:xlink="http://www.w3.org/1999/xlink"><defs /><rect fill="none" height="300" width="300" x="0" y="0" /><path d="M161.075950347,162.262661771 m5.14240470997,54.9841777603 l-1.58227847237,30.8544303413 -3.56012649778,20.9651889133 m15.0316450972,-94.9367093828 l-4.74683515692,8.30696165471 -27.6898718355,32.04113848 l19.3829107011,27.2943038435 12.2626577055,24.5253154111 l2.76898739169,8.70253120775 0.0,-1.97784802541 m-14.6360760645,-186.708858178 l-18.5917726357,17.4050624155 0.395569618092,26.5031636967 l16.2183542767,41.1392376798 8.30696165471,14.2405059911 l4.74683515692,3.56012649778 9.88924038725,1.58227847237 l27.6898718355,-19.3829107011 12.6582277789,-42.7215179734 l1.97784802541,-32.8322786268 -0.791139236184,-1.97784802541 l-6.32911388947,-11.0759495668 -8.70253120775,-8.30696165471 l-23.7341773457,-14.2405059911 -13.8449359177,4.35126560388 l-28.4810119823,30.0632901944 -1.97784802541,4.35126560388 m24.1297453377,-60.9177205357 l-7.51582254861,11.4715185994 8.70253120775,13.8449359177 l8.70253120775,5.93354433642 18.1962025623,5.53797478338 l4.74683515692,-0.395569618092 13.8449359177,-13.0537968116 l2.76898739169,-10.6803794933 -10.2848094199,-15.8227842033 l-5.93354433642,-6.72468344252 -7.12025299556,-3.16455694474 l-5.93354433642,0.0 -17.0094933828,14.2405059911 l0.0,1.18670878923 m28.0854419089,9.09810128116 l27.2943038435,14.2405059911 20.5696188399,15.0316450972 m-48.6550607487,-31.6455684066 l56.5664538911,8.70253120775 m-70.0158197354,-26.5031636967 l6.32911388947,6.32911388947 3.95569605083,-1.18670878923 l-3.16455694474,-2.76898739169 -1.97784802541,0.395569618092 l0.395569618092,3.95569605083 2.37341757846,-0.395569618092 l-3.56012649778,-6.32911388947 -0.791139236184,0.395569618092 m-9.09810128116,55.7753137443 l-2.76898739169,4.35126560388 -25.3164555579,21.7563290601 l-45.4905043244,22.1518991335 -28.4810119823,11.0759495668 l-3.95569605083,-22.1518991335 47.4683546914,-20.1740508479 l7.12025299556,2.37341757846 2.37341757846,5.53797478338 l-23.7341773457,5.14240470997 -59.3354402421,-11.4715185994 l-0.395569618092,-4.35126560388 19.3829107011,-23.3386072723 l26.5031636967,-4.35126560388 22.1518991335,1.97784802541 l20.5696188399,10.6803794933 -13.8449359177,6.72468344252 l-25.3164555579,-2.76898739169 -33.6234166922,-20.5696188399 l-0.791139236184,-18.5917726357 22.9430371989,-3.56012649778 l69.2246837515,15.8227842033 18.9873406277,19.7784807745 l4.35126560388,23.3386072723 1.97784802541,0.0 " fill="none" stroke="black" stroke-width="1.5" /></svg>