<?xml version="1.0" encoding="utf-8" ?>
<svg baseProfile="full" height="300" version="1.1" width="300" xmlns="http://www.w3.org/2000/svg" xmlns:ev="http://www.w3.org/2001/xml-events" xmlns:xlink="http://www.w3.org/1999/xlink"><defs /><rect fill="none" height="300" width="300" x="0" y="0" /><path d="M69.9612332975,152.325586164 m-4.65116260809,9.30232521619 l-2.7131784005,7.94573652581 -6.97674416707,31.0077514004 l-0.968992231264,7.17054284277 m9.49612389188,-43.2170557323 l3.48837208354,-0.581395326012 18.6046504324,0.0 l-14.7286820172,5.81395364252 -5.03875944961,1.35658920025 l-6.78294549138,4.26356576658 m45.9302331131,-48.4496118181 l-16.472868059,0.193798452626 -12.0155036167,3.48837208354 l-8.72093020884,3.29457366278 -3.29457366278,3.29457366278 l-3.48837208354,5.23255812531 -2.13178288329,5.03875944961 l-1.74418604177,5.23255812531 -0.387596905252,8.72093020884 l60.8527148257,0.0 15.5038757002,-0.581395326012 l9.68992256757,-0.775193810505 15.8914730516,-2.32558130405 l5.03875944961,-2.13178288329 6.00775180834,-8.91472888454 l3.87596892506,-4.45736444227 4.26356576658,-2.7131784005 l3.87596892506,-1.16279065202 2.32558130405,-3.29457366278 l-2.7131784005,-0.387596905252 -19.5736438108,-7.36434100859 l-11.2403099336,-3.48837208354 -11.046511258,-3.10077524202 l-25.1937992875,-5.03875944961 -5.03875944961,1.74418604177 l-8.13953469163,5.23255812531 -2.90697682126,3.87596892506 l-3.29457366278,8.52713153315 m85.0775207347,-4.26356576658 l3.6821705043,-1.55038762101 5.23255812531,-4.65116260809 l17.6356590934,-20.3488364741 8.13953469163,-5.62015496682 l6.97674416707,-3.87596892506 6.00775180834,-1.35658920025 m-40.5038742726,45.1550384103 l8.91472888454,-3.48837208354 5.81395364252,-3.29457366278 l15.5038757002,-10.852713602 3.29457366278,-1.35658920025 l7.17054284277,-1.35658920025 m-2.7131784005,-26.7441866536 l8.91472888454,-0.968992231264 -3.10077524202,1.35658920025 l1.16279065202,0.968992231264 0.775193810505,8.52713153315 l-2.32558130405,8.52713153315 26.1627906265,3.10077524202 l-8.33333336732,9.30232521619 -2.13178288329,0.581395326012 l-2.13178288329,-0.387596905252 -2.51937972481,-1.55038762101 l-2.32558130405,-2.7131784005 -5.23255812531,-9.88372124327 l-4.84496128379,-3.87596892506 -3.48837208354,1.16279065202 l-2.13178288329,1.74418604177 m-5.426356801,0.581395326012 l0.0,-0.193798452626 m-193.798447273,101.744182371 l23.2558145701,-2.51937972481 29.2635653587,-5.03875944961 l45.5426357617,-6.78294549138 27.7131779926,-2.7131784005 l42.2480623538,-1.93798446253 23.2558145701,-2.13178288329 l17.0542630663,0.387596905252 7.75193785011,0.968992231264 l14.5348833415,0.581395326012 14.9224806929,2.13178288329 l4.45736444227,1.16279065202 0.0,5.426356801 " fill="none" stroke="black" stroke-width="1.5" /></svg>