<?xml version="1.0" encoding="utf-8" ?>
<svg baseProfile="full" height="300" version="1.1" width="300" xmlns="http://www.w3.org/2000/svg" xmlns:ev="http://www.w3.org/2001/xml-events" xmlns:xlink="http://www.w3.org/1999/xlink"><defs /><rect fill="none" height="300" width="300" x="0" y="0" /><path d="M66.7298904792,207.947648779 m0.0,-51.0242793619 m61.646434663,57.283762809 l0.379362680416,-40.5918056193 1.51745072166,-9.48406694801 l0.0,-4.55235191547 m-78.9074325361,-1.13808797887 l-6.82852812272,-3.7936266794 -5.69044026861,-4.74203347401 l-0.948406669849,-2.65553882529 0.0,-3.7936266794 l0.758725360831,-2.27617595773 4.93171453351,-3.7936266794 l15.9332319537,-6.82852812272 19.9165396926,-4.55235191547 l15.3641882761,-1.8968133397 47.9893784176,0.0 l5.31107765058,0.379362680416 12.3292873318,4.17298929743 l21.6236717232,9.48406694801 6.82852812272,4.55235191547 l3.41426406136,3.7936266794 -0.379362680416,9.48406694801 l-4.74203347401,4.55235191547 -4.17298929743,1.13808797887 l-8.72534171194,0.948406669849 -30.7283765523,1.51745072166 l-26.9347493738,-0.189681340208 -40.5918056193,-8.72534171194 l-18.2094076619,-4.93171453351 -8.72534171194,-1.70713203068 l-24.0895299881,-0.379362680416 m113.239754708,-22.1927163988 l-0.758725360831,-1.13808797887 -0.379362680416,-22.1927163988 l3.41426406136,-15.3641882761 5.31107765058,-0.758725360831 l73.7860384402,-0.758725360831 12.8983310094,3.7936266794 l5.69044026861,1.8968133397 9.10470383094,5.69044026861 l7.96661597683,13.846737804 2.27617595773,10.2427921841 l-1.13808797887,27.5037940494 -3.22458275234,5.50075871008 l-3.03490144333,3.41426406136 -8.5356601534,3.98330798842 l-11.7602426562,0.379362680416 -73.2169937646,-19.3474970131 l-13.0880125679,-3.98330798842 -26.7450678153,-10.6221553012 l-12.1396057733,-10.0531106255 -4.74203347401,-5.31107765058 m58.9908968358,-2.27617595773 l-0.189681340208,-0.948406669849 m40.4021240607,-11.3808805372 l0.0,0.0 m-54.6282249818,25.4172989017 l0.948406669849,-0.948406669849 6.82852812272,0.0 l3.98330798842,1.13808797887 10.2427921841,6.06980288665 l26.5553862567,11.3808805372 28.072838725,4.93171453351 l27.3141124909,2.65553882529 18.968133896,-0.758725360831 l5.69044026861,-3.98330798842 1.8968133397,-14.6054630401 l-1.13808797887,-12.1396057733 -4.17298929743,-4.93171453351 l-8.34597859487,-5.50075871008 -12.8983310094,-4.74203347401 m-48.5584230932,7.20789074076 l0.0,-0.379362680416 " fill="none" stroke="black" stroke-width="1.5" /></svg>