<?xml version="1.0" encoding="utf-8" ?>
<svg baseProfile="full" height="300" version="1.1" width="300" xmlns="http://www.w3.org/2000/svg" xmlns:ev="http://www.w3.org/2001/xml-events" xmlns:xlink="http://www.w3.org/1999/xlink"><defs /><rect fill="none" height="300" width="300" x="0" y="0" /><path d="M25.0,129.399440718 m17.225326523,-6.05214128787 l45.3910608838,-5.12104272241 m-30.0279339414,4.88826808105 l-0.698324000643,9.07821254421 1.16387335992,28.1657368105 m15.3631281672,-5.81936695271 l4.88826808105,-2.32774671984 -2.09497207848,-7.68156408362 l-9.07821254421,2.56052136121 0.0,8.84543759664 l16.0614530099,5.81936695271 1.62942279575,-0.465549359279 l0.465549359279,-1.62942279575 m-16.5270016803,-19.0875236539 l0.0,0.0 m5.35381766998,-0.465549359279 l0.0,0.0 m-8.37988831392,0.0 l3.02607064393,0.232774679639 m5.81936695271,-1.86219743712 l6.28491623544,-0.232774679639 0.232774679639,-1.16387335992 m80.5400387725,10.0093111097 l-11.1731840103,-7.91433903119 -25.6052148369,2.56052136121 l-3.72439487423,18.3891988112 24.441340099,17.4581002457 l8.61266326149,-49.3482300932 -19.0875236539,-4.18994415696 m8.61266326149,-4.42271879832 l1.62942279575,6.98324046573 1.62942279575,29.7951589938 m28.631284256,4.18994415696 l-1.16387335992,-3.2588455915 -3.49162023287,0.0 l8.14711336635,24.2085651515 7.68156408362,-10.0093111097 l2.79329600257,-10.2420854448 m25.8379897845,-1.62942279575 l-0.698324000643,-2.09497207848 -27.9329618629,12.3370575233 l5.58659200514,23.0446928633 20.9497207848,-10.0093111097 l-1.62942279575,-4.65549343969 -13.2681560888,-6.28491623544 m9.7765361621,-1.62942279575 l27.4674119678,31.6573561248 m-91.9459965055,-85.6610827197 l6.51769118301,58.4264432498 m99.8603349243,-70.0651759304 l-9.07821254421,-3.72439487423 -17.4581002457,-3.02607064393 l0.931098718558,10.70763534 23.2774678108,18.3891988112 m5.35381766998,-20.4841708897 l-1.16387335992,-3.02607064393 11.871508853,-5.12104272241 l11.1731840103,15.5959031148 -17.9236501409,16.9925515754 l-5.12104272241,1.39664800129 " fill="none" stroke="black" stroke-width="1.5" /></svg>