<?xml version="1.0" encoding="utf-8" ?>
<svg baseProfile="full" height="300" version="1.1" width="300" xmlns="http://www.w3.org/2000/svg" xmlns:ev="http://www.w3.org/2001/xml-events" xmlns:xlink="http://www.w3.org/1999/xlink"><defs /><rect fill="none" height="300" width="300" x="0" y="0" /><path d="M102.152490255,52.2302866798 m-4.66804971043,4.14937759619 l-9.8547715351,11.4107878778 -12.7074685045,17.1161818167 l-7.52074667988,16.5975103848 -6.74273816738,22.0435679254 l-1.81535274098,15.0414933598 -0.259336099762,14.0041491313 l1.81535274098,31.3796687109 2.85269696945,13.4854763348 m111.514520254,-148.599581539 l6.48340245141,3.37136908369 4.66804971043,3.63070548195 l27.7489618643,25.6742734074 9.33609942086,12.1887970726 l7.78008307815,16.0788375882 2.85269696945,7.78008307815 l3.11203302657,12.4481321063 3.63070548195,20.4875509004 l1.03734439905,12.4481321063 -0.518672199524,29.0456438556 l-3.37136908369,10.3734436493 m-96.4730309878,-127.852691511 l-1.29668045617,15.5601661563 0.518672199524,24.6369278143 l0.778008256643,21.2655600952 1.81535274098,20.2282158667 l1.03734439905,33.4543571678 9.59543581912,19.7095430702 l7.00207456564,11.6701242761 13.2261413011,17.8941910115 l30.3423231178,36.0477184213 m-59.3879642443,-85.8402495756 l-10.1141079334,24.6369278143 -3.63070548195,5.7053939389 l-6.48340245141,14.5228219278 -7.26141096391,19.4502066719 l-2.59336091233,10.6327800476 m-50.5705376199,-68.9834000634 l0.518672199524,15.81950119 1.29668045617,9.07676302259 l-0.518672199524,31.3796687109 1.55601651329,23.0809121539 m172.199171948,-72.3547677825 l-2.0746887981,6.22406605314 -4.40871365331,20.2282158667 l-1.81535274098,14.2634855296 0.0,8.03941879412 l1.81535274098,18.6721988417 1.03734439905,5.44605788179 l0.778008256643,0.0 m-61.2033190321,-227.956432075 l-3.63070548195,-10.8921157636 -2.0746887981,-11.1514521618 m-66.1307051408,26.4522826022 l0.0,-24.6369278143 m41.4937745973,169.087135169 l-1.29668045617,5.44605788179 0.518672199524,4.66804971043 l1.29668045617,1.03734439905 2.59336091233,1.29668045617 l2.85269696945,0.259336099762 5.44605788179,-3.89004153907 l1.03734439905,-1.29668045617 -1.81535274098,-0.518672199524 m-7.26141096391,-3.89004153907 l0.0,4.92738576755 m0.0,0.0 l0.259336099762,4.92738576755 m4.66804971043,-6.48340245141 l-0.778008256643,-2.85269696945 -3.63070548195,-4.92738576755 m-5.18672182467,5.18672182467 l-1.03734439905,-1.81535274098 " fill="none" stroke="black" stroke-width="1.5" /></svg>