<?xml version="1.0" encoding="utf-8" ?>
<svg baseProfile="full" height="300" version="1.1" width="300" xmlns="http://www.w3.org/2000/svg" xmlns:ev="http://www.w3.org/2001/xml-events" xmlns:xlink="http://www.w3.org/1999/xlink"><defs /><rect fill="none" height="300" width="300" x="0" y="0" /><path d="M75.9191170077,29.7794038262 m-1.10294113949,114.338237788 l2.57352952698,29.7794118543 1.10294113949,47.7941195104 l-2.20588227898,13.6029416473 0.0,17.6470582318 l-3.30882353937,20.5882362158 m119.485294907,-248.529409073 l-0.367647066647,4.41176455795 2.94117653317,25.7352933353 l0.0,12.5000001451 5.88235306635,43.3823535016 l4.77941156414,49.2647056007 5.51470606016,16.176470207 l3.30882353937,14.3382356597 1.47058826659,13.9705881699 l5.88235306635,21.323529261 4.77941156414,23.5294122654 l0.367647066647,14.3382356597 -1.83823527278,6.25000007254 l0.735294133294,4.77941156414 m-117.647057458,-0.735294133294 l1.47058826659,-5.88235306635 0.367647066647,-51.4705866706 l1.83823527278,-8.45588259333 1.10294113949,-72.0588228865 l1.10294113949,-18.0147057216 2.57352952698,-10.2941181079 m81.9852973736,155.882349971 l1.47058826659,8.8235291159 m0.735294133294,2.20588227898 l-1.83823527278,-10.6617646305 -10.2941181079,-30.514706834 l-13.2352941575,-57.3529426387 -5.51470606016,-19.1176462566 l-4.77941156414,-31.6176473689 -1.83823527278,-28.3088238295 m-48.5294106211,21.6911767508 l6.98529408493,-12.1323526553 12.1323526553,-15.0735296721 m-3.67647054556,7.72058809732 l0.0,2.20588227898 m34.558825353,-4.41176455795 l-9.19117660572,-2.57352952698 -9.19117660572,-5.51470606016 m-13.9705881699,1.83823527278 l-2.57352952698,16.9117651867 0.735294133294,15.0735296721 l4.41176455795,9.92647061811 3.30882353937,2.20588227898 l3.67647054556,0.367647066647 2.57352952698,-0.735294133294 l5.88235306635,-8.8235291159 0.367647066647,-2.20588227898 l0.367647066647,-19.8529412362 -1.83823527278,-7.72058809732 l0.0,-8.08823510351 " fill="none" stroke="black" stroke-width="1.5" /></svg>