<?xml version="1.0" encoding="utf-8" ?>
<svg baseProfile="full" height="300" version="1.1" width="300" xmlns="http://www.w3.org/2000/svg" xmlns:ev="http://www.w3.org/2001/xml-events" xmlns:xlink="http://www.w3.org/1999/xlink"><defs /><rect fill="none" height="300" width="300" x="0" y="0" /><path d="M144.897965326,204.209183902 m-24.8724498148,-33.8010200374 l-9.56632691638,-17.2193879461 -8.29081604564,-33.1632641825 l10.8418369482,7.65306102974 14.0306120277,26.7857140235 l12.7551019959,30.6122441189 1.91326525743,9.56632691638 m0.637755120767,-3.82653051487 l1.91326525743,-79.0816320388 5.10204096614,-17.857143801 l3.82653051487,-8.92857190048 3.82653051487,-3.18877549897 l1.91326525743,10.2040819323 -12.7551019959,105.229595241 m0.0,0.0 l3.82653051487,-3.82653051487 16.5816320913,-35.0765317471 l28.0612240553,-24.2346939599 7.65306102974,-10.2040819323 l-0.637755120767,3.18877549897 -12.7551019959,19.1326538328 l-19.1326538328,22.3214280733 -19.1326538328,18.4948979779 l-7.01530601384,15.9438779143 m-13.3928570118,0.0 l-30.6122441189,-10.2040819323 -21.0459180415,-13.3928570118 l-8.92857190048,-14.6683678825 -1.91326525743,-13.3928570118 l4.46428595024,-0.637755120767 26.7857140235,16.5816320913 l39.5408160194,32.5255116835 m13.3928570118,-6.37755099794 l19.1326538328,-12.7551019959 41.4540835839,-21.0459180415 l9.56632691638,-1.91326525743 3.18877549897,2.55102048307 l1.91326525743,6.37755099794 -2.55102048307,7.01530601384 l-14.6683678825,14.0306120277 -10.8418369482,5.10204096614 l-41.4540835839,6.37755099794 m-44.6428561466,5.10204096614 l35.7142876019,0.0 14.6683678825,5.10204096614 l-54.2091839019,-12.11734698 36.9897959558,9.56632691638 l29.336735765,4.46428595024 -55.4846956116,0.637755120767 l66.9642842199,14.6683678825 -51.0204079835,0.637755120767 l39.5408160194,1.27551024153 12.7551019959,2.55102048307 l-27.4234698784,-1.91326525743 -29.336735765,-7.65306102974 l19.7704080097,-0.637755120767 -22.3214280733,-0.637755120767 l-31.2499999738,-7.01530601384 52.2959196932,5.10204096614 l-19.1326538328,0.637755120767 33.1632641825,0.0 l-42.7295919379,1.27551024153 -5.73979598204,-1.27551024153 l0.0,-3.18877549897 m-87.3724514402,-164.540822626 l-2.55102048307,31.2499999738 0.0,79.0816320388 l4.46428595024,24.2346939599 1.27551024153,38.2653076655 l3.18877549897,-1.27551024153 3.18877549897,-7.65306102974 l12.7551019959,-44.6428561466 2.55102048307,-55.4846956116 l-0.637755120767,-5.10204096614 -8.29081604564,-12.7551019959 l0.0,-23.596939783 -5.73979598204,-19.7704080097 l-13.3928570118,-5.73979598204 1.27551024153,3.18877549897 l14.0306120277,3.82653051487 30.6122441189,0.0 l84.8214280209,5.73979598204 75.2551036213,-1.27551024153 l9.56632691638,-1.91326525743 12.11734698,-5.73979598204 l22.3214280733,-2.55102048307 -0.637755120767,92.4744915674 l-2.55102048307,18.4948979779 -1.27551024153,91.8367357126 " fill="none" stroke="black" stroke-width="1.5" /></svg>