<?xml version="1.0" encoding="utf-8" ?>
<svg baseProfile="full" height="300" version="1.1" width="300" xmlns="http://www.w3.org/2000/svg" xmlns:ev="http://www.w3.org/2001/xml-events" xmlns:xlink="http://www.w3.org/1999/xlink"><defs /><rect fill="none" height="300" width="300" x="0" y="0" /><path d="M25.0,98.1741534466 m0.0,15.7303375673 l2.5280898606,26.4044954134 2.5280898606,10.1123594424 l30.0561791254,57.3033721444 5.61797738589,-3.65168518998 l5.89887621823,-2.24719102826 17.9775282261,-3.93258439183 l-10.1123594424,-10.6741571071 -2.5280898606,-25.280898606 l-4.77528088886,-12.640449303 -1.96629219591,-1.68539317882 l44.6629198853,-11.7977524365 17.1348306205,-1.68539317882 l15.7303375673,-4.49438205652 18.8202243536,-8.98876411303 l-0.280898878532,-1.40449434647 -7.02247191712,-6.74157271526 l-4.49438205652,-5.89887621823 -12.3595501012,-3.08988752529 l-18.8202243536,-1.40449434647 -14.0449438342,0.0 l-42.1348300247,1.96629219591 -10.3932586443,1.40449434647 l-8.98876411303,-1.40449434647 -7.02247191712,-2.5280898606 l-11.7977524365,4.77528088886 m46.0674158945,56.4606745388 l12.9213485049,-3.93258439183 1.40449434647,-1.40449434647 l1.96629219591,-5.33707855355 3.08988752529,-3.93258439183 l0.842696589408,-8.14606724649 -6.17977505058,8.14606724649 l-2.24719102826,5.0561797212 -5.61797738589,5.0561797212 l-4.77528088886,2.24719102826 m92.1348317891,-50.8426964139 l15.1685391636,0.561797757065 5.33707855355,2.24719102826 l7.02247191712,0.280898878532 15.7303375673,-4.21348322417 l13.7640446324,-4.49438205652 0.842696589408,-1.96629219591 l-2.5280898606,-4.77528088886 -3.37078635763,-3.08988752529 l-8.14606724649,-1.96629219591 -16.0112352911,0.0 l-3.65168518998,0.561797757065 -20.7865172885,8.98876411303 l-1.12359551413,1.96629219591 -0.561797757065,4.77528088886 l-4.49438205652,1.96629219591 m96.9101123084,-12.3595501012 l-10.1123594424,1.12359551413 -7.86516878366,3.65168518998 l-2.5280898606,7.02247191712 0.0,8.98876411303 l15.1685391636,16.0112352911 13.7640446324,0.561797757065 l3.65168518998,-3.65168518998 0.0,-14.8876399618 l-5.89887621823,-12.3595501012 -2.80898869295,-1.68539317882 l-15.7303375673,-2.80898869295 -6.17977505058,0.0 m-191.011232598,11.2359547718 l-2.80898869295,2.24719102826 -3.93258439183,5.33707855355 l-1.96629219591,4.49438205652 -0.561797757065,8.98876411303 l11.5168539736,1.40449434647 10.9550563089,-5.0561797212 l0.280898878532,-4.77528088886 -5.33707855355,0.0 m11.7977524365,-5.89887621823 l0.561797757065,3.93258439183 6.17977505058,11.2359547718 l10.9550563089,-20.2247188848 1.40449434647,11.5168539736 m8.98876411303,-5.89887621823 l-0.280898878532,4.49438205652 " fill="none" stroke="black" stroke-width="1.5" /></svg>