<?xml version="1.0" encoding="utf-8" ?>
<svg baseProfile="full" height="300" version="1.1" width="300" xmlns="http://www.w3.org/2000/svg" xmlns:ev="http://www.w3.org/2001/xml-events" xmlns:xlink="http://www.w3.org/1999/xlink"><defs /><rect fill="none" height="300" width="300" x="0" y="0" /><path d="M179.833843112,179.078545111 m-11.329305277,-83.8368592487 l-4.53172181275,-15.861026593 -4.53172181275,0.0 l-32.4773410655,9.81873051149 1.51057402038,49.0936565316 l7.5528698535,43.0513574695 13.595165935,21.1480367821 l5.28700919552,-1.51057402038 18.126887251,-20.3927489025 m-44.5619332286,-93.655585786 l-0.755287010189,-18.126887251 8.3081567395,-21.9033226745 l12.084592163,-19.637461023 3.77643492675,-2.26586090637 l5.28700919552,9.06344362549 0.755287010189,15.105739707 l-5.28700919552,22.6586105541 m-3.77643492675,-33.9879148375 l-0.755287010189,7.5528698535 m-21.1480367821,109.51661536 l-11.329305277,4.53172181275 -21.9033226745,15.861026593 l-5.28700919552,9.06344362549 -6.79758296751,29.4561935216 l8.3081567395,18.126887251 7.5528698535,7.5528698535 l16.616313479,3.77643492675 12.084592163,-1.51057402038 l20.3927489025,-6.79758296751 10.574018391,-18.126887251 l1.51057402038,-19.637461023 -2.26586090637,-9.06344362549 m-0.755287010189,29.4561935216 l12.839879049,6.79758296751 33.232626958,-1.51057402038 l21.9033226745,-9.06344362549 9.06344362549,-15.105739707 l0.755287010189,-12.084592163 -4.53172181275,-16.616313479 l-18.8821751305,-11.329305277 -17.3716013585,-0.755287010189 l-8.3081567395,-3.02114804076 m-6.04229608151,-3.02114804076 l19.637461023,-18.8821751305 3.02114804076,11.329305277 l4.53172181275,-0.755287010189 6.79758296751,8.3081567395 l8.3081567395,-4.53172181275 9.81873051149,-0.755287010189 l4.53172181275,15.861026593 9.06344362549,-2.26586090637 l2.26586090637,3.77643492675 -0.755287010189,84.5921471283 l3.02114804076,24.9244702185 -49.0936565316,0.0 l-15.861026593,-11.329305277 -3.02114804076,-6.79758296751 l-3.02114804076,7.5528698535 -8.3081567395,-37.7643502611 l-6.04229608151,2.26586090637 -3.02114804076,5.28700919552 l-9.81873051149,-0.755287010189 -17.3716013585,26.4350439905 l-18.126887251,-14.350452821 -12.839879049,30.9667672936 l-16.616313479,-12.084592163 -3.77643492675,3.02114804076 l-12.084592163,-15.861026593 -1.51057402038,-23.4138964465 l-12.084592163,14.350452821 -0.755287010189,-47.5830807726 l-3.77643492675,0.755287010189 2.26586090637,-45.3172211081 l29.4561935216,27.19033187 0.0,-88.3685785776 l22.6586105541,21.1480367821 18.126887251,-0.755287010189 l3.77643492675,4.53172181275 m27.19033187,-65.7099700106 l-17.3716013585,0.755287010189 m0.0,0.0 l-6.79758296751,0.755287010189 " fill="none" stroke="black" stroke-width="1.5" /></svg>