<?xml version="1.0" encoding="utf-8" ?>
<svg baseProfile="full" height="300" version="1.1" width="300" xmlns="http://www.w3.org/2000/svg" xmlns:ev="http://www.w3.org/2001/xml-events" xmlns:xlink="http://www.w3.org/1999/xlink"><defs /><rect fill="none" height="300" width="300" x="0" y="0" /><path d="M30.7666215819,167.978294279 m-5.76662158191,16.2822249081 l0.0,8.81953841751 3.39213026355,6.44504754537 l14.2469470177,2.03527811351 12.5508825552,-6.10583456364 l5.08819561844,0.0 12.2116691273,3.39213026355 l7.12347350884,0.0 5.42740860017,-3.73134324529 l3.39213026355,-6.10583456364 2.03527811351,-6.78426052711 l1.01763905676,-12.8900950907 33.921303528,-9.49796527342 l7.12347350884,-2.71370430009 36.6350073818,-19.6743556179 l12.2116691273,-9.15875184546 m-126.865679264,16.2822249081 l2.37449131835,0.339213037511 45.7937592273,-11.5332431638 l59.0230686385,-25.1017651105 m0.339213037511,-5.42740860017 l1.01763905676,2.71370430009 14.2469470177,15.943013265 l7.46268649057,6.10583456364 8.14111245404,1.69606513178 l9.49796527342,-9.15875184546 7.12347350884,-19.6743556179 l0.339213037511,-3.39213026355 -1.35685215004,-3.39213026355 l-2.71370430009,-1.35685215004 -10.5156037724,-3.73134324529 l-11.5332431638,1.01763905676 -7.46268649057,2.03527811351 l-6.10583456364,3.05291728182 -6.78426052711,6.44504754537 m39.3487112357,-9.15875184546 l0.0,8.14111245404 m-44.7761189434,88.873811031 l3.73134324529,22.3880594717 m-13.9077344822,-28.1546823923 l1.35685215004,-6.10583456364 1.35685215004,-1.01763905676 l18.9959305468,1.69606513178 -11.1940297359,12.2116691273 m20.6919941168,2.37449131835 l6.78426052711,-14.5861604456 -3.05291728182,2.71370430009 l21.7096344007,11.5332431638 m9.49796527342,-21.7096344007 l16.621438336,20.0135690458 m7.12347350884,-10.8548172003 l3.05291728182,11.5332431638 m-4.74898263671,-29.5115343192 l0.0,1.01763905676 m39.0094978078,6.78426052711 l-21.0312075448,27.1370421084 " fill="none" stroke="black" stroke-width="1.5" /></svg>