<?xml version="1.0" encoding="utf-8" ?>
<svg baseProfile="full" height="300" version="1.1" width="300" xmlns="http://www.w3.org/2000/svg" xmlns:ev="http://www.w3.org/2001/xml-events" xmlns:xlink="http://www.w3.org/1999/xlink"><defs /><rect fill="none" height="300" width="300" x="0" y="0" /><path d="M101.302729514,136.66253134 m-24.813895077,-5.58312647392 l-15.8188588868,0.0 -1.55086844231,1.55086844231 l-7.13399512024,17.3697275331 -5.58312647392,24.5037210213 l0.0,8.9950370062 4.65260553094,8.37468971088 l10.2357315968,5.89330012158 26.9851118346,8.0645156552 l17.9900740124,-0.310173698663 5.27295282626,-7.44416835988 l9.61538430152,-5.89330012158 1.55086844231,-3.10173688462 l0.310173698663,-7.75434241556 6.20347376924,14.2679902405 l11.1662529478,11.7866002432 5.58312647392,2.17121594164 l0.930521044985,-3.10173688462 4.65260553094,-3.10173688462 l1.24069479465,-1.86104208997 1.24069479465,-9.9255583572 l0.0,-19.230768603 -2.79156323696,-8.68486376656 l0.0,-3.72208417994 -2.79156323696,-6.82382106456 l-8.37468971088,-7.13399512024 -4.9627791786,-10.8560788922 l-6.5136474169,-0.310173698663 -1.55086844231,-3.10173688462 l0.0,-8.9950370062 -1.55086844231,-8.37468971088 l-4.34243188328,-11.1662529478 -2.17121594164,-2.17121594164 l-4.9627791786,-0.930521044985 -1.24069479465,-3.72208417994 l-4.0322578276,-2.79156323696 -8.9950370062,-2.4813895893 l-4.0322578276,6.82382106456 -6.5136474169,5.58312647392 l-3.10173688462,5.27295282626 -1.86104208997,0.620347397325 l-0.930521044985,1.86104208997 0.0,8.0645156552 l6.82382106456,12.0967742988 m-2.79156323696,-20.1612907701 l5.89330012158,-1.86104208997 47.1464009727,-0.620347397325 m-36.6004961362,-18.3002480681 l2.79156323696,13.3374688895 m-14.2679902405,29.7766734395 l-17.9900740124,-2.79156323696 -20.4714631937,-8.68486376656 l-3.10173688462,0.0 4.0322578276,0.620347397325 l3.10173688462,3.10173688462 m60.4838690461,38.4615372061 l-8.0645156552,7.13399512024 -1.55086844231,0.310173698663 l-1.86104208997,2.79156323696 m-3.10173688462,-36.6004961362 l-39.0818853175,6.20347376924 -15.5086848311,4.9627791786 l-16.4392053661,0.0 -7.75434241556,3.10173688462 m69.4789101325,-2.4813895893 l-14.2679902405,4.34243188328 -33.8089328992,24.5037210213 l-6.82382106456,2.4813895893 m67.9280398541,-27.6054583139 l105.769228949,3.10173688462 15.5086848311,1.55086844231 l27.9156323696,0.620347397325 18.3002480681,-0.620347397325 m-135.545905653,-16.7493794218 l0.0,-17.0595534774 8.0645156552,-8.0645156552 l23.2630264306,-7.44416835988 11.4764270035,-11.1662529478 l3.41191053228,-2.17121594164 2.79156323696,-0.310173698663 " fill="none" stroke="black" stroke-width="1.5" /></svg>