<?xml version="1.0" encoding="utf-8" ?>
<svg baseProfile="full" height="300" version="1.1" width="300" xmlns="http://www.w3.org/2000/svg" xmlns:ev="http://www.w3.org/2001/xml-events" xmlns:xlink="http://www.w3.org/1999/xlink"><defs /><rect fill="none" height="300" width="300" x="0" y="0" /><path d="M35.1351354963,109.647151475 m-5.25525540595,31.9069062699 l-2.62762770298,7.50750729954 m7.13213198394,-38.288289104 l-9.38438437132,-18.7687687426 m11.2612614431,18.0180171239 l26.2762750546,-9.75975919312 m-1.50150150929,22.1471470768 l-6.00600603715,6.38138135274 -1.12612607024,3.75375364977 l0.750750754643,2.25225214048 6.38138135274,7.13213198394 l6.00600603715,0.0 4.50450428096,-4.87987959656 l-2.25225214048,-5.63063072155 -6.38138135274,-9.38438437132 l-5.63063072155,-0.750750754643 m17.2672674802,2.25225214048 l3.75375364977,10.1351350025 1.87687682488,1.87687682488 l4.12912896537,2.62762770298 6.00600603715,0.0 l3.00300301857,-7.88288261513 4.87987959656,-7.13213198394 l1.12612607024,-4.87987959656 m61.9369374432,2.62762770298 l-6.00600603715,4.50450428096 -1.12612607024,3.75375364977 l8.63363374012,7.88288261513 3.37837833417,7.13213198394 l0.0,5.63063072155 -3.75375364977,-0.750750754643 l-10.1351350025,-7.88288261513 m17.6426432896,-13.8888891461 l5.63063072155,22.8978967204 2.62762770298,5.63063072155 l6.38138135274,7.88288261513 6.00600603715,0.375375377322 l1.87687682488,-2.25225214048 3.00300301857,-12.0120120743 l1.50150150929,-1.87687682488 1.12612607024,-8.63363374012 m20.6456458144,10.1351350025 l-3.75375364977,-2.62762770298 -3.37837833417,-4.50450428096 l2.25225214048,-6.38138135274 7.50750729954,-3.75375364977 l25.9009012204,-5.63063072155 m0.0,-20.270270005 l0.375375377322,27.0270266734 1.50150150929,13.1381375273 m-1.12612607024,-23.6486483392 l27.0270266734,-5.63063072155 m-24.7747737922,4.50450428096 l9.00900856193,19.5195183862 m-166.291293943,28.5285279358 l11.6366362649,33.7837833417 1.87687682488,0.0 l3.37837833417,-7.50750729954 3.75375364977,-3.37837833417 l2.25225214048,-0.375375377322 6.38138135274,9.75975919312 l5.25525540595,4.12912896537 6.38138135274,1.87687682488 l1.87687682488,-3.75375364977 0.375375377322,-7.88288261513 l11.2612614431,-27.0270266734 m14.2642639679,3.37837833417 l-3.37837833417,27.0270266734 m-3.00300301857,-32.2822820793 l13.8888891461,3.37837833417 4.87987959656,3.00300301857 " fill="none" stroke="black" stroke-width="1.5" /></svg>