<?xml version="1.0" encoding="utf-8" ?>
<svg baseProfile="full" height="300" version="1.1" width="300" xmlns="http://www.w3.org/2000/svg" xmlns:ev="http://www.w3.org/2001/xml-events" xmlns:xlink="http://www.w3.org/1999/xlink"><defs /><rect fill="none" height="300" width="300" x="0" y="0" /><path d="M25.0,124.930843193 m2.76625182328,-23.8589221463 l0.0,-20.746888902 2.07468875374,-0.691562955819 l7.95297404878,3.45781466538 41.1479959281,8.29875501497 l19.7095432743,5.87828506761 m-69.8478588789,5.1867222255 l24.5504840787,5.1867222255 35.6154931913,3.80359608643 m25.9336097629,-2.76625182328 l-1.03734437687,20.4011070261 30.7745505674,4.14937750748 l16.5975100299,0.0 3.45781466538,-3.45781466538 l2.07468875374,-6.22406648866 0.34578147791,-16.9432919059 m37.6901808079,3.11203324433 l-3.45781466538,3.45781466538 -2.42047040222,0.691562955819 l-15.5601662216,11.7565701352 -6.22406648866,7.60719217287 l-0.691562955819,4.49515892854 2.42047040222,5.1867222255 l12.4481329773,9.33609973299 14.1770405374,7.26141075181 l14.1770405374,3.45781466538 1.72890733269,0.0 l2.76625182328,-8.64453689088 6.56984790971,-44.2600291724 m2.07468875374,-19.7095432743 l0.0,76.4177072435 2.76625182328,-22.8215765186 l7.60719217287,-20.0553251502 15.5601662216,-3.45781466538 m-25.5878297065,-8.64453689088 l32.849238184,-0.34578147791 8.99031785707,-2.42047040222 m-190.525595295,55.670816522 l1.03734437687,5.1867222255 -1.03734437687,16.9432919059 l-8.64453689088,15.9059480976 -6.91562933076,17.6348556577 l-13.4854776953,-31.1203324433 3.45781466538,-3.11203324433 l6.56984790971,-3.11203324433 19.7095432743,-6.91562933076 l0.691562955819,9.6818816089 " fill="none" stroke="black" stroke-width="1.5" /></svg>