<?xml version="1.0" encoding="utf-8" ?>
<svg baseProfile="full" height="300" version="1.1" width="300" xmlns="http://www.w3.org/2000/svg" xmlns:ev="http://www.w3.org/2001/xml-events" xmlns:xlink="http://www.w3.org/1999/xlink"><defs /><rect fill="none" height="300" width="300" x="0" y="0" /><path d="M25.0,171.344581198 m18.4049079115,-2.8118608562 l18.4049079115,-4.08997961062 11.2474434248,-3.32310822346 m26.8404898076,-4.08997961062 l4.34560329425,-2.30061348894 23.2617589093,-8.17995922123 l14.0593049535,-3.32310822346 m-47.5460138981,54.9590997146 l6.39059309955,-2.8118608562 10.9918200774,-0.511247451327 l4.34560329425,-1.02249490265 8.17995922123,-3.83435592699 m-29.9079753562,-16.1042944226 l1.53374226992,2.30061348894 3.83435592699,2.30061348894 m0.0,-40.3885467213 l4.34560329425,-1.78936612168 6.39059309955,-0.766871134958 m-72.8527595864,17.8936598717 l9.20245395575,-1.02249490265 5.6237217124,-1.78936612168 m93.302659657,13.2924328938 l9.20245395575,-4.08997961062 m8.69120658849,-17.382413177 l5.87934573229,-3.57873224335 8.4355825686,-1.27811858628 l0.511247451327,2.55623717257 -5.6237217124,12.0143154845 l0.0,2.8118608562 2.55623717257,1.53374226992 l2.55623717257,0.0 18.6605319314,-10.7361960575 m-9.45807797565,-14.8261756682 l1.02249490265,-1.27811858628 3.06748453983,-1.27811858628 l9.45807797565,-1.02249490265 1.02249490265,0.766871134958 l0.511247451327,2.8118608562 0.0,3.32310822346 l-2.30061348894,4.60122697788 0.0,1.02249490265 l1.02249490265,0.511247451327 17.6380371969,-7.92433520134 m-1.02249490265,-7.15746448671 l13.8036809336,-4.08997961062 0.255623725663,2.30061348894 l-1.02249490265,3.32310822346 2.04498980531,0.0 l4.60122697788,-1.53374226992 3.32310822346,-2.55623717257 m2.8118608562,-8.4355825686 l8.4355825686,-0.766871134958 1.27811858628,2.04498980531 l2.8118608562,1.53374226992 5.11247434514,-1.02249490265 l1.53374226992,-1.27811858628 m0.255623725663,-7.15746448671 l7.15746448671,-2.04498980531 1.02249490265,3.32310822346 l2.04498980531,0.766871134958 2.04498980531,-0.511247451327 m-5.11247434514,-6.90184046682 l5.36809802877,-0.511247451327 " fill="none" stroke="black" stroke-width="1.5" /></svg>