<?xml version="1.0" encoding="utf-8" ?>
<svg baseProfile="full" height="300" version="1.1" width="300" xmlns="http://www.w3.org/2000/svg" xmlns:ev="http://www.w3.org/2001/xml-events" xmlns:xlink="http://www.w3.org/1999/xlink"><defs /><rect fill="none" height="300" width="300" x="0" y="0" /><path d="M102.563255838,63.4487359463 m14.9800264198,4.9933422859 l1.99733678299,6.99067884993 -7.98934713195,-8.65512598663 l-6.32489999525,-0.665778964155 -5.32623171324,-1.99733678299 l-5.99201056791,43.6085197984 -41.9440739754,6.65778942259 l-22.3035946971,9.65379470655 76.8974677872,-21.3049268529 l55.5925409342,-12.9826898558 100.199730328,-16.3115841291 l12.6497999905,-5.99201056791 m-183.08921569,44.9400792594 l0.0,7.98934713195 -1.66444735565,9.65379470655 l-2.33022642928,6.32489999525 -7.98934713195,11.9840211358 l-9.98668457179,9.98668457179 -17.9760317037,10.6524634265 l-6.99067884993,2.66311585662 -16.3115841291,-7.65645814251 l-1.66444735565,-1.33155792831 -1.99733678299,-4.9933422859 l0.0,-18.6418114342 7.65645814251,-23.6351524064 m30.6258325701,-0.332889482077 l1.66444735565,-2.66311585662 m-17.3102519733,60.5858854096 l0.332889482077,18.6418114342 -5.99201056791,37.2836228685 m-1.99733678299,-1.99733678299 l-2.99600528396,9.65379470655 m7.32356827727,-7.65645814251 l0.0,2.99600528396 m-1.66444735565,-1.33155792831 l0.332889482077,2.66311585662 " fill="none" stroke="black" stroke-width="1" /></svg>