<?xml version="1.0" encoding="utf-8" ?>
<svg baseProfile="full" height="300" version="1.1" width="300" xmlns="http://www.w3.org/2000/svg" xmlns:ev="http://www.w3.org/2001/xml-events" xmlns:xlink="http://www.w3.org/1999/xlink"><defs /><rect fill="none" height="300" width="300" x="0" y="0" /><path d="M268.967828117,102.077747295 m-10.7238609302,2.0107238142 l-23.4584445725,-20.7774797808 2.0107238142,-12.064343326 l6.70241286095,-3.35120643048 16.0857905136,-3.35120643048 l15.4155501974,14.7453081178 -12.734584524,17.4262729095 l-6.70241286095,4.69168926717 -38.8739947698,-4.69168926717 l-24.7989287317,-19.4369973849 -3.35120643048,-6.03217166302 l2.0107238142,32.8418231068 -3.35120643048,23.4584445725 l-16.0857905136,24.7989287317 m62.332442869,-107.238605775 l0.0,4.0214476284 m-69.7050916379,52.949060808 l20.7774797808,8.71313645473 m-47.5871312246,34.8525458189 l-16.0857905136,-1.34048261627 -2.0107238142,-5.3619304651 l3.35120643048,-2.68096523255 6.70241286095,2.0107238142 l3.35120643048,8.04289525681 -10.0536197323,4.0214476284 l-22.7882042562,2.68096523255 -8.71313645473,-4.0214476284 l0.670241308137,2.68096523255 -6.03217166302,14.0750669198 l-18.7667570687,10.0536197323 m6.03217166302,-42.2252016412 l0.0,0.0 m-36.8632720577,81.0991999377 l-3.35120643048,-8.04289525681 1.34048261627,-12.734584524 l17.4262729095,-19.4369973849 20.7774797808,-1.34048261627 l-6.03217166302,20.7774797808 -18.7667570687,23.4584445725 l-19.4369973849,4.69168926717 -2.68096523255,-2.0107238142 l8.71313645473,-12.734584524 71.7158178767,24.1286866521 l6.03217166302,15.4155501974 -19.4369973849,8.04289525681 l-16.7560325932,0.0 -7.37265405888,-1.34048261627 m-7.37265405888,-119.302949101 l2.0107238142,2.68096523255 m52.2788222551,57.6407518385 l-2.68096523255,2.68096523255 " fill="none" stroke="black" stroke-width="1" /></svg>