<?xml version="1.0" encoding="utf-8" ?>
<svg baseProfile="full" height="300" version="1.1" width="300" xmlns="http://www.w3.org/2000/svg" xmlns:ev="http://www.w3.org/2001/xml-events" xmlns:xlink="http://www.w3.org/1999/xlink"><defs /><rect fill="none" height="300" width="300" x="0" y="0" /><path d="M105.188681219,49.0566057966 m-8.01886805595,0.4716981255 l-29.7169813636,16.9811322078 -34.433963084,26.886791835 l8.01886805595,1.41509429894 44.8113188976,-14.6226413476 l30.6603787005,-13.6792452517 m-13.2075478243,-22.1698125966 l2.83018859788,-19.339623068 37.735848799,0.0 l26.886791835,6.13207524369 4.24528305194,5.18867914782 l0.4716981255,16.0377361119 -3.773585004,3.30188695607 l-24.0566047883,7.54717000801 1.886792502,25.4716983117 l3.30188695607,17.4528308762 15.5660374435,-9.9056602477 l24.9999996432,-10.3773582956 23.1132074515,-4.71698109988 l12.7358491558,1.41509429894 22.1698125966,9.43396219976 l13.2075478243,12.2641504874 2.35849054994,24.5283009748 l-7.54717000801,9.9056602477 -10.3773582956,5.18867914782 l-16.0377361119,1.886792502 -20.2830191638,0.0 l-25.9433969801,-5.66037719576 -14.6226413476,-0.943396251001 m-55.6603783437,-74.5283002612 l-3.773585004,38.6792461359 0.943396251001,11.3207543915 l36.3207552757,19.8113204954 8.01886805595,2.83018859788 l18.8679243995,2.83018859788 m-18.3962269721,-3.30188695607 l-2.83018859788,-0.943396251001 -0.943396251001,3.773585004 l1.41509429894,103.77358792 m80.6603779869,-105.660382594 l13.2075478243,109.905660682 -0.943396251001,15.094340016 l-7.07547196007,-2.35849054994 -42.9245291879,14.6226413476 m-45.7547162345,-23.5849061199 l-34.433963084,10.8490569641 -4.24528305194,-4.71698109988 m-69.3396248364,-169.811322078 l8.96226415182,-4.71698109988 53.7735836699,-17.9245283036 l15.094340016,-8.49056610388 m9.43396219976,-10.8490569641 l-15.094340016,5.18867914782 12.2641504874,-4.71698109988 " fill="none" stroke="black" stroke-width="1" /></svg>