<?xml version="1.0" encoding="utf-8" ?>
<svg baseProfile="full" height="300" version="1.1" width="300" xmlns="http://www.w3.org/2000/svg" xmlns:ev="http://www.w3.org/2001/xml-events" xmlns:xlink="http://www.w3.org/1999/xlink"><defs /><rect fill="none" height="300" width="300" x="0" y="0" /><path d="M118.662951197,38.5793796052 m-2.08913645134,-3.4818941619 l-10.4456829437,8.00835689299 -3.4818941619,4.17827290267 l-1.39275771056,7.66016706458 3.4818941619,5.91922021264 l3.4818941619,1.39275771056 5.57103084225,-0.696378855282 l4.52646227306,-9.05292454612 1.04456822567,-9.40111437454 m3.83008353229,-0.696378855282 l0.348189427641,7.66016706458 3.13370479151,16.7130916107 l3.4818941619,43.5236772528 5.57103084225,0.348189427641 l1.74094708095,-2.08913645134 1.04456822567,-24.7214485037 l-3.4818941619,-26.4623958137 -2.43732605074,-5.91922021264 l-5.57103084225,-6.9637883238 -2.08913645134,-4.87465210148 m7.66016706458,72.7715861974 l-3.4818941619,1.74094708095 -2.78551542113,9.05292454612 l-0.348189427641,12.8830089945 3.13370479151,6.61559895341 l13.9275766476,20.543176059 3.13370479151,1.74094708095 l6.26740958303,1.04456822567 4.17827290267,0.0 l4.87465210148,-2.43732605074 17.7576610959,-13.5793877352 l12.8830089945,-14.9721452168 4.87465210148,-11.4902505969 l0.348189427641,-3.4818941619 -2.08913645134,-6.9637883238 l-9.05292454612,-4.87465210148 -44.9164365664,-0.348189427641 m11.1420616845,56.7548760757 l-2.78551542113,15.6685239576 -9.74930420296,33.7743730498 m32.7298072288,-65.1114246292 l-4.52646227306,28.551532952 -1.74094708095,30.9888580867 l8.35654580535,10.7938718561 m-0.696378855282,-74.1643455111 l-19.8467964022,41.7827317749 -4.17827290267,32.3816174004 l1.39275771056,32.033427572 m47.3537617011,-145.543172395 l-26.1142059852,28.551532952 -21.9359335406,36.2116981845 l-17.0612814391,56.0584964188 m-14.6239553884,48.3983311864 m-3.4818941619,-133.704732886 l0.0,0.0 m64.0668551439,-68.2451257565 l-41.7827317749,40.0417826328 m27.8551532952,-88.0919239908 " fill="none" stroke="black" stroke-width="1" /></svg>