<?xml version="1.0" encoding="utf-8" ?>
<svg baseProfile="full" height="300" version="1.1" width="300" xmlns="http://www.w3.org/2000/svg" xmlns:ev="http://www.w3.org/2001/xml-events" xmlns:xlink="http://www.w3.org/1999/xlink"><defs /><rect fill="none" height="300" width="300" x="0" y="0" /><path d="M124.302028438,112.563450452 m39.0228411069,43.7817265302 l2.85532991852,-13.0076142587 4.75888333665,-13.3248726749 l12.6903550079,-15.8629441773 7.2969544217,-5.39340100358 l13.9593903418,-7.93147208863 m-74.8730963831,54.8857869535 l117.7030485,0.0 11.4213196741,-1.26903554253 l1.58629437599,-0.951776604728 m-96.1294394773,-41.2436558625 l24.7461931836,13.3248726749 28.870558436,21.5736040143 l30.4568513513,27.6015231022 26.3324877683,21.2563447635 m-58.6928946244,-64.7208137123 l-11.7385789249,23.7944154312 -12.3730965918,17.4492387619 l-13.0076142587,14.5939088434 -34.5812182731,26.9670046005 l-23.159898599,14.2766495926 m-96.4466987281,-131.345169574 l9.5177666733,14.9111680942 4.44162450318,5.07614217011 l8.24873050476,6.02791867051 10.4695427563,5.39340100358 l11.7385789249,3.80710641891 10.7868020072,0.0 l4.75888333665,-2.22081225159 3.48984758545,-8.88324900637 l-1.90355320946,-17.4492387619 -7.61421283783,-18.0837555942 l-7.93147208863,-9.20050742249 -10.1522843402,-4.75888333665 l-11.7385789249,0.0 -23.7944154312,5.71065983704 " fill="none" stroke="black" stroke-width="1" /></svg>