<?xml version="1.0" encoding="utf-8" ?>
<svg baseProfile="full" height="300" version="1.1" width="300" xmlns="http://www.w3.org/2000/svg" xmlns:ev="http://www.w3.org/2001/xml-events" xmlns:xlink="http://www.w3.org/1999/xlink"><defs /><rect fill="none" height="300" width="300" x="0" y="0" /><path d="M31.0296844092,101.066791332 m-6.02968440924,24.5825600778 l2.78293128927,0.0 15.3061222435,-7.42115051148 l33.3951766915,-12.9870137002 38.9610386599,-9.74025966498 m-81.6326519655,2.78293128927 l19.48051933,-10.6679039365 89.5176236975,-35.2504640143 l6.95732868078,-5.56586257854 12.5231912593,-1.85528762787 l16.2337659049,0.0 4.63821891714,1.85528762787 l1.39146564464,11.1317251571 -7.42115051148,41.7439708644 l28.7569571642,25.9740274003 25.5102049595,6.02968440924 m-0.927643813935,0.0 l19.48051933,11.5955475979 15.7699446844,12.5231912593 l9.27643783428,10.6679039365 m-159.090911726,-71.4285729103 l27.3654922823,24.118737637 30.612244487,32.0037118096 l36.6419288963,31.5398893687 6.02968440924,3.71057525574 l6.02968440924,8.34879417288 13.4508349207,1.85528762787 l18.5528756686,-0.463821906968 2.78293128927,-1.39146564464 l6.02968440924,-6.49350685008 3.71057525574,-7.88497234218 l7.42115051148,-32.0037118096 m-45.9183679509,42.2077933052 l-3.24675342504,29.6846020459 m-18.5528756686,-2.31910945857 l34.7866415735,-6.49350685008 m3.71057525574,-17.6252320072 l3.24675342504,61.2244889741 m-11.5955475979,-12.9870137002 l17.1614107866,-2.78293128927 m-92.3005583425,-155.84415464 l0.0,0.0 m-9.74025966498,-24.5825600778 l2.31910945857,-0.927643813935 0.927643813935,-2.78293128927 l-6.02968440924,3.71057525574 m-103.896109601,44.5269006283 l19.48051933,-4.63821891714 38.9610386599,-4.17439708644 " fill="none" stroke="black" stroke-width="1" /></svg>