<?xml version="1.0" encoding="utf-8" ?>
<svg baseProfile="full" height="300" version="1.1" width="300" xmlns="http://www.w3.org/2000/svg" xmlns:ev="http://www.w3.org/2001/xml-events" xmlns:xlink="http://www.w3.org/1999/xlink"><defs /><rect fill="none" height="300" width="300" x="0" y="0" /><path d="M160.597304666,51.0115569407 m-1.92678230657,35.6454731467 l-5.78034660288,6.7437382314 -8.18882472371,2.408477804 l-13.4874764628,7.70712922627 -16.3776494474,6.7437382314 l-21.1946044218,2.408477804 -33.7186886224,9.63391121601 l-4.33526011057,16.3776494474 0.481695576642,3.85356461314 l13.0057803317,13.0057803317 23.1213864115,9.63391121601 l33.7186886224,5.29865110544 50.0963368025,0.0 l4.81695560801,-4.81695560801 9.63391121601,-26.0115606634 l3.3718691157,-36.6088628743 0.481695576642,-50.0963368025 l50.0963368025,-0.481695576642 -12.5240842006,-8.18882472371 l-10.5973022109,-2.89017330144 -28.9017349153,-1.92678230657 l-9.63391121601,-14.4508674577 -6.7437382314,7.22543372883 l-10.1156067134,19.267822432 -5.78034660288,-0.963391153284 m-5.78034660288,128.612714924 l0.0,17.3410404423 18.7861275682,9.15221571858 l23.1213864115,15.4142584525 -20.2312134269,1.92678230657 l-75.144510273,1.44508665072 38.053948733,-5.29865110544 l28.9017349153,-26.9749529256 11.078998342,-1.44508665072 l-3.85356461314,-0.481695576642 m-34.6820808846,-22.1579966839 l0.0,106.93641944 " fill="none" stroke="black" stroke-width="1" /></svg>