<?xml version="1.0" encoding="utf-8" ?>
<svg baseProfile="full" height="300" version="1.1" width="300" xmlns="http://www.w3.org/2000/svg" xmlns:ev="http://www.w3.org/2001/xml-events" xmlns:xlink="http://www.w3.org/1999/xlink"><defs /><rect fill="none" height="300" width="300" x="0" y="0" /><path d="M25.0,150.488757766 m6.84262013425,0.977517139074 l5.86510251297,1.95503427815 2.93255125649,0.0 l26.1485827067,8.55327452487 13.6852402685,2.44379276732 l13.4408607024,4.88758553463 39.3450638431,10.5083091245 l55.4740946286,16.3734116375 86.2658839469,18.5728251602 m-244.379278017,-59.384162542 l0.977517139074,-1.22189638366 5.62072358986,-1.71065503356 l13.4408607024,0.0 23.2160304858,1.46627562824 l35.9237550619,0.244379284768 15.3958946591,0.977517139074 l55.4740946286,0.244379284768 8.30889560176,-0.733137814121 l29.3255144937,-0.244379284768 30.5474097522,-2.19941352273 l18.084067314,0.0 m-136.608012832,-61.8279582025 l-7.57575754653,5.62072358986 -2.93255125649,4.88758553463 l-0.488758569537,2.44379276732 1.22189638366,0.488758569537 l10.2639295584,-4.88758553463 m-6.10948207903,2.93255125649 l0.0,2.44379276732 3.66568931171,0.977517139074 l3.66568931171,-2.44379276732 4.88758553463,-1.46627562824 m-6.59824056819,-11.7302050259 l0.977517139074,-2.44379276732 4.88758553463,-1.71065503356 l6.35386100214,-0.244379284768 2.44379276732,1.22189638366 l3.17693050107,3.66568931171 1.46627562824,8.0645160357 l0.0,27.6148575313 m-12.2189641581,-24.9266874482 l0.244379284768,22.4828943594 -1.22189638366,0.488758569537 l-3.66568931171,-0.977517139074 -6.10948207903,0.244379284768 l-2.19941352273,1.95503427815 -2.19941352273,3.91006855629 l0.488758569537,8.30889560176 4.88758553463,4.15444780088 " fill="none" stroke="black" stroke-width="1" /></svg>