<?xml version="1.0" encoding="utf-8" ?>
<svg baseProfile="full" height="300" version="1.1" width="300" xmlns="http://www.w3.org/2000/svg" xmlns:ev="http://www.w3.org/2001/xml-events" xmlns:xlink="http://www.w3.org/1999/xlink"><defs /><rect fill="none" height="300" width="300" x="0" y="0" /><path d="M153.075250399,166.099851433 m0.361794514499,36.5412461428 l7.59768450702,49.5658484268 2.17076696801,22.793053997 m-11.215629533,-103.835023341 l-23.8784368861,4.34153393602 -19.8986983569,9.76845171299 l-3.256150571,6.15050668699 2.17076696801,11.577424464 l13.748191194,12.301013374 3.256150571,1.808972513 l39.4356017829,15.557163945 7.95947896202,4.34153393602 l0.0,-1.808972513 m-13.3863972149,-69.4645429763 l-3.256150571,1.44717805799 -3.256150571,-11.215629533 l-9.04486280297,-16.280752855 -21.3458761769,0.0 l-21.3458761769,26.4109994989 3.617945026,14.471780104 l1.808972513,0.0 6.51230114199,-5.06512332196 l-2.53256166098,11.215629533 12.6628073531,24.240231817 l26.4109994989,-17.3661357441 0.0,-2.17076696801 l-1.44717805799,0.723589028997 24.6020267479,1.808972513 l12.301013374,-23.8784368861 -0.361794514499,-2.17076696801 l6.874095597,17.727930675 1.808972513,2.17076696801 l12.6628073531,-2.53256166098 8.32127389296,-22.0694641351 l0.361794514499,-11.577424464 m5.42691777697,-1.08538348401 l-51.736614205,-34.7322714882 -52.0984091359,-7.95947896202 l-7.59768450702,2.17076696801 -25.687409637,34.3704765572 l0.0,6.51230114199 23.1548489279,22.793053997 l10.8538355539,3.617945026 66.5701911437,8.68306787204 l52.8219989978,-16.280752855 4.34153393602,-5.42691777697 l-7.23589005201,-29.305355139 -4.70332839103,-5.42691777697 l-60.0578900017,-23.1548489279 -23.5166438588,3.97973948101 m-27.496382388,0.723589028997 l0.0,-10.492040623 -1.808972513,-30.752532959 l-4.34153393602,-22.0694641351 -2.17076696801,-6.15050668699 l-4.70332839103,-1.808972513 -10.8538355539,-0.361794514499 l-9.04486280297,5.42691777697 -5.06512332196,29.6671500699 l4.70332839103,21.3458761769 9.76845171299,17.3661357441 l14.833575035,3.97973948101 5.06512332196,-6.15050668699 l3.97973948101,-16.6425477859 m-13.024602284,-64.0376266271 l-11.939218443,-5.42691777697 -2.89435611599,0.0 l-18.0897256059,14.471780104 14.833575035,27.8581773189 l14.833575035,-3.256150571 0.361794514499,-9.40665678206 m-17.3661357441,0.723589028997 l-2.89435611599,0.0 -13.748191194,3.97973948101 l-2.53256166098,1.808972513 -3.97973948101,12.6628073531 l0.723589028997,2.53256166098 12.6628073531,1.44717805799 m71.9971074929,17.3661357441 l0.723589028997,-2.17076696801 24.240231817,-10.492040623 l-1.08538348401,13.3863972149 11.939218443,3.97973948101 l5.78871223198,13.748191194 " fill="none" stroke="black" stroke-width="1" /></svg>