<?xml version="1.0" encoding="utf-8" ?>
<svg baseProfile="full" height="300" version="1.1" width="300" xmlns="http://www.w3.org/2000/svg" xmlns:ev="http://www.w3.org/2001/xml-events" xmlns:xlink="http://www.w3.org/1999/xlink"><defs /><rect fill="none" height="300" width="300" x="0" y="0" /><path d="M141.176470287,125.420167595 m-2.1008403222,142.857143015 l-5.88235323379,0.840336156516 -15.5462191028,5.88235323379 l7.56302527046,-2.52100833137 26.0504198847,-4.62184865357 m-25.6302513229,-149.1596626 l-4.2016806444,13.8655459607 -10.0840333255,21.8487386876 l-23.9495792862,65.1260519227 19.327731738,-8.4033612888 l20.5882352128,-5.88235323379 12.184873924,-8.82352929797 m-60.9243707256,-90.3361346837 l24.78991641,13.8655459607 20.5882352128,4.2016806444 l47.8991585724,-2.1008403222 30.6722696437,-7.56302527046 l11.7647064676,-7.1428572613 4.62184865357,-8.82352929797 l1.26050416568,-5.88235323379 1.26050416568,-37.8151263523 l-5.88235323379,7.1428572613 -10.5042018874,4.62184865357 l3.78151263523,-26.4705884466 -13.0252099424,16.3865551211 l-6.30252124296,5.88235323379 -1.68067231303,-19.7479002999 l-17.2268911395,21.0084037747 -15.1260505409,-1.26050416568 l-4.2016806444,-1.26050416568 -5.04201666274,-3.78151263523 l-10.0840333255,-18.0672271578 -4.62184865357,-14.2857145226 " fill="none" stroke="black" stroke-width="1" /></svg>