<?xml version="1.0" encoding="utf-8" ?>
<svg baseProfile="full" height="300" version="1.1" width="300" xmlns="http://www.w3.org/2000/svg" xmlns:ev="http://www.w3.org/2001/xml-events" xmlns:xlink="http://www.w3.org/1999/xlink"><defs /><rect fill="none" height="300" width="300" x="0" y="0" /><path d="M102.886254199,275.0 m-1.69779292567,-14.8556873319 l0.424448231418,-49.6604421686 5.94227537944,-48.3870960087 l5.94227537944,-26.7402380908 m20.7979627114,4.66893033622 l2.97113768972,21.2224114313 9.33786067244,29.7113746638 l-27.5891355307,2.1222410873 -69.6095096734,-4.66893033622 l-4.2444821746,1.27334462446 m128.607810281,-119.694396095 l-42.4448228627,-2.1222410873 -25.0424454443,8.48896434919 l-19.1001700649,22.0713066379 5.09337849785,35.2292035567 l5.51782665947,5.51782665947 16.9779286984,5.94227537944 l40.7470279828,2.97113768972 6.36672354107,-7.64006802594 l3.39558585135,-11.8845507589 0.0,-11.0356533189 l-6.79117170269,-43.2937203026 0.848896462837,-11.0356533189 m3.82003401297,19.9490675048 l40.7470279828,-2.97113768972 2.97113768972,-3.82003401297 m-31.4091695437,-6.36672354107 l-2.97113768972,-8.06451618757 -1.69779292567,-24.6179967243 l2.97113768972,-6.36672354107 12.3089983622,-5.94227537944 l2.54668924892,1.69779292567 5.09337849785,8.06451618757 l6.79117170269,14.8556873319 5.94227537944,17.4023774184 l0.0,4.66893033622 m-6.36672354107,-22.4957553579 l26.7402380908,10.6112057157 4.2444821746,4.2444821746 l-58.5738563545,-8.91341251082 82.3429534055,22.0713066379 l-7.64006802594,-5.94227537944 -3.82003401297,-0.848896462837 l-2.97113768972,3.39558585135 m-21.2224114313,-20.7979627114 l12.7334470821,6.36672354107 22.0713066379,5.94227537944 l-7.21561986432,-2.54668924892 -69.6095096734,-5.09337849785 l19.5246187848,2.97113768972 54.3293736215,0.0 l-28.4380307373,-3.82003401297 -21.2224114313,-1.27334462446 " fill="none" stroke="black" stroke-width="1" /></svg>