<?xml version="1.0" encoding="utf-8" ?>
<svg baseProfile="full" height="300" version="1.1" width="300" xmlns="http://www.w3.org/2000/svg" xmlns:ev="http://www.w3.org/2001/xml-events" xmlns:xlink="http://www.w3.org/1999/xlink"><defs /><rect fill="none" height="300" width="300" x="0" y="0" /><path d="M154.084966508,173.692809528 m-9.25925966394,3.26797385153 l-51.1982614255,28.3224398077 -0.544662338441,3.26797385153 l13.0718954061,18.5185193279 20.152506791,19.0631808603 l20.6971683234,28.8671027731 m-3.81263645865,-114.923748127 l14.7058828692,108.387804006 m9.80392191282,-181.372549655 l-71.3507624847,-5.99128545417 -12.5272338737,22.8758173189 l-1.63398692576,14.1612199039 11.9825709083,10.3485841617 l14.7058828692,7.6252729173 15.795207367,3.26797385153 l8.71459741506,-0.544662338441 16.8845318648,-8.16993516618 l5.99128545417,-5.99128545417 14.7058828692,-33.7690637295 m-0.544662338441,-0.544662338441 l-1.08932467688,-16.3398703324 3.26797385153,-28.8671027731 l35.4030526256,-20.152506791 6.53594770305,7.08060995193 l4.90196095641,17.4291948301 -2.72331160265,2.17864935376 l-5.44662320529,0.0 -5.44662320529,-4.35729870753 l-11.4379086595,-3.26797385153 -5.99128545417,1.08932467688 l-2.17864935376,2.72331160265 -7.08060995193,14.7058828692 l-3.26797385153,14.7058828692 -38.1263617206,103.485837318 l-11.9825709083,-3.81263645865 -21.7864928212,-19.0631808603 l-23.4204802843,-36.4923756904 " fill="none" stroke="black" stroke-width="1" /></svg>