<?xml version="1.0" encoding="utf-8" ?>
<svg baseProfile="full" height="300" version="1.1" width="300" xmlns="http://www.w3.org/2000/svg" xmlns:ev="http://www.w3.org/2001/xml-events" xmlns:xlink="http://www.w3.org/1999/xlink"><defs /><rect fill="none" height="300" width="300" x="0" y="0" /><path d="M144.11764456,188.72548579 m-12.7450979317,42.1568645721 l1.9607844212,36.2745122758 m-7.84313768479,5.88235294118 l13.7254912708,0.0 -19.6078435671,1.9607844212 m0.0,-224.509806393 l2.94117647059,14.7058833202 -4.90196089179,29.4117666404 m-24.5098051038,-39.2156871343 l-1.9607844212,31.3725507392 -3.9215688424,4.90196089179 m31.3725507392,-48.0392168685 l-3.9215688424,-10.784313833 -5.88235294118,-4.90196089179 l-26.4705892025,-2.94117647059 0.980392210599,11.7647058824 l14.7058833202,10.784313833 m-13.7254912708,46.078435349 l3.9215688424,33.3333348379 -2.94117647059,32.3529414989 l8.82352973418,11.7647058824 21.5686276659,10.784313833 l50.0000035466,1.9607844212 28.4313733013,-6.8627456354 l14.7058833202,-15.6862753696 8.82352973418,-22.549021005 l-1.9607844212,-22.549021005 -9.80392178357,-6.8627456354 l-44.1176486709,2.94117647059 -47.0588235294,-20.5882356165 " fill="none" stroke="black" stroke-width="1" /></svg>