<?xml version="1.0" encoding="utf-8" ?>
<svg baseProfile="full" height="300" version="1.1" width="300" xmlns="http://www.w3.org/2000/svg" xmlns:ev="http://www.w3.org/2001/xml-events" xmlns:xlink="http://www.w3.org/1999/xlink"><defs /><rect fill="none" height="300" width="300" x="0" y="0" /><path d="M44.2857144763,59.6428559344 m-5.00000019732,6.42857141381 l3.57142851102,3.57142851102 3.57142851102,0.714285725695 l2.85714290278,-3.57142851102 -2.85714290278,-6.42857141381 m-0.714285725695,-7.85714263029 l-14.2857140441,5.71428580556 -5.71428580556,7.14285702205 l-0.714285725695,10.7142860029 4.28571411927,7.14285702205 l14.2857140441,2.14285705963 14.2857140441,-5.00000019732 l10.7142860029,-7.14285702205 12.1428572194,1.42857145139 l30.7142858525,37.857141935 m-64.2857141381,-61.4285717051 l37.857141935,6.42857141381 17.8571430249,19.2857142414 l16.4285718084,12.8571428276 5.00000019732,7.14285702205 l7.85714263029,4.28571411927 82.1428552838,15.7142852606 l10.7142860029,9.28571384678 5.71428580556,0.0 l16.4285718084,-7.85714263029 10.7142860029,-7.85714263029 l5.00000019732,-9.28571384678 -10.0000003946,27.8571434196 l-14.9999996523,10.0000003946 13.5714284359,-5.71428580556 l20.0000007893,-12.8571428276 -36.4285725977,32.8571436169 l40.0000015786,-20.7142854579 -20.0000007893,16.4285718084 l-3.57142851102,0.714285725695 -40.714284368,-5.00000019732 m-2.14285705963,2.14285705963 m-17.1428564771,47.8571423296 l0.0,0.0 m17.8571430249,-51.4285713104 l-8.57142823854,105.714288812 m5.71428580556,-105.714288812 l-32.142857069,74.9999973221 -6.42857141381,23.5714278909 m-59.28571582,-130.000001372 l91.428572889,34.2857129541 " fill="none" stroke="black" stroke-width="1" /></svg>