<?xml version="1.0" encoding="utf-8" ?>
<svg baseProfile="full" height="300" version="1.1" width="300" xmlns="http://www.w3.org/2000/svg" xmlns:ev="http://www.w3.org/2001/xml-events" xmlns:xlink="http://www.w3.org/1999/xlink"><defs /><rect fill="none" height="300" width="300" x="0" y="0" /><path d="M153.94144378,275.0 m-12.3873871989,-86.7117133549 l-5.63063061228,-11.2612612246 m88.9639623408,9.00900927592 l12.3873871989,41.6666684567 5.63063061228,32.6576576994 l-1.12612615949,6.7567565866 m-139.639638592,-88.9639623408 l57.4324350599,7.8828833016 34.909909648,-5.63063061228 l64.189187943,2.25225231898 11.2612612246,12.3873871989 l2.25225231898,-14.6396391475 -11.2612612246,-24.7747743978 l-33.7837851551,-28.1531538021 -67.5675703101,13.5135131732 l-36.0360371037,0.0 -39.4144135453,-7.8828833016 l-6.7567565866,7.8828833016 4.50450463796,45.0450448982 m6.7567565866,-47.2972968469 l-4.50450463796,-57.4324350599 m-4.50450463796,-13.5135131732 l-28.1531538021,6.7567565866 -10.1351352502,-21.3963964748 l2.25225231898,-6.7567565866 29.279278295,-21.3963964748 l18.0180185518,6.7567565866 9.00900927592,19.1441445262 l1.12612615949,9.00900927592 -9.00900927592,9.00900927592 m-47.2972968469,-1.12612615949 l-16.8918925775,34.909909648 30.4054057507,-24.7747743978 m19.1441445262,102.477479958 l38.2882890523,-6.7567565866 19.1441445262,2.25225231898 l11.2612612246,9.00900927592 12.3873871989,-14.6396391475 l-10.1351352502,11.2612612246 m12.3873871989,11.2612612246 l23.6486484234,-29.279278295 -39.4144135453,36.0360371037 " fill="none" stroke="black" stroke-width="1" /></svg>