<?xml version="1.0" encoding="utf-8" ?>
<svg baseProfile="full" height="300" version="1.1" width="300" xmlns="http://www.w3.org/2000/svg" xmlns:ev="http://www.w3.org/2001/xml-events" xmlns:xlink="http://www.w3.org/1999/xlink"><defs /><rect fill="none" height="300" width="300" x="0" y="0" /><path d="M107.022478561,39.6067415851 m-11.7977522076,41.0112353777 l0.0,33.1460667467 3.37078629224,2.80898863845 l8.98876393866,3.37078629224 44.3820198224,6.17977493069 l3.37078629224,-2.24719098466 5.61797727691,-13.483145169 l6.74157258448,-29.2134809531 1.68539314612,7.30337023827 l-8.42696628487,54.4943790687 -10.6741569,34.2696605762 l-5.05617962312,22.4719091076 -11.7977522076,67.9775286718 m34.831458969,-144.943819804 l-34.2696605762,-0.561797746166 -3.93258431554,-2.80898863845 l-30.8988761315,0.0 -32.5842683539,-3.93258431554 l-33.1460667467,-0.561797746166 14.0449435618,0.0 l19.1011231849,-7.30337023827 10.1123592462,-1.68539314612 l25.2808981156,-11.2359545538 78.6516803986,-44.9438182152 l37.0786495842,-24.7190997228 -20.7865168853,33.7078651395 l-15.7303372622,50.5617962312 -8.98876393866,11.7977522076 l-10.1123592462,20.7865168853 m4.49438196933,-26.9662903379 l6.74157258448,2.24719098466 83.7078600218,0.0 l9.55056159245,-1.12359549233 -2.80898863845,-0.561797746166 m-96.0674128392,1.68539314612 l8.98876393866,0.0 10.6741569,-3.37078629224 m-56.1797742471,146.06741659 l-17.4157294845,1.68539314612 -23.5955044152,5.61797727691 m35.3932573618,-4.49438196933 l10.1123592462,3.37078629224 12.9213482542,8.98876393866 " fill="none" stroke="black" stroke-width="1" /></svg>