<?xml version="1.0" encoding="utf-8" ?>
<svg baseProfile="full" height="300" version="1.1" width="300" xmlns="http://www.w3.org/2000/svg" xmlns:ev="http://www.w3.org/2001/xml-events" xmlns:xlink="http://www.w3.org/1999/xlink"><defs /><rect fill="none" height="300" width="300" x="0" y="0" /><path d="M99.7126459505,111.781611021 m75.2873535959,-6.89655146866 l39.6551734018,1.14942530778 15.5172413715,3.44827573433 l19.5402300432,13.2183911339 25.2873556371,40.2298836932 m-176.436782192,-57.4712650109 l2.29885061555,-35.6321832181 4.59770123111,-17.816091609 l-15.5172413715,-17.2413798057 -9.77011502161,-2.29885061555 l-11.4942526998,3.44827573433 m-12.6436778185,32.7586196651 l0.0,0.0 m14.3678162527,-34.4827596113 l0.0,0.0 m0.574712653889,0.574712653889 l-21.2643684774,14.3678162527 -24.1379305183,20.689655162 l-0.574712653889,2.87356317494 39.6551734018,-1.72413786716 l-1.14942530778,5.74712634988 2.29885061555,17.2413798057 l-2.29885061555,41.379310324 54.5976984339,-1.72413786716 m0.0,0.0 l1.14942530778,29.8850561122 -9.77011502161,71.2643664362 l1.72413786716,-0.574712653889 m44.8275871923,-90.8045949673 l-60.3448255398,51.724137905 -17.2413798057,25.2873556371 l-42.5287369548,47.1264374299 16.0919546869,-7.47126402805 l6.89655146866,-1.14942530778 " fill="none" stroke="black" stroke-width="1" /></svg>