<?xml version="1.0" encoding="utf-8" ?>
<svg baseProfile="full" height="300" version="1.1" width="300" xmlns="http://www.w3.org/2000/svg" xmlns:ev="http://www.w3.org/2001/xml-events" xmlns:xlink="http://www.w3.org/1999/xlink"><defs /><rect fill="none" height="300" width="300" x="0" y="0" /><path d="M97.2426439546,133.455883471 m10.2941180581,55.1470574331 l19.8529411402,86.3970590956 m20.9558816698,-136.764710791 l14.3382355903,118.382351865 m-42.2794108277,-209.926468055 l-29.4117642223,18.0147056345 0.0,33.0882352337 l37.1323537331,18.7500006106 23.1617646636,3.67647052778 l6.25000004232,-4.41176453661 5.14705902907,-24.6323526812 l-1.83823526389,-9.19117656127 -17.6470581465,-32.3529402576 l-2.20588226831,-2.57352951453 -30.5147066864,-13.9705881023 l-3.67647052778,1.10294113415 4.77941154103,16.9117651049 l1.47058825948,0.735294129738 m59.1911759326,-21.3235291579 l-8.45588255244,5.14705902907 -3.67647052778,4.41176453661 l-6.25000004232,15.0735295992 5.8823530379,6.98529405115 l11.029412067,2.57352951453 12.8676466054,-12.8676466054 l3.30882352337,-13.9705881023 -4.0441175322,-12.8676466054 l-9.9264705701,1.47058825948 -23.1617646636,13.6029415815 m-55.1470574331,94.4852960945 l0.367647064869,-31.249999728 2.20588226831,-13.9705881023 m50.7352953146,52.5735288858 l-2.57352951453,-2.94117651895 -5.51470603349,-18.3823531225 l-6.25000004232,-10.2941180581 m28.3088236926,-20.2205886282 l8.45588255244,-8.45588255244 28.6764711807,-13.9705881023 l4.41176453661,0.0 5.51470603349,8.82352907323 l-0.735294129738,2.20588226831 m-44.4852957559,19.4852936522 l3.67647052778,-2.57352951453 16.1764701288,-5.8823530379 l15.808823608,7.35294105556 6.61764704673,5.14705902907 m-36.029411269,-61.3970569918 l0.735294129738,0.0 m8.82352907323,-0.367647064869 l0.0,0.0 " fill="none" stroke="black" stroke-width="1" /></svg>