<?xml version="1.0" encoding="utf-8" ?>
<svg baseProfile="full" height="300" version="1.1" width="300" xmlns="http://www.w3.org/2000/svg" xmlns:ev="http://www.w3.org/2001/xml-events" xmlns:xlink="http://www.w3.org/1999/xlink"><defs /><rect fill="none" height="300" width="300" x="0" y="0" /><path d="M144.46651221,64.443815178 m-0.567536907694,-13.3371177507 l-1.41884222257,-3.40522125952 -2.55391603796,0.0 l-35.471055751,7.37797933341 -47.9568671603,13.9046538185 l-5.10783207592,17.3098747048 -4.82406366873,45.6867199028 l-0.283768453847,22.4177067807 6.52667448514,-10.2156641518 l4.54029526155,-11.918274595 1.41884222257,-10.7832009662 l0.283768453847,-25.5391603796 -1.98637922359,-9.0805905231 l-15.3234962278,34.3359836154 -3.40522125952,5.95913729748 l-3.97275844718,15.6072650082 -0.567536907694,8.79682174262 l1.13507381539,4.54029526155 2.27014763077,4.25652685436 l5.39160048311,5.95913729748 5.39160048311,2.83768444515 l10.2156641518,2.55391603796 61.5777536915,-0.283768453847 l23.8365491899,-10.7832009662 9.64812733747,-7.94551689435 l15.0397274473,-23.5527819026 8.51305370872,-11.6345065611 l3.6889896667,-9.64812733747 0.283768453847,-9.0805905231 l-17.3098747048,-31.2145300165 m-79.1713941905,92.224746147 l-3.12145285233,9.364358557 -4.82406366873,26.1066979405 l-9.0805905231,32.0658333716 -1.13507381539,7.37797933341 l-0.283768453847,17.5936434852 3.12145285233,-11.3507377806 l1.70261062976,-11.918274595 m1.13507381539,-40.0113502659 l-42.8490350844,-14.4721913795 -1.41884222257,0.567536907694 l-1.98637922359,2.83768444515 -0.567536907694,16.4585698565 l4.82406366873,11.0669697467 15.3234962278,19.5800234554 l15.6072650082,16.742338637 m31.2145300165,-51.0783207592 l-9.364358557,-0.567536907694 -4.54029526155,3.12145285233 l-2.27014763077,3.40522125952 -2.27014763077,7.37797933341 l-1.41884222257,5.95913729748 0.0,5.39160048311 m26.390466721,-77.4687874802 l0.0,0.0 m139.046535199,44.5516477672 l0.0,0.85130531488 m10.4994329323,-120.601588359 l-1.41884222257,0.567536907694 -2.55391603796,5.39160048311 l-15.3234962278,43.4165726453 -15.8910337887,56.1861528351 l-1.98637922359,13.9046538185 21.5664019324,-50.2270144178 m-70.6583427215,-58.1725342984 l0.283768453847,2.55391603796 5.39160048311,5.39160048311 l22.7014755612,9.64812733747 10.7832009662,2.55391603796 l37.457434228,4.82406366873 28.376845198,0.0 l8.22928492825,-5.10783207592 0.0,-3.6889896667 m-11.918274595,-14.7559586668 l-42.2814975234,-11.918274595 -18.4449498267,-1.70261062976 l-43.7003414258,0.283768453847 -17.5936434852,2.55391603796 l-45.1191823419,10.4994329323 -12.4858114093,4.25652685436 l-11.918274595,5.67536889029 m-5.39160048311,21.282633152 l21.8501707129,7.37797933341 m50.5107831983,2.55391603796 " fill="none" stroke="black" stroke-width="1" /></svg>