<?xml version="1.0" encoding="utf-8" ?>
<svg baseProfile="full" height="300" version="1.1" width="300" xmlns="http://www.w3.org/2000/svg" xmlns:ev="http://www.w3.org/2001/xml-events" xmlns:xlink="http://www.w3.org/1999/xlink"><defs /><rect fill="none" height="300" width="300" x="0" y="0" /><path d="M106.688056234,111.500494214 m2.71470867682,17.02862804 l0.0,8.63770936723 -5.18262568526,35.784797434 l-0.24679170896,12.5863773599 m10.6120433636,-74.7778855831 l0.493583417921,21.4708787201 -0.987166835841,6.91016801321 l-4.68904234851,17.2754187345 -2.9615003452,2.9615003452 m7.15695935695,-50.0987174465 l-6.66337602019,-2.71470867682 0.740375086301,6.66337602019 m-2.71470867682,-10.3652513705 l-1.23395850422,1.23395850422 -1.23395850422,0.0 l-2.46791700844,-1.97433367168 -2.22112534006,-3.20829201358 l-1.97433367168,-7.89733468673 0.987166835841,-2.46791700844 l2.22112534006,-2.46791700844 12.5863773599,-7.89733468673 l13.3267520404,-3.45508400661 6.91016801321,0.24679170896 l14.8075026999,3.45508400661 2.71470867682,1.4807501726 l2.9615003452,4.19545901175 0.987166835841,5.9230006904 l-1.7275420033,2.71470867682 -5.18262568526,4.44225068013 l-16.0414613665,5.18262568526 -9.87166803377,1.23395850422 l-5.18262568526,1.7275420033 -9.37808469701,0.740375086301 m17.5222107275,-22.9516293797 l0.0,0.0 m15.0542933944,-2.71470867682 l0.0,0.0 m-9.13129335327,-0.987166835841 l0.987166835841,6.41658402716 m5.18262568526,-4.68904234851 l1.4807501726,5.42941735364 m9.13129335327,9.87166803377 l-6.41658402716,-0.24679170896 -9.62487669003,-4.19545901175 m-20.4837120466,42.4481734542 l-12.5863773599,-0.24679170896 -15.3010853874,4.68904234851 l-20.4837120466,7.65054269371 m-36.2783814201,36.2783814201 l1.23395850422,1.23395850422 6.16979268343,2.22112534006 l7.15695935695,1.23395850422 10.3652513705,1.23395850422 l38.993088149,2.22112534006 54.5409681266,-0.24679170896 l28.8746294208,-1.7275420033 32.082922733,-3.45508400661 l35.044421455,-5.9230006904 32.082922733,-4.44225068013 l3.45508400661,-2.9615003452 0.0,-14.8075026999 m-82.1816349852,-21.4708787201 l-6.16979268343,32.8232961149 -9.37808469701,25.1727547198 m34.304048073,-97.7295149628 l-4.44225068013,33.0700881079 -5.42941735364,24.4323787407 m-8.39091802349,-28.6278374278 l-1.7275420033,20.4837120466 -3.20829201358,20.9772947341 l-6.16979268343,22.7048373867 -7.89733468673,23.9387947546 l-7.15695935695,12.0927933738 -9.37808469701,0.0 m27.1470880668,-126.357354988 l-45.4096747733,31.8361307399 -73.790717611,60.9575495566 l-8.39091802349,15.3010853874 0.987166835841,7.15695935695 l15.3010853874,3.45508400661 35.538005441,-4.93583401688 l47.6307975163,-10.3652513705 96.0019710116,-33.3168801009 l22.2112534006,-18.756169394 0.0,-38.0059227741 " fill="none" stroke="black" stroke-width="1" /></svg>