<?xml version="1.0" encoding="utf-8" ?>
<svg baseProfile="full" height="300" version="1.1" width="300" xmlns="http://www.w3.org/2000/svg" xmlns:ev="http://www.w3.org/2001/xml-events" xmlns:xlink="http://www.w3.org/1999/xlink"><defs /><rect fill="none" height="300" width="300" x="0" y="0" /><path d="M186.574611226,100.058756339 m-5.87544045915,-3.23149221389 l-14.1010567928,-1.46886011479 -9.98824901242,0.0 l-4.11280855327,1.17508813047 0.587544065237,1.46886011479 l4.7003525219,1.46886011479 6.75675679853,0.0 l2.35017626095,-2.64394824526 -0.293772032619,-1.46886011479 l-1.17508813047,-0.587544065237 m5.28789649052,3.23149221389 l1.46886011479,16.1574618423 0.0,33.4900100761 l-4.99412450621,41.1280824412 -1.17508813047,5.28789649052 l-3.23149221389,-0.587544065237 -10.2820206103,3.81903618251 l10.575792981,-2.35017626095 m4.40658053759,-1.7626320991 l4.40658053759,12.0446532891 m-3.5252641982,-51.1163337723 l-10.2820206103,-2.64394824526 -13.8072859678,-0.88131604955 l-113.983543825,-1.7626320991 -5.28789649052,-0.587544065237 l12.9259688556,-2.93772022958 106.933019294,-3.81903618251 l130.141011851,-1.7626320991 m0.0,0.0 l0.0,0.0 " fill="none" stroke="black" stroke-width="1" /></svg>