<?xml version="1.0" encoding="utf-8" ?>
<svg baseProfile="full" height="300" version="1.1" width="300" xmlns="http://www.w3.org/2000/svg" xmlns:ev="http://www.w3.org/2001/xml-events" xmlns:xlink="http://www.w3.org/1999/xlink"><defs /><rect fill="none" height="300" width="300" x="0" y="0" /><path d="M163.253009466,158.734940256 m23.1927713008,9.63855440973 l11.7469882364,3.01204815398 3.01204815398,0.602409650608 l21.6867470257,-0.602409650608 1.20481930122,-1.80722885277 l4.21686765331,-27.7108441261 0.0,-18.9759036475 l-0.903614426384,-4.51807242909 1.80722885277,-6.62650585952 l4.51807242909,-1.20481930122 5.72289153219,-3.31325292976 l11.4457830644,-3.61445770554 4.51807242909,-0.602409650608 l2.10843382666,0.903614426384 1.80722885277,4.51807242909 l0.0,3.61445770554 -12.6506021675,2.10843382666 l0.0,1.50602407699 28.3132544701,14.4578308221 l-17.4698793724,-3.01204815398 -17.1686742004,-1.20481930122 l-15.6626499253,-59.0361439766 2.71084337821,25.602409507 l3.31325292976,10.5421683408 4.51807242909,29.5180719883 l0.301204825304,24.3975904039 -1.20481930122,12.3493977879 l0.602409650608,12.6506021675 -2.71084337821,32.2289153665 l1.50602407699,11.1445786848 -1.20481930122,7.53012058307 l-89.1566294786,0.301204825304 -53.0120468762,-2.10843382666 l-25.602409507,-4.21686765331 -13.855422063,-3.91566248131 l-17.1686742004,-6.62650585952 -5.72289153219,-3.61445770554 l-3.01204815398,-0.301204825304 1.50602407699,-1.20481930122 l3.91566248131,-18.3734933035 8.43373530662,-19.2771088195 l18.9759036475,-28.3132544701 15.6626499253,-16.2650602692 l11.4457830644,-5.72289153219 6.92771103152,-5.72289153219 l14.7590359941,-6.92771103152 5.42168675642,-0.602409650608 l10.2409639613,23.7951800599 7.22891541107,10.5421683408 l3.61445770554,2.71084337821 31.0240978483,-2.40963860243 l10.2409639613,1.50602407699 2.40963860243,3.01204815398 " fill="none" stroke="black" stroke-width="1" /></svg>