<?xml version="1.0" encoding="utf-8" ?>
<svg baseProfile="full" height="300" version="1.1" width="300" xmlns="http://www.w3.org/2000/svg" xmlns:ev="http://www.w3.org/2001/xml-events" xmlns:xlink="http://www.w3.org/1999/xlink"><defs /><rect fill="none" height="300" width="300" x="0" y="0" /><path d="M161.420529707,95.5569475051 m-9.07384201389,-0.625782225595 l-5.94493098881,1.25156445119 -13.7672083457,5.94493098881 l-0.938673286944,2.50312890238 3.44180208643,3.44180208643 l15.331664064,7.82227776849 7.1964956458,2.19023784103 l13.7672083457,1.87734657389 m3.12891102508,-4.69336674341 l-10.0125156095,-14.7058827645 -5.31914886611,-5.63203992746 l-10.0125156095,-5.31914886611 -3.44180208643,0.625782225595 m8.76095136413,35.0438054565 l1.87734657389,5.63203992746 1.56445551254,13.141426223 l2.81601996373,9.07384201389 -0.625782225595,1.56445551254 l31.289111074,12.5156441003 25.3441796736,11.2640798549 l38.1727136004,18.7734669737 17.8347925548,7.1964956458 l2.19023784103,1.56445551254 -3.75469314777,3.44180208643 l-2.50312890238,0.938673286944 -9.07384201389,0.0 m-97.3091361315,-54.7559452026 l8.13516841825,-4.69336674341 17.8347925548,-17.2090112553 m-37.2340424744,20.9637039915 l6.5707131115,0.625782225595 m5.94493098881,-0.938673286944 l3.44180208643,0.312891112798 -5.31914886611,1.25156445119 l-26.9086353919,14.0800998186 -23.4668324823,9.69962413658 l-29.4117655291,9.69962413658 -56.9461822205,13.7672083457 m135.168958259,-45.6821023656 l-2.50312890238,2.50312890238 4.06758420912,2.50312890238 l15.0187725911,5.63203992746 5.00625780476,0.938673286944 l2.19023784103,0.0 -5.00625780476,-3.75469314777 l-14.7058827645,-5.00625780476 " fill="none" stroke="black" stroke-width="1" /></svg>