<?xml version="1.0" encoding="utf-8" ?>
<svg baseProfile="full" height="300" version="1.1" width="300" xmlns="http://www.w3.org/2000/svg" xmlns:ev="http://www.w3.org/2001/xml-events" xmlns:xlink="http://www.w3.org/1999/xlink"><defs /><rect fill="none" height="300" width="300" x="0" y="0" /><path d="M138.312209203,163.668782865 m0.0,0.0 m3.96196498273,-59.8256711871 l-1.58478604521,32.8843107638 -7.13153707315,71.7115676988 m37.638666033,-95.8795576896 l-5.94294773469,51.5055473814 -1.98098249137,41.2044345696 l-3.16957209042,14.2630741463 -3.96196498273,10.6973056097 m-25.7527736907,-20.2060224022 l-13.866877179,-6.33914418084 -16.2440568983,-5.1505543212 m24.5641827887,11.489698502 l-9.50871575008,4.35816142889 -10.6973056097,2.77337564427 l-13.470681254,1.98098249137 -15.0554670386,0.0 m49.5245625447,-10.3011086424 l-7.52773351931,13.866877179 -20.2060224022,21.7908081868 m52.2979371466,-9.50871575008 l-31.2995228945,4.35816142889 m32.0919168292,-0.792393022605 l-14.2630741463,36.4500793004 m13.470681254,-36.4500793004 l-11.8858954694,4.35816142889 -63.3914397237,31.2995228945 m132.725825619,-161.25198225 l-85.1822479105,-7.13153707315 -20.6022172848,-3.56576853658 l-8.32012641162,-2.77337564427 -13.470681254,-5.54675128853 l-7.92392996546,-5.1505543212 -0.396196511303,-7.92392996546 l1.18858946876,-3.96196498273 9.50871575008,-11.489698502 l10.6973056097,-2.77337564427 23.7717909387,-0.396196511303 l7.92392996546,1.18858946876 24.5641827887,7.52773351931 l23.7717909387,11.8858954694 16.2440568983,2.77337564427 l32.0919168292,-0.396196511303 12.6782883617,1.98098249137 l10.3011086424,3.16957209042 -12.6782883617,9.50871575008 l-32.0919168292,9.50871575008 m-106.973056097,-52.2979371466 l-37.2424732351,-32.0919168292 47.1473849101,18.6212366175 l26.1489685733,13.470681254 " fill="none" stroke="black" stroke-width="1" /></svg>