<?xml version="1.0" encoding="utf-8" ?>
<svg baseProfile="full" height="300" version="1.1" width="300" xmlns="http://www.w3.org/2000/svg" xmlns:ev="http://www.w3.org/2001/xml-events" xmlns:xlink="http://www.w3.org/1999/xlink"><defs /><rect fill="none" height="300" width="300" x="0" y="0" /><path d="M197.069820842,135.349130197 m-8.41645867494,-4.36408986555 l-9.03989996714,-2.49376557888 -13.4039898327,-0.935162040822 l-9.97506231551,0.31172069736 -4.36408986555,1.55860343554 l-2.80548622498,2.80548622498 -4.05236880939,10.2867825516 l0.0,12.4688274843 3.42892751718,6.54613438827 l7.16957609053,7.79301738273 10.2867825516,9.03989996714 m11.2219448999,4.36408986555 l8.7281797311,0.0 6.54613438827,-4.98753115775 l8.7281797311,-17.4563594622 2.80548622498,-11.5336659561 m-2.49376557888,-20.5735651031 l-7.48129632657,-1.87032408164 -52.6807961623,34.2892768121 m-31.4837905871,8.10473761878 l26.1845375531,50.4987520496 m32.4189504751,-38.0299229251 l4.98753115775,-5.61097244996 -5.29925180386,-5.29925180386 l-21.5087282716,-6.23441374216 -29.9251853063,0.0 l-30.2369063625,13.7157100687 m108.478802886,38.6533650374 l0.0,0.0 m-106.296755493,-50.4987520496 l-21.1970072154,4.36408986555 -37.4064840932,25.561097081 l-4.98753115775,9.97506231551 15.2743137093,-2.18204493277 l18.3915209904,1.55860343554 16.8329173499,6.85785503437 l20.2618456872,0.0 18.7032420466,-3.74064816329 l160.536160217,-127.493767629 -144.95012053,124.064836011 l143.39151525,-120.324183338 " fill="none" stroke="black" stroke-width="1" /></svg>