<?xml version="1.0" encoding="utf-8" ?>
<svg baseProfile="full" height="300" version="1.1" width="300" xmlns="http://www.w3.org/2000/svg" xmlns:ev="http://www.w3.org/2001/xml-events" xmlns:xlink="http://www.w3.org/1999/xlink"><defs /><rect fill="none" height="300" width="300" x="0" y="0" /><path d="M133.974357021,159.06593558 m10.439559954,-4.0293038588 l10.0732601289,-0.549450520725 4.0293038588,-0.732600734454 l4.57875456022,-1.64835162241 3.66300355181,-2.56410263082 l1.64835162241,-2.1978020829 2.3809522364,-5.86080587563 l2.1978020829,-3.29670324481 6.4102560952,-4.57875456022 l4.57875456022,0.915750887952 2.1978020829,2.74725278432 l-2.3809522364,3.66300355181 -2.0146519294,0.549450520725 l-1.8315017759,-0.366300367227 -0.732600734454,0.915750887952 l0.0,-1.09890104145 m2.56410263082,-2.1978020829 l5.86080587563,0.0 -4.76190447279,0.0 l-0.549450520725,-0.915750887952 0.549450520725,-1.09890104145 m-3.66300355181,5.31135517421 l-3.47985339831,5.67765548121 -4.94505486722,5.12820526164 l-0.915750887952,2.56410263082 -1.8315017759,10.9890111373 l-2.0146519294,2.56410263082 -3.47985339831,2.1978020829 l-7.69230741061,1.28205131541 -9.70695934001,0.0 l-2.74725278432,-0.915750887952 -2.74725278432,-2.56410263082 l-4.94505486722,-7.32600710361 m27.1062275362,-6.4102560952 l-2.74725278432,2.1978020829 -5.67765548121,3.11355309131 l-5.49450556864,5.49450556864 1.09890104145,0.366300367227 l2.74725278432,-1.28205131541 6.95970679662,1.28205131541 l0.183150183614,-0.549450520725 m-2.56410263082,8.0586077176 l0.0,0.0 m-4.57875456022,-1.09890104145 l2.1978020829,10.2564105233 0.183150183614,13.9194135932 m9.89010973443,-24.5421239417 l-13.0036625848,0.732600734454 -12.4542123653,2.1978020829 l-2.93040293782,-0.549450520725 0.183150183614,-3.29670324481 l2.93040293782,-4.0293038588 43.4065933658,-21.7948718801 l74.1758249357,-17.2161178018 18.6813190297,5.67765548121 l0.0,22.344321136 -1.8315017759,1.46520146891 l-4.21245425323,0.183150183614 -59.8901095899,9.70695934001 l-66.8498168683,13.5531137681 -93.7728940101,15.3846148212 l-23.4432235025,3.11355309131 25.6410243808,-3.8461537053 l30.9523800369,-15.7509156101 78.2051259034,-33.5164836314 l44.688642272,-7.87545780503 21.9780222745,2.93040293782 l4.3956041658,4.57875456022 -1.09890104145,2.0146519294 l-5.67765548121,2.1978020829 -97.2527437945,17.948717452 l-81.6849833974,-4.3956041658 -19.7802194689,-10.8058607428 l0.732600734454,-11.7216117513 57.5091583172,-19.9633698633 l72.7106217803,-21.6117214857 " fill="none" stroke="black" stroke-width="1" /></svg>