<?xml version="1.0" encoding="utf-8" ?>
<svg baseProfile="full" height="300" version="1.1" width="300" xmlns="http://www.w3.org/2000/svg" xmlns:ev="http://www.w3.org/2001/xml-events" xmlns:xlink="http://www.w3.org/1999/xlink"><defs /><rect fill="none" height="300" width="300" x="0" y="0" /><path d="M186.983945772,61.1238533107 m61.9266051906,12.6146784999 m-66.5137604602,0.0 l20.0688065672,0.573394502982 51.0321091625,6.88073365864 m-71.1009157297,-25.8027521627 l-7.45412806734,-16.628440115 -11.4678896825,-10.3211008651 l-11.4678896825,-3.44036682932 -8.02752323031,4.58715602385 l-9.7477064564,25.8027521627 -1.72018341466,20.6422017302 l1.14678900596,23.509174528 -47.5917442189,6.88073365864 l-26.9495424887,6.30733924994 -12.6146784999,9.1743120477 l22.935779365,17.201835278 11.4678896825,2.86697242062 l34.9770627019,5.73394484125 25.2293569998,1.14678900596 l14.3348624803,-5.16055043255 9.1743120477,-8.60091763901 l5.73394484125,-10.8944952738 16.0550464606,-60.2064197017 m-80.2752262689,77.4082564882 l1.14678900596,105.504589303 2.86697242062,20.6422017302 m53.3256898144,-126.720186196 l-1.14678900596,96.9036678925 17.201835278,-4.01376161516 l29.8165122693,-12.0412840912 m-40.7110082974,18.9220177498 l17.7752289324,0.573394502982 10.8944952738,1.72018341466 m-29.2431201235,0.0 l19.4954129128,32.1100929212 m-76.2614661623,-11.4678896825 l4.01376161516,-2.86697242062 " fill="none" stroke="black" stroke-width="1" /></svg>