<?xml version="1.0" encoding="utf-8" ?>
<svg baseProfile="full" height="300" version="1.1" width="300" xmlns="http://www.w3.org/2000/svg" xmlns:ev="http://www.w3.org/2001/xml-events" xmlns:xlink="http://www.w3.org/1999/xlink"><defs /><rect fill="none" height="300" width="300" x="0" y="0" /><path d="M131.39687121,152.610964825 m7.18015678295,-10.4438648799 l3.26370766764,-10.7702351744 2.93733694381,-5.22193243996 l12.0757189284,-9.79112343226 m1.63185383382,2.93733694381 l12.4020892229,8.48563967828 9.4647522791,4.5691909923 l1.63185383382,-0.326370777498 -0.326370777498,-20.2349874535 l-2.61096621998,-5.87467388762 -4.89556171613,-4.24281983914 l-14.3603135659,-3.59007839148 -17.6240216629,0.0 l-1.63185383382,1.30548310999 -0.326370777498,4.89556171613 l5.54830316379,6.85378605912 4.24281983914,1.95822455765 m23.8250667037,6.85378605912 l-5.87467388762,0.0 -5.22193243996,-1.30548310999 l-1.63185383382,-0.979112278827 -1.95822455765,-4.89556171613 m16.6449099207,7.50652793611 l-2.61096621998,-3.91644911531 -6.52741533529,-5.22193243996 l-1.63185383382,-0.326370777498 -3.59007839148,3.59007839148 m-33.9425587131,40.7963460602 l2.93733694381,10.1174937268 0.652741554995,8.81201083144 l-17.950392816,34.2689298663 -2.93733694381,7.50652793611 l-1.95822455765,10.4438648799 0.0,5.54830316379 l2.61096621998,4.24281983914 13.0548306706,5.54830316379 l-0.652741554995,3.91644911531 -3.91644911531,3.91644911531 l-6.85378605912,2.61096621998 -29.046998285,0.652741554995 l-38.5117514227,-215.731084946 34.2689298663,215.731084946 l-38.5117514227,-215.731084946 m63.9686704575,204.634479477 l2.93733694381,3.59007839148 4.89556171613,2.93733694381 l6.85378605912,0.652741554995 2.93733694381,-0.979112278827 l19.5822468645,-18.9295045582 3.26370766764,-6.85378605912 m-37.5326379632,29.6997405913 l0.979112278827,2.61096621998 0.0,8.15926938377 m25.4569207521,-31.3315929225 l3.59007839148,5.87467388762 3.91644911531,15.6657964612 m-8.81201083144,-62.3368146918 l-12.0757189284,-17.2976505097 -9.4647522791,-11.4229766221 l-32.9634486882,-31.3315929225 -37.8590091164,-26.1096613411 l-15.3394270254,-7.83289823061 m159.921672709,117.493477752 l2.28459549615,-3.26370766764 -1.30548310999,-6.20104461146 l-8.15926938377,-13.3812018237 -15.0130558722,-22.1932126552 l-31.9843352288,-38.1853802696 m-64.6214127639,-46.3446487947 l32.3107063819,22.5195838083 m42.428201826,35.9007856321 l10.7702351744,6.85378605912 m0.0,0.0 l0.0,0.0 m123.368144771,113.250659631 m-64.947783917,-84.856403652 l-34.2689298663,-33.2898198414 " fill="none" stroke="black" stroke-width="1" /></svg>