<?xml version="1.0" encoding="utf-8" ?>
<svg baseProfile="full" height="300" version="1.1" width="300" xmlns="http://www.w3.org/2000/svg" xmlns:ev="http://www.w3.org/2001/xml-events" xmlns:xlink="http://www.w3.org/1999/xlink"><defs /><rect fill="none" height="300" width="300" x="0" y="0" /><path d="M98.1818192885,258.636365689 m-12.2727272466,-49.5454549716 l-1.81818184754,-42.2727287774 3.63636369507,-13.1818180209 m-10.4545456981,-2.72727262182 l22.2727269596,-0.909090923768 4.54545446935,1.36363631091 l44.9999999043,3.18181830793 44.5454539193,-9.09090893871 l5.45454524364,-2.72727262182 2.27272723468,-4.54545446935 l-1.36363631091,-19.0909086517 -4.09090908221,-10.9090904873 l-7.27272739014,-11.8181812616 -14.5454547803,-12.7272732317 l-14.9999995695,-8.63636355157 -31.8181806875,2.27272723468 l-45.4545458894,6.818182003 m-1.36363631091,0.0 l-23.6363625231,16.8181823139 m0.0,0.909090923768 l-2.27272723468,9.54545432585 1.36363631091,9.54545432585 l22.2727269596,29.0909095606 m5.90909063078,4.09090908221 l2.27272723468,-0.454545461884 9.54545432585,-7.72727277728 l8.18181816442,-2.27272723468 m80.454543689,-58.6363651062 l22.7272729447,-30.9090911091 10.9090904873,-24.0909085082 l9.99999971299,10.9090904873 16.3636363288,4.54545446935 l0.909090923768,2.27272723468 -1.36363631091,7.27272739014 l-4.09090908221,13.1818180209 -10.4545456981,-5.90909063078 l-28.6363635755,-29.5454555456 -4.54545446935,-7.72727277728 m-37.7272737101,128.636360705 l-17.7272730882,63.1818201735 -10.9090904873,58.1818191211 " fill="none" stroke="black" stroke-width="1" /></svg>