<?xml version="1.0" encoding="utf-8" ?>
<svg baseProfile="full" height="300" version="1.1" width="300" xmlns="http://www.w3.org/2000/svg" xmlns:ev="http://www.w3.org/2001/xml-events" xmlns:xlink="http://www.w3.org/1999/xlink"><defs /><rect fill="none" height="300" width="300" x="0" y="0" /><path d="M96.1984540816,77.9961346743 m-15.7860822316,-1.61082471319 l-10.6314429799,0.322164953232 -18.0412378048,5.47680415197 l-4.83247435146,2.89948452612 -11.9201034285,13.8530928301 l-4.18814412715,10.9536083039 -5.15463925172,17.0747418326 l-0.644329906464,6.44329885275 9.98711317938,-9.0206189024 m62.8221636024,-45.7474217697 l0.966494806722,27.7061856601 2.57731962586,13.2087630295 l8.37628825429,15.4639169076 12.564433229,16.1082475557 l26.7396913831,-9.34278337886 22.5515455608,-5.47680415197 l5.15463925172,0.322164953232 28.0283509842,4.83247435146 l22.2293819319,7.40979397732 35.4381449615,18.3634014337 l12.564433229,4.5103094512 -0.322164953232,1.61082471319 l-11.2757727804,4.5103094512 -55.7345366443,16.7525765086 l-27.7061856601,3.86597922689 -7.40979397732,0.0 l-20.2963916828,-5.47680415197 -11.2757727804,-5.47680415197 l-16.7525765086,-11.2757727804 4.18814412715,24.1623704859 l4.83247435146,13.8530928301 1.61082471319,8.05412377783 m13.530927506,-27.7061856601 l9.66494870292,27.3840203361 -15.1417532787,-3.86597922689 l17.7190724807,5.47680415197 " fill="none" stroke="black" stroke-width="1" /></svg>