<?xml version="1.0" encoding="utf-8" ?>
<svg baseProfile="full" height="300" version="1.1" width="300" xmlns="http://www.w3.org/2000/svg" xmlns:ev="http://www.w3.org/2001/xml-events" xmlns:xlink="http://www.w3.org/1999/xlink"><defs /><rect fill="none" height="300" width="300" x="0" y="0" /><path d="M96.022728625,275.0 m2.13068178401,-96.5909119017 m56.1079540349,95.1704556662 l0.0,-88.0681819628 m-56.1079540349,-12.0738639877 l87.3579538451,12.0738639877 3.55113638454,0.0 l7.81249995256,-5.68181840212 9.23295431952,-22.7272736085 l0.710227300264,-36.9318172781 -17.7556823898,-9.23295431952 l-40.4829541297,-11.3636368042 -17.0454542721,4.97159121864 l-11.3636368042,11.3636368042 -25.5681823424,46.1647753347 l-4.26136356802,12.0738639877 -0.710227300264,9.94318243727 m75.9943189094,-75.2840907916 l18.465908639,-41.9034103653 8.52272713604,-7.81249995256 m2.84090920106,-0.710227300264 l-1.42045460053,-10.6534096208 -12.0738639877,-12.0738639877 l-0.710227300264,-3.55113638454 29.1193191941,-7.10227276908 l0.0,18.465908639 -12.0738639877,18.465908639 m-49.0056840686,45.4545472169 l-1.42045460053,20.5965911237 14.9147727216,11.3636368042 " fill="none" stroke="black" stroke-width="1" /></svg>