<?xml version="1.0" encoding="utf-8" ?>
<svg baseProfile="full" height="300" version="1.1" width="300" xmlns="http://www.w3.org/2000/svg" xmlns:ev="http://www.w3.org/2001/xml-events" xmlns:xlink="http://www.w3.org/1999/xlink"><defs /><rect fill="none" height="300" width="300" x="0" y="0" /><path d="M189.634144818,131.472796164 m-8.91181979902,-2.34521572035 l-7.03564746954,-0.469043159494 -7.97373363428,12.1951213756 l-3.75234527596,13.1332087743 -1.87617263798,2.81425880272 l-3.28330219359,1.40712940136 -8.44277671665,0.0 l-11.7260789102,-5.15947452306 -7.03564746954,0.0 l-6.0975606878,4.22138835832 -3.75234527596,4.69043144069 l-1.40712940136,3.75234527596 -0.938086318989,9.84990596375 l7.03564746954,2.34521572035 15.9474672686,0.0 l7.97373363428,-2.81425880272 1.87617263798,-1.40712940136 l0.469043159494,-1.40712940136 10.7879927455,-12.664165075 m-30.0187622076,15.9474672686 l-0.469043159494,14.0712949391 0.938086318989,3.75234527596 l0.0,8.91181979902 m56.7542234557,-72.2326457909 l0.938086318989,3.28330219359 0.0,7.03564746954 l8.44277671665,8.44277671665 59.0994370165,29.5497185083 l17.823639598,33.3020631672 0.0,8.44277671665 l-0.469043159494,-2.81425880272 -6.56660438717,-5.15947452306 l-13.1332087743,-7.03564746954 -54.4090049588,-24.8592864506 l-33.3020631672,-21.1069417916 -38.4615389243,-21.1069417916 l-40.3377112538,-23.9212015198 -33.3020631672,-21.575985491 l-30.0187622076,-12.664165075 0.0,5.62851760543 " fill="none" stroke="black" stroke-width="1" /></svg>