<?xml version="1.0" encoding="utf-8" ?>
<svg baseProfile="full" height="300" version="1.1" width="300" xmlns="http://www.w3.org/2000/svg" xmlns:ev="http://www.w3.org/2001/xml-events" xmlns:xlink="http://www.w3.org/1999/xlink"><defs /><rect fill="none" height="300" width="300" x="0" y="0" /><path d="M116.537616762,179.867256656 m39.2699108831,13.8274337989 l53.0973432269,25.4424785393 -7.74336316023,4.42477884477 l-130.530974829,35.3982307581 m41.4822999417,-78.5398217662 l-8.29646042488,58.0752193363 -2.76548668703,36.5044238323 m14.9336283282,-106.747784446 l-8.29646042488,1.65929197584 -35.3982307581,1.10619471119 l-13.2743358067,-2.21238942238 -7.74336316023,-4.42477884477 m-11.6150440128,-11.0619467481 l19.3584064454,7.19026516801 22.6769914885,2.76548668703 l15.4867263205,-2.76548668703 7.19026516801,-3.87168158012 l11.6150440128,-22.1238934963 12.7212392696,-30.9734526409 l15.4867263205,-25.9955765315 33.7389367814,-37.6106198167 l30.4203546487,-14.9336283282 49.2256631019,12.1681412774 l2.76548668703,13.2743358067 -4.97787610941,24.8893805471 l-53.6504412191,6.63716790336 -3.87168158012,29.3141586643 l-12.1681412774,23.7831860178 " fill="none" stroke="black" stroke-width="1" /></svg>