<?xml version="1.0" encoding="utf-8" ?>
<svg baseProfile="full" height="300" version="1.1" width="300" xmlns="http://www.w3.org/2000/svg" xmlns:ev="http://www.w3.org/2001/xml-events" xmlns:xlink="http://www.w3.org/1999/xlink"><defs /><rect fill="none" height="300" width="300" x="0" y="0" /><path d="M132.690406237,95.6602386065 m-0.989119701097,1.73095951758 l-0.247279925274,2.22551928681 0.123639962637,60.0890181415 l2.72007905604,24.9752725747 2.22551928681,15.2077146928 l0.989119701097,4.45103857362 1.23639958571,0.0 l0.123639962637,-6.30563819615 -2.59643911373,-20.4005938961 l0.0,-9.27299681151 0.865479758791,-5.19287822746 l0.0,-16.3204743362 1.23639958571,-9.64391712636 l1.48367947032,-4.82195856318 1.1127596434,-5.44015811207 l2.47279917142,-15.4549949027 1.97823940219,0.0 l3.70919891978,-2.1018793445 2.47279917142,-1.97823940219 l1.85459945989,-0.123639962637 5.31651833241,5.68743832197 l10.3857564549,8.53115748296 4.94559834284,3.58555881483 l11.7457956576,6.05835798625 8.40751737801,2.96735894065 l8.77843704228,2.34915922912 38.2047481906,7.17111762965 l28.8081106236,6.42927765052 4.94559834284,2.59643911373 l0.0,1.85459945989 0.0,-28.8081106236 l-0.247279925274,-3.83283869944 -2.1018793445,-5.68743832197 l-2.59643911373,-3.46191903516 -4.69831845823,-3.58555881483 l-4.69831845823,-2.84371916099 -5.31651833241,-2.59643911373 l-4.69831845823,-1.1127596434 -7.41839783955,0.370919867581 l-12.858555301,4.82195856318 -7.17111762965,4.32739846867 l-8.90207714723,6.92383807032 -12.4876362873,11.251236539 l-14.3422352593,15.2077146928 -15.5786350077,18.7932738329 l-28.3135502038,40.0593471625 -4.82195856318,0.0 l123.639959222,0.0 -0.123639962637,-16.3204743362 l-4.08011858405,-4.82195856318 -10.5093965599,-5.68743832197 l-19.6587532664,-7.17111762965 -24.6043522598,-6.80019796537 l-26.5825913367,-4.32739846867 -33.2591491972,-3.95647880439 l-79.8714141152,-2.72007905604 -38.6993086104,-4.94559834284 l0.0,-33.630069512 0.0,42.7794268692 l4.69831845823,0.494559850549 4.32739846867,0.989119701097 l33.3827893021,9.76755658074 56.7507405125,9.02571725218 l37.9574679807,7.54203729393 89.886252207,19.7823933714 l10.3857564549,0.0 -0.123639962637,-6.05835798625 l-6.80019796537,0.370919867581 -14.3422352593,4.69831845823 l-18.2987147143,0.989119701097 -17.4332339796,0.0 " fill="none" stroke="black" stroke-width="1" /></svg>