<?xml version="1.0" encoding="utf-8" ?>
<svg baseProfile="full" height="300" version="1.1" width="300" xmlns="http://www.w3.org/2000/svg" xmlns:ev="http://www.w3.org/2001/xml-events" xmlns:xlink="http://www.w3.org/1999/xlink"><defs /><rect fill="none" height="300" width="300" x="0" y="0" /><path d="M161.006288142,138.207543728 m-36.9496875578,136.792456272 m35.3773586674,-140.723270224 l-40.8805015105,8.64779855555 -23.5849064677,7.86163514451 l-45.597484045,25.9433956666 65.2515744917,3.93081757226 l110.062889955,18.0817615563 m-58.9622630668,-66.8238992455 l-33.0188674001,-5.50314491141 -33.0188674001,-18.8679239332 l-6.28930832244,-5.50314491141 -7.07547173348,-16.5094337001 l-2.35849049165,-33.8050318453 -2.35849049165,-3.93081757226 l-31.4465405781,-14.150943467 -8.64779855555,-0.786163540306 l-3.14465416122,-3.93081757226 1.57232708061,-3.93081757226 l55.0314449774,2.35849049165 7.07547173348,6.28930832244 l14.937106878,23.5849064677 36.9496875578,20.4402507552 l42.4528304009,11.7924532339 26.7295601118,14.937106878 l38.5220123115,10.2201253776 -55.0314449774,1.57232708061 l-8.64779855555,3.14465416122 -10.2201253776,9.43396196658 l-11.0062898228,0.786163540306 " fill="none" stroke="black" stroke-width="1" /></svg>