<?xml version="1.0" encoding="utf-8" ?>
<svg baseProfile="full" height="300" version="1.1" width="300" xmlns="http://www.w3.org/2000/svg" xmlns:ev="http://www.w3.org/2001/xml-events" xmlns:xlink="http://www.w3.org/1999/xlink"><defs /><rect fill="none" height="300" width="300" x="0" y="0" /><path d="M272.363374966,126.749767437 m0.0,0.0 l0.479386398501,1.19846595684 -239.693192629,-11.0258872444 m239.693192629,47.2195591094 m0.0,0.719079558339 l-239.693192629,-19.8945357349 m-2.39693191368,-15.1006712769 m0.0,0.0 l239.693192629,20.8533083742 m-4.07478434785,-12.9434325231 m0.0,0.0 l-239.693192629,-13.4228194733 m239.693192629,34.9952070118 m0.0,0.0 l-239.693192629,-17.4976035059 m239.693192629,31.3998074071 m0.0,0.0 l-239.693192629,-24.2090132426 m-1.67785243417,0.479386398501 l0.719079558339,-1.67785243417 m0.0,0.0 l0.0,-3.59539802817 m-0.479386398501,-0.958772797003 l-0.239693199251,-1.67785243417 m0.479386398501,-2.15723875384 l0.479386398501,-2.87631823336 m1.43815911668,-1.43815911668 l4.31447750769,1.91754559401 m239.693192629,45.5417047834 m0.0,0.0 l-239.693192629,-50.0958757662 m239.693192629,52.0134235674 m0.0,0.479386398501 l-239.693192629,-60.1629916325 m239.693192629,60.8820720579 m0.0,0.0 l-239.693192629,-65.1965495656 m239.693192629,62.559921339 m0.0,0.0 l-239.693192629,-63.7583887147 m239.693192629,67.353785797 m0.0,0.0 l-239.693192629,-69.9904140236 m1.67785243417,0.719079558339 l239.693192629,70.709494449 m-239.693192629,-72.8667306804 m0.479386398501,0.0 l0.719079558339,-1.91754559401 m0.719079558339,3.11601139319 m0.0,0.0 l0.0,0.479386398501 m239.693192629,65.4362430407 m0.0,0.0 l-239.693192629,-65.915629991 m239.693192629,62.7996148141 m0.0,0.0 l-239.693192629,-63.5186952396 m239.693192629,61.121765533 m0.0,0.0 l-239.693192629,-63.9980821899 m239.693192629,58.4851373065 m0.0,0.0 l-239.693192629,-57.0469815005 m0.0,-0.719079558339 l239.693192629,50.8149561917 m-239.693192629,-52.4928105177 m0.0,0.0 l239.693192629,51.0546496668 " fill="none" stroke="black" stroke-width="1" /></svg>