<?xml version="1.0" encoding="utf-8" ?>
<svg baseProfile="full" height="300" version="1.1" width="300" xmlns="http://www.w3.org/2000/svg" xmlns:ev="http://www.w3.org/2001/xml-events" xmlns:xlink="http://www.w3.org/1999/xlink"><defs /><rect fill="none" height="300" width="300" x="0" y="0" /><path d="M132.775590303,275.0 m0.0,-39.8622043832 l2.46062986423,-29.0354331101 0.0,-25.0984258452 l-4.92125972847,-23.1299222127 -3.44488200414,-0.492125989031 l-28.5433065546,7.38188991638 -15.2559050935,0.492125989031 l42.3228345711,-35.9251971183 -31.9881898535,-6.39763745279 l0.0,-2.46062986423 29.0354331101,-19.6850389139 l3.93700791225,-4.92125972847 -34.4488174519,-3.44488200414 l9.35039354882,-2.46062986423 10.8267712731,-5.41338563657 l12.7952749056,-9.35039354882 3.44488200414,-4.92125972847 l-16.7322834652,-2.46062986423 -20.6692907301,-12.3031496448 l14.2716532773,-5.90551154468 24.6062992897,-14.7637798328 l23.6220461787,-8.3661417326 9.84251945693,-1.47637788617 l19.1929136531,18.7007870976 22.6377956573,18.2086618369 l11.8110230894,6.88976400827 -22.1456691018,-1.47637788617 l-18.7007870976,-3.44488200414 5.90551154468,4.42913382036 " fill="none" stroke="black" stroke-width="1" /></svg>