<?xml version="1.0" encoding="utf-8" ?>
<svg baseProfile="full" height="300" version="1.1" width="300" xmlns="http://www.w3.org/2000/svg" xmlns:ev="http://www.w3.org/2001/xml-events" xmlns:xlink="http://www.w3.org/1999/xlink"><defs /><rect fill="none" height="300" width="300" x="0" y="0" /><path d="M68.6403435981,252.631580205 m2.63157898609,-35.0877205837 l0.877193043441,-68.8596547035 m1.75438608688,100.877196101 l0.0,1.75438608688 14.9122815943,12.7192987693 m-18.4210531911,-9.64912304514 l6.57894789793,20.6140371699 m-16.22807152,-19.7368431168 l-3.07017572416,7.01754434753 -2.19298253648,12.7192987693 m88.5964978203,-23.2456147136 l-4.38596507297,-42.9824578305 0.877193043441,-50.0000010241 m5.70175442177,90.3508859265 l20.1754401434,21.9298259418 3.07017572416,1.75438608688 m-18.8596502176,-23.6842117402 l-3.07017572416,8.77193014594 -2.63157898609,16.6666673927 m-5.26315797217,-25.8771945652 l-3.50877217377,6.14035144833 -3.50877217377,13.5964916685 m-56.5789518068,-130.263159955 l0.877193043441,1.75438608688 12.2807028967,4.82456152257 l10.9649129709,1.75438608688 m0.877193043441,-97.3684291201 l1.31578949304,97.3684291201 -1.31578949304,-97.3684291201 m-29.385966162,97.8070261467 l23.2456147136,-2.63157898609 29.385966162,6.57894789793 l19.7368431168,0.438596521721 7.89473724673,-0.877193043441 l11.8421058701,-5.26315797217 18.8596502176,-15.7894744935 l7.89473724673,-13.5964916685 1.75438608688,-7.89473724673 l0.0,-4.82456152257 -12.7192987693,-22.3684229684 l1.75438608688,-7.01754434753 10.9649129709,-25.000000512 l-1.75438608688,-14.0350886951 m-114.473685462,96.0526380405 l4.82456152257,-7.45614079713 4.38596507297,-3.50877217377 l21.0526318887,-3.50877217377 4.82456152257,-2.19298253648 l24.5614057933,-6.14035144833 17.5438602919,-7.45614079713 l7.45614079713,-6.57894789793 6.57894789793,-13.1578957959 l3.07017572416,-14.4736845677 0.877193043441,-32.0175460135 l1.75438608688,-5.26315797217 14.9122815943,1.75438608688 l9.64912304514,-5.70175442177 7.89473724673,1.31578949304 l7.45614079713,2.19298253648 14.9122815943,8.33333369633 l16.6666673927,11.4035088435 -15.3508774669,2.63157898609 l-37.7193004353,-3.07017572416 " fill="none" stroke="black" stroke-width="1" /></svg>