<?xml version="1.0" encoding="utf-8" ?>
<svg baseProfile="full" height="300" version="1.1" width="300" xmlns="http://www.w3.org/2000/svg" xmlns:ev="http://www.w3.org/2001/xml-events" xmlns:xlink="http://www.w3.org/1999/xlink"><defs /><rect fill="none" height="300" width="300" x="0" y="0" /><path d="M95.7499988342,25.9999995199 m-12.9999993488,2.00000002631 l-10.499999727,3.50000012826 -17.4999993258,13.4999999309 m43.5000006544,-19.9999996054 l-6.49999967442,28.0000010261 -4.99999990134,91.0000007038 l-2.49999995067,14.4999997797 4.49999997698,2.99999987503 l61.9999985135,3.50000012826 46.5000015161,4.49999997698 l47.9999980005,12.5000000822 m-109.500001194,-17.9999999079 l-1.49999993752,25.9999986977 -4.99999990134,26.9999998619 l-2.49999995067,26.4999992798 -39.9999992107,12.9999993488 l-17.0000000592,9.49999987832 m56.9999979545,-21.9999993028 l-2.00000002631,19.5000003387 2.00000002631,11.5000002335 m-5.4999998257,-28.9999995593 l-21.5000000362,20.5000001875 m63.5000002598,-103.499994209 l-6.49999967442,37.4999989312 -1.00000001315,32.0000004209 m-1.49999993752,-7.50000018088 l-7.50000018088,15.0000003618 m11.5000002335,-14.000000513 " fill="none" stroke="black" stroke-width="1" /></svg>