<?xml version="1.0" encoding="utf-8" ?>
<svg baseProfile="full" height="300" version="1.1" width="300" xmlns="http://www.w3.org/2000/svg" xmlns:ev="http://www.w3.org/2001/xml-events" xmlns:xlink="http://www.w3.org/1999/xlink"><defs /><rect fill="none" height="300" width="300" x="0" y="0" /><path d="M79.0730324286,229.880622016 m1.40449440278,-29.8455053085 l0.702247201391,-33.7078638192 2.80898880556,-29.1432591464 l-0.351123600695,-33.0056195046 -0.351123600695,1.05337074435 l-2.4578652626,0.351123600695 -23.1741566066,-5.26685406817 l-18.6095500863,-3.16011234852 -6.32022469704,-1.40449440278 l-3.51123589148,-1.40449440278 -2.1067414887,-2.1067414887 l-1.40449440278,-1.75561794574 -0.702247201391,-2.1067414887 l0.0,-4.91573052521 3.51123589148,-7.72471886888 l3.51123589148,-4.91573052521 11.2359552223,-9.83146105041 l8.4269659548,-4.2134829774 9.48033704557,-3.16011234852 l10.5337081363,-2.1067414887 9.83146105041,-1.40449440278 l33.7078638192,-0.702247201391 21.0674162727,3.16011234852 l2.80898880556,1.75561794574 3.51123589148,3.51123589148 l8.77808995965,4.56460652036 14.0449435659,3.86235943444 l22.1207864397,1.05337074435 6.67134824,-1.05337074435 l11.9382023082,-5.96910115409 17.5561799193,-4.91573052521 l7.72471886888,-4.2134829774 9.83146105041,-8.07584287373 l9.48033704557,-11.9382023082 6.32022469704,9.12921304072 l17.9073039241,16.5028097523 -0.702247201391,1.75561794574 l-3.86235943444,3.86235943444 -7.72471886888,4.56460652036 l-11.5870783033,2.4578652626 -13.34269648,-1.40449440278 l-7.72471886888,9.12921304072 -1.05337074435,3.16011234852 l-1.05337074435,1.40449440278 -15.0983146567,15.0983146567 l-5.26685406817,6.32022469704 -5.26685406817,0.0 l-13.34269648,-2.1067414887 -27.3876409697,-2.80898880556 l-5.96910115409,0.0 -6.32022469704,0.351123600695 l-10.8848312174,3.16011234852 -14.0449435659,2.1067414887 l0.0,11.2359552223 -2.1067414887,15.8005617426 l-3.16011234852,17.5561799193 -9.12921304072,39.6769645114 l-2.1067414887,17.5561799193 m-1.05337074435,-1.75561794574 l-2.4578652626,-0.351123600695 -13.6938204849,-5.96910115409 l-16.1516857475,-4.91573052521 0.0,-0.702247201391 m14.7471906518,-84.2696650907 l21.41853843,-4.56460652036 11.2359552223,-1.05337074435 m-45.6460688987,119.382021234 l0.0,2.80898880556 2.4578652626,10.1825841315 l0.702247201391,8.77808995965 -0.351123600695,9.48033704557 l-2.1067414887,16.1516857475 0.351123600695,-2.4578652626 l4.2134829774,-5.61797761113 m175.561795498,-175.561795498 l-30.5477533182,-0.702247201391 -5.26685406817,-1.05337074435 l-1.75561794574,-2.1067414887 m15.0983146567,-5.26685406817 l-0.702247201391,1.05337074435 1.75561794574,0.702247201391 l2.4578652626,-1.40449440278 -1.40449440278,-0.702247201391 " fill="none" stroke="black" stroke-width="1" /></svg>