<?xml version="1.0" encoding="utf-8" ?>
<svg baseProfile="full" height="300" version="1.1" width="300" xmlns="http://www.w3.org/2000/svg" xmlns:ev="http://www.w3.org/2001/xml-events" xmlns:xlink="http://www.w3.org/1999/xlink"><defs /><rect fill="none" height="300" width="300" x="0" y="0" /><path d="M77.3743020666,275.0 m2.09497206276,-25.6052146448 l2.32774670238,-4.42271876514 1.39664799081,-10.4748603138 l3.95716948591,-15.5959029978 0.465549355786,-3.72439484629 l-1.39664799081,-6.75046546752 3.25884556706,-5.35381762982 l-1.39664799081,-4.18994412552 1.16387335119,-14.8975793852 l-5.81936690905,-46.7877102182 -12.1042824849,-48.1843549939 l-3.95716948591,-34.2178778417 -1.62942278353,-29.7951587703 l-2.560521342,0.0 6.51769113411,0.0 m4.65549340476,56.7970181908 l15.5959029978,-1.39664799081 13.2681559892,3.49162020667 l18.621973619,-1.39664799081 4.42271876514,1.62942278353 l53.5381738485,7.68156402599 7.44878969258,1.62942278353 l2.32774670238,1.62942278353 4.65549340476,-0.465549355786 l10.4748603138,-3.25884556706 13.500930935,-2.32774670238 l10.0093110346,-3.49162020667 7.91433897182,-0.931098711573 l0.698323995404,-0.931098711573 m-1.62942278353,1.62942278353 " fill="none" stroke="black" stroke-width="1" /></svg>