<?xml version="1.0" encoding="utf-8" ?>
<svg baseProfile="full" height="300" version="1.1" width="300" xmlns="http://www.w3.org/2000/svg" xmlns:ev="http://www.w3.org/2001/xml-events" xmlns:xlink="http://www.w3.org/1999/xlink"><defs /><rect fill="none" height="300" width="300" x="0" y="0" /><path d="M25.0,71.5070643558 m18.838303948,0.392464687094 l29.8273154447,-5.88697037095 16.8759813514,-4.70957598699 l0.392464687094,88.6970139915 3.13971749675,0.392464687094 l19.2307690868,10.2040812191 16.8759813514,4.31711136443 l31.397173935,3.13971749675 27.8649918157,-1.56985874838 l23.155416345,-2.3547879935 48.6656193927,-10.2040812191 l2.3547879935,-1.17739399675 0.784929374188,-2.74725287419 l1.96232337094,-20.4081624382 -9.0266878677,-17.2684454577 l-9.41915197399,-6.27943499351 -8.63422272887,-3.92464674187 l-17.2684454577,-5.49450574839 -38.0690730348,-0.784929374188 l-13.7362633384,1.17739399675 -46.7032978287,10.5965463579 l-12.9513340933,11.3814756031 -15.3061228612,10.9890114968 l-2.3547879935,9.81161711282 -0.392464687094,-3.53218211931 m78.8854020414,29.8273154447 l8.63422272887,68.6813208223 0.784929374188,3.92464674187 l0.784929374188,-0.392464687094 m-9.81161711282,-68.6813208223 l-15.3061228612,17.2684454577 -4.70957598699,9.41915197399 l-5.49450574839,6.67189961607 1.17739399675,1.96232337094 l6.67189961607,0.784929374188 6.27943499351,5.88697037095 l22.3704860673,11.7739407419 0.392464687094,-3.13971749675 m-88.6970139915,-79.6703323191 l40.8163248764,-16.4835162126 13.3437992321,-3.13971749675 l24.3328096964,-0.392464687094 6.67189961607,2.3547879935 l4.70957598699,4.31711136443 42.3861854318,22.3704860673 l48.2731542539,6.67189961607 " fill="none" stroke="black" stroke-width="1" /></svg>