<?xml version="1.0" encoding="utf-8" ?>
<svg baseProfile="full" height="300" version="1.1" width="300" xmlns="http://www.w3.org/2000/svg" xmlns:ev="http://www.w3.org/2001/xml-events" xmlns:xlink="http://www.w3.org/1999/xlink"><defs /><rect fill="none" height="300" width="300" x="0" y="0" /><path d="M218.561206929,81.4387985286 m1.19236878716,25.8346589287 l6.75675676559,49.2845774075 -11.5262319142,4.76947514866 l-8.74403785968,6.35930054677 m2.38473757433,0.794912568346 l20.2702708196,0.0 m11.5262319142,1.98728135551 l-215.421303016,57.2337038753 m0.0,0.0 l0.0,0.0 m201.90779053,-54.848967608 l17.0906200234,12.7186010935 5.96184432795,6.75675676559 l1.58982513669,-1.98728135551 1.98728135551,-9.14149460134 l-0.397456284173,-9.53895029732 8.74403785968,2.38473757433 l1.58982513669,1.98728135551 11.5262319142,4.76947514866 l-11.5262319142,-17.4880757194 -6.75675676559,-3.97456271102 l-15.1033384065,-3.17965027339 2.78219405457,-8.74403785968 l0.794912568346,-23.0524638285 -3.5771064922,-21.8600956949 l-0.397456284173,-20.2702708196 -1.98728135551,-1.58982513669 l-27.0270270624,-0.794912568346 6.75675676559,-4.76947514866 l-193.958655697,152.623204757 m0.0,0.0 m0.0,0.0 l164.546890276,-155.80285869 m-164.546890276,155.405401949 l0.0,0.0 m0.0,0.397456284173 l0.0,0.0 m0.0,0.0 l0.0,0.0 m0.0,0.397456284173 l0.0,0.0 m0.0,0.0 l0.0,0.0 m0.0,0.0 l0.0,0.0 m0.0,-0.397456284173 " fill="none" stroke="black" stroke-width="1" /></svg>