<?xml version="1.0" encoding="utf-8" ?>
<svg baseProfile="full" height="300" version="1.1" width="300" xmlns="http://www.w3.org/2000/svg" xmlns:ev="http://www.w3.org/2001/xml-events" xmlns:xlink="http://www.w3.org/1999/xlink"><defs /><rect fill="none" height="300" width="300" x="0" y="0" /><path d="M125.232199449,144.969032692 m0.773993834843,11.6099076499 l-4.64396275452,34.8297219316 1.54798766969,54.9535603648 l-6.96594438632,28.637772271 m16.2538698954,-129.256964437 l3.86996904695,1.54798766969 7.73993809389,17.0278636029 l39.4736862133,56.5015498163 -7.73993809389,3.86996904695 l-67.3374637586,15.4798761878 -53.405574986,-7.73993809389 l16.2538698954,28.637772271 m47.2136212528,12.3839013575 l23.9938079892,1.54798766969 20.897833159,-6.19195067875 m-40.2476768665,-125.386998954 l34.8297219316,-8.51393180147 19.3498457438,-11.6099076499 l30.1857596862,-75.077398798 37.9256967619,-11.6099076499 m-112.229104907,107.585144698 l-23.2198152998,0.773993834843 -19.3498457438,-11.6099076499 l-6.19195067875,-7.73993809389 -0.773993834843,-7.73993809389 l7.73993809389,-15.4798761878 34.0557272059,-26.3157901301 l46.4396305997,-11.6099076499 43.3436557694,-31.7337471013 l6.19195067875,-7.73993809389 " fill="none" stroke="black" stroke-width="1" /></svg>