<?xml version="1.0" encoding="utf-8" ?>
<svg baseProfile="full" height="300" version="1.1" width="300" xmlns="http://www.w3.org/2000/svg" xmlns:ev="http://www.w3.org/2001/xml-events" xmlns:xlink="http://www.w3.org/1999/xlink"><defs /><rect fill="none" height="300" width="300" x="0" y="0" /><path d="M135.929319006,25.0 m5.2356021303,58.2460718702 l8.50785292367,52.3560195812 m-16.3612565496,-109.293189412 l-26.1780097906,17.6701568669 9.81675410192,3.9267013825 l5.89005228897,17.0157058473 16.3612565496,19.6335082038 l1.96335069125,11.7801045779 -7.19895260632,14.3979052126 l15.0523562322,26.8324608102 -11.7801045779,-24.2146601755 l-1.96335069125,-16.3612565496 1.96335069125,-13.0890048953 l-1.96335069125,-7.853402765 -7.19895260632,-9.16230394325 l16.3612565496,48.4293203509 m4.58115197162,20.9424085212 l2.61780106515,61.5183269681 -13.743455054,1.30890053257 l-5.89005228897,3.27225122382 -20.9424085212,22.9057581363 l3.9267013825,2.61780106515 24.8691094732,0.0 l20.9424085212,-5.89005228897 m-11.1256544193,-33.3769641187 l4.58115197162,10.4712042606 13.743455054,14.3979052126 l7.853402765,17.6701568669 12.4345547366,17.6701568669 l4.58115197162,17.0157058473 -0.654450266287,9.16230394325 " fill="none" stroke="black" stroke-width="1" /></svg>