<?xml version="1.0" encoding="utf-8" ?>
<svg baseProfile="full" height="300" version="1.1" width="300" xmlns="http://www.w3.org/2000/svg" xmlns:ev="http://www.w3.org/2001/xml-events" xmlns:xlink="http://www.w3.org/1999/xlink"><defs /><rect fill="none" height="300" width="300" x="0" y="0" /><path d="M161.645968773,161.25776396 m0.0,-48.1366430201 l-83.8509281325,-15.5279494272 -19.4099372947,17.8571425562 l7.76397471361,55.1242203645 13.9751546888,-3.8819873568 l31.0558988544,24.06832151 -8.54037208284,32.6086935929 l54.3478219739,0.776397496894 25.6211162485,-10.8695652118 l92.391302258,-75.3105540071 -0.776397496894,-9.31676945206 l-76.0869523976,-12.4223599503 -27.9503093775,10.8695652118 l-13.1987573195,8.54037208284 -34.9378867219,30.2795025065 l129.658375981,-41.1490656757 -156.832295139,121.894408417 l34.9378867219,-112.577635901 38.8198745894,60.559005013 l-58.2298098414,37.2670778083 27.173910987,-100.155277993 l63.6645944899,-0.776397496894 -135.093164715,107.142855337 l108.695643948,-166.925457875 10.8695652118,-1.55279499379 l-122.670798637,160.71427075 62.8881960994,-117.236018073 l34.9378867219,-13.1987573195 -135.869563105,140.527945278 l1.55279499379,-10.8695652118 81.5217329609,-145.186335621 l-59.7826066225,41.1490656757 -5.43478260592,13.9751546888 l40.3726672852,-56.6770171456 -16.3043467964,-29.503104116 l-28.7267077681,124.999993808 31.0558988544,27.173910987 l76.0869523976,20.1863336426 127.32918898,-11.6459625811 l-3.8819873568,4.65838472603 -17.8571425562,8.54037208284 m-28.7267077681,-22.5155267716 l-17.0807441657,-32.6086935929 -14.751552058,-101.708066603 l10.0931668213,-11.6459625811 55.900618755,31.0558988544 l8.54037208284,25.6211162485 -83.8509281325,66.7701839669 l-12.4223599503,-0.776397496894 " fill="none" stroke="black" stroke-width="1" /></svg>