<?xml version="1.0" encoding="utf-8" ?>
<svg baseProfile="full" height="300" version="1.1" width="300" xmlns="http://www.w3.org/2000/svg" xmlns:ev="http://www.w3.org/2001/xml-events" xmlns:xlink="http://www.w3.org/1999/xlink"><defs /><rect fill="none" height="300" width="300" x="0" y="0" /><path d="M150.608268808,103.467156731 m-1.82481742626,120.437954534 l1.21654501752,51.0948887354 m-48.6617991005,-175.790752531 l38.3211673517,-4.86618007008 62.0437968937,-2.43309003504 l-3.04136244378,-7.29926970504 -7.90754211378,-57.1776176238 l6.6909972963,-2.43309003504 53.5279783704,7.90754211378 l9.73236014015,3.04136244378 0.0,32.238441664 m-40.1459837778,-39.5377137695 l-4.25790766134,12.7737221839 -9.73236014015,3.04136244378 l-9.12408773141,0.0 -8.51581532267,-4.86618007008 l-4.86618007008,-6.6909972963 m-41.9708034045,57.1776176238 l-26.7639891852,49.8783455183 -14.5985394101,18.8564470714 l-32.8467148729,32.238441664 12.1654497751,1.82481742626 l112.530415621,1.82481742626 m-82.1167871823,-96.1070517831 l-3.64963485252,-1.82481742626 -54.7445247882,-1.82481742626 l-3.64963485252,-1.21654501752 -9.12408773141,-10.9489049576 l19.4647202803,11.5571773664 38.3211673517,15.206812619 l14.5985394101,2.43309003504 34.671531299,0.60827250876 l1.82481742626,-7.29926970504 4.25790766134,-3.64963485252 l31.6301684551,-7.29926970504 10.3406325489,0.0 l-9.73236014015,5.47445247882 -18.8564470714,5.47445247882 l-68.734789389,9.73236014015 72.3844286424,-6.6909972963 l67.5182493725,-9.73236014015 -73.6009750602,4.86618007008 " fill="none" stroke="black" stroke-width="1" /></svg>