<?xml version="1.0" encoding="utf-8" ?>
<svg baseProfile="full" height="300" version="1.1" width="300" xmlns="http://www.w3.org/2000/svg" xmlns:ev="http://www.w3.org/2001/xml-events" xmlns:xlink="http://www.w3.org/1999/xlink"><defs /><rect fill="none" height="300" width="300" x="0" y="0" /><path d="M203.631754277,35.1351348142 m10.979729139,-9.29054021164 l13.5135136411,-0.844594602571 4.22297287398,22.8040538528 l21.1148649254,13.5135136411 -4.22297287398,3.37837841028 l-29.5608095623,7.60135128426 -16.8918914959,21.9594582781 l-23.6486494275,21.9594582781 m20.2702693507,-76.0135128426 l-33.7837829918,54.0540545645 -7.60135128426,5.91216235687 l-80.236481828,3.37837841028 -17.7364859596,-10.979729139 l-13.5135136411,-13.5135136411 9.29054021164,32.9391896391 l17.7364859596,14.3581081048 5.06756733767,47.297298855 l4.22297287398,4.22297287398 8.44594574795,2.53378366883 l48.9864855603,0.844594602571 14.3581081048,-6.75675682057 l10.1351346753,-12.6689191774 7.60135128426,-34.6283785665 l21.9594582781,-21.9594582781 m-101.35135342,76.0135128426 l-10.979729139,37.1621608466 -0.844594602571,42.2297298508 l31.2500007118,10.1351346753 m-31.2500007118,-19.425675998 l-5.91216235687,23.6486494275 m10.979729139,-21.9594582781 l0.844594602571,5.06756733767 7.60135128426,6.75675682057 " fill="none" stroke="black" stroke-width="1" /></svg>