<?xml version="1.0" encoding="utf-8" ?>
<svg baseProfile="full" height="300" version="1.1" width="300" xmlns="http://www.w3.org/2000/svg" xmlns:ev="http://www.w3.org/2001/xml-events" xmlns:xlink="http://www.w3.org/1999/xlink"><defs /><rect fill="none" height="300" width="300" x="0" y="0" /><path d="M157.734532246,203.642710766 m-2.49501006832,40.9181663019 l-3.49301429257,28.9421169237 1.49700600817,1.49700600817 m29.4411195282,-65.8682650158 l-0.499002030074,55.3892260766 m-43.4131766984,-225.548904137 l-41.4171689064,18.4630753589 -16.467066254,5.48902208465 l-2.99401201634,2.99401201634 28.9421169237,3.99201624059 l36.9261507178,0.499002030074 m-4.99002013663,-36.4271481133 l21.457087047,-7.48503053315 9.48103832524,-1.49700600817 l11.9760480653,0.499002030074 7.98403248118,3.49301429257 l17.9640727544,10.4790422213 6.98602858513,7.98403248118 l4.99002013663,10.4790422213 2.49501006832,22.9540935475 l-11.4770467737,31.9361299247 -5.48902208465,9.98004027326 l-10.4790422213,5.98802403267 -24.9501013396,0.998004060147 l-13.4730545658,-8.4830344292 -9.48103832524,-14.4710584619 l-4.49101818861,-9.98004027326 -4.49101818861,-28.4431143193 " fill="none" stroke="black" stroke-width="1" /></svg>