<?xml version="1.0" encoding="utf-8" ?>
<svg baseProfile="full" height="300" version="1.1" width="300" xmlns="http://www.w3.org/2000/svg" xmlns:ev="http://www.w3.org/2001/xml-events" xmlns:xlink="http://www.w3.org/1999/xlink"><defs /><rect fill="none" height="300" width="300" x="0" y="0" /><path d="M134.289615515,188.820583008 m0.0,0.0 m14.3442622263,-14.3442622263 l7.28597459729,-6.14754095415 1.13843349339,-2.95992699295 l-3.41530062992,-0.683060081057 -14.1165752581,0.0 l-43.4881582194,11.3843352334 -21.1748640852,4.55373397355 l-2.73224032423,1.82149364932 2.73224032423,0.455373412331 l4.78142064228,-1.36612016211 14.3442622263,-6.83060125984 l7.74134793474,-2.73224032423 21.6302356256,-4.0983606361 l25.9562832299,-0.910746824661 42.5774151386,0.227686706165 l2.73224032423,0.227686706165 -2.95992699295,2.95992699295 l-10.4735885585,4.78142064228 -21.4025510534,5.91985398591 l-22.3132965303,7.28597459729 -24.3624768483,5.91985398591 l-32.3315111523,3.87067396737 -12.5227688765,0.455373412331 l1.82149364932,-0.910746824661 5.69216761669,-6.6029142916 m141.848818278,0.455373412331 l-3.64298729865,3.41530062992 -8.65209460965,3.87067396737 l-31.6484526437,9.33515491534 -20.7194901487,5.23679427924 l-23.4517313715,3.64298729865 -32.7868850888,2.5045536555 l-37.5683066296,0.455373412331 m-34.1530045021,-140.027322532 l19.5810565056,4.0983606361 37.5683066296,5.91985398591 l35.0637523751,2.95992699295 36.8852457249,2.5045536555 l39.8451739159,1.5938069806 81.056464849,0.0 " fill="none" stroke="black" stroke-width="1" /></svg>