<?xml version="1.0" encoding="utf-8" ?>
<svg baseProfile="full" height="300" version="1.1" width="300" xmlns="http://www.w3.org/2000/svg" xmlns:ev="http://www.w3.org/2001/xml-events" xmlns:xlink="http://www.w3.org/1999/xlink"><defs /><rect fill="none" height="300" width="300" x="0" y="0" /><path d="M177.629577653,36.4329354107 m0.0,83.0792667289 l-56.4024391402,0.0 -0.762195113354,1.90548772072 l0.0,149.00913971 1.52439022671,4.57317042946 m0.381097556677,-154.72560964 l-28.5823155601,-1.52439022671 -0.762195113354,-15.2439017658 l1.14329260737,-3.81097544144 4.95426792348,-7.62195088288 l5.33536591881,-4.95426792348 3.81097544144,-1.52439022671 l30.4878035315,-0.381097556677 11.4329268256,5.71646341282 l11.8140238183,9.14634085893 13.3384137944,4.57317042946 l1.14329260737,21.7225596653 -99.0853664906,0.0 m96.4176805233,-91.4634146051 l1.90548772072,0.0 8.76524386623,-8.3841458709 l15.2439017658,-1.52439022671 5.71646341282,0.0 l9.52743885426,4.95426792348 7.62195088288,1.90548772072 l-11.4329268256,5.33536591881 -14.100609785,3.81097544144 l-20.9603656799,0.381097556677 m15.2439017658,-9.90853584695 l0.0,0.0 " fill="none" stroke="black" stroke-width="1" /></svg>