<?xml version="1.0" encoding="utf-8" ?>
<svg baseProfile="full" height="300" version="1.1" width="300" xmlns="http://www.w3.org/2000/svg" xmlns:ev="http://www.w3.org/2001/xml-events" xmlns:xlink="http://www.w3.org/1999/xlink"><defs /><rect fill="none" height="300" width="300" x="0" y="0" /><path d="M119.89967321,48.411368359 m1.25418052637,15.0501668663 l6.27090304429,33.0267540901 22.5752502995,67.307690219 l-0.83612039674,7.52508343317 -5.85284291466,22.5752502995 l-8.77926382205,-2.92642145733 -25.501670657,-2.92642145733 l-7.10702330354,2.50836105273 -7.10702330354,7.52508343317 l6.68896317392,2.92642145733 16.3043478052,11.2876251498 l5.85284291466,0.0 m23.8294301385,-22.1571896199 l94.4815991947,46.8227433173 25.501670657,17.1404680644 l7.52508343317,6.68896317392 m-155.936457498,-204.013365256 l-15.4682275459,-0.83612039674 -22.1571896199,3.34448158696 l-22.5752502995,5.43478223509 -12.9598656683,0.83612039674 l-15.8862871256,-2.50836105273 -4.18060184621,-3.34448158696 l-0.83612039674,-4.59866197584 8.36120369243,-5.43478223509 l22.5752502995,-9.19732395168 17.9765883237,-1.25418052637 l25.0836121772,0.0 23.4113716587,10.8695644702 m3.76254171659,10.0334442109 l-5.01672210547,7.9431435628 -25.0836121772,62.2909664637 l-10.0334442109,-4.18060184621 -43.0602016007,-9.19732395168 l-7.52508343317,-2.92642145733 -5.01672210547,-5.01672210547 m94.8996598743,-37.2073564863 l65.6354519002,39.2976598841 22.1571896199,7.10702330354 l30.1003337327,-1.25418052637 10.8695644702,-8.36120369243 m-206.939790013,-60.2006674654 l2.09030092311,0.83612039674 -0.41806019837,1.25418052637 " fill="none" stroke="black" stroke-width="1" /></svg>