<?xml version="1.0" encoding="utf-8" ?>
<svg baseProfile="full" height="300" version="1.1" width="300" xmlns="http://www.w3.org/2000/svg" xmlns:ev="http://www.w3.org/2001/xml-events" xmlns:xlink="http://www.w3.org/1999/xlink"><defs /><rect fill="none" height="300" width="300" x="0" y="0" /><path d="M70.4545461576,133.743686899 m0.0,2.84090904726 l-9.46969710103,-7.57575718254 m-0.631313133148,0.0 l-1.2626262663,0.0 m-11.679293119,4.10353510594 l10.1010101304,-1.57828278097 m1.89393929564,1.89393929564 m-7.57575718254,1.57828278097 l5.99747460919,-0.631313133148 m0.0,0.0 m-11.9949492184,2.84090904726 l-1.89393929564,0.0 m-0.946969647818,0.631313133148 l2.84090904726,-0.631313133148 22.4116154482,15.1515143651 m0.0,0.0 l0.631313133148,0.0 m-1.57828278097,0.631313133148 l5.68181809452,-0.315656566574 m3.4722220766,0.0 l5.05050506519,0.631313133148 -0.315656566574,1.89393929564 l-2.84090904726,2.52525253259 m-4.73484855052,3.78787859127 m-12.3106061483,4.41919203585 l-2.52525253259,1.57828278097 m-5.68181809452,1.57828278097 l-2.20959601792,0.0 m-3.78787859127,1.2626262663 l-1.57828278097,0.0 m-1.57828278097,0.315656566574 l-18.9393942021,4.41919203585 m139.520203568,-50.189392061 m2.20959601792,0.315656566574 l9.46969710103,2.52525253259 m1.2626262663,0.315656566574 l7.89141411245,0.946969647818 m1.2626262663,0.315656566574 m0.946969647818,0.631313133148 l13.2575752771,2.84090904726 m0.0,0.0 l9.78535320047,1.89393929564 m3.4722220766,0.631313133148 l1.57828278097,0.315656566574 m5.36616157985,0.315656566574 l11.0479792591,0.631313133148 m0.0,0.0 m1.2626262663,0.631313133148 l5.36616157985,0.0 2.84090904726,1.2626262663 m4.10353510594,0.946969647818 l5.99747460919,2.52525253259 m23.3585862379,0.631313133148 l-21.4646463194,17.0454542836 " fill="none" stroke="black" stroke-width="1" /></svg>