<?xml version="1.0" encoding="utf-8" ?>
<svg baseProfile="full" height="300" version="1.1" width="300" xmlns="http://www.w3.org/2000/svg" xmlns:ev="http://www.w3.org/2001/xml-events" xmlns:xlink="http://www.w3.org/1999/xlink"><defs /><rect fill="none" height="300" width="300" x="0" y="0" /><path d="M83.0357209373,96.4285799378 m1.91326518199,32.525510401 l13.3928564837,91.8367320914 3.18877537323,0.63775509562 l1.27551019124,-3.18877537323 m77.8061172612,-107.14285187 l10.2040815299,42.0918344233 4.46428577421,33.8010187046 l1.27551019124,37.627550327 m-16.5816314375,-116.709182603 l-2.55102038248,-13.3928564837 m16.5816314375,126.275506626 l3.18877537323,14.0306114744 -7.01530573722,12.7551014929 m7.01530573722,-27.4234687971 l-14.6683673041,1.27551019124 -14.0306114744,9.56632653917 l1.27551019124,1.27551019124 m26.1479588156,-12.1173465022 l22.3214271932,22.3214271932 m-116.071426774,-23.5969388526 l12.7551014929,15.3061214559 m-13.3928564837,-17.8571430968 l7.01530573722,-0.63775509562 26.7857129674,9.56632653917 m-35.076530364,-5.73979575572 l-3.82653036399,19.1326530783 -3.18877537323,36.3520386676 l11.4795915114,-19.1326530783 m-22.9591830229,-165.178571968 l2.55102038248,-24.2346930044 14.6683673041,-41.4540819494 l15.3061214559,3.18877537323 18.4948972487,8.29081571873 l28.0612229489,16.5816314375 26.1479588156,26.7857129674 l0.63775509562,3.18877537323 -9.56632653917,23.5969388526 l-3.82653036399,15.9438772856 -2.55102038248,31.2499987416 " fill="none" stroke="black" stroke-width="1" /></svg>