<?xml version="1.0" encoding="utf-8" ?>
<svg baseProfile="full" height="300" version="1.1" width="300" xmlns="http://www.w3.org/2000/svg" xmlns:ev="http://www.w3.org/2001/xml-events" xmlns:xlink="http://www.w3.org/1999/xlink"><defs /><rect fill="none" height="300" width="300" x="0" y="0" /><path d="M120.833332249,119.791666338 m-3.12499987154,6.24999974307 l2.08333336188,103.124999529 -24.9999989723,39.583332848 l31.2500007708,-31.2500007708 7.29166693787,37.4999998287 m-6.24999974307,-36.4583319488 l16.666666895,11.4583329765 12.4999994861,13.5416659958 m-66.6666675802,-139.583331478 l1.04166668094,9.37499995718 m22.916665953,-12.4999994861 l-43.7499988867,63.5416639404 99.9999958892,15.6250003854 l-1.04166668094,22.916665953 m-2.08333336188,-27.0833319916 l32.2916659102,7.29166693787 m-30.2083328909,-5.20833323342 l29.1666677515,-24.9999989723 m-84.3749996146,-59.3749979018 l-51.0416658245,-7.29166693787 -12.4999994861,-8.33333344752 l-24.9999989723,-26.0416668522 21.8749994433,17.7083334047 l62.5000015416,31.2500007708 20.8333329337,0.0 l68.749997859,-53.1250015844 6.24999974307,1.04166668094 l30.2083328909,19.791666424 -28.1249998715,-26.0416668522 l42.7083337473,15.6250003854 -36.4583319488,-22.916665953 l23.9583338329,-2.08333336188 37.4999998287,-21.8749994433 l-21.8749994433,2.08333336188 -46.8749997859,16.666666895 l6.24999974307,-4.16666672376 8.33333344752,-20.8333329337 " fill="none" stroke="black" stroke-width="1" /></svg>