<?xml version="1.0" encoding="utf-8" ?>
<svg baseProfile="full" height="300" version="1.1" width="300" xmlns="http://www.w3.org/2000/svg" xmlns:ev="http://www.w3.org/2001/xml-events" xmlns:xlink="http://www.w3.org/1999/xlink"><defs /><rect fill="none" height="300" width="300" x="0" y="0" /><path d="M220.153068147,147.448981289 m-12.026238718,4.00874623933 l-25.874635079,-21.5014578863 -12.3906706301,-2.18658883603 l-26.2390669911,2.18658883603 -12.3906706301,12.3906706301 l-14.5772592264,8.38192439078 -19.3148683312,18.2215745124 l-19.6793002433,35.3498532885 -6.55976674778,8.38192439078 l-1.8221574033,28.7900865408 6.55976674778,8.01749247866 l4.37317767205,10.5685129871 7.65306104594,9.83965012166 l8.7463553441,5.10204101689 34.6209894643,-6.55976674778 l34.6209894643,-12.026238718 10.9329448992,-13.4839654077 l5.10204101689,-4.00874623933 18.5860064246,-10.5685129871 l4.73760910477,-14.2128282731 2.18658883603,-29.1545184529 l-0.728862985292,-21.1370259742 -8.01749247866,-31.7055399201 l-22.9591836172,-24.052477436 -5.83090388233,-3.64431480661 l-11.6618077647,-0.728862985292 -32.7988337389,2.55102050844 l-39.7230323988,7.28862961322 -33.8921294752,14.5772592264 m49.5626825204,-14.2128282731 l-17.1282806937,12.3906706301 -56.8513130924,6.55976674778 l41.9096200363,-29.518950365 25.5102031669,-7.28862961322 l32.4344018268,-6.9241981805 31.341108008,-8.38192439078 l29.518950365,-11.6618077647 28.4256565462,-6.19533531505 l37.9008728382,-13.848396361 13.1195334956,-1.8221574033 l4.73760910477,-2.55102050844 0.364431492646,-14.2128282731 l0.0,-2.55102050844 -4.73760910477,-1.8221574033 l-26.9679308153,-1.09329441801 -19.3148683312,4.00874623933 l-12.3906706301,13.4839654077 -43.0029157727,24.4169093481 l-25.5102031669,19.3148683312 -22.9591836172,21.5014578863 l-23.3236155293,38.2653047503 -5.10204101689,5.10204101689 l-2.18658883603,13.4839654077 0.0,7.28862961322 l5.46647244961,7.65306104594 3.27988337389,1.45772597058 l7.28862961322,0.0 4.37317767205,-3.27988337389 l10.5685129871,-1.45772597058 19.6793002433,-5.46647244961 l25.874635079,-11.2973758525 5.83090388233,-8.38192439078 l1.09329441801,-3.64431480661 1.45772597058,-6.55976674778 l-0.364431492646,-15.3061220919 " fill="none" stroke="black" stroke-width="1" /></svg>