<?xml version="1.0" encoding="utf-8" ?>
<svg baseProfile="full" height="300" version="1.1" width="300" xmlns="http://www.w3.org/2000/svg" xmlns:ev="http://www.w3.org/2001/xml-events" xmlns:xlink="http://www.w3.org/1999/xlink"><defs /><rect fill="none" height="300" width="300" x="0" y="0" /><path d="M121.80284517,145.337477586 m-1.99822380833,5.3285966275 l-1.33214915687,6.43872109527 -0.222024871648,27.5310830622 l-13.9875666583,12.4333931044 -3.55239794638,1.55417413805 l-3.33037311124,-5.77264629778 3.99644761666,-8.88099457388 l3.77442278152,-11.1012435094 m16.2078155938,-29.0852566161 l0.666074578437,-3.55239794638 2.22024864347,-4.44049728694 l20.4262883377,-28.419183571 6.43872109527,-3.33037311124 l13.0994673177,-2.66429831375 3.99644761666,0.444049743297 l0.666074578437,1.11012432173 0.888099486594,7.54884556303 l-0.888099486594,35.5239782955 -1.11012432173,0.666074578437 l-3.77442278152,-3.55239794638 -7.54884556303,-9.76909391444 l-1.99822380833,-3.77442278152 0.0,-5.10657208442 l-0.444049743297,-1.11012432173 -1.11012432173,-0.444049743297 l-15.5417402122,5.3285966275 -8.6589700308,5.5506217547 l-4.44049728694,0.666074578437 m-99.2451197078,7.54884556303 l22.2024870188,9.32504424416 21.5364116372,3.55239794638 l20.2042632105,1.55417413805 40.1865012938,6.88277076555 l42.62877302,3.33037311124 18.2060394022,0.666074578437 l7.10479589275,-1.11012432173 8.43694490359,-0.222024871648 l6.88277076555,-1.77619897319 5.5506217547,0.666074578437 l29.5293068705,-6.43872109527 8.88099457388,-0.666074578437 l8.21492036052,-1.55417413805 10.4351692961,0.666074578437 m-113.454709157,-40.408526421 l-1.33214915687,2.44227347861 1.11012432173,-0.888099486594 l-0.222024871648,-1.11012432173 -0.444049743297,1.11012432173 m7.54884556303,27.309057935 l-6.66074622247,-10.2131441688 -0.888099486594,-3.77442278152 l0.222024871648,-2.22024864347 " fill="none" stroke="black" stroke-width="1" /></svg>