<?xml version="1.0" encoding="utf-8" ?>
<svg baseProfile="full" height="300" version="1.1" width="300" xmlns="http://www.w3.org/2000/svg" xmlns:ev="http://www.w3.org/2001/xml-events" xmlns:xlink="http://www.w3.org/1999/xlink"><defs /><rect fill="none" height="300" width="300" x="0" y="0" /><path d="M150.935161793,98.566084143 m-0.623441400599,48.6284294518 m11.8453863038,-56.733167147 l1.87032409928,48.6284294518 m-13.0922689,-40.5236917565 l-3.74064819857,0.0 -18.0798001048,-14.3391523163 l-1.2468828012,-11.8453863038 4.98753120479,-5.61097250288 l-89.775560046,-12.4688276019 71.0723161828,0.623441400599 l31.7955119431,-9.3516211115 4.98753120479,-18.0798001048 l6.85785509905,-2.4937656024 8.10473769522,3.74064819857 l3.74064819857,18.703242223 -12.4688276019,28.6783046326 l-2.4937656024,11.2219450058 0.0,9.97506240958 l6.85785509905,2.4937656024 1.87032409928,4.36408990671 l1.2468828012,44.887780023 28.6783046326,-15.5860349125 l8.10473769522,-2.4937656024 23.0673321297,0.623441400599 l25.561097322,21.1970074153 6.23441380096,20.5735652971 l0.623441400599,19.326682701 -56.733167147,24.9376552039 l-49.8753104077,-42.3940148307 1.87032409928,-4.98753120479 l0.0,-22.4438900115 m16.8329175086,39.2768075201 l1.87032409928,3.74064819857 -8.72817981341,58.6034935016 l0.0,25.561097322 m16.2094753904,-21.1970074153 l12.4688276019,-22.4438900115 -2.4937656024,-39.2768075201 " fill="none" stroke="black" stroke-width="1" /></svg>