<?xml version="1.0" encoding="utf-8" ?>
<svg baseProfile="full" height="300" version="1.1" width="300" xmlns="http://www.w3.org/2000/svg" xmlns:ev="http://www.w3.org/2001/xml-events" xmlns:xlink="http://www.w3.org/1999/xlink"><defs /><rect fill="none" height="300" width="300" x="0" y="0" /><path d="M101.406252154,176.250003844 m-9.68749964628,52.1874976171 l-4.37500010547,33.1249986844 -0.625000000385,13.4374998541 m24.6874988334,-102.499999652 l0.937499949193,34.6875004839 0.937499949193,6.56249974712 l-28.1249995035,-2.81249995035 m-2.18750005273,-57.8125008064 l2.18750005273,4.68750005428 5.93749984951,5.93749984951 l4.68750005428,2.50000000154 9.68749964628,1.87499989839 l26.2499989885,0.312500000193 14.6875004715,-2.50000000154 l13.7499993919,-4.37500010547 18.1249994973,-8.43749985105 l11.874999699,-7.81249995343 6.56249974712,-5.6249999007 l14.6875004715,-16.5624993422 6.56249974712,-11.2499998014 l3.43749984796,-9.37500010855 -49.6874980266,0.937499949193 l-69.0625006078,-3.74999979677 -2.18750005273,-7.81249995343 l-2.50000000154,-21.5625001675 -2.81249995035,-43.4375006948 m-11.874999699,-1.87499989839 l-3.12499989916,24.9999991933 0.312500000193,10.3124995439 l2.50000000154,14.3750001116 0.312500000193,12.1875000589 l-3.43749984796,28.7500002233 -1.25000000077,24.0624997579 l1.87499989839,10.3124995439 8.43749985105,12.8124999565 " fill="none" stroke="black" stroke-width="1" /></svg>