<?xml version="1.0" encoding="utf-8" ?>
<svg baseProfile="full" height="300" version="1.1" width="300" xmlns="http://www.w3.org/2000/svg" xmlns:ev="http://www.w3.org/2001/xml-events" xmlns:xlink="http://www.w3.org/1999/xlink"><defs /><rect fill="none" height="300" width="300" x="0" y="0" /><path d="M178.125004334,106.250005853 m-46.2500014912,-0.625000011819 l-10.0000001891,10.6250000981 -5.6250000036,10.0000001891 l1.87499993269,3.74999986537 8.750000371,5.00000009455 l33.7500000216,8.750000371 21.8749992832,0.0 l27.4999992868,-5.6250000036 5.6250000036,-6.24999991265 l1.25000002364,-10.0000001891 -7.49999973074,-14.3750003746 l-34.3750007528,-10.6250000981 m-38.749999294,5.00000009455 l-25.6250003818,-33.7500000216 -11.2500000072,-18.7500005601 m19.374999647,64.9999971183 l-11.2500000072,-16.2499992796 -10.0000001891,-20.0000003782 m2.50000004727,-25.6250003818 l5.6250000036,-9.37500028005 0.625000011819,-3.74999986537 l-3.12499995632,-3.74999986537 -10.0000001891,-5.6250000036 l-6.87499982169,-1.25000002364 -9.37500028005,1.25000002364 l-31.2500003854,28.7500007492 -9.37500028005,6.24999991265 l-11.2500000072,3.74999986537 13.7499996434,1.87499993269 l45.0000000288,0.0 m46.2500014912,51.2500007636 l-3.12499995632,8.750000371 -3.12499995632,38.749999294 l-4.3750001855,8.750000371 m45.0000000288,-41.8749996614 l-38.1249985628,63.125001502 m54.9999985735,-57.5000014984 l16.8750000108,129.374993505 m1.87499993269,-126.250003004 l42.5000003926,76.2499971255 m-23.1250007456,-76.8749978567 l55.6249993048,9.37500028005 -31.2500003854,-3.74999986537 l18.1249998289,11.2500000072 -29.3750014804,-12.4999998253 l-37.5000011202,-23.1250007456 4.3750001855,-3.74999986537 l31.2500003854,-0.625000011819 -56.8750007672,-19.374999647 m-89.3749993263,-68.1250007744 l0.625000011819,9.37500028005 " fill="none" stroke="black" stroke-width="1" /></svg>