<?xml version="1.0" encoding="utf-8" ?>
<svg baseProfile="full" height="300" version="1.1" width="300" xmlns="http://www.w3.org/2000/svg" xmlns:ev="http://www.w3.org/2001/xml-events" xmlns:xlink="http://www.w3.org/1999/xlink"><defs /><rect fill="none" height="300" width="300" x="0" y="0" /><path d="M85.4395618432,103.296713203 m17.1703291541,14.4230760196 l29.5329660004,13.7362629619 -32.9670303857,-11.6758237886 l-33.6538443469,-6.18131842318 m7.55494453867,-4.80769230769 l-18.5439552695,-11.6758237886 -16.4835151928,-19.2307692308 l-4.80769230769,-10.3021976731 m46.0164811933,70.0549445387 l-6.86813148093,-2.74725268272 -10.9890107309,-15.1098890773 l33.6538443469,21.2912075005 30.9065921159,15.1098890773 m-48.076919463,-27.4725259237 l-9.61538461538,2.0604393991 -13.7362629619,12.3626368464 l-21.2912075005,31.5934060771 m81.0439534626,-17.8571413083 l-39.8351627701,16.4835151928 -14.4230760196,10.9890107309 l-19.917581385,26.0988998082 m83.7912020797,-62.4999981931 l-35.0274722693,37.0879105391 -27.4725259237,42.5824150011 m65.2472468101,-63.1868121543 l-15.7967030386,19.917581385 -15.7967030386,24.7252736927 l-15.1098890773,29.5329660004 -11.6758237886,36.4010965779 m128.434066192,-168.956032082 l-1.37362634136,-2.74725268272 10.3021976731,-8.92857065416 l60.4395563094,-43.2692289623 m-87.912085847,58.3791180396 l31.5934060771,-8.92857065416 47.3901091157,-17.8571413083 m-79.6703255402,46.0164811933 l43.2692289623,-11.6758237886 44.6428568847,-18.5439552695 m-89.2857137694,49.4505473855 l30.2197781547,10.9890107309 52.8846135777,14.4230760196 m-77.6098836565,-10.9890107309 l65.2472468101,52.1977996164 19.917581385,18.5439552695 m-81.7307674238,-56.3186797699 l14.4230760196,16.4835151928 10.3021976731,20.6043953463 m-69.3681305775,-15.7967030386 l-4.12087879821,-4.12087879821 -11.6758237886,-32.9670303857 l-0.68681317068,-19.2307692308 4.12087879821,-38.4615384615 l4.80769230769,-13.7362629619 4.80769230769,-5.49450536544 l3.43406574046,7.55494453867 8.24175759642,48.7637334242 l2.0604393991,65.2472468101 2.74725268272,24.7252736927 m-15.1098890773,-93.406590309 l3.43406574046,35.7142826167 8.92857065416,39.1483488089 m-39.8351627701,-152.472525924 l-16.4835151928,-5.49450536544 -10.3021976731,-9.61538461538 m60.4395563094,6.86813148093 l17.1703291541,-13.7362629619 22.664833616,-12.3626368464 " fill="none" stroke="black" stroke-width="1" /></svg>