<?xml version="1.0" encoding="utf-8" ?>
<svg baseProfile="full" height="300" version="1.1" width="300" xmlns="http://www.w3.org/2000/svg" xmlns:ev="http://www.w3.org/2001/xml-events" xmlns:xlink="http://www.w3.org/1999/xlink"><defs /><rect fill="none" height="300" width="300" x="0" y="0" /><path d="M179.097388906,130.700712622 m-1.78147259688,5.34441798592 l0.0,85.5106877748 8.31353943639,29.6912113801 m-1.78147259688,-121.14014518 l-46.3182902529,2.96912105989 -24.9406167469,-1.18764846302 l-4.75059385206,-36.2232760714 1.78147259688,-34.441804451 l-27.9097397596,0.593824231508 m35.035629366,2.37529692603 l39.1923975219,-5.93824211979 29.0973864651,-0.593824231508 l25.5344416619,4.75059385206 6.53206625365,4.1567697182 l1.18764846302,35.035629366 -4.75059385206,30.8788580855 l-32.0665079155,0.0 m-57.0071231001,-68.883608902 l-1.78147259688,-36.8171009865 -2.96912105989,-1.78147259688 l-28.5035615501,1.18764846302 -5.93824211979,1.18764846302 l-0.593824231508,2.96912105989 0.593824231508,38.5985757315 m21.3776719437,-30.2850362951 l1.18764846302,3.56294519376 m1.18764846302,37.4109259015 l-18.4085504932,0.593824231508 -2.37529692603,-2.96912105989 l0.0,-10.6888359718 m102.731591563,185.273161011 l-33.2541577456,-1.18764846302 m3.56294519376,0.593824231508 l-5.93824211979,-2.96912105989 -2.37529692603,-13.6579574223 m10.095011838,19.596198761 l-27.3159148446,1.18764846302 m27.3159148446,4.1567697182 l-3.56294519376,15.4394290428 " fill="none" stroke="black" stroke-width="1" /></svg>