<?xml version="1.0" encoding="utf-8" ?>
<svg baseProfile="full" height="300" version="1.1" width="300" xmlns="http://www.w3.org/2000/svg" xmlns:ev="http://www.w3.org/2001/xml-events" xmlns:xlink="http://www.w3.org/1999/xlink"><defs /><rect fill="none" height="300" width="300" x="0" y="0" /><path d="M56.2500006801,34.6507358242 m-31.2500006801,-1.8382353519 l14.7058828152,0.0 9.19117645725,-3.67647070381 l17.4632353897,17.4632353897 26.6544118469,72.6102929241 l10.1102939821,20.2205879641 1.8382353519,41.3602946622 l-7.35294140761,42.279413396 -2.75735287672,47.7941161268 m5.51470575345,-136.948526916 l7.35294140761,8.27205893243 24.8161767973,10.1102939821 l40.4411759283,3.67647070381 60.6617638924,13.7867652904 l41.3602946622,0.919117675952 -1.8382353519,-3.67647070381 m-114.88970632,-22.9779417477 l22.9779417477,-44.1176460276 13.7867652904,-16.5441178649 l15.62500034,-9.19117645725 27.5735305808,-3.67647070381 l-0.919117675952,4.59558822863 -38.6029408787,22.9779417477 l-18.3823529145,33.0882357297 -10.1102939821,14.7058828152 l-4.59558822863,1.8382353519 -15.62500034,-0.919117675952 l-43.1985321299,-17.4632353897 -33.0882357297,-1.8382353519 l-38.6029408787,21.139706698 4.59558822863,-3.67647070381 l11.0294115069,-1.8382353519 46.8750022292,8.27205893243 l16.5441178649,5.51470575345 45.9558834953,-4.59558822863 l49.6323535946,22.0588230138 36.764705829,2.75735287672 " fill="none" stroke="black" stroke-width="1" /></svg>