<?xml version="1.0" encoding="utf-8" ?>
<svg baseProfile="full" height="300" version="1.1" width="300" xmlns="http://www.w3.org/2000/svg" xmlns:ev="http://www.w3.org/2001/xml-events" xmlns:xlink="http://www.w3.org/1999/xlink"><defs /><rect fill="none" height="300" width="300" x="0" y="0" /><path d="M37.5348193954,129.805006771 m-11.8384405337,-4.87465214613 l-0.696378861661,-3.4818941938 9.05292462905,-11.1420617866 l26.4623960561,-14.6239555223 13.231198028,-2.08913647048 l6.96378838759,4.17827294095 -2.08913647048,13.231198028 l-13.9275767752,34.818942854 1.39275772332,11.1420617866 m4.17827294095,50.1392771235 l1.39275772332,0.696378861661 m106.545963887,-129.526470788 l3.4818941938,4.87465214613 -1.39275772332,9.74930429227 l-27.8551535504,53.6211717753 -4.87465214613,15.3203342695 l0.696378861661,9.05292462905 m-8.3565458819,54.3175514386 l0.696378861661,0.0 m132.311974784,-157.381613346 l2.08913647048,7.66016713475 m-68.9415060448,155.988868676 l0.0,0.696378861661 m58.4958220894,-161.559891325 l4.87465214613,12.5348192809 0.0,11.8384405337 l-15.3203342695,38.9972171691 -8.3565458819,29.9442907079 " fill="none" stroke="black" stroke-width="1" /></svg>