<?xml version="1.0" encoding="utf-8" ?>
<svg baseProfile="full" height="300" version="1.1" width="300" xmlns="http://www.w3.org/2000/svg" xmlns:ev="http://www.w3.org/2001/xml-events" xmlns:xlink="http://www.w3.org/1999/xlink"><defs /><rect fill="none" height="300" width="300" x="0" y="0" /><path d="M198.668024709,143.084015324 m-0.768442575653,5.37909811381 l-10.5020490674,14.0881147013 -1.53688515131,3.84221313098 l-2.04918031406,5.89139344504 -2.81762280547,19.9795081463 m17.418032501,-49.9487683441 l6.6598355995,39.9590162926 m-7.17213126768,-40.2151641267 l-15.8811468443,-0.768442575653 -7.94057342215,-1.79303281692 l-8.19672125624,-12.0389347242 -1.28073765417,-10.2459012333 l1.28073765417,-3.84221313098 1.53688515131,0.256147539257 l8.9651634107,6.91598343359 11.0143440617,5.12295061667 l18.4426224896,4.86680311953 3.58606563384,0.0 l4.6106556224,5.89139344504 -4.6106556224,2.56147530834 l-5.37909811381,1.02459015703 -7.68442626196,3.58606563384 m-28.9446702092,-25.3586059232 l0.0,1.79303281692 1.28073765417,0.768442575653 l1.53688515131,-3.32991779975 -1.28073765417,-0.512295078515 l-1.53688515131,2.04918031406 m-3.58606563384,2.56147530834 l-4.35450812526,0.0 -3.58606563384,-1.02459015703 l-3.32991779975,-3.07377030261 1.79303281692,-0.512295078515 l38.6782771222,-0.768442575653 23.8217216142,-5.63524561095 l18.4426224896,-2.81762280547 1.79303281692,0.0 l-4.6106556224,1.53688515131 -23.053278112,6.40368843932 l-24.846310255,3.84221313098 -35.8606536428,2.81762280547 l-35.6045085043,1.53688515131 -38.4221292881,5.12295061667 l-49.69262051,11.7827868901 0.0,5.37909811381 l7.17213126768,0.256147539257 9.98975407316,-1.02459015703 l37.9098363155,-7.17213126768 24.0778694483,-2.81762280547 l44.3135240809,1.28073765417 122.182376689,11.0143440617 l4.35450812526,1.79303281692 -196.721299367,-3.07377030261 l5.37909811381,-6.40368843932 13.319671199,-9.98975407316 l9.73360623907,-5.89139344504 12.2950812105,-3.58606563384 l22.7971302779,-2.04918031406 24.5901624209,-0.256147539257 l22.2848359575,1.28073765417 20.2356546326,-0.256147539257 l11.0143440617,2.3053278112 8.9651634107,6.6598355995 l1.79303281692,3.32991779975 1.02459015703,11.7827868901 " fill="none" stroke="black" stroke-width="1" /></svg>