<?xml version="1.0" encoding="utf-8" ?>
<svg baseProfile="full" height="300" version="1.1" width="300" xmlns="http://www.w3.org/2000/svg" xmlns:ev="http://www.w3.org/2001/xml-events" xmlns:xlink="http://www.w3.org/1999/xlink"><defs /><rect fill="none" height="300" width="300" x="0" y="0" /><path d="M103.497022398,224.218752525 m-16.3690470372,-29.7619040599 l-32.7380940744,-69.940479043 -10.4166670082,-19.7172612929 l-3.72023800748,-10.044642767 -15.2529762711,-23.4374997897 l6.32440475954,12.2767852779 8.55654775978,7.81249976678 l10.4166670082,3.72023800748 1.86011900374,-4.4642855111 l15.6249995336,-15.2529762711 2.23214275555,1.48809525193 l5.95238100773,-2.23214275555 34.2261910391,-3.34821425567 l9.67261852583,0.372023812983 20.4613097752,6.32440475954 l30.8779767835,0.0 33.4821425567,6.32440475954 l44.2708338061,0.0 8.92857102221,1.48809525193 l16.3690470372,5.58035725592 0.744047625966,3.72023800748 l-3.34821425567,4.83630926292 -12.6488095191,12.2767852779 l-55.0595250556,50.2232138351 -26.041665563,21.5773805413 l-20.8333340164,12.6488095191 -36.4583325712,11.1607145118 l-10.7886902706,4.4642855111 -11.1607145118,7.06845226316 l-3.72023800748,9.3005952634 m-29.017857535,-146.949403008 l4.09226175929,12.6488095191 14.1369045263,24.925594797 l2.23214275555,12.6488095191 7.44047601497,26.041665563 m5.58035725592,-72.5446409013 l3.34821425567,56.5476181053 5.20833350411,11.9047620155 l4.09226175929,1.48809525193 3.34821425567,-0.372023812983 m33.1101183155,-49.1071411115 l-13.3928570227,42.038688359 m48.3630965442,-34.2261910391 l-5.95238100773,7.81249976678 -12.6488095191,33.4821425567 l-6.32440475954,10.044642767 -7.44047601497,6.69642851135 m59.1517838786,-36.08630833 l-8.92857102221,1.86011900374 -8.55654775978,5.95238100773 l-22.6934513073,17.1130955196 -22.6934513073,15.2529762711 l-7.44047601497,8.92857102221 " fill="none" stroke="black" stroke-width="1" /></svg>