<?xml version="1.0" encoding="utf-8" ?>
<svg baseProfile="full" height="300" version="1.1" width="300" xmlns="http://www.w3.org/2000/svg" xmlns:ev="http://www.w3.org/2001/xml-events" xmlns:xlink="http://www.w3.org/1999/xlink"><defs /><rect fill="none" height="300" width="300" x="0" y="0" /><path d="M182.512624727,25.0 m-40.404041914,42.2979802368 l-25.2525253658,39.1414141509 -0.631313154906,15.7828287688 l2.52525261962,3.15656567072 13.257575734,1.89393936091 l56.1868690219,-62.5000011938 -1.89393936091,-8.20707049474 l-19.5707070754,-5.05050523925 m-44.1919185596,35.9848480649 l-16.4141409895,-12.6262626829 -18.3080809732,-2.52525261962 l20.202020957,32.8282819789 m35.3535375052,13.257575734 l-8.20707049474,18.9393948548 3.78787872182,55.5555551403 l23.9898992636,9.4696974274 22.0959592798,1.89393936091 l8.8383843763,-1.26262630981 18.3080809732,-65.0252567201 l-25.8838392473,-24.6212131451 -15.7828287688,-10.1010104785 l-23.9898992636,-7.57575744364 -27.1464653495,1.89393936091 l4.41919218815,3.15656567072 m20.8333331776,97.853538699 l-3.15656567072,11.9949496318 -4.41919218815,54.9242445806 m2.52525261962,-1.89393936091 l3.15656567072,6.31313134144 5.05050523925,2.52525261962 m-11.9949496318,-7.57575744364 l-6.31313134144,0.0 -28.4090914517,7.57575744364 l6.31313134144,0.0 m26.515151468,-8.20707049474 l0.631313154906,10.7323235296 " fill="none" stroke="black" stroke-width="1" /></svg>