<?xml version="1.0" encoding="utf-8" ?>
<svg baseProfile="full" height="300" version="1.1" width="300" xmlns="http://www.w3.org/2000/svg" xmlns:ev="http://www.w3.org/2001/xml-events" xmlns:xlink="http://www.w3.org/1999/xlink"><defs /><rect fill="none" height="300" width="300" x="0" y="0" /><path d="M27.4089936075,49.0899386277 m20.8779450678,-16.0599578528 l6.42398271859,-2.67665952476 m-27.3019284906,16.5952889831 l5.88865088405,6.95931455312 18.7366163212,5.35331904952 m0.0,-29.9785883674 l6.42398271859,-3.74732354593 5.35331904952,-0.535331922557 l12.8479654372,6.95931455312 -0.535331922557,84.5824397149 l5.35331904952,22.4839398672 8.02997892639,11.7773017681 l16.5952889831,1.60599567965 32.6552454275,-10.706638099 l49.2505372274,-24.089936075 38.0085651812,-26.7665959518 l-4.28265538046,6.95931455312 -12.8479654372,9.10064259545 l4.28265538046,0.0 0.535331922557,3.21199135929 l46.0385448118,8.02997892639 -70.6638106086,12.8479654372 l6.95931455312,3.21199135929 74.9464652849,11.2419699336 l-26.7665959518,10.706638099 10.1713062645,2.14132769023 l-22.4839398672,9.10064259545 -16.0599578528,8.56531076092 l34.2612430437,0.0 20.8779450678,2.67665952476 l1.60599567965,12.3126343068 -6.42398271859,26.7665959518 l0.535331922557,36.9379029205 -8.02997892639,20.342612529 " fill="none" stroke="black" stroke-width="1" /></svg>