<?xml version="1.0" encoding="utf-8" ?>
<svg baseProfile="full" height="300" version="1.1" width="300" xmlns="http://www.w3.org/2000/svg" xmlns:ev="http://www.w3.org/2001/xml-events" xmlns:xlink="http://www.w3.org/1999/xlink"><defs /><rect fill="none" height="300" width="300" x="0" y="0" /><path d="M215.062387006,73.5739784986 m-1.33689832676,7.57575752691 l-8.91265570711,20.94474226 -4.01069512682,18.7165768677 l-4.45632785355,27.6292325748 -0.891265600022,31.6399277016 l2.67379665351,0.445632800011 5.79322603376,6.2388593467 l6.2388593467,9.80392116058 1.33689832676,14.7058817409 l-1.78253120004,9.35828843384 -0.445632800011,-4.45632785355 l36.9875227673,12.4777186934 9.35828843384,0.891265600022 m-47.6827082089,-23.172904135 l26.7379682938,0.0 m-22.7272731669,-11.5864520675 l39.6613179553,-1.78253120004 8.02139025364,-1.78253120004 m-39.6613179553,-118.538320553 l-28.5204992007,-0.891265600022 -20.94474226,-2.67379665351 l-33.8680919215,-0.445632800011 -4.01069512682,6.68449207344 l-1.33689832676,5.34759330702 -11.140819927,85.1158595994 l-16.0427805073,59.2691602764 -12.4777186934,38.7700536742 l-5.79322603376,11.140819927 4.90196058029,-3.11942967335 l3.56506240009,-0.445632800011 74.8663074708,0.0 l36.5418894543,-7.57575752691 15.5971471943,-4.45632785355 l-0.891265600022,-2.22816392678 -26.2923349808,-7.57575752691 m-96.7023163566,-12.4777186934 l59.7147935894,0.891265600022 m-48.1283415218,-20.499108947 l-4.45632785355,-1.33689832676 22.281639854,-0.445632800011 m4.01069512682,-155.971481323 l49.9108747736,-0.445632800011 m48.1283415218,-5.79322603376 l4.45632785355,16.0427805073 2.22816392678,1.78253120004 l0.891265600022,-2.22816392678 m-51.6934033357,-26.2923349808 l10.695186614,7.13012480017 19.1622101806,18.2709447272 m-5.79322603376,-1.78253120004 l-13.8146162874,-0.445632800011 -3.11942967335,0.445632800011 l0.0,1.33689832676 m17.8253114142,-15.5971471943 l0.445632800011,-0.445632800011 m-37.8787870483,-2.22816392678 l-32.0855610146,-5.34759330702 -31.1942943887,-7.57575752691 l-68.6274504689,-11.5864520675 " fill="none" stroke="black" stroke-width="1" /></svg>