<?xml version="1.0" encoding="utf-8" ?>
<svg baseProfile="full" height="300" version="1.1" width="300" xmlns="http://www.w3.org/2000/svg" xmlns:ev="http://www.w3.org/2001/xml-events" xmlns:xlink="http://www.w3.org/1999/xlink"><defs /><rect fill="none" height="300" width="300" x="0" y="0" /><path d="M225.227968866,275.0 m6.07902747412,-20.5167173503 l8.35866240206,-53.9513669585 m-110.942251153,69.9088164521 l16.7173248041,-31.9148929896 11.3981766389,-35.714287535 l1.51975686853,-14.4376898762 m0.0,0.0 l34.1945289172,0.0 56.9908801958,15.1975681855 l-3.79939204637,-1.51975686853 -2.27963517784,-33.4346496083 l0.759878434264,-69.9088164521 m-90.4255338024,79.7872314745 l22.0364739689,-56.9908801958 17.477204113,-33.4346496083 l-24.3161098965,22.0364739689 -9.87841902069,12.9179332575 l-61.5501520509,47.1124611751 m146.656530691,-66.8692992165 l0.0,-24.3161098965 -12.1580549482,-13.6778115669 l-2.27963517784,-7.59878409275 -0.759878434264,-32.6747722985 l-31.9148929896,10.6382983296 -32.6747722985,18.2370814228 l-14.4376898762,11.3981766389 -33.4346496083,36.4741628455 l-46.3525818662,27.3556231337 7.59878409275,-3.79939204637 l3.79939204637,0.759878434264 4.55927035569,26.5957438248 l24.3161098965,32.6747722985 m-27.3556231337,-30.395136371 l0.0,0.0 m6.07902747412,-0.759878434264 l-38.7538007722,14.4376898762 2.27963517784,-8.35866240206 l25.8358665151,-20.5167173503 m-3.79939204637,-13.6778115669 l17.477204113,3.79939204637 m1.51975686853,-5.3191491648 l2.27963517784,11.3981766389 3.03951373706,-9.87841902069 " fill="none" stroke="black" stroke-width="1" /></svg>