<?xml version="1.0" encoding="utf-8" ?>
<svg baseProfile="full" height="300" version="1.1" width="300" xmlns="http://www.w3.org/2000/svg" xmlns:ev="http://www.w3.org/2001/xml-events" xmlns:xlink="http://www.w3.org/1999/xlink"><defs /><rect fill="none" height="300" width="300" x="0" y="0" /><path d="M184.299951425,126.430761884 m-1.66070506779,2.68267748184 l-2.42718442034,2.68267748184 -7.02606036756,6.89831366876 l-1.78845176659,1.27746547554 m14.3076141327,-10.3474705031 l-0.638732737772,1.78845176659 -2.81042401259,2.81042401259 l-6.64282027117,3.32141013559 -3.57690353318,3.57690353318 m11.7526828455,-13.1578951879 l-1.91619829734,-2.68267748184 0.383239634261,-1.40521200629 l0.894225883294,-0.638732737772 3.44915683438,-0.127746551755 l1.78845176659,0.766479268522 0.510986207022,0.638732737772 l0.766479268522,6.00408812156 -0.894225883294,6.77056696997 l0.894225883294,1.40521200629 1.27746547554,0.766479268522 l2.29943788959,0.638732737772 4.34338271768,-4.21563601888 l3.57690353318,-0.766479268522 2.17169135884,0.0 l3.19366377288,1.02197241404 3.19366377288,1.91619829734 l7.79253921597,6.77056696997 m-34.8748084402,-10.0919771056 l0.127746551755,1.40521200629 0.766479268522,1.53295853704 l4.34338271768,7.15380706635 4.21563601888,2.17169135884 l6.25958084697,1.53295853704 5.62084802517,-0.127746551755 l4.98211553947,0.894225883294 1.78845176659,-0.127746551755 l1.78845176659,-2.29943788959 0.766479268522,-2.81042401259 l0.127746551755,-3.32141013559 m-22.4833921007,8.43127203776 l0.255493103511,-0.638732737772 0.127746551755,0.766479268522 l-2.68267748184,10.6029639007 -1.14971894479,8.94225816076 l-1.14971894479,3.19366377288 1.02197241404,1.27746547554 l4.59887577917,3.57690353318 m9.83648438014,-28.1042414702 l0.638732737772,8.17577931235 -1.78845176659,14.4353594871 l6.13183414817,4.34338271768 m-61.0628521172,-7.40929979176 l2.04394482809,1.78845176659 -122.764437728,3.70464989588 l7.53704649056,-12.6469083927 1.53295853704,-2.17169135884 l2.17169135884,-1.78845176659 9.32549825714,13.2856405423 l2.29943788959,1.40521200629 2.93817071138,0.127746551755 l9.07000485955,-8.04803261356 -1.02197241404,1.02197241404 l-15.2018396799,7.15380706635 -6.13183414817,1.53295853704 m121.48697074,-3.44915683438 l0.766479268522,-0.255493103511 4.34338271768,1.14971894479 l2.29943788959,2.17169135884 2.29943788959,0.766479268522 l14.9463462823,-5.49310166247 3.70464989588,-2.42718442034 l9.83648438014,-1.91619829734 1.91619829734,3.19366377288 l5.49310166247,5.62084802517 4.34338271768,0.510986207022 l1.78845176659,-0.255493103511 11.1139500237,-8.17577931235 l2.81042401259,-1.66070506779 2.29943788959,-0.638732737772 l10.2197238043,6.38732754576 3.57690353318,5.36535496367 l2.81042401259,2.04394482809 13.9243740363,-7.40929979176 l2.81042401259,-2.17169135884 6.38732754576,8.30352601115 l0.766479268522,0.766479268522 2.17169135884,0.766479268522 m3.83239659468,-1.91619829734 l1.53295853704,-1.02197241404 " fill="none" stroke="black" stroke-width="1" /></svg>