<?xml version="1.0" encoding="utf-8" ?>
<svg baseProfile="full" height="300" version="1.1" width="300" xmlns="http://www.w3.org/2000/svg" xmlns:ev="http://www.w3.org/2001/xml-events" xmlns:xlink="http://www.w3.org/1999/xlink"><defs /><rect fill="none" height="300" width="300" x="0" y="0" /><path d="M164.756941913,154.050926006 m-11.5740740591,45.1388905052 l-2.31481488795,75.8101834884 m37.0370382071,-81.5972212792 l-19.6759263572,5.20833340272 -10.9953704323,0.0 l-14.4675929545,-2.89351851477 -9.83796317861,-4.05092614906 l-9.25925955178,6.94444428321 m68.2870386234,-8.10185229812 l-11.5740740591,-15.6250002082 -1.15740744397,-30.6712960282 l-40.5092584456,-1.15740744397 -49.1898151318,-15.6250002082 l-21.9907408645,-12.7314813128 -26.0416670136,-24.3055553718 l-3.4722221416,-8.68055592495 13.3101857008,-12.1527776859 l13.8888885664,14.4675929545 9.25925955178,6.36574065638 l37.0370382071,11.5740740591 56.1342586537,0.578703721986 l17.9398147155,-4.05092614906 15.6250002082,-5.78703702955 l23.7268525063,-2.31481488795 6.36574065638,-2.89351851477 l8.68055592495,-7.52314791003 11.5740740591,-14.4675929545 l6.36574065638,-30.6712960282 4.05092614906,-9.83796317861 " fill="none" stroke="black" stroke-width="1" /></svg>