<?xml version="1.0" encoding="utf-8" ?>
<svg baseProfile="full" height="300" version="1.1" width="300" xmlns="http://www.w3.org/2000/svg" xmlns:ev="http://www.w3.org/2001/xml-events" xmlns:xlink="http://www.w3.org/1999/xlink"><defs /><rect fill="none" height="300" width="300" x="0" y="0" /><path d="M136.66400791,198.964963599 m2.18949037748,-5.57324861444 l10.7484075933,-19.5063691032 6.36942683831,-7.36464987999 l4.7770698669,-3.98089164303 2.18949037748,-1.19426746673 l3.38375797513,-0.199044588697 2.58757948942,0.796178354789 l2.98566886319,1.99044582151 9.15605114554,10.5493627755 l4.37898075497,6.76751595025 5.57324861444,10.7484075933 l1.59235670958,8.75796150993 m-48.5668768929,-38.0175141174 l57.7229301331,-0.398089177395 6.76751595025,-20.7006359153 l4.7770698669,-8.75796150993 1.99044582151,-1.19426746673 l4.37898075497,-1.19426746673 15.5254779839,-2.18949037748 l0.796178354789,0.995222910757 0.796178354789,7.76273899193 l-12.7388536766,0.398089177395 -0.995222910757,1.99044582151 l-0.995222910757,3.78184708706 -1.19426746673,10.5493627755 l-0.796178354789,15.5254779839 -17.7149678377,2.38853493345 l-48.7659217107,0.199044588697 -15.1273883482,-1.99044582151 l3.18471341916,-7.76273899193 3.38375797513,-0.199044588697 l3.18471341916,0.796178354789 m82.0063727689,-29.8566870609 l0.995222910757,-2.18949037748 0.995222910757,-0.597133733363 l0.597133733363,0.995222910757 -2.58757948942,0.796178354789 m7.76273899193,4.179936199 l4.57802557277,-0.597133733363 -5.37420379664,-3.38375797513 l-1.79140126555,-3.38375797513 m-116.839173991,-12.5398088588 l16.3216562077,-23.4872612699 0.597133733363,4.57802557277 l-0.199044588697,15.326433166 -1.59235670958,1.99044582151 l-2.58757948942,0.0 -1.79140126555,-1.19426746673 l-17.1178344316,-12.5398088588 -2.98566886319,-2.78662430722 l-0.398089177395,-1.19426746673 10.1512741872,-2.38853493345 l24.4824832642,-0.995222910757 21.2977703688,0.0 l4.7770698669,0.398089177395 0.398089177395,0.995222910757 l-8.16082810386,9.35509596334 -14.9283435304,10.9474524111 l-14.3312101244,5.97133772638 -17.1178344316,3.98089164303 l-8.5589172158,0.796178354789 -1.39331215361,0.0 l-0.597133733363,-0.597133733363 m-79.8168797731,65.8837592843 l2.18949037748,1.39331215361 8.16082810386,1.79140126555 l87.3805744709,12.7388536766 26.6719741654,0.199044588697 l7.76273899193,-1.19426746673 15.7245217543,-0.796178354789 l22.4920371809,-3.38375797513 19.9044587388,-4.7770698669 l32.6433124154,-4.57802557277 10.9474524111,-2.18949037748 l16.1226113899,-0.597133733363 " fill="none" stroke="black" stroke-width="1" /></svg>