<?xml version="1.0" encoding="utf-8" ?>
<svg baseProfile="full" height="300" version="1.1" width="300" xmlns="http://www.w3.org/2000/svg" xmlns:ev="http://www.w3.org/2001/xml-events" xmlns:xlink="http://www.w3.org/1999/xlink"><defs /><rect fill="none" height="300" width="300" x="0" y="0" /><path d="M115.039577016,82.3878704088 m16.4907649128,-25.0659621815 l21.1081792272,-26.3852231663 m0.0,12.5329810908 l-45.5145117841,62.6649028507 -26.3852231663,49.4722930029 l-7.91556677634,21.1081792272 6.59630579157,-1.97889169409 l15.171503928,-16.4907649128 73.8786290307,-102.242742806 l-63.3245342108,99.604217366 -15.171503928,27.7044841511 l-11.213720106,28.3641155112 11.8733505984,-11.213720106 l88.3904981277,-132.585750662 19.7889182424,-27.0448545264 l16.4907649128,-15.8311335527 -25.7255935416,34.3007890749 l-52.7704463326,79.8153043298 -24.4063325569,44.1952490639 l-17.8100258976,38.2585737647 -7.25593628396,26.3852231663 l11.213720106,-9.23482862883 19.7889182424,-27.0448545264 l69.92084087,-110.817936604 32.9815298256,-42.8759898145 l-17.8100258976,22.427440212 -45.5145117841,72.5593663105 l-20.4485478671,38.2585737647 -14.5118725679,32.9815298256 l-5.2770448068,21.7678088519 7.25593628396,-9.89445912122 l17.1503945375,-27.7044841511 56.7282310223,-104.221629945 l18.4696572577,-29.0237451358 -5.93667529919,3.29815289579 l-20.4485478671,25.7255935416 -24.4063325569,35.6200517951 l-40.8970957342,81.7941914684 -15.8311335527,40.8970957342 l12.5329810908,-18.4696572577 56.7282310223,-110.158305244 l18.4696572577,-32.3218984655 21.7678088519,-29.0237451358 l-25.7255935416,45.5145117841 -42.2163584544,87.0712354075 l-21.7678088519,59.3667529919 -0.65963060085,6.59630579157 l3.95778338817,-3.95778338817 15.171503928,-28.3641155112 l53.4300776927,-110.158305244 20.4485478671,-33.6411611857 l-28.3641155112,40.2374643741 -23.7467011968,44.854880424 l-20.4485478671,44.1952490639 -18.4696572577,50.7915557231 l16.4907649128,-19.7889182424 40.2374643741,-74.538253449 l36.2796831552,-60.6860157121 3.29815289579,-16.4907649128 l-3.95778338817,17.8100258976 -36.2796831552,69.2612095099 l-30.343007856,78.4960416096 58.0474902717,-158.9709773 l2.6385224034,-13.8522420755 -8.57519726873,1.3192612017 l-25.7255935416,19.1292868823 -29.0237451358,30.343007856 l-72.5593663105,92.3482793466 28.3641155112,-65.3034282911 " fill="none" stroke="black" stroke-width="1" /></svg>