<?xml version="1.0" encoding="utf-8" ?>
<svg baseProfile="full" height="300" version="1.1" width="300" xmlns="http://www.w3.org/2000/svg" xmlns:ev="http://www.w3.org/2001/xml-events" xmlns:xlink="http://www.w3.org/1999/xlink"><defs /><rect fill="none" height="300" width="300" x="0" y="0" /><path d="M170.16129058,57.2580669309 m-5.24193525384,58.4677424707 l0.0,73.3870977972 m-26.2096783909,-116.129032385 l-0.403225814258,43.5483871443 -3.22580651407,19.3548380235 l0.806451628517,43.5483871443 m33.0645166366,-117.741937498 l-4.03225800998,-15.322580544 -8.87096751586,-14.9193553265 l-6.85483877609,-5.64516153222 -17.7419350317,-0.403225814258 l-12.4999997779,2.01612900499 -14.5161290481,6.45161302813 l-6.45161302813,4.83870950589 0.0,1.20967737647 m25.4032258341,-14.9193553265 l-4.43548375793,1.20967737647 -5.24193525384,4.03225800998 l-16.1290320399,18.5483875885 -17.7419350317,0.0 l-16.1290320399,6.45161302813 -6.85483877609,4.83870950589 l-15.322580544,14.9193553265 7.661290272,-0.403225814258 l12.9032260563,-3.62903226202 19.3548380235,-2.82258076611 l49.1935465548,-1.20967737647 9.27419379424,18.9516138669 l4.43548375793,6.04838728018 m24.5967732774,84.6774166182 l1.20967737647,10.4838705077 10.0806452902,0.0 l28.6290318178,20.1612905803 24.5967732774,11.693548282 l9.27419379424,7.661290272 10.8870967861,12.0967745604 m-36.2903226202,-31.0483873664 l9.27419379424,13.3064512738 16.9354835358,29.8387106529 l6.04838728018,17.7419350317 m-32.6612903582,-64.5161281596 l2.01612900499,4.03225800998 18.1451613101,16.9354835358 l7.661290272,9.67741901177 5.64516153222,9.27419379424 l8.06451601995,23.7903228423 m-126.612907136,-108.064515304 l5.24193525384,58.8709687491 1.61290325703,6.04838728018 m-4.03225800998,-54.8387102087 l-2.01612900499,3.62903226202 0.403225814258,29.0322580962 l7.661290272,18.5483875885 11.2903230644,13.3064512738 m-14.5161290481,-43.5483871443 l2.01612900499,21.3709672937 4.43548375793,14.5161290481 l7.661290272,14.1129027697 10.0806452902,13.3064512738 l13.3064512738,10.0806452902 15.322580544,8.46774176791 l6.85483877609,2.41935475294 " fill="none" stroke="black" stroke-width="1" /></svg>