<?xml version="1.0" encoding="utf-8" ?>
<svg baseProfile="full" height="300" version="1.1" width="300" xmlns="http://www.w3.org/2000/svg" xmlns:ev="http://www.w3.org/2001/xml-events" xmlns:xlink="http://www.w3.org/1999/xlink"><defs /><rect fill="none" height="300" width="300" x="0" y="0" /><path d="M126.780184647,159.674922072 m-1.74148608151,14.1253873318 l0.193498457036,9.67492278817 0.580495339291,-3.2894737378 m-9.48142410842,-20.5108356186 l-2.70897846214,24.5743038209 m-17.4148608151,-31.5402481469 l0.386996914072,0.967492253364 2.90247688736,2.12848293195 l5.80495377472,3.09597531258 2.32198135716,0.580495339291 l11.4164088697,0.0 5.03095956477,0.773993828145 l13.5448912926,0.580495339291 3.86996901345,-1.74148608151 l3.48297216302,-2.70897846214 2.32198135716,-3.09597531258 l0.580495339291,-1.93498450673 -0.967492253364,-0.967492253364 l-2.51547978238,-0.193498457036 -8.9009290873,-2.90247688736 l-16.6408671142,-3.86996901345 -8.12693487735,-3.2894737378 l-0.773993828145,-0.967492253364 0.0,-5.9984519454 l-2.90247688736,-14.3188860116 -0.386996914072,-0.967492253364 l-2.51547978238,-1.74148608151 -1.93498450673,-0.386996914072 l-2.12848293195,2.90247688736 -3.67647058824,8.3204335571 l-4.06346743867,13.3513936309 -0.193498457036,3.86996901345 l3.86996901345,8.51393172778 m21.6718276971,-27.8637773041 l-11.0294115102,5.03095956477 -30.9597521076,8.9009290873 l-17.8018581746,6.19195062516 -13.1578949512,7.35294117647 l5.03095956477,22.8328177394 21.2848303376,5.80495377472 l31.5402481469,2.51547978238 39.0866885122,0.0 l39.0866885122,-5.22445824452 30.9597521076,-8.51393172778 l17.4148608151,-8.9009290873 4.25696586389,-6.5789474756 l-0.773993828145,-3.2894737378 -10.6424151688,-5.9984519454 l-21.2848303376,-6.38544879584 -37.1517017146,-5.80495377472 l-39.0866885122,-4.83746139409 -39.0866885122,-2.51547978238 l-51.664086406,-4.06346743867 -8.70743040754,-1.16099067858 l5.9984519454,2.32198135716 15.2863773741,1.16099067858 l28.2507746636,0.580495339291 193.498451691,0.0 l6.96594432603,-1.35448923107 " fill="none" stroke="black" stroke-width="1" /></svg>