<?xml version="1.0" encoding="utf-8" ?>
<svg baseProfile="full" height="300" version="1.1" width="300" xmlns="http://www.w3.org/2000/svg" xmlns:ev="http://www.w3.org/2001/xml-events" xmlns:xlink="http://www.w3.org/1999/xlink"><defs /><rect fill="none" height="300" width="300" x="0" y="0" /><path d="M171.629214369,94.6629189722 m-12.9213484118,-24.7191000242 l15.730337454,-29.775279709 16.8539327753,-3.93258436349 l29.2134813093,5.05617968477 20.2247187391,5.61797734541 l-3.37078633334,-6.17977500605 -8.42696638763,-5.05617968477 l-22.4719093816,-8.98876404827 -12.9213484118,-1.68539316667 l-14.044943733,2.80898867271 -19.1011234178,12.9213484118 l-7.86516872699,15.730337454 -9.5505617089,51.685393647 l5.05617968477,41.5730342775 2.80898867271,48.3146062052 l-6.74157266669,-5.05617968477 -48.3146062052,-11.2359546908 l-8.42696638763,-4.49438202413 -28.0898874661,-26.4044952232 l22.4719093816,31.460674908 21.3483140604,21.91011246 l28.6516858657,17.9775280965 3.93258436349,33.1460671508 l5.61797734541,19.6629203394 23.5955047029,-41.5730342775 l10.1123593695,32.5842687512 3.37078633334,2.24719101207 l5.61797734541,-30.3370781086 8.42696638763,15.1685390543 l6.17977500605,5.61797734541 2.24719101207,-2.24719101207 l0.0,-11.2359546908 -21.3483140604,-48.3146062052 " fill="none" stroke="black" stroke-width="1" /></svg>