<?xml version="1.0" encoding="utf-8" ?>
<svg baseProfile="full" height="300" version="1.1" width="300" xmlns="http://www.w3.org/2000/svg" xmlns:ev="http://www.w3.org/2001/xml-events" xmlns:xlink="http://www.w3.org/1999/xlink"><defs /><rect fill="none" height="300" width="300" x="0" y="0" /><path d="M116.685648107,111.275628854 m-3.41685635466,14.806377412 l1.13895218065,26.765377088 5.12528471927,6.83371270932 l5.69476071595,3.41685635466 11.3895214319,3.41685635466 l17.6537581445,1.13895218065 2.84738035798,-0.569476090323 l10.2505694385,-19.3621868837 9.68109344186,-52.3918006843 l15.9453309036,1.13895218065 30.1822315698,6.26423671264 m-101.93621764,9.11161744517 l21.0706156229,-6.26423671264 11.9589974286,-19.9316621313 l12.5284734253,-9.11161744517 6.83371270932,-2.27790436129 l13.6674254186,1.70842817733 31.3211850614,17.6537581445 l6.26423671264,9.11161744517 m-76.8792707891,64.9202711131 l-0.569476090323,47.8359897144 m-122.437356517,4.55580872259 l62.072893377,2.27790436129 22.2095676163,-5.69476071595 l18.7927101379,-1.13895218065 9.68109344186,0.569476090323 l4.55580872259,2.27790436129 36.4464697807,6.83371270932 l35.3075162891,0.569476090323 19.3621868837,-5.12528471927 l12.5284734253,-7.97266545181 5.69476071595,-1.13895218065 l23.3485196096,11.3895214319 m-132.118449209,-58.6560388952 l-29.612754824,36.4464697807 " fill="none" stroke="black" stroke-width="1" /></svg>