<?xml version="1.0" encoding="utf-8" ?>
<svg baseProfile="full" height="300" version="1.1" width="300" xmlns="http://www.w3.org/2000/svg" xmlns:ev="http://www.w3.org/2001/xml-events" xmlns:xlink="http://www.w3.org/1999/xlink"><defs /><rect fill="none" height="300" width="300" x="0" y="0" /><path d="M131.557374161,164.344257674 m1.75644022602,50.9367694427 l4.68384085944,15.8079626118 m47.4238878354,-73.185011407 l-3.51288045204,19.9063234601 0.0,12.8805617858 l4.09836084828,59.1334911392 m4.68384085944,-93.0913333268 l-51.5222471433,7.02576090407 -66.7447289738,-38.6416853575 l4.09836084828,-11.1241217524 -20.4918027011,-39.2271661388 l-27.5175659157,-1.75644022602 -3.51288045204,-7.02576090407 l1.17096021486,-9.36768171888 18.7353634378,-6.44028089291 l8.19672169656,2.92740044088 9.95316173004,7.02576090407 l40.9836054021,-9.36768171888 16.9789226341,18.1498826564 l15.2224818305,39.2271661388 10.5386417412,6.44028089291 l32.2014060049,14.0515218081 14.0515218081,5.2693208706 l33.3723644869,5.2693208706 27.5175659157,-16.9789226341 l14.0515218081,-1.75644022602 4.09836084828,4.68384085944 l2.92740044088,9.95316173004 -6.44028089291,26.9320851343 l-4.09836084828,8.78220170772 " fill="none" stroke="black" stroke-width="1" /></svg>