<?xml version="1.0" encoding="utf-8" ?>
<svg baseProfile="full" height="300" version="1.1" width="300" xmlns="http://www.w3.org/2000/svg" xmlns:ev="http://www.w3.org/2001/xml-events" xmlns:xlink="http://www.w3.org/1999/xlink"><defs /><rect fill="none" height="300" width="300" x="0" y="0" /><path d="M167.28110572,140.20737172 m-3.45622127032,56.8356404637 l0.768049185215,5.3763444228 -3.45622127032,13.0568360224 l7.29646707011,-2.6881722114 32.6420895508,-1.53609837043 l47.2350226806,-4.22427032925 m-25.7296470101,-77.188943051 l4.22427032925,61.4439327966 0.0,57.219661457 l5.3763444228,26.4976970794 m-162.442395664,-228.878645828 l-8.44854065849,19.9692775527 -9.60061475205,29.9539183497 l6.14439348172,-3.07219674086 19.9692775527,-28.4178202318 l5.3763444228,-11.5207379045 51.0752689856,9.21658971742 l15.3609831991,5.76036895226 3.45622127032,23.8095238576 l3.45622127032,10.7526888456 3.45622127032,20.7373276219 l9.98463877634,26.8817200933 7.29646707011,11.5207379045 l21.1213526566,19.5852545387 11.5207379045,1.15207371468 l1.92012289989,-0.768049185215 10.7526888456,-16.1290322581 l19.9692775527,-18.0491564209 4.22427032925,-8.83256569312 l0.384024592608,-48.3870977845 -11.5207379045,-25.7296470101 l-10.368663811,-16.1290322581 -3.07219674086,-3.45622127032 l-29.1858682804,-14.5929341402 -16.897081317,-5.3763444228 l-21.8894007052,12.2887869634 -9.21658971742,3.84024579979 l-8.44854065849,1.53609837043 -17.2811063516,-6.14439348172 l-10.7526888456,-2.30414742935 -6.52841801119,-4.22427032925 " fill="none" stroke="black" stroke-width="1" /></svg>