<?xml version="1.0" encoding="utf-8" ?>
<svg baseProfile="full" height="300" version="1.1" width="300" xmlns="http://www.w3.org/2000/svg" xmlns:ev="http://www.w3.org/2001/xml-events" xmlns:xlink="http://www.w3.org/1999/xlink"><defs /><rect fill="none" height="300" width="300" x="0" y="0" /><path d="M175.630912691,40.3785481268 m0.0,-1.97160876081 l-9.8580440634,-8.28075674353 -24.4479485303,-5.12618262249 l-25.6309151873,3.94321752162 -18.1388013256,9.06940066282 l-9.8580440634,16.5615134871 9.4637218444,19.7160881268 l10.646687464,3.54889582133 57.9652997983,6.70346994237 l2.3659304611,-1.57728706052 3.94321752162,-7.49211334295 l6.30914824208,-20.1104103458 1.18296523055,-13.8012610663 m-93.8485802306,11.4353308646 l-9.4637218444,-7.09779164266 -9.06940066282,0.0 l-9.8580440634,3.54889582133 -13.4069398847,8.28075674353 l14.5899055043,7.09779164266 30.3627755908,7.88643504324 m67.4290206052,6.30914824208 l-2.76025242075,40.2208206916 -5.12618262249,31.940062392 l-1.97160876081,6.30914824208 -1.97160876081,2.3659304611 l-19.3217659078,-2.76025242075 -9.4637218444,1.18296523055 l-16.9558357061,7.88643504324 -7.88643504324,7.88643504324 l-6.70346994237,11.8296530836 -5.91482654179,14.9842266859 l-1.97160876081,10.252365245 0.39432176513,9.06940066282 l1.18296523055,7.49211334295 9.4637218444,3.15457412104 l35.0946359943,-3.54889582133 11.4353308646,-2.3659304611 l16.5615134871,-5.91482654179 18.1388013256,-13.4069398847 m6.70346994237,-49.6845414986 l0.788643530259,-4.33753922191 22.082019366,-31.1514179539 l19.7160881268,-24.0536263113 24.0536263113,-19.7160881268 l-2.3659304611,24.4479485303 -20.1104103458,39.0378540346 l4.7318609222,0.788643530259 30.3627755908,-22.8706617291 l-6.70346994237,13.0126176657 -23.6593061671,31.940062392 l-3.54889582133,6.70346994237 27.2082019885,-13.8012610663 m-77.2870636312,-76.4984191932 l-5.52050484149,25.2365929683 -1.18296523055,14.5899055043 l0.0,16.5615134871 2.76025242075,23.6593061671 m71.3722386456,7.09779164266 l-24.4479485303,8.67507844382 -33.1230269741,16.9558357061 l-14.1955832853,9.8580440634 m-6.30914824208,9.4637218444 l8.67507844382,15.7728700865 43.3753942939,29.9684533718 m-1.18296523055,-7.88643504324 l44.164038732,-41.0094609799 m-45.3470012393,52.0504706629 l-15.3785489049,14.5899055043 m14.5899055043,-26.0252353315 l47.3186123343,14.1955832853 m-138.801255101,-218.848582565 l-0.39432176513,0.0 m23.6593061671,-5.91482654179 l0.0,-0.39432176513 m-27.2082019885,20.1104103458 l43.3753942939,-3.94321752162 14.9842266859,-14.9842266859 " fill="none" stroke="black" stroke-width="1" /></svg>