<?xml version="1.0" encoding="utf-8" ?>
<svg baseProfile="full" height="300" version="1.1" width="300" xmlns="http://www.w3.org/2000/svg" xmlns:ev="http://www.w3.org/2001/xml-events" xmlns:xlink="http://www.w3.org/1999/xlink"><defs /><rect fill="none" height="300" width="300" x="0" y="0" /><path d="M105.555551894,25.0 m-13.8888884702,2.77777778539 l-4.16666644971,2.77777778539 -4.16666644971,14.5833328024 l0.0,5.55555557078 6.9444442351,13.8888884702 l9.02777723157,1.3888888927 m5.55555557078,-36.1111089263 l8.33333289941,13.8888884702 4.86111123862,20.8333336188 l-6.9444442351,64.5833347664 -0.694444446348,31.9444447604 m-9.72222247724,-85.4166629041 l-8.33333289941,48.6111087322 -1.3888888927,59.7222217008 l11.1111111416,21.5277770375 4.16666644971,26.3888882761 l6.24999990294,15.9722223802 6.9444442351,9.72222247724 l12.4999998059,2.77777778539 m-22.9166657018,-93.0555532984 l46.5277766492,-6.9444442351 41.6666672376,-13.8888884702 l43.7499993206,-6.9444442351 -29.1666656047,19.4444449545 l-49.3055539778,12.4999998059 -20.8333336188,9.72222247724 m68.0555536867,-13.8888884702 l-19.4444449545,15.2777771345 -30.555554269,9.72222247724 m45.8333314035,-15.9722223802 l-4.86111123862,26.3888882761 m-8.33333289941,0.0 l5.55555557078,6.24999990294 -5.55555557078,-6.24999990294 l-0.694444446348,18.7499997088 0.694444446348,-19.4444449545 m1.3888888927,8.33333289941 l-13.8888884702,18.0555544631 -24.3055543661,13.194444138 l-4.16666644971,8.33333289941 2.77777778539,22.9166657018 m28.4722221861,-118.05555291 l26.3888882761,-34.722222089 40.9722219919,-39.5833315006 l-1.3888888927,13.8888884702 -4.86111123862,11.1111111416 l-40.2777767463,51.3888897149 m47.2222218949,-47.2222218949 l-24.9999996118,49.9999992235 -24.9999996118,36.1111089263 l1.3888888927,-8.33333289941 m47.9166671406,-65.2777800121 l-5.55555557078,20.8333336188 -16.6666657988,36.1111089263 l-19.4444449545,29.8611108504 m-14.5833328024,-7.63888856726 l13.194444138,9.02777723157 -13.194444138,-9.02777723157 l6.24999990294,18.7499997088 -6.24999990294,-18.7499997088 m-34.722222089,34.0277768433 l-21.5277770375,4.16666644971 7.63888856726,35.4166673347 m9.72222247724,-34.0277768433 l-2.77777778539,5.55555557078 -1.3888888927,11.8055554737 m-68.0555536867,-206.249989489 l-33.3333315977,11.1111111416 34.722222089,1.3888888927 m-26.3888882761,2.77777778539 l41.6666672376,0.0 " fill="none" stroke="black" stroke-width="1" /></svg>