<?xml version="1.0" encoding="utf-8" ?>
<svg baseProfile="full" height="300" version="1.1" width="300" xmlns="http://www.w3.org/2000/svg" xmlns:ev="http://www.w3.org/2001/xml-events" xmlns:xlink="http://www.w3.org/1999/xlink"><defs /><rect fill="none" height="300" width="300" x="0" y="0" /><path d="M25.0,128.135789167 m0.0,35.0978124554 m0.287687003624,-35.9608744597 l28.1933255037,0.0 m-26.4672045227,6.61680113067 l39.9884941188,2.01380907268 m13.8089754171,-6.32911379591 l0.287687003624,40.8515530955 36.2485617944,-6.04142683959 m10.0690446065,1.1507480145 l10.644419276,-13.8089754171 18.6996555667,-19.2750287225 l1.43843497082,-0.287687003624 12.3705410139,19.850403392 l6.32911379591,11.5074797665 2.58918298532,6.90448770855 m-31.3578831585,-15.8227852467 l12.6582275918,-4.31530510167 29.9194464847,-6.32911379591 m5.75373988327,-4.02761814535 l1.72612192714,3.16455689795 2.01380907268,7.47986162119 l4.31530510167,22.1518990426 0.287687003624,-37.3993111335 l25.6041425184,12.9459149266 8.34292286858,7.76754895595 l8.34292286858,9.78135802862 3.16455689795,-3.45224385427 l13.5212895961,-21.0011512173 3.16455689795,-3.45224385427 l1.43843497082,0.287687003624 5.46605292695,16.3981584024 l1.1507480145,15.8227852467 " fill="none" stroke="black" stroke-width="1" /></svg>