<?xml version="1.0" encoding="utf-8" ?>
<svg baseProfile="full" height="300" version="1.1" width="300" xmlns="http://www.w3.org/2000/svg" xmlns:ev="http://www.w3.org/2001/xml-events" xmlns:xlink="http://www.w3.org/1999/xlink"><defs /><rect fill="none" height="300" width="300" x="0" y="0" /><path d="M129.779408853,161.948528254 m-62.5000004534,0.0 l-32.1691165291,20.2205876708 m93.7500030982,-21.1397063913 l67.0955892199,-1.83823532523 m1.83823532523,0.919117662617 l-2.75735283672,-5.51470567343 -2.75735283672,-31.2500002267 l-1.83823532523,-72.6102918707 m39.5220590391,97.4264683079 l-5.51470567343,-24.8161764373 0.0,-60.6617630123 l3.67647065047,-10.1102938354 5.51470567343,-2.75735283672 l27.5735301808,1.83823532523 m-65.2573517788,0.919117662617 l-2.75735283672,-10.1102938354 11.0294113469,-14.7058826019 l60.6617630123,-2.75735283672 m-47.7941154334,27.5735301808 l0.0,0.0 m-2.75735283672,4.59558816195 l6.43382378945,-8.27205881242 1.83823532523,1.83823532523 m-185.661768755,136.029415881 l5.51470567343,11.0294113469 22.0588226937,14.7058826019 l45.9558828286,1.83823532523 56.0661742458,-8.27205881242 l57.9044116869,-22.9779414143 11.0294113469,-20.2205876708 l5.51470567343,-21.1397063913 m-148.897058624,78.1249993577 l-0.919117662617,44.1176453875 m111.213239444,-63.4191191739 l-2.75735283672,4.59558816195 -3.67647065047,69.8529405453 " fill="none" stroke="black" stroke-width="1" /></svg>