<?xml version="1.0" encoding="utf-8" ?>
<svg baseProfile="full" height="300" version="1.1" width="300" xmlns="http://www.w3.org/2000/svg" xmlns:ev="http://www.w3.org/2001/xml-events" xmlns:xlink="http://www.w3.org/1999/xlink"><defs /><rect fill="none" height="300" width="300" x="0" y="0" /><path d="M157.812499855,174.174527395 m0.0,0.0 l-8.54952821865,10.0235849953 m-10.6132075508,-108.785380498 l4.42216994212,15.0353778808 0.589622652485,22.1108485471 m0.0,0.0 l-3.83254699877,2.35849060994 -2.94811316547,-1.47405658274 m0.0,0.0 l-2.65330188771,-2.65330188771 m0.0,0.0 l-2.65330188771,-2.94811316547 m-12.3820752174,-19.752358325 l-8.54952821865,-16.5094346574 m-0.884433930251,-4.71698121988 l28.0070741025,-33.6084895435 -28.0070741025,29.1863207648 l29.7759440959,-33.6084895435 -26.5330188771,32.7240576492 m0.294811326243,-0.589622652485 l29.4811324304,-35.9669797656 -26.2382072115,35.9669797656 l2.35849060994,7.07547144201 m53.6556610853,70.1650957427 m0.0,0.0 l1.7688678605,0.0 m0.0,0.0 l-8.2547173287,2.94811316547 2.06367933217,6.19103760871 m-20.3419816562,-11.2028301064 l-1.17924530497,13.8561327697 -2.94811316547,11.4976417719 l-6.78066055206,15.9198113262 -0.294811326243,14.4457545496 l1.7688678605,49.8231125353 -0.294811326243,6.19103760871 l-0.589622652485,0.589622652485 m-20.3419816562,-10.6132075508 l-6.78066055206,-2.94811316547 -2.65330188771,-7.37028310759 l-0.589622652485,-25.0589621004 1.47405658274,-0.589622652485 l7.07547144201,5.30660377541 16.8042447717,31.5448109869 l2.35849060994,8.84433988423 1.7688678605,17.3938681029 l0.0,4.71698121988 -1.47405658274,5.30660377541 l-7.37028310759,-3.24292444324 -14.7405662152,-18.5731132139 l-5.01179249765,-22.7004718783 -0.884433930251,-12.971697773 l0.294811326243,-12.0872643275 5.01179249765,-20.3419816562 l7.95990566312,-7.95990566312 5.60141505318,12.676886883 l6.48584888648,20.0471699906 m58.6674531951,-127.653302276 m0.0,0.0 l1.7688678605,12.3820752174 m0.0,0.0 l-4.12735866435,42.4528302033 -2.65330188771,10.6132075508 l-4.12735866435,7.37028310759 -5.30660377541,14.4457545496 l0.294811326243,13.8561327697 m14.4457545496,52.7712260886 l-7.66509399754,9.72877332972 -36.2617914312,-22.1108485471 " fill="none" stroke="black" stroke-width="1" /></svg>