<?xml version="1.0" encoding="utf-8" ?>
<svg baseProfile="full" height="300" version="1.1" width="300" xmlns="http://www.w3.org/2000/svg" xmlns:ev="http://www.w3.org/2001/xml-events" xmlns:xlink="http://www.w3.org/1999/xlink"><defs /><rect fill="none" height="300" width="300" x="0" y="0" /><path d="M161.574074683,193.981482297 m0.771604970382,81.0185177032 m8.48765429358,-80.2469118447 l-1.54320994076,26.2345687392 3.85802472504,3.08641988153 l37.0370365483,2.31481478427 m-28.5493842848,-40.8950617809 l-25.4629628807,8.48765429358 -22.3765435067,-8.48765429358 l-3.08641988153,-6.94444460656 10.8024698391,-36.2654347499 l6.94444460656,-47.0679005289 -3.85802472504,-2.31481478427 l-45.5246928719,-0.771604970382 -2.31481478427,-25.4629628807 l3.85802472504,-3.08641988153 13.1172843696,2.31481478427 l31.6358036588,-1.54320994076 m-37.0370365483,1.54320994076 l-18.5185182742,0.771604970382 22.3765435067,22.3765435067 m13.1172843696,-26.2345687392 l-1.54320994076,-18.5185182742 5.40123491955,-14.6604940566 l23.1481493652,-4.62962956854 16.9753085872,6.94444460656 l10.0308639806,8.48765429358 6.17283976306,17.7469144457 l-2.31481478427,23.1481493652 " fill="none" stroke="black" stroke-width="1" /></svg>