<?xml version="1.0" encoding="utf-8" ?>
<svg baseProfile="full" height="300" version="1.1" width="300" xmlns="http://www.w3.org/2000/svg" xmlns:ev="http://www.w3.org/2001/xml-events" xmlns:xlink="http://www.w3.org/1999/xlink"><defs /><rect fill="none" height="300" width="300" x="0" y="0" /><path d="M96.116504931,161.407767755 m0.0,8.49514543481 l0.0,-7.03883495304 114.563109112,-0.485436907076 l-8.49514543481,-12.8640775187 -8.49514543481,1.9417476283 l-43.4466021057,16.7475734138 -48.7864091212,10.9223302097 l-38.1067976445,4.36893208386 -2.66990286918,0.970873814152 l-6.06796129854,5.09708732474 -10.6796114767,-6.06796129854 l-8.00970860755,-2.42718445556 -4.85436891111,-0.485436907076 l-1.21359222778,-0.970873814152 -4.85436891111,-6.31067939288 l0.242718453538,-3.64077684298 1.21359222778,-2.66990286918 l11.4077676755,-17.4757283354 9.22330099498,-7.5242717803 l5.82524256562,-3.39805842935 19.4174756445,-5.09708732474 l26.699029969,-2.18446604193 16.0194172151,0.0 l8.49514543481,1.21359222778 3.88349525661,1.69902921468 l0.728155320703,1.21359222778 24.75728266,-11.8932038642 l5.82524256562,-4.36893208386 3.64077684298,-1.45631064141 m36.4077665141,14.0776699061 l-1.9417476283,2.66990286918 m-3.88349525661,6.06796129854 l-2.18446604193,6.31067939288 -1.45631064141,-1.21359222778 l-3.39805842935,-5.09708732474 -1.9417476283,-5.82524256562 l-2.42718445556,-3.88349525661 m-21.1165054977,-4.61165049749 l6.06796129854,-3.39805842935 10.1941746495,-0.242718453538 l7.5242717803,11.8932038642 1.21359222778,5.82524256562 l7.76699051321,2.66990286918 m1.21359222778,0.485436907076 l0.0,0.0 m0.0,-0.242718453538 l0.0,-20.8737867648 0.970873814152,-2.66990286918 l1.21359222778,-2.42718445556 18.9320394558,-21.1165054977 l3.15533969644,-7.28155368596 3.15533969644,-3.88349525661 l23.0582515296,0.0 8.49514543481,2.42718445556 l21.6019416864,10.9223302097 -27.9126210793,1.9417476283 l-15.7766997593,0.0 -7.03883495304,-0.728155320703 l-0.242718453538,6.31067939288 -2.42718445556,4.85436891111 l-1.21359222778,0.970873814152 m0.0,0.0 l0.0,0.0 m0.0,0.0 l-4.12621367023,0.0 -0.728155320703,3.88349525661 l-6.06796129854,12.6213587858 -7.28155368596,12.1359225971 l-2.91262128281,0.728155320703 4.36893208386,-3.88349525661 m28.3980585451,-50.7281538759 l0.0,2.18446604193 m-155.582523889,94.6601934475 l1.45631064141,18.9320394558 2.42718445556,12.8640775187 m76.9417463791,-50.0000027858 l4.36893208386,8.49514543481 1.9417476283,7.03883495304 m-57.281554556,-41.0194173308 l-9.70873782223,7.5242717803 -15.2912622935,16.7475734138 l-1.69902921468,2.66990286918 0.485436907076,1.21359222778 l7.28155368596,-1.21359222778 17.2330096025,-8.49514543481 l22.3300978851,-9.22330099498 35.1941754038,-11.4077676755 m-35.9223316025,10.6796114767 l-8.49514543481,3.88349525661 -13.3495149845,8.00970860755 " fill="none" stroke="black" stroke-width="1" /></svg>