<?xml version="1.0" encoding="utf-8" ?>
<svg baseProfile="full" height="300" version="1.1" width="300" xmlns="http://www.w3.org/2000/svg" xmlns:ev="http://www.w3.org/2001/xml-events" xmlns:xlink="http://www.w3.org/1999/xlink"><defs /><rect fill="none" height="300" width="300" x="0" y="0" /><path d="M132.371791143,269.391023221 m-2.40384609937,-64.1025640553 m2.40384609937,62.5000022728 l13.621795178,7.21153856162 m-18.4294879037,-70.5128196176 l74.5192346142,-20.8333326855 12.0192312874,-12.0192312874 l1.60256415408,-9.61538439748 -6.41025661634,-8.81410245219 l-15.2243590685,-12.8205132327 -23.2371795754,-8.01282050691 l-50.4807699314,12.8205132327 -20.8333326855,2.40384609937 l-9.61538439748,6.41025661634 -5.60897467105,8.81410245219 l47.2756421502,25.6410264653 36.8589758075,15.2243590685 m4.80769219874,-72.9166686156 m-7.21153856162,-0.801282077042 l-2.40384609937,-56.0897424943 1.60256415408,-32.852565027 l7.21153856162,-12.8205132327 m0.0,0.0 m-73.7179516149,20.0320517943 l0.0,0.0 m70.5128196176,-18.4294879037 l15.2243590685,-4.80769219874 29.6474372458,8.81410245219 l-7.21153856162,9.61538439748 -16.8269229591,4.80769219874 l-22.4358986842,-0.801282077042 m33.6538459182,-5.60897467105 l12.8205132327,1.60256415408 -7.21153856162,-2.40384609937 " fill="none" stroke="black" stroke-width="1" /></svg>