<?xml version="1.0" encoding="utf-8" ?>
<svg baseProfile="full" height="300" version="1.1" width="300" xmlns="http://www.w3.org/2000/svg" xmlns:ev="http://www.w3.org/2001/xml-events" xmlns:xlink="http://www.w3.org/1999/xlink"><defs /><rect fill="none" height="300" width="300" x="0" y="0" /><path d="M81.7765590308,149.175818644 m0.183150184496,0.915750892364 l2.01465193911,0.366300368992 12.0879116347,0.549450523372 l49.0842481198,0.549450523372 12.4542124253,-2.56410264318 l24.1758232693,-3.11355310632 30.2197805322,0.0 l5.12820528635,-0.549450523372 30.0366301369,0.0 l5.86080590387,-0.732600737984 10.9890111902,0.0 m-111.904760468,5.86080590387 l0.366300368992,2.19780209349 2.74725279756,6.59340652139 l7.87545784298,31.1355305813 0.915750892364,0.183150184496 l0.915750892364,-0.732600737984 3.11355310632,0.183150184496 l8.97435876926,4.76190449574 5.12820528635,-3.66300356946 l3.11355310632,-3.84615372384 3.11355310632,-5.67765550857 l0.915750892364,-4.76190449574 0.0,-17.9487175385 l-2.38095224787,-6.04395581733 -1.83150178473,-0.915750892364 l-2.74725279756,0.183150184496 -6.22710621263,2.74725279756 l-0.549450523372,0.915750892364 0.915750892364,0.183150184496 l5.86080590387,-0.732600737984 9.52380899148,-3.2967032607 l15.0183150684,-2.74725279756 4.57875458228,-2.01465193911 m-97.2527442631,16.8498170941 l0.0,2.93040295194 1.46520147597,3.47985341508 l1.09890104674,1.09890104674 2.56410264318,6.59340652139 l7.32600713891,13.1868130428 -4.57875458228,0.915750892364 l-65.9340652139,0.0 -17.0329674894,-3.84615372384 l-10.9890111902,-3.47985341508 -3.11355310632,-1.09890104674 l0.0,-2.56410264318 10.9890111902,-6.04395581733 l56.9597074084,-25.8241748997 38.6446871518,-19.047617983 l13.5531138334,-7.32600713891 10.9890111902,-6.59340652139 l7.32600713891,-5.31135519981 7.50915753422,-6.7765569167 l2.74725279756,-3.47985341508 -9.52380899148,27.6556769253 l-12.4542124253,29.8534797416 -19.2307683783,40.6593415002 l-27.2893761347,21.2454207992 -80.2197806286,0.0 l6.41025612609,-0.915750892364 9.70695938678,-5.31135519981 l15.9340660813,-11.5384614124 46.7032968357,-30.2197805322 l122.344317582,-71.0622685729 48.9010977245,-21.4285711945 l-5.31135519981,3.2967032607 -34.4322357694,31.6849817672 l-27.47252653,26.9230772715 -73.0769229212,73.6263741072 l-93.223443276,4.94505489105 -16.4835163035,0.0 l0.915750892364,0.0 4.21245427352,-2.93040295194 l17.3992663526,-13.9194136603 26.1904756903,-18.6813191198 l85.1648335922,-54.7619026647 54.2124553336,-37.9120855706 l56.7765570131,-12.27106203 5.12820528635,0.0 " fill="none" stroke="black" stroke-width="1" /></svg>