<?xml version="1.0" encoding="utf-8" ?>
<svg baseProfile="full" height="300" version="1.1" width="300" xmlns="http://www.w3.org/2000/svg" xmlns:ev="http://www.w3.org/2001/xml-events" xmlns:xlink="http://www.w3.org/1999/xlink"><defs /><rect fill="none" height="300" width="300" x="0" y="0" /><path d="M135.680190268,175.954652102 m-1.789976051,38.1861578476 l7.15990420398,60.8591900507 m-3.57995210199,-99.6420010224 l16.1097850476,27.4463011492 11.3365153167,13.1264911714 l-29.2362762191,16.1097850476 -11.9331739349,0.596658716369 l-10.7398566984,12.5298325532 -7.15990420398,3.57995210199 m-25.6563245095,-104.415276247 l19.6897367572,17.3031022841 16.7064444508,6.56324558572 l29.8329356222,6.56324558572 16.1097850476,-0.596658716369 l25.6563245095,-10.7398566984 m-102.625298038,-19.0930789238 l11.3365153167,-4.77326973095 32.8162294984,0.596658716369 l23.8663478699,-4.17661111269 7.15990420398,-2.98329348373 l16.7064444508,-28.0429605523 14.9164678111,-35.2028639714 l-0.596658716369,-23.8663478699 5.36992834921,-16.1097850476 l12.5298325532,-1.19331743274 10.1431980802,-3.57995210199 l-14.319808408,27.4463011492 -4.77326973095,20.2863961603 " fill="none" stroke="black" stroke-width="1" /></svg>