<?xml version="1.0" encoding="utf-8" ?>
<svg baseProfile="full" height="300" version="1.1" width="300" xmlns="http://www.w3.org/2000/svg" xmlns:ev="http://www.w3.org/2001/xml-events" xmlns:xlink="http://www.w3.org/1999/xlink"><defs /><rect fill="none" height="300" width="300" x="0" y="0" /><path d="M119.417078972,139.94251388 m-19.2939255375,13.136289314 l-11.9047618533,6.15763568345 -1.64203616425,-0.821018082127 l-0.410509041063,-6.56814465701 1.64203616425,-4.92610822276 l0.821018082127,-10.2627259591 2.05254513782,6.15763568345 l6.15763568345,0.410509041063 16.4203611025,-4.10509027563 l16.4203611025,2.05254513782 1.64203616425,-1.23152705569 l-0.821018082127,-2.05254513782 m-11.0837439062,83.3333362134 l48.850575954,-146.551723542 -47.2085378998,148.193761596 l52.5451572561,-161.33004875 -52.5451572561,164.203615345 l63.2183916487,-181.034488121 -69.3760257122,197.865360898 l78.4072220505,-205.254514862 -83.7438457269,218.390802016 l89.0804607632,-222.085387638 -92.7750377452,231.52708917 l100.985219377,-236.042693819 -103.858785972,242.200336522 l110.837439062,-246.305414378 -112.479477116,250.0 l112.479477116,-250.0 " fill="none" stroke="black" stroke-width="1" /></svg>