<?xml version="1.0" encoding="utf-8" ?>
<svg baseProfile="full" height="300" version="1.1" width="300" xmlns="http://www.w3.org/2000/svg" xmlns:ev="http://www.w3.org/2001/xml-events" xmlns:xlink="http://www.w3.org/1999/xlink"><defs /><rect fill="none" height="300" width="300" x="0" y="0" /><path d="M108.846155416,167.884613032 m-0.384615391815,-1.53846156726 l-10.7692312238,3.4615384631 -3.84615379167,3.84615379167 m11.5384618809,-48.0769226488 l0.384615391815,35.7692321345 1.1538461122,8.46153824048 m0.769230783631,1.92307689583 l-1.92307689583,0.384615391815 -25.769230556,25.3846147214 m29.2307690191,-23.4615375726 l1.1538461122,18.8461536298 1.92307689583,5.3846156119 m1.1538461122,-31.1538461679 l21.1538466131,24.6153850762 4.99999977738,3.84615379167 l2.30769222441,0.0 m-35.3846163,-65.3846149643 l-7.69230758333,-5.76923094047 -15.3846151667,-1.92307689583 l-8.46153824048,1.1538461122 -1.53846156726,0.0 l-0.769230783631,-1.53846156726 m11.5384618809,-1.92307689583 l-42.3076932262,-6.53846159762 -11.5384618809,6.53846159762 l-5.3846156119,5.3846156119 11.9230767036,-16.1538458238 l18.4615377952,-7.69230758333 7.69230758333,0.769230783631 l11.9230767036,3.4615384631 9.23076889762,-1.1538461122 l9.23076889762,3.07692313452 20.7692307786,-3.07692313452 l43.0769248952,8.07692291191 27.3076918702,0.0 l30.7692303333,-3.07692313452 33.0769233167,0.769230783631 l17.69230815,4.23076912024 8.846154075,5.3846156119 " fill="none" stroke="black" stroke-width="1" /></svg>