<?xml version="1.0" encoding="utf-8" ?>
<svg baseProfile="full" height="300" version="1.1" width="300" xmlns="http://www.w3.org/2000/svg" xmlns:ev="http://www.w3.org/2001/xml-events" xmlns:xlink="http://www.w3.org/1999/xlink"><defs /><rect fill="none" height="300" width="300" x="0" y="0" /><path d="M158.906121211,114.689856981 m-4.8197822805,-0.838222999312 l-7.54400685598,0.0 -8.8013411482,1.25733443005 l-11.735122266,2.5146688601 -15.088013712,4.4006705741 l-14.4593468415,5.44844915095 -21.374686827,10.6873434135 l-17.183571417,11.316010284 -7.54400685598,6.28667256376 l3.35289199725,0.209555749828 6.28667256376,-1.67644599862 l17.6026822964,-6.7057839945 33.7384748609,-9.84912055204 l12.7829000159,-2.93378056651 28.0804697189,-4.61022628947 l17.393127408,-2.30511314473 27.4518017458,-1.25733443005 l17.393127408,0.628667215026 14.8784577209,2.72422457548 l-5.23889371124,1.88600171399 -10.8968983019,1.67644599862 l-39.6060337886,2.09555742936 -33.7384748609,3.14333628188 l-18.2313502695,2.72422457548 -19.9077948898,3.98155914336 l-18.2313502695,4.8197822805 -20.3269068719,7.96311828672 l-18.4409051579,9.22045257894 -16.3453485555,11.735122266 l-2.93378056651,3.77200342799 -0.419111499656,1.46689028325 l1.04777871468,0.628667215026 8.17267427775,1.04777871468 l20.3269068719,-1.67644599862 18.4409051579,-3.35289199725 l69.9916172035,-15.297569703 14.2497908505,-2.30511314473 l39.8155897796,-4.4006705741 17.6026822964,-0.838222999312 l15.7166805824,0.419111499656 15.7166805824,1.04777871468 l28.918693683,3.77200342799 " fill="none" stroke="black" stroke-width="1" /></svg>