<?xml version="1.0" encoding="utf-8" ?>
<svg baseProfile="full" height="300" version="1.1" width="300" xmlns="http://www.w3.org/2000/svg" xmlns:ev="http://www.w3.org/2001/xml-events" xmlns:xlink="http://www.w3.org/1999/xlink"><defs /><rect fill="none" height="300" width="300" x="0" y="0" /><path d="M150.488662815,98.4949173446 m-9.1868651301,-0.781860837518 l-14.4644256869,1.95465202951 -13.2916341092,5.6684909113 l-22.0875673421,8.01407355241 -39.2885070531,20.9147767929 l-19.351055375,12.9007032405 -7.81860811805,18.1782648258 l0.0,45.3479272904 5.6684909113,-1.56372167504 l14.8553555271,-8.20953847253 30.6880382261,-14.0734948182 l39.2885070531,-15.4417508017 44.5660655529,-18.5691936376 l99.6872563335,-34.7928061767 15.2462863959,-15.8326816705 l0.0,-4.49569984787 -57.0758410102,14.8553555271 l-72.9085247377,16.6145423794 -82.8772454342,20.7193113586 l-37.1383872751,17.7873339571 0.0,18.1782648258 l2.54104756123,0.390930418759 12.7052388346,-4.10476923626 l29.5152456199,-12.1188425316 35.9655987829,-13.4870995436 l30.6880382261,-13.0961686749 19.351055375,-9.57779497032 l-15.6372162361,-1.95465202951 -31.6653633409,2.34558238399 l-39.4839724875,5.47302599119 -34.401875308,8.79593426137 l-9.57779497032,5.6684909113 0.0,0.977326014756 l10.5551211136,0.0 29.3197801856,-8.40500390689 l38.8975761844,-12.7052388346 42.0250190202,-11.9233770972 l81.1180565249,-24.4331504975 25.0195468006,-8.40500390689 " fill="none" stroke="black" stroke-width="1" /></svg>