<?xml version="1.0" encoding="utf-8" ?>
<svg baseProfile="full" height="300" version="1.1" width="300" xmlns="http://www.w3.org/2000/svg" xmlns:ev="http://www.w3.org/2001/xml-events" xmlns:xlink="http://www.w3.org/1999/xlink"><defs /><rect fill="none" height="300" width="300" x="0" y="0" /><path d="M77.4861904371,150.863257722 m0.0,75.9668521773 l-13.8121544458,21.4088393001 m13.1215468144,-20.3729283072 l6.9060772229,20.7182325772 m-5.87016577574,-56.629834863 l17.9558002345,-27.6243088916 12.085634913,-21.7541435701 m0.0,0.0 l-12.4309391829,1.03591156072 -13.8121544458,2.76243098001 l-32.4585650371,0.690607745002 -21.7541435701,-17.6104977814 l-2.41712716429,-7.25138103862 1.03591156072,-22.790054563 l19.6823197673,-8.97790011723 27.9696131616,-5.87016577574 l69.4060783159,-1.03591156072 36.9475132788,7.25138103862 l7.9419891243,16.9198892415 0.345303872501,3.79834242717 l-15.1933697087,26.2430936287 -22.0994478401,4.83425432857 l-24.1712698259,2.41712716429 -15.1933697087,-1.03591156072 l-3.79834242717,-2.07182312145 m47.3066304758,-58.3563525789 l8.97790011723,-4.83425432857 33.4944742131,-12.4309391829 l30.0414369644,-6.56077340718 16.9198892415,-6.9060772229 l8.97790011723,-1.38121549 21.4088393001,4.48895005862 l-10.0138120186,-0.345303872501 -3.10773479573,-1.03591156072 l9.66850865714,7.59668485434 -12.085634913,-3.45303861145 l-9.32320438719,1.03591156072 -10.3591162886,4.48895005862 l-10.7044196501,2.41712716429 -49.3784524617,17.6104977814 l-3.45303861145,0.345303872501 m-101.174034813,22.0994478401 l-7.59668485434,1.03591156072 " fill="none" stroke="black" stroke-width="1" /></svg>