<?xml version="1.0" encoding="utf-8" ?>
<svg baseProfile="full" height="300" version="1.1" width="300" xmlns="http://www.w3.org/2000/svg" xmlns:ev="http://www.w3.org/2001/xml-events" xmlns:xlink="http://www.w3.org/1999/xlink"><defs /><rect fill="none" height="300" width="300" x="0" y="0" /><path d="M58.0756015925,207.13058882 m54.982818584,-8.59106512122 m-56.701029122,6.01374592389 l3.4364261615,16.3230238433 m43.8144342654,-88.4879760601 l3.4364261615,30.9278348884 6.01374592389,17.1821302424 l0.859106540375,36.9415808123 4.29553256061,36.9415808123 l5.15463895972,20.6185558389 m-11.1683843185,-79.8969098088 l44.6735372742,1.71821308075 m-48.1099673911,-3.4364261615 l-0.859106540375,-8.59106512122 -40.378008669,-18.9003430407 l-7.73195872211,-17.1821302424 1.71821308075,-30.0687273592 l8.59106512122,-18.9003430407 54.1237110548,-27.491409292 l30.9278348884,-30.9278348884 21.4776633681,-14.6048110451 l13.745704646,-1.71821308075 53.2646035255,28.350514561 l-14.6048110451,5.15463895972 -18.0412366415,0.859106540375 l-35.2233680141,18.9003430407 -6.01374592389,12.8865982469 l-5.15463895972,67.0103104318 -6.872852323,12.8865982469 l-16.3230238433,9.45017152033 " fill="none" stroke="black" stroke-width="1" /></svg>