<?xml version="1.0" encoding="utf-8" ?>
<svg baseProfile="full" height="300" version="1.1" width="300" xmlns="http://www.w3.org/2000/svg" xmlns:ev="http://www.w3.org/2001/xml-events" xmlns:xlink="http://www.w3.org/1999/xlink"><defs /><rect fill="none" height="300" width="300" x="0" y="0" /><path d="M101.78882102,124.258294562 m0.0,10.4712035935 l-3.49040138915,12.216405149 -11.3438037973,99.0401340365 l0.0,27.0506097615 m16.14310664,-151.396160039 l0.0,-6.9808027783 m-17.8883070476,-73.2984263025 l3.49040138915,13.9616055566 14.8342057604,13.9616055566 l26.1780107056,-3.05410128725 m4.79930169485,-12.652704677 l-1.30890044919,-12.652704677 -10.0349040655,-13.9616055566 l-34.4677120678,18.7609072515 m17.4520063718,70.6806268389 l21.8150085387,7.4171028802 26.1780107056,16.579406168 l74.60732833,36.2129147711 m-98.1675326848,-112.565445804 l6.9808027783,-5.23560179676 0.436300173644,-5.23560179676 l-3.05410128725,-7.4171028802 m-34.9040127436,22.2513092145 l2.18150079648,-1.30890044919 0.436300173644,7.4171028802 l-8.289703084,29.232110845 0.872600347287,2.18150079648 l5.23560179676,1.30890044919 -0.436300173644,4.36300159295 l-3.92670149105,-0.436300173644 -31.8499126042,-10.0349040655 l-6.5445026764,-4.79930169485 -32.7225116602,-12.652704677 l0.0,-2.18150079648 2.18150079648,-0.436300173644 l82.0244352277,9.16230328781 62.390923181,-0.872600347287 l103.403140795,1.74520069457 " fill="none" stroke="black" stroke-width="1" /></svg>