<?xml version="1.0" encoding="utf-8" ?>
<svg baseProfile="full" height="300" version="1.1" width="300" xmlns="http://www.w3.org/2000/svg" xmlns:ev="http://www.w3.org/2001/xml-events" xmlns:xlink="http://www.w3.org/1999/xlink"><defs /><rect fill="none" height="300" width="300" x="0" y="0" /><path d="M194.148940161,128.368802959 m-2.12765946331,12.056737503 l0.0,10.9929074215 5.31914900813,56.0283662558 l0.0,31.9148931158 m20.212765018,-114.184394541 l4.25531892662,64.5390069079 0.0,36.8794303864 m-24.1134750059,-5.6737588798 l-14.8936164764,37.2340407245 m14.5390070712,-36.1702134418 l-1.06382973165,46.8085086593 m0.709219859976,-44.6808503621 l7.80141810988,42.553192065 m14.184396733,-47.1631189974 l0.0,34.7517720892 m6.02836875148,-37.5886510627 l14.184396733,37.5886510627 m-7.09219836652,-26.241135169 l14.5390070712,28.0141831279 m4.25531892662,-181.914894492 l-8.86524819139,-2.48226956822 -23.0496458574,-3.19148931158 l-10.6382980163,0.0 -42.1985817269,7.4468082382 l-24.4680853441,20.9219856944 -3.54609918326,14.5390070712 l15.2482268145,11.3475177596 44.326240024,5.31914900813 l77.3049641542,-55.6737596495 -46.0992917147,-10.6382980163 l-8.15602844803,2.48226956822 m-57.4468076085,12.7659572463 l-3.90070905494,-10.2836876781 -13.1205675845,-18.0851067209 l-3.19148931158,-6.38297862316 -9.57446793474,-10.9929074215 l-23.0496458574,1.06382973165 -21.6312045048,9.21985759659 l-52.4822703379,25.8865248308 -5.31914900813,12.056737503 l4.60992879829,20.212765018 -1.06382973165,7.80141810988 l-3.54609918326,4.96453913645 -4.60992879829,1.06382973165 l-1.41843971995,-0.709219859976 3.90070905494,-4.96453913645 l28.0141831279,-20.9219856944 12.4113469082,-4.96453913645 l20.212765018,-2.12765946331 12.4113469082,-3.19148931158 l25.8865248308,-12.4113469082 3.19148931158,0.0 l3.54609918326,2.12765946331 4.96453913645,6.02836875148 l8.51063785323,16.6666672342 " fill="none" stroke="black" stroke-width="1" /></svg>