<?xml version="1.0" encoding="utf-8" ?>
<svg baseProfile="full" height="300" version="1.1" width="300" xmlns="http://www.w3.org/2000/svg" xmlns:ev="http://www.w3.org/2001/xml-events" xmlns:xlink="http://www.w3.org/1999/xlink"><defs /><rect fill="none" height="300" width="300" x="0" y="0" /><path d="M69.4234399836,187.6890336 m-1.89035920115,3.54442354101 l0.0,18.1947071168 1.89035920115,15.1228736092 m-1.18147446186,-0.236294900143 l-6.14366701518,0.708884661576 m6.37996218731,0.472589800287 l-10.1606805896,0.0 6.61625735943,-4.25330812487 l-1.18147446186,0.945179600574 -11.5784497573,1.65406433986 l-17.2495276716,4.01701326358 -8.50661624974,3.30812867972 l-1.41776932315,1.41776932315 0.472589800287,3.30812867972 l18.6672962177,-14.8865784371 47.7315700621,-26.7013221232 l58.6011330597,-38.0434779517 -7.32514163246,7.79773135504 l-21.2665406244,18.4310022889 -10.8695654843,7.79773135504 l87.1928190466,-109.404535386 21.2665406244,-24.5746680607 l8.27032107762,0.0 -113.657848484,125.945177541 l-24.1020802032,25.9924390935 -8.50661624974,7.56143680459 l31.8998109365,-37.0982997499 34.026464999,-43.4782619372 l14.177694164,-16.7769373274 -6.85255190989,9.92438541748 l-6.61625735943,7.08884708201 28.1190931559,-43.7145571093 l34.7353505154,-35.444233545 36.1531190614,0.0 l-13.4688086476,26.2287342656 -38.516068296,51.5122878427 l-45.1323231687,40.8790175305 0.0,-1.41776932315 l15.5954627101,-22.9206043425 34.7353505154,-43.4782619372 l34.7353505154,-35.2079383729 19.848770835,-13.9413989919 l0.0,6.85255190989 -34.2627601711,47.9678652342 l-16.5406421552,27.8827979838 -18.1947071168,32.844991625 l-34.026464999,70.1795815737 17.0132324995,-19.6124769062 l46.5500942015,-62.1455556682 24.8109632329,-28.8279761856 l20.7939502801,-19.6124769062 13.9413989919,-12.0510401016 l0.0,3.54442354101 -5.19848757003,15.3591687813 l-9.68809086702,22.6843091704 -20.5576563513,31.1909254202 l-20.7939502801,21.2665406244 m-1.41776932315,-21.5028357965 l0.0,0.0 m0.0,0.0 l-4.01701326358,-1.41776932315 -5.19848757003,-0.236294900143 l-7.79773135504,0.0 -8.74291142187,1.41776932315 l-14.8865784371,4.25330812487 -7.32514163246,3.78071840229 l-14.177694164,11.1058606564 -17.4858228437,17.4858228437 l-9.21550114445,10.3969751401 10.3969751401,-4.48960298616 l68.9981106865,-38.9886586402 32.1361061087,-15.8317578822 l27.8827979838,-16.0680530543 -4.72589784745,0.945179600574 l-21.7391309686,8.03402652717 -25.2835535771,12.0510401016 l-23.865785031,12.9962195467 -15.3591687813,10.8695654843 l-21.9754261407,18.4310022889 -3.30812867972,3.54442354101 l-1.41776932315,4.72589784745 0.472589800287,1.41776932315 l1.89035920115,0.0 2.12665406244,-2.36294892372 m0.0,-0.236294900143 " fill="none" stroke="black" stroke-width="1" /></svg>