<?xml version="1.0" encoding="utf-8" ?>
<svg baseProfile="full" height="300" version="1.1" width="300" xmlns="http://www.w3.org/2000/svg" xmlns:ev="http://www.w3.org/2001/xml-events" xmlns:xlink="http://www.w3.org/1999/xlink"><defs /><rect fill="none" height="300" width="300" x="0" y="0" /><path d="M114.285712909,145.879123436 m-0.915750916302,51.7399236842 m24.7252742884,-53.5714276249 l1.37362629916,60.4395577655 m-23.8095223181,-8.69963347901 l-13.2783879099,15.1098894414 m8.24175809614,-11.904761159 l15.1098894414,7.32600733042 m21.0622712255,-2.74725259833 l-16.4835161923,14.1941386757 m6.4102565647,-10.0732596276 l20.6043952404,1.8315018326 m-51.7399236842,-64.5604368136 l18.3150177237,-1.37362629916 39.3772889493,-7.32600733042 l11.4468863785,-3.66300366521 10.0732596276,-8.69963347901 l10.5311356128,-16.9413921775 17.399266958,-11.904761159 l38.003663403,-10.9890103933 24.2673983033,-1.8315018326 m-166.666665864,60.8974337507 l-17.8571429432,-1.37362629916 -5.0366298138,-1.8315018326 l-17.8571429432,-18.7728937089 -6.4102565647,-2.74725259833 l-6.4102565647,-1.37362629916 -29.7619053069,0.915750916302 l10.9890103933,-11.904761159 11.904761159,-8.69963347901 l23.3516487422,-4.57875443093 m2.74725259833,-1.8315018326 l7.32600733042,-0.457875458151 5.49450519666,-4.12087904807 " fill="none" stroke="black" stroke-width="1" /></svg>