<?xml version="1.0" encoding="utf-8" ?>
<svg baseProfile="full" height="300" version="1.1" width="300" xmlns="http://www.w3.org/2000/svg" xmlns:ev="http://www.w3.org/2001/xml-events" xmlns:xlink="http://www.w3.org/1999/xlink"><defs /><rect fill="none" height="300" width="300" x="0" y="0" /><path d="M122.435899702,136.172161151 m-2.01465201289,3.6630037036 m-0.183150191203,0.183150191203 l2.19780217397,-0.366300382406 1.28205136854,-2.01465201289 l8.97435909791,-5.31135539431 21.9780231853,-7.14285748704 l4.02930402577,-0.366300382406 19.5970698865,-4.57875474996 l-10.6227107886,9.34065990194 -8.7912086959,3.11355322034 l-22.1611735873,9.89011014427 -13.3699639277,5.12820547415 l-98.3516502367,32.7838834122 22.7106228659,-7.50915780921 l23.626374876,-5.12820547415 31.1355317215,-5.8608061185 l34.0659362263,-5.49450579633 138.46153431,-26.7399278554 l0.0,-9.89011014427 -1.64835169071,-0.366300382406 l-67.2161204426,27.8388283401 -28.0219787421,8.05860805155 l-23.9926737526,10.9890115927 -2.74725289816,1.8315018518 l1.09890108699,0.732600764813 8.24175845356,0.0 l65.3846164225,-1.64835169071 27.6556779381,-11.904762639 " fill="none" stroke="black" stroke-width="1" /></svg>