<?xml version="1.0" encoding="utf-8" ?>
<svg baseProfile="full" height="300" version="1.1" width="300" xmlns="http://www.w3.org/2000/svg" xmlns:ev="http://www.w3.org/2001/xml-events" xmlns:xlink="http://www.w3.org/1999/xlink"><defs /><rect fill="none" height="300" width="300" x="0" y="0" /><path d="M142.140394987,125.559859776 m-0.215331614615,-1.07665803767 l-9.25925932221,0.215331614615 -5.59862162591,0.861326458458 l-9.47459061815,2.79931081295 -9.25925932221,4.30663215066 l-3.87596899225,2.58397923375 -1.29198961687,2.58397923375 l0.430663229229,4.09130057146 9.25925932221,8.39793300538 l4.30663215066,1.50732133771 2.79931081295,0.0 l8.18260114291,-2.79931081295 2.79931081295,-1.93798449612 l0.861326458458,-1.50732133771 1.72265291692,-10.1205862056 l0.0,-4.95262717154 -1.07665803767,-3.66063741304 l-1.72265291692,0.0 m-16.7958660108,16.1498704234 l-0.430663229229,2.58397923375 -4.73729530908,8.18260114291 l-6.6752798052,14.2118859272 -1.93798449612,12.704565156 m21.7484931823,-29.5004311668 l1.29198961687,3.01464267542 0.0,23.2558139535 l-1.72265291692,7.10594296361 -4.30663215066,1.29198961687 l-3.66063741304,0.0 -13.9965551978,-5.59862162591 m1.07665803767,-0.645994808436 l-6.02928535084,9.68992248062 -13.5658914729,18.0878549195 m34.6683890678,-20.8871657324 l-0.430663229229,1.72265291692 -14.2118859272,20.2411724111 l-3.22997425463,5.81395348837 -4.30663215066,9.25925932221 l-1.93798449612,6.6752798052 m25.4091303121,-97.1145521365 l0.0,0.0 m7.10594296361,1.72265291692 l0.645994808436,0.0 m-9.25925932221,0.430663229229 l0.0,-0.215331614615 m2.36864765454,2.58397923375 l6.45994850925,6.02928535084 6.6752798052,2.58397923375 l5.81395348837,0.215331614615 1.93798449612,-2.36864765454 m-22.3944865036,27.7777785331 l1.07665803767,0.0 2.36864765454,3.01464267542 l9.25925932221,24.3324709997 8.18260114291,17.6571923276 l8.61326430132,16.5805341483 10.5512487974,16.7958660108 l10.1205862056,9.68992248062 15.0732122441,0.215331614615 l3.87596899225,-3.22997425463 5.59862162591,-12.0585707017 l9.68992248062,-42.6356589147 10.1205862056,-59.8621897835 l8.61326430132,-58.7855304711 -0.645994808436,-43.0663226397 l-4.52196372987,-0.645994808436 -16.1498704234,0.0 l-13.1352277479,1.50732133771 -16.7958660108,10.5512487974 l-21.1024975949,17.4418604651 -24.9784665871,27.5624466707 l-24.3324709997,35.9603779765 -23.2558139535,38.1136943351 l-16.1498704234,31.2230838005 -5.38329032996,27.5624466707 l0.0,18.7338505069 8.82859616379,11.6279069767 l36.6063735639,0.0 28.4237718545,-7.32127482608 l38.3290261975,-13.7812233353 38.1136943351,-18.5185186444 l32.9457364341,-20.2411724111 25.4091303121,-18.5185186444 l12.704565156,-12.0585707017 0.645994808436,-1.29198961687 l-2.79931081295,0.215331614615 -14.6425496522,7.32127482608 l-35.3143846552,21.9638250448 -52.5409109917,31.007751938 l-57.7088711588,31.2230838005 -86.9939727292,0.0 " fill="none" stroke="black" stroke-width="1" /></svg>