<?xml version="1.0" encoding="utf-8" ?>
<svg baseProfile="full" height="300" version="1.1" width="300" xmlns="http://www.w3.org/2000/svg" xmlns:ev="http://www.w3.org/2001/xml-events" xmlns:xlink="http://www.w3.org/1999/xlink"><defs /><rect fill="none" height="300" width="300" x="0" y="0" /><path d="M183.236997375,142.774572157 m10.8381505263,127.890169937 m60.6936399057,-123.554912388 l7.94797660906,69.364158806 3.61271668368,54.9132939722 m-111.271676329,-143.786126957 l18.7861261849,8.67051985075 54.9132939722,5.78034688399 l39.7398849462,-0.722543360499 6.50289012568,-15.1734099764 l-1.445086721,-18.7861261849 -13.0057802514,-13.0057802514 l-15.1734099764,-8.67051985075 -16.6184974103,-13.7283234931 m9.39306309244,7.22543336737 l-39.7398849462,-18.7861261849 -22.3988433438,-5.0578036423 m-65.751445449,23.8439298272 l0.0,0.0 m49.8554922309,50.5780326211 l-20.2312145692,-8.67051985075 -10.8381505263,-6.50289012568 l-2.16762996269,-3.61271668368 15.8959532181,-20.9537568604 l28.9017334695,-52.0231210054 m0.722543360499,15.8959532181 l-95.3757193087,-2.890173442 -33.9595390127,-3.61271668368 l-18.0635838937,-18.7861261849 4.33525992537,7.22543336737 " fill="none" stroke="black" stroke-width="1" /></svg>