<?xml version="1.0" encoding="utf-8" ?>
<svg baseProfile="full" height="300" version="1.1" width="300" xmlns="http://www.w3.org/2000/svg" xmlns:ev="http://www.w3.org/2001/xml-events" xmlns:xlink="http://www.w3.org/1999/xlink"><defs /><rect fill="none" height="300" width="300" x="0" y="0" /><path d="M25.0,212.005929922 m1.23517784546,-3.70553369887 l2.22332015433,-49.6541509799 3.95256923547,-18.774703381 l6.66996046299,-16.3043473651 20.9980235354,-12.5988146412 l9.8814227637,-7.65810260937 3.45849816228,-3.95256923547 l14.3280630724,-25.1976292823 7.41106739774,-19.7628455274 l3.45849816228,-4.44664030866 22.7272732664,-1.48221338206 l1.97628461773,1.97628461773 2.96442676412,11.6106724948 l0.494071154433,11.6106724948 -4.44664030866,13.8339926491 l-5.92885352824,13.0928850644 -3.45849816228,13.0928850644 l5.92885352824,5.92885352824 9.63438755207,1.72924908114 l6.42292460143,4.19960477206 4.44664030866,5.43478245504 l21.9861656817,16.3043473651 4.19960477206,8.64624475576 l1.48221338206,7.41106739774 0.988142308867,8.39920954413 l0.0,21.9861656817 -3.21146230071,13.339920926 l-5.92885352824,12.3517787796 -4.44664030866,12.104742918 m12.3517787796,20.009881389 l1.23517784546,-0.494071154433 9.63438755207,-11.8577070565 l3.70553369887,-7.65810260937 1.97628461773,-9.38735169051 l8.39920954413,-25.9387342673 4.19960477206,-20.7509876738 l1.97628461773,-5.18774691845 0.988142308867,-6.66996046299 l2.71739122752,-7.90513847093 3.95256923547,-16.5513832267 l16.3043473651,-26.1857701288 9.38735169051,-10.1284586253 l3.70553369887,-7.16403153618 1.72924908114,-1.48221338206 l8.39920954413,-14.8221347955 5.43478245504,-13.5869567875 l7.16403153618,-12.5988146412 0.741106691029,3.95256923547 l-5.43478245504,12.104742918 -4.19960477206,16.0573128034 l-0.741106691029,11.6106724948 9.63438755207,15.8102769419 l14.0810272108,9.63438755207 3.21146230071,6.91699632455 l0.0,45.4545465328 -1.23517784546,10.8695649101 l-7.90513847093,28.1620544216 -5.18774691845,11.6106724948 l-10.3754938369,19.0217392426 " fill="none" stroke="black" stroke-width="1" /></svg>