<?xml version="1.0" encoding="utf-8" ?>
<svg baseProfile="full" height="300" version="1.1" width="300" xmlns="http://www.w3.org/2000/svg" xmlns:ev="http://www.w3.org/2001/xml-events" xmlns:xlink="http://www.w3.org/1999/xlink"><defs /><rect fill="none" height="300" width="300" x="0" y="0" /><path d="M217.023632143,105.132927405 m0.369276222199,5.90841955519 l-8.4933531713,78.2865559487 -1.10782860588,28.4342688057 l-2.21565721175,16.2481530481 -3.32348593907,6.64697187814 l-4.06203826203,4.06203826203 -15.5096007252,6.64697187814 m22.525848279,-15.5096007252 l2.95420977759,7.75480036258 5.53914339371,7.75480036258 m-9.23190549426,-16.9867063426 l-1.4771048888,2.58493361612 -0.738552444398,12.5553914333 m-45.051696558,-140.69423161 l-4.06203826203,41.3589378578 0.0,20.3101922817 l3.32348593907,6.64697187814 22.8951249263,3.69276210055 l61.2998534923,0.738552444398 8.4933531713,0.0 l0.0,-3.69276210055 25.8493342181,7.01624803962 m-28.0649921585,-1.10782860588 l8.12407652406,1.84638105027 12.1861147861,8.12407652406 m-23.6336782207,-14.0324960792 l5.90841955519,0.738552444398 13.6632204035,8.4933531713 l3.32348593907,0.738552444398 m-63.1462328424,-14.0324960792 l1.4771048888,-1.84638105027 0.369276222199,-89.7341164688 l-2.95420977759,-9.23190549426 -2.95420977759,-4.43131442351 l-8.12407652406,-18.8330876358 -7.3855242011,-4.06203826203 l-8.4933531713,-7.75480036258 -6.64697187814,-2.58493361612 l-26.5878875126,-1.10782860588 -18.8330876358,0.738552444398 l-14.7710484022,6.27769571666 -3.32348593907,4.06203826203 l-5.53914339371,16.9867063426 -0.738552444398,9.60118116997 l11.0782867874,5.53914339371 35.8197920353,8.86262884701 l26.5878875126,11.8168391104 21.7872969276,12.1861147861 m2.58493361612,1.10782860588 l4.43131442351,2.21565721175 m-24.002954868,-18.4638109885 l4.06203826203,0.369276222199 37.6661752715,34.3426893325 m5.90841955519,5.16986723223 l9.23190549426,9.23190549426 5.16986723223,6.64697187814 l0.0,1.84638105027 -214.18020669,109.305763228 m187.592319177,-142.909891494 l2.95420977759,1.10782860588 15.8788773724,13.2939437563 l16.6174296954,18.4638109885 11.0782867874,24.3722295722 " fill="none" stroke="black" stroke-width="1" /></svg>