<?xml version="1.0" encoding="utf-8" ?>
<svg baseProfile="full" height="300" version="1.1" width="300" xmlns="http://www.w3.org/2000/svg" xmlns:ev="http://www.w3.org/2001/xml-events" xmlns:xlink="http://www.w3.org/1999/xlink"><defs /><rect fill="none" height="300" width="300" x="0" y="0" /><path d="M103.776645419,193.442999337 m-2.08526412301,-6.48748865361 l-0.695088015603,-9.73123237083 2.31696010281,-6.48748865361 l2.54865608261,-2.31696010281 6.95088061321,-2.78035206241 l33.1325296835,0.0 6.48748865361,-3.4754403066 l3.2437443268,-4.17052824601 1.6218721634,-3.70713628641 l9.03614473621,-31.9740506988 4.63392020562,-10.6580168996 l2.31696010281,-2.54865608261 9.03614473621,-3.4754403066 l5.32900844981,-0.695088015603 12.2798884534,0.463392035801 l3.70713628641,2.08526412301 6.71918432862,6.48748865361 l1.8535681432,3.4754403066 1.8535681432,6.25579236902 l0.695088015603,3.70713628641 -5.79240040941,0.2316960179 l-2.78035206241,-0.463392035801 -3.4754403066,-2.31696010281 l-9.03614473621,-2.54865608261 -5.79240040941,5.32900844981 l-4.40222422581,8.10936020743 -5.32900844981,19.4624647417 l-6.02409608443,14.3651525764 -0.2316960179,14.3651525764 l-9.73123237083,7.18257628822 -3.01204804221,1.6218721634 l-15.0602414302,2.78035206241 -21.3160337992,5.09731216522 l-14.1334562919,0.2316960179 -3.2437443268,-1.6218721634 m22.4745127839,0.926784071602 l1.8535681432,21.7794263684 1.1584800514,52.594993206 l1.1584800514,0.463392035801 0.926784071602,-0.926784071602 m12.0481921689,-78.5449478204 l8.10936020743,5.56070412482 31.9740506988,15.7553290648 l-8.80444845163,1.1584800514 -39.6200183371,13.6700649418 l-23.4012979222,6.95088061321 -15.5236327802,2.54865608261 l-12.511584738,4.86561618542 m83.6422612048,-148.28544658 l16.4504166995,-28.4986088683 23.6329942068,-44.253936714 l3.70713628641,0.0 -4.63392020562,3.93883226621 l-5.32900844981,8.10936020743 -8.57275277661,18.5356808225 l-47.2659884137,111.677482381 -36.6079690757,98.2391076276 l-12.511584738,9.49953669582 -2.31696010281,0.0 l44.0222404294,0.0 6.48748865361,-1.6218721634 l5.09731216522,-3.70713628641 5.79240040941,-7.18257628822 " fill="none" stroke="black" stroke-width="1" /></svg>