<?xml version="1.0" encoding="utf-8" ?>
<svg baseProfile="full" height="300" version="1.1" width="300" xmlns="http://www.w3.org/2000/svg" xmlns:ev="http://www.w3.org/2001/xml-events" xmlns:xlink="http://www.w3.org/1999/xlink"><defs /><rect fill="none" height="300" width="300" x="0" y="0" /><path d="M133.012169661,90.4158212351 m-1.01419881374,-6.59229187242 l-15.7200810293,-26.8762674802 -5.07099390195,-6.59229187242 l-7.60649118646,-6.08519254893 -18.7626783044,-2.53549695098 l-42.5963485096,1.01419881374 -1.52129813723,-2.53549695098 l7.60649118646,-11.6632864414 25.8620701674,-3.54969593149 l27.3833674708,1.52129813723 18.7626783044,10.6490871274 l8.11359050995,6.59229187242 12.1703850979,25.3549701768 l10.6490871274,11.1561864509 17.7484783233,4.56389457846 l5.57809322544,0.0 30.4259647459,-15.7200810293 l53.7525349605,51.2170403442 -1.01419881374,8.11359050995 l-13.6916837354,67.4442186959 -48.6815403914,7.60649118646 l-51.7241403348,-15.2129823729 -4.05679525498,-4.56389457846 l-9.63488848042,-29.4117647647 1.01419881374,-53.7525349605 m85.1926970192,106.49086994 l8.62068983344,67.9513186864 m-57.3022295578,-76.0649078622 l-11.1561864509,31.9472620493 14.7058823824,-9.63488848042 l16.7342796763,1.01419881374 12.1703850979,-1.52129813723 l41.0750512062,0.0 18.2555783139,-2.02839762749 " fill="none" stroke="black" stroke-width="1" /></svg>