<?xml version="1.0" encoding="utf-8" ?>
<svg baseProfile="full" height="300" version="1.1" width="300" xmlns="http://www.w3.org/2000/svg" xmlns:ev="http://www.w3.org/2001/xml-events" xmlns:xlink="http://www.w3.org/1999/xlink"><defs /><rect fill="none" height="300" width="300" x="0" y="0" /><path d="M187.698413715,96.6931204773 m0.793650738136,21.9576718428 l2.38095230141,24.6031747092 0.0,9.78835977068 l-0.793650738136,2.9100527355 -11.1111105079,16.4021155448 l-11.375661073,12.9629623752 1.32275125923,1.05820104218 l9.52380920563,-1.05820104218 m-15.3439146766,-29.8941776581 l3.17460295254,7.93650790336 m0.0,0.0 l-7.14285690423,-17.724866978 -1.05820104218,-4.49735438577 l-14.0211632434,-20.1058192794 -3.17460295254,-8.46560833745 l-0.529100521091,-15.0793641116 2.64550251845,-9.25925864058 l4.23280416873,-22.4867715809 1.85185186732,-4.23280416873 l1.32275125923,-1.05820104218 12.9629623752,39.6825374288 l-0.529100521091,30.9523799183 -3.17460295254,16.6666661099 l-8.2010577724,20.1058192794 -12.6984118102,21.6931212777 l-20.1058192794,23.544972449 -26.4550258805,23.544972449 l-66.6666644394,2.9100527355 -0.264550260545,-6.61375647014 l1.58730147627,-5.29100503691 7.93650790336,-10.5820100738 l9.52380920563,-10.5820100738 17.724866978,-14.2857138085 l21.1640201476,-14.5502643735 29.100528747,-15.6084652417 l68.5185183948,-33.3333322197 41.7989391652,-16.9312166749 l8.46560833745,0.0 0.793650738136,21.4285707127 l10.5820100738,-2.9100527355 16.4021155448,-12.1693120721 l10.5820100738,-9.78835977068 3.96825395168,-5.29100503691 l1.58730147627,-2.38095230141 -2.38095230141,-0.793650738136 l-2.11640208436,0.793650738136 -4.49735438577,2.64550251845 l-99.2063505321,44.4444420316 -62.9629620968,33.0687816547 l-39.1534390827,22.2222210158 -36.7724867813,14.8148149385 l-2.9100527355,12.6984118102 0.0,8.99470877154 l21.1640201476,-15.0793641116 23.8095230141,-11.640210942 l62.4338609667,-23.8095230141 4.23280416873,3.70370373464 l1.58730147627,2.64550251845 1.85185186732,0.0 l0.0,-2.64550251845 11.1111105079,-8.46560833745 l4.49735438577,-6.61375647014 1.32275125923,-5.820105471 l-1.05820104218,-3.70370373464 -4.49735438577,-0.529100521091 l-31.7460316135,1.85185186732 -25.3968236203,4.76190460282 l-69.3121645219,16.6666661099 0.0,46.560843768 " fill="none" stroke="black" stroke-width="1" /></svg>