<?xml version="1.0" encoding="utf-8" ?>
<svg baseProfile="full" height="300" version="1.1" width="300" xmlns="http://www.w3.org/2000/svg" xmlns:ev="http://www.w3.org/2001/xml-events" xmlns:xlink="http://www.w3.org/1999/xlink"><defs /><rect fill="none" height="300" width="300" x="0" y="0" /><path d="M173.931614472,146.688036482 m1.49572658194,48.2905970587 l-2.35042732529,1.70940176778 -13.4615386753,4.48717946475 l-40.3846137773,11.5384617217 m63.0341907842,-16.2393163723 l-11.1111107879,1.70940176778 -26.9230773506,14.5299148856 l-2.77777769697,2.13675213945 m44.0170967149,-20.726495556 l5.12820502226,27.5641037514 m-72.2222223698,-77.9914554793 l-3.6324787214,19.65812047 -1.28205125556,10.6837609784 m0.0,0.0 l-12.8205133989,5.55555539393 -33.5470100792,11.3247862548 l-8.76068402474,6.6239316042 -2.35042732529,4.27350427891 l0.641025627782,0.641025627782 m53.8461547013,-19.65812047 l1.70940176778,5.76923086085 -0.427350441945,8.11965818614 l-5.55555539393,11.5384617217 m-5.34188048918,-19.65812047 l-6.83760707112,8.33333365306 -4.70085465058,7.05128197588 m25.6410267978,-62.8205153173 l4.48717946475,2.35042732529 8.11965818614,1.49572658194 l24.1452985294,0.641025627782 13.6752141422,-0.85470088389 l23.5042743772,-4.70085465058 29.487180705,-9.82906023501 l15.5982910959,-3.20512834972 11.5384617217,-1.49572658194 l9.18803439641,0.641025627782 4.27350427891,1.49572658194 l10.6837609784,5.12820502226 5.34188048918,4.27350427891 m-72.2222223698,-1.70940176778 l-14.9572646951,-14.1025639518 -9.40170930117,-7.05128197588 l-35.6837602511,-32.4786327446 -8.76068402474,-2.13675213945 l-16.8803416487,-1.28205125556 -5.34188048918,4.05982909307 l-5.55555539393,2.56410251113 -1.06837606973,0.85470088389 l-0.85470088389,2.77777769697 -2.35042732529,0.641025627782 m0.427350441945,0.427350441945 l-0.213675220973,0.427350441945 m0.0,0.0 l-4.9145301175,4.05982909307 -2.77777769697,7.90598328139 l-4.48717946475,7.69230781447 -6.19658123253,14.7435903525 l-6.83760707112,0.427350441945 -1.92307695362,-0.213675220973 l-1.70940176778,-1.28205125556 -1.49572658194,-15.3846156289 l-2.13675213945,-7.05128197588 -4.05982909307,-4.48717946475 l-12.1794869981,-5.98290632777 -8.54700855782,-0.213675220973 l-5.76923086085,1.06837606973 -6.6239316042,3.41880353556 l-3.20512834972,2.99145316389 -4.27350427891,8.97435892949 l4.70085465058,5.98290632777 " fill="none" stroke="black" stroke-width="1" /></svg>