<?xml version="1.0" encoding="utf-8" ?>
<svg baseProfile="full" height="300" version="1.1" width="300" xmlns="http://www.w3.org/2000/svg" xmlns:ev="http://www.w3.org/2001/xml-events" xmlns:xlink="http://www.w3.org/1999/xlink"><defs /><rect fill="none" height="300" width="300" x="0" y="0" /><path d="M127.318539656,111.693547675 m0.0,0.0 l-23.9415313721,34.7782271158 m29.7379038842,-35.2822573173 m0.0,0.0 l-1.00806454687,0.0 2.01612909375,4.53629037806 l8.31653213876,5.04032256861 11.3407259451,2.77217737959 l12.0967738995,0.252016136719 2.01612909375,-0.504032273437 l-20.665323128,39.5665339207 m-20.1612902745,-20.9173395548 m0.0,0.0 l-17.3891135579,33.266128555 m0.0,-2.52016128431 m0.0,0.0 l0.0,2.01612909375 m59.7278241951,-3.78024209222 l0.0,-0.252016136719 m-1.76411299847,20.9173395548 m0.0,0.0 l102.066536158,-87.449599317 m-132.812497793,-4.53629037806 m0.0,0.0 l0.0,1.00806454687 1.00806454687,0.756048368716 l11.0887095183,6.04838694973 14.3649190885,6.04838694973 l27.4697586951,6.04838694973 12.3487903263,1.26008064215 l14.3649190885,0.252016136719 7.56048418444,-0.252016136719 l19.4052423201,-3.02419347487 10.0806451372,-0.504032273437 l5.29233866389,0.504032273437 6.30040337653,1.76411299847 l6.30040337653,3.02419347487 2.52016128431,4.28427428278 l0.0,2.77217737959 -1.26008064215,4.28427428278 l-2.01612909375,3.02419347487 -9.07258075611,5.79637118597 l-57.459676354,56.7036270736 m-114.667336281,-30.4939531645 m0.0,0.0 l1.51209673743,2.01612909375 -0.504032273437,-3.02419347487 l44.3548380734,-66.0282242565 m-83.6693582194,58.4677420611 m0.0,0.0 l0.0,1.00806454687 1.00806454687,0.756048368716 l5.29233866389,1.26008064215 12.3487903263,5.79637118597 l38.8104846403,14.8689519421 43.0947585915,-71.0685474881 m-67.0362899637,-20.665323128 m0.0,0.252016136719 l1.51209673743,1.76411299847 m-35.2822573173,3.78024209222 m0.0,0.0 l0.504032273437,1.00806454687 2.77217737959,-0.756048368716 m-28.2258079755,86.4415336099 m0.0,0.0 l-1.00806454687,0.504032273437 -1.00806454687,-0.756048368716 l24.9495970793,-63.256048866 m0.252016136719,68.0443556708 m0.0,0.0 l-1.00806454687,-1.00806454687 1.00806454687,-0.252016136719 l48.6391120246,10.5846773278 83.1653253658,9.07258075611 l-1.00806454687,0.0 32.5100819268,-66.2802406833 " fill="none" stroke="black" stroke-width="1" /></svg>