<?xml version="1.0" encoding="utf-8" ?>
<svg baseProfile="full" height="300" version="1.1" width="300" xmlns="http://www.w3.org/2000/svg" xmlns:ev="http://www.w3.org/2001/xml-events" xmlns:xlink="http://www.w3.org/1999/xlink"><defs /><rect fill="none" height="300" width="300" x="0" y="0" /><path d="M25.0,55.2587620193 m0.0,0.0 l0.0,2.92153598023 m108.09683017,186.560939981 l4.59098479806,-5.84307196046 26.293822724,-47.9966595519 l14.6076788031,-20.4507507636 4.59098479806,-1.66944909234 l2.0868112968,0.0 6.67779636937,17.1118531279 l5.84307196046,15.4424043101 3.33889818469,19.1986646992 l2.50417350126,1.25208675063 m41.7362270341,-79.2988265333 l20.4507507636,4.59098479806 m9.18196959612,1.25208675063 l-35.4757923201,-37.9799666449 -10.016694005,-8.34724518721 l-12.1035055764,-16.277128719 -2.0868112968,-0.834724546172 l-26.293822724,0.834724546172 -10.4340567585,4.59098479806 l-5.00834700252,4.1736225936 -1.25208675063,4.1736225936 l2.0868112968,6.26043416492 11.2687811674,5.00834700252 l39.2320549054,12.9382299853 9.5993323496,5.00834700252 l22.5375623349,17.9465775368 6.67779636937,3.33889818469 l6.26043416492,0.417362273086 m-89.732886586,-53.8397337085 l2.92153598023,1.66944909234 0.0,17.1118531279 l2.0868112968,16.277128719 7.09515857383,18.3639391922 m2.0868112968,4.1736225936 l11.6861439209,15.0250415566 31.719531931,17.5292147833 l-212.020032806,-36.3105178271 m0.0,0.834724546172 l120.200332453,-12.5208683298 m50.9181944341,-50.0834733193 m-6.67779636937,2.50417350126 l-75.5425705364,76.3772960433 -30.8848086201,27.5459087884 l-4.1736225936,8.76460739166 -2.50417350126,17.9465775368 l34.2237062558,-29.6327203597 " fill="none" stroke="black" stroke-width="1" /></svg>