<?xml version="1.0" encoding="utf-8" ?>
<svg baseProfile="full" height="300" version="1.1" width="300" xmlns="http://www.w3.org/2000/svg" xmlns:ev="http://www.w3.org/2001/xml-events" xmlns:xlink="http://www.w3.org/1999/xlink"><defs /><rect fill="none" height="300" width="300" x="0" y="0" /><path d="M149.140893858,120.360821579 m3.43642626247,114.261169131 m30.9278357972,-123.711343189 l6.87285252494,123.711343189 -5.15463911118,-10.3092782224 l15.4639178986,21.4776639992 6.87285252494,5.15463911118 m-15.4639178986,-8.59106537365 l6.87285252494,0.859106565618 12.0274922012,25.7731972511 l1.71821313124,-0.859106565618 m-70.4467380982,-36.0824743433 l18.900343596,20.6185564447 m-13.7457050499,-24.9140896966 l10.3092782224,12.8865986255 -3.43642626247,34.3642614946 m-12.0274922012,-165.807559112 l42.9553279984,-6.87285252494 29.2096229485,-14.6048114742 l6.87285252494,-22.3367692934 -22.3367692934,-29.2096229485 l-34.3642614946,-11.1683846467 -48.1099688047,0.859106565618 l-20.6185564447,5.15463911118 -17.1821307473,21.4776639992 l0.0,8.59106537365 36.0824743433,18.900343596 l10.3092782224,9.450171798 25.7731972511,6.87285252494 l20.6185564447,-2.57731955559 m22.3367692934,-65.2920972918 " fill="none" stroke="black" stroke-width="1" /></svg>