<?xml version="1.0" encoding="utf-8" ?>
<svg baseProfile="full" height="300" version="1.1" width="300" xmlns="http://www.w3.org/2000/svg" xmlns:ev="http://www.w3.org/2001/xml-events" xmlns:xlink="http://www.w3.org/1999/xlink"><defs /><rect fill="none" height="300" width="300" x="0" y="0" /><path d="M134.374993962,184.06249558 m3.74999986229,43.7499985304 l9.37500027234,3.12499995375 5.62499999897,-10.0000001809 l3.12499995375,13.1249997235 3.74999986229,-6.87499981604 l0.625000011305,-9.37500027234 -4.3750001819,-27.4999992642 l0.625000011305,-14.9999994492 m21.2500001788,0.625000011305 l0.0,40.0000007235 6.87499981604,6.87499981604 l0.0,5.62499999897 13.1249997235,11.2499999979 l4.3750001819,-2.50000004522 5.00000009044,-25.6250003607 l1.25000002261,-11.8749999065 -1.87499993114,-29.9999988983 m-71.8749985252,16.2499992662 l-10.0000001809,2.50000004522 -23.1250007266,1.25000002261 l-28.1249999949,-6.87499981604 -18.124999814,-24.99999963 l8.12499963311,-22.4999999959 92.5000029063,-22.4999999959 l53.7500003556,16.8749999969 -10.6250000894,29.3750014563 l-5.00000009044,4.3750001819 m-93.1249970597,-43.7499985304 l-6.87499981604,-10.6250000894 4.3750001819,-22.4999999959 l20.6249994481,-16.2499992662 9.37500027234,-12.499999815 l20.0000003618,-16.8749999969 8.75000036381,-1.25000002261 l6.24999990751,2.50000004522 0.0,13.1249997235 l-33.1249992631,60.6249985273 m71.2499977946,-3.12499995375 l42.5000003576,-11.2499999979 2.50000004522,28.1249999949 l-22.4999999959,13.1249997235 -11.8749999065,-3.12499995375 m15.6250001798,-27.4999992642 l0.0,-0.625000011305 m5.62499999897,9.37500027234 l0.625000011305,0.625000011305 m13.7499996321,-27.4999992642 l26.8750001778,-3.74999986229 -15.6250001798,26.2499994471 l-4.3750001819,0.625000011305 m-131.874996322,62.5000007194 l-13.7499996321,36.8750003587 13.1249997235,8.75000036381 l-2.50000004522,24.99999963 10.6250000894,1.87499993114 l13.7499996321,8.12499963311 6.24999990751,-0.625000011305 l0.0,-56.8750007204 -9.37500027234,-40.6250014542 m-92.5000029063,-9.37500027234 l-11.8749999065,0.625000011305 -6.87499981604,2.50000004522 l-5.00000009044,12.499999815 16.8749999969,1.87499993114 l17.5000007276,-4.3750001819 " fill="none" stroke="black" stroke-width="1" /></svg>