<?xml version="1.0" encoding="utf-8" ?>
<svg baseProfile="full" height="300" version="1.1" width="300" xmlns="http://www.w3.org/2000/svg" xmlns:ev="http://www.w3.org/2001/xml-events" xmlns:xlink="http://www.w3.org/1999/xlink"><defs /><rect fill="none" height="300" width="300" x="0" y="0" /><path d="M104.470199221,104.470200514 m2.06953640367,-1.65562917738 l-2.06953640367,-50.0827836368 -3.72516558106,-12.0033111957 l-6.62251670954,-10.7615889724 -3.31125835477,-2.89735112848 l-5.79470225697,-2.06953640367 -5.3807944862,0.413907294346 l-7.8642383884,5.79470225697 -8.27814561468,11.1754967432 l-9.10596006726,23.5927146207 9.93377451983,-4.55298003363 l0.0,2.89735112848 -2.89735112848,5.79470225697 l0.0,2.06953640367 2.48344362996,0.827814588692 l12.0033111957,-4.13907280734 7.8642383884,0.0 l7.45033116211,39.3211903086 2.48344362996,4.13907280734 l4.13907280734,2.89735112848 5.3807944862,15.314570095 l0.413907294346,25.6622512966 -14.0728478716,30.2152324192 l-2.06953640367,14.9006623242 0.827814588692,5.79470225697 l4.96688725991,9.10596006726 11.1754967432,14.0728478716 l10.3476822906,18.6258279053 1.65562917738,26.0761590674 l1.65562917738,-12.4172189665 9.51986783802,-24.0066223915 l4.55298003363,10.7615889724 8.69205284097,14.0728478716 l2.06953640367,1.65562917738 1.24172181498,-2.06953640367 l4.96688725991,-24.0066223915 4.96688725991,-39.7350980793 l13.6589401009,-38.9072868936 0.827814588692,-21.109272352 l-3.72516558106,-7.8642383884 -19.4536434468,-16.9701990001 l-9.93377451983,-6.62251670954 -14.9006623242,-7.45033116211 l-13.6589401009,-5.79470225697 -6.20860948325,-1.24172181498 l0.0,5.79470225697 6.20860948325,9.93377451983 l5.3807944862,4.13907280734 26.0761590674,7.03642393582 l22.3509934863,3.72516558106 10.7615889724,4.55298003363 l5.79470225697,6.20860948325 -0.827814588692,10.3476822906 l-3.72516558106,5.79470225697 -10.7615889724,10.3476822906 l36.0099346762,-29.3874168777 -32.2847690951,28.5596035141 l8.69205284097,-0.827814588692 30.2152324192,-12.8311256483 l-34.354305771,21.9370857156 2.89735112848,0.0 l16.1423845476,-12.8311256483 52.5662259055,-53.3940414471 m3.72516558106,-12.4172189665 l-29.8013246484,13.2450334191 -37.6655635813,24.0066223915 l-40.1490058501,36.0099346762 28.5596035141,-30.62914019 l64.983445961,-56.7052992574 7.8642383884,-3.72516558106 l3.72516558106,0.0 -6.62251670954,12.0033111957 l-28.5596035141,25.2483435259 -62.0860915657,48.4271525537 m-13.6589401009,8.69205284097 m-11.1754967432,5.3807944862 l-7.8642383884,1.65562917738 23.1788090279,-87.3344350915 l6.20860948325,-16.1423845476 m2.06953640367,-12.0033111957 l-2.06953640367,-5.3807944862 -10.3476822906,0.0 l-16.1423845476,-7.8642383884 m-22.7649012571,45.5298025142 l6.62251670954,74.5033116211 " fill="none" stroke="black" stroke-width="1" /></svg>