<?xml version="1.0" encoding="utf-8" ?>
<svg baseProfile="full" height="300" version="1.1" width="300" xmlns="http://www.w3.org/2000/svg" xmlns:ev="http://www.w3.org/2001/xml-events" xmlns:xlink="http://www.w3.org/1999/xlink"><defs /><rect fill="none" height="300" width="300" x="0" y="0" /><path d="M190.912516744,66.8552036771 m-14.3288084973,5.65610882622 l-12.8205130749,6.78733039305 -53.1674200895,51.2820522995 l-11.3122176524,49.773754893 37.3303171618,-12.4434387232 l42.2322797649,-56.1840109344 6.03318268183,-19.2307701084 l-2.6395174853,-22.6244353049 -3.01659134092,-8.2956258155 l2.26244338168,16.2141782714 12.0663653637,59.5776761309 l15.0829562086,51.6591266512 10.9351433008,49.3966805414 m-119.155352262,-80.3167416617 l5.65610882622,-12.0663653637 4.52488676336,-4.90196061897 l23.3785820241,-23.3785820241 6.03318268183,-2.26244338168 l1.50829567046,0.754147835229 0.377073917614,23.0015076724 l4.14781290775,56.1840109344 m-16.2141782714,-75.7918573785 l-41.10105671,27.9034702755 -51.6591266512,38.8386145683 l-12.0663653637,13.5746607861 m188.159879247,24.8868774465 l23.0015076724,-8.67270016714 23.7556563757,-5.27903497061 l6.41025653744,0.377073917614 5.27903497061,5.65610882622 l3.39366519653,7.54147810428 m-65.9879361406,-0.754147835229 l-16.591251631,0.0 -11.3122176524,1.88536952607 l-20.3619911792,6.41025653744 -8.67270016714,-1.50829567046 l-13.9517351377,-11.3122176524 -7.54147810428,-8.67270016714 l-6.78733039305,-23.0015076724 -1.88536952607,-22.6244353049 " fill="none" stroke="black" stroke-width="1" /></svg>