<?xml version="1.0" encoding="utf-8" ?>
<svg baseProfile="full" height="300" version="1.1" width="300" xmlns="http://www.w3.org/2000/svg" xmlns:ev="http://www.w3.org/2001/xml-events" xmlns:xlink="http://www.w3.org/1999/xlink"><defs /><rect fill="none" height="300" width="300" x="0" y="0" /><path d="M142.083656276,191.927288531 m20.9147767822,-0.390930418558 m-8.60046882258,-0.781860837116 l-0.390930418558,-16.8100078051 1.17279119139,-8.2095384683 m-1.17279119139,-1.17279119139 l5.86395634265,1.36825649709 3.90930405701,-1.95465202851 l3.71383887988,-4.30023441129 0.781860837116,-5.47302598837 l-1.36825649709,-2.15011720565 -3.71383887988,-3.51837370274 l-6.45035161694,-4.10476923415 -6.05942126266,-2.15011720565 l-4.10476923415,0.195465209279 -0.977326014254,0.781860837116 l-3.90930405701,6.84128197121 -1.17279119139,4.30023441129 l0.195465209279,3.3229085256 3.71383887988,4.10476923415 l5.27756055411,3.3229085256 1.95465202851,-0.195465209279 l1.95465202851,-1.17279119139 -1.17279119139,-1.56372167423 m1.95465202851,-20.1329171021 l0.977326014254,0.0 3.12744334846,-2.15011720565 l5.86395634265,-7.03674740548 6.6458170512,-1.75918685137 l2.15011720565,0.195465209279 0.586395595696,0.977326014254 l-0.195465209279,3.51837370274 -3.12744334846,7.62314319402 l-1.56372167423,1.95465202851 -4.49569984556,2.15011720565 l-0.977326014254,1.36825649709 m7.81860811403,-18.3737302507 l4.10476923415,-1.95465202851 -1.36825649709,-0.586395595696 l-2.34558238278,0.195465209279 -5.08209511984,3.71383887988 l2.54104755992,1.36825649709 7.03674740548,1.75918685137 l-1.36825649709,0.0 2.54104755992,-0.390930418558 l-1.95465202851,1.75918685137 -5.86395634265,1.56372167423 l26.5832682048,-0.390930418558 17.2009376452,1.17279119139 l-21.3057076507,2.34558238278 -78.5770140658,3.71383887988 l-88.350269323,0.0 0.0,-2.34558238278 l2.73651299419,-0.781860837116 39.8749033357,-4.10476923415 l30.2971073418,-1.75918685137 33.0336193075,-4.88663019983 l34.4018752903,-6.84128197121 31.2744324561,-7.62314319402 l28.5379204904,-8.99139969111 30.6880382103,-13.6825639424 l1.17279119139,-0.977326014254 -12.7052388281,7.81860811403 l-24.0422196164,11.7279126853 -34.7928061589,13.6825639424 l-45.3479272671,15.4417507938 -49.4526972726,15.0508209538 l-53.7529327124,14.4644256795 -11.9233770911,11.9233770911 l0.0,22.4784981993 5.27756055411,1.75918685137 l29.3197801705,-2.73651299419 58.0531640382,-9.96872583393 l78.3815486316,-20.1329171021 78.9679449344,-29.5152456047 l0.0,-37.3338526903 " fill="none" stroke="black" stroke-width="1" /></svg>