<?xml version="1.0" encoding="utf-8" ?>
<svg baseProfile="full" height="300" version="1.1" width="300" xmlns="http://www.w3.org/2000/svg" xmlns:ev="http://www.w3.org/2001/xml-events" xmlns:xlink="http://www.w3.org/1999/xlink"><defs /><rect fill="none" height="300" width="300" x="0" y="0" /><path d="M194.694070472,143.307836822 m-2.39005731509,14.3403445193 l-1.91204591495,96.5583191766 m38.7189290703,-152.485656137 l-0.478011478738,2.39005731509 -13.3843217191,16.2523901199 l-76.0038220539,37.7629050125 m53.0592748473,-13.3843217191 l0.956022957475,-7.17017225967 3.34608042976,-4.78011463018 m32.9827922687,-31.0707466682 l0.478011478738,-2.39005731509 4.78011463018,-3.34608042976 l4.30210323004,-9.56022926035 2.39005731509,-1.43403435761 l33.4608017824,-7.6481836598 -9.56022926035,-0.956022957475 l-9.56022926035,-5.25812603031 -6.69216085953,-6.21414883059 l-7.6481836598,-14.3403445193 -7.17017225967,-4.30210323004 l-11.9502868898,-0.478011478738 -14.3403445193,5.25812603031 l-6.69216085953,6.21414883059 -30.5927346392,20.076481321 l-35.3728498982,31.0707466682 -20.076481321,15.2963673196 l-24.8565953224,13.3843217191 -12.9063096901,3.8240918299 l-15.7743780909,0.0 -36.8068834698,-6.69216085953 l18.1644357204,4.78011463018 86.5200766297,3.34608042976 l4.78011463018,2.86806871523 " fill="none" stroke="black" stroke-width="1" /></svg>