<?xml version="1.0" encoding="utf-8" ?>
<svg baseProfile="full" height="300" version="1.1" width="300" xmlns="http://www.w3.org/2000/svg" xmlns:ev="http://www.w3.org/2001/xml-events" xmlns:xlink="http://www.w3.org/1999/xlink"><defs /><rect fill="none" height="300" width="300" x="0" y="0" /><path d="M153.401359846,141.815472129 m-7.44047611391,28.6989802553 l-1.48809533464,8.07823141712 32.100340381,-88.6479575044 l6.59013608248,-15.3061228028 10.8418373582,-6.16496606677 l14.6683680589,0.0 -17.8571428971,86.3095282905 l-12.3299321335,76.7431993016 -1.7006803425,0.0 l6.80272136998,-11.4795921021 10.2040814957,-21.8962600039 l12.3299321335,-29.7619044556 4.46428572427,-13.8180280275 l-9.14115673605,4.88945601963 -28.6989802553,19.345238791 l-51.2329961217,40.6037406952 12.3299321335,-9.56632675176 l37.840136432,-31.675169806 84.1836754155,-72.0663274509 l19.1326535035,-15.3061228028 -12.117346846,3.18877567714 l-36.7772122317,16.7942175782 -62.9251735113,42.3044229953 l-24.2346936921,20.8333335664 -22.9591842042,24.0221084046 l-5.73979605106,7.01530609819 25.0850348421,-19.345238791 l74.4047656134,-73.3418391759 42.9421788578,-43.7925200078 l16.1564628342,0.0 -5.10204074784,0.425170085624 l-71.8537421634,35.5017005067 -150.722789866,106.29251847 l-16.1564628342,20.8333335664 21.4710894289,-28.2738096803 l108.630956632,-121.81122656 40.3911554077,-12.9676868775 " fill="none" stroke="black" stroke-width="1" /></svg>