<?xml version="1.0" encoding="utf-8" ?>
<svg baseProfile="full" height="300" version="1.1" width="300" xmlns="http://www.w3.org/2000/svg" xmlns:ev="http://www.w3.org/2001/xml-events" xmlns:xlink="http://www.w3.org/1999/xlink"><defs /><rect fill="none" height="300" width="300" x="0" y="0" /><path d="M164.760144033,144.003693207 m5.53505513113,-37.8228786508 l-3.69003695634,-58.1180810006 6.45756482529,-4.61254604374 l27.675277476,-6.45756482529 11.0701102623,0.0 l9.22509208748,11.9926193497 0.922509239086,11.0701102623 l-8.30258300008,11.0701102623 -12.9151296506,10.1476011749 l-12.9151296506,1.84501847817 -10.1476011749,-2.76752756557 l-3.69003695634,-4.61254604374 m42.4354253013,8.30258300008 l31.3653138255,4.61254604374 18.450184175,16.6051660002 l0.922509239086,-4.61254604374 -3.69003695634,-11.0701102623 l-26.752767175,-23.9852386993 -26.752767175,-10.1476011749 m11.9926193497,31.3653138255 l-7.38007391269,-6.45756482529 m-41.5129150004,60.8856070492 l-30.4428035246,2.76752756557 -37.8228786508,-14.7601478254 m23.9852386993,5.53505513113 l-25.8302593012,-62.7306276511 -4.61254604374,-31.3653138255 m11.0701102623,-15.6826569128 l-28.5977853498,107.0110687 m51.6605186023,17.5276750876 l-35.0553501751,-9.22509208748 -22.1402205245,-9.22509208748 m12.9151296506,-4.61254604374 l-0.922509239086,61.8081173502 -5.53505513113,38.7453865247 m34.1328423012,-70.1107003502 l1.84501847817,14.7601478254 -1.84501847817,55.3505549519 m1.84501847817,6.45756482529 l34.1328423012,-11.9926193497 m-32.2878216994,23.0627308255 l16.6051660002,12.9151296506 m0.922509239086,-19.3726932624 l24.9077490002,4.61254604374 m-77.4907730494,-1.84501847817 l23.0627308255,25.8302593012 m-24.9077490002,-23.0627308255 l-9.22509208748,28.5977853498 m10.1476011749,-27.675277476 l23.0627308255,30.4428035246 m-22.1402205245,-138.376380099 l-51.6605186023,3.69003695634 m32.2878216994,6.45756482529 l-10.1476011749,-112.546120797 m1.84501847817,-8.30258300008 l0.922509239086,8.30258300008 -12.9151296506,124.538745001 m156.826566701,-98.7084857001 l0.0,0.0 " fill="none" stroke="black" stroke-width="1" /></svg>