<?xml version="1.0" encoding="utf-8" ?>
<svg baseProfile="full" height="300" version="1.1" width="300" xmlns="http://www.w3.org/2000/svg" xmlns:ev="http://www.w3.org/2001/xml-events" xmlns:xlink="http://www.w3.org/1999/xlink"><defs /><rect fill="none" height="300" width="300" x="0" y="0" /><path d="M160.504196454,123.214288342 m-6.30252053233,30.462183379 l-10.5042011175,23.1092421822 -22.0588222086,29.4117647872 l-19.9579822614,10.5042011175 m84.0336089401,-85.0840302954 l45.1680657725,85.0840302954 19.9579822614,23.1092421822 m-15.7563023672,6.30252053233 l-66.1764680075,-3.15126026616 -35.7142846286,-10.5042011175 l-44.1176444172,-2.10084029259 m112.394952372,-116.596637793 l19.9579822614,-22.0588222086 m-14.7058823936,5.25210055875 l-6.30252053233,-7.35294119679 -19.9579822614,-10.5042011175 l-24.1596635375,-2.10084029259 -35.7142846286,17.8571423143 l-1.0504201463,8.40336117036 7.35294119679,6.30252053233 l24.1596635375,6.30252053233 2.10084029259,3.15126026616 m-16.8067223407,-47.2689057197 l-59.8739454025,-1.0504201463 -7.35294119679,8.40336117036 l-3.15126026616,24.1596635375 6.30252053233,52.5210069693 m123.949576227,-75.6302491515 l3.15126026616,-6.30252053233 18.9075622879,-12.6050410647 l22.0588222086,-7.35294119679 21.008402235,94.5378114394 m-160.714279447,79.8319290458 l-45.1680657725,-40.9663858782 -30.462183379,-6.30252053233 m216.386556009,44.1176444172 l6.30252053233,-1.0504201463 12.6050410647,-17.8571423143 l14.7058823936,-51.470585614 m-118.69746945,8.40336117036 l50.4201642586,53.5714283247 10.5042011175,15.7563023672 " fill="none" stroke="black" stroke-width="1" /></svg>