<?xml version="1.0" encoding="utf-8" ?>
<svg baseProfile="full" height="300" version="1.1" width="300" xmlns="http://www.w3.org/2000/svg" xmlns:ev="http://www.w3.org/2001/xml-events" xmlns:xlink="http://www.w3.org/1999/xlink"><defs /><rect fill="none" height="300" width="300" x="0" y="0" /><path d="M177.046781118,134.649122741 m-28.5087729547,-12.4269008589 l-70.175436977,-16.0818711342 m32.1637422683,-19.0058473543 l-73.0994170435,2.92397670097 8.04093556708,11.6959068039 l27.0467848446,17.5438592442 m9.50292367716,-12.4269008589 l-21.1988304811,-10.2339186938 -3.65497075602,0.0 l1.46198835049,2.19298240553 m49.7076034357,-13.157894914 l-26.315789828,5.84795340194 m21.9298254977,16.0818711342 l-10.9649127488,-2.19298240553 -28.5087729547,2.92397670097 m103.801169279,78.9473694839 l-82.6023368743,0.730994175243 m-13.888888969,-51.9005846393 l-38.0116947087,24.1228067012 0.730994175243,4.38596481106 l29.2397660481,16.0818711342 -14.6198830241,-2.19298240553 l6.57894745699,8.04093556708 10.2339186938,5.84795340194 l-6.57894745699,-2.19298240553 -17.5438592442,3.65497075602 l-7.30994151203,15.3508770791 11.6959068039,5.1169593469 l0.0,-21.9298254977 35.8187135051,-4.38596481106 l-6.57894745699,-21.1988304811 -10.2339186938,-10.2339186938 l7.30994151203,18.2748542609 -1.46198835049,-9.50292367716 l-36.5497085218,2.19298240553 -9.50292367716,10.2339186938 l15.3508770791,19.0058473543 24.1228067012,0.730994175243 l-6.57894745699,-8.04093556708 -5.84795340194,-2.19298240553 m129.38596409,-67.9824596198 l-5.84795340194,18.2748542609 -4.38596481106,32.8947372849 l-6.57894745699,19.736842371 57.0175459094,0.730994175243 l38.7426897253,-2.19298240553 9.50292367716,-3.65497075602 l5.1169593469,-5.1169593469 -19.0058473543,-40.2046797586 l-21.9298254977,-18.2748542609 -43.1286559787,-9.50292367716 l-16.8128661508,0.0 -13.157894914,5.84795340194 l-2.92397670097,7.30994151203 " fill="none" stroke="black" stroke-width="1" /></svg>