<?xml version="1.0" encoding="utf-8" ?>
<svg baseProfile="full" height="300" version="1.1" width="300" xmlns="http://www.w3.org/2000/svg" xmlns:ev="http://www.w3.org/2001/xml-events" xmlns:xlink="http://www.w3.org/1999/xlink"><defs /><rect fill="none" height="300" width="300" x="0" y="0" /><path d="M101.263534359,167.599275256 m4.96389875329,21.6606488894 l2.25631764212,54.1516257853 m-37.9061361501,-111.462090511 l19.4043321377,17.5992782615 14.4404333844,9.47653403753 l11.2815885074,4.51263528423 17.1480141988,2.70758111118 l18.0505411369,0.451263543264 42.4187744024,-6.76895322316 l64.9819490427,-7.22021669222 14.8916962599,-0.902527086527 l0.0,1.80505417305 m-143.50180097,10.8303244447 l22.5631770148,24.8194949537 -4.96389875329,1.80505417305 l-13.0866423836,-3.15884487705 -27.9783386435,9.47653403753 m-32.4909745214,-64.0794209174 l-6.76895322316,-4.06137181517 -17.1480141988,-16.6967513234 l-5.41516222236,5.86642569142 -4.51263528423,-1.35379055559 l1.35379055559,-4.51263528423 6.76895322316,-6.3176897541 l7.22021669222,-11.7328513828 5.41516222236,-4.96389875329 l16.6967513234,-8.12274363034 24.8194949537,-15.794223198 l95.2166032507,-9.02527056846 6.76895322316,5.86642569142 l19.8555950132,10.3790615693 38.3574002128,28.8808667689 l5.86642569142,8.5740070994 -0.451263543264,5.41516222236 l7.22021669222,24.368230891 0.0,5.41516222236 m-164.259928858,7.67148016128 l8.5740070994,-2.70758111118 6.76895322316,-0.451263543264 l13.5379064463,-4.96389875329 4.51263528423,-9.47653403753 l0.902527086527,-6.76895322316 -1.80505417305,-10.3790615693 l-4.51263528423,-7.67148016128 -9.02527056846,-5.41516222236 l-13.0866423836,-1.35379055559 -16.2454872607,4.06137181517 l-52.7978335972,30.6859206451 -22.5631770148,15.3429603226 l1.35379055559,1.35379055559 m72.2021645477,-28.8808667689 l9.92779750659,4.06137181517 " fill="none" stroke="black" stroke-width="1" /></svg>