<?xml version="1.0" encoding="utf-8" ?>
<svg baseProfile="full" height="300" version="1.1" width="300" xmlns="http://www.w3.org/2000/svg" xmlns:ev="http://www.w3.org/2001/xml-events" xmlns:xlink="http://www.w3.org/1999/xlink"><defs /><rect fill="none" height="300" width="300" x="0" y="0" /><path d="M62.9746900616,113.080171227 m0.351617451854,4.21940919097 l14.4163154682,43.9521802675 3.86779179694,8.08720145045 l4.21940919097,0.703234903707 64.345993747,-36.2165985238 l6.68073141177,-5.62587922966 -58.0168797293,-7.38396619984 l-30.5907183691,-1.75808720145 -30.9423343755,1.05485229774 l46.0618837067,1.40646980741 29.5358647994,2.46132222079 l94.9367102659,4.57102658501 57.6652618727,8.43881838195 l-8.79043623852,-4.21940919097 -95.2883281225,-31.6455700886 l-22.1518990621,-5.27426183562 -23.9099864948,-3.86779179694 l-9.14205317002,0.351617451854 -9.84528888317,2.10970459549 l-20.3938116293,7.73558359387 -7.38396619984,5.62587922966 l-6.68073141177,8.43881838195 -5.62587922966,4.21940919097 l-6.68073141177,7.38396619984 4.21940919097,0.0 l6.68073141177,2.10970459549 72.7848075036,37.9746841064 l48.5232087027,20.7454294859 36.5682126801,18.28410634 l5.97749662369,1.05485229774 -22.8551347752,-6.32911401773 l-87.2011248219,-14.0646976116 -89.3108319614,-17.9324903336 l40.0843875455,-12.3066101789 31.9971879452,-8.08720145045 l33.7552735278,-6.32911401773 33.4036556712,-3.16455700886 l54.8523227204,-3.16455700886 42.8973266978,0.703234903707 l13.009845892,1.75808720145 " fill="none" stroke="black" stroke-width="1" /></svg>