<?xml version="1.0" encoding="utf-8" ?>
<svg baseProfile="full" height="300" version="1.1" width="300" xmlns="http://www.w3.org/2000/svg" xmlns:ev="http://www.w3.org/2001/xml-events" xmlns:xlink="http://www.w3.org/1999/xlink"><defs /><rect fill="none" height="300" width="300" x="0" y="0" /><path d="M72.6495754235,69.0170930046 m-6.41025646611,6.83760682223 l-11.96581222,5.98290610999 2.991453055,-8.11965789059 l2.991453055,-21.3675211789 4.70085447947,-11.5384613017 l8.11965789059,-7.26495717835 13.6752136445,-7.26495717835 l10.2564096712,-1.2820512089 4.70085447947,1.2820512089 l5.55555519171,4.27350412335 23.0769226034,40.1709413455 l0.854700852779,14.1025634384 -4.27350412335,10.6837605895 l-19.2307688362,29.0598287134 -9.40170895895,8.97435860283 m-25.6410258644,-63.6752103699 l15.3846150689,6.41025646611 -5.98290610999,43.5897441944 l0.854700852779,15.8119659872 m-24.7863240279,-68.3760659737 l-10.6837605895,6.41025646611 m28.6324777951,56.837604672 l11.96581222,26.9230763706 10.2564096712,14.9572641507 l35.4700857417,14.1025634384 38.0341867541,0.427350426389 l46.5811961251,-11.1111103834 m-4.27350412335,-1.2820512089 l5.12820483559,20.5128193424 4.27350412335,61.965811194 l3.84615376723,17.9487172057 m-11.1111103834,-99.9999979481 l36.3247853296,0.0 " fill="none" stroke="black" stroke-width="1" /></svg>