<?xml version="1.0" encoding="utf-8" ?>
<svg baseProfile="full" height="300" version="1.1" width="300" xmlns="http://www.w3.org/2000/svg" xmlns:ev="http://www.w3.org/2001/xml-events" xmlns:xlink="http://www.w3.org/1999/xlink"><defs /><rect fill="none" height="300" width="300" x="0" y="0" /><path d="M129.029306687,173.717953508 m-0.366300379582,4.94505503401 l1.648351678,9.70695966742 -0.549450539258,3.11355319633 m0.0,0.0 l2.74725287698,0.91575091884 1.46520151833,1.46520151833 m-4.39560431406,-2.19780215703 l2.01465199735,2.74725287698 0.91575091884,3.29670335601 m-3.47985351568,-6.59340671202 l-3.29670335601,4.57875471466 -0.366300379582,1.28205135865 m3.84615383503,-23.2600738927 l-2.74725287698,0.732600759164 -5.86080607332,-2.74725287698 l-0.732600759164,-0.91575091884 2.74725287698,-6.77655711262 l5.67765567271,-3.29670335601 12.6373631859,-4.21245439531 l1.83150183768,0.0 3.11355319633,-15.9340665419 l3.11355319633,-1.83150183768 2.93040303666,-0.549450539258 l1.83150183768,0.0 1.83150183768,0.91575091884 l1.46520151833,1.83150183768 0.0,2.01465199735 l0.732600759164,-0.91575091884 0.91575091884,0.0 l0.91575091884,1.83150183768 0.91575091884,0.549450539258 l-0.91575091884,-1.09890107852 -0.91575091884,0.0 l-2.38095231671,1.83150183768 -14.835165102,3.11355319633 l-6.04395599206,2.01465199735 4.21245439531,1.46520151833 l2.01465199735,1.83150183768 3.66300367536,7.14285743197 l0.549450539258,2.38095231671 0.0,7.32600735072 l-1.648351678,4.21245439531 -6.41025631141,2.74725287698 l-66.6666687226,12.8205126228 -16.6666671806,1.83150183768 l-21.2454214135,-4.76190463341 0.183150189791,-3.47985351568 l2.01465199735,-3.47985351568 25.8241756463,-34.2490863643 l49.8168511413,-46.5201477853 41.3919404233,-19.780220136 l122.527471519,4.02930399471 0.0,9.70695966742 l-34.9816841119,58.9743596069 -51.0989000907,48.3516479365 l-119.230772018,19.4139193348 -44.6886437793,0.0 l0.0,-7.14285743197 9.70695966742,-49.2673999395 l49.2673999395,-84.0659336508 183.150184732,0.0 " fill="none" stroke="black" stroke-width="1" /></svg>