<?xml version="1.0" encoding="utf-8" ?>
<svg baseProfile="full" height="300" version="1.1" width="300" xmlns="http://www.w3.org/2000/svg" xmlns:ev="http://www.w3.org/2001/xml-events" xmlns:xlink="http://www.w3.org/1999/xlink"><defs /><rect fill="none" height="300" width="300" x="0" y="0" /><path d="M129.518069047,44.2771077265 m-17.4698795489,20.4819281295 l0.0,6.02409636883 23.4939767101,-0.602409656695 l6.02409636883,-1.80722887103 -1.20481931339,12.0481927377 l10.8433736224,43.9759048396 25.3012045906,-53.0120474118 l16.8674707837,-41.5662666091 -9.03614494947,-4.81927725356 l-13.2530118529,1.80722887103 -29.5180722865,10.2409640648 l-13.855422203,7.83132504175 m21.6867472448,62.650600334 l0.0,0.0 m0.0,7.22891548411 l-12.6506022953,51.8072298814 -15.6626500835,42.7710841395 l-53.6144577619,22.8915663601 35.5421694478,-5.4216868112 l12.6506022953,-5.4216868112 0.0,9.63855450711 l5.4216868112,13.855422203 -1.80722887103,-25.9036149407 m29.5180722865,-96.9879522514 l6.62650592647,60.2409652732 -0.602409656695,64.4578313843 l-18.6746986641,10.2409640648 -19.2771090142,7.22891548411 l3.01204818442,-1.80722887103 66.8674727846,1.80722887103 l-6.02409636883,1.80722887103 3.61445774206,-0.602409656695 l48.1927709507,9.63855450711 -24.6987958254,-8.43373539183 l-13.855422203,-10.2409640648 -13.855422203,-7.22891548411 l-22.2891575949,-7.83132504175 m-6.02409636883,-193.975904503 l0.0,0.0 " fill="none" stroke="black" stroke-width="1" /></svg>