<?xml version="1.0" encoding="utf-8" ?>
<svg baseProfile="full" height="300" version="1.1" width="300" xmlns="http://www.w3.org/2000/svg" xmlns:ev="http://www.w3.org/2001/xml-events" xmlns:xlink="http://www.w3.org/1999/xlink"><defs /><rect fill="none" height="300" width="300" x="0" y="0" /><path d="M122.311825774,151.61290566 m11.29032247,4.03225822707 l16.3978490154,3.76344105908 32.2580658165,0.537634424382 l-26.6129035207,27.4193560855 -22.3118288329,34.1397856388 l-15.0537642363,28.494623343 m17.4731191018,-107.258066648 l-1.88172052954,12.0967743276 0.268817212191,55.9139765995 l2.95698920149,38.4408603267 3.76344105908,25.8064509559 m-65.5913960616,-143.010751758 l2.41935486552,1.07526884876 6.45161273896,6.98924707494 l18.2795702522,9.67741946206 18.2795702522,3.49462353747 l13.7096780427,0.0 20.4301075961,-1.34408601675 l13.7096780427,-2.95698920149 5.10752689902,-2.15053769753 l11.5591399916,-6.18279592459 9.94623698367,-6.98924707494 l1.88172052954,-12.9032254779 0.537634424382,-16.9354840586 l-5.645161235,1.61290318474 m-55.1075296926,6.18279592459 l10.215053798,-8.87096760448 9.67741946206,-12.6344093708 l4.83870973103,-12.3655918492 4.03225822707,-16.9354840586 l3.22580636948,-35.7526879395 2.6881720335,2.6881720335 l4.30107539506,2.15053769753 22.3118288329,6.72043026057 l11.5591399916,7.79569893253 7.25806459655,7.52688211816 l7.79569893253,12.6344093708 -6.72043026057,0.0 l-5.10752689902,-1.07526884876 -4.83870973103,-1.88172052954 l-12.9032254779,-7.79569893253 m-2.95698920149,-2.15053769753 l1.88172052954,9.13978512609 1.07526884876,12.6344093708 l-3.76344105908,27.6881736071 -0.806451592371,9.94623698367 l0.537634424382,5.10752689902 m-52.9569895197,-7.52688211816 l-24.7311836984,-3.49462353747 " fill="none" stroke="black" stroke-width="1" /></svg>