<?xml version="1.0" encoding="utf-8" ?>
<svg baseProfile="full" height="300" version="1.1" width="300" xmlns="http://www.w3.org/2000/svg" xmlns:ev="http://www.w3.org/2001/xml-events" xmlns:xlink="http://www.w3.org/1999/xlink"><defs /><rect fill="none" height="300" width="300" x="0" y="0" /><path d="M104.545456646,132.60667964 m-1.85528767994,41.2801495822 l-2.31910952366,13.4508352982 -0.927643839971,66.3265328038 m0.463821919985,-21.7996309257 l2.78293136738,2.78293136738 10.2040817821,21.3358084719 m-12.5231916108,-22.263450939 l-17.1614112683,16.6975888144 m77.9220795069,-118.738411516 l2.78293136738,139.610392653 m0.0,-21.7996309257 l2.31910952366,0.0 6.02968457847,6.49350703233 l10.6679042359,19.0166986431 m-21.7996309257,-28.7569579714 l-15.3061226731,20.4081635641 m-102.504645156,-241.651205593 l4.63821904732,37.1057523786 2.78293136738,8.3487944072 l7.88497256348,12.5231916108 25.0463832216,24.1187383139 l25.0463832216,19.4805198767 13.9146577521,5.10204089104 l51.9480562586,1.39146568369 2.31910952366,-18.5528761893 l0.0,-13.9146577521 3.71057535988,-20.4081635641 l14.8423014395,-28.7569579714 11.5955479234,-7.88497256348 l30.1484253329,-0.463821919985 11.5955479234,9.74025993836 l7.88497256348,20.871986018 " fill="none" stroke="black" stroke-width="1" /></svg>