<?xml version="1.0" encoding="utf-8" ?>
<svg baseProfile="full" height="300" version="1.1" width="300" xmlns="http://www.w3.org/2000/svg" xmlns:ev="http://www.w3.org/2001/xml-events" xmlns:xlink="http://www.w3.org/1999/xlink"><defs /><rect fill="none" height="300" width="300" x="0" y="0" /><path d="M25.0,154.608290945 m51.8433190679,10.3686638136 l13.8248845796,0.576036889057 21.8894012159,-2.30414755623 l35.7142857955,-18.4331804498 67.3963147883,-57.0276509747 l23.0414748045,-28.2258067113 12.6728109909,6.33640549547 l5.76036870113,18.4331804498 m-155.529957204,74.8847969035 l0.0,77.1889410498 -2.30414755623,12.6728109909 m153.225806995,-163.018433257 l1.15207377811,5.76036870113 12.6728109909,-2.88018435057 l2.30414755623,-3.4562211449 6.33640549547,-25.3456219819 l-19.5852540385,-7.48847908415 -14.9769581683,-1.72811057245 l-13.8248845796,2.88018435057 -36.2903233476,57.0276509747 l-14.9769581683,9.79262701925 -36.8663608997,14.4009221317 l-25.3456219819,1.72811057245 -54.7235007664,11.5207374023 l-16.7050693091,0.576036889057 -13.8248845796,9.21659022491 l-1.15207377811,8.06451663624 4.60829511246,-1.15207377811 " fill="none" stroke="black" stroke-width="1" /></svg>