<?xml version="1.0" encoding="utf-8" ?>
<svg baseProfile="full" height="300" version="1.1" width="300" xmlns="http://www.w3.org/2000/svg" xmlns:ev="http://www.w3.org/2001/xml-events" xmlns:xlink="http://www.w3.org/1999/xlink"><defs /><rect fill="none" height="300" width="300" x="0" y="0" /><path d="M104.422386154,111.191337767 m13.5379060445,-10.8303241233 l20.7581225224,-2.70758103081 14.4404329558,4.51263515029 l7.22021647792,7.22021647792 2.70758103081,15.3429598672 l-3.61010823896,37.906135025 1.80505411948,16.2454867785 m-60.4693113701,-65.8844752126 l0.0,-7.22021647792 3.61010823896,-4.51263515029 l11.7328510346,-8.12274338925 17.1480136898,-1.80505411948 l13.5379060445,2.70758103081 18.9530675125,17.1480136898 l9.02527030059,11.7328510346 3.61010823896,24.3682301678 l-2.70758103081,20.7581225224 m-37.0036093009,8.12274338925 l92.0577615775,-17.1480136898 31.5884454584,0.90252705974 l8.12274338925,3.61010823896 2.70758103081,4.51263515029 l1.80505411948,9.02527030059 -4.51263515029,17.1480136898 l-13.5379060445,17.1480136898 -82.1299619911,49.6389884341 m-147.111909105,-76.7147981486 l16.2454867785,-16.2454867785 m0.0,0.0 m0.0,0.0 l26.1732839904,-25.2707582663 64.0794190154,45.1263526902 m104.693135962,-114.620935548 m0.0,0.0 l3.61010823896,-2.70758103081 m0.90252705974,0.0 l-138.086637617,-31.5884454584 m104.693135962,120.036094642 l4.51263515029,-1.80505411948 m-50.5415165327,15.3429598672 m0.0,0.0 l-138.989165716,13.5379060445 " fill="none" stroke="black" stroke-width="1" /></svg>