<?xml version="1.0" encoding="utf-8" ?>
<svg baseProfile="full" height="300" version="1.1" width="300" xmlns="http://www.w3.org/2000/svg" xmlns:ev="http://www.w3.org/2001/xml-events" xmlns:xlink="http://www.w3.org/1999/xlink"><defs /><rect fill="none" height="300" width="300" x="0" y="0" /><path d="M71.0937557286,176.46483902 m16.2109377439,-2.14843741469 l19.7265626977,-1.17187494179 33.0078116098,-0.390625002007 l35.1562495383,-2.14843741469 -8.00781250903,-1.9531249458 l-15.0390624167,-1.75781247692 -20.1171881493,-3.32031248495 l69.1406227218,-0.390625002007 -10.1562494099,-3.12500001606 l-51.3671852268,-10.3515621357 -20.8984369972,-5.85937509434 l-4.4921875552,-1.75781247692 34.5703113609,-8.20312472099 l-33.0078116098,-1.17187494179 -1.36718753914,0.585937470895 l-0.585937470895,0.976562472902 0.390625002007,2.14843741469 l2.14843741469,3.71093742272 13.6718743637,12.8906244882 l11.5234374629,8.9843751104 54.492184729,30.6640630108 l11.3281247371,7.03124990767 17.9687502208,13.085937214 l1.36718753914,1.56250000803 -1.75781247692,1.9531249458 l-1.36718753914,0.390625002007 -5.85937509434,0.0 l-7.42187484544,-1.56250000803 -22.2656240225,-6.44531224408 l-19.7265626977,-10.9375003131 -15.4296868406,-14.453125267 m28.3203123565,-96.2890587234 l0.0,4.4921875552 -1.75781247692,8.00781250903 l-7.03124990767,14.8437496909 -6.44531224408,6.44531224408 l-3.90624989161,2.34374988358 15.0390624167,-5.07812470494 l7.81249978322,-1.36718753914 36.9140599598,-0.390625002007 l13.8671870895,1.9531249458 24.6093746768,9.17968783621 l14.453125267,11.5234374629 0.195312501004,8.78906238458 l-4.4921875552,8.78906238458 -14.0624998153,12.1093746126 l-27.5390614532,13.6718743637 -40.2343762987,14.6484369651 l-43.7500012525,14.2578125411 -72.6562517864,20.1171881493 l-5.27343743075,0.976562472902 8.20312472099,-4.1015623605 l6.64062496989,-5.66406236853 29.8828121076,-20.7031242714 l13.6718743637,-7.03124990767 39.8437508471,-18.7499990686 l16.6015621678,-4.1015623605 6.0546873063,0.0 l-20.8984369972,11.7187501887 -42.187499446,13.2812499398 l-50.7812511602,7.03124990767 -48.6328111762,0.781250004014 l13.2812499398,-11.1328120112 11.3281247371,-7.61718757126 l78.710938065,-45.8984371257 8.78906238458,-5.66406236853 l4.4921875552,-1.75781247692 -48.4374984504,9.76562498595 l-25.5859362505,2.73437507828 -42.7734376234,0.390625002007 l1.9531249458,-0.585937470895 -2.14843741469,-77.3437489843 l195.312495608,0.585937470895 -9.76562498595,16.0156250181 l-12.69531279,16.0156250181 -26.5624998796,27.148438057 " fill="none" stroke="black" stroke-width="1" /></svg>