<?xml version="1.0" encoding="utf-8" ?>
<svg baseProfile="full" height="300" version="1.1" width="300" xmlns="http://www.w3.org/2000/svg" xmlns:ev="http://www.w3.org/2001/xml-events" xmlns:xlink="http://www.w3.org/1999/xlink"><defs /><rect fill="none" height="300" width="300" x="0" y="0" /><path d="M125.940266653,152.212387431 m1.65929194868,122.787612569 m69.1371664078,-129.424776726 l0.0,98.4513245921 -3.31858389735,21.0176986229 m-66.3716823125,-110.066370597 l39.8230082234,-14.9336280838 56.4159302567,-2.21238938616 l12.1681410782,-22.1238931341 8.29646028907,-38.1637171842 l-17.6991150893,-21.5707966061 -10.5088493114,-30.4203541507 l-28.7610602012,-0.553097346541 -7.74336303347,3.31858389735 l-7.74336303347,8.29646028907 -8.29646028907,17.1460171061 l-9.95575205585,14.9336280838 -11.6150438226,24.8893801396 l-11.061946567,4.42477877233 -30.4203541507,20.4646020949 l-8.29646028907,7.74336303347 -13.2743355894,4.97787602792 l-9.40265480025,0.553097346541 -12.7212390614,-10.5088493114 l24.8893801396,29.3141581844 19.9115041117,6.08407053911 l18.2522116173,8.29646028907 8.29646028907,1.10619469308 l0.553097346541,-8.29646028907 5.53097328352,-12.7212390614 " fill="none" stroke="black" stroke-width="1" /></svg>