<?xml version="1.0" encoding="utf-8" ?>
<svg baseProfile="full" height="300" version="1.1" width="300" xmlns="http://www.w3.org/2000/svg" xmlns:ev="http://www.w3.org/2001/xml-events" xmlns:xlink="http://www.w3.org/1999/xlink"><defs /><rect fill="none" height="300" width="300" x="0" y="0" /><path d="M107.317080174,91.3109732231 m35.0609763877,50.3048765494 l73.1707287972,92.9878010127 m-112.804881249,-0.762195133414 l28.2012203123,-30.4878043339 46.4939005064,-71.6463447969 l7.62195108348,-23.6280482585 0.0,-17.5304881939 m20.5792682262,56.4024406246 l-16.0060971751,3.81097554174 -96.7987810663,0.762195133414 l-42.6829284738,7.62195108348 m57.1646326248,-115.853657271 l13.7195121508,10.6707321185 25.9146342854,25.9146342854 l18.2926821993,22.8658542531 35.0609763877,51.0670725601 l40.3963404417,70.8841487862 19.05487821,22.1036582424 m-189.786582079,-41.1585364524 l65.5487807217,0.762195133414 89.9390249909,12.9573171427 m-163.871949799,-173.018285885 l50.3048765494,25.9146342854 49.5426845492,32.0121943501 l78.5061008723,57.1646326248 m-2.28658527491,0.762195133414 l-35.8231723984,-10.6707321185 -32.7743903608,-3.04878053366 l-41.1585364524,2.28658527491 -56.4024406246,12.9573171427 m76.2195128401,73.1707287972 l-24.3902442693,-87.6524369587 -8.38414609157,-23.6280482585 l-32.0121943501,-60.9756086679 19.05487821,0.0 l51.0670725601,22.1036582424 54.1158525925,38.1097564201 l49.5426845492,57.1646326248 -45.7317085062,-19.05487821 l-28.2012203123,-3.81097554174 -49.5426845492,-3.81097554174 l-92.9878010127,-1.52439026683 5.33536605923,-6.8597560754 l6.8597560754,-1.52439026683 49.5426845492,2.28658527491 l37.3475604093,6.09756106731 31.2500003447,2.28658527491 l19.05487821,-7.62195108348 16.0060971751,-12.9573171427 l14.4817071589,-25.1524382747 -8.38414609157,-22.8658542531 l-20.5792682262,-22.1036582424 -30.4878043339,-23.6280482585 l-26.6768282909,-16.7682921831 34.298780377,23.6280482585 l28.9634143178,25.1524382747 10.6707321185,13.7195121508 l10.6707321185,24.3902442693 6.09756106731,36.5853643986 l0.0,25.9146342854 -3.81097554174,30.4878043339 l-3.04878053366,9.14634109965 -10.6707321185,9.90853610774 l-9.90853610774,-3.04878053366 -126.5243934,-118.902441314 l-19.8170722155,-25.1524382747 -0.762195133414,-3.04878053366 l2.28658527491,-3.04878053366 12.1951221346,0.762195133414 l46.4939005064,16.7682921831 39.634144431,18.2926821993 l81.5548768941,49.5426845492 3.81097554174,0.762195133414 l-9.90853610774,-9.14634109965 -34.298780377,-13.7195121508 l-89.9390249909,0.0 44.9695124955,16.0060971751 l38.8719524308,19.05487821 44.2073164847,25.9146342854 l19.8170722155,16.7682921831 -60.2134126571,-36.5853643986 l-31.2500003447,-14.4817071589 -33.5365843663,-9.90853610774 l-54.1158525925,-12.1951221346 -30.4878043339,-3.81097554174 m135.670729487,140.243905551 l0.0,0.0 " fill="none" stroke="black" stroke-width="1" /></svg>