<?xml version="1.0" encoding="utf-8" ?>
<svg baseProfile="full" height="300" version="1.1" width="300" xmlns="http://www.w3.org/2000/svg" xmlns:ev="http://www.w3.org/2001/xml-events" xmlns:xlink="http://www.w3.org/1999/xlink"><defs /><rect fill="none" height="300" width="300" x="0" y="0" /><path d="M201.190481053,114.743589219 m-1.28205135587,0.732600757576 l-1.28205135587,2.9304030303 -0.915750916854,4.39560430453 l0.0,2.01465199299 0.915750916854,0.366300378788 l0.915750916854,-0.366300378788 1.83150183371,-2.19780215226 l1.09890107613,-2.56410271175 0.366300378788,-2.74725287103 l-1.64835167443,-3.66300366742 m2.56410271175,2.9304030303 l9.52380924617,3.66300366742 2.38095231154,5.49450574205 l0.183150189394,3.84615382669 -5.49450574205,-8.60805917256 l-0.732600757576,-2.19780215226 -3.11355318958,-1.09890107613 m-7.50915773504,8.24175837215 l-1.28205135587,3.11355318958 -2.01465199299,8.60805917256 l-3.29670334886,3.47985350814 m-0.732600757576,0.0 l0.0,-0.915750916854 -1.46520151515,-2.01465199299 l-5.86080606061,-0.366300378788 -4.21245438618,1.28205135587 l-8.97435900926,4.02930398597 -2.38095231154,5.86080606061 l-1.09890107613,6.77655709792 0.183150189394,3.47985350814 l7.14285741648,9.52380924617 2.19780215226,2.38095231154 l1.46520151515,0.549450538066 9.15750940947,-0.549450538066 l11.1721609206,-8.79120860906 3.47985350814,-5.6776556604 l1.46520151515,-5.31135534185 0.0,-3.66300366742 l-5.49450574205,-7.69230765339 -3.47985350814,-2.9304030303 m-17.2161183451,32.6007326882 l-6.77655709792,14.4688642695 -1.09890107613,5.12820542349 l2.01465199299,0.366300378788 m15.0183154701,-19.4139192928 l-3.11355318958,9.52380924617 -5.86080606061,13.9194140326 l2.19780215226,0.549450538066 0.366300378788,-3.11355318958 m-20.3296712938,-30.5860802134 l-0.366300378788,-2.9304030303 -6.95970701628,-22.3443218412 l-19.9633704934,-37.1794888385 -35.897436037,-18.3150188189 l-71.9780224743,0.0 0.0,78.7545795722 l140.659337745,61.7216116273 107.509161566,-2.9304030303 l-5.49450574205,-8.79120860906 m-11.9047625214,-41.2087899333 l-2.19780215226,15.567765707 -1.64835167443,17.7655676183 l-0.732600757576,19.597069693 -0.366300378788,-31.6849826146 l3.29670334886,-12.820512595 14.4688642695,-5.49450574205 l6.41025629752,7.50915773504 0.0,1.46520151515 l-4.57875470473,2.74725287103 -21.4285717676,8.05860797195 " fill="none" stroke="black" stroke-width="1" /></svg>