<?xml version="1.0" encoding="utf-8" ?>
<svg baseProfile="full" height="300" version="1.1" width="300" xmlns="http://www.w3.org/2000/svg" xmlns:ev="http://www.w3.org/2001/xml-events" xmlns:xlink="http://www.w3.org/1999/xlink"><defs /><rect fill="none" height="300" width="300" x="0" y="0" /><path d="M269.871792779,133.974353488 m-3.84615386994,-7.26495737234 l-8.11965810741,-8.54700847494 -10.2564099451,-8.11965810741 l-18.3760686146,-11.5384616098 -14.5299147447,-6.83760700481 l-16.2393162148,-4.700854605 -10.2564099451,0.0 l-8.97435884247,2.13675211873 -5.55555534006,4.27350423747 l-4.700854605,6.83760700481 -3.84615386994,8.97435884247 l3.84615386994,35.8974353699 3.84615386994,-4.700854605 l8.97435884247,-25.6410265491 8.97435884247,-10.6837608748 l2.99145313488,-0.427350437801 28.6324785597,12.8205132746 l10.6837608748,13.6752140096 11.5384616098,20.0854712091 l5.98290626975,14.102563815 4.700854605,18.3760686146 m-84.1880342089,-62.8205147081 l-16.6666671445,-11.1111106801 m24.7863246897,12.8205132746 l-17.0940169499,-9.82906013969 m11.5384616098,-9.82906013969 l0.0,0.0 m9.82906013969,0.854700875602 l-7.26495737234,-0.427350437801 m85.470086998,29.4871804191 l13.2478630799,52.9914523197 m-98.7179478293,-82.4786304902 l0.0,-2.13675211873 m-3.41880350241,8.11965810741 l-7.26495737234,-8.54700847494 11.9658125395,13.2478630799 l-6.83760700481,-8.11965810741 -0.854700875602,-6.41025663728 m-20.0854712091,33.333334289 l-65.3846157889,-49.1452984498 -22.6495722899,-11.1111106801 l-6.41025663728,-1.28205124313 m97.0085441105,92.7350438082 l-22.2222213602,-14.9572645501 -105.12820278,-24.3589737601 m143.16239055,94.8717984567 l-39.3162405588,-7.69230773988 -16.6666671445,0.0 l-29.9145291001,6.41025663728 -31.1965818892,12.3931623449 " fill="none" stroke="black" stroke-width="1" /></svg>