<?xml version="1.0" encoding="utf-8" ?>
<svg baseProfile="full" height="300" version="1.1" width="300" xmlns="http://www.w3.org/2000/svg" xmlns:ev="http://www.w3.org/2001/xml-events" xmlns:xlink="http://www.w3.org/1999/xlink"><defs /><rect fill="none" height="300" width="300" x="0" y="0" /><path d="M72.1014482047,46.7391309183 m3.62318835399,-10.8695654592 l8.45410682128,-6.03864738904 22.9468602372,-4.83091807011 l15.7004827349,10.8695654592 4.83091807011,14.492753416 l-6.03864738904,8.45410682128 -1.20772951753,7.24637670798 l-8.45410682128,18.1159429615 38.6473445609,-13.285024097 l32.6086963775,-1.20772951753 20.5314015994,15.7004827349 l28.9855068319,1.20772951753 -35.0241550153,16.9082136426 l-7.24637670798,10.8695654592 -32.6086963775,14.492753416 l-20.5314015994,1.20772951753 -13.285024097,-4.83091807011 l-28.9855068319,-20.5314015994 m-3.62318835399,-2.41545903505 l3.62318835399,-4.83091807011 4.83091807011,-18.1159429615 l3.62318835399,-31.4009654698 -8.45410682128,-6.03864738904 l-27.7777791017,-7.24637670798 m56.7632891111,106.280192776 l-7.24637670798,1.20772951753 -22.9468602372,18.1159429615 l96.6183582247,0.0 m-35.0241550153,-12.0772947781 l0.0,68.840579123 7.24637670798,57.9710136639 " fill="none" stroke="black" stroke-width="1" /></svg>