<?xml version="1.0" encoding="utf-8" ?>
<svg baseProfile="full" height="300" version="1.1" width="300" xmlns="http://www.w3.org/2000/svg" xmlns:ev="http://www.w3.org/2001/xml-events" xmlns:xlink="http://www.w3.org/1999/xlink"><defs /><rect fill="none" height="300" width="300" x="0" y="0" /><path d="M57.4791448275,147.020262781 m-3.27771160261,26.8176410977 l0.0,31.8831951788 -13.4088205488,1.4898689281 m14.8986896729,-0.595947590837 l-9.23718731499,8.93921396054 m14.3027413961,-71.215737546 l5.66150196596,10.1311089462 7.74731819091,22.6460078638 l10.4290823007,24.4338511263 -9.23718731499,8.3432664677 l9.53516145339,-7.15137069807 1.19189518167,11.6209780703 m-41.1203840617,-68.5339703004 l8.64123982215,1.4898689281 25.0297978352,0.297973795418 l11.9189514248,-4.46960698027 4.46960698027,-3.87365909546 l1.19189518167,-2.97973785619 2.08581661692,-7.74731819091 l-11.6209780703,2.68176410977 -11.6209780703,-2.38379036335 l-6.55542320522,-3.87365909546 -5.95947571238,-7.44934483646 l-5.06555447312,-8.3432664677 -0.595947590837,0.297973795418 m-11.9189514248,36.94874926 l-3.57568534903,-4.76758072669 -2.68176410977,-6.85339734362 l-0.595947590837,-9.23718731499 0.893921337258,-3.57568534903 m19.0703229068,-13.1108464104 l0.0,-10.4290823007 -1.19189518167,-8.93921396054 l-6.55542320522,-18.1764004916 -5.95947571238,-5.66150196596 l-8.3432664677,-0.297973795418 -6.55542320522,2.97973785619 l-2.68176410977,3.27771160261 -1.19189518167,3.27771160261 l-0.595947590837,7.15137069807 0.893921337258,5.36352821954 m249.106078663,147.199048763 m0.0,0.0 l0.0,-5.36352821954 m0.0,0.595947590837 m0.0,0.0 l-0.595947590837,1.4898689281 -235.101319244,-115.613827723 m128.42670313,59.5947586917 " fill="none" stroke="black" stroke-width="1" /></svg>