<?xml version="1.0" encoding="utf-8" ?>
<svg baseProfile="full" height="300" version="1.1" width="300" xmlns="http://www.w3.org/2000/svg" xmlns:ev="http://www.w3.org/2001/xml-events" xmlns:xlink="http://www.w3.org/1999/xlink"><defs /><rect fill="none" height="300" width="300" x="0" y="0" /><path d="M74.5169089973,70.2898552768 m-49.5169089973,11.4734298817 l0.0,-2.41545898517 1.81159413958,-3.01932363216 l31.4009648213,-18.1159425873 12.6811591757,-3.62318827916 l9.66183594067,-22.3429959107 6.03864726433,0.0 l10.2657005877,3.62318827916 18.71980644,16.9082132933 l10.2657005877,24.1545890573 1.81159413958,18.1159425873 l-1.20772949258,51.328502144 m-46.497584968,-65.217391408 l6.03864726433,79.7101429359 m50.7246367026,-16.304347852 l16.9082132933,-1.81159413958 32.608695704,0.0 l1.20772949258,1.20772949258 m83.333335584,-87.5603873186 l4.22705332334,27.777778528 0.0,16.304347852 m-177.536236403,67.6328531734 l5.43478261733,32.0048302626 -3.62318827916,55.555557056 m30.193237116,-80.3140083772 l3.01932363216,22.9468597633 19.3236718813,47.7053126733 l0.603864746292,7.85024120532 -3.01932363216,13.888889264 " fill="none" stroke="black" stroke-width="1" /></svg>