<?xml version="1.0" encoding="utf-8" ?>
<svg baseProfile="full" height="300" version="1.1" width="300" xmlns="http://www.w3.org/2000/svg" xmlns:ev="http://www.w3.org/2001/xml-events" xmlns:xlink="http://www.w3.org/1999/xlink"><defs /><rect fill="none" height="300" width="300" x="0" y="0" /><path d="M145.454548969,132.024792618 m-0.206611572663,-8.88429752257 l-2.06611565868,-12.603305219 -2.68595027475,-27.2727263684 l-1.23966936803,-3.92561977867 -2.47933873606,-1.23966936803 l-3.3057851626,-0.413223145325 -19.4214884418,0.413223145325 l-8.67768571209,2.06611565868 -8.88429752257,3.09917362391 l-4.13223131736,2.68595027475 1.03305782934,0.413223145325 l14.8760329599,-1.44628104261 10.743801099,-0.206611572663 l1.03305782934,-0.619834684014 -1.03305782934,-4.33884285605 l1.44628104261,-1.03305782934 -0.82644629065,7.23140466948 l-2.68595027475,11.5702483409 0.0,16.9421488904 l2.06611565868,19.628098078 2.47933873606,10.1239667547 l-0.82644629065,19.628098078 -2.06611565868,10.743801099 l0.82644629065,6.6115703252 38.0165296417,-1.44628104261 l36.3636351579,-5.57851235997 25.2066104379,-4.75206620521 l12.8099170294,-4.33884285605 23.5537181284,-6.6115703252 l7.64462829044,-2.89256208522 5.57851235997,-4.13223131736 l5.57851235997,-6.8181815921 0.82644629065,-7.64462829044 l-5.16528928259,-4.95867747211 -5.37190054949,-3.09917362391 l-42.5619851236,-6.19834724782 -54.1322291159,-0.413223145325 l-7.23140466948,2.68595027475 -9.09090878947,2.27272719737 l-3.09917362391,1.85950411999 m6.6115703252,49.5867779826 l0.0,6.19834724782 -2.89256208522,17.9752068556 l-1.44628104261,5.16528928259 -1.03305782934,0.619834684014 l-22.9338848713,-1.23966936803 -90.9090922433,-1.44628104261 l-10.743801099,0.619834684014 0.206611572663,1.03305782934 l1.6528925813,0.82644629065 7.43801647996,1.85950411999 l16.322313459,2.68595027475 46.0743815531,5.16528928259 l11.5702483409,2.68595027475 17.3553714242,1.44628104261 l3.71900823998,-1.03305782934 2.89256208522,-1.85950411999 l6.19834724782,-15.0826447704 2.68595027475,-1.85950411999 l13.8429749947,-6.6115703252 m52.6859507911,-28.5123972313 l3.09917362391,4.13223131736 2.47933873606,4.95867747211 l6.8181815921,21.0743807513 13.6363631842,16.5289252694 l3.71900823998,5.99173543735 -35.7438019008,2.27272719737 l-32.6446269179,0.0 -69.8347093177,-6.19834724782 l-13.0165288399,-1.6528925813 -44.0082634483,-0.82644629065 l-3.3057851626,-1.6528925813 1.44628104261,0.413223145325 l12.603305219,-3.51239670129 22.7272730608,-9.7107442209 l22.3140494399,-2.89256208522 81.4049576586,0.413223145325 l15.7024791147,1.6528925813 14.6694211494,0.413223145325 l13.6363631842,1.6528925813 13.6363631842,3.71900823998 " fill="none" stroke="black" stroke-width="1" /></svg>