<?xml version="1.0" encoding="utf-8" ?>
<svg baseProfile="full" height="300" version="1.1" width="300" xmlns="http://www.w3.org/2000/svg" xmlns:ev="http://www.w3.org/2001/xml-events" xmlns:xlink="http://www.w3.org/1999/xlink"><defs /><rect fill="none" height="300" width="300" x="0" y="0" /><path d="M29.4910170315,95.6087817953 m-2.99401190137,6.48702573159 l26.9461080969,-2.49500997251 m-28.4431132271,-6.48702573159 l4.49101801615,-5.48902187387 42.4151698608,-20.9580836378 l5.98802380273,-6.48702573159 34.4311389991,-18.4630746499 l7.98403217459,-2.99401190137 13.9720566337,0.0 l5.98802380273,6.98602831687 0.499002010912,4.99001994501 l-4.49101801615,61.8762470556 m-86.8263500627,-17.9640720646 l15.9680643492,-7.98403217459 11.9760476055,-2.99401190137 l1.99600804365,7.98403217459 1.99600804365,25.4491029668 l-3.99201608729,27.9441132675 -0.998004021823,42.9141724461 l17.4650694793,-4.99001994501 21.9560874955,-1.99600804365 l11.9760476055,0.998004021823 m-5.98802380273,9.48103796117 l-3.99201608729,69.8602779173 m27.9441132675,-66.866267657 l-3.99201608729,55.3892239497 m5.48902187387,-62.3752496409 l20.9580836378,-3.49301415843 -0.499002010912,19.4610785076 l20.4590823653,-3.99201608729 84.3313371364,-5.48902187387 l2.49500997251,-1.49700595068 0.0,-2.49500997251 l-1.49700595068,-4.99001994501 -5.98802380273,-6.48702573159 l-31.4371261131,-11.477046333 -13.4730540485,6.48702573159 l-2.99401190137,3.49301415843 -5.48902187387,1.49700595068 l3.99201608729,-5.48902187387 2.49500997251,-16.4670656216 l-1.49700595068,-2.49500997251 -18.4630746499,-13.4730540485 l-11.9760476055,-4.99001994501 -30.9381235278,-2.49500997251 l-7.48503024573,3.49301415843 -15.4690617639,-1.99600804365 l-1.49700595068,-12.9740514632 1.99600804365,-16.9660682069 m-29.9401209829,-48.4031930071 l21.457086223,8.98203603231 " fill="none" stroke="black" stroke-width="1" /></svg>