<?xml version="1.0" encoding="utf-8" ?>
<svg baseProfile="full" height="300" version="1.1" width="300" xmlns="http://www.w3.org/2000/svg" xmlns:ev="http://www.w3.org/2001/xml-events" xmlns:xlink="http://www.w3.org/1999/xlink"><defs /><rect fill="none" height="300" width="300" x="0" y="0" /><path d="M122.253360606,128.699552925 m6.16591930721,1.68161433975 l8.68834090901,0.560538143974 40.919284418,1.12107628795 l0.280269071987,2.8026906277 -2.2421525759,16.535875109 l-1.40134531385,5.0448432036 -4.4843051518,4.20403612589 l-3.64349770541,0.840807169876 -11.7713005626,0.0 l-5.0448432036,-1.40134531385 -12.3318386144,-7.5672648054 l-11.4910319054,-22.141255627 m-0.280269071987,0.280269071987 l3.36322867951,4.20403612589 4.7645741777,3.92376709999 l8.1278028572,3.36322867951 13.1726467982,2.5224216018 l11.4910319054,-3.0829596536 4.20403612589,-2.8026906277 l2.2421525759,-2.8026906277 5.0448432036,-3.0829596536 m-45.1233194378,0.840807169876 l3.36322867951,0.840807169876 26.905829436,0.560538143974 m-4.7645741777,9.24887896081 l0.560538143974,-22.7017944162 1.12107628795,-7.28699541081 l0.840807169876,-1.96188355 7.28699541081,-0.280269071987 l16.2556057144,3.92376709999 88.8452919027,32.2309420342 l1.68161433975,11.4910319054 -0.560538143974,16.2556057144 l-5.0448432036,10.0896864072 -13.1726467982,13.452914718 l-24.1031399144,21.0201795234 -48.4865492234,26.3452935963 l-14.2937229018,0.560538143974 -6.16591930721,-3.0829596536 l-15.1345296108,-13.1726467982 -13.452914718,-8.96861030359 l-0.560538143974,-22.9820638108 -3.0829596536,-21.8609877072 l-5.88565028131,-125.000008411 40.0784762342,39.7982068396 l54.9327364504,59.977579654 31.1098674053,54.0919282667 l0.280269071987,4.4843051518 -83.8004486991,1.40134531385 l1.40134531385,-3.64349770541 1.68161433975,-10.0896864072 l42.3206284414,-32.7914808234 -35.8744412144,1.12107628795 l-58.8565020757,0.0 -35.3139024252,2.2421525759 l33.071750218,-2.2421525759 75.3923786594,-2.5224216018 l-166.47981982,-0.560538143974 33.3520196126,-1.96188355 l140.134532122,-1.68161433975 -64.742153463,2.8026906277 l-19.0582967108,4.4843051518 5.88565028131,-2.2421525759 l13.452914718,-0.840807169876 31.3901367999,-5.88565028131 l54.9327364504,-5.88565028131 -8.40807225179,-1.12107628795 l-163.396868277,-9.5291483554 169.56278316,-0.840807169876 l-6.16591930721,-1.12107628795 -103.699558018,-2.2421525759 l47.0852022504,-1.12107628795 -47.9260104342,-2.8026906277 l-38.1165934216,-0.280269071987 9.80941701261,-3.64349770541 l58.5762326811,-13.452914718 -3.92376709999,0.280269071987 l-8.1278028572,-2.2421525759 -0.840807169876,-1.40134531385 l95.5717514738,-34.1928248469 " fill="none" stroke="black" stroke-width="1" /></svg>