<?xml version="1.0" encoding="utf-8" ?>
<svg baseProfile="full" height="300" version="1.1" width="300" xmlns="http://www.w3.org/2000/svg" xmlns:ev="http://www.w3.org/2001/xml-events" xmlns:xlink="http://www.w3.org/1999/xlink"><defs /><rect fill="none" height="300" width="300" x="0" y="0" /><path d="M157.5549527,102.609891255 m-12.3626372652,54.2582397245 l-5.49450555159,42.5824164438 -0.686813193949,41.2087920887 l48.7637350764,13.0494503462 -15.1098895893,0.686813193949 l-15.7967035738,-5.49450555159 m-19.2307698823,-8.92857095667 l15.7967035738,35.0274734561 m6.18131863261,-173.763735698 l23.3516483684,2.7472527758 28.8461530165,13.7362634272 l13.7362634272,8.92857095667 -38.4615397646,19.9175820599 l-50.8241770298,13.0494503462 m-0.686813193949,-3.43406585681 l-10.3021980222,-20.6043960443 m11.6758241842,23.3516483684 l-25.4120885149,2.06043946891 m147.664833198,-123.626372652 l-15.1098895893,23.3516483684 -13.7362634272,13.0494503462 l-37.7747257801,9.61538494116 -22.6648343839,8.24175787565 l-10.3021980222,7.55494479464 -39.8351641197,8.24175787565 l-30.2197791786,-12.3626372652 -29.532967001,-27.4725268545 l18.5439558978,2.06043946891 23.3516483684,6.86813171362 l-38.4615397646,-14.4230765083 -10.3021980222,-4.80769247058 l-2.7472527758,-3.43406585681 4.80769247058,-6.86813171362 l3.43406585681,-0.686813193949 41.8956024593,-1.3736263879 l-23.3516483684,-10.3021980222 -36.4010978112,-8.24175787565 l47.3901107213,-1.3736263879 " fill="none" stroke="black" stroke-width="1" /></svg>