<?xml version="1.0" encoding="utf-8" ?>
<svg baseProfile="full" height="300" version="1.1" width="300" xmlns="http://www.w3.org/2000/svg" xmlns:ev="http://www.w3.org/2001/xml-events" xmlns:xlink="http://www.w3.org/1999/xlink"><defs /><rect fill="none" height="300" width="300" x="0" y="0" /><path d="M25.6002401104,160.354140498 m-0.600240110375,-3.60144046485 l72.0288140346,-7.50300133034 51.9207693007,-3.00120045318 l126.050416665,-9.90396137705 m-114.645854074,82.2328950227 l-2.70108044734,-3.60144046485 -3.60144046485,-24.3097240261 l-8.70348135369,-43.2172871574 -13.8055226373,-54.9219701487 m-86.1344539142,19.8079227541 l39.3157251076,9.00360175433 15.9063622834,5.70228090052 l16.5066030847,8.70348135369 39.6158455082,26.1104448507 l35.1140458154,21.0084027774 12.3049222133,8.70348135369 l4.20168087133,3.60144046485 -0.600240110375,1.20048022075 m-112.845144304,6.90276131866 l-1.20048022075,-3.90156047069 4.20168087133,-8.70348135369 l36.3145274179,-51.3205284994 29.1116441195,-32.7130857687 l27.9111656753,-25.2100836488 m-102.340936598,3.90156047069 l21.9087639793,15.9063622834 16.8067234853,15.3061230613 l15.6062418828,17.4069627074 20.1080431547,27.6110452747 l21.0084027774,25.5102040494 m-126.050416665,1.80072023243 l5.40216089468,-8.40336174265 32.4129653681,-24.0096036254 l36.0144070173,-25.2100836488 30.0120053214,-19.5078039326 l24.0096036254,-13.5054022367 m-128.45137987,25.5102040494 l2.10084043566,-1.20048022075 20.4081635554,3.60144046485 l33.0132061693,8.40336174265 39.3157251076,12.6050418244 l54.0216089468,25.5102040494 11.404561801,7.50300133034 l8.10324134202,7.50300133034 4.50180087716,6.90276131866 m-82.833135824,-110.744301499 l-1.50060022659,-1.80072023243 -2.70108044734,0.0 l-22.5090032014,16.8067234853 -27.9111656753,30.0120053214 l-12.905162225,16.206482684 -23.4093644033,33.6134469706 l-16.8067234853,31.8127245668 m43.8175279587,-97.5390165048 l3.30132045902,-0.900360116213 9.30372136537,0.0 l53.1212477449,3.00120045318 66.3265327393,0.900360116213 l40.8163271107,3.30132045902 17.707083108,3.30132045902 m-69.3277304289,-18.3073223301 l-0.900360116213,3.60144046485 -16.5066030847,24.0096036254 l-36.0144070173,41.7166883126 -21.9087639793,32.4129653681 m40.2160863095,-82.833135824 l-6.30252091219,3.30132045902 " fill="none" stroke="black" stroke-width="1" /></svg>