<?xml version="1.0" encoding="utf-8" ?>
<svg baseProfile="full" height="300" version="1.1" width="300" xmlns="http://www.w3.org/2000/svg" xmlns:ev="http://www.w3.org/2001/xml-events" xmlns:xlink="http://www.w3.org/1999/xlink"><defs /><rect fill="none" height="300" width="300" x="0" y="0" /><path d="M66.2735843505,51.5330215858 m87.2641533928,-1.1792453004 l56.6037713166,-12.9716977227 m-2.35849060079,3.53773570729 l7.07547141457,-2.35849060079 9.43396240318,8.25471729669 l36.556602955,45.9905669094 m-204.009435999,-47.1698104646 l0.0,14.1509428291 -22.4056601258,29.481132316 l-4.71698120159,17.6886796999 m7.07547141457,20.0471699128 l108.490568412,120.28302258 m27.122642103,-2.35849060079 l27.122642103,-33.0188691867 50.7075473354,-81.3679263091 l21.2264150193,-45.9905669094 3.53773570729,-1.1792453004 m-106.132075097,-22.4056601258 l5.89622630808,-2.35849060079 33.0188691867,50.7075473354 m-114.386789291,-35.3773593997 l9.43396240318,-4.71698120159 -22.4056601258,38.915093168 m12.9716977227,9.43396240318 l5.89622630808,0.0 8.25471729669,8.25471729669 l35.3773593997,75.4716992254 17.6886796999,28.3018856583 l4.71698120159,5.89622630808 0.0,-3.53773570729 m43.6320766964,-120.28302258 l-37.7358496127,66.0377383735 -16.5094345934,38.915093168 m-20.0471699128,-150.943398451 l4.71698120159,9.43396240318 1.1792453004,62.4999984003 m11.7924526162,-5.89622630808 l7.07547141457,77.8301863359 m-18.8679248064,33.0188691867 l24.7641503388,18.8679248064 m2.35849060079,1.1792453004 l30.6603758713,-45.9905669094 m-173.349060128,-104.952828439 l0.0,0.0 m0.0,-1.1792453004 l5.89622630808,2.35849060079 9.43396240318,14.1509428291 " fill="none" stroke="black" stroke-width="1" /></svg>