<?xml version="1.0" encoding="utf-8" ?>
<svg baseProfile="full" height="300" version="1.1" width="300" xmlns="http://www.w3.org/2000/svg" xmlns:ev="http://www.w3.org/2001/xml-events" xmlns:xlink="http://www.w3.org/1999/xlink"><defs /><rect fill="none" height="300" width="300" x="0" y="0" /><path d="M261.988053908,127.389077766 m-6.39931754453,1.27986342473 l-28.1569956246,0.0 -92.5767916035,4.69283260409 l-8.95904411338,-21.3310581076 -3.41296931967,-14.0784978123 l-2.13310575464,-17.4914676932 -0.426621164959,-22.1842991748 l-5.1194536989,-19.6245737284 -0.853242329917,-2.13310575464 l-8.10580192376,-6.39931754453 -8.10580192376,-3.41296931967 l-16.6382255035,-1.70648465983 -7.25255973415,2.98634822486 l-12.372013433,8.10580192376 -23.4641641429,20.4778147956 l43.9419811833,10.2389073978 5.54607479371,42.2354945592 l16.2116038475,79.7781598816 6.39931754453,38.8225258008 l5.1194536989,-2.98634822486 13.2252556227,-3.83959041448 l33.2764510071,-8.10580192376 -0.426621164959,52.9010224907 l1.27986342473,7.67918082895 2.13310575464,1.70648465983 l16.6382255035,-0.853242329917 5.97269644972,-3.41296931967 l3.83959041448,-8.53242301857 0.853242329917,-13.6518772787 " fill="none" stroke="black" stroke-width="1" /></svg>