<?xml version="1.0" encoding="utf-8" ?>
<svg baseProfile="full" height="300" version="1.1" width="300" xmlns="http://www.w3.org/2000/svg" xmlns:ev="http://www.w3.org/2001/xml-events" xmlns:xlink="http://www.w3.org/1999/xlink"><defs /><rect fill="none" height="300" width="300" x="0" y="0" /><path d="M171.134393261,144.580925163 m3.61271663733,49.8554915911 l7.58670489087,59.6098266545 -1.08381496744,5.0578035774 l-11.5606936196,15.8959530142 3.61271663733,-1.80635831866 l8.30924859852,-10.8381503872 -1.80635831866,1.80635831866 l6.86416165845,-1.08381496744 3.97398825354,2.5289017887 l1.44508670246,2.5289017887 1.80635831866,-0.722543351228 m-26.011560169,-119.219653309 l-15.8959530142,-10.8381503872 -24.9277457956,-5.0578035774 l-11.1994215282,11.5606936196 7.22543327466,-11.9219647606 l2.89017340491,-0.722543351228 0.722543351228,1.44508670246 l6.14161842603,-0.722543351228 m35.0433510494,15.1734097817 l-3.61271663733,-53.1069366123 2.5289017887,-24.9277457956 l-0.722543351228,-16.9797692885 2.16762993487,-12.644507993 l3.25144502112,-9.75433506336 3.61271663733,-4.69653148596 l3.25144502112,0.0 3.61271663733,11.1994215282 l-4.33525986975,65.0289004224 -6.50289004224,40.4624286192 l-2.5289017887,9.39306297191 -2.16762993487,-5.78034680982 m-6.50289004224,-71.5317904646 l-5.0578035774,-14.4508665493 -9.75433506336,-9.03179183094 l-32.1531781197,3.25144502112 -6.50289004224,2.5289017887 l-0.361271675614,5.78034680982 11.5606936196,15.8959530142 l41.5462410917,40.8236969088 6.50289004224,4.33525986975 m-10.1156071548,-6.14161842603 l-15.1734097817,0.0 -5.0578035774,1.08381496744 l-8.67051973949,10.8381503872 8.30924859852,4.69653148596 l13.7283233169,4.33525986975 12.644507993,1.80635831866 l1.44508670246,-0.722543351228 " fill="none" stroke="black" stroke-width="1" /></svg>