<?xml version="1.0" encoding="utf-8" ?>
<svg baseProfile="full" height="300" version="1.1" width="300" xmlns="http://www.w3.org/2000/svg" xmlns:ev="http://www.w3.org/2001/xml-events" xmlns:xlink="http://www.w3.org/1999/xlink"><defs /><rect fill="none" height="300" width="300" x="0" y="0" /><path d="M135.256399373,187.728935565 m1.64835161446,-11.7216116948 m3.11355307631,9.89010968678 l0.0,-12.4542123052 m-4.21245423293,3.11355307631 l-8.6080588594,-0.732600730924 -6.41025606431,-2.9304029237 l-1.64835161446,-5.86080584739 0.0,-2.01465191969 l0.915750883539,-1.09890103615 1.64835161446,-1.83150176708 l2.56410261847,-1.46520146185 5.49450554216,-1.64835161446 l22.5274714219,-1.46520146185 1.09890103615,1.09890103615 l1.64835161446,3.47985338154 0.366300365462,5.67765545385 l-4.21245423293,1.09890103615 -7.87545776709,3.29670322893 l-10.9890110843,2.56410261847 m-12.6373626988,-13.0036625222 l-0.549450518077,-7.69230737354 -1.09890103615,-5.31135514862 l-0.915750883539,-0.732600730924 -1.83150176708,-1.09890103615 l-6.04395575908,-0.549450518077 -2.74725277108,4.39560414462 l-0.183150182731,2.38095222492 1.09890103615,1.64835161446 l4.02930383939,-0.183150182731 3.11355307631,-0.915750883539 l2.9304029237,-1.83150176708 0.732600730924,-1.09890103615 l0.366300365462,-2.01465191969 -1.46520146185,-0.549450518077 m19.4139185865,11.3553109077 l-5.86080584739,5.12820523693 -2.74725277108,4.94505484339 l-0.183150182731,4.94505484339 2.38095222492,1.09890103615 l2.56410261847,0.0 1.46520146185,-0.915750883539 l3.29670322893,-4.76190444985 1.28205130923,-4.57875453816 l-0.183150182731,-5.67765545385 m-3.66300353416,3.66300353416 l1.83150176708,0.915750883539 2.9304029237,0.183150182731 l11.1721605142,-0.549450518077 24.9084246105,-3.66300353416 l31.8681318554,-2.9304029237 17.0329673253,-2.74725277108 l-122.344316403,7.14285715662 -55.3113533176,5.31135514862 l-11.7216116948,2.01465191969 5.12820523693,1.28205130923 l23.4432233896,1.28205130923 28.9377274862,0.366300365462 l88.4615398552,-1.46520146185 93.7728935583,-5.49450554216 l0.0,-11.7216116948 -49.4505484339,8.24175807232 l-83.333328836,5.86080584739 -107.509157655,9.15750907632 l-9.70695929324,12.8205121286 0.0,11.9047620883 l11.1721605142,-0.366300365462 86.8131863133,-8.79120828923 l101.465202377,-7.32600706831 50.5494507951,-6.22710615262 l0.0,-8.97435868278 -3.11355307631,0.183150182731 l-183.150177672,16.1172153575 -49.4505484339,10.6227102972 l0.0,14.8351645302 2.56410261847,0.0 l183.150177672,-30.5860791006 12.0879115182,-30.9523798877 l0.0,-61.1721582013 " fill="none" stroke="black" stroke-width="1" /></svg>