<?xml version="1.0" encoding="utf-8" ?>
<svg baseProfile="full" height="300" version="1.1" width="300" xmlns="http://www.w3.org/2000/svg" xmlns:ev="http://www.w3.org/2001/xml-events" xmlns:xlink="http://www.w3.org/1999/xlink"><defs /><rect fill="none" height="300" width="300" x="0" y="0" /><path d="M110.13189412,105.335730996 m5.39568344402,-0.599520393622 l4.49640300146,0.899280541143 50.9592321763,0.0 l49.1606720798,-25.4796160882 10.191846593,-16.1870503321 l-5.99520373906,-21.8824943179 4.49640300146,12.889688315 l4.79616314898,4.49640300146 1.79856108229,0.599520393622 l5.39568344402,5.99520373906 3.29736201705,5.39568344402 l0.899280541143,4.49640300146 25.4796160882,-3.29736201705 l4.49640300146,0.299760196811 -1.79856108229,9.59232629795 l-17.0863303803,8.09352516603 -8.99280600291,-1.49880093476 l17.0863303803,-0.899280541143 4.79616314898,3.59712216457 l-4.19664285393,7.49400487098 -9.29256575611,2.69784172201 l-10.4916063462,0.899280541143 -20.6834537278,15.8872897902 l-34.4724213024,48.860911538 -29.6762589421,38.3693051918 l-6.5947240341,0.899280541143 -17.685851464,-3.89688231209 l-26.0791371718,-18.2853709704 -65.0479618701,-41.9664253848 l-18.8848920541,-25.77937663 -0.899280541143,-5.39568344402 l11.9904074781,-4.19664285393 73.7410049652,-11.0911274299 l11.3908871831,0.299760196811 -11.0911274299,2.69784172201 l-26.0791371718,-16.7865714157 3.89688231209,0.0 l-2.99760186953,10.791366888 -4.49640300146,-11.0911274299 l-11.0911274299,8.99280600291 -20.383693186,35.6714634698 l1.49880093476,-11.0911274299 -8.39328570787,-4.49640300146 l-15.2877702838,-0.599520393622 7.79376462418,1.19904078724 m124.700233987,101.618703811 l-2.09832142697,14.3884886583 1.49880093476,27.5779383038 l1.19904078724,2.09832142697 2.39808157449,0.299760196811 " fill="none" stroke="black" stroke-width="1" /></svg>