<?xml version="1.0" encoding="utf-8" ?>
<svg baseProfile="full" height="300" version="1.1" width="300" xmlns="http://www.w3.org/2000/svg" xmlns:ev="http://www.w3.org/2001/xml-events" xmlns:xlink="http://www.w3.org/1999/xlink"><defs /><rect fill="none" height="300" width="300" x="0" y="0" /><path d="M116.328415176,27.7675284715 m5.53505512274,11.9926193315 m-6.4575648155,-14.760147803 l9.68634661648,23.5239859402 0.922509237686,6.91881935849 l-11.9926193315,46.5867167307 -3.22878240775,18.450184147 l0.461254618843,9.22509207348 m-0.922509237686,-67.8044293492 l0.0,10.6088563092 -8.76383753049,59.9631015115 l0.0,24.4464938127 2.76752756137,9.68634661648 l12.915129631,9.68634661648 17.0664211247,7.38007390149 l30.4428034784,-11.5313653952 -0.922509237686,-1.84501847537 m-51.1992633742,-38.2841337432 l26.2915119847,1.38376378068 25.3690041122,-2.30627301837 l15.682656889,9.68634661648 8.30258298749,8.76383753049 l-0.922509237686,0.922509237686 m-21.6789677682,19.8339483827 l15.2214017392,-14.2988926532 7.38007390149,-1.38376378068 l2.30627301837,0.922509237686 -1.38376378068,0.922509237686 m-8.30258298749,-0.461254618843 l11.5313653952,23.0627307905 5.99630966574,7.38007390149 l-7.84132844449,-36.4391131442 m-52.5830239694,29.0590404562 l0.0,23.0627307905 3.22878240775,41.0516597877 l-0.922509237686,17.527675061 m3.69003695075,-83.4870850246 l0.461254618843,73.8007365879 1.84501847537,21.6789677682 l-6.91881935849,-2.30627301837 -4.61254603674,1.38376378068 l-1.84501847537,2.30627301837 5.53505512274,0.922509237686 l10.6088563092,-7.38007390149 m4.15129149374,-92.2509231619 l7.84132844449,55.8118100177 4.61254603674,18.450184147 m-8.76383753049,-77.0295177821 l4.15129149374,37.3616234437 9.22509207348,51.1992633742 " fill="none" stroke="black" stroke-width="1" /></svg>