<?xml version="1.0" encoding="utf-8" ?>
<svg baseProfile="full" height="300" version="1.1" width="300" xmlns="http://www.w3.org/2000/svg" xmlns:ev="http://www.w3.org/2001/xml-events" xmlns:xlink="http://www.w3.org/1999/xlink"><defs /><rect fill="none" height="300" width="300" x="0" y="0" /><path d="M88.852814171,101.839826689 m-9.74025961084,8.65800870115 l-6.49350616995,12.9870123399 -2.16450217529,19.4805192217 l4.32900435057,5.41125526026 25.9740246798,-22.7272719507 l6.49350616995,-16.2337664926 m-9.74025961084,19.4805192217 l-3.24675308497,128.787879608 m-16.2337664926,-42.2077925961 l45.4545439015,30.3030311659 m-28.1385264992,-17.3160174023 l-17.3160174023,46.5367962348 m17.3160174023,-94.155844803 l32.4675329852,-107.142855719 12.9870123399,-24.8917751938 l12.9870123399,-16.2337664926 16.2337664926,-7.57575779146 l32.4675329852,5.41125526026 18.398268312,10.8225105205 l8.65800870115,16.2337664926 -129.870131941,158.00865844 m107.142855719,-176.406925328 l8.65800870115,18.398268312 -3.24675308497,21.645021041 l-21.645021041,29.2207788325 -49.7835503875,53.0303016929 m-25.9740246798,60.6060623317 l-19.4805192217,-79.00432922 -18.398268312,-37.87878611 " fill="none" stroke="black" stroke-width="1" /></svg>