<?xml version="1.0" encoding="utf-8" ?>
<svg baseProfile="full" height="300" version="1.1" width="300" xmlns="http://www.w3.org/2000/svg" xmlns:ev="http://www.w3.org/2001/xml-events" xmlns:xlink="http://www.w3.org/1999/xlink"><defs /><rect fill="none" height="300" width="300" x="0" y="0" /><path d="M73.2832709279,155.364802372 m1.07296136544,17.7038617358 l6.97424843429,13.9484968686 5.90128724527,6.97424843429 l5.36480665077,0.53648068272 2.68240332538,-2.14592273088 l0.53648068272,-27.8969937371 -9.12017151802,-7.51072973451 l-16.094420658,-5.36480665077 m25.2145928818,24.6781115815 l57.403431375,-78.3261795007 48.8197418629,-60.6223135305 m3.21888391989,-12.3390557908 l-17.167381847,37.5536458497 -18.240343036,29.5064376378 m0.0,0.0 l-18.7768229248,33.2618010936 -4.82832605626,3.21888391989 l-69.7424899886,85.3004251121 102.467804136,-111.587974949 l80.4720990558,-76.7167356 m0.0,0.0 l-6.97424843429,14.4849781688 -26.8240339596,38.0901271499 l-41.8454934286,50.4291857635 -70.8154469433,63.8412013319 l-7.51072973451,5.90128724527 -5.36480665077,0.53648068272 l80.4720990558,-50.4291857635 13.9484968686,-6.43776783978 l21.9957079033,-5.36480665077 m-0.53648068272,0.0 l20.3862654141,-3.21888391989 -2.14592273088,2.68240332538 l-40.7725308281,26.2875526593 -39.1630897503,20.3862654141 l-36.4806860721,22.5321877921 28.4334750374,-12.3390557908 l41.3090121284,-9.65665211253 57.9399126752,-2.68240332538 l2.68240332538,-0.53648068272 -5.36480665077,-1.60944195995 l-37.5536458497,9.12017151802 -47.2102979622,20.9227467143 l-24.6781115815,8.58369092352 -12.8755356796,2.68240332538 l23.0686690923,5.90128724527 32.7253197934,3.21888391989 l53.6480679191,1.07296136544 -45.0643755842,-2.68240332538 l-37.5536458497,-4.82832605626 -19.8497855253,-4.29184546176 l-18.7768229248,-0.53648068272 3.21888391989,3.21888391989 l2.68240332538,7.51072973451 7.51072973451,32.1888413161 l2.68240332538,2.14592273088 0.53648068272,-2.68240332538 l-3.21888391989,-2.14592273088 -18.7768229248,0.53648068272 l2.68240332538,2.14592273088 6.43776783978,1.07296136544 l11.8025744905,-1.07296136544 m-41.3090121284,-60.6223135305 l7.51072973451,32.1888413161 1.60944195995,21.4592266031 l-5.36480665077,-2.68240332538 -12.8755356796,-0.53648068272 l-33.2618010936,22.5321877921 9.65665211253,2.14592273088 l12.3390557908,-1.60944195995 10.193132707,-5.90128724527 l16.6309005468,-5.36480665077 -2.68240332538,-8.04721032901 m5.36480665077,2.68240332538 l12.8755356796,0.0 " fill="none" stroke="black" stroke-width="1" /></svg>