<?xml version="1.0" encoding="utf-8" ?>
<svg baseProfile="full" height="300" version="1.1" width="300" xmlns="http://www.w3.org/2000/svg" xmlns:ev="http://www.w3.org/2001/xml-events" xmlns:xlink="http://www.w3.org/1999/xlink"><defs /><rect fill="none" height="300" width="300" x="0" y="0" /><path d="M208.823533441,27.2058822448 m7.35294097733,-2.20588224484 l15.4411759557,24.264704935 -5.14705897431,3.67647048867 l-13.2352939526,3.67647048867 -3.67647048867,-3.67647048867 l-1.47058824383,-6.61764697632 6.61764697632,-17.6470579587 l-9.55882298036,5.88235297531 0.735294121914,-3.67647048867 l-0.735294121914,8.82352897935 25.735292937,-11.7647059506 l-11.7647059506,24.9999999033 -5.88235297531,0.0 l21.323528931,-17.6470579587 -17.6470579587,19.852940929 l-5.14705897431,-0.735294121914 -4.41176448967,-11.0294119496 l3.67647048867,-11.7647059506 4.41176448967,-4.41176448967 l6.61764697632,-1.47058824383 13.2352939526,8.08823497834 l6.61764697632,14.7058819547 -16.1764699567,15.4411759557 l15.4411759557,-18.382352927 -0.735294121914,7.35294097733 l-15.4411759557,-2.94117648766 m5.14705897431,-5.88235297531 l30.8823519113,3.67647048867 3.67647048867,2.94117648766 l-31.6176468796,-3.67647048867 30.8823519113,2.94117648766 l-21.323528931,4.41176448967 -10.2941179486,-2.94117648766 l8.82352897935,6.61764697632 -6.61764697632,-2.20588224484 l23.5294119013,-1.47058824383 -16.9117649249,-0.735294121914 m-26.4705879053,0.735294121914 l-2.20588224484,91.176467732 -1.47058824383,-5.14705897431 l-65.441174795,20.5882358972 8.08823497834,22.794116933 l55.8823518146,-0.735294121914 11.7647059506,-27.9411759073 l-4.41176448967,-11.0294119496 -24.9999999033,0.0 m24.264704935,-5.14705897431 l-19.852940929,-10.2941179486 20.5882358972,26.4705879053 m-33.8235298499,13.9705879537 l5.14705897431,52.9411758106 17.6470579587,15.4411759557 m-9.55882298036,-54.4117657471 l0.735294121914,8.82352897935 20.5882358972,39.7058818579 l8.08823497834,2.94117648766 m-80.1470586841,-77.2058788111 l-17.6470579587,-29.4117639093 26.4705879053,42.647057862 m18.382352927,-25.735292937 l-6.61764697632,-2.94117648766 -8.82352897935,-51.4705858741 l5.88235297531,-5.14705897431 16.9117649249,67.6470596997 l6.61764697632,3.67647048867 m-151.470593225,6.61764697632 l17.6470579587,-2.94117648766 5.88235297531,3.67647048867 l19.1176459607,-5.14705897431 m-21.323528931,69.1176496363 l49.9999998066,4.41176448967 m24.264704935,16.1764699567 l65.441174795,26.4705879053 17.6470579587,-29.4117639093 l8.82352897935,7.35294097733 m-3.67647048867,-199.999999226 l0.0,0.0 m7.35294097733,1.47058824383 l-2.20588224484,39.7058818579 -11.7647059506,52.9411758106 " fill="none" stroke="black" stroke-width="1" /></svg>