<?xml version="1.0" encoding="utf-8" ?>
<svg baseProfile="full" height="300" version="1.1" width="300" xmlns="http://www.w3.org/2000/svg" xmlns:ev="http://www.w3.org/2001/xml-events" xmlns:xlink="http://www.w3.org/1999/xlink"><defs /><rect fill="none" height="300" width="300" x="0" y="0" /><path d="M138.920999299,152.167627438 m-13.0057803111,43.8342971674 l45.2793855583,17.8227365451 m0.963391151758,-6.26204209039 l9.15221570408,-5.78034659372 6.74373822072,-1.44508664843 m-16.8593442845,10.5973021941 l11.0789983244,-2.89017329686 0.481695575879,1.44508664843 m25.0481683616,-50.5780328535 l-3.85356460703,8.67052020741 -13.9691713045,61.1753375822 l-2.89017329686,21.6763005185 -19.7495185318,2.89017329686 l-18.7861275385,8.18882471073 m35.6454730903,-6.74373822072 l-0.963391151758,20.2312133948 m1.92678230352,-21.6763005185 l26.4932567525,12.0423893178 m-62.1387298428,-121.868979034 l0.481695575879,2.40847780019 5.29865109705,3.37186911036 l3.85356460703,0.481695575879 13.4874764414,-7.70712921406 l23.1213863749,0.0 4.3352601037,2.40847780019 l4.81695560038,7.22543371739 2.89017329686,1.44508664843 m-64.5472054252,-18.3044314082 l0.481695575879,-14.4508674348 6.74373822072,-14.4508674348 l1.92678230352,-20.2312133948 -11.5606931874,-0.481695575879 l-19.7495185318,3.37186911036 -24.0847786355,18.7861275385 l-3.37186911036,-0.481695575879 -5.29865109705,-17.8227365451 l2.89017329686,-12.5240841808 19.2678224015,-18.3044314082 l9.63391120075,1.92678230352 2.89017329686,22.6396927792 l10.1156066974,-16.8593442845 8.67052020741,17.3410404148 l-12.0423893178,-0.481695575879 -12.0423893178,6.26204209039 l-10.1156066974,0.963391151758 -4.3352601037,1.92678230352 m20.2312133948,-31.3102129866 l33.2369949733,-24.5664747659 34.2003846993,-11.0789983244 l18.7861275385,16.8593442845 " fill="none" stroke="black" stroke-width="1" /></svg>