<?xml version="1.0" encoding="utf-8" ?>
<svg baseProfile="full" height="300" version="1.1" width="300" xmlns="http://www.w3.org/2000/svg" xmlns:ev="http://www.w3.org/2001/xml-events" xmlns:xlink="http://www.w3.org/1999/xlink"><defs /><rect fill="none" height="300" width="300" x="0" y="0" /><path d="M187.803530969,43.4878555343 m50.7726286399,0.0 l23.1788076537,-2.20750557726 13.2450327376,-3.86313485095 l0.0,16.5562920109 -2.75938188083,22.6269320761 l-16.0044149814,25.9381913495 -9.93377491617,-6.07064006522 l-41.9426048789,-9.3818986126 -46.3576153075,0.0 l0.0,-2.75938188083 11.0375275233,-11.5894038269 l3.86313485095,-9.93377491617 4.96688745808,-33.1125840219 l3.86313485095,0.551876394315 8.83002230903,6.07064006522 l4.41501115452,0.551876394315 m-18.2119201957,50.7726286399 l-13.7969097671,30.353201778 -19.3156728028,27.0419425047 l-52.9801309503,55.1876390685 -56.8432701571,55.1876390685 l-8.83002230903,14.3487853447 29.8013247485,-1.10375278863 l138.520971797,1.6556290922 -0.551876394315,-23.7306846833 l26.4900654752,-86.0927178761 2.75938188083,-22.6269320761 l0.551876394315,-44.7019871228 m-39.7350996647,10.4856512197 l-12.69315716,-2.20750557726 -61.2582805856,-1.10375278863 l-15.4525394038,2.20750557726 -11.0375275233,6.62251636879 l-20.9713024395,19.8675498323 -3.86313485095,11.0375275233 l16.0044149814,6.07064006522 17.1081675885,13.7969097671 l8.83002230903,4.41501115452 " fill="none" stroke="black" stroke-width="1" /></svg>