<?xml version="1.0" encoding="utf-8" ?>
<svg baseProfile="full" height="300" version="1.1" width="300" xmlns="http://www.w3.org/2000/svg" xmlns:ev="http://www.w3.org/2001/xml-events" xmlns:xlink="http://www.w3.org/1999/xlink"><defs /><rect fill="none" height="300" width="300" x="0" y="0" /><path d="M127.465986298,147.448985547 m-1.70068026355,127.551014453 m95.2380969959,-130.102037784 l-3.4013605271,10.204081022 -0.850340131774,51.8707451019 l-55.2721095441,-0.850340131774 15.3061220923,57.8231284013 m49.3197262447,-119.897953407 l-35.7142841363,-1.70068026355 -62.9251705902,3.4013605271 l-11.9047621245,-3.4013605271 m34.0136041524,-58.6734695119 l9.35374103005,40.816324088 0.850340131774,-8.50340103809 l-17.8571420681,-58.6734695119 -5.102040511,-11.0544210139 l-0.850340131774,7.65306104614 7.65306104614,25.5102042329 l17.0068020762,40.816324088 m0.0,0.0 l6.80272105419,34.8639452629 m32.3129241685,-15.3061220923 l-4.25170051905,-108.843536867 m-65.4761894475,11.0544210139 l-1.70068026355,-13.6054421084 -5.95238106224,-3.4013605271 l-12.7551021164,0.0 -13.6054421084,4.25170051905 l-10.204081022,7.65306104614 -2.5510202555,5.102040511 l-2.5510202555,7.65306104614 0.0,22.1088420279 m23.809524249,1.70068026355 l-26.3605431062,-0.850340131774 -4.25170051905,-9.35374103005 l70.5782316364,0.850340131774 0.0,-5.95238106224 l-9.35374103005,-8.50340103809 -9.35374103005,-2.5510202555 m68.0272083048,-17.0068020762 l-12.7551021164,-1.70068026355 -36.5646252468,6.80272105419 l13.6054421084,-4.25170051905 m40.816324088,48.4693851341 " fill="none" stroke="black" stroke-width="1" /></svg>