<?xml version="1.0" encoding="utf-8" ?>
<svg baseProfile="full" height="300" version="1.1" width="300" xmlns="http://www.w3.org/2000/svg" xmlns:ev="http://www.w3.org/2001/xml-events" xmlns:xlink="http://www.w3.org/1999/xlink"><defs /><rect fill="none" height="300" width="300" x="0" y="0" /><path d="M137.621357825,155.097090072 m27.6699020946,35.9223312757 m1.94174761063,-51.4563096064 l15.0485434237,135.436888259 m-19.9029129292,-95.1456300475 l11.6504850252,21.3592227591 m-31.0679617701,-49.029127408 l-3.88349522127,-11.165048841 9.70873773388,-11.6504850252 l3.88349522127,-11.165048841 m-0.970873805317,0.0 l6.79611679686,-9.22330091105 3.88349522127,-12.6213586709 l0.970873805317,-11.165048841 27.1844671874,15.5339808851 l16.5048545307,7.2815536197 17.9611656378,2.91262125631 l-28.155339556,5.82524251262 4.3689320441,2.91262125631 l27.1844671874,8.25242726537 5.82524251262,3.88349522127 l3.39805839843,5.33980568978 -26.2135922646,3.39805839843 l-40.7766982269,0.970873805317 m-10.1941745567,-47.5728150237 l-16.5048545307,-8.25242726537 -20.3883491134,-16.0194170693 l-24.2718449733,-39.8058258584 -6.79611679686,-4.85436886694 l-1.94174761063,1.94174761063 -1.94174761063,6.79611679686 l-13.5922335937,26.2135922646 -12.6213586709,17.9611656378 " fill="none" stroke="black" stroke-width="1" /></svg>