<?xml version="1.0" encoding="utf-8" ?>
<svg baseProfile="full" height="300" version="1.1" width="300" xmlns="http://www.w3.org/2000/svg" xmlns:ev="http://www.w3.org/2001/xml-events" xmlns:xlink="http://www.w3.org/1999/xlink"><defs /><rect fill="none" height="300" width="300" x="0" y="0" /><path d="M191.952049254,111.4726043 m-9.41780769077,-0.856164373919 l-4.28082172881,3.42465749568 -3.42465749568,6.84931499135 l0.0,7.70547922449 5.13698596195,6.84931499135 l7.70547922449,0.0 7.70547922449,-10.2739719239 l0.856164373919,-7.70547922449 16.2671226821,47.9452060657 l5.13698596195,41.952053055 -5.13698596195,4.28082172881 l-5.13698596195,-2.56849298098 -9.41780769077,-29.9657515386 l-4.28082172881,-37.6712307631 8.56164345763,42.8082184144 l0.856164373919,21.4041092072 -2.56849298098,5.13698596195 l-11.9863015164,-70.2054783798 -6.84931499135,63.3561645147 l-2.56849298098,-11.9863015164 0.856164373919,-55.6506852902 l-4.28082172881,15.410958449 -2.56849298098,3.42465749568 l-0.856164373919,-4.28082172881 0.856164373919,-8.56164345763 l-28.2534230723,57.363011504 -26.541094606,4.28082172881 l8.56164345763,-11.9863015164 100.171229918,-32.5342453642 l2.56849298098,4.28082172881 -17.9794511484,17.9794511484 l-85.6164368288,29.1095884317 -35.9589022968,-5.99315075821 l-20.5479438478,-39.3835614818 30.821916898,-68.493147661 l39.3835614818,-13.6986299827 83.0479407506,42.8082184144 l8.56164345763,30.821916898 -129.280816098,68.493147661 l-39.3835614818,-84.7602714694 47.9452060657,-27.3972599654 l113.013692289,51.3698629983 -5.99315075821,56.5068461446 l-89.8972546157,41.0958876956 -62.4999991553,-19.6917807409 l-40.2397268412,-33.3904107236 m12.8424657496,-81.3356100319 l175.513700455,-69.3493130204 30.821916898,14.5547942158 l30.821916898,34.2465738305 -14.5547942158,71.9178045936 l-158.390411287,66.7808214473 -66.7808214473,-51.3698629983 l28.2534230723,-113.869857649 152.397253771,-26.541094606 l56.5068461446,40.2397268412 -23.1164376735,98.4588991996 l-65.9246560879,34.2465738305 -119.863006154,-49.6575322795 l10.2739719239,-111.30137058 104.452047705,-28.2534230723 l39.3835614818,24.8287661397 10.2739719239,60.7876684365 l-44.5205446282,89.8972546157 -127.568485379,23.9726030329 l-23.9726030329,-39.3835614818 " fill="none" stroke="black" stroke-width="1" /></svg>