<?xml version="1.0" encoding="utf-8" ?>
<svg baseProfile="full" height="300" version="1.1" width="300" xmlns="http://www.w3.org/2000/svg" xmlns:ev="http://www.w3.org/2001/xml-events" xmlns:xlink="http://www.w3.org/1999/xlink"><defs /><rect fill="none" height="300" width="300" x="0" y="0" /><path d="M221.614572954,50.1736034123 m-82.4652764485,42.5347231232 l-14.75694506,14.75694506 -15.6250005174,23.4375007761 l-3.47222240064,6.94444480129 5.20833331549,17.3611114323 l0.868055600161,46.8750015523 -6.07638934386,59.02778024 l6.07638934386,3.47222240064 m19.9652789464,4.34027785807 l-38.1944446942,6.07638934386 -38.1944446942,0.0 l59.8958368393,-3.47222240064 11.2847220884,-6.94444480129 m105.03472976,-230.034724765 l5.20833331549,31.2500010348 -0.868055600161,19.9652789464 l-6.07638934386,25.173611691 -15.6250005174,28.6458335207 l-5.20833331549,1.73611120032 -15.6250005174,-1.73611120032 l-23.4375007761,-12.1527786877 -14.75694506,-2.60416665775 l-57.2916670413,6.07638934386 -34.7222228645,12.1527786877 l-3.47222240064,19.0972223471 -18.2291668897,-46.8750015523 m217.881950645,-90.2777767073 l-57.2916670413,6.07638934386 -48.6111147509,-0.868055600161 " fill="none" stroke="black" stroke-width="1" /></svg>