<?xml version="1.0" encoding="utf-8" ?>
<svg baseProfile="full" height="300" version="1.1" width="300" xmlns="http://www.w3.org/2000/svg" xmlns:ev="http://www.w3.org/2001/xml-events" xmlns:xlink="http://www.w3.org/1999/xlink"><defs /><rect fill="none" height="300" width="300" x="0" y="0" /><path d="M153.715497976,114.171977866 m-52.5477715567,-0.530785580978 l-14.3312104246,5.83864112892 -13.8004242326,14.3312104246 l-11.6772822578,20.1698515535 -5.30785563522,21.2314225409 l14.3312104246,-9.02335478934 18.0467095787,-6.36942662262 l29.1932070411,-5.30785563522 41.4012754908,-1.59235665566 l0.530785580978,-40.339703107 32.9087047987,-43.5244174656 l28.1316346572,-44.0552036576 22.2929935283,2.65392781761 l1.06157116196,2.65392781761 -11.1464967641,7.43099830825 l-18.5774943742,-3.71549915412 m-93.4182580627,121.019106528 l-12.2080684498,26.0084926824 -12.7388532452,42.9936312737 l-1.06157116196,18.0467095787 -2.12314232391,8.49256929565 l-1.06157116196,2.65392781761 -1.59235665566,-1.06157116196 m40.8704892989,-98.1953337901 l2.65392781761,1.59235665566 10.6157112704,36.6242053493 l18.0467095787,39.278133516 8.49256929565,27.0700650663 l8.49256929565,16.4543523994 " fill="none" stroke="black" stroke-width="1" /></svg>