<?xml version="1.0" encoding="utf-8" ?>
<svg baseProfile="full" height="300" version="1.1" width="300" xmlns="http://www.w3.org/2000/svg" xmlns:ev="http://www.w3.org/2001/xml-events" xmlns:xlink="http://www.w3.org/1999/xlink"><defs /><rect fill="none" height="300" width="300" x="0" y="0" /><path d="M110.289521034,207.316118933 m-1.56494523739,57.120501036 l1.9561814824,1.17370886371 12.5195618991,0.0 l-4.30359920982,1.9561814824 m-12.1283251394,-1.17370886371 l5.47730845952,1.17370886371 14.8669793692,7.43348968459 m23.4741788181,-69.2488241168 l1.17370886371,15.2582161289 -0.391236309347,41.0798103585 l10.5633801594,1.17370886371 m-8.99843517931,0.782472618694 l27.386540239,8.60719841964 m-23.4741788181,-69.6400608765 l-6.25978094955,1.56494523739 -40.2973409564,0.391236309347 l-14.8669793692,-1.17370886371 -1.56494523739,-3.12989047477 m-0.782472618694,-0.782472618694 l-23.4741788181,-23.0829420585 -7.43348968459,-12.1283251394 l-2.34741772742,-7.82472592961 37.167446879,-19.170578579 m-40.2973409564,19.9530520983 l19.5618153387,-15.6494518592 m-17.2143968393,16.0406886189 l76.2910775564,-19.9530520983 m61.4241012751,0.782472618694 l-104.460091315,1.56494523739 m107.198748632,-5.47730845952 l-7.04225343958,20.3442867994 -14.4757436388,22.3004685391 l-14.4757436388,16.8231611089 -10.1721433997,8.99843517931 l-0.782472618694,-6.25978094955 m47.7308270384,-61.4241012751 l-2.34741772742,-14.4757436388 -4.69483545483,-70.8137711555 l-0.391236309347,-15.2582161289 1.9561814824,-6.65101719456 l3.12989047477,-3.52112671979 14.0845068792,0.0 l10.1721433997,0.782472618694 21.1267603187,5.47730845952 l-5.08607169985,2.34741772742 -15.2582161289,2.34741772742 l-28.9514872777,1.17370886371 m15.2582161289,-8.21596217462 l0.0,0.0 m0.0,0.0 l-0.391236309347,1.17370886371 " fill="none" stroke="black" stroke-width="1" /></svg>