<?xml version="1.0" encoding="utf-8" ?>
<svg baseProfile="full" height="300" version="1.1" width="300" xmlns="http://www.w3.org/2000/svg" xmlns:ev="http://www.w3.org/2001/xml-events" xmlns:xlink="http://www.w3.org/1999/xlink"><defs /><rect fill="none" height="300" width="300" x="0" y="0" /><path d="M122.730137372,180.028373808 m0.472887758131,-11.5069360527 l6.93568718838,-27.7427487535 9.61538439806,-33.8902903868 l6.93568718838,-17.3392188004 5.20176539129,0.0 l1.7339217971,0.472887758131 2.83732665247,1.57629256166 l13.8713743768,5.51702386215 11.3493066099,6.62042871752 l14.6595215907,10.8764191109 27.7427487535,22.5409837769 l34.6784376007,29.7919281921 9.77301384085,9.93064328363 l5.20176539129,7.88146301568 1.2610340908,11.8221941088 l0.0,13.8713743768 -6.30517024666,-5.98991177579 l-11.5069360527,-8.82723884297 -13.7137457634,-8.03909245846 l-17.8121054699,-8.98486745634 -24.7477943171,-11.5069360527 l-27.1122326412,-9.93064328363 -32.9445137301,-11.0340477243 l-42.0870114586,-15.7629260314 -38.9344259206,-31.9987403911 l0.0,-8.19672107183 m157.629256996,36.2547287109 l0.0,-0.630517045401 m0.0,0.0 l0.0,-18.6002526838 m-157.629256996,81.0214406969 l58.6380863628,-38.619167035 35.6242109398,-20.6494321224 l34.0479198296,-16.2358143597 17.9697349127,-4.09836053591 l14.0290038195,-1.10340485537 12.9255993789,0.0 l0.0,5.20176539129 m-98.0454006117,33.5750315012 l0.0,0.0 m0.0,0.0 l26.9546031984,-8.03909245846 16.0781849169,-3.31021435876 l8.98486745634,-0.945775516263 -11.0340477243,2.67969741704 l-46.8158881069,17.6544776859 -21.4375793363,6.30517024666 l-19.5460276817,4.72887789235 -14.9747788174,2.9949558879 l-18.6002526838,0.0 -16.866330472,-2.20680971074 l-10.5611602254,-0.315258522701 -1.7339217971,-0.472887758131 l-0.472887758131,-0.788146280832 2.83732665247,-14.3442627051 m0.0,0.0 l0.0,0.0 m121.53215441,-8.66960940018 l0.0,0.0 m-26.0088282006,5.83228274772 l0.0,0.0 m7.88146301568,23.0138721053 l0.0,0.0 m0.0,0.0 l0.0,0.0 m-4.09836053591,-0.630517045401 l18.2849937982,-18.6002526838 15.4476671458,-18.9155115694 l8.35435051461,-11.9798235516 1.10340485537,-2.67969741704 l4.2559899787,16.7087010292 2.20680971074,14.5018921479 l0.15762926135,19.7036571245 -3.78310206505,19.3883982389 l-1.10340485537,11.5069360527 -30.8953342916,-78.3417401696 l-8.35435051461,-22.8562426625 -14.3442627051,-8.66960940018 l-49.4955886342,0.0 -0.315258522701,0.788146280832 l3.94073150784,2.36443894617 32.1563698338,23.1715015481 l48.0769236491,28.6885254102 31.8411109483,22.8562426625 l40.1954614629,25.5359398722 8.19672107183,17.4968482432 m-157.629256996,-43.1904175581 l0.0,0.0 " fill="none" stroke="black" stroke-width="1" /></svg>