<?xml version="1.0" encoding="utf-8" ?>
<svg baseProfile="full" height="300" version="1.1" width="300" xmlns="http://www.w3.org/2000/svg" xmlns:ev="http://www.w3.org/2001/xml-events" xmlns:xlink="http://www.w3.org/1999/xlink"><defs /><rect fill="none" height="300" width="300" x="0" y="0" /><path d="M275.0,176.709402304 m-59.11680901,1.06837599731 l-46.2962965739,4.27350398922 -144.586894416,3.20512810903 l7.12250680486,32.0512810903 3.56125340243,-7.83475739165 l8.9031337403,-6.41025621806 7.12250680486,-1.42450140782 l54.8433036154,0.712250703909 63.3903106569,4.27350398922 l8.9031337403,-2.13675199461 32.7635326141,-1.78062670121 l8.19088315351,-4.27350398922 6.41025621806,-1.42450140782 l25.9971506341,-1.42450140782 -0.356125351955,-5.69800563127 m-113.960108878,-44.5156677646 l1.06837599731,23.8603979368 -2.84900281564,-9.6153843271 l-6.76638151146,-8.19088315351 -1.78062670121,0.356125351955 l-1.06837599731,11.3960112625 1.06837599731,47.0085443499 l-2.49287752224,-54.8433036154 -4.27350398922,-46.2962965739 l-0.712250703909,-20.2991440659 -0.712250703909,-6.05413092467 l-1.06837599731,2.84900281564 -1.78062670121,1.06837599731 m-60.8974340716,35.2564091994 l-0.356125351955,-0.356125351955 m2.13675199461,-12.4643866743 " fill="none" stroke="black" stroke-width="1" /></svg>