<?xml version="1.0" encoding="utf-8" ?>
<svg baseProfile="full" height="300" version="1.1" width="300" xmlns="http://www.w3.org/2000/svg" xmlns:ev="http://www.w3.org/2001/xml-events" xmlns:xlink="http://www.w3.org/1999/xlink"><defs /><rect fill="none" height="300" width="300" x="0" y="0" /><path d="M155.886428654,32.9639916479 m0.0,27.7008298995 l4.15512439382,28.3933514668 17.3130191426,40.1662035364 l17.3130191426,24.9307472739 13.1578942933,14.5429356061 l26.3157885867,18.6980604554 32.5484772271,12.4653736369 m-37.3961209108,-167.590029819 l2.77008308104,5.54016616209 30.470912525,29.0858712122 l10.3878116678,29.7783927796 2.07756219691,15.9279778299 l0.0,38.0886424782 -6.23268681847,49.8614945478 m-76.1772849564,-111.495841165 l3.46260373743,20.7756233356 4.8476455057,9.00276944403 m15.9279778299,-30.470912525 l9.00276944403,11.7728529806 4.15512439382,9.6952910114 l15.2354562625,51.939055606 m-87.2576154586,-109.418276463 l-2.07756219691,128.116344206 5.54016616209,6.92520747486 l20.7756233356,5.54016616209 36.0110777761,2.07756219691 l8.31024878764,-3.46260373743 m-70.6371197053,-62.3268681847 l-47.0914119222,44.3213292967 -31.8559556597,24.9307472739 l-14.5429356061,8.31024878764 -4.8476455057,-7.61772813125 l-9.00276944403,-26.3157885867 -11.7728529806,-14.5429356061 m11.0803323242,24.2382257065 l5.54016616209,-27.7008298995 m-28.3933514668,22.1606646483 l22.8531843938,2.77008308104 m105.955675914,-45.7063687875 l-13.1578942933,56.0941813663 -9.6952910114,77.5623280912 " fill="none" stroke="black" stroke-width="1" /></svg>