<?xml version="1.0" encoding="utf-8" ?>
<svg baseProfile="full" height="300" version="1.1" width="300" xmlns="http://www.w3.org/2000/svg" xmlns:ev="http://www.w3.org/2001/xml-events" xmlns:xlink="http://www.w3.org/1999/xlink"><defs /><rect fill="none" height="300" width="300" x="0" y="0" /><path d="M102.127659805,54.0780181699 m0.0,42.5531928392 l3.19148936964,63.8297873928 9.57446810893,42.1985824946 l9.92907845353,28.0141836376 1.77304962389,2.83687949151 l1.77304962389,0.0 0.709219872878,-2.48226961338 l1.41843974576,-33.6879416876 6.02836886115,-59.929077334 m0.0,0.0 l4.60992888216,-42.1985824946 4.60992888216,-22.3404255875 l4.96453922677,-35.1063830661 m1.77304962389,1.41843974576 l3.9007091259,7.09219849554 30.4964541839,87.2340402824 l11.7021273777,36.8794310573 7.09219849554,29.0780146714 l12.411347134,35.8156037553 7.8014182518,-25.1773046125 l12.7659574786,-84.3971649891 -16.3120571928,-64.8936184267 l-2.12765950202,-32.9787247302 0.709219872878,-2.83687949151 l2.83687949151,2.83687949151 4.96453922677,9.21985776432 l3.19148936964,11.347517966 7.44680837367,57.4468086536 l0.0,82.9787236107 3.54609924777,57.4468086536 l2.48226961338,18.7943258732 -4.25531900403,5.3191491049 l-15.6028365036,4.60992888216 -56.3829776197,-1.06382975101 l-63.4751770482,-19.1489362179 -48.9361715784,-85.4609960229 l-2.12765950202,-14.1843969911 10.9929076214,-84.3971649891 l19.5035465625,-43.2624097966 12.0567377223,-2.12765950202 l5.3191491049,4.60992888216 2.12765950202,24.1134754446 l-5.3191491049,10.2836878652 -1.41843974576,14.1843969911 m59.929077334,73.40425177 l-2.83687949151,17.0212760161 -2.12765950202,25.8865253017 l18.7943258732,-92.1985851068 -3.54609924777,-4.60992888216 l-34.0425520323,79.0780172836 20.921986075,12.411347134 l7.09219849554,-58.865250032 -6.73758861741,15.248227092 l0.354609936439,118.43971329 6.38297873928,-135.46098744 m36.8794310573,7.09219849554 l0.0,1.77304962389 " fill="none" stroke="black" stroke-width="1" /></svg>