<?xml version="1.0" encoding="utf-8" ?>
<svg baseProfile="full" height="300" version="1.1" width="300" xmlns="http://www.w3.org/2000/svg" xmlns:ev="http://www.w3.org/2001/xml-events" xmlns:xlink="http://www.w3.org/1999/xlink"><defs /><rect fill="none" height="300" width="300" x="0" y="0" /><path d="M60.7929480028,44.8237767166 m1.1013216581,14.8678421127 l2.75330405471,1.1013216581 m-4.4052866324,30.8370071512 l3.8546258939,23.6784153775 m3.8546258939,29.7356842254 l2.2026433162,13.2158591728 m6.60792958642,44.0528648753 l0.55066082905,8.81057326481 2.75330405471,2.75330405471 m5.50660810941,42.4008833842 l1.6519823966,18.7224680066 m16.5198250526,-231.828197712 l6.05726884792,4.4052866324 m28.6343612997,33.5903086706 l13.7665206357,13.2158591728 m14.8678421127,38.5462560415 l6.05726884792,3.30396479321 7.7092517878,9.36123400331 m5.50660810941,36.8942745504 l7.7092517878,13.7665206357 3.8546258939,1.1013216581 m7.15859032492,25.8810597803 l13.7665206357,23.6784153775 m6.60792958642,-217.511022857 l3.30396479321,10.4625554803 m-3.8546258939,51.7621195606 l4.4052866324,17.6211465296 m2.75330405471,44.6035263382 l1.6519823966,9.91189474182 m6.05726884792,42.951544847 l-0.55066082905,14.3171806498 m-156.387670018,47.9074922179 l1.1013216581,-47.9074922179 -5.50660810941,-29.7356842254 l-10.4625554803,-40.1982404301 0.0,-19.2731280208 l-6.60792958642,-40.1982404301 0.55066082905,-52.3127752285 l1.6519823966,-2.75330405471 3.30396479321,-1.1013216581 l15.9691635897,-3.30396479321 6.60792958642,0.55066082905 l4.4052866324,2.75330405471 24.2290753917,21.4757724235 l18.7224680066,29.1850227626 13.2158591728,11.5638769573 l15.9691635897,20.9251109606 20.3744509465,36.8942745504 l7.7092517878,18.7224680066 12.1145376958,53.9647596171 l10.4625554803,15.4185035756 -5.50660810941,-1.6519823966 m16.5198250526,-216.960361394 l1.6519823966,39.6475789673 -1.6519823966,39.0969175044 l5.50660810941,19.8237894836 2.2026433162,18.1718065437 " fill="none" stroke="black" stroke-width="1" /></svg>