<?xml version="1.0" encoding="utf-8" ?>
<svg baseProfile="full" height="300" version="1.1" width="300" xmlns="http://www.w3.org/2000/svg" xmlns:ev="http://www.w3.org/2001/xml-events" xmlns:xlink="http://www.w3.org/1999/xlink"><defs /><rect fill="none" height="300" width="300" x="0" y="0" /><path d="M115.476193324,193.849204918 m7.53968243445,44.8412677044 l1.9841269427,0.39682540159 3.9682538854,-1.19047613952 l-1.9841269427,-0.39682540159 -0.39682540159,-3.9682538854 l5.15872989441,-30.1587297378 -2.38095227904,-18.2539686036 l17.0634920726,2.77777787638 -4.36507922173,15.8730155416 l-0.79365080318,10.7142856472 0.0,29.3650801091 l1.58730160636,10.3174597888 44.8412677044,5.55555575276 l11.9047621782,-0.39682540159 4.36507922173,-1.9841269427 l0.0,-7.14285709811 -9.52380911615,-27.3809529054 l-12.6984128509,-27.7777766758 -3.57142854906,-13.0952376652 m0.0,0.0 l16.6666662143,-15.0793648689 7.93650777079,-5.15872989441 l33.7301582869,-9.92063497449 9.92063497449,-5.55555575276 l5.9523810891,-7.53968243445 12.6984128509,-26.1904753304 l7.53968243445,-33.7301582869 2.38095227904,-1.9841269427 l-13.0952376652,18.650794462 -5.55555575276,14.2857141962 l-28.9682542508,1.19047613952 -16.6666662143,-2.38095227904 l-7.53968243445,0.79365080318 -12.6984128509,-1.58730160636 l-22.222223011,-7.53968243445 -5.55555575276,-8.33333310713 l-19.0476182323,-37.6984106062 -10.3174597888,-13.8888883379 l-43.253968447,5.9523810891 -25.3968257017,1.9841269427 l-26.9841270471,5.55555575276 -12.6984128509,-0.79365080318 l5.55555575276,15.0793648689 m0.39682540159,0.79365080318 m4.76190455807,101.190476949 l0.0,0.0 " fill="none" stroke="black" stroke-width="1" /></svg>