<?xml version="1.0" encoding="utf-8" ?>
<svg baseProfile="full" height="300" version="1.1" width="300" xmlns="http://www.w3.org/2000/svg" xmlns:ev="http://www.w3.org/2001/xml-events" xmlns:xlink="http://www.w3.org/1999/xlink"><defs /><rect fill="none" height="300" width="300" x="0" y="0" /><path d="M93.8025199534,267.12184906 m16.8067229271,1.57563018806 l24.6848750765,6.30252075222 m-20.4831936538,-5.77731074711 l0.0,-95.5882361298 m0.0,-12.0798321902 l-56.7226888427,-5.77731074711 m9.45378147378,0.525210091472 l5.252100742,-6.82773075733 21.008402968,-10.504201484 l34.1386565502,-11.0294114891 2.626050371,-2.10084036589 l4.72689073689,-15.2310922209 3.15126037611,-18.3823522516 l7.35294145334,-67.2268917085 14.7058829067,25.7352937049 l2.10084036589,8.40336146356 79.3067211351,11.5546214942 l-12.6050415044,3.15126037611 -58.8235316267,0.0 l-1.57563018806,2.626050371 1.05042018294,32.5630244622 l-7.35294145334,45.1680673485 m-0.525210091472,-14.1806722107 l54.6218460587,0.525210091472 9.45378147378,2.626050371 l-4.20168073178,5.77731074711 -12.6050415044,4.72689073689 l-48.8445394569,11.0294114891 -46.2184859769,1.05042018294 " fill="none" stroke="black" stroke-width="1" /></svg>