<?xml version="1.0" encoding="utf-8" ?>
<svg baseProfile="full" height="300" version="1.1" width="300" xmlns="http://www.w3.org/2000/svg" xmlns:ev="http://www.w3.org/2001/xml-events" xmlns:xlink="http://www.w3.org/1999/xlink"><defs /><rect fill="none" height="300" width="300" x="0" y="0" /><path d="M269.908348712,113.594708918 m-67.7189396655,12.7291243699 l-20.8757640203,2.54582480701 -19.8574342314,6.61914429729 l-12.2199588057,-2.03665991259 -5.60081450844,-2.54582480701 l-20.3665984561,-0.509164978146 -38.6965373344,3.05498970143 l-22.912423598,3.56415493075 -24.9490831757,0.509164978146 l-10.6924641225,2.03665991259 5.60081450844,36.6598777568 l2.03665991259,6.10997940286 5.09164961402,5.60081450844 l47.3523438886,36.6598777568 19.8574342314,12.2199588057 l18.8391044426,10.6924641225 24.4399176115,7.1283098615 l6.10997940286,-11.7107945811 71.7922588209,-92.1588599561 l20.3665984561,-14.256619723 27.4949083176,-26.9857427534 m-62.1181238175,54.4806510709 l-25.9674143041,-2.54582480701 -19.8574342314,2.54582480701 l-14.256619723,6.10997940286 -15.2749495118,3.05498970143 l-68.7372707939,33.6048870506 -19.8574342314,11.2016290169 l-6.61914429729,-2.03665991259 -17.3116090895,0.509164978146 l0.509164978146,-2.03665991259 m101.323829395,-84.5213872095 l10.6924641225,-42.2606936048 8.14663965034,-14.7657839476 l12.2199588057,-14.7657839476 8.65580454477,-4.58248471959 l33.0957241656,-1.01832995629 27.4949083176,-7.1283098615 " fill="none" stroke="black" stroke-width="1" /></svg>