<?xml version="1.0" encoding="utf-8" ?>
<svg baseProfile="full" height="300" version="1.1" width="300" xmlns="http://www.w3.org/2000/svg" xmlns:ev="http://www.w3.org/2001/xml-events" xmlns:xlink="http://www.w3.org/1999/xlink"><defs /><rect fill="none" height="300" width="300" x="0" y="0" /><path d="M149.999998004,144.604323543 m7.19424483836,51.2589919595 l2.69784166651,76.4388494852 m-10.7913666661,-92.6259048076 l8.09352529528,-3.59712241918 17.0863310475,0.0 l8.09352529528,5.39568333303 1.79856120959,4.4964028761 l-1.79856120959,13.4892092198 -27.8776977135,19.7841724183 m0.899280604795,54.8561137872 l34.172662095,0.899280604795 m-44.0647483041,-98.9208668231 l0.0,-30.5755402673 41.3669081163,36.8705046487 l5.39568333303,13.4892092198 -47.6618701318,34.172662095 m0.0,-88.1294966082 l-27.8776977135,2.69784166651 -13.4892092198,-2.69784166651 l-7.19424483836,-9.89208620913 0.899280604795,-27.8776977135 l8.9928057522,-14.3884896767 15.2877701336,-6.29496438143 l35.9712230088,0.899280604795 8.9928057522,13.4892092198 l1.79856120959,35.0719437349 -25.1798575257,15.2877701336 m2.69784166651,-55.7553954271 l18.8848919613,-23.381294246 13.4892092198,-34.172662095 l26.0791367997,-9.89208620913 m-39.5683448365,11.690647123 " fill="none" stroke="black" stroke-width="1" /></svg>