<?xml version="1.0" encoding="utf-8" ?>
<svg baseProfile="full" height="300" version="1.1" width="300" xmlns="http://www.w3.org/2000/svg" xmlns:ev="http://www.w3.org/2001/xml-events" xmlns:xlink="http://www.w3.org/1999/xlink"><defs /><rect fill="none" height="300" width="300" x="0" y="0" /><path d="M99.8933890419,118.816632534 m-0.533049049482,28.2515984831 l-3.73134343403,40.5117267089 1.5991470608,57.5692962923 l35.7142853512,-0.533049049482 -6.92963720502,3.19829412159 l-23.4541571254,5.86353928135 -1.06609809896,-3.19829412159 m-4.79744135769,-5.86353928135 l-35.1812356881,9.06183375355 -7.46268686805,4.26439239586 l42.1108728931,-4.26439239586 6.92963720502,21.3219612781 l-6.39658824319,-73.5607693545 m4.79744135769,-85.2878451124 l27.7185488201,10.660980639 8.52878479172,6.39658824319 l-1.06609809896,-13.3262261494 -11.1940296009,-0.533049049482 l-4.26439239586,-2.66524515976 m-10.660980639,-0.533049049482 l13.3262261494,4.79744135769 21.8550109411,4.26439239586 l44.2430715453,1.06609809896 16.5245199204,-10.1279316772 l7.99573582989,-6.92963720502 4.79744135769,-7.46268686805 l-0.533049049482,-13.3262261494 -6.92963720502,-10.660980639 l-19.1897654308,-14.3923240731 20.7889130175,-0.533049049482 l21.8550109411,3.19829412159 6.92963720502,-4.79744135769 l3.73134343403,-10.1279316772 -1.06609809896,-2.66524515976 l-16.5245199204,-12.7931764864 -34.6481888299,-10.660980639 " fill="none" stroke="black" stroke-width="1" /></svg>