<?xml version="1.0" encoding="utf-8" ?>
<svg baseProfile="full" height="300" version="1.1" width="300" xmlns="http://www.w3.org/2000/svg" xmlns:ev="http://www.w3.org/2001/xml-events" xmlns:xlink="http://www.w3.org/1999/xlink"><defs /><rect fill="none" height="300" width="300" x="0" y="0" /><path d="M70.3400444425,156.926951919 m0.629722948779,45.9697751573 l-6.92695212593,62.3425707901 m66.1209062048,-114.609576057 l0.629722948779,39.6725450483 -2.51889179512,47.8589428647 m-59.8236760957,-82.4937018376 l31.4861472319,-5.03778359023 10.7052900257,0.0 l12.5944585614,3.14861464035 12.5944585614,-6.2972292807 l19.5214106873,-39.6725450483 71.7884126402,-53.5264493001 l27.7078085037,-17.0025193064 -3.77833748558,2.51889179512 l-10.7052900257,-3.77833748558 -7.55667497116,0.0 l-18.8916886705,10.7052900257 -23.9294714323,21.4105800514 l-22.6700257419,15.1133499423 -38.413097701,18.8916886705 l-12.5944585614,10.0755671805 -12.5944585614,14.4836279255 l-26.4483628133,18.2619649969 m170.654916738,-110.201516968 l27.0780864869,35.8942063201 -25.8186407964,-23.2997494155 l6.2972292807,5.66750643547 17.0025193064,23.2997494155 l-16.3727956328,-36.5239299937 3.14861464035,10.0755671805 l-10.7052900257,-10.0755671805 -1.88916874279,0.629722948779 m-130.352641389,64.8614654845 l-51.6372815928,-11.9647357162 -37.1536536673,-3.14861464035 l9.44584433523,36.5239299937 -11.9647357162,-5.03778359023 l9.44584433523,0.629722948779 41.5617127556,11.9647357162 l-10.0755671805,0.629722948779 -9.44584433523,4.408060745 l71.7884126402,-15.1133499423 m0.0,0.0 l0.0,0.0 " fill="none" stroke="black" stroke-width="1" /></svg>