<?xml version="1.0" encoding="utf-8" ?>
<svg baseProfile="full" height="300" version="1.1" width="300" xmlns="http://www.w3.org/2000/svg" xmlns:ev="http://www.w3.org/2001/xml-events" xmlns:xlink="http://www.w3.org/1999/xlink"><defs /><rect fill="none" height="300" width="300" x="0" y="0" /><path d="M128.107344743,125.282481552 m-1.41242947629,80.5084762 l-5.64971790514,46.6101706272 1.41242947629,22.5988716206 m-60.0282512325,-134.88700674 l-8.47457639322,31.7796626358 -2.82485895257,24.0113008646 l7.06214714918,1.41242947629 45.9039587922,-3.53107357459 l56.4971771934,2.82485895257 m-130.649728298,-137.005653393 l2.1186440983,22.5988716206 9.88700656625,27.5423749037 l12.7118650543,15.5367235424 19.0677975815,7.7683617712 l66.3841874757,0.706214738143 24.7175145576,-3.53107357459 l28.2485885967,-15.5367235424 m-71.3276889008,-64.2655408226 l38.841810714,-10.5932211883 33.1920937378,-2.1186440983 l29.6610178408,19.7740131325 28.9548041477,33.1920937378 l17.6553683374,4.23728819661 -3.53107357459,3.53107357459 l-36.7231640609,14.1242942984 -7.06214714918,4.94350328312 l-38.841810714,5.64971790514 m-63.5593252716,-75.5649747749 l-27.5423749037,-5.64971790514 -12.0056504323,-7.06214714918 l-13.4180796763,-2.1186440983 -10.5932211883,-7.7683617712 " fill="none" stroke="black" stroke-width="1" /></svg>