<?xml version="1.0" encoding="utf-8" ?>
<svg baseProfile="full" height="300" version="1.1" width="300" xmlns="http://www.w3.org/2000/svg" xmlns:ev="http://www.w3.org/2001/xml-events" xmlns:xlink="http://www.w3.org/1999/xlink"><defs /><rect fill="none" height="300" width="300" x="0" y="0" /><path d="M152.638775661,102.111023537 m-10.1641902867,0.0 l-3.32290854098,0.977326018777 -2.93197818489,1.95465203755 l-2.54104757168,2.73651300685 -2.34558239364,5.08209514336 l-0.195465210184,5.08209514336 3.12744336294,1.36825650343 l7.42767779413,-0.781860840734 7.6231432293,-3.51837371902 l4.49569986636,0.0 1.75918685951,6.25488672587 l0.0,4.30023443119 -2.34558239364,14.2689603113 l0.0,6.25488672587 -1.17279119682,0.58639559841 l-1.95465203755,-1.17279119682 -0.977326018777,0.195465210184 l-1.36825650343,3.12744336294 0.390930420367,3.32290854098 l3.32290854098,2.54104757168 3.51837371902,0.781860840734 l0.977326018777,0.0 2.73651300685,-2.34558239364 l2.93197818489,-6.25488672587 3.32290854098,-17.3964031599 l7.23221287321,12.5097734517 1.36825650343,4.88663022245 l2.34558239364,4.49569986636 4.30023443119,0.195465210184 l2.1501172156,-1.36825650343 1.95465203755,-4.30023443119 l0.195465210184,-10.9460520274 -8.2095385063,-19.9374517601 l-14.8553555883,-2.73651300685 1.36825650343,-0.977326018777 l6.84128200288,-0.390930420367 -14.4644257464,0.781860840734 l-30.297107482,0.0 -24.433150598,1.56372168147 l-7.81860815022,1.75918685951 0.390930420367,1.36825650343 l8.40500394147,1.36825650343 23.260360044,1.17279119682 l50.6254901125,0.0 12.3143080166,2.1501172156 l-1.56372168147,4.49569986636 -5.4730260137,6.0594212907 l-16.2236126059,8.01407358538 101.05551479,56.4894449395 l9.57779500973,0.0 0.0,-1.95465203755 l-6.45035164679,-2.34558239364 -72.126663297,-10.1641902867 l-72.5175941673,-11.7279127396 -75.0586365965,-8.60046886239 l-23.8467542925,-8.99139973272 0.0,-2.1501172156 l7.42767779413,-2.93197818489 29.5152457414,-7.23221287321 l51.6028131743,-8.60046886239 159.108683211,-24.6286160332 l-9.57779500973,-0.977326018777 -28.5379206225,-0.390930420367 l-40.6567611469,0.0 -44.5660657363,2.54104757168 l-26.9741991982,5.4730260137 -8.60046886239,3.12744336294 l0.195465210184,3.71383889706 5.08209514336,4.69116478728 l11.3369818692,5.4730260137 18.3737303358,6.64581708196 l37.3338528631,10.7505865922 -10.9460520274,10.7505865922 l-22.8694291736,30.6880383524 -3.12744336294,5.66849093462 l-0.781860840734,2.93197818489 0.390930420367,-2.34558239364 " fill="none" stroke="black" stroke-width="1" /></svg>