<?xml version="1.0" encoding="utf-8" ?>
<svg baseProfile="full" height="300" version="1.1" width="300" xmlns="http://www.w3.org/2000/svg" xmlns:ev="http://www.w3.org/2001/xml-events" xmlns:xlink="http://www.w3.org/1999/xlink"><defs /><rect fill="none" height="300" width="300" x="0" y="0" /><path d="M151.77556406,275.0 m0.0,-84.5170467163 m0.710227282349,-4.26136346052 l-7.10227258992,0.710227282349 -14.2045451798,7.10227258992 l-19.1761362731,24.1477273663 78.1250012919,2.84090912939 l-3.55113629496,-2.13068173026 m-34.801135784,-38.3522725461 l-4.26136346052,-17.7556819419 -14.2045451798,-2.84090912939 l-14.2045451798,-24.8579535976 -17.7556819419,-24.8579535976 l0.710227282349,-3.55113629496 17.7556819419,-12.0738636831 l14.2045451798,-4.26136346052 33.3806833214,1.4204545647 l24.8579535976,4.97159109323 21.306818704,9.94318218645 l4.26136346052,10.653409352 -1.4204545647,10.653409352 l-9.23295408661,9.23295408661 -22.0170449353,9.23295408661 l-52.5568195945,13.4943180143 m-17.7556819419,-65.3409104432 l-17.0454538421,-39.062500646 -15.624999511,-24.8579535976 l17.7556819419,-5.68181825879 22.7272730352,61.7897736811 " fill="none" stroke="black" stroke-width="1" /></svg>