<?xml version="1.0" encoding="utf-8" ?>
<svg baseProfile="full" height="300" version="1.1" width="300" xmlns="http://www.w3.org/2000/svg" xmlns:ev="http://www.w3.org/2001/xml-events" xmlns:xlink="http://www.w3.org/1999/xlink"><defs /><rect fill="none" height="300" width="300" x="0" y="0" /><path d="M92.6274985279,125.886915758 m-2.217294956,3.32594225171 l-2.77161860385,17.738359648 -4.98891355986,59.8669627183 l0.0,27.7161867677 4.434589912,8.31485617616 l5.54323720771,3.32594225171 28.2705111448,-1.66297112585 l10.5321507676,-2.77161860385 4.98891355986,-5.54323720771 l2.77161860385,-7.20620815126 0.0,-7.76053252831 l-2.77161860385,-8.86917982401 -14.9667406796,-9.97782711971 l-10.5321507676,-2.217294956 -8.31485617616,1.108647478 l14.4124163025,-37.1396895104 6.09756085556,-22.7272732079 l0.554323739001,-20.5099786165 -1.66297112585,-18.8470069437 m46.5631922531,58.7583139642 l5.54323720771,4.434589912 3.32594225171,17.184035271 l-1.108647478,12.7494460882 11.6407980633,77.051000906 m0.554323739001,2.77161860385 l-5.54323720771,-24.3902434222 -1.66297112585,-31.0421301132 l4.98891355986,-20.5099786165 17.738359648,-49.3348112215 l5.54323720771,-24.9445677993 -0.554323739001,-39.3569841018 l-26.0532165534,-15.5210650566 -19.9556542394,6.65188450341 l-18.8470069437,17.184035271 -12.7494460882,22.7272732079 l-3.88026626415,25.4988921763 3.88026626415,27.1618623907 l17.184035271,29.9334813591 25.4988921763,26.6075380136 m-14.9667406796,-78.1596438266 l7.20620815126,1.108647478 34.922394919,-22.7272732079 l34.368070542,-33.8137461649 -11.0864744154,-28.2705111448 l-44.3458976617,13.3037690068 -55.9866979125,42.1286030703 l-50.9977843526,54.3237247814 -8.86917982401,27.1618623907 l23.2815961265,-24.3902434222 45.4545464158,-54.3237247814 l43.7915732846,-57.6496652101 3.88026626415,-30.4878057362 l-36.5853651334,-8.86917982401 -50.9977843526,12.1951217111 l-24.3902434222,21.0643015351 9.97782711971,9.42350347186 l35.476719296,-0.554323739001 44.9002220387,-4.98891355986 l-6.65188450341,11.0864744154 -54.8780491584,57.0953466666 l35.476719296,-23.8359205036 8.31485617616,23.8359205036 l-30.4878057362,38.2483382645 53.2150760273,-65.4102006552 l26.0532165534,-41.0199572329 -14.4124163025,29.3791569821 " fill="none" stroke="black" stroke-width="1" /></svg>