<?xml version="1.0" encoding="utf-8" ?>
<svg baseProfile="full" height="300" version="1.1" width="300" xmlns="http://www.w3.org/2000/svg" xmlns:ev="http://www.w3.org/2001/xml-events" xmlns:xlink="http://www.w3.org/1999/xlink"><defs /><rect fill="none" height="300" width="300" x="0" y="0" /><path d="M270.145631495,175.70608673 m-1.10326561552,0.0 l0.441306260721,-2.64783741919 m-70.1676926246,-3.30979699169 m0.22065313036,0.0 m0.0,0.0 l1.3239187096,-0.661959354799 m0.0,0.0 l3.30979699169,-1.98587813696 3.53045008577,-1.10326561552 l7.72285916351,-0.22065313036 m14.783759335,6.17828779522 l0.0,0.0 m0.0,0.0 l-14.5631059507,48.9849955931 14.5631059507,-48.7643422087 l-13.2391879668,48.3230354401 13.2391879668,-48.3230354401 l-10.5913496768,47.4404219027 10.5913496768,-47.4404219027 l-7.72285916351,46.7784617497 7.72285916351,-46.7784617497 l-16.9902908563,25.3751090118 m3.97175627392,-0.882612521441 l8.82612492415,21.8446595066 -1.3239187096,-23.6098842592 l1.76522504288,23.6098842592 -0.661959354799,-24.0511910279 l0.882612521441,24.0511910279 0.22065313036,-24.4924977965 l0.0,24.4924977965 4.85436865023,-24.4924977965 m0.0,0.0 l-4.85436865023,24.2718444122 11.6946154374,-23.1685774905 m35.7458064653,-3.53045008577 l-20.741394907,21.6240061222 m20.741394907,-21.6240061222 l-19.6381279853,21.8446595066 m19.6381279853,-21.8446595066 l-16.9902908563,23.6098842592 16.769637472,-22.5066196596 l-15.8870250957,23.6098842592 15.6663717113,-21.6240061222 l-13.2391879668,24.7131511809 13.6804935744,-19.8587813696 l0.661959354799,3.30979699169 -14.5631059507,16.3283318644 m-164.165932181,-103.927623275 l0.0,-0.882612521441 -2.42718432512,0.661959354799 l-5.51632822273,4.192409368 -18.3142100013,17.2109442407 m-45.0132393192,43.9099723975 l3.75110317984,-5.73698102654 5.29567483839,-5.73698102654 l20.741394907,-18.3142100013 39.9382161236,-31.1120900384 l12.3565755904,-7.06090017153 1.10326561552,-0.441306260721 l-0.661959354799,2.20653123104 -11.2533098298,10.3706974535 l-30.2294788231,24.4924977965 -26.0370691648,22.5066196596 l12.3565755904,-7.94351254784 26.0370691648,-18.755515609 l22.9479241062,-14.5631059507 25.1544556275,-14.1218003431 l27.3609871488,-13.2391879668 41.7034385541,-15.0044127194 l13.45984019,-3.75110317984 26.0370691648,-5.07502203457 m34.201235097,140.335385249 l1.10326561552,-2.86849051327 " fill="none" stroke="black" stroke-width="1" /></svg>