<?xml version="1.0" encoding="utf-8" ?>
<svg baseProfile="full" height="300" version="1.1" width="300" xmlns="http://www.w3.org/2000/svg" xmlns:ev="http://www.w3.org/2001/xml-events" xmlns:xlink="http://www.w3.org/1999/xlink"><defs /><rect fill="none" height="300" width="300" x="0" y="0" /><path d="M89.5833313213,169.58333368 m-11.6666668,51.249996984 l-4.99999966565,14.5833324038 -37.9166660039,10.8333325176 m33.3333318352,-9.58333328629 l2.0833332397,0.0 2.49999983283,2.0833332397 l8.33333295879,20.4166658039 2.0833332397,3.33333329314 l2.91666670001,0.833333323285 m-8.33333295879,-27.4999984352 l70.8333306978,30.4166662314 m-62.4999966428,-99.9999998904 l-19.5833337138,-1.66666664657 -25.4166649214,-13.3333331726 l-4.99999966565,-4.58333307253 -1.66666664657,-14.5833324038 l-9.16666614505,-14.5833324038 -0.416666661642,-5.41666625878 l7.08333317941,-14.9999995451 15.8333327313,-45.8333329177 m42.5000001727,114.583332294 l7.91666636566,1.66666664657 17.4999991038,-0.833333323285 l14.5833324038,-6.24999999315 6.24999999315,-8.74999955192 l5.83333340002,-13.7499992176 4.58333307253,-21.6666650351 l3.33333329314,-41.2499987489 2.0833332397,-2.49999983283 m-104.583329674,-25.8333320626 l22.4999993176,-0.416666661642 17.4999991038,-4.1666664794 l14.9999995451,-6.66666658628 13.7499992176,-1.66666664657 l47.4999970978,0.833333323285 23.7499985489,6.24999999315 l16.2499998726,11.6666668 12.9166660313,5.83333340002 l19.5833337138,4.1666664794 m-86.2499929993,9.16666614505 l7.08333317941,7.08333317941 13.3333331726,3.33333329314 l13.7499992176,5.83333340002 2.91666670001,5.83333340002 l9.16666614505,8.33333295879 78.3333348552,4.99999966565 l-2.49999983283,-10.4166664725 -6.24999999315,-9.99999933131 l-11.6666668,-13.7499992176 -9.58333328629,-8.33333295879 l-10.8333325176,-3.33333329314 " fill="none" stroke="black" stroke-width="1" /></svg>