<?xml version="1.0" encoding="utf-8" ?>
<svg baseProfile="full" height="300" version="1.1" width="300" xmlns="http://www.w3.org/2000/svg" xmlns:ev="http://www.w3.org/2001/xml-events" xmlns:xlink="http://www.w3.org/1999/xlink"><defs /><rect fill="none" height="300" width="300" x="0" y="0" /><path d="M181.366175555,136.524157016 m-1.39405202956,94.7955447337 l-1.85873614129,10.2230483186 8.82899644188,16.2639403957 l6.50557664732,17.1933095361 m-8.82899644188,-148.698886413 l1.39405202956,9.7583643597 5.57620811822,16.7286249659 l18.5873608016,39.0334574388 -21.3754657776,18.1226774539 l-10.6877328888,5.57620811822 -12.5464687245,5.57620811822 l-23.2342016133,5.57620811822 m13.0111532946,-105.018585717 l32.9925653617,6.97026060623 18.5873608016,-4.18215624148 l7.89962852405,-3.25278832366 m-59.014871951,2.78810405911 l-20.9107812074,-12.0817841543 -43.2156161254,-34.8513011973 l58.0855028106,10.2230483186 -19.9814132896,-5.57620811822 l-10.6877328888,-9.29368040079 35.3159857675,-13.4758366423 l-1.39405202956,-2.3234201002 -67.8438690041,-21.3754657776 l13.9405212125,-6.04089207713 52.0446131785,-0.929368070643 l-21.8401503478,-3.25278832366 32.9925653617,9.29368040079 l11.1524162364,6.97026060623 " fill="none" stroke="black" stroke-width="1" /></svg>