<?xml version="1.0" encoding="utf-8" ?>
<svg baseProfile="full" height="300" version="1.1" width="300" xmlns="http://www.w3.org/2000/svg" xmlns:ev="http://www.w3.org/2001/xml-events" xmlns:xlink="http://www.w3.org/1999/xlink"><defs /><rect fill="none" height="300" width="300" x="0" y="0" /><path d="M235.195530527,25.0 m13.9664802186,1.39664806779 l2.79329613557,3.49162005464 -1.39664806779,10.4748606232 l2.79329613557,3.49162005464 12.5698323804,4.88826835208 l2.09497198685,3.49162005464 -13.9664802186,6.98324010928 l-10.4748606232,17.4581007325 -8.37988794741,6.28491619021 l-20.9497212465,11.8715084614 -34.916201465,8.37988794741 l-6.98324010928,11.1731845423 -4.88826835208,32.1229057887 l-13.2681562995,22.3463690846 -39.8044679799,10.4748606232 l-37.7094971413,2.09497198685 -43.2960884938,11.1731845423 l7.68156402834,62.8491619021 3.49162005464,2.09497198685 l32.1229057887,1.39664806779 m-23.7430169227,-70.5307277677 l1.39664806779,6.98324010928 11.8715084614,-2.79329613557 l13.9664802186,1.39664806779 0.698324033893,6.98324010928 l-13.9664802186,16.7597758948 6.28491619021,12.5698323804 m-31.4245809511,27.2346374367 l0.698324033893,17.4581007325 m21.6480442469,-55.1675960365 l-9.77653670416,13.9664802186 m-22.3463690846,-36.3128474659 " fill="none" stroke="black" stroke-width="1" /></svg>