<?xml version="1.0" encoding="utf-8" ?>
<svg baseProfile="full" height="300" version="1.1" width="300" xmlns="http://www.w3.org/2000/svg" xmlns:ev="http://www.w3.org/2001/xml-events" xmlns:xlink="http://www.w3.org/1999/xlink"><defs /><rect fill="none" height="300" width="300" x="0" y="0" /><path d="M125.885823707,125.762794311 m-10.5807088551,-0.492125998907 l-8.85826781848,2.46062991361 -7.87401598251,3.19881879059 l-11.3188980558,8.3661419005 -10.3346455724,14.2716535637 m49.7047261324,-27.8051172794 l3.19881879059,-8.12007861782 2.21456695462,-15.5019686823 l0.984251997814,-2.46062991361 3.44488207327,-1.23031495681 l6.64370086386,-0.246062999454 0.7381889579,2.46062991361 l-0.492125998907,1.4763779158 1.23031495681,0.492125998907 l21.1614177102,1.4763779158 -1.23031495681,0.984251997814 l-7.13582678185,0.984251997814 -10.8267714904,0.0 l-2.46062991361,1.23031495681 -6.15157494588,12.3031498918 l-5.9055116632,8.12007861782 -3.69094503226,11.3188980558 l-4.18307095025,4.92125982723 -5.41338574521,3.93700799126 l-7.13582678185,2.46062991361 -0.984251997814,1.23031495681 l-7.87401598251,3.19881879059 -1.23031495681,1.23031495681 l-4.92125982723,17.4704723543 -10.3346455724,28.051180562 l5.65944902789,0.246062999454 4.67519686823,-0.7381889579 l-16.9783470837,-0.492125998907 -12.0570866091,1.23031495681 l34.4488181432,-2.9527558316 -35.4330712739,2.21456695462 l27.5590565862,-3.19881879059 3.44488207327,0.0 l-5.9055116632,1.72244103664 -11.0728347731,2.21456695462 l43.3070859617,-5.16732278622 -35.9251978393,2.70669287261 l15.5019686823,-0.492125998907 38.3858280766,-3.44488207327 l89.0748047502,-10.0885829371 28.2972438447,-1.23031495681 l15.748031965,-2.21456695462 -17.2244090716,0.984251997814 l-102.608264582,11.0728347731 -49.4586628497,1.4763779158 l-45.7677187885,0.0 -20.9153544276,1.23031495681 l-14.025590281,0.0 " fill="none" stroke="black" stroke-width="1" /></svg>