<?xml version="1.0" encoding="utf-8" ?>
<svg baseProfile="full" height="300" version="1.1" width="300" xmlns="http://www.w3.org/2000/svg" xmlns:ev="http://www.w3.org/2001/xml-events" xmlns:xlink="http://www.w3.org/1999/xlink"><defs /><rect fill="none" height="300" width="300" x="0" y="0" /><path d="M169.599301858,122.270615658 m5.2264809793,0.290360059711 l1.45180025081,0.871080131388 -7.25900144502,-4.35540094341 l-1.74216026278,-8.13008186288 -3.19396051358,-4.64576095537 l-7.54936107503,-1.16144023884 -3.48432052555,1.16144023884 l-1.16144023884,1.45180025081 -0.580720119421,6.38792102717 l1.16144023884,4.06504093144 1.74216026278,16.8408829858 l0.0,16.2601637258 -1.16144023884,8.42044149289 l-4.64576095537,13.3565628422 -1.45180025081,1.16144023884 l-9.00116151682,1.16144023884 -18.0023230336,-13.3565628422 l-3.77468053752,-1.45180025081 -0.290360059711,1.74216026278 l6.67828142109,17.7119626397 30.1974443001,9.00116151682 l13.9372821022,5.80720100324 3.48432052555,0.0 m-5.2264809793,-30.1974443001 l13.6469232361,-4.06504093144 12.4854824243,-5.2264809793 l35.4239252794,-18.5830438215 18.5830438215,-8.13008186288 l25.5516841087,-14.2276424961 4.35540094341,-3.48432052555 l-1.45180025081,-1.45180025081 -46.4576080259,0.580720119421 l-16.8408829858,4.06504093144 -44.4250883241,13.0662024483 l-11.3240423765,3.77468053752 -13.6469232361,6.38792102717 l22.357724359,-3.77468053752 20.6155635233,-2.03252046572 l74.041814892,-11.6144020065 -42.6829290162,6.67828142109 l-40.9407666527,4.35540094341 -18.8734042154,3.48432052555 l-51.6840890052,7.25900144502 -20.3252031294,4.06504093144 l160.859474894,0.0 -2.03252046572,2.61324048965 l-10.1626015647,4.35540094341 -24.0998851947,6.9686410511 l-18.8734042154,4.35540094341 -18.2926834276,5.80720100324 l-53.4262513687,10.7433223525 -28.1649245983,4.06504093144 l51.9744493991,-7.83972146896 34.5528471533,-2.32288047769 l42.3925686223,0.0 -18.5830438215,0.0 l-19.4541234754,-2.03252046572 -70.8478505589,-10.7433223525 l-47.3286892077,-6.0975610152 -19.7444838694,-3.77468053752 l-16.2601637258,-5.51684099127 -0.871080131388,-1.45180025081 l13.0662024483,-5.2264809793 29.0360057801,-5.51684099127 l54.0069721566,-6.38792102717 38.6178865569,0.0 l-72.5900129224,-0.580720119421 139.372830189,0.290360059711 l-40.0696885266,3.48432052555 -40.0696885266,4.93612096734 l-35.7142856734,6.38792102717 -15.9698033318,4.35540094341 l-22.938443619,8.13008186288 -2.03252046572,1.74216026278 l33.9721263655,0.0 " fill="none" stroke="black" stroke-width="1" /></svg>