<?xml version="1.0" encoding="utf-8" ?>
<svg baseProfile="full" height="300" version="1.1" width="300" xmlns="http://www.w3.org/2000/svg" xmlns:ev="http://www.w3.org/2001/xml-events" xmlns:xlink="http://www.w3.org/1999/xlink"><defs /><rect fill="none" height="300" width="300" x="0" y="0" /><path d="M143.024131751,144.532427829 m1.69683256754,-6.59879309776 l0.754147821575,-7.54147796774 2.45098026511,-7.54147796774 l4.33635000506,-1.88536949193 3.0165912863,-0.188536955394 l2.26244334072,1.31975871876 4.90196053022,4.90196053022 l-1.88536949193,0.942684745967 -7.73001514014,0.188536955394 l-1.69683256754,8.67270001012 -2.45098026511,8.29562566531 l-0.56561083518,0.942684745967 -2.82805436191,1.69683256754 l-4.71342385384,1.69683256754 0.188536955394,17.1568628478 l-0.56561083518,6.41025642139 2.26244334072,0.188536955394 l7.16440411895,2.63951743752 -2.07390641633,1.69683256754 l-3.58220205948,0.942684745967 -9.99245823285,0.754147821575 l-6.22171924898,-1.69683256754 -0.377073910788,-0.942684745967 l1.13122167036,-5.65610872382 0.56561083518,-11.3122174476 l0.0,-3.20512821069 -1.13122167036,-0.56561083518 l-6.22171924898,1.88536949193 -26.5837095635,4.33635000506 l-22.4358977229,3.0165912863 -47.6998490636,4.52488668144 l0.0,1.31975871876 0.377073910788,-0.942684745967 l5.65610872382,-2.26244334072 16.779788503,-4.52488668144 l28.6576164758,-1.69683256754 40.5354444486,0.188536955394 l48.2654605808,2.82805436191 54.4871793338,4.14781283265 l55.2413280234,2.45098026511 -9.99245823285,-3.58220205948 l-66.1764681501,-11.8778279728 -99.7360451561,-9.04977336288 l-39.781295759,-4.52488668144 -31.108597733,-2.26244334072 l-3.20512821069,-0.754147821575 0.0,0.942684745967 " fill="none" stroke="black" stroke-width="1" /></svg>