<?xml version="1.0" encoding="utf-8" ?>
<svg baseProfile="full" height="300" version="1.1" width="300" xmlns="http://www.w3.org/2000/svg" xmlns:ev="http://www.w3.org/2001/xml-events" xmlns:xlink="http://www.w3.org/1999/xlink"><defs /><rect fill="none" height="300" width="300" x="0" y="0" /><path d="M131.23827427,54.0806715534 m0.0,0.0 m-1.87617262698,-2.3452157066 l29.5497183351,23.452157683 10.7879926823,10.7879926823 l-0.469043156745,16.8855533343 -8.91181974678,28.1425897132 m-31.4258906535,-84.8968103682 l-0.93808631349,10.3189489856 -12.1951213041,59.5684803668 m-3.75234525396,-6.09756065206 l16.4165096377,8.91181974678 16.8855533343,13.1332086974 l26.7354586233,16.4165096377 23.9212013796,17.8236394936 m-2.3452157066,-21.1069416679 l-8.44277666716,31.8949343502 -13.60225116,62.8517813071 m2.3452157066,-15.4784234785 l-7.0356474283,1.40712939311 -61.4446502172,-1.40712939311 m71.2945579742,-90.5253248556 l-13.1332086974,29.5497183351 -9.84990590602,35.6472789871 l-4.6904314132,30.0187620317 -7.50469050792,13.60225116 m34.7091940619,-64.7279560936 l-27.6735460166,68.0112570339 -3.28330217434,6.09756065206 l-5.15947449282,4.6904314132 m32.8330192754,-66.1350822474 l-7.0356474283,26.2664173947 -7.97373358754,19.2307693494 l-9.3808628264,17.8236394936 -17.8236394936,21.1069416679 m45.4971842761,-82.0825531245 l-5.62851757244,14.5403373192 -9.3808628264,17.8236394936 l-23.452157683,33.7711066686 m26.7354586233,-97.5609704329 l-8.44277666716,-6.56660434868 -9.3808628264,-12.1951213041 l45.9662279728,30.4878057283 6.09756065206,1.87617262698 l-6.56660434868,-13.60225116 -22.0450290612,-18.2926831902 l-7.50469050792,-3.28330217434 -3.75234525396,0.0 l5.15947449282,12.1951213041 18.2926831902,19.2307693494 l3.75234525396,2.81425878622 -7.50469050792,-17.3545970309 l-14.0712948566,-17.8236394936 -30.0187620317,-23.452157683 l11.7260788415,16.8855533343 40.806754714,48.7804852165 l-11.2570351449,-7.0356474283 -39.8686673207,-42.2138833358 l15.0093810158,10.7879926823 23.9212013796,20.6378979713 l3.75234525396,3.75234525396 -11.7260788415,-8.91181974678 l-42.2138833358,-36.1163226837 10.7879926823,10.7879926823 m7.0356474283,-1.87617262698 l-10.3189489856,-14.0712948566 -11.2570351449,-11.2570351449 l-15.0093810158,-11.7260788415 -2.3452157066,-3.75234525396 l0.0,-6.09756065206 20.1688555087,-47.8424027593 l4.22138833358,-6.09756065206 6.56660434868,-5.15947449282 l2.3452157066,3.75234525396 0.0,7.97373358754 l-12.6641650007,44.0900581223 -1.87617262698,17.3545970309 l2.81425878622,-10.3189489856 0.0,-20.6378979713 l-5.15947449282,-11.7260788415 m6.09756065206,116.79174225 l0.0,0.0 m-24.8592863049,-15.0093810158 l2.3452157066,0.93808631349 1.87617262698,-3.28330217434 l-0.93808631349,-2.81425878622 -0.93808631349,0.93808631349 m34.7091940619,6.56660434868 l-4.6904314132,12.6641650007 " fill="none" stroke="black" stroke-width="1" /></svg>