<?xml version="1.0" encoding="utf-8" ?>
<svg baseProfile="full" height="300" version="1.1" width="300" xmlns="http://www.w3.org/2000/svg" xmlns:ev="http://www.w3.org/2001/xml-events" xmlns:xlink="http://www.w3.org/1999/xlink"><defs /><rect fill="none" height="300" width="300" x="0" y="0" /><path d="M158.702534477,34.4936652708 m0.0,87.8164578723 m-5.53797487703,-97.3101231432 l34.8101254197,21.3607593479 8.70253135493,11.8670888735 l0.0,3.16455699825 -4.7468352372,4.7468352372 l-6.32911399651,1.58227849913 -11.0759497541,-0.791139249563 l3.95569611773,22.1518995081 -1.58227849913,21.3607593479 m-25.316455986,15.0316453514 l-52.2151881296,-14.240506232 -13.4493671125,0.0 l-6.32911399651,31.6455689418 71.2025311598,9.4936704744 m37.9746818976,-48.2594914915 l3.95569611773,59.3354412455 -39.556962218,0.791139249563 m0.0,4.7468352372 l0.0,19.778481109 15.0316453514,86.2341775519 m-32.436709102,-132.911388723 l2.3734176186,103.639236099 11.8670888735,7.12025311598 l14.240506232,0.0 m-1.58227849913,-218.35443444 l37.9746818976,14.240506232 19.778481109,13.4493671125 l-4.7468352372,0.0 " fill="none" stroke="black" stroke-width="1" /></svg>