<?xml version="1.0" encoding="utf-8" ?>
<svg baseProfile="full" height="300" version="1.1" width="300" xmlns="http://www.w3.org/2000/svg" xmlns:ev="http://www.w3.org/2001/xml-events" xmlns:xlink="http://www.w3.org/1999/xlink"><defs /><rect fill="none" height="300" width="300" x="0" y="0" /><path d="M195.731707136,169.817070626 m-9.14634145221,11.6869921527 m0.0,0.0 l-13.2113815035,93.4959372214 m22.3577229557,-105.182921353 l21.3414629429,24.8983736562 18.2926829044,24.8983736562 l10.6707314714,16.7682922168 6.60569075174,13.7195121783 l1.52439018633,8.13008143939 -13.7195121783,7.11382142657 l-6.09756074533,1.01626017992 m-31.5040644079,-94.0040678962 l-7.62195143298,-23.3739843053 -13.2113815035,-25.9146350058 l-10.162601465,-17.2764228916 -18.8008135792,-25.406504331 l-5.08130073251,-4.5731707261 -5.08130073251,-2.03252035985 l-40.6504058601,0.508130089962 m0.0,0.0 l0.508130089962,-21.3414629429 -2.54065036626,-27.9471550315 l-6.09756074533,44.7154459114 -2.54065036626,-0.508130089962 l-14.7357721911,-11.6869921527 -1.52439018633,6.09756074533 l-22.8658536305,5.58943073892 -6.60569075174,5.08130073251 " fill="none" stroke="black" stroke-width="1" /></svg>