<?xml version="1.0" encoding="utf-8" ?>
<svg baseProfile="full" height="300" version="1.1" width="300" xmlns="http://www.w3.org/2000/svg" xmlns:ev="http://www.w3.org/2001/xml-events" xmlns:xlink="http://www.w3.org/1999/xlink"><defs /><rect fill="none" height="300" width="300" x="0" y="0" /><path d="M92.20430106,249.654381027 m-5.76036890134,-42.2427049397 l0.384024589213,-76.4208923062 -1.92012288292,-1.15207370449 l-41.090629846,0.384024589213 -9.98463868807,-4.60829481797 l4.2242702919,-26.4976968451 53.7634397114,-8.06451605774 l21.1213524698,-6.1443934274 11.9047618236,-0.768049178426 l14.5929340112,-3.45622123977 26.8817198557,-3.0721967137 l4.2242702919,-1.53609835685 20.3533024074,-13.4408599278 l27.6497699182,-30.3379410955 33.0261142934,-7.2964670056 l13.0568359069,5.37634437527 1.53609835685,8.06451605774 l-1.53609835685,3.0721967137 -4.2242702919,2.30414740898 l-23.4254986159,0.0 -7.2964670056,1.53609835685 l-68.3563747329,63.7480824408 -13.8248849591,0.768049178426 l-4.60829481797,2.30414740898 -9.60061466717,8.06451605774 l-16.1290321155,0.0 -24.1935486784,7.68049153167 l-0.384024589213,44.1628260545 27.2657448869,79.8771095046 l18.0491562613,6.1443934274 7.2964670056,0.384024589213 l7.2964670056,2.30414740898 -3.45622123977,2.30414740898 l-3.0721967137,0.384024589213 -25.7296467827,0.384024589213 l-9.98463868807,1.92012288292 14.5929340112,1.92012288292 l13.4408599278,6.1443934274 -48.3870973568,1.15207370449 l0.768049178426,-14.2089099903 -1.15207370449,-13.0568359069 l1.92012288292,-6.1443934274 " fill="none" stroke="black" stroke-width="1" /></svg>