<?xml version="1.0" encoding="utf-8" ?>
<svg baseProfile="full" height="300" version="1.1" width="300" xmlns="http://www.w3.org/2000/svg" xmlns:ev="http://www.w3.org/2001/xml-events" xmlns:xlink="http://www.w3.org/1999/xlink"><defs /><rect fill="none" height="300" width="300" x="0" y="0" /><path d="M88.8248848474,124.193549688 m-8.52534584431,19.3548381983 l-17.2811054909,33.8709683626 -3.22580656845,11.9815662151 l0.0,1.38248842109 1.38248842109,0.921658997908 l70.9677420812,0.230414749477 47.0046096511,3.45622128004 l44.4700444895,2.30414741899 41.7050691628,3.91705070322 l2.07373270741,-8.98617526749 4.83870954958,-36.8663587039 l0.921658997908,-25.3456225182 1.84331799582,-18.6635943666 l-0.230414749477,-5.52995368435 -2.99539155376,-1.1520737095 l-14.5161289518,-0.230414749477 -32.2580632597,1.61290328423 m-185.253458428,-0.230414749477 l-2.30414741899,15.2073727835 -3.91705070322,13.3640550908 l-5.06912426117,24.1935474448 m14.5161289518,-55.5299554954 l14.2857139371,-0.460829498954 4.3778801264,1.1520737095 m-36.6359436892,17.7419355203 l0.691244210543,1.1520737095 2.99539155376,1.61290328423 l7.37327198326,2.53456213058 26.4976951669,4.14746541481 l14.9769589812,1.61290328423 m20.0460832424,-34.5622109818 l0.0,3.91705070322 -3.45622128004,11.9815662151 l-5.76036869904,35.0230410112 1.61290328423,0.691244210543 l17.972350535,1.1520737095 m26.4976951669,-38.2488487921 l0.230414749477,4.83870954958 -3.68663599163,15.6682028129 l-7.83410140644,26.9585251963 m15.6682028129,-45.3917045482 l3.45622128004,18.8940093813 2.30414741899,25.1152075036 m-17.5115205056,-15.6682028129 l8.7557602528,-2.99539155376 6.45161313691,-0.230414749477 m26.4976951669,-23.9631324301 l3.22580656845,28.801842889 0.230414749477,13.8248851202 m-3.68663599163,-44.7004595042 l5.52995368435,9.21658967598 2.30414741899,6.6820275454 l5.99078310753,12.4423962444 7.60368639175,12.2119812297 l2.30414741899,-17.7419355203 3.45622128004,-16.1290316299 l1.38248842109,-3.68663599163 m14.5161289518,1.1520737095 l0.921658997908,1.1520737095 0.921658997908,8.06451581493 l1.61290328423,23.2718898108 -0.460829498954,4.60829483799 l-1.84331799582,2.30414741899 m11.9815662151,-43.7787994454 l1.1520737095,6.91244256009 2.30414741899,30.1843305523 l2.07373270741,14.2857139371 m-2.53456213058,-44.9308745188 l15.6682028129,36.8663587039 4.14746541481,7.83410140644 l0.921658997908,-2.07373270741 0.230414749477,-30.6451605817 m14.5161289518,-7.60368639175 l2.30414741899,9.67741909916 1.38248842109,11.0599073687 l2.76497684217,34.7926259965 " fill="none" stroke="black" stroke-width="1" /></svg>