<?xml version="1.0" encoding="utf-8" ?>
<svg baseProfile="full" height="300" version="1.1" width="300" xmlns="http://www.w3.org/2000/svg" xmlns:ev="http://www.w3.org/2001/xml-events" xmlns:xlink="http://www.w3.org/1999/xlink"><defs /><rect fill="none" height="300" width="300" x="0" y="0" /><path d="M191.8937329,269.550408836 m-4.76839257659,-32.6975465363 l0.681198923511,-8.85558544559 -2.72479569404,-29.2915533749 l3.40599450554,-81.7438717174 -55.8583115039,10.8991827762 l-32.6975465363,1.36239784702 -6.13079019959,2.04359665852 l-8.17438663409,-4.08719331704 -6.81198901109,-18.3923705988 l-14.9863756452,-19.7547682218 -31.3351507055,29.9727512903 l-7.49318782259,2.72479569404 3.40599450554,-17.7111708912 l0.681198923511,-27.9291557519 61.9891017035,-2.72479569404 l6.13079019959,2.72479569404 2.04359665852,4.76839257659 l7.49318782259,6.13079019959 8.85558544559,3.40599450554 l8.85558544559,-4.08719331704 8.85558544559,-10.2179839647 l52.4523165503,-14.9863756452 15.6675753528,0.681198923511 l14.3051768337,3.40599450554 17.0299729758,7.49318782259 l-4.76839257659,-29.9727512903 2.72479569404,-12.2615803992 l29.2915533749,1.36239784702 14.9863756452,-1.36239784702 l-5.44959138809,17.7111708912 -0.681198923511,29.2915533749 l-23.1607631753,0.681198923511 3.40599450554,1.36239784702 l2.04359665852,8.85558544559 -3.40599450554,42.9155313971 l-32.0163504131,-9.53678515317 2.72479569404,33.3787462439 l-0.681198923511,17.0299729758 -29.9727512903,11.5803815877 m0.0,79.7002725946 l5.44959138809,2.04359665852 47.0027260583,2.04359665852 m-51.0899171351,-2.72479569404 l13.6239780222,2.04359665852 31.3351507055,-4.76839257659 m-46.3215263507,-6.81198901109 l21.1171658448,3.40599450554 30.6539509979,0.0 " fill="none" stroke="black" stroke-width="1" /></svg>