<?xml version="1.0" encoding="utf-8" ?>
<svg baseProfile="full" height="300" version="1.1" width="300" xmlns="http://www.w3.org/2000/svg" xmlns:ev="http://www.w3.org/2001/xml-events" xmlns:xlink="http://www.w3.org/1999/xlink"><defs /><rect fill="none" height="300" width="300" x="0" y="0" /><path d="M132.177258482,149.759150389 m0.0,7.22543374257 l6.26204211222,36.1271668119 6.74373824422,71.7726374918 m16.3776494785,-118.015410403 l19.2678224687,33.2369950891 6.26204211222,16.3776494785 l-26.9749529769,11.5606932277 -18.786127604,10.597302231 m-67.919073505,-52.9865136897 l27.9383427063,-6.74373824422 42.3892089241,-18.786127604 l17.8227366072,-15.8959533465 27.9383427063,-29.8651246997 l19.7495186007,-23.6030825875 3.85356462046,-2.40847780858 m-135.83814701,96.3391148779 l-23.1213864555,3.85356462046 -11.078998363,-0.481695577558 l-13.0057803564,-13.4874764884 -2.40847780858,-5.78034661387 m1.44508665347,-51.0597291617 l37.5722552079,-6.74373824422 34.6820809505,-11.5606932277 l24.5664748515,-12.0423893597 13.4874764884,-11.078998363 l19.2678224687,-12.0423893597 37.5722552079,-14.4508674851 l15.4142584818,-4.33526011881 13.9691713531,-0.481695577558 l26.4932568449,14.9325623498 6.74373824422,6.74373824422 l9.63391123433,5.78034661387 0.963391155115,2.89017330693 m-58.7668571354,12.0423893597 l26.0115607129,-10.1156067327 10.1156067327,0.481695577558 l25.5298645809,9.15221573597 -9.63391123433,-26.0115607129 m-44.3159934521,-13.0057803564 l4.33526011881,3.85356462046 1.92678231023,-2.89017330693 l-7.22543374257,-0.481695577558 -2.40847780858,1.44508665347 l-1.44508665347,6.74373824422 0.963391155115,2.40847780858 l8.18882473927,1.44508665347 2.40847780858,-1.92678231023 l-0.481695577558,-3.85356462046 -5.78034661387,-1.44508665347 l-9.15221573597,0.481695577558 m-57.3217738086,95.3757226139 l13.9691713531,18.786127604 m-118.497106535,22.1579967261 l-6.26204211222,37.0905590759 -2.40847780858,67.919073505 m17.3410404752,-107.899811907 l17.8227366072,75.6262065478 8.67052023762,19.7495186007 l3.85356462046,2.40847780858 " fill="none" stroke="black" stroke-width="1" /></svg>