<?xml version="1.0" encoding="utf-8" ?>
<svg baseProfile="full" height="300" version="1.1" width="300" xmlns="http://www.w3.org/2000/svg" xmlns:ev="http://www.w3.org/2001/xml-events" xmlns:xlink="http://www.w3.org/1999/xlink"><defs /><rect fill="none" height="300" width="300" x="0" y="0" /><path d="M114.152706829,233.566108979 m-7.91433890638,41.433891021 m9.77653600793,-39.1061440317 l15.363127925,35.3817498286 m-14.4320293742,-37.2439469302 l-2.32774668314,-6.98324035561 0.465549351937,-22.811917556 l-4.18994409088,-59.590317048 m49.348229315,0.0 l-10.7076351711,10.7076351711 -34.4506525027,26.5363117591 m-2.79329595852,1.39664797926 l-22.811917556,19.5530720159 -3.7243948155,13.0353821605 l-22.811917556,6.05214119243 m32.1229055133,-18.6219734651 l-5.58659191704,0.931098703875 -15.363127925,7.91433890638 l-6.98324035561,0.931098703875 -7.91433890638,-0.465549351937 m96.8342590789,-65.176905903 l0.0,-3.25884554011 5.12104264166,-10.7076351711 l0.0,-3.25884554011 m6.51769108023,-8.37988818177 l-9.77653600793,6.98324035561 -67.0391054542,15.363127925 l-9.31098673254,4.18994409088 -19.0875233529,16.2942264757 l-4.65549336627,0.0 -0.931098703875,-1.86219740775 l6.05214119243,-17.2253262513 4.18994409088,-30.2607084118 l8.37988818177,-15.363127925 23.7430173316,-21.88082023 l9.77653600793,-6.51769108023 12.1042823849,-6.05214119243 l23.2774674438,-6.98324035561 28.8640587484,-13.0353821605 l13.5009308234,-7.91433890638 9.77653600793,-12.5698322727 l15.8286778128,13.5009308234 1.86219740775,5.12104264166 l-0.465549351937,3.7243948155 -0.931098703875,1.86219740775 l-17.2253262513,9.77653600793 -15.8286778128,36.7783970424 l-12.1042823849,21.4152703422 m37.2439469302,-78.6778379512 l-0.931098703875,-1.39664797926 m-65.6424557908,23.7430173316 l-15.8286778128,18.1564248021 -38.6405965936,33.5195527271 l-15.363127925,15.8286778128 m149.906887496,-88.4543708971 l9.31098673254,1.86219740775 15.363127925,8.37988818177 l-5.58659191704,1.86219740775 -31.1918057377,-2.79329595852 " fill="none" stroke="black" stroke-width="1" /></svg>