<?xml version="1.0" encoding="utf-8" ?>
<svg baseProfile="full" height="300" version="1.1" width="300" xmlns="http://www.w3.org/2000/svg" xmlns:ev="http://www.w3.org/2001/xml-events" xmlns:xlink="http://www.w3.org/1999/xlink"><defs /><rect fill="none" height="300" width="300" x="0" y="0" /><path d="M148.322149941,111.689038418 m-4.47427295534,-1.67785226629 l2.79642050512,25.7270696771 6.71140906515,25.7270696771 l5.03355698279,36.3534684059 10.626397993,27.9642057869 l3.35570453257,17.3378070582 -46.9798641918,31.8791932434 l3.91498892788,-3.91498892788 38.5906045157,-24.049216859 l0.0,-8.94854591067 m-25.1677849139,-131.991051079 l-9.50782993813,1.67785226629 -18.4563751131,13.9821028935 l-31.3199114231,33.5570475329 -6.71140906515,11.1856820205 l49.7762850647,12.8635348386 69.9105129959,10.626397993 m-14.5413861852,-14.5413861852 l14.5413861852,5.03355698279 21.2527959861,11.1856820205 l7.2706930926,6.71140906515 -42.5055919721,23.4899320959 l30.7606266599,-8.94854591067 11.1856820205,-6.1521250377 l-1.11856823883,-5.59284101024 -33.5570475329,-21.2527959861 l2.23713647767,2.79642050512 -35.7941836427,3.35570453257 l17.8970918213,0.0 10.626397993,-2.23713647767 l-18.4563751131,-1.67785226629 m-20.1342279312,-85.5704687074 l-4.47427295534,-2.23713647767 -8.38926188322,-57.6062658634 m1.11856823883,-11.7449660479 l-9.50782993813,2.23713647767 -24.049216859,11.1856820205 l-14.5413861852,11.7449660479 22.371364041,-13.9821028935 l24.049216859,-7.82997785577 -57.6062658634,20.6935126943 l4.47427295534,-3.35570453257 34.6756141164,-11.1856820205 " fill="none" stroke="black" stroke-width="1" /></svg>