<?xml version="1.0" encoding="utf-8" ?>
<svg baseProfile="full" height="300" version="1.1" width="300" xmlns="http://www.w3.org/2000/svg" xmlns:ev="http://www.w3.org/2001/xml-events" xmlns:xlink="http://www.w3.org/1999/xlink"><defs /><rect fill="none" height="300" width="300" x="0" y="0" /><path d="M119.178083409,134.099810237 m3.66927601641,30.5772989569 l0.97847359365,110.322890806 m89.5303338994,-143.835619071 l0.0,125.978476027 -1.22309195184,8.07240678561 m-98.8258334414,-126.712332067 l5.13698616555,-3.18003897825 12.2309198402,-1.46771031003 l64.8238729648,1.46771031003 13.4540119529,-0.244618398413 l5.62622320371,-0.97847359365 2.20156554549,-3.9138943746 l0.97847359365,-3.9138943746 0.0,-8.07240678561 l-2.44618390368,-2.69080226187 -60.6653605538,-18.1017617239 l-15.6555774984,-3.9138943746 -18.1017617239,0.0 l-7.58317006923,0.733855155014 -1.46771031003,7.09393335285 l-0.489236796825,13.9432480257 2.20156554549,16.3894322512 l2.44618390368,7.58317006923 m2.20156554549,-50.636004972 l-6.60469663647,-55.7729921029 -1.46771031003,-6.60469663647 l-5.13698616555,-1.22309195184 -2.93542062006,1.46771031003 l-16.6340509312,9.78473561472 -2.69080226187,2.44618390368 l-0.489236796825,1.71232882911 0.0,5.13698616555 l0.733855155014,1.46771031003 25.1956957203,-1.71232882911 l4.40313109098,-1.22309195184 -1.71232882911,8.80626218196 l0.0,16.8786696111 4.64774944917,31.3111549968 m2.93542062006,-13.9432480257 l0.244618398413,9.78473561472 1.22309195184,8.80626218196 " fill="none" stroke="black" stroke-width="1" /></svg>