<?xml version="1.0" encoding="utf-8" ?>
<svg baseProfile="full" height="300" version="1.1" width="300" xmlns="http://www.w3.org/2000/svg" xmlns:ev="http://www.w3.org/2001/xml-events" xmlns:xlink="http://www.w3.org/1999/xlink"><defs /><rect fill="none" height="300" width="300" x="0" y="0" /><path d="M87.9032250413,152.688172718 m-2.41935484498,11.8279567056 l-4.30107535855,12.6344092636 m24.1935484498,-22.3118286435 l9.40860186061,13.9784940313 18.279570097,24.1935484498 l5.37634402138,5.37634402138 1.34408600535,0.806451585526 l-1.07526883964,-1.88172051357 m-64.7849486048,-14.2473115506 l0.26881720991,1.88172051357 m5.64516118709,-9.67741937993 l-1.88172051357,8.06451638569 m19.8924737985,-58.8709688376 l-2.9569891764,0.806451585526 4.30107535855,17.2043014342 l6.72043020354,17.2043014342 9.40860186061,12.6344092636 l19.0860212405,19.0860212405 36.2903226748,30.6451604268 l5.9139783528,0.806451585526 79.3010776747,0.0 l15.0537641086,-1.88172051357 4.03225819285,-1.34408600535 l0.0,-5.37634402138 -1.34408600535,-3.49462350781 l-46.5053770933,-73.1182803882 -10.4838712307,-11.5591398935 l-14.7849465892,-20.1612899034 -8.60215071711,-5.64516118709 l-6.72043020354,-2.41935484498 -22.8494622677,-3.76344102714 l-23.118279787,-1.07526883964 -14.5161290699,1.07526883964 l-12.9032253684,2.68817201069 -18.0107525777,-1.34408600535 l-27.9569880625,4.30107535855 -18.8172037212,5.37634402138 l-8.06451638569,4.83870968997 -3.49462350781,4.83870968997 l-9.94623689926,26.0752682562 -1.88172051357,10.7526880428 l0.806451585526,5.64516118709 4.83870968997,7.25806453495 l15.0537641086,12.3655917442 7.52688205428,3.76344102714 l17.2043014342,5.37634402138 40.8602148454,4.83870968997 l56.720428683,-2.9569891764 8.06451638569,-1.88172051357 l31.7204305041,-2.41935484498 25.2688185271,-4.30107535855 l13.4408604071,-3.49462350781 2.41935484498,-2.41935484498 l-3.22580634211,-33.0645152718 -0.806451585526,-1.34408600535 l-22.5806447484,-9.40860186061 -25.8064507368,-12.9032253684 l-32.2580655428,-12.0967742249 m-10.7526880428,-10.7526880428 l-10.7526880428,-16.6666663956 0.0,3.22580634211 l3.22580634211,6.72043020354 2.15053767928,7.52688205428 l2.41935484498,2.15053767928 1.88172051357,-0.537634419819 " fill="none" stroke="black" stroke-width="1" /></svg>