<?xml version="1.0" encoding="utf-8" ?>
<svg baseProfile="full" height="300" version="1.1" width="300" xmlns="http://www.w3.org/2000/svg" xmlns:ev="http://www.w3.org/2001/xml-events" xmlns:xlink="http://www.w3.org/1999/xlink"><defs /><rect fill="none" height="300" width="300" x="0" y="0" /><path d="M179.290424992,275.0 m-1.65016502904,-75.0825084143 l-8.25082487385,-42.9042880416 13.2013202323,4.95049481578 l24.7524757069,-3.30033005808 8.25082487385,-4.12541243693 l28.8778865158,-33.0032994954 -23.9273922427,21.4521440208 l-41.2541254546,10.7260720104 -57.7557730316,-9.90098963155 l-18.1518145054,-9.0759072527 m77.5577588069,-46.2046218984 l-39.6039585262,10.7260720104 -4.12541243693,2.47524740789 l-1.65016502904,8.25082487385 11.5511554746,9.0759072527 l16.5016497477,6.60066011616 16.5016497477,0.825082514519 l16.5016497477,-3.30033005808 m-94.8844855066,6.60066011616 l0.825082514519,-28.8778865158 -2.47524740789,-22.277227485 l4.12541243693,-20.6270627273 -24.7524757069,8.25082487385 l-15.6765673689,9.90098963155 -0.825082514519,-4.12541243693 l8.25082487385,-12.3762378535 18.1518145054,-13.2013202323 l-33.8283829596,-9.0759072527 32.1782182019,-12.3762378535 " fill="none" stroke="black" stroke-width="1" /></svg>