<?xml version="1.0" encoding="utf-8" ?>
<svg baseProfile="full" height="300" version="1.1" width="300" xmlns="http://www.w3.org/2000/svg" xmlns:ev="http://www.w3.org/2001/xml-events" xmlns:xlink="http://www.w3.org/1999/xlink"><defs /><rect fill="none" height="300" width="300" x="0" y="0" /><path d="M118.6807091,179.656317149 m8.31485608218,29.37915665 l2.77161857253,-2.21729493094 6.09756078664,-11.6407979317 l8.31485608218,-19.9556540139 11.6407979317,-13.8580932272 l-1.10864746547,112.52771893 9.42350336535,-0.554323732735 l3.8802662203,1.66297110706 m-9.42350336535,-109.756097076 l-28.8248322793,-3.8802662203 -26.0532162589,-6.65188442823 l-11.6407979317,-8.86917972377 -3.8802662203,-6.09756078664 l0.554323732735,-3.32594221411 6.09756078664,-7.76053244059 l42.1286025941,-21.6186256678 26.0532162589,0.554323732735 l5.54323714506,-1.66297110706 2.21729493094,-33.2594243287 l-2.21729493094,-5.54323714506 -2.21729493094,-42.1286025941 l16.6297121644,6.65188442823 m14.4124161396,1.66297110706 l-14.9667405104,-4.98891350347 18.8470067307,1.10864746547 l10.5321506485,15.5210648812 -13.3037688565,6.65188442823 l-14.4124161396,-4.43458986188 -1.66297110706,3.32594221411 l-1.66297110706,32.1507755872 -2.77161857253,8.86917972377 l-1.66297110706,18.2926823599 10.5321506485,15.5210648812 " fill="none" stroke="black" stroke-width="1" /></svg>