<?xml version="1.0" encoding="utf-8" ?>
<svg baseProfile="full" height="300" version="1.1" width="300" xmlns="http://www.w3.org/2000/svg" xmlns:ev="http://www.w3.org/2001/xml-events" xmlns:xlink="http://www.w3.org/1999/xlink"><defs /><rect fill="none" height="300" width="300" x="0" y="0" /><path d="M260.79545577,38.2575765975 m-14.2045461765,-13.2575765975 l-46.4015155998,1.89393946944 -12.3106057728,24.6212115455 l5.68181809688,19.8863636505 7.57575787775,13.2575765975 l1.89393946944,17.9924244925 -17.9924244925,22.7272723875 l-15.1515157555,0.946969734718 -52.0833355652,-14.2045461765 l-27.4621215283,3.78787893887 -21.7803040542,24.6212115455 l13.2575765975,42.6136372838 51.1363647405,27.4621215283 l36.9318198097,-6.62878829874 53.0303063899,-41.6666664591 l0.0,-42.6136372838 -6.62878829874,-20.8333332295 l3.78787893887,-17.0454549135 -13.2575765975,-17.9924244925 l4.73484851788,-14.2045461765 44.5075789332,8.52272745675 l4.73484851788,9.46969703576 7.57575787775,0.946969734718 l-0.946969734718,-16.0984853345 -17.0454549135,-17.9924244925 m-138.257580957,160.984850854 l1.89393946944,79.5454546021 m71.96969797,-71.96969797 l1.89393946944,60.606063022 m-112.689398587,-125.946970202 l-43.5606081085,-43.5606081085 27.4621215283,54.9242430565 " fill="none" stroke="black" stroke-width="1" /></svg>