<?xml version="1.0" encoding="utf-8" ?>
<svg baseProfile="full" height="300" version="1.1" width="300" xmlns="http://www.w3.org/2000/svg" xmlns:ev="http://www.w3.org/2001/xml-events" xmlns:xlink="http://www.w3.org/1999/xlink"><defs /><rect fill="none" height="300" width="300" x="0" y="0" /><path d="M103.492934657,154.709576956 m-7.45682870912,-21.1930922837 l-8.63422255279,-19.2307686946 -7.45682870912,-15.3061225491 l-16.8759810073,-25.1177394618 -3.53218204728,-10.5965461418 l-2.35478794548,-1.17739397274 -15.3061225491,-1.17739397274 l-16.0910517782,4.70957589095 -0.784929358181,3.92464666184 l13.34379896,-1.56985871636 47.0957620072,4.3171112764 l15.3061225491,60.0470948038 1.56985871636,12.9513338292 l20.408162022,-7.84929332368 15.3061225491,-3.92464666184 l8.63422255279,-5.10204050551 7.45682870912,-2.74725281817 l20.408162022,-2.35478794548 40.4238630434,6.27943486545 l40.0313979126,12.5588697309 20.0156989563,7.84929332368 l-12.1664046001,12.9513338292 -19.6232338255,8.24175793824 l-34.5368902112,7.06436409457 -14.9136574182,1.56985871636 l-30.2197799673,8.63422255279 -34.5368902112,-0.784929358181 l-4.3171112764,-8.24175793824 -18.8383035638,-11.381475371 l-7.84929332368,-3.92464666184 -16.0910517782,-2.35478794548 l3.92464666184,0.392464679091 5.49450563634,-4.70957589095 l4.70957589095,-9.02668768362 m42.3861845674,38.0690722585 l-3.92464666184,14.9136574182 -1.56985871636,32.1821035564 l-1.56985871636,5.49450563634 m25.1177394618,-49.0580835311 l-2.74725281817,25.5102045926 5.8869702509,-5.10204050551 " fill="none" stroke="black" stroke-width="1" /></svg>