<?xml version="1.0" encoding="utf-8" ?>
<svg baseProfile="full" height="300" version="1.1" width="300" xmlns="http://www.w3.org/2000/svg" xmlns:ev="http://www.w3.org/2001/xml-events" xmlns:xlink="http://www.w3.org/1999/xlink"><defs /><rect fill="none" height="300" width="300" x="0" y="0" /><path d="M149.460046997,93.5745170542 m-5.39956803149,-18.3585317332 l-4.85961129937,-50.2159853209 87.4730033886,0.539956820906 m-32.9373642108,68.0345581912 l-8.6393091345,-15.1187913405 -8.6393091345,-31.8574521671 l46.9762435076,-1.07991364181 1.61987037393,-13.4989204339 l-0.539956820906,-4.31965456725 -1.61987037393,-1.07991364181 m-75.0539992602,61.5550745646 l11.8790495272,26.9978408677 1.61987037393,11.8790495272 l-50.2159853209,-1.61987037393 -22.1382295684,2.69978401574 l-12.4190069696,6.47948149573 -3.77969783513,4.31965456725 l0.0,7.01943822785 12.9589629915,23.2181430326 l16.7386608266,14.0388764557 18.3585317332,7.55939567026 l10.799136063,1.61987037393 24.8380139393,0.539956820906 l12.9589629915,-1.61987037393 21.598272126,-11.8790495272 l10.2591793309,-10.799136063 9.17926586662,-12.4190069696 l15.1187913405,-32.9373642108 1.61987037393,-18.3585317332 l-2.69978401574,-4.31965456725 -29.6976252386,-22.1382295684 m-62.095032007,95.5723536602 l-3.23974074786,2.15982728362 -5.39956803149,83.6933069741 m38.876890395,-74.5140418178 l-4.31965456725,5.39956803149 -15.6587473623,84.2332644165 " fill="none" stroke="black" stroke-width="1" /></svg>