<?xml version="1.0" encoding="utf-8" ?>
<svg baseProfile="full" height="300" version="1.1" width="300" xmlns="http://www.w3.org/2000/svg" xmlns:ev="http://www.w3.org/2001/xml-events" xmlns:xlink="http://www.w3.org/1999/xlink"><defs /><rect fill="none" height="300" width="300" x="0" y="0" /><path d="M166.535874251,128.139011893 m-11.7713000831,-2.80269051352 l-21.3004480502,1.12107624228 -12.8923768784,5.60538102704 l-11.2107620541,1.68161427124 -49.3273524481,39.7982052183 l-15.1345289942,38.1165918687 11.2107620541,12.331838112 l3.92376694014,1.68161427124 12.331838112,0.0 l39.2376664519,-20.1793719923 31.950671338,-1.12107624228 l40.9192827509,-11.7713000831 -13.45291417,-29.7085192221 m-0.560538121138,-24.663676224 l-5.04484299808,-8.40807190925 -3.92376694014,-38.6771306351 l2.80269051352,-14.0134529363 3.92376694014,-47.0852003322 l21.3004480502,-3.36322854249 m-0.560538121138,-1.68161427124 l37.5560531024,1.12107624228 26.9058283399,7.84753388028 l1.68161427124,7.28699511395 -2.80269051352,1.68161427124 l-17.9372198764,2.24215248455 -17.9372198764,11.7713000831 l-1.68161427124,-6.16591905601 m-48.7668166312,81.2780267355 l4.48430496911,8.96860993822 2.24215248455,19.618833226 m-80.1569492029,51.5695075134 l7.84753388028,15.6950677606 6.16591905601,21.8609868166 l2.80269051352,3.92376694014 2.24215248455,21.3004480502 m6.72645708498,-70.0672632067 l7.28699511395,14.5739902279 -2.80269051352,1.68161427124 l-2.80269051352,-1.68161427124 " fill="none" stroke="black" stroke-width="1" /></svg>