<?xml version="1.0" encoding="utf-8" ?>
<svg baseProfile="full" height="300" version="1.1" width="300" xmlns="http://www.w3.org/2000/svg" xmlns:ev="http://www.w3.org/2001/xml-events" xmlns:xlink="http://www.w3.org/1999/xlink"><defs /><rect fill="none" height="300" width="300" x="0" y="0" /><path d="M32.1301219001,77.5846706387 m5.34759349511,-5.79322623752 l31.6399288145,-23.1729049501 9.358288763,-12.4777191323 l6.23885956614,-11.1408203188 1.78253126274,3.11942978307 l7.57575779337,56.1497337504 3.56506252548,47.682709886 l0.0,80.6595386864 m0.0,-91.8003625225 l38.3244217092,-4.9019607527 45.4545479326,-2.67379674756 l63.7254909576,-0.89126563137 4.4563280103,0.89126563137 l13.3689846171,8.46702327818 2.67379674756,2.22816400515 l2.22816400515,4.9019607527 -4.01069526789,6.68449230855 l-9.358288763,9.358288763 -45.008914604,17.379679885 l-20.0534763394,6.68449230855 -43.6720146181,11.586452475 l-14.2602501019,5.79322623752 -21.8360073091,-1.33689837378 m-12.0320858037,27.183600218 l0.89126563137,19.1622108546 12.0320858037,-7.57575779337 l25.4010692483,-11.586452475 m-37.8787883806,19.1622108546 l-0.445632815685,43.6720146181 m45.4545479326,-63.7254909576 l-3.56506252548,-15.1515155867 " fill="none" stroke="black" stroke-width="1" /></svg>