<?xml version="1.0" encoding="utf-8" ?>
<svg baseProfile="full" height="300" version="1.1" width="300" xmlns="http://www.w3.org/2000/svg" xmlns:ev="http://www.w3.org/2001/xml-events" xmlns:xlink="http://www.w3.org/1999/xlink"><defs /><rect fill="none" height="300" width="300" x="0" y="0" /><path d="M193.198529854,275.0 m-0.367647065936,-100.367648456 l5.51470604949,-26.4705882637 1.83823526923,-16.5441176648 l-47.4264719289,19.1176462196 -25.7352932855,17.2794126431 l-8.08823508787,11.7647061099 -1.83823526923,9.5588231098 l52.2058815493,8.82352909883 84.9264693898,1.10294113735 m-54.779410104,-70.9558802798 l-19.1176462196,-6.61764706594 -10.294118088,-8.45588257697 l-9.5588231098,-24.2647052636 -2.20588227471,-9.19117658794 l-1.47058826374,-18.0147056868 -5.88235305497,-12.5000001209 l-5.88235305497,-1.83823526923 -22.7941172417,0.0 l-7.72058808238,1.83823526923 -2.573529522,4.04411754393 l-1.47058826374,6.25000006045 -3.67647053845,4.04411754393 l-3.67647053845,6.98529407142 -5.14705904401,4.41176454942 l-27.5735287966,2.573529522 -7.72058808238,0.0 l-5.51470604949,-2.20588227471 -5.14705904401,-17.2794126431 l22.4264697526,-2.94117652749 23.897059709,-7.3529410769 l-22.4264697526,1.10294113735 -30.1470592858,5.14705904401 l18.0147056868,-24.6323527527 38.6029399283,-4.41176454942 " fill="none" stroke="black" stroke-width="1" /></svg>