<?xml version="1.0" encoding="utf-8" ?>
<svg baseProfile="full" height="300" version="1.1" width="300" xmlns="http://www.w3.org/2000/svg" xmlns:ev="http://www.w3.org/2001/xml-events" xmlns:xlink="http://www.w3.org/1999/xlink"><defs /><rect fill="none" height="300" width="300" x="0" y="0" /><path d="M150.797446933,123.086127545 m3.18979271451,91.3078124534 l0.0,60.6060600021 m-29.1068584543,-157.496011935 l60.2073354538,-17.1451356438 m-67.7830934786,7.97448152401 l55.4226492668,19.5374797863 10.7655502148,-0.797448178626 l8.77192957151,-5.58213738151 7.17703347651,-11.9617228105 l4.38596478576,-23.5247210728 2.79106869076,-31.1004790976 l10.3668256665,13.5566189055 3.98724076201,2.79106869076 l1.59489635725,-1.993620381 0.0,-10.3668256665 l-41.8660272143,-33.8915467393 1.19617220238,14.354066953 m2.39234440475,0.398724089313 l5.58213738151,44.2583745038 0.0,9.17065411977 l-2.39234440475,0.797448178626 -32.2966506443,-1.19617220238 l-10.7655502148,-1.59489635725 -20.733651333,-6.37958542901 l-33.0940997408,-12.759170858 -5.18341283326,-1.59489635725 l-7.97448152401,-0.398724089313 50.6379588838,37.8787859278 " fill="none" stroke="black" stroke-width="1" /></svg>