<?xml version="1.0" encoding="utf-8" ?>
<svg baseProfile="full" height="300" version="1.1" width="300" xmlns="http://www.w3.org/2000/svg" xmlns:ev="http://www.w3.org/2001/xml-events" xmlns:xlink="http://www.w3.org/1999/xlink"><defs /><rect fill="none" height="300" width="300" x="0" y="0" /><path d="M148.729479913,154.788889813 m-0.390930419563,1.95465203353 l-0.977326016767,0.586395597204 -6.05942127824,0.977326016767 l-15.2462864272,0.0 -9.186865149,-3.1274433565 l-0.977326016767,2.15011721117 1.95465203353,6.64581706829 l2.34558238881,4.30023442235 5.27756056768,5.27756056768 l8.6004688447,5.66849092296 7.23221285834,2.93197817886 l9.57779499002,0.586395597204 4.69116477763,-1.75918685589 l2.54104756646,-1.95465203353 3.51837371178,-7.62314321362 l2.15011721117,-7.62314321362 -0.195465209781,-6.45035163352 l-1.95465203353,-14.2689602819 -0.195465209781,-22.6739636918 l0.390930419563,-1.17279119441 2.15011721117,-0.586395597204 l5.27756056768,1.56372167825 0.781860839126,0.977326016767 l0.781860839126,2.15011721117 0.0,5.27756056768 l-1.36825650061,3.90930406707 0.977326016767,0.195465209781 l3.71383888943,-4.49569985711 2.73651300122,-5.66849092296 l0.781860839126,-2.34558238881 0.0,-2.93197817886 l-0.781860839126,-2.34558238881 -2.15011721117,-3.1274433565 l-2.15011721117,-2.15011721117 -3.1274433565,-1.75918685589 l-6.25488671301,-0.390930419563 -8.6004688447,2.34558238881 l-0.977326016767,0.586395597204 -2.54104756646,5.86395635773 l-1.17279119441,5.27756056768 -1.17279119441,10.3596557006 l-2.54104756646,12.900703267 -0.390930419563,11.3369818459 m19.15558998,-37.1383873515 l0.390930419563,-2.34558238881 5.86395635773,-6.8412819888 m-26.5832682732,72.5175940181 l0.0,13.0961687018 -0.781860839126,5.27756056768 l-0.195465209781,11.7279127155 1.36825650061,4.69116477763 l1.17279119441,-4.30023442235 m-4.49569985711,-28.342455129 l-4.69116477763,5.47302600244 -8.99139971423,14.6598901229 l-9.38232955526,21.8921040098 37.3338527863,-30.1016419849 l119.038309896,-83.8545727785 0.0,-15.832681703 l-56.2939793886,24.4331505477 -57.4667719972,17.3964031242 l-67.2400313934,7.42767777885 -66.2627042196,-3.32290853414 l-2.73651300122,-29.5152456806 0.0,-41.2431573676 l0.0,80.3362031808 9.96872585956,59.8123531003 l49.6481628345,16.0281471378 92.650509115,0.0 l97.7326021909,-2.73651300122 0.0,-42.8068808457 l-34.0109465663,1.56372167825 " fill="none" stroke="black" stroke-width="1" /></svg>