<?xml version="1.0" encoding="utf-8" ?>
<svg baseProfile="full" height="300" version="1.1" width="300" xmlns="http://www.w3.org/2000/svg" xmlns:ev="http://www.w3.org/2001/xml-events" xmlns:xlink="http://www.w3.org/1999/xlink"><defs /><rect fill="none" height="300" width="300" x="0" y="0" /><path d="M110.507246073,275.0 m-7.24637661819,-2.8985507426 l26.0869562068,-47.8260851081 7.24637661819,-27.5362313397 l-27.5362313397,-28.2608698595 0.0,-15.9420283694 l36.2318840442,-90.5797082039 13.7681156699,-24.6376810738 m-89.1304311645,215.21738108 l2.17391293779,-109.420286839 -2.17391293779,-38.4057957904 l-5.79710148519,-19.5652171551 11.5942029704,-21.7391308078 l28.9855064727,-38.4057957904 m75.3623145414,192.028978952 l-2.8985507426,-5.79710148519 0.0,-18.8405786353 l-3.62318830909,-15.2173908029 48.5507236278,-11.5942029704 m-39.8550728299,37.6811572707 l32.6086952584,-6.52173905169 m18.1159420221,-5.79710148519 l-2.17391293779,6.52173905169 5.0724639187,18.1159420221 m-31.8840567387,33.3333337782 l-7.24637661819,-5.0724639187 -3.62318830909,0.0 l-18.1159420221,1.4492753713 -8.69565175118,4.34782587559 l3.62318830909,2.8985507426 30.4347816057,-2.17391293779 l9.42028931767,5.0724639187 " fill="none" stroke="black" stroke-width="1" /></svg>