<?xml version="1.0" encoding="utf-8" ?>
<svg baseProfile="full" height="300" version="1.1" width="300" xmlns="http://www.w3.org/2000/svg" xmlns:ev="http://www.w3.org/2001/xml-events" xmlns:xlink="http://www.w3.org/1999/xlink"><defs /><rect fill="none" height="300" width="300" x="0" y="0" /><path d="M153.45423095,37.5215866009 m-9.93091589076,13.3851469123 l-27.6338527159,23.316062803 -11.2262519558,11.2262519558 m56.9948186705,-51.3816949645 l-9.0673575674,44.9050078233 -8.20379981202,58.2901570075 l-0.86355789737,65.6303984962 -13.3851469123,9.93091589076 l-9.49913644508,42.7461151389 -2.15889467243,19.4300523358 m31.519863183,-76.856650452 l13.3851469123,14.6804841133 3.88601046717,6.47668430128 l11.2262519558,24.1796216944 3.45423158948,14.2487046676 m-36.2694302696,-121.32987883 l8.63557868971,-11.6580314015 17.7029368251,-17.7029368251 l19.4300523358,-16.8393790697 10.7944736461,-6.47668430128 l0.0,7.77202093434 -7.77202093434,14.2487046676 l-22.8842833573,31.0880837373 -20.7253884009,21.5889472923 l-13.8169263579,8.20379981202 m9.0673575674,-41.4507768018 l-6.47668430128,-4.31778934486 -30.6563042917,-6.90846317896 l-10.3626942005,-0.86355789737 -0.86355789737,5.18134710023 l7.34024205665,15.112262423 12.0898108472,15.112262423 l14.2487046676,11.2262519558 14.6804841133,8.63557868971 m3.45423158948,-129.965458655 l3.0224527118,-0.86355789737 13.3851469123,-12.5215891569 m-9.93091589076,12.0898108472 l5.18134710023,-3.0224527118 3.45423158948,-3.88601046717 m4.31778934486,-3.88601046717 l-5.61312597792,15.9758213143 m6.47668430128,-13.8169263579 l-1.29533677506,9.49913644508 m-5.61312597792,-3.88601046717 l-3.0224527118,15.9758213143 m-9.49913644508,15.5440418687 l-2.15889467243,13.8169263579 " fill="none" stroke="black" stroke-width="1" /></svg>