<?xml version="1.0" encoding="utf-8" ?>
<svg baseProfile="full" height="300" version="1.1" width="300" xmlns="http://www.w3.org/2000/svg" xmlns:ev="http://www.w3.org/2001/xml-events" xmlns:xlink="http://www.w3.org/1999/xlink"><defs /><rect fill="none" height="300" width="300" x="0" y="0" /><path d="M127.959697599,161.649876532 m0.0,107.052894432 l0.629722924262,3.14861451776 15.743073003,3.14861451776 m-18.2619642859,-1.88916866924 l-14.4836273616,1.88916866924 m19.5214099273,-115.869018893 l25.8186397912,27.707807425 -75.5667517398,-5.03778339409 l-11.3350124296,-3.14861451776 m0.629722924262,0.0 l-1.25944584852,-22.0403012101 m6.92695185624,25.1889161421 l-20.7808555687,1.88916866924 m74.9370280907,-24.5591941498 l59.1939567444,-28.9672547231 -0.629722924262,-15.1133493539 l-71.7884098452,-20.7808555687 -7.55667467695,7.55667467695 l-3.77833733848,13.8539037125 0.629722924262,10.0755667882 l17.0025186444,25.8186397912 m55.4156148499,-47.8589410013 l-1.25944584852,-27.707807425 30.2266987078,-49.1183882995 l3.14861451776,-1.88916866924 15.1133493539,0.0 l17.6322422935,10.0755667882 0.629722924262,3.14861451776 l-31.486146006,3.14861451776 -4.40806057338,6.92695185624 l-13.2241808918,49.1183882995 -9.44584396747,6.92695185624 " fill="none" stroke="black" stroke-width="1" /></svg>