<?xml version="1.0" encoding="utf-8" ?>
<svg baseProfile="full" height="300" version="1.1" width="300" xmlns="http://www.w3.org/2000/svg" xmlns:ev="http://www.w3.org/2001/xml-events" xmlns:xlink="http://www.w3.org/1999/xlink"><defs /><rect fill="none" height="300" width="300" x="0" y="0" /><path d="M131.329113361,98.1012724733 m-5.69620252005,27.8481004691 l0.0,122.784806916 3.16455690933,0.63291140268 m20.2531648858,-150.000001915 l9.49367114428,13.2911389359 1.89873410397,12.6582276373 l-1.26582280536,25.3164552746 -20.2531648858,2.53164561072 l-6.96202511727,4.43037992283 -10.1265824429,0.63291140268 l-6.32911381866,3.16455690933 -20.8860753518,4.43037992283 l-1.89873410397,-7.59493641588 m0.0,0.0 l5.06329122144,12.0253163387 m-21.518987483,-18.9873422886 l15.1898728318,-1.26582280536 10.1265824429,5.06329122144 l4.43037992283,6.96202511727 m37.9746845771,77.215186756 l-31.0126577947,10.1265824429 m2.53164561072,-0.63291140268 l18.9873422886,-6.32911381866 18.9873422886,-15.8227849629 l8.22784771449,-32.911390858 m32.911390858,-103.164557492 l-149.367089784,1.26582280536 -15.1898728318,-1.89873410397 l-5.06329122144,-4.43037992283 1.26582280536,-10.7594937415 l10.1265824429,-8.86075984567 31.6455699259,-12.0253163387 l18.3544301574,-3.16455690933 97.4683549721,2.53164561072 l4.43037992283,2.53164561072 48.734177486,4.43037992283 l36.0759481836,6.96202511727 1.89873410397,4.43037992283 l-1.26582280536,15.1898728318 -13.9240502345,10.1265824429 " fill="none" stroke="black" stroke-width="1" /></svg>