<?xml version="1.0" encoding="utf-8" ?>
<svg baseProfile="full" height="300" version="1.1" width="300" xmlns="http://www.w3.org/2000/svg" xmlns:ev="http://www.w3.org/2001/xml-events" xmlns:xlink="http://www.w3.org/1999/xlink"><defs /><rect fill="none" height="300" width="300" x="0" y="0" /><path d="M45.1818189437,134.909091347 m1.27272730354,3.81818167144 l6.90909073467,37.0909097155 1.45454545559,21.818182073 l2.1818180638,1.0909090319 13.9999998606,2.90909091118 l73.0909090836,14.3636356863 -3.99999982349,-4.54545451882 l-6.90909073467,-5.09090921415 m-1.27272730354,-60.3636370049 l1.0909090319,3.09090906323 -0.727272727795,6.72727282179 l-7.45454543,25.4545441574 -0.909090879846,8.36363642943 l-0.363636363897,8.36363642943 2.36363621585,24.7272725058 l98.9090900234,0.0 9.81818164585,-1.63636360764 m-181.818176926,-89.8181781156 l25.8181809398,8.72727225519 10.0000000371,2.1818180638 l83.0909052938,11.9999994705 8.90909064641,-0.727272727795 l4.90909082292,-1.63636360764 2.90909091118,-3.27272721528 l0.545454515949,-2.72727275913 0.727272727795,-5.99999973523 l-0.727272727795,-7.09090912589 -1.81818175969,-3.63636351939 l-11.4545452535,-8.36363642943 -15.6363634682,-6.36363603934 l-40.9090882776,-13.4545456436 -8.1818180382,-1.99999991174 l-68.5454569565,-13.8181814693 -16.7272728589,-5.27272712703 l-0.727272727795,2.36363621585 9.63636325462,22.909090507 l4.7272724317,4.90909082292 7.99999964698,6.72727282179 l8.36363642943,4.54545451882 6.90909073467,1.45454545559 m80.1818186878,-14.1818182518 l1.99999991174,-0.727272727795 1.63636360764,-11.8181820359 l0.0,-5.99999973523 3.99999982349,-7.45454543 l3.09090906323,-1.45454545559 0.545454515949,-1.81818175969 l1.63636360764,-1.99999991174 7.27272703877,2.72727275913 l3.81818167144,2.90909091118 1.45454545559,2.54545460707 l1.27272730354,6.72727282179 -0.181818181949,3.27272721528 l-7.09090912589,14.1818182518 -12.9090904699,7.63636334288 m19.6363632917,-28.1818181123 l1.81818175969,0.0 3.27272721528,1.0909090319 l100.909092327,41.0909066689 -6.36363603934,0.181818181949 l-15.0909092512,-1.99999991174 -11.090908471,-2.36363621585 l-42.5454537987,-10.0000000371 -65.9999994793,-14.3636356863 l0.0,-1.63636360764 m34.7272706295,-4.90909082292 l-0.909090879846,-0.909090879846 m-5.45454551825,0.363636363897 l-4.90909082292,-1.81818175969 " fill="none" stroke="black" stroke-width="1" /></svg>