<?xml version="1.0" encoding="utf-8" ?>
<svg baseProfile="full" height="300" version="1.1" width="300" xmlns="http://www.w3.org/2000/svg" xmlns:ev="http://www.w3.org/2001/xml-events" xmlns:xlink="http://www.w3.org/1999/xlink"><defs /><rect fill="none" height="300" width="300" x="0" y="0" /><path d="M210.084035623,103.151262949 m0.420168078142,-12.1848739207 l5.04201666135,-31.092438197 0.420168078142,-34.8739508312 m0.0,0.0 l26.4705884393,11.3445379026 -18.4873946092,-7.98319327743 l-8.40336128648,-0.420168078142 m-6.72268925027,68.4873959771 l-16.3865551166,-5.88235323216 -18.4873946092,-4.20168064324 l-52.9411768786,-1.26050416534 -23.5294129287,5.4621846704 l-15.5462190985,6.72268925027 -14.2857145186,9.66386586635 l-11.7647064643,14.2857145186 -1.68067231257,18.0672271528 l15.1260505367,10.5042018845 28.5714290373,10.5042018845 l47.0588258573,10.5042018845 55.4621838275,-4.62184865229 l37.3949577801,-25.2100849649 7.56302526837,-10.5042018845 l0.420168078142,-11.3445379026 -8.40336128648,-6.72268925027 l-29.8319325117,-13.4453785005 m-110.924367655,59.2436964617 l-0.420168078142,68.9075645389 -4.20168064324,47.8991585591 l1.68067231257,-2.94117661608 5.04201666135,0.420168078142 l1.26050416534,-4.20168064324 m29.41176395,-100.420171298 l-0.840336156284,27.7310919138 -13.0252099388,10.0840333227 l-17.6470585911,9.24369730458 " fill="none" stroke="black" stroke-width="1" /></svg>