<?xml version="1.0" encoding="utf-8" ?>
<svg baseProfile="full" height="300" version="1.1" width="300" xmlns="http://www.w3.org/2000/svg" xmlns:ev="http://www.w3.org/2001/xml-events" xmlns:xlink="http://www.w3.org/1999/xlink"><defs /><rect fill="none" height="300" width="300" x="0" y="0" /><path d="M92.0811514691,180.104711622 m3.27225124918,30.7591637224 l15.0523563489,-22.9057583138 m7.1989526621,4.58115200712 l5.23560217087,27.4869103209 10.4712043417,-13.0890049967 m15.7068056517,8.50785298959 l7.1989526621,11.1256545055 20.9424086835,-30.7591637224 m9.81675417799,-5.89005233461 l20.9424086835,41.2303663423 20.2879576588,-24.8691096659 m14.3979053242,4.58115200712 l5.89005233461,34.0314119584 m-35.3403140077,-6.54450249836 l-40.5759153176,36.649216057 -3.27225124918,-3.27225124918 l-4.58115200712,-14.3979053242 -5.89005233461,-26.1780099934 m-5.23560217087,2.61780108543 l-4.58115200712,19.633508356 -7.85340282585,-11.7801046692 m-26.1780099934,0.0 l-3.27225124918,0.0 -7.1989526621,-8.50785298959 l-17.6701570038,-37.9581146626 m6.54450249836,3.27225124918 l16.3612566763,-56.9371737158 7.1989526621,-8.50785298959 l18.3246080285,0.0 7.85340282585,3.27225124918 l-10.4712043417,24.2146603631 -9.81675417799,37.303663638 m-3.92670141292,-73.2984321139 l6.54450249836,-32.068062328 0.0,-35.3403140077 l15.7068056517,-22.9057583138 5.89005233461,-5.23560217087 l11.1256545055,-3.92670141292 13.0890049967,0.0 l12.434554833,3.92670141292 9.81675417799,7.85340282585 l12.434554833,18.9790573313 1.30890054272,20.9424086835 l-1.96335070646,15.0523563489 -7.1989526621,7.85340282585 l-14.3979053242,8.50785298959 -30.7591637224,10.4712043417 l-43.1937159726,10.4712043417 m41.8848173669,-84.4240857585 l3.27225124918,-0.654450271358 m-23.5602093384,19.633508356 l-42.5392683916,-12.434554833 -37.303663638,-5.23560217087 l1.96335070646,4.58115200712 53.0104710115,32.7225133527 l48.4293207262,26.1780099934 88.3507850192,40.5759153176 l-1.30890054272,-3.92670141292 -9.16230401424,-6.54450249836 l-33.3769643773,-17.6701570038 -60.2094253954,-49.0837683072 " fill="none" stroke="black" stroke-width="1" /></svg>