<?xml version="1.0" encoding="utf-8" ?>
<svg baseProfile="full" height="300" version="1.1" width="300" xmlns="http://www.w3.org/2000/svg" xmlns:ev="http://www.w3.org/2001/xml-events" xmlns:xlink="http://www.w3.org/1999/xlink"><defs /><rect fill="none" height="300" width="300" x="0" y="0" /><path d="M173.468056437,250.880051477 m-1.62972614367,-0.325945239453 l-2.60756191562,-3.58539747319 -2.93350710148,-8.14863093272 l-1.30378095781,-18.9048233523 1.62972614367,-3.58539747319 l5.21512383124,-4.56323345953 6.51890457467,-2.60756191562 l2.60756191562,0.0 13.0378091493,5.5410690171 l4.56323345953,5.86701420295 0.651890478905,12.0599740205 l-0.977835664762,2.28161672976 -12.7118643922,6.19295938881 l-3.25945228733,0.651890478905 -1.62972614367,0.0 l-7.17079494638,-4.2372878449 -8.14863093272,-10.4302476625 m13.363754764,-24.7718375552 l-1.30378095781,-12.3859187776 m-7.82268531809,23.7940024264 l0.0,-42.0469362645 -2.60756191562,-6.19295938881 l12.0599740205,66.1668843056 13.363754764,43.3507152929 l14.3415898928,0.0 0.325945239453,-1.95567132952 l-36.1799220616,-96.1538465496 -25.0977831699,-98.1095133771 l1.95567132952,58.6701420295 0.0,9.12646691905 l-1.30378095781,2.93350710148 -1.62972614367,-1.30378095781 l-14.993481122,-24.7718375552 -36.8318098607,-78.2268583261 l12.0599740205,58.0182508003 1.30378095781,-7.82268531809 l0.651890478905,-67.1447211495 -3.25945228733,-3.25945228733 l-9.45241167614,0.0 1.62972614367,6.19295938881 l17.2750969942,50.847457569 8.47457568981,14.993481122 l8.14863093272,7.82268531809 1.95567132952,-0.977835664762 l0.977835664762,-4.56323345953 1.95567132952,-64.2112106179 l2.28161672976,-10.1043020479 -12.7118643922,58.9960876442 " fill="none" stroke="black" stroke-width="1" /></svg>