<?xml version="1.0" encoding="utf-8" ?>
<svg baseProfile="full" height="300" version="1.1" width="300" xmlns="http://www.w3.org/2000/svg" xmlns:ev="http://www.w3.org/2001/xml-events" xmlns:xlink="http://www.w3.org/1999/xlink"><defs /><rect fill="none" height="300" width="300" x="0" y="0" /><path d="M106.296992587,129.79322768 m0.469924826264,26.7857137835 l-4.22932335911,54.5112783012 0.0,16.9172934364 l10.8082710813,32.8947361385 m-14.0977449425,-35.7142858688 l0.939849652528,38.063910232 m-1.87969930506,-37.5939848648 l-2.81954880304,9.3984962162 -7.51879722023,11.7481205793 m18.7969924324,-116.071427219 l2.34962405405,0.469924826264 7.04887247123,6.10902235508 l6.10902235508,2.34962405405 17.8571429344,0.469924826264 l15.0375944405,-2.34962405405 -2.34962405405,95.3947407361 l-3.75939861011,7.04887247123 -22.0864675299,27.2556391506 m25.8458655218,-33.8345868729 l-0.939849652528,29.1353381466 m0.0,-25.3759401546 l0.939849652528,5.16917285709 16.9172934364,32.424813244 m-15.9774439384,-140.037591272 l-0.469924826264,-42.7631589582 5.63909760609,-34.7744376072 l4.22932335911,-7.98872196922 23.9661665258,-0.939849652528 l8.45864671821,3.28947386112 16.4473680693,13.1578954445 l-10.3383457142,4.6992481081 m-94.4548900018,59.2105270275 l7.98872196922,-28.1954898849 11.7481205793,-29.6052635137 l9.86842096519,-35.7142858688 4.22932335911,-5.63909760609 l12.6879700773,-4.6992481081 19.7368419304,0.939849652528 l16.9172934364,3.75939861011 16.4473680693,21.1466167955 l0.939849652528,13.1578954445 -2.81954880304,0.469924826264 l-5.63909760609,-2.81954880304 " fill="none" stroke="black" stroke-width="1" /></svg>