<?xml version="1.0" encoding="utf-8" ?>
<svg baseProfile="full" height="300" version="1.1" width="300" xmlns="http://www.w3.org/2000/svg" xmlns:ev="http://www.w3.org/2001/xml-events" xmlns:xlink="http://www.w3.org/1999/xlink"><defs /><rect fill="none" height="300" width="300" x="0" y="0" /><path d="M116.435184315,57.4074057016 m-27.7777764244,75.2314832719 l-3.47222205305,24.305554752 8.10185209151,-21.9907403037 l12.7314809881,-25.4629619761 13.8888882122,-21.9907403037 l-3.47222205305,2.31481482891 -5.78703688197,6.94444410611 l-4.62962965782,12.7314809881 -4.62962965782,32.407408366 l-8.10185209151,20.8333330796 -1.15740741446,-3.47222205305 l12.7314809881,-18.5185186313 45.1388893541,-45.1388893541 m1.15740741446,-1.15740741446 l1.15740741446,8.10185209151 17.3611114072,33.5648140677 l9.25925931565,23.1481475279 13.8888882122,27.7777764244 l3.47222205305,-1.15740741446 18.5185186313,-15.0462954364 l-9.25925931565,-10.4166665398 -8.10185209151,-21.9907403037 l-11.5740737639,-59.0277790888 -3.47222205305,-5.78703688197 m-67.1296281353,-24.305554752 l1.15740741446,-11.5740737639 4.62962965782,-6.94444410611 l6.94444410611,-5.78703688197 m59.0277790888,170.138890877 l-4.62962965782,16.203704183 2.31481482891,40.5092574125 l4.62962965782,13.8888882122 6.94444410611,9.25925931565 l1.15740741446,-104.166665398 " fill="none" stroke="black" stroke-width="1" /></svg>