<?xml version="1.0" encoding="utf-8" ?>
<svg baseProfile="full" height="300" version="1.1" width="300" xmlns="http://www.w3.org/2000/svg" xmlns:ev="http://www.w3.org/2001/xml-events" xmlns:xlink="http://www.w3.org/1999/xlink"><defs /><rect fill="none" height="300" width="300" x="0" y="0" /><path d="M152.262449795,109.417420985 m17.5339362484,8.48416310887 l33.3710409167,10.180995433 8.20135734949,3.95927616708 l-4.24208155444,0.565610867724 -3.95927616708,-2.82805424562 l-7.07013580005,-7.91855233415 -10.7466062077,-9.33257889893 l-14.7058816308,-10.7466062077 -14.4230773595,-12.4434385319 l-98.6990969294,0.282805433862 -3.11085963298,-0.848416255084 l0.0,36.7647070531 -2.54524885826,20.3619908661 l22.0588239343,0.282805433862 13.5746600813,1.69683251017 l31.1085978178,1.13122173545 12.7262442913,1.69683251017 l-7.63574657477,2.2624434709 -20.0791851067,24.3212670331 l-6.50452502533,9.04977388359 -5.37330310387,9.61538465831 l-1.97963808354,1.69683251017 -10.180995433,1.69683251017 l-13.5746600813,0.848416255084 -3.39366502034,1.41402712281 l0.848416255084,3.11085963298 1.97963808354,1.13122173545 l11.0294119671,3.39366502034 39.5927586946,2.2624434709 l38.1787328739,0.282805433862 -1.97963808354,0.282805433862 l-1.13122173545,-1.97963808354 0.565610867724,-10.180995433 l8.76696812421,-68.1561106303 1.97963808354,-7.91855233415 l1.69683251017,-13.8574658407 -0.282805433862,3.6764704077 l-1.69683251017,1.97963808354 -8.20135734949,5.09049771651 l-20.9276023848,0.565610867724 -10.4638011924,-3.39366502034 l-14.1402716001,-9.04977388359 -11.5950227418,-9.61538465831 l0.565610867724,-1.69683251017 8.48416310887,-1.97963808354 l34.5022609781,0.0 1.97963808354,2.2624434709 l11.5950227418,6.78733004067 14.9886873902,6.22171926595 l5.37330310387,0.565610867724 m-22.0588239343,65.8936645553 l-11.0294119671,3.11085963298 -10.4638011924,1.69683251017 l-9.61538465831,0.282805433862 -48.0769225475,0.0 l-23.4728512431,-2.2624434709 -15.8371046683,-5.65610849123 l-7.07013580005,-4.80769232915 -1.41402712281,-2.2624434709 l-0.282805433862,-3.11085963298 0.848416255084,-11.0294119671 l5.37330310387,-7.91855233415 7.91855233415,-9.04977388359 l12.1606335166,-10.180995433 14.1402716001,-10.180995433 l33.6538466761,-15.5542989089 18.0995477672,-5.93891387859 l34.7850667375,-5.93891387859 45.5316736893,-0.565610867724 l12.1606335166,1.97963808354 m31.6742093366,34.7850667375 l-2.82805424562,3.11085963298 -2.82805424562,6.50452502533 l-0.565610867724,49.208145585 -2.82805424562,15.8371046683 l3.6764704077,-3.39366502034 6.22171926595,-14.4230773595 l17.8167420078,-36.1990955344 14.9886873902,-34.2194581949 " fill="none" stroke="black" stroke-width="1" /></svg>