<?xml version="1.0" encoding="utf-8" ?>
<svg baseProfile="full" height="300" version="1.1" width="300" xmlns="http://www.w3.org/2000/svg" xmlns:ev="http://www.w3.org/2001/xml-events" xmlns:xlink="http://www.w3.org/1999/xlink"><defs /><rect fill="none" height="300" width="300" x="0" y="0" /><path d="M104.937309216,102.58621398 m-3.91849525983,76.0188073191 l3.13479631096,1.56739815548 32.9153599764,-3.91849525983 l55.6426325865,-0.78369907774 m-86.2068988091,-72.8840156473 l6.26959262192,13.3228841927 5.48589367304,22.7272726101 l9.40438841741,107.366773521 m-31.3479620787,-144.200631335 l10.1880873663,0.78369907774 32.9153599764,14.1065831416 l9.40438841741,0.0 35.266457854,-13.3228841927 l32.1316620585,-1.56739815548 -14.1065831416,-11.755486295 l-35.266457854,-18.8087768348 -42.3197494247,-14.8902820905 l-5.48589367304,-11.755486295 0.78369907774,-19.5924768146 m-54.0752367506,2.35109710435 l4.70219420871,30.5642641607 -0.78369907774,28.996866263 l1.56739815548,3.91849525983 12.5391852438,11.755486295 l10.9717873461,4.70219420871 43.1034494045,-3.13479631096 m16.4576799882,-39.968653609 l17.2413789371,-3.91849525983 16.4576799882,-8.62068946854 l10.1880873663,5.48589367304 -3.91849525983,20.3761747326 l-7.83699051967,17.2413789371 m21.1598747124,-20.3761747326 l-15.6739810393,15.6739810393 -39.1849536293,21.1598747124 m-32.1316620585,124.608148335 l-47.8056410359,7.83699051967 m43.1034494045,-12.5391852438 l-30.5642641607,43.8871493843 m35.266457854,-40.7523494652 l18.8087768348,32.1316620585 m46.2382452,-94.0438903597 l48.5893410157,-39.1849536293 m-47.0219451798,42.3197494247 l14.8902820905,0.78369907774 " fill="none" stroke="black" stroke-width="1" /></svg>