<?xml version="1.0" encoding="utf-8" ?>
<svg baseProfile="full" height="300" version="1.1" width="300" xmlns="http://www.w3.org/2000/svg" xmlns:ev="http://www.w3.org/2001/xml-events" xmlns:xlink="http://www.w3.org/1999/xlink"><defs /><rect fill="none" height="300" width="300" x="0" y="0" /><path d="M77.9262996192,25.0 m3.25144509065,6.86416180524 l5.4190753095,5.78034693344 5.05780368557,2.89017346672 l8.30924877622,0.72254336668 7.58670505311,2.16762998123 l14.8121389575,16.6184975524 19.8699426431,48.0491321615 l3.25144509065,22.3988435354 3.25144509065,12.6445082634 l8.67051992492,14.0895957097 5.4190753095,3.61271671459 l20.2312147423,5.05780368557 39.0173410878,13.3670524618 l0.0,1.80635835729 -7.22543342918,3.25144509065 l-52.3843935496,-1.80635835729 -1.44508673336,2.16762998123 l0.0,11.9219650156 -2.52890184278,13.0057803626 l-26.0115607252,65.3901739123 2.16762998123,-12.6445082634 l4.33525996246,-46.6040475667 2.52890184278,-13.3670524618 l-17.3410398498,30.3468202125 -21.3150291388,30.3468202125 l4.69653158639,-21.3150291388 0.36127168334,-22.7601156346 l2.16762998123,-19.1473984448 " fill="none" stroke="black" stroke-width="1" /></svg>