<?xml version="1.0" encoding="utf-8" ?>
<svg baseProfile="full" height="300" version="1.1" width="300" xmlns="http://www.w3.org/2000/svg" xmlns:ev="http://www.w3.org/2001/xml-events" xmlns:xlink="http://www.w3.org/1999/xlink"><defs /><rect fill="none" height="300" width="300" x="0" y="0" /><path d="M25.0,215.565034727 m76.2260119798,11.1940295891 l173.77398802,15.4584219805 m-69.8294216398,-95.4157773904 l12.2601282128,2.66524515696 2.66524515696,5.33049031392 l-21.3219612557,-0.533049048922 m5.33049031392,-9.06183374402 l-7.99573582148,-3.19829411823 -6.39658823646,1.06609809784 l-5.86353927519,3.7313434301 0.0,5.86353927519 l11.1940295891,2.66524515696 m-7.99573582148,-0.533049048922 l-4.26439239137,5.33049031392 -7.99573582148,1.59914705911 l-2.66524515696,2.13219619569 -2.66524515696,7.99573582148 l8.52878478275,6.39658823646 11.1940295891,1.06609809784 l5.33049031392,-2.66524515696 3.19829411823,-5.86353927519 l2.13219619569,-5.33049031392 1.06609809784,-11.7270785504 m-31.9829432859,18.123667488 l-13.8592743955,51.7057555541 7.4626868602,-7.4626868602 l4.26439239137,-8.52878478275 5.86353927519,-19.7228150731 m2.66524515696,-11.1940295891 l-9.59488270529,46.9083142015 m17.0575695655,-43.7100218363 l-4.79744135264,34.115139131 1.06609809784,11.1940295891 m10.1279316666,-44.7761183564 l0.0,34.6481887935 -2.13219619569,17.5906178256 m-92.7505346877,-137.526655849 l9.06183374402,-34.115139131 1.06609809784,-2.66524515696 l2.66524515696,-0.533049048922 0.0,3.19829411823 l-3.19829411823,6.92963719773 -13.3262261354,7.4626868602 l6.39658823646,0.533049048922 m14.9253737204,17.0575695655 l8.52878478275,-23.9872067632 m1.06609809784,-11.1940295891 l4.79744135264,15.4584219805 m6.92963719773,20.7889129956 l5.33049031392,-8.52878478275 5.86353927519,-3.7313434301 m4.26439239137,3.7313434301 l0.533049048922,13.3262261354 2.13219619569,1.59914705911 m22.3880591782,-5.86353927519 l3.7313434301,-28.7846481159 m15.991471643,25.0533060882 l-2.66524515696,-2.66524515696 -11.1940295891,-4.79744135264 m-4.79744135264,-1.59914705911 l28.2515984534,26.6524522708 " fill="none" stroke="black" stroke-width="1" /></svg>