<?xml version="1.0" encoding="utf-8" ?>
<svg baseProfile="full" height="300" version="1.1" width="300" xmlns="http://www.w3.org/2000/svg" xmlns:ev="http://www.w3.org/2001/xml-events" xmlns:xlink="http://www.w3.org/1999/xlink"><defs /><rect fill="none" height="300" width="300" x="0" y="0" /><path d="M136.650489197,162.13592464 m8.49514559668,84.3446591686 l11.5291255968,1.21359219959 23.6650479918,7.88834879845 m-36.4077663868,-13.9563103951 l14.5631055969,27.3058239919 m-13.9563103951,-21.2378623953 l7.88834879845,27.3058239919 m3.0339803992,-120.752422362 l37.0145599922,18.8106783952 -26.6990271936,34.5873759921 m-16.3834943951,-0.606796099795 l-6.67475679841,14.5631055969 m30.3398047902,-21.8446591935 l-18.2038831934,17.5970863952 -1.21359219959,13.3495135968 m13.3495135968,-20.6310671935 l1.21359219959,19.4174751934 4.24757279834,3.64077639921 m-8.49514559668,-22.4514559917 l6.06796079839,15.7766975969 m-7.28155279843,-143.810675152 l-15.7766975969,1.21359219959 -20.6310671935,21.2378623953 l-16.3834943951,9.1019415967 -26.0922319918,-1.21359219959 l-28.5194175883,-18.2038831934 2.42718439918,9.70873759671 l14.5631055969,24.2718431936 13.9563103951,15.1699023951 l6.67475679841,4.24757279834 17.5970863952,6.06796079839 l39.4417471851,4.24757279834 20.0242703952,-2.42718439918 l47.3300959835,-33.9805823867 12.1359215968,-24.8786399918 l2.42718439918,-18.2038831934 m-1.21359219959,9.70873759671 l1.82038819961,-12.7427175968 -1.82038819961,-28.5194175883 l1.21359219959,-22.4514559917 12.7427175968,3.64077639921 " fill="none" stroke="black" stroke-width="1" /></svg>