<?xml version="1.0" encoding="utf-8" ?>
<svg baseProfile="full" height="300" version="1.1" width="300" xmlns="http://www.w3.org/2000/svg" xmlns:ev="http://www.w3.org/2001/xml-events" xmlns:xlink="http://www.w3.org/1999/xlink"><defs /><rect fill="none" height="300" width="300" x="0" y="0" /><path d="M153.030293914,97.348483419 m1.89393935619,-1.51515153478 l4.16666653379,0.0 19.3181823799,1.89393935619 l17.4242427745,0.0 26.5151504884,10.6060609926 m-4.16666653379,0.75757576739 l-0.378787883695,2.2727271776 -2.2727271776,1.89393935619 l-18.1818174208,4.92424217661 -17.0454544549,2.2727271776 l-31.4393946581,1.1363635888 -1.1363635888,-3.03030306956 l3.03030306956,-13.2575752442 1.1363635888,-0.75757576739 m4.16666653379,-1.1363635888 l-2.65151524815,-22.7272732709 -2.65151524815,-4.92424217661 l-6.06060613912,-3.78787871238 -9.0909087104,-4.92424217661 l-7.95454524617,-1.1363635888 -4.92424217661,3.03030306956 l-7.19696960335,9.46969703009 -1.51515153478,4.92424217661 l0.75757576739,57.9545451465 1.89393935619,1.51515153478 l5.68181831771,-0.378787883695 9.0909087104,-3.40909089097 l6.81818178194,-1.1363635888 1.89393935619,-1.51515153478 l8.33333306758,-15.5303031692 m-22.7272732709,22.7272732709 l-3.03030306956,32.9545459438 -36.7424231613,64.0151502891 l14.0151518836,-3.78787871238 8.33333306758,0.378787883695 l2.65151524815,2.2727271776 1.1363635888,6.43939396053 l0.378787883695,15.5303031692 m14.3939392067,-78.7878748258 l7.95454524617,7.95454524617 10.6060609926,13.6363635639 l19.3181823799,34.0909089097 3.03030306956,3.03030306956 l2.2727271776,0.0 4.16666653379,-9.84848435322 l0.0,-19.3181823799 -4.5454543552,-21.2121219852 l-10.6060609926,-19.6969687064 -15.9090904923,-14.0151518836 l-19.6969687064,-5.68181831771 -21.9696966315,1.51515153478 l-23.1060595974,9.46969703009 -21.5909083118,14.7727275264 l-23.1060595974,17.8030310942 -0.378787883695,2.65151524815 l7.19696960335,2.2727271776 28.0303037672,-4.16666653379 l41.2878790113,-18.1818174208 118.939396851,-64.0151502891 l-6.81818178194,0.75757576739 -32.5757576241,9.0909087104 l-129.924242177,42.8030283039 -23.8636362368,3.78787871238 l-10.6060609926,-9.46969703009 8.71212138727,-30.6818180187 l25.7575758421,-39.0151530794 30.3030296991,-33.3333322703 l24.6212128762,-17.4242427745 11.7424239586,-1.51515153478 l1.51515153478,12.4999996014 -14.0151518836,35.6060621885 l-28.7878784134,45.4545465417 -20.0757570261,37.121211481 l-3.03030306956,14.3939392067 2.2727271776,0.0 l26.1363641618,-20.4545453458 111.742426749,-104.924244967 l-45.075758222,30.3030296991 -45.8333348614,34.8484855491 l-30.3030296991,28.0303037672 -8.71212138727,11.3636366354 l9.0909087104,-7.95454524617 75.3787879211,-31.4393946581 l35.9848465219,-8.33333306758 26.1363641618,0.75757576739 l24.2424245565,13.2575752442 32.1969693044,21.5909083118 " fill="none" stroke="black" stroke-width="1" /></svg>