<?xml version="1.0" encoding="utf-8" ?>
<svg baseProfile="full" height="300" version="1.1" width="300" xmlns="http://www.w3.org/2000/svg" xmlns:ev="http://www.w3.org/2001/xml-events" xmlns:xlink="http://www.w3.org/1999/xlink"><defs /><rect fill="none" height="300" width="300" x="0" y="0" /><path d="M148.598655277,25.0 m11.7713002436,2.24215251514 l79.5964115223,1.12107625757 -53.2511186399,25.7847541084 l-20.1793722676,7.28699521335 -5.04484306689,3.36322858837 l-7.84753398733,9.52914809717 -7.28699521335,14.5739904267 l-2.24215251514,12.8923770542 -1.68161429418,44.2825100541 l0.560538128785,75.1121072294 16.8161440479,12.3318382802 l12.8923770542,12.3318382802 -15.6950679747,-15.6950679747 l-6.72645717674,-4.48430503028 7.28699521335,33.0717493218 l-12.3318382802,-31.3901359493 -2.80269055175,2.80269055175 l-5.60538110351,30.2690584014 m19.6188334936,-177.69057899 l-6.72645717674,3.36322858837 -21.3004483408,31.9506717738 l-14.0134531275,12.3318382802 -11.210762207,7.28699521335 l-9.52914809717,3.36322858837 -20.7399110416,0.560538128785 l-0.560538128785,42.6008966816 7.28699521335,66.1434986436 l0.0,-2.80269055175 2.80269055175,0.0 l12.8923770542,11.210762207 8.96861006056,10.6502241704 l-21.3004483408,-28.0269062549 2.24215251514,33.6322880958 l-2.24215251514,-4.48430503028 -1.12107625757,-28.5874450289 l-3.92376699366,2.24215251514 -17.9372201211,25.7847541084 " fill="none" stroke="black" stroke-width="1" /></svg>