<?xml version="1.0" encoding="utf-8" ?>
<svg baseProfile="full" height="300" version="1.1" width="300" xmlns="http://www.w3.org/2000/svg" xmlns:ev="http://www.w3.org/2001/xml-events" xmlns:xlink="http://www.w3.org/1999/xlink"><defs /><rect fill="none" height="300" width="300" x="0" y="0" /><path d="M133.274648757,142.077466953 m3.5211266994,90.6690149703 l-5.28168975961,-7.92253492891 0.0,50.1760530058 m7.04225339881,-89.7887322822 l25.5281678469,5.28168975961 14.0845067976,8.80281645901 l34.3309854639,7.92253492891 -9.68309798912,11.4436610493 l-26.408450535,15.8450698578 -43.133800765,7.92253492891 m6.1619718687,-60.7394359989 l1.7605633497,-36.0915485241 4.40140822951,3.5211266994 l19.3661959782,-12.3239437374 33.4507027758,-13.2042252675 l18.4859144481,-24.6478874748 6.1619718687,-34.3309854639 l-7.04225339881,-13.2042252675 -26.408450535,-23.7676047867 l-37.8521115843,-2.64084487981 -15.8450698578,2.64084487981 l-16.7253513879,29.0492939674 -11.4436610493,8.80281645901 l-1.7605633497,13.2042252675 2.64084487981,20.2464786663 l-20.2464786663,1.7605633497 -3.5211266994,5.28168975961 l-6.1619718687,2.64084487981 -1.7605633497,7.04225339881 l9.68309798912,62.4999967432 10.5633795192,21.1267590384 l25.5281678469,72.1830970483 " fill="none" stroke="black" stroke-width="1" /></svg>