<?xml version="1.0" encoding="utf-8" ?>
<svg baseProfile="full" height="300" version="1.1" width="300" xmlns="http://www.w3.org/2000/svg" xmlns:ev="http://www.w3.org/2001/xml-events" xmlns:xlink="http://www.w3.org/1999/xlink"><defs /><rect fill="none" height="300" width="300" x="0" y="0" /><path d="M245.883536804,44.5783175593 m-47.1887575343,18.0722892203 l-19.0763051413,14.0562255361 -3.01204809332,7.02811276805 l0.0,16.0642573782 5.02008026559,13.0522082943 l1.00401608614,15.0602414571 -3.01204809332,38.1526102826 l-22.0883529045,24.0963847465 -25.1004019883,9.03614461014 m134.53815191,-138.554220877 l8.03212868909,14.0562255361 m-10.0401605312,20.0803210624 l-31.1244975146,5.02008026559 -26.1044165886,21.0843369834 m8.03212868909,35.1405611988 l-5.02008026559,12.0481923733 -13.0522082943,17.0682732992 l-16.0642573782,11.0441764522 -28.1124510722,12.0481923733 m-58.232931345,-29.1164656725 l-20.0803210624,-2.00803217227 -6.02409618664,-7.02811276805 m-25.1004019883,-54.2168676608 l20.0803210624,13.0522082943 34.1365465985,37.1485956823 m-73.2931741229,-17.0682732992 l10.0401605312,19.0763051413 16.0642573782,17.0682732992 l7.02811276805,3.01204809332 m16.0642573782,-74.2971913647 l9.03614461014,15.0602414571 15.0602414571,14.0562255361 m-34.1365465985,53.212850419 l28.1124510722,13.0522082943 m92.369480585,-3.01204809332 l27.1084338304,48.1927694931 m-74.2971913647,-31.1244975146 l-13.0522082943,32.1285147564 m100.401607953,-88.3534116178 l0.0,0.0 " fill="none" stroke="black" stroke-width="1" /></svg>