<?xml version="1.0" encoding="utf-8" ?>
<svg baseProfile="full" height="300" version="1.1" width="300" xmlns="http://www.w3.org/2000/svg" xmlns:ev="http://www.w3.org/2001/xml-events" xmlns:xlink="http://www.w3.org/1999/xlink"><defs /><rect fill="none" height="300" width="300" x="0" y="0" /><path d="M87.4260347379,193.343192912 m-26.9230763423,5.02958566893 l-35.5029583957,3.55029560605 84.9112393348,-21.3017744147 l7.69230708158,-4.14201186472 -2.07100593236,0.0 l-44.3786956594,18.9349109368 -30.7692283263,10.0591713379 l-7.1005912121,3.55029560605 1.77514780303,1.47928986829 l6.80473366655,0.0 13.3136090092,-2.07100593236 l37.5739635496,-7.1005912121 7.98816540551,-3.25443767131 l-62.7218899484,24.5562128644 -9.46745546839,6.80473366655 l-0.295857983387,3.84615354079 2.95857973657,1.77514780303 l15.088757396,2.07100593236 30.4733731159,-0.295857983387 l51.1834308827,-10.3550288834 13.905325657,-3.84615354079 l15.088757396,-7.1005912121 2.95857973657,-2.3668638671 l1.77514780303,-3.55029560605 -2.66272180184,-7.39644953603 l0.295857983387,-8.87573959891 8.87573959891,-16.5680474589 l12.4260348158,-18.047335965 8.28402372944,-9.76331301394 l86.0946726305,-86.0946726305 " fill="none" stroke="black" stroke-width="1" /></svg>