<?xml version="1.0" encoding="utf-8" ?>
<svg baseProfile="full" height="300" version="1.1" width="300" xmlns="http://www.w3.org/2000/svg" xmlns:ev="http://www.w3.org/2001/xml-events" xmlns:xlink="http://www.w3.org/1999/xlink"><defs /><rect fill="none" height="300" width="300" x="0" y="0" /><path d="M254.234535987,196.620522427 m-1.22149837144,30.5374596878 l-3.25732916906,6.92182441729 -5.29315956496,1.62866458453 l-10.9934857447,0.814332292264 -53.3387622644,1.22149837144 m-31.7589595322,-49.2671046862 l-2.03583066371,37.0521190972 -2.44299674289,5.70032617975 l-3.66449524824,2.03583066371 -8.55048873401,1.22149837144 l-57.4104241274,0.0 13.4364822198,-9.36482142799 m62.7035858348,-42.3452765197 l-2.85016308987,-9.77198697156 2.03583066371,-5.29315956496 l4.88599348578,-6.10749225893 10.1791535863,-4.88599348578 l3.66449524824,-4.88599348578 0.0,-2.44299674289 l-6.92182441729,-10.1791535863 -0.407166146132,-2.44299674289 l10.1791535863,-1.22149837144 13.0293166762,0.814332292264 l16.6938119245,3.66449524824 18.3224762412,6.10749225893 l50.8957668605,20.7654737875 -6.51465833811,17.9153096264 l-3.25732916906,17.5081440828 -1.62866458453,20.3583071727 m-103.42020018,-88.3550525725 l2.85016308987,-2.44299674289 2.03583066371,-7.73615657565 l0.0,-61.8892526052 -83.8762283795,0.0 l-10.5863191299,5.29315956496 -2.03583066371,6.51465833811 l0.0,13.0293166762 2.85016308987,10.5863191299 l5.70032617975,9.36482142799 11.4006523595,5.29315956496 l8.14332265483,1.22149837144 68.4039098721,-0.814332292264 l12.2149845179,-3.25732916906 2.85016308987,-1.62866458453 l1.22149837144,-2.03583066371 -0.814332292264,-1.62866458453 m-85.9120528837,-18.3224762412 l-10.9934857447,-0.407166146132 -28.094464284,3.66449524824 l-25.6514667377,1.22149837144 m168.973939464,14.2508143782 m2.03583066371,-3.66449524824 m0.407166146132,-3.25732916906 l-2.03583066371,4.4788274066 -5.29315956496,4.07166132742 m-8.14332265483,3.66449524824 l0.0,0.0 m94.0553766098,74.5114048091 l-6.10749225893,-6.10749225893 -10.9934857447,-7.73615657565 l-28.9087953711,-13.0293166762 -48.4527714567,-7.32899049647 l-62.7035858348,2.85016308987 m19.1368094708,54.9674287235 l12.2149845179,-2.44299674289 17.100977468,-0.407166146132 l31.7589595322,1.62866458453 " fill="none" stroke="black" stroke-width="1" /></svg>