<?xml version="1.0" encoding="utf-8" ?>
<svg baseProfile="full" height="300" version="1.1" width="300" xmlns="http://www.w3.org/2000/svg" xmlns:ev="http://www.w3.org/2001/xml-events" xmlns:xlink="http://www.w3.org/1999/xlink"><defs /><rect fill="none" height="300" width="300" x="0" y="0" /><path d="M184.445407129,88.0415954254 m-19.06412489,14.2980936675 l-3.03292916704,0.0 -5.63258225025,3.46620468091 l-2.16637785432,2.16637785432 -1.29982668409,5.19930673638 l37.6949759761,1.29982668409 1.29982668409,1.73310234045 l-3.46620468091,19.4974009739 -0.433275585113,42.0277299749 l0.0,1.73310234045 -3.89948019477,1.73310234045 l-1.73310234045,5.19930673638 -3.89948019477,26.4298091958 l5.19930673638,-1.73310234045 7.79896038955,-5.63258225025 l12.5649916121,-18.1975738623 8.66551141728,-19.9306770577 l1.73310234045,-1.29982668409 8.23223590342,29.0294634189 l3.89948019477,8.23223590342 9.09878693115,-13.4315426398 l2.59965336819,-20.7972269455 1.73310234045,-2.59965336819 l1.29982668409,-7.79896038955 1.29982668409,-2.16637785432 l6.93240936181,-2.16637785432 4.33275570864,-18.6308499461 l-2.59965336819,-7.79896038955 -19.06412489,-18.6308499461 l-9.09878693115,-6.93240936181 -13.4315426398,-4.76603122251 l-15.1646446953,-3.03292916704 -22.530329001,-7.36568487568 l-0.866551170226,0.433275585113 m-1.73310234045,17.3310228346 l4.76603122251,0.866551170226 6.06585833407,-0.433275585113 l-3.46620468091,-0.866551170226 4.76603122251,0.0 l-3.46620468091,0.433275585113 m29.0294634189,-2.59965336819 l-6.49913384794,7.36568487568 m4.33275570864,35.095321753 l14.2980936675,-6.06585833407 -3.89948019477,-0.433275585113 l-11.6984405843,3.03292916704 15.5979207791,-6.06585833407 l11.2651645005,-2.59965336819 -17.7642989184,9.09878693115 l4.33275570864,2.16637785432 30.7625654744,-4.76603122251 l-35.9618739206,18.6308499461 24.2634333363,-3.89948019477 l-22.097055197,10.3986134728 -5.19930673638,3.89948019477 m-182.842288511,25.1299832241 m0.0,0.0 l217.50433874,-80.1559843146 m-217.937614824,81.0225364822 l193.240914523,-72.3570193654 m-192.807638439,72.7902954492 l-1.29982668409,-3.46620468091 0.0,2.59965336819 m0.0,0.433275585113 l0.0,0.0 m129.549394036,-51.9930707835 l9.96533852885,-7.79896038955 15.5979207791,-7.79896038955 l46.3604862535,-16.8977478907 m-78.4228799793,22.530329001 l18.1975738623,-13.8648187236 15.1646446953,-9.09878693115 l28.1629135311,-12.5649916121 m-68.8908152545,39.8613541154 l5.19930673638,-7.79896038955 6.06585833407,-5.63258225025 l21.2305030293,-13.8648187236 42.0277299749,-16.4644718068 l25.1299832241,-5.63258225025 m-71.9237478412,69.7573674221 l15.5979207791,-15.5979207791 32.9289436137,-21.6637791132 l21.6637791132,-9.53206244502 m-60.6585787811,52.8596183915 l57.625650754,-36.8284238084 18.6308499461,-9.96533852885 m-51.1265186159,32.9289436137 l26.4298091958,-14.2980936675 m-36.8284238084,57.625650754 l21.2305030293,-21.2305030293 61.0918548649,-47.6603145049 " fill="none" stroke="black" stroke-width="1" /></svg>