<?xml version="1.0" encoding="utf-8" ?>
<svg baseProfile="full" height="300" version="1.1" width="300" xmlns="http://www.w3.org/2000/svg" xmlns:ev="http://www.w3.org/2001/xml-events" xmlns:xlink="http://www.w3.org/1999/xlink"><defs /><rect fill="none" height="300" width="300" x="0" y="0" /><path d="M181.837160626,154.044884182 m-3.91440514875,30.5323592678 l3.39248421051,1.04384136156 8.87265148743,0.0 l9.39457208239,-2.08768272312 -2.60960331808,-2.08768272312 l-8.87265148743,-3.65344485128 -5.21920663615,-4.69728604119 l3.13152391303,-5.21920663615 14.8747386727,-16.7014617849 l12.7870562929,9.91649267734 -3.65344485128,25.8350732266 l8.87265148743,1.82672242564 6.26304782607,0.0 l-0.26096034039,-3.91440514875 -1.30480165904,-1.04384136156 l7.04592906179,-35.2296453089 -9.39457208239,-3.91440514875 l-0.26096034039,-2.60960331808 3.91440514875,-13.8308974828 l2.08768272312,-4.43632574371 -0.26096034039,-1.30480165904 l12.0041757437,6.00208787187 16.1795405034,3.65344485128 l9.65553272315,-0.26096034039 6.00208787187,-2.87056361555 l3.65344485128,-3.39248421051 0.782880978259,-3.39248421051 l-0.521920680779,-3.13152391303 -6.52400846683,-7.56784965675 l-5.21920663615,-4.43632574371 -5.48016693363,-3.13152391303 l-5.74112723111,-2.08768272312 -28.4446768879,-1.56576195652 l-1.04384136156,1.56576195652 0.521920680779,1.30480165904 l4.17536544623,3.65344485128 3.39248421051,0.782880978259 l-0.782880978259,1.30480165904 -13.8308974828,2.87056361555 l-7.82881029751,-1.82672242564 -20.3549066362,-9.13361144162 l-2.3486430206,2.60960331808 0.0,2.87056361555 l0.782880978259,6.26304782607 3.91440514875,12.2651363845 l0.0,21.6597084669 -22.9645089244,8.61169084666 l-31.31524119,6.52400846683 -29.4885167047,2.87056361555 l13.0480169337,-3.13152391303 22.1816283753,-8.87265148743 l36.5344457665,-23.2254695652 5.48016693363,-2.60960331808 l-1.56576195652,2.3486430206 -30.0104379862,20.3549066362 l-33.1419629291,18.2672228832 -24.7912306635,17.2233816933 l22.1816283753,-10.9603338673 36.273487872,-7.56784965675 l8.87265148743,3.13152391303 -4.43632574371,5.48016693363 l-11.221294508,6.78496842103 -34.1858027459,14.3528187643 l-7.04592906179,3.65344485128 0.0,-2.60960331808 l4.95824633867,-13.5699368421 36.7954064073,-55.3235899313 l22.9645089244,-25.313151945 -10.9603338673,12.2651363845 l-39.1440494279,24.7912306635 -35.2296453089,24.2693121282 l-16.4405011442,8.61169084666 -31.31524119,11.743215103 l-10.6993739131,4.95824633867 16.4405011442,-1.82672242564 l38.1002096111,-6.00208787187 14.6137794051,0.0 l-6.78496842103,4.43632574371 " fill="none" stroke="black" stroke-width="1" /></svg>