<?xml version="1.0" encoding="utf-8" ?>
<svg baseProfile="full" height="300" version="1.1" width="300" xmlns="http://www.w3.org/2000/svg" xmlns:ev="http://www.w3.org/2001/xml-events" xmlns:xlink="http://www.w3.org/1999/xlink"><defs /><rect fill="none" height="300" width="300" x="0" y="0" /><path d="M197.197641903,103.90855274 m-1.47492627157,-3.68731555767 l-8.84955714438,-2.2123892861 -60.471976892,0.0 m25.8112084186,-2.94985254315 l67.1091449928,20.6489682871 9.58702015891,20.6489682871 l6.63716810081,8.11209412986 0.0,3.68731555767 l-16.9616522443,19.1740403178 -13.2743362016,6.63716810081 l-78.1710892405,15.4867252452 -8.84955714438,-2.94985254315 l11.0619471581,-3.68731555767 -4.42477857219,-1.47492627157 l-19.9115043024,-1.47492627157 -12.5368731871,2.94985254315 m74.4837770782,5.16224207177 l-1.47492627157,27.2861363879 5.89970508629,50.884956733 m-0.737463135786,-15.4867252452 l-11.0619471581,2.94985254315 -11.0619471581,7.37463111534 l-11.0619471581,14.0117992162 m35.3982285775,-23.5988203452 l28.0235984323,8.84955714438 m-56.7846608492,-171.091442652 l-69.3215369466,-2.2123892861 -0.737463135786,-27.2861363879 l-9.58702015891,-34.6607684733 " fill="none" stroke="black" stroke-width="1" /></svg>