<?xml version="1.0" encoding="utf-8" ?>
<svg baseProfile="full" height="300" version="1.1" width="300" xmlns="http://www.w3.org/2000/svg" xmlns:ev="http://www.w3.org/2001/xml-events" xmlns:xlink="http://www.w3.org/1999/xlink"><defs /><rect fill="none" height="300" width="300" x="0" y="0" /><path d="M146.693125875,178.439150338 m-1.98412694356,96.5608496617 l-17.1957666992,-0.661375684104 m41.0052908919,-95.8994732163 l-46.9576719401,23.8095241927 -1.32275136821,3.30687831177 l58.8624340365,3.96825388712 14.5502643978,2.64550273642 l11.9047620964,5.95238104819 m-89.9470921682,-66.1375679754 l10.5820109457,9.92063537031 35.0529098438,14.5502643978 l19.8412707406,5.95238104819 31.746031097,1.98412694356 m-62.1693162633,-59.5238104819 l36.3756627345,34.3915333984 47.6190483855,30.4232816863 l0.661375684104,-9.25925979496 -2.64550273642,-12.5661376717 l-38.3597885905,-68.7830667968 m23.1481477474,59.5238104819 l13.2275132471,0.661375684104 7.93650777424,-7.93650777424 l3.30687831177,-8.5978833496 2.64550273642,-1.98412694356 m-126.984124388,17.1957666992 l-1.98412694356,-64.1534386393 3.96825388712,-27.7777776449 l-1.32275136821,-20.502645446 -11.243386521,-0.661375684104 l-7.27513219889,11.243386521 -5.29100547283,25.1322753434 l-3.96825388712,36.3756627345 -7.27513219889,12.5661376717 l-5.29100547283,1.98412694356 m76.0582007357,-77.3809536264 l-4.62962989748,-13.2275132471 -8.5978833496,-7.93650777424 l-15.2116408431,-8.5978833496 -12.5661376717,0.661375684104 l-18.5185195899,13.8888888224 -19.1798942953,58.8624340365 l-7.27513219889,6.61375662354 -10.5820109457,0.661375684104 l-1.32275136821,3.96825388712 -0.661375684104,39.6825414813 l2.64550273642,19.8412707406 3.96825388712,1.98412694356 l5.29100547283,-6.61375662354 13.8888888224,-27.7777776449 " fill="none" stroke="black" stroke-width="1" /></svg>