<?xml version="1.0" encoding="utf-8" ?>
<svg baseProfile="full" height="300" version="1.1" width="300" xmlns="http://www.w3.org/2000/svg" xmlns:ev="http://www.w3.org/2001/xml-events" xmlns:xlink="http://www.w3.org/1999/xlink"><defs /><rect fill="none" height="300" width="300" x="0" y="0" /><path d="M115.616971795,127.827766345 m4.49871480237,14.781491252 l18.6375317865,23.1362465889 28.2776339682,3.85604095724 l23.1362465889,0.0 22.493572321,-7.71208191448 l13.4961435617,-7.06940849206 7.06940849206,-6.42673506964 l-63.6246781194,-21.2082254762 m-81.6195373289,41.7737800662 l23.7789208567,10.2827764496 45.6298189099,5.78406164722 l37.9177378408,-1.2853470562 19.9228786313,-3.85604095724 l28.2776339682,-10.925449872 31.4910019258,-21.850899744 l-71.9794368379,-6.42673506964 m-115.038558676,26.9922871234 l-2.5706941124,-17.3521849416 1.92802047862,-29.5629825039 l6.42673506964,-27.6349613912 m91.2596378198,30.8483276579 l-44.9871446421,-22.493572321 -11.5681232944,-7.71208191448 l-6.42673506964,-17.9948592095 3.21336753482,-8.35475533691 l-5.14138822479,-17.9948592095 -14.781491252,-12.2107967169 l-17.3521849416,-7.71208191448 -26.9922871234,0.642673528099 l-18.6375317865,10.2827764496 -17.3521849416,15.424163829 l5.14138822479,2.5706941124 19.9228786313,1.2853470562 l22.493572321,4.49871480237 16.7095106738,9.64010302716 l1.2853470562,28.2776339682 m79.0488402575,79.0488402575 l0.0,79.0488402575 m-14.781491252,-89.3316217796 l-5.78406164722,99.6143965383 " fill="none" stroke="black" stroke-width="1" /></svg>