<?xml version="1.0" encoding="utf-8" ?>
<svg baseProfile="full" height="300" version="1.1" width="300" xmlns="http://www.w3.org/2000/svg" xmlns:ev="http://www.w3.org/2001/xml-events" xmlns:xlink="http://www.w3.org/1999/xlink"><defs /><rect fill="none" height="300" width="300" x="0" y="0" /><path d="M185.944206196,84.0128724736 m1.07296136582,-33.2618011054 l5.36480665266,-11.8025744947 18.2403430425,-13.9484968735 l12.8755356841,0.0 8.58369092655,10.7296133053 l1.07296136582,24.6781115903 13.9484968735,16.0944206637 l-18.2403430425,2.14592273164 -9.65665211594,26.824033969 l-18.2403430425,16.0944206637 -5.36480665266,1.07296136582 l-46.1373382009,-1.07296136582 -49.3562231805,-12.8755356841 l-47.2102979789,-57.9399126956 27.896993747,-17.1673818531 l20.3862654213,49.3562231805 22.5321878,19.3133042319 l39.6995710646,1.07296136582 20.3862654213,-17.1673818531 m-41.8454934434,49.3562231805 l1.07296136582,-11.8025744947 8.58369092655,78.3261795283 l7.51072973716,33.2618011054 -26.824033969,39.6995710646 m32.1888413274,-36.480686085 l33.2618011054,26.824033969 m11.8025744947,-133.047204421 l20.3862654213,108.369098477 " fill="none" stroke="black" stroke-width="1" /></svg>