<?xml version="1.0" encoding="utf-8" ?>
<svg baseProfile="full" height="300" version="1.1" width="300" xmlns="http://www.w3.org/2000/svg" xmlns:ev="http://www.w3.org/2001/xml-events" xmlns:xlink="http://www.w3.org/1999/xlink"><defs /><rect fill="none" height="300" width="300" x="0" y="0" /><path d="M25.0,78.4140969897 m73.7885462411,-27.5330402044 l-39.6475774308,3.30396466517 -19.8237887154,9.91189435769 l-12.1145372263,18.7224672811 27.5330402044,-6.60792933034 l26.4317173213,-12.1145372263 m20.9251101497,-22.026431584 l-2.20264323084,82.5991177158 4.40528646168,11.013215792 m11.013215792,-1.10132161542 l6.60792933034,-13.2158586607 27.5330402044,-22.026431584 l41.8502202994,-18.7224672811 38.5462545477,-1.10132161542 l29.7356830731,23.1277530184 15.4185029781,2.20264323084 m-167.400881198,44.0528631681 l122.246700942,2.20264323084 25.3303973358,-17.6211458467 l2.20264323084,-29.7356830731 -11.013215792,-1.10132161542 m-95.8149807227,40.7489003138 l-1.10132161542,110.132160818 2.20264323084,-1.10132161542 m44.0528631681,-99.1189435769 l-3.30396466517,6.60792933034 2.20264323084,72.6872233581 l6.60792933034,3.30396466517 12.1145372263,-3.30396466517 l14.317180095,-56.1674032919 4.40528646168,-4.40528646168 m-81.4978006277,85.903086365 " fill="none" stroke="black" stroke-width="1" /></svg>