<?xml version="1.0" encoding="utf-8" ?>
<svg baseProfile="full" height="300" version="1.1" width="300" xmlns="http://www.w3.org/2000/svg" xmlns:ev="http://www.w3.org/2001/xml-events" xmlns:xlink="http://www.w3.org/1999/xlink"><defs /><rect fill="none" height="300" width="300" x="0" y="0" /><path d="M159.174317331,222.821102 m-9.17431205116,-43.5779811116 l-4.58715602558,-11.4678896868 -3.44036683062,0.0 m-36.6972482047,55.0458692899 l2.29357801279,-44.724771438 m0.0,49.3119267093 l20.642201738,3.44036683062 5.73394484341,4.58715602558 m29.8165122806,-10.321100869 l59.6330245612,5.73394484341 51.605504345,12.6146785046 m-134.174311297,-77.9816516806 l-52.7522946713,8.02752323334 -22.9357793736,-2.29357801279 l-11.4678896868,-9.17431205116 -28.6697249713,-36.6972482047 l11.4678896868,-25.2293570093 24.0825681915,-24.0825681915 l38.9908258403,-12.6146785046 37.8440355139,-2.29357801279 l9.17431205116,10.321100869 -4.58715602558,43.5779811116 l4.58715602558,28.6697249713 -6.88073366124,9.17431205116 m8.02752323334,-96.3302727658 l30.963302607,3.44036683062 -11.4678896868,19.4954129202 l-11.4678896868,5.73394484341 " fill="none" stroke="black" stroke-width="1" /></svg>