<?xml version="1.0" encoding="utf-8" ?>
<svg baseProfile="full" height="300" version="1.1" width="300" xmlns="http://www.w3.org/2000/svg" xmlns:ev="http://www.w3.org/2001/xml-events" xmlns:xlink="http://www.w3.org/1999/xlink"><defs /><rect fill="none" height="300" width="300" x="0" y="0" /><path d="M146.416522749,178.24620424 m0.0,73.7774056437 l-34.148398271,-14.3338956938 -11.8043850805,-3.37268137233 l13.0691398325,4.63743667899 15.598651555,8.43170315355 l11.8043850805,4.63743667899 56.0708258047,0.0 l-6.32377764245,-8.01011805133 -1.2647554453,-8.01011805133 l1.2647554453,-7.16694784689 m62.39460622,-61.5514349065 l6.74536274467,32.4620578621 6.32377764245,51.4333880166 l5.48060688343,0.843170343083 -18.549746716,-4.21585157677 l-22.3440131905,4.21585157677 8.01011805133,-1.2647554453 l36.2563243367,1.2647554453 m-127.318717508,-71.2478917029 m2.52951089061,0.843170343083 l-1.2647554453,-9.69645901478 0.843170343083,-7.16694784689 l1.68634068617,-2.10792578839 6.32377764245,0.0 l21.5008440952,5.48060688343 9.69645901478,0.421585171542 l16.0202361027,-4.21585157677 33.7268126142,-14.3338956938 m1.68634068617,-4.21585157677 l7.58853294911,21.0792584384 m-101.602027936,-3.79426647455 l-81.3659341562,-43.8448550675 -37.5210790887,-17.2849919639 l-2.52951089061,-5.05902178121 2.10792578839,-5.90219254023 l16.8634063071,-18.9713323728 23.1871845041,-13.0691398325 l26.5598653219,-8.01011805133 11.8043850805,-1.68634068617 l20.2360871248,-1.2647554453 37.5210790887,0.843170343083 l61.9730205632,5.90219254023 13.4907254893,1.68634068617 l11.8043850805,3.37268137233 9.69645901478,5.90219254023 l6.32377764245,5.90219254023 3.37268137233,5.48060688343 l3.79426647455,11.8043850805 -5.90219254023,4.63743667899 l-10.9612137669,4.21585157677 " fill="none" stroke="black" stroke-width="1" /></svg>