<?xml version="1.0" encoding="utf-8" ?>
<svg baseProfile="full" height="300" version="1.1" width="300" xmlns="http://www.w3.org/2000/svg" xmlns:ev="http://www.w3.org/2001/xml-events" xmlns:xlink="http://www.w3.org/1999/xlink"><defs /><rect fill="none" height="300" width="300" x="0" y="0" /><path d="M156.795421629,80.7939896131 m2.50357660025,-3.57653779873 l11.087267129,-9.65665219772 29.6852649998,-19.6709585987 l12.5178820603,-6.79542186464 17.5250352608,-6.43776813181 l6.79542186464,-0.71530758327 -9.29899799441,21.4592277333 l-7.15307559746,11.087267129 -12.8755362636,16.0944203295 l-15.3791128639,12.8755362636 -12.8755362636,12.8755362636 m-32.1888406591,-71.1731036532 l-12.5178820603,-7.15307559746 -10.3719596634,0.357653791635 l-11.087267129,7.15307559746 -4.29184526438,5.72246066616 l-3.21888406591,6.79542186464 -1.43061516654,6.43776813181 l6.08011439899,18.9556501921 8.22603726641,5.00715320051 l6.43776813181,1.43061516654 11.8025745947,0.357653791635 l12.8755362636,-8.94134473206 4.29184526438,-40.7725302469 l-16.0944203295,-7.51072933029 -7.86838306311,0.357653791635 l-3.57653779873,2.14592263219 m-15.3791128639,48.9985693952 l3.93419153156,30.7582257278 0.0,26.4663809338 l-2.86123033308,30.0429173211 -1.78826889937,-0.357653791635 l-14.6638053982,16.8097287361 -26.1087267305,36.4806873349 l-6.43776813181,10.7296138667 1.78826889937,0.357653791635 l30.7582257278,27.1816874585 24.6781117992,20.028612802 l-12.160228798,-13.2331904669 -19.6709585987,-30.7582257278 l-7.15307559746,-8.22603726641 20.3862651234,-15.0214586606 l21.10157353,-19.6709585987 14.3061511949,-15.3791128639 l25.0357641206,71.5307578565 5.72246066616,13.2331904669 l38.9842629942,-18.5979959888 6.43776813181,-4.29184526438 l-18.2403436674,-18.5979959888 -29.6852649998,-42.9184554667 l-18.2403436674,-20.028612802 1.78826889937,0.0 l3.93419153156,-4.29184526438 7.86838306311,-12.160228798 l12.8755362636,-25.3934183239 " fill="none" stroke="black" stroke-width="1" /></svg>