<?xml version="1.0" encoding="utf-8" ?>
<svg baseProfile="full" height="300" version="1.1" width="300" xmlns="http://www.w3.org/2000/svg" xmlns:ev="http://www.w3.org/2001/xml-events" xmlns:xlink="http://www.w3.org/1999/xlink"><defs /><rect fill="none" height="300" width="300" x="0" y="0" /><path d="M179.788415895,156.959909566 m-16.1469933456,51.2249462252 l-6.68151431104,64.0311798518 -1.11358577954,2.7839643573 l-1.67037857776,-3.34075715552 m51.7817397559,-105.233848385 l-6.68151431104,27.8396443055 -7.23830710926,18.9309580691 l48.9977721026,-25.6124731126 11.1358574292,-4.45434311817 l-15.0334077492,10.0222718328 m-62.9175927905,-33.4075737525 l0.556792889772,-10.0222718328 -1.67037857776,-9.46547903456 l-6.68151431104,-15.0334077492 -1.11358577954,-11.1358574292 l6.12472151282,-17.8173724727 6.68151431104,-6.12472151282 m26.1692666433,69.0423157682 l18.3741645385,-27.8396443055 10.579064631,-29.5100219677 l-0.556792889772,-9.46547903456 -7.79510063991,-9.46547903456 m1.67037857776,-1.11358577954 l-5.56792871461,1.67037857776 -2.7839643573,-1.11358577954 l-9.46547903456,-10.0222718328 -2.22717155909,-5.56792871461 l13.3630286221,-30.623609029 1.11358577954,-10.579064631 l-3.89755031996,-0.556792889772 -42.316258524,18.9309580691 l0.0,2.7839643573 6.12472151282,11.1358574292 l1.67037857776,17.260578942 -1.67037857776,12.2494430256 m2.22717155909,-36.7483290769 l-20.6013371962,10.0222718328 -33.4075737525,10.579064631 l31.1804025597,-17.260578942 18.3741645385,-1.67037857776 m16.7037868763,-11.1358574292 l1.67037857776,-1.67037857776 m-149.22049043,231.625827496 l47.3273944404,-38.9755002698 63.4743863211,-35.6347449454 " fill="none" stroke="black" stroke-width="1" /></svg>