<?xml version="1.0" encoding="utf-8" ?>
<svg baseProfile="full" height="300" version="1.1" width="300" xmlns="http://www.w3.org/2000/svg" xmlns:ev="http://www.w3.org/2001/xml-events" xmlns:xlink="http://www.w3.org/1999/xlink"><defs /><rect fill="none" height="300" width="300" x="0" y="0" /><path d="M107.072181971,96.7403921844 m-18.6263101937,0.0 l-5.52968569518,1.45518043602 -8.14901090115,4.36554149949 l-7.56693803762,9.6041907629 -3.20139692097,12.8055876839 l20.3725257215,-6.40279384194 6.6938302737,-0.291036096776 l6.6938302737,1.1641443871 3.78346901881,1.1641443871 l10.1862628607,5.8207217441 7.56693803762,11.0593713904 m-10.7683357243,-11.93247992 l3.20139692097,8.14901090115 30.2677521505,15.424912507 l4.94761359733,1.74621648494 25.3201404674,6.6938302737 l7.56693803762,3.20139692097 46.8568103845,4.07450545057 l42.7823064653,64.0279414821 m-161.525035864,-132.42141719 l32.5960436046,-1.1641443871 36.0884746603,14.8428411749 l22.7008156442,6.40279384194 11.6414434882,4.07450545057 l5.23864964625,2.91036087205 23.5739234081,20.3725257215 l7.85797446938,9.31315509683 9.31315509683,13.3876605474 l6.40279384194,14.8428411749 3.49243296989,17.462165998 l6.98486593978,21.2456350168 1.1641443871,8.14901090115 l-2.03725272529,-4.07450545057 m-207.508730828,-100.989525438 l-19.4994179576,-4.36554149949 -10.1862628607,-0.582072193552 l-0.582072193552,-5.23864964625 -4.65657754841,-13.6786969792 l-0.582072193552,-6.40279384194 -4.07450545057,-7.27590237154 l-0.873108242472,-13.9697318796 2.03725272529,-0.582072193552 l25.6111753677,3.78346901881 43.3643762661,11.6414434882 l18.0442373301,1.45518043602 m-84.9825400671,20.0814908211 l0.582072193552,4.65657754841 2.03725272529,4.36554149949 l9.31315509683,8.14901090115 71.0128035934,1.74621648494 l0.873108242472,-2.61932482313 m49.4761352077,-3.49243296989 l-9.31315509683,8.14901090115 -15.1338760752,8.73108299899 l-13.9697318796,10.1862628607 -20.954598585,12.5145520178 l-13.9697318796,4.07450545057 -14.8428411749,0.291036096776 l-0.582072193552,-1.74621648494 26.484284663,-18.3352737619 l45.4016312885,-25.3201404674 82.654248613,-36.6705475238 l21.2456350168,-7.85797446938 " fill="none" stroke="black" stroke-width="1" /></svg>