<?xml version="1.0" encoding="utf-8" ?>
<svg baseProfile="full" height="300" version="1.1" width="300" xmlns="http://www.w3.org/2000/svg" xmlns:ev="http://www.w3.org/2001/xml-events" xmlns:xlink="http://www.w3.org/1999/xlink"><defs /><rect fill="none" height="300" width="300" x="0" y="0" /><path d="M116.18540754,191.413376651 m-13.6778112934,-22.7963528221 l-10.6382981169,-37.9939207038 3.03951367629,-72.188444939 l-7.59878394083,42.5531924677 1.51975683815,33.4346489398 l3.79939197042,17.4772037636 6.07902735258,5.31914905846 l7.59878394083,0.0 9.87841882321,-7.59878394083 l34.1945282335,-70.6686943482 6.07902735258,31.9148923516 l6.83890564671,-1.51975683815 20.5167169401,-34.1945282335 l4.55927026454,5.31914905846 6.07902735258,17.4772037636 l3.79939197042,0.759878419073 9.87841882321,-24.3161094103 l3.79939197042,40.2735545865 8.35866223496,19.7568376464 l5.31914905846,2.27963513227 18.2370810582,0.0 l-12.9179329993,22.0364735284 -34.1945282335,28.8753791751 l-17.4772037636,10.6382981169 -16.7173244699,6.83890564671 l-18.2370810582,1.51975683815 -25.8358659986,-4.55927026454 m-93.4650411728,-136.778112934 l0.0,41.793313174 2.27963513227,29.6352584688 l11.398176411,56.9908790565 236.322188457,-164.893614815 l-229.483274813,206.686927989 229.483274813,-197.568392458 l-226.443757638,218.844980695 225.683878345,-209.726445164 l-223.404256457,224.164135751 223.404256457,-224.164135751 " fill="none" stroke="black" stroke-width="1" /></svg>