<?xml version="1.0" encoding="utf-8" ?>
<svg baseProfile="full" height="300" version="1.1" width="300" xmlns="http://www.w3.org/2000/svg" xmlns:ev="http://www.w3.org/2001/xml-events" xmlns:xlink="http://www.w3.org/1999/xlink"><defs /><rect fill="none" height="300" width="300" x="0" y="0" /><path d="M162.589932589,100.539571543 m-4.94604311188,84.9820109942 l0.0,87.6798559179 47.2122293817,0.899280606124 m-43.165466728,-174.010789374 l-45.8633116517,3.5971224245 -48.5611518435,-17.0863310728 l-29.2266202166,-17.0863310728 -9.89208622376,-8.54316553638 l-3.14748219537,-0.899280606124 134.8920853,0.0 l23.8309351011,-3.5971224245 24.7302167424,-8.54316553638 l13.9388488774,-7.64388507812 16.1870506145,-13.4892092397 l14.8381293356,-0.899280606124 15.2877701562,4.94604311188 l5.84532357013,8.9928057655 0.449640303062,26.9784184795 l-7.64388507812,31.9244604084 -8.09352530725,-4.94604311188 l4.04676265362,-9.89208622376 -1.79856121225,-4.49640288275 l-10.3417270444,-14.388489698 -11.6906471403,-3.14748219537 l-25.6294960176,5.395683341 -30.5755403125,17.0863310728 l-35.0719437867,14.388489698 -6.29496439074,3.5971224245 l-1.79856121225,4.49640288275 " fill="none" stroke="black" stroke-width="1" /></svg>