<?xml version="1.0" encoding="utf-8" ?>
<svg baseProfile="full" height="300" version="1.1" width="300" xmlns="http://www.w3.org/2000/svg" xmlns:ev="http://www.w3.org/2001/xml-events" xmlns:xlink="http://www.w3.org/1999/xlink"><defs /><rect fill="none" height="300" width="300" x="0" y="0" /><path d="M187.847790865,185.597376835 m0.0,-8.18330574028 l-9.81996667304,-23.7315867545 -3.27332240376,-12.2749591487 m54.4189830114,39.6890324636 l-0.40916530047,-10.6382971394 -4.90998333652,-13.093289615 l-1.63666120188,-15.9574467856 -4.50081810333,-1.63666120188 l-13.50245431,0.0 -16.3666114806,3.27332240376 l-11.0474629108,0.0 -8.59247097347,-2.45499166826 l-13.093289615,-9.41080197809 -8.59247097347,-15.5482810142 l-1.63666120188,-5.72831434114 -0.81833060094,-13.9116200814 l-3.68248763695,-14.7299505478 -8.59247097347,-5.72831434114 l-13.50245431,-2.86415717057 -15.5482810142,-0.81833060094 l19.2307697276,2.45499166826 12.2749591487,-0.81833060094 l8.18330574028,-2.04582643507 15.9574467856,-11.4566286823 l9.81996667304,-4.90998333652 11.8657933772,-2.04582643507 l9.00163620666,0.40916530047 4.50081810333,4.50081810333 l13.9116200814,24.5499182973 11.4566286823,9.41080197809 l7.3649752739,4.09165287014 18.8216039562,6.13747957433 l14.3207847764,1.22749583413 1.22749583413,-1.22749583413 m-110.88379488,33.551554504 l125.204579656,126.022911199 m0.0,0.0 l-125.204579656,-126.022911199 m0.0,0.0 l86.7430402011,66.6939432365 m-18.8216039562,8.18330574028 l-86.7430402011,-25.7774134586 m66.2847774651,31.9148935712 l9.00163620666,22.0949258217 m-150.981997421,-200.490986869 l-30.2782326385,55.6464803257 m0.0,0.0 l0.0,0.0 m218.90342936,141.162027518 l5.31914856971,6.13747957433 9.41080197809,5.72831434114 l4.50081810333,-1.63666120188 -16.3666114806,-6.13747957433 m-13.50245431,-5.31914856971 l1.22749583413,-2.45499166826 4.09165287014,2.04582643507 l11.4566286823,11.0474629108 " fill="none" stroke="black" stroke-width="1" /></svg>