<?xml version="1.0" encoding="utf-8" ?>
<svg baseProfile="full" height="300" version="1.1" width="300" xmlns="http://www.w3.org/2000/svg" xmlns:ev="http://www.w3.org/2001/xml-events" xmlns:xlink="http://www.w3.org/1999/xlink"><defs /><rect fill="none" height="300" width="300" x="0" y="0" /><path d="M214.775912801,275.0 m-8.40336095361,-46.2184857055 l-2.1008402384,-27.3109247113 -25.210083782,-4.20168047681 l-14.7058818991,0.700280117851 30.1120447221,2.8011204714 l49.7198866402,-7.70308095091 m13.3053218937,7.00280094821 l4.20168047681,-25.9103647059 0.0,-28.0112037928 l-0.700280117851,-15.4061619018 -5.60224094281,-2.8011204714 l-61.6246476073,0.700280117851 -44.8179275424,-2.1008402384 l-25.9103647059,6.30252094551 -16.1064428257,1.4005602357 l9.10364095631,8.40336095361 7.00280094821,11.9047618883 l7.00280094821,29.4117637982 12.605041891,9.10364095631 l16.8067219072,4.9019609401 16.1064428257,0.700280117851 l52.521006651,-4.9019609401 28.7114847167,5.60224094281 l4.20168047681,37.815125673 7.70308095091,32.2128856514 m-151.260502692,-130.952385377 l-7.70308095091,-58.8235275965 -4.20168047681,-52.521006651 l-10.5042018829,-2.1008402384 -63.725490379,9.80392188021 l16.1064428257,37.1148447492 3.5014004741,2.8011204714 l25.9103647059,-6.30252094551 28.7114847167,1.4005602357 m74.2296894983,73.5294085744 l16.8067219072,41.3165266077 9.80392188021,-23.8095237766 l19.6078437604,13.3053218937 -2.8011204714,-14.7058818991 l-8.40336095361,-16.1064428257 m-102.240896976,-6.30252094551 l-4.9019609401,28.7114847167 " fill="none" stroke="black" stroke-width="1" /></svg>