<?xml version="1.0" encoding="utf-8" ?>
<svg baseProfile="full" height="300" version="1.1" width="300" xmlns="http://www.w3.org/2000/svg" xmlns:ev="http://www.w3.org/2001/xml-events" xmlns:xlink="http://www.w3.org/1999/xlink"><defs /><rect fill="none" height="300" width="300" x="0" y="0" /><path d="M128.062909204,161.589399849 m-1.65562920127,22.3509938088 l3.31125840255,91.0596063423 m24.8344382913,-119.205300314 l5.79470234058,18.2119203973 26.4900672204,33.1125829365 l-3.31125840255,8.27814573413 -69.5364237311,22.3509938088 m56.2913922988,-93.543044291 l-20.6953648798,5.79470234058 -44.7019876177,1.65562920127 l-24.0066227379,-8.27814573413 -11.5894046812,-15.7284770037 l38.907287455,15.7284770037 6.62251680509,0.0 m-14.0728480747,-18.2119203973 l25.6622516669,-24.8344382913 18.2119203973,-7.45033126961 l29.8013250784,25.6622516669 m4.96688733158,11.5894046812 l4.96688733158,-0.827814600637 8.27814573413,-14.9006625392 l-19.8675493263,-48.0132454757 -3.31125840255,-19.8675493263 l23.1788093623,-19.8675493263 20.6953648798,-1.65562920127 l11.5894046812,24.0066227379 2.48344366579,16.5562914683 m3.31125840255,3.31125840255 l-8.27814573413,-10.7615891277 -4.13907286706,-11.5894046812 l-28.1456961494,-0.827814600637 -4.96688733158,2.48344366579 l-22.3509938088,31.4569540075 " fill="none" stroke="black" stroke-width="1" /></svg>