<?xml version="1.0" encoding="utf-8" ?>
<svg baseProfile="full" height="300" version="1.1" width="300" xmlns="http://www.w3.org/2000/svg" xmlns:ev="http://www.w3.org/2001/xml-events" xmlns:xlink="http://www.w3.org/1999/xlink"><defs /><rect fill="none" height="300" width="300" x="0" y="0" /><path d="M25.0,59.5454544158 m0.909090935183,-5.45454531213 l7.27272748146,-7.27272748146 63.6363621741,-19.0909088914 m-66.3636381188,37.272728193 l29.0909099258,-5.45454531213 19.9999996771,-19.9999996771 l13.6363641772,-1.81818187037 m45.4545464602,97.2727272243 l-0.909090935183,96.3636352428 -3.63636374073,9.99999983856 l-5.45454531213,3.63636374073 14.5454549629,-15.4545457486 l9.99999983856,21.8181812485 m-13.6363641772,-19.9999996771 l-1.81818187037,40.9090913358 m-41.8181833174,-238.181812162 l14.5454549629,9.99999983856 9.99999983856,2.72727265606 l0.0,9.09090905286 5.45454531213,9.99999983856 l22.7272732301,12.7272733915 81.8181826716,-4.54545452643 l27.2727283544,5.45454531213 16.3636365343,9.09090905286 l0.909090935183,10.9090906243 -42.7272752989,25.4545467831 l-51.8181807642,17.27272732 -42.7272752989,-0.909090935183 l1.81818187037,-70.9090932432 " fill="none" stroke="black" stroke-width="1" /></svg>