<?xml version="1.0" encoding="utf-8" ?>
<svg baseProfile="full" height="300" version="1.1" width="300" xmlns="http://www.w3.org/2000/svg" xmlns:ev="http://www.w3.org/2001/xml-events" xmlns:xlink="http://www.w3.org/1999/xlink"><defs /><rect fill="none" height="300" width="300" x="0" y="0" /><path d="M86.0997960121,142.871691141 m-3.56415489017,4.07331977879 l-25.9674140084,14.7657837795 -31.5682271135,7.12830978033 l8.14663955758,2.0366598894 m-3.05498966665,0.509164972349 l2.54582477802,-1.0183299447 14.7657837795,3.05498966665 l70.7739322449,19.8574340053 1.0183299447,-2.0366598894 m-36.6598773393,-26.9857424461 l8.65580444621,-3.05498966665 -6.10997933329,-0.509164972349 l2.54582477802,1.52749483332 0.0,-1.0183299447 m-5.09164955604,-13.2382884438 l0.0,-2.0366598894 25.9674140084,-16.802443334 l-25.9674140084,19.3482684469 m32.0773926719,-19.8574340053 l2.0366598894,-3.56415489017 28.5132391213,-17.3116088924 l40.7331964483,-5.09164955604 5.60081444467,1.52749483332 l27.4949080045,17.8207731113 12.2199586666,29.0224020006 l18.8391042281,16.2932791152 19.3482684469,2.54582477802 l5.60081444467,-4.07331977879 m-158.350306484,27.4949080045 l5.09164955604,-3.56415489017 24.9490828916,-3.56415489017 l32.5865582303,30.5498986758 11.2016288893,3.05498966665 l16.2932791152,-2.54582477802 46.3340122326,-19.3482684469 l13.7474540022,-3.05498966665 6.10997933329,0.0 l-2.0366598894,1.0183299447 m-94.7046866988,-84.5213862471 l9.16496933483,-5.09164955604 -9.16496933483,5.09164955604 m37.1690428977,-16.2932791152 l-2.0366598894,0.0 15.7841135568,-8.65580444621 l29.531567559,-6.10997933329 -31.0590615551,23.4215888955 l38.6965368938,0.509164972349 -38.6965368938,24.4399173332 l11.2016288893,4.58248466742 -21.8940935598,19.8574340053 l14.2566195607,-2.0366598894 -18.3299386697,10.6924640007 " fill="none" stroke="black" stroke-width="1" /></svg>