<?xml version="1.0" encoding="utf-8" ?>
<svg baseProfile="full" height="300" version="1.1" width="300" xmlns="http://www.w3.org/2000/svg" xmlns:ev="http://www.w3.org/2001/xml-events" xmlns:xlink="http://www.w3.org/1999/xlink"><defs /><rect fill="none" height="300" width="300" x="0" y="0" /><path d="M198.586575187,49.2932844888 m-4.41696108686,-1.32508829701 l-5.7420492386,-5.30035318802 -26.5017676832,-8.83392217371 l-21.6431093837,-1.76678449285 -2.20848054343,4.41696108686 l-4.41696108686,2.65017659401 -34.0106011241,143.992934569 l-17.2261488779,80.3886939887 -1.76678449285,4.41696108686 l-1.76678449285,-5.30035318802 -2.20848054343,-1.32508829701 m22.5265026469,-87.0141341664 l-57.4204970343,5.7420492386 -16.7844522463,0.441696123211 l3.97526503627,27.8268552539 6.6254419208,-3.09187293511 l30.0353360879,-5.30035318802 m0.0,-0.441696123211 l11.4840984772,-0.883392246423 0.441696123211,11.0424030077 l7.95053007255,-2.65017659401 4.41696108686,0.0 l1.32508829701,-2.20848054343 -0.883392246423,-8.83392217371 l8.39222612313,2.20848054343 33.1272078609,-0.883392246423 l1.32508829701,2.65017659401 -0.883392246423,9.2756182243 l17.2261488779,-0.883392246423 14.1342759428,-3.53356898569 l1.76678449285,-2.20848054343 -2.20848054343,-2.20848054343 m-0.883392246423,-2.65017659401 l9.71731427488,0.883392246423 30.918727027,-12.80918721 l47.2614838037,-26.5017676832 24.7349834809,-16.3427567767 m-5.30035318802,2.20848054343 l-1.76678449285,-6.18374587022 -24.7349834809,-43.727915399 l-3.53356898569,-5.7420492386 -11.4840984772,-11.9257951088 " fill="none" stroke="black" stroke-width="1" /></svg>