<?xml version="1.0" encoding="utf-8" ?>
<svg baseProfile="full" height="300" version="1.1" width="300" xmlns="http://www.w3.org/2000/svg" xmlns:ev="http://www.w3.org/2001/xml-events" xmlns:xlink="http://www.w3.org/1999/xlink"><defs /><rect fill="none" height="300" width="300" x="0" y="0" /><path d="M149.745934578,139.329268193 m-1.016260184,86.3821134676 l3.55691072755,1.52439019245 47.2560994751,-1.016260184 m-51.8292702195,1.016260184 l7.1138214551,7.62195146355 9.14634148889,4.57317074444 l25.4065044329,5.58943076134 m-38.1097553125,-20.3252030116 l-5.58943076134,50.3048781889 m0.0,-144.817071792 l-19.8170736715,-0.508130092 -41.6666673769,14.2276429102 l-29.4715445005,3.55691072755 m89.4308921814,-19.8170736715 l19.3089429947,-7.62195146355 m-17.7845523009,12.1951215396 l7.1138214551,4.065040736 8.13008147199,9.14634148889 m-22.8658537222,-15.7520322671 l-10.1626015058,27.9471551435 -1.52439019245,8.13008147199 m-71.1382092036,-56.9105716408 l0.0,-3.55691072755 4.57317074444,-8.63821148044 l10.1626015058,-12.1951215396 16.768292284,-11.6869921995 l22.8658537222,-12.1951215396 8.13008147199,-1.52439019245 l26.4227631129,0.0 25.4065044329,18.8008136546 l14.7357722502,6.09756076978 6.60569077823,-23.882115076 l2.032520368,-33.536584568 2.54065037645,-1.52439019245 l17.7845523009,4.065040736 32.0121952111,2.54065037645 l-2.54065037645,1.016260184 -6.09756076978,17.7845523009 l-1.52439019245,23.3739843991 -1.52439019245,2.54065037645 l-29.4715445005,2.032520368 -34.5528459218,5.58943076134 " fill="none" stroke="black" stroke-width="1" /></svg>