<?xml version="1.0" encoding="utf-8" ?>
<svg baseProfile="full" height="300" version="1.1" width="300" xmlns="http://www.w3.org/2000/svg" xmlns:ev="http://www.w3.org/2001/xml-events" xmlns:xlink="http://www.w3.org/1999/xlink"><defs /><rect fill="none" height="300" width="300" x="0" y="0" /><path d="M152.340821977,37.1722850865 m0.936329622037,-4.68164795622 l9.36329591244,-6.55430750822 27.1535582693,-0.936329622037 l15.9176034207,9.36329591244 8.42696644437,9.36329591244 l8.42696644437,22.4719096972 0.936329622037,42.1348322218 l-4.68164795622,17.7902623568 -13.1086150164,19.662921293 l-23.408240397,23.408240397 -11.2359548486,1.87265924407 l-24.3445686333,-52.4344600658 -4.68164795622,-18.7265918249 l-0.936329622037,-53.3707858387 m13.1086150164,49.6254679664 l-15.9176034207,6.55430750822 -39.3258425859,9.36329591244 l-3.74531848815,5.61797742429 77.7153593989,-1.87265924407 m6.55430750822,54.3071165385 l2.80898871215,4.68164795622 -0.936329622037,73.9700365998 m12.1722843167,-12.1722843167 l14.0449444845,26.2172300329 m-30.8988761415,-20.599250761 l3.74531848815,32.7715350777 m-14.0449444845,-31.8352068413 l-29.0262172054,15.9176034207 2.80898871215,4.68164795622 m16.8539328887,-98.3146052331 l-34.6441964772,76.7790286991 -32.7715350777,14.0449444845 l-13.1086150164,9.36329591244 m30.8988761415,-10.2996253805 " fill="none" stroke="black" stroke-width="1" /></svg>