<?xml version="1.0" encoding="utf-8" ?>
<svg baseProfile="full" height="300" version="1.1" width="300" xmlns="http://www.w3.org/2000/svg" xmlns:ev="http://www.w3.org/2001/xml-events" xmlns:xlink="http://www.w3.org/1999/xlink"><defs /><rect fill="none" height="300" width="300" x="0" y="0" /><path d="M96.540266061,154.397967855 m0.0,0.0 m14.8553558022,1.9546520657 l-0.195465212998,1.17279121371 m46.9116516338,-57.4667729428 l-0.97732603285,-0.781860851992 -3.9093041314,0.390930425996 l-8.40500406249,4.4956999311 -10.750586747,10.3596558711 l-2.73651304625,4.88663029281 -0.586395606853,3.12744340797 l0.586395606853,10.3596558711 2.54104760827,5.27756065453 l5.47302609251,6.05942137795 2.54104760827,1.9546520657 l6.64581717765,3.32290858883 4.69116485483,0.97732603285 l11.9233773179,-4.69116485483 1.9546520657,-3.51837376968 l3.71383895054,-16.614542687 0.0,-5.66849101624 l-4.88663029281,-6.05942137795 -5.66849101624,-4.4956999311 l-13.6825642028,-3.32290858883 m47.1071170718,30.4925733563 l-1.9546520657,-2.15011724656 -0.97732603285,-0.390930425996 l-0.586395606853,0.97732603285 -8.60046898623,33.033619936 l6.05942137795,39.2885077805 56.6849111909,0.0 l13.0961689173,-2.15011724656 5.47302609251,-1.56372170398 l4.69116485483,-2.15011724656 5.08209521654,-7.42767790108 l-28.3424555955,-60.7896812745 -12.1188427559,-11.9233773179 l-8.99139986219,-7.03674753937 -22.673964065,-13.0961689173 m-3.12744340797,0.781860851992 l-45.3479281299,-0.97732603285 -107.701332908,-6.45035173967 l-19.3510557333,-1.9546520657 0.0,9.77326058562 l13.0961689173,6.64581717765 91.6731834498,24.0422200738 l30.8835021752,4.69116485483 32.6426890601,2.93197822711 l33.424550812,1.9546520657 48.2799055857,12.9007034793 l-8.01407370078,0.781860851992 -24.4331509498,0.0 l-195.465207598,-4.4956999311 6.84128210138,-1.36825652313 " fill="none" stroke="black" stroke-width="1" /></svg>