<?xml version="1.0" encoding="utf-8" ?>
<svg baseProfile="full" height="300" version="1.1" width="300" xmlns="http://www.w3.org/2000/svg" xmlns:ev="http://www.w3.org/2001/xml-events" xmlns:xlink="http://www.w3.org/1999/xlink"><defs /><rect fill="none" height="300" width="300" x="0" y="0" /><path d="M153.28947528,169.078947569 m-1.97368415103,19.7368428084 l-5.26315802455,10.5263160491 -28.2894740574,49.3421044248 l-9.86842140421,8.552631249 9.86842140421,-3.28947365717 l-19.7368428084,6.57894731433 46.7105258452,5.92105266944 l-14.4736839184,-0.657894753069 -16.4473687185,3.28947365717 l17.7631580083,5.92105266944 15.1315794288,-0.657894753069 l28.9473678369,-7.23684195922 m-1.31578950614,-88.8157900416 l1.97368415103,-26.9736847676 -1.97368415103,-43.4210517553 l3.94736830206,-43.4210517553 m12.4999999838,-13.1578946287 l2.63157901228,65.1315793639 8.552631249,48.0263168659 m-19.7368428084,-72.3684230539 l-22.368421388,-9.86842140421 -9.21052675932,-11.184210694 l-7.89473660411,-21.7105258777 -0.657894753069,-22.368421388 l6.57894731433,-1.97368415103 23.0263151674,0.657894753069 l13.1578946287,3.94736830206 4.60526337966,7.23684195922 l6.57894731433,18.4210535186 -1.31578950614,16.4473687185 l-6.57894731433,16.4473687185 m0.657894753069,-1.31578950614 l3.28947365717,-1.97368415103 " fill="none" stroke="black" stroke-width="1" /></svg>