<?xml version="1.0" encoding="utf-8" ?>
<svg baseProfile="full" height="300" version="1.1" width="300" xmlns="http://www.w3.org/2000/svg" xmlns:ev="http://www.w3.org/2001/xml-events" xmlns:xlink="http://www.w3.org/1999/xlink"><defs /><rect fill="none" height="300" width="300" x="0" y="0" /><path d="M99.5428970676,65.7876233138 m5.62587918542,-7.73558353305 l4.92264440288,-2.1097045789 8.7904361694,-2.46132220144 l12.3066100821,0.0 5.97749657669,2.46132220144 l6.68073135923,6.32911396796 6.68073135923,10.5485235883 l0.351617449089,2.1097045789 m-51.6877653051,-9.14205309813 l-36.9198302463,11.2517583708 -37.2714481002,9.14205309813 l56.6104078579,0.0 16.8776366312,-1.40646979635 l10.900140517,47.4683547597 m38.6779195154,-61.1814362571 l-1.05485228945,5.97749657669 -4.57102654907,6.32911396796 l-21.0970471766,14.7679322836 -0.703234898177,33.7552732624 l2.81293959271,3.16455698398 27.0745432907,3.51617437525 l113.924051423,0.351617449089 m-156.469767331,-7.38396614178 l0.0,12.6582279359 -1.75808718763,17.9324901926 l0.351617449089,27.0745432907 3.86779176652,4.2194091578 l6.32911396796,3.16455698398 17.5808723388,11.9549931534 l11.9549931534,1.40646979635 1.40646979635,2.46132220144 l5.62587918542,34.1068911162 m-1.05485228945,-36.216598239 l3.16455698398,6.32911396796 3.86779176652,15.1195501374 l5.97749657669,11.9549931534 m-17.5808723388,-35.1617446776 l78.762310446,-7.03234875051 0.0,23.558368453 l1.75808718763,15.1195501374 -2.46132220144,-26.0196915795 l-0.351617449089,-17.5808723388 13.0098457897,-1.05485228945 l10.5485235883,-2.81293959271 11.2517583708,-5.97749657669 l4.2194091578,-4.2194091578 5.62587918542,-9.84528880575 l3.51617437525,-10.900140517 1.40646979635,-7.73558353305 l-0.351617449089,-10.900140517 " fill="none" stroke="black" stroke-width="1" /></svg>