<?xml version="1.0" encoding="utf-8" ?>
<svg baseProfile="full" height="300" version="1.1" width="300" xmlns="http://www.w3.org/2000/svg" xmlns:ev="http://www.w3.org/2001/xml-events" xmlns:xlink="http://www.w3.org/1999/xlink"><defs /><rect fill="none" height="300" width="300" x="0" y="0" /><path d="M107.386361664,247.853527233 m-3.15656549509,-67.550501844 l5.05050495823,-26.5151499926 1.89393925553,-22.7272718968 l-1.89393925553,-46.08585764 0.0,-7.57575702211 l1.89393925553,-2.52525247912 m64.3939392555,156.565647892 l-0.631313119779,-72.6010059717 -5.05050495823,-32.8282801523 l-3.78787851106,-44.8232299472 m-2.52525247912,-17.676767769 l0.0,-25.8838378071 m-10.7323229324,8.83838388452 l-7.57575702211,-1.89393925553 -8.20707003808,1.89393925553 l-5.05050495823,18.3080799545 -0.631313119779,14.5202018587 l1.89393925553,5.05050495823 13.8888880123,1.26262623956 l6.31313099017,-3.78787851106 5.05050495823,-6.31313099017 l2.52525247912,-17.676767769 -3.78787851106,-4.41919194226 l-10.7323229324,-3.78787851106 -13.8888880123,0.0 l-3.78787851106,3.15656549509 6.94444400614,1.26262623956 m27.1464638391,1.89393925553 l49.2424235504,-23.3585857432 20.2020198329,-7.57575702211 m-42.2979778833,38.5100981265 l44.1919161007,-6.31313099017 m-118.055556409,129.419192357 l19.5707059865,-28.409089871 m-46.08585764,38.5100981265 l15.1515140442,-26.5151499926 45.4545437936,-41.0353535123 m-44.8232299472,91.5404014337 l49.2424235504,-31.5656557813 67.550501844,-32.8282801523 m-134.469689842,118.686870256 l45.4545437936,-35.9848460627 73.2323198182,-49.2424235504 m-107.95454151,-21.4646458649 l54.2929276781,-52.3989894607 70.7070710762,-38.5100981265 m-157.828275585,114.26767333 l56.1868658956,-40.4040396658 71.3383782789,-39.141411973 m-83.9646419202,79.5454516388 l17.676767769,-15.7828278907 47.9797958575,-23.3585857432 m-44.1919161007,7.57575702211 l11.9949489644,-15.7828278907 39.141411973,-23.9898979287 m-50.5050479214,60.6060561769 l8.20707003808,-21.4646458649 33.4595939988,-30.9343419349 l56.818179742,-38.5100981265 " fill="none" stroke="black" stroke-width="1" /></svg>