<?xml version="1.0" encoding="utf-8" ?>
<svg baseProfile="full" height="300" version="1.1" width="300" xmlns="http://www.w3.org/2000/svg" xmlns:ev="http://www.w3.org/2001/xml-events" xmlns:xlink="http://www.w3.org/1999/xlink"><defs /><rect fill="none" height="300" width="300" x="0" y="0" /><path d="M104.670333559,146.369698952 m-16.4835160552,36.8916813961 l39.0502355089,-28.4536892522 14.1287283423,-10.9890113918 l-11.9701721644,11.1852429268 -6.86813160361,5.49450569591 l-5.29827312837,3.33594977617 9.02668778149,-10.7927788243 l60.4395605899,-60.4395605899 10.5965462567,-13.1475665371 l-1.37362642398,-0.196232341673 -34.1444275156,19.6232340382 l-76.9230756125,48.4693863604 -52.5902661486,36.1067511259 l7.84929340878,-2.35478797101 21.9780227836,-10.4003136892 l52.9827312837,-25.7064353717 59.8508628873,-30.0235477274 l27.668758982,-11.7739406294 11.9701721644,-3.53218208558 l1.56985873338,0.0 -0.588696992752,1.1773939855 l-12.9513339696,10.0078495867 -18.2496081305,11.7739406294 l-57.1036110719,33.7519623805 -22.9591835563,12.5588698671 l-36.3029836935,18.4458406981 1.56985873338,-0.196232341673 l18.053375563,-8.24175802759 26.0989005067,-12.5588698671 l116.758237261,-60.0470954548 27.0800633445,-13.1475665371 l13.5400316722,-6.08320236599 3.92464670439,-1.1773939855 l-131.083198171,92.6216644952 -33.7519623805,26.6875982094 l-18.053375563,15.306122715 -53.1789638512,0.196232341673 l1.76609104279,-0.784929366691 89.0894782794,-67.8963898961 l8.43799059513,-6.67189955234 5.49450569591,-5.29827312837 l-10.7927788243,1.37362642398 -53.7676615538,20.2119317408 l-29.4348500248,9.81161701911 -18.2496081305,3.72841439498 l-5.29827312837,0.196232341673 -1.1773939855,-1.37362642398 " fill="none" stroke="black" stroke-width="1" /></svg>