<?xml version="1.0" encoding="utf-8" ?>
<svg baseProfile="full" height="300" version="1.1" width="300" xmlns="http://www.w3.org/2000/svg" xmlns:ev="http://www.w3.org/2001/xml-events" xmlns:xlink="http://www.w3.org/1999/xlink"><defs /><rect fill="none" height="300" width="300" x="0" y="0" /><path d="M158.663368525,168.56435635 m3.71287112745,26.6089108999 l0.618811888492,56.9306941483 m-3.71287112745,-86.0148538232 l38.366335662,20.4207914045 77.3514839247,23.5148511522 m-114.480200897,-43.9356425567 l-59.4059380392,-27.2277218726 -6.80693046816,-9.28217842913 l3.71287112745,-14.2326735371 m63.7376262445,-21.0396040052 l3.71287112745,3.09405934071 m1.23762377698,14.2326735371 l0.618811888492,27.2277218726 -4.3316833212,9.90099021587 l-9.28217842913,5.56930689468 3.09405934071,-3.71287112745 m6.80693046816,-55.6930689468 l-6.18811868142,29.7029690196 m-45.1732677582,-15.4702971106 l0.0,0.0 m-22.2772275787,4.3316833212 l27.8465344734,-1.85643556372 22.2772275787,-16.0891080833 l50.1237620521,-8.6633666424 m-83.5396034201,23.5148511522 l0.0,-32.7970287673 -4.95049510794,-14.2326735371 l-11.7574255761,-12.9950491496 -6.18811868142,-2.47524755397 l-3.71287112745,3.09405934071 -7.4257422549,12.9950491496 l-1.23762377698,16.707920684 6.80693046816,21.0396040052 l7.4257422549,20.4207914045 7.4257422549,11.1386137894 l5.56930689468,3.09405934071 m-28.4653470741,-66.2128701354 l-45.1732677582,-9.90099021587 20.4207914045,22.2772275787 " fill="none" stroke="black" stroke-width="1" /></svg>