<?xml version="1.0" encoding="utf-8" ?>
<svg baseProfile="full" height="300" version="1.1" width="300" xmlns="http://www.w3.org/2000/svg" xmlns:ev="http://www.w3.org/2001/xml-events" xmlns:xlink="http://www.w3.org/1999/xlink"><defs /><rect fill="none" height="300" width="300" x="0" y="0" /><path d="M247.37827925,275.0 m-2.80898862392,-5.61797724784 l-1.87265918526,-44.9438179827 0.936329592628,-104.868916838 m-0.936329592628,4.68164780918 l-4.68164780918,0.0 -0.936329592628,16.8539323594 l-14.0449440434,64.6067423532 -4.68164780918,-0.936329592628 l-17.790261798,-16.8539323594 -34.6441953891,-22.4719089914 m78.6516827015,-47.7528099938 l-47.7528099938,18.7265912367 -44.0074922392,1.87265918526 l-42.1348308985,-14.981273482 -42.1348308985,-23.4082396617 l-15.9176029207,-14.0449440434 4.68164780918,-0.936329592628 l4.68164780918,3.74531837051 16.8539323594,2.80898862392 l49.6254664078,0.936329592628 -23.4082396617,-32.7715340484 l-11.2359544957,-23.4082396617 38.3895131438,32.7715340484 l4.68164780918,1.87265918526 0.936329592628,-5.61797724784 l-34.6441953891,-39.3258413508 59.9250939282,45.8801486531 l-20.599250114,-46.8164793235 38.3895131438,37.4531824734 l12.1722839344,-18.7265912367 9.36329561836,-6.55430730236 l23.4082396617,-5.61797724784 " fill="none" stroke="black" stroke-width="1" /></svg>