<?xml version="1.0" encoding="utf-8" ?>
<svg baseProfile="full" height="300" version="1.1" width="300" xmlns="http://www.w3.org/2000/svg" xmlns:ev="http://www.w3.org/2001/xml-events" xmlns:xlink="http://www.w3.org/1999/xlink"><defs /><rect fill="none" height="300" width="300" x="0" y="0" /><path d="M35.6060608571,129.54545076 m-2.65151527656,8.71212148061 l-1.13636360097,11.7424240844 -1.13636360097,40.1515144824 l-5.68181837858,52.2727288836 101.893939501,7.57575750592 l114.772726564,17.0454546375 31.0606066712,3.78787875296 l0.378787887753,-1.89393937648 1.89393937648,-20.0757572412 l-5.30303055311,-17.4242429612 -1.51515155101,-13.63636371 l0.0,-36.7424235549 1.51515155101,-7.57575750592 l-1.89393937648,-5.68181837858 5.30303055311,-16.2878789865 l-4.16666657843,-6.43939402952 -0.757575775506,-3.78787875296 l-5.68181837858,-1.51515155101 -14.3939393609,0.378787887753 l-31.4393949949,6.43939402952 -12.878788059,0.378787887753 l-32.5757579731,4.16666657843 -10.2272727825,0.0 l-24.2424248162,-1.51515155101 -47.3484846612,0.0 l-21.5909085431,-4.16666657843 -7.57575750592,-4.5454544039 l-7.19696968045,-1.89393937648 -17.803031285,-1.51515155101 l-1.51515155101,1.89393937648 m83.3333355548,8.71212148061 l2.27272720195,38.2575768499 1.51515155101,8.33333315686 l-3.78787875296,13.63636371 -4.16666657843,33.7121209512 l-3.40909092749,15.5303033356 2.65151527656,6.06060620405 m54.1666665161,-114.39393824 l9.84848445873,44.6969703812 5.30303055311,17.0454546375 l6.43939402952,15.5303033356 0.378787887753,10.6060611062 l-3.40909092749,31.4393949949 m-18.5606059393,-67.0454535786 l-4.16666657843,-6.81818185499 -0.757575775506,1.89393937648 l4.16666657843,5.68181837858 -2.27272720195,-5.68181837858 l-4.16666657843,-3.78787875296 m-96.9696992648,-51.8939405599 l35.9848469074,-20.454545565 109.848486327,-54.9242431636 l58.7121224149,-36.3636352312 0.378787887753,2.27272720195 l-10.2272727825,27.6515157437 -11.3636367572,37.5000002024 l-6.06060620405,24.6212131399 -3.78787875296,22.7272735143 l-0.757575775506,12.4999997353 " fill="none" stroke="black" stroke-width="1" /></svg>