<?xml version="1.0" encoding="utf-8" ?>
<svg baseProfile="full" height="300" version="1.1" width="300" xmlns="http://www.w3.org/2000/svg" xmlns:ev="http://www.w3.org/2001/xml-events" xmlns:xlink="http://www.w3.org/1999/xlink"><defs /><rect fill="none" height="300" width="300" x="0" y="0" /><path d="M103.451883176,269.246861946 m13.5983258553,-92.0502074836 m2.0920502639,5.23012548775 l48.1171564137,-6.2761504477 17.7824270711,-20.920501951 l0.0,-23.0125518709 -10.4602509755,-14.6443521913 l-12.5523008954,-7.32217609565 -57.5313824292,2.0920502639 l-25.1046017908,-8.3682010556 -13.5983258553,-20.920501951 l-1.04602513195,-42.8870302379 -8.3682010556,-7.32217609565 l-8.3682010556,-2.0920502639 -14.6443521913,1.04602513195 l13.5983258553,16.7364021112 -19.874476991,41.841003902 l-2.0920502639,23.0125518709 8.3682010556,40.794980318 l38.7029303981,34.5188278063 25.1046017908,3.13807522385 l25.1046017908,-5.23012548775 m64.8535557729,-75.3138081244 l8.3682010556,-1.04602513195 19.874476991,2.0920502639 l20.920501951,43.9330538219 6.2761504477,44.9790801578 l26.1506281267,39.7489539821 5.23012548775,-2.0920502639 m1.04602513195,-82.635981468 l-12.5523008954,7.32217609565 " fill="none" stroke="black" stroke-width="1" /></svg>