<?xml version="1.0" encoding="utf-8" ?>
<svg baseProfile="full" height="300" version="1.1" width="300" xmlns="http://www.w3.org/2000/svg" xmlns:ev="http://www.w3.org/2001/xml-events" xmlns:xlink="http://www.w3.org/1999/xlink"><defs /><rect fill="none" height="300" width="300" x="0" y="0" /><path d="M173.85496516,187.849874382 m2.54452928231,79.5165378757 l3.18066149829,2.54452928231 19.0839698266,-0.636132320579 l-22.9007631224,5.72519078061 m-2.54452928231,-87.1501278147 l-31.8066158197,12.7226459932 -23.5368961752,2.54452928231 m-8.26971964452,0.0 l-8.9058526973,2.54452928231 m-1.27226464116,-12.0865137772 l-35.6234107892,9.54198491328 m36.2595404948,-13.3587782091 l-34.3511446836,5.72519078061 -31.8066158197,8.9058526973 m53.4351128366,-37.5318066003 l-39.4402024115,13.3587782091 -13.9949104251,11.4503815612 m52.798983131,-19.0839698266 l-43.8931304337,10.1781171293 m36.2595404948,-17.1755723418 l8.26971964452,-8.26971964452 40.712468517,-22.2646300696 l22.9007631224,-1.27226464116 15.9033079099,5.08905856463 l6.36132299659,0.0 6.36132299659,-3.81679371427 l76.3358793062,-82.6972031396 8.26971964452,15.9033079099 l-62.3409655339,61.0686994283 -19.0839698266,22.9007631224 l0.0,3.18066149829 13.3587782091,5.72519078061 l2.54452928231,17.8117053946 -3.18066149829,6.36132299659 l-6.36132299659,5.08905856463 -20.9923656377,5.08905856463 m83.9694625508,-147.58269419 l0.636132320579,-13.3587782091 3.18066149829,-6.36132299659 l10.1781171293,-3.18066149829 " fill="none" stroke="black" stroke-width="1" /></svg>