<?xml version="1.0" encoding="utf-8" ?>
<svg baseProfile="full" height="300" version="1.1" width="300" xmlns="http://www.w3.org/2000/svg" xmlns:ev="http://www.w3.org/2001/xml-events" xmlns:xlink="http://www.w3.org/1999/xlink"><defs /><rect fill="none" height="300" width="300" x="0" y="0" /><path d="M195.098846636,105.41598106 m-31.5074129932,-5.56013170468 l-23.0642509974,-1.64744646111 -9.6787482638,0.411861615279 l-29.0362426243,3.29489292223 -24.9176282323,9.06095512979 l-12.9736406442,6.79571634734 -5.14827015712,3.91268524356 l-4.53047756489,3.70675446978 -7.41350893957,8.44316307935 l-2.47116955622,5.56013170468 0.0,3.70675446978 l1.02965400433,2.88303137467 1.85337723489,2.67710033 l4.53047756489,1.64744646111 15.2388799685,-2.05930800867 l7.41350893957,-2.05930800867 22.2405268187,-7.82537048712 l58.8962094272,-17.9159802985 22.652388908,-5.76606274935 l21.41680264,-3.70675446978 18.3278413042,-1.23558477811 l23.6820419642,1.64744646111 11.9439865045,2.47116955622 l7.41350893957,2.47116955622 7.41350893957,4.11861601734 l-1.44151568734,1.02965400433 -10.9143323647,-3.29489292223 l-15.6507409742,-5.97199325223 -19.5634254051,-5.56013170468 l-21.2108737625,-3.50082369601 -29.2421736689,0.205930807639 l-20.1812185391,1.85337723489 -14.8270178791,2.47116955622 l-11.7380554598,2.88303137467 -10.9143323647,3.50082369601 l-11.326194454,4.53047756489 -22.652388908,10.9143323647 l-11.9439865045,7.61943998424 -10.2965403142,8.23723203468 l-9.6787482638,9.6787482638 -7.82537048712,10.2965403142 l-5.97199325223,10.70840132 -6.58978584446,19.3574965276 l-1.44151568734,6.38385479979 8.23723203468,-5.76606274935 l12.1499175491,-12.7677095996 11.326194454,-9.6787482638 m85.0494260946,-10.2965403142 l-78.8714947545,5.14827015712 78.8714947545,-5.14827015712 m133.237229868,-31.5074129932 l-8.44316307935,-3.08896214845 -23.6820419642,-7.00164739201 l-30.477759937,-6.38385479979 -17.9159802985,-1.23558477811 l-19.7693564498,-0.411861615279 -14.003294784,0.823723230557 l-17.9159802985,2.05930800867 -12.7677095996,2.47116955622 l-10.70840132,2.88303137467 -21.41680264,7.61943998424 l-10.0906092696,5.14827015712 -17.0922572034,11.9439865045 l-11.9439865045,10.5024713589 -10.70840132,11.7380554598 l-4.73640860956,7.00164739201 -3.50082369601,6.79571634734 l-4.53047756489,14.6210868345 m118.410211988,-3.50082369601 l18.7397033936,-5.76606274935 17.9159802985,-2.88303137467 l9.26688617446,-0.823723230557 " fill="none" stroke="black" stroke-width="1" /></svg>