<?xml version="1.0" encoding="utf-8" ?>
<svg baseProfile="full" height="300" version="1.1" width="300" xmlns="http://www.w3.org/2000/svg" xmlns:ev="http://www.w3.org/2001/xml-events" xmlns:xlink="http://www.w3.org/1999/xlink"><defs /><rect fill="none" height="300" width="300" x="0" y="0" /><path d="M85.9375003758,101.04166508 m-10.9374996392,3.64583344146 l2.60416659708,-2.08333334618 22.3958332145,-11.9791668262 l29.6874987271,16.6666667694 1.04166667309,2.60416659708 l-1.56249992399,13.5416658937 -7.81250013382,9.37499988652 l-11.4583328901,6.24999969597 -11.9791668262,0.0 l-8.33333338472,-4.16666669236 -6.24999969597,-10.9374996392 l-0.520833336545,-5.72916644507 2.60416659708,-10.9374996392 l-2.60416659708,-2.08333334618 -44.791666429,8.33333338472 l-13.020833328,5.20833319417 35.9375004785,-1.04166667309 l29.6874987271,8.33333338472 m-14.5833337658,-11.4583328901 l-27.6041657235,-0.520833336545 m60.4166653264,21.3541667127 l-1.56249992399,7.29166688291 2.08333334618,7.29166688291 l4.16666669236,6.77083294687 21.3541667127,16.6666667694 l33.8541674749,11.4583328901 31.2500005353,-7.29166688291 l3.64583344146,-34.3749986704 -9.37499988652,-18.749999773 l0.0,-2.60416659708 -12.4999993919,-11.4583328901 l-18.229165837,-3.12499984799 -23.9583336523,1.56249992399 m4.16666669236,26.041666656 l17.7083332712,-8.85416663562 -1.04166667309,6.24999969597 l-6.24999969597,7.81250013382 44.270832493,13.5416658937 l-29.1666675316,1.56249992399 27.0833317875,27.6041657235 l-36.9791656101,-14.0624998298 -2.60416659708,-4.68749994326 m-7.29166688291,11.4583328901 l4.68749994326,28.6458335956 0.520833336545,17.1874993352 l-12.4999993919,21.8749992785 m15.6250002676,-20.8333327767 l-10.4166663883,20.3125002109 m12.4999993919,-19.7916662749 l6.77083294687,14.5833337658 m-11.4583328901,-128.645828731 l24.4791675884,-52.0833333119 6.77083294687,17.1874993352 l1.56249992399,10.4166663883 -0.520833336545,7.29166688291 l-7.81250013382,26.041666656 32.8124996028,-46.8749994326 l6.24999969597,-11.4583328901 -30.2083326632,66.1458331417 l0.0,-3.12499984799 5.72916644507,-4.68749994326 l80.7291669075,-29.6874987271 -87.4999971139,30.7291665992 l-24.4791675884,13.020833328 " fill="none" stroke="black" stroke-width="1" /></svg>