<?xml version="1.0" encoding="utf-8" ?>
<svg baseProfile="full" height="300" version="1.1" width="300" xmlns="http://www.w3.org/2000/svg" xmlns:ev="http://www.w3.org/2001/xml-events" xmlns:xlink="http://www.w3.org/1999/xlink"><defs /><rect fill="none" height="300" width="300" x="0" y="0" /><path d="M63.4000011055,102.599997936 m2.39999986972,0.0 l25.1999995528,10.3999993477 12.8000000067,0.0 l5.60000013449,-1.19999993486 17.9999996806,-9.99999993949 l21.1999991561,-8.79999960999 7.99999974112,-4.79999973943 l23.5999998151,-24.7999990922 1.99999993528,-7.99999974112 l-1.19999993486,-30.3999992267 0.0,1.99999993528 l22.7999988939,4.399999805 2.80000006725,10.7999998084 l11.200000269,1.60000000084 18.8000006018,6.00000006893 l-8.79999960999,1.99999993528 -1.99999993528,1.60000000084 l-11.5999996772,0.40000000021 -4.399999805,2.80000006725 l0.40000000021,6.79999993781 -11.5999996772,34.8000000841 l-15.1999996134,16.3999999429 -22.400000538,19.999999879 l-13.5999998756,6.79999993781 -16.3999999429,3.59999993612 l-17.1999998117,1.19999993486 -12.8000000067,0.0 l-7.59999980668,-1.99999993528 -12.3999995461,-12.3999995461 l-13.5999998756,-9.20000007061 -2.39999986972,-28.799999489 m22.7999988939,17.9999996806 l16.7999993511,6.79999993781 28.3999990283,-10.3999993477 l14.8000002051,-12.8000000067 m-33.5999987022,59.2000008204 l-12.0000001379,35.19999844 -9.59999947887,23.1999993545 l-13.5999998756,44.8000010759 -9.20000007061,17.1999998117 m46.399998709,-121.199996446 l6.79999993781,-14.3999997445 26.0000004741,37.9999974549 l14.3999997445,27.1999997512 " fill="none" stroke="black" stroke-width="1" /></svg>