<?xml version="1.0" encoding="utf-8" ?>
<svg baseProfile="full" height="300" version="1.1" width="300" xmlns="http://www.w3.org/2000/svg" xmlns:ev="http://www.w3.org/2001/xml-events" xmlns:xlink="http://www.w3.org/1999/xlink"><defs /><rect fill="none" height="300" width="300" x="0" y="0" /><path d="M99.6527747169,156.944444286 m34.7222217147,59.0277782853 l11.2847217147,3.47222228566 28.6458325721,-10.416666286 l8.68055542868,0.0 18.229166286,15.625 l24.3055565706,9.54861085736 7.8125,-3.47222228566 l0.868055571415,-4.34027771434 -6.07638914264,-12.1527782853 l-28.6458325721,-32.1180565706 -30.3819434294,-18.229166286 l-19.9652782853,-19.0972217147 12.1527782853,-4.34027771434 l56.4236131411,-7.8125 32.1180565706,3.47222228566 l25.1736108574,8.68055542868 m-123.263886859,7.8125 l-35.5902782853,-39.0625 -8.68055542868,-16.4930554287 l-6.07638914264,-26.0416674279 -11.2847217147,-5.20833314302 l-19.9652782853,0.868055571415 -18.229166286,6.07638914264 l26.9097217147,54.6875 17.3611108574,19.9652782853 m33.8541674279,8.68055542868 l-59.8958348559,-7.8125 -23.4375,-38.1944434294 l-13.8888891426,-10.416666286 -7.8125,19.9652782853 l39.9305565706,16.4930554287 " fill="none" stroke="black" stroke-width="1" /></svg>