<?xml version="1.0" encoding="utf-8" ?>
<svg baseProfile="full" height="300" version="1.1" width="300" xmlns="http://www.w3.org/2000/svg" xmlns:ev="http://www.w3.org/2001/xml-events" xmlns:xlink="http://www.w3.org/1999/xlink"><defs /><rect fill="none" height="300" width="300" x="0" y="0" /><path d="M174.647890144,174.647887539 m2.64084504953,6.16197226472 l7.92253543807,84.5070415848 0.0,9.68309861143 l-2.64084504953,-4.40140851237 m-2.64084504953,-99.4718297163 l29.0492958343,48.4154953731 3.5211269257,-61.6197180153 m25.5281694876,-40.492959935 l-10.5633801981,22.0070431409 -22.0070431409,17.6056340495 l-25.5281694876,11.4436617848 -30.8098590076,-0.880281731424 l-14.9647892895,-12.3239445294 -4.40140851237,-14.0845077028 l53.6971825772,-18.4859156362 53.6971825772,-2.64084504953 m-111.795778878,29.9295785789 l3.5211269257,-39.6126771904 -0.880281731424,-23.7676063142 l-23.7676063142,-58.0985916686 m-2.64084504953,-3.5211269257 l-4.40140851237,0.0 -11.4436617848,27.2887326609 m-22.0070431409,6.16197226472 l28.1690154056,-0.880281731424 22.0070431409,-6.16197226472 l-4.40140851237,-2.64084504953 -47.5352126284,0.880281731424 l4.40140851237,-1.76056346285 17.6056340495,8.80281702475 l16.7253524628,0.880281731424 4.40140851237,-2.64084504953 l-6.16197226472,-1.76056346285 -36.0915508436,6.16197226472 " fill="none" stroke="black" stroke-width="1" /></svg>