<?xml version="1.0" encoding="utf-8" ?>
<svg baseProfile="full" height="300" version="1.1" width="300" xmlns="http://www.w3.org/2000/svg" xmlns:ev="http://www.w3.org/2001/xml-events" xmlns:xlink="http://www.w3.org/1999/xlink"><defs /><rect fill="none" height="300" width="300" x="0" y="0" /><path d="M144.762349097,184.161975606 m2.97060658562,-2.1888681187 l4.37773623741,-1.87617252627 5.47216988542,-3.75234505254 l4.22138833836,-0.312695438184 3.28330197239,5.00312701094 l3.126954279,3.59599756482 -0.469043131567,-1.09443405935 l0.0,-3.90869295159 2.65791119885,-7.50469010507 l4.0650404393,-9.06816745024 m7.66103800413,-12.6641650151 l2.50156350547,-1.25078175274 1.40712944612,-4.53408372512 l1.09443405935,-1.71982483289 2.97060658562,-0.781738569751 l4.53408372512,0.469043131567 m-65.0406470289,2.97060658562 l0.0,22.3577232388 0.781738569751,6.41025645706 l0.625390876368,24.3902442812 5.31582239771,-17.6672912033 l4.84677911189,-11.8824263425 2.81425889224,-5.31582239771 m20.3252038419,-17.1982491515 l2.81425889224,-0.781738569751 2.97060658562,0.0 l1.71982483289,0.625390876368 9.06816745024,0.469043131567 l-3.59599756482,4.69043162417 -3.90869295159,3.75234505254 l-19.3871164476,9.2245153493 -31.2695436127,9.38086324835 l20.4815500956,0.156347719092 12.6641650151,-0.781738569751 l15.7911197054,-1.71982483289 88.8055013592,0.0 l0.781738569751,-0.156347719092 0.0,-0.938086263134 l-1.5634771395,-0.156347719092 -5.00312701094,2.03252021965 l-25.1719821311,8.13008087861 -6.09756107029,0.469043131567 l-19.3871164476,0.0 -13.1332078895,-2.97060658562 l-6.87929933154,-3.28330197239 -6.41025645706,-7.3483430287 l-2.97060658562,-5.94121317124 -1.09443405935,-3.43964966577 l-1.25078175274,-5.00312701094 -0.312695438184,-7.50469010507 l0.0,-10.9443397708 1.71982483289,-5.94121317124 l0.0,-9.06816745024 -1.09443405935,-6.09756107029 l0.781738569751,0.469043131567 1.25078175274,2.97060658562 l3.43964966577,13.9149465621 3.28330197239,10.6316447954 l3.90869295159,8.13008087861 5.47216988542,8.44277667671 l3.90869295159,4.84677911189 14.5403381583,13.1332078895 l11.1006876699,8.28642877766 14.2276423602,8.13008087861 l40.4940597847,20.7942458937 -0.156347719092,-19.6998122457 l-2.03252021965,-6.09756107029 -4.37773623741,-4.84677911189 l-12.9768608132,-6.87929933154 -27.9862410233,-10.4752968964 l-96.9355855285,-30.8004999156 -26.4227636781,-6.09756107029 l-79.1119447807,-26.7354594763 0.156347719092,-8.91181955119 l1.71982483289,-1.25078175274 12.1951221406,-3.126954279 l22.9831148351,-1.5634771395 m77.8611615883,105.534706814 l3.43964966577,-1.25078175274 2.03252021965,-0.156347719092 l-1.5634771395,0.469043131567 -0.312695438184,1.09443405935 l-0.938086263134,0.781738569751 -2.50156350547,0.625390876368 l0.781738569751,0.0 -0.625390876368,-1.5634771395 l1.71982483289,-0.938086263134 -0.156347719092,1.5634771395 l0.938086263134,-0.781738569751 " fill="none" stroke="black" stroke-width="1" /></svg>