<?xml version="1.0" encoding="utf-8" ?>
<svg baseProfile="full" height="300" version="1.1" width="300" xmlns="http://www.w3.org/2000/svg" xmlns:ev="http://www.w3.org/2001/xml-events" xmlns:xlink="http://www.w3.org/1999/xlink"><defs /><rect fill="none" height="300" width="300" x="0" y="0" /><path d="M77.7859256411,123.973604173 m0.733137844406,57.1847521048 l6.59824047911,82.8445714753 m46.920822042,-115.835773871 l4.39882682534,86.5102649167 36.6568919792,-6.59824047911 l-45.4545446655,10.9970677866 38.1231654981,1.46627568881 l-21.260996885,-0.733137844406 -10.9970677866,-4.39882682534 l-10.2639300628,7.33137820296 m-32.9912023955,11.7302055105 l24.9266864687,-13.1964809582 -27.8592373641,15.3958941298 l-12.4633432344,18.3284459896 9.53079137453,-46.1876833537 l-13.9296186821,8.06451592682 -15.3958941298,5.1319650314 m-14.6627564059,-131.231670894 l44.7214059772,-5.1319650314 106.304986354,-2.19941341267 l8.79765365067,8.06451592682 31.5249269478,14.6627564059 l7.33137820296,7.33137820296 3.66568910148,7.33137820296 l-18.3284459896,16.8621705419 -27.8592373641,7.33137820296 l-35.1906146027,-4.39882682534 -28.5923760524,0.0 l-20.5278601256,-13.9296186821 -24.9266864687,-10.2639300628 l-53.5190625211,-14.6627564059 -2.93255137763,-3.66568910148 l0.733137844406,-3.66568910148 10.2639300628,-7.33137820296 l5.86510275525,-1.46627568881 m129.765393517,-6.59824047911 l0.733137844406,-21.260996885 10.9970677866,-17.5953073013 l13.9296186821,-12.4633432344 43.2551324583,-21.260996885 l8.06451592682,-1.46627568881 11.7302055105,1.46627568881 l-13.9296186821,3.66568910148 -62.3167152074,38.1231654981 l-4.39882682534,11.7302055105 -1.46627568881,19.0615827491 l32.9912023955,-32.2580637073 43.9882711466,-29.3255128118 l8.06451592682,-12.4633432344 " fill="none" stroke="black" stroke-width="1" /></svg>