<?xml version="1.0" encoding="utf-8" ?>
<svg baseProfile="full" height="300" version="1.1" width="300" xmlns="http://www.w3.org/2000/svg" xmlns:ev="http://www.w3.org/2001/xml-events" xmlns:xlink="http://www.w3.org/1999/xlink"><defs /><rect fill="none" height="300" width="300" x="0" y="0" /><path d="M95.7070652655,98.5479780216 m29.3560620425,-6.62878781469 l18.9393947054,-0.946969672984 11.6792934293,0.946969672984 l5.0505051994,4.10353521499 41.3510090882,53.0303025176 l21.7803038281,23.0429299204 -48.9267689635,2.84090912276 l-21.7803038281,-0.631313149925 -26.8308081971,-2.5252525997 l-15.467171706,-2.84090912276 -28.4090912276,-7.57575738387 l-10.4166665066,-3.78787869193 -0.315656574963,-2.5252525997 l13.2575756294,-29.6717189808 2.84090912276,-9.78535346051 l3.78787869193,-1.57828282291 3.47222216888,0.631313149925 l5.36616172246,-1.26262629985 11.0479795527,-4.10353521499 l5.99747476858,-3.78787869193 m104.482326987,61.8686868241 l6.31313129164,-22.4116160438 5.0505051994,-38.5100999655 l1.57828282291,-6.31313129164 2.84090912276,-5.0505051994 l9.46969735269,-7.26010127604 3.47222216888,-1.26262629985 l14.8358594904,3.15656564582 9.46969735269,4.41919215328 m-94.6969685441,82.0707109436 m-9.78535346051,13.5732325677 l0.0,0.0 m6.62878781469,-10.4166665066 l7.89141432216,34.0909094731 m-91.8560627432,-51.1363642097 l-2.5252525997,13.5732325677 -4.73484867634,16.7297977983 l1.26262629985,5.0505051994 -0.946969672984,7.26010127604 m185.606067116,-111.426766342 l-11.6792934293,12.9419195216 -3.78787869193,1.57828282291 l-7.89141432216,0.315656574963 -11.363636491,-7.89141432216 m-160.037881689,24.9368682283 l-0.946969672984,1.57828282291 1.89393934597,1.26262629985 l15.467171706,3.47222216888 1.89393934597,1.57828282291 l1.89393934597,8.52272736828 -0.946969672984,4.10353521499 l-1.57828282291,1.26262629985 -11.9949495372,-1.26262629985 l-29.0404051042,-6.31313129164 -6.94444433775,-0.946969672984 l-10.1010103988,0.315656574963 -11.6792934293,-3.47222216888 " fill="none" stroke="black" stroke-width="1" /></svg>