<?xml version="1.0" encoding="utf-8" ?>
<svg baseProfile="full" height="300" version="1.1" width="300" xmlns="http://www.w3.org/2000/svg" xmlns:ev="http://www.w3.org/2001/xml-events" xmlns:xlink="http://www.w3.org/1999/xlink"><defs /><rect fill="none" height="300" width="300" x="0" y="0" /><path d="M62.5882932605,172.325937862 m-1.51362252624,6.81130161699 l-1.76589308556,21.6952571497 m25.7315847713,-29.5156403403 l-0.252270434868,18.4157417039 -6.81130161699,68.8698283456 l1.76589308556,-7.06357234223 m-20.9384463014,-51.4631695427 l7.82038319053,2.01816347894 m-8.82946476408,0.0 l0.504540869736,5.04540853143 3.02724505249,6.05449010498 m0.252270434868,-40.6155389767 l-6.55903089175,0.0 -5.80222004344,-1.00908173947 l-11.3521693616,-9.83854700133 -8.32492397731,-8.82946476408 l-0.504540869736,-10.3430877881 1.76589308556,-8.07265391577 l2.27043387233,-5.04540853143 2.7749746591,-1.76589308556 l14.8839555328,-1.00908173947 10.0908170629,0.0 l11.6044400869,2.01816347894 25.2270433209,7.82038319053 l34.0565080849,13.3703325087 22.9566094485,10.5953578496 l0.756811263122,1.26135213286 -0.756811263122,1.26135213286 l-4.54086774466,1.26135213286 -9.33400621456,1.00908173947 l-16.1453078315,0.0 -18.1634709786,4.28859735127 l-17.9112002534,0.504540869736 -8.57719470255,2.01816347894 m64.8335020514,-12.8657923857 l1.26135213286,0.0 5.29767892482,-4.28859735127 l20.9384463014,-23.7134216242 24.9747725956,-41.6246218776 l39.6064587306,-56.5085787378 9.33400621456,-8.07265391577 l9.08173548932,0.0 10.5953578496,12.3612509352 l4.03632695789,7.31584240376 1.00908173947,3.7840565645 l-0.252270434868,23.461150899 -1.26135213286,7.06357234223 l-4.79313813805,19.9293634005 -9.33400621456,26.7406650175 l-1.00908173947,5.04540853143 m-179.112002534,131.180628454 l10.3430877881,-6.30676083022 24.9747725956,-10.8476285749 l21.6952571497,-8.32492397731 3.7840565645,-2.27043387233 m-54.7426836611,23.9656896947 l12.10898021,-1.00908173947 7.82038319053,0.756811263122 l26.7406650175,9.08173548932 19.1725525522,7.568113129 l-5.5499493182,0.504540869736 m-64.5812313262,-11.8567108121 l13.8748739592,0.504540869736 13.622603234,4.03632695789 " fill="none" stroke="black" stroke-width="1" /></svg>