<?xml version="1.0" encoding="utf-8" ?>
<svg baseProfile="full" height="300" version="1.1" width="300" xmlns="http://www.w3.org/2000/svg" xmlns:ev="http://www.w3.org/2001/xml-events" xmlns:xlink="http://www.w3.org/1999/xlink"><defs /><rect fill="none" height="300" width="300" x="0" y="0" /><path d="M104.500003969,217.749992484 m2.99999983951,-42.9999995633 l0.0,-32.0000000421 -1.75000004341,-14.499999608 m-1.00000000132,20.4999999448 l45.4999998132,25.9999983899 75.2499972625,37.000000542 l49.4999991607,41.2500001776 -1.00000000132,-1.49999991976 m-168.49999422,-124.749996423 l7.74999972244,0.0 24.4999992923,2.74999988029 l21.7500000697,3.75000004604 4.4999999237,1.49999991976 m4.99999984214,2.24999996185 l0.0,-2.00000000263 2.00000000263,-2.49999992107 l19.5000001079,-8.99999984741 4.99999984214,-4.99999984214 m-1.75000004341,5.75000004867 l-1.00000000132,29.7500000802 -5.49999976059,37.2499981991 l-7.50000009208,69.2500008721 1.24999996054,-0.749999959879 l1.49999991976,-10.2499999724 m18.500000271,-105.999995864 l0.500000000658,4.74999988292 2.49999992107,7.74999972244 l9.99999968429,22.7499999066 5.75000004867,10.7499998908 l23.9999987161,34.2500000039 12.9999991949,21.9999990423 m-53.4999985083,-104.999994712 l0.250000000329,-10.2499999724 -5.99999967903,-34.2500000039 l0.0,-26.9999995422 -1.00000000132,-3.24999979873 m-3.50000008682,0.0 l-12.4999999342,2.99999983951 -10.7499998908,0.0 l-31.4999994659,-6.24999996711 0.0,-4.99999984214 l2.74999988029,-2.00000000263 8.99999984741,-2.24999996185 l97.9999971691,3.50000008682 14.0000003473,4.74999988292 l0.250000000329,6.24999996711 -1.00000000132,2.74999988029 l-16.4999992818,2.24999996185 -18.2499999829,0.0 l-1.24999996054,0.749999959879 m-112.000002778,8.74999955932 l0.749999959879,-2.74999988029 m-6.24999996711,14.499999608 l-3.75000004604,24.7499995804 -2.99999983951,7.74999972244 l-0.500000000658,-2.74999988029 m9.49999976585,-39.499998161 l-10.2499999724,0.500000000658 -4.99999984214,-1.24999996054 l-25.2500001565,-10.7499998908 -29.7500000802,-14.7499998961 l-14.7499998961,-13.7500000592 13.249999483,-4.4999999237 l18.7499992436,-0.500000000658 82.7500006433,14.7499998961 l4.4999999237,2.00000000263 8.74999955932,5.75000004867 l1.49999991976,1.49999991976 2.24999996185,4.74999988292 l-3.75000004604,14.7499998961 -6.24999996711,2.00000000263 l-18.7499992436,0.0 -40.2499990252,-6.24999996711 l11.5000000973,-0.250000000329 " fill="none" stroke="black" stroke-width="1" /></svg>