<?xml version="1.0" encoding="utf-8" ?>
<svg baseProfile="full" height="300" version="1.1" width="300" xmlns="http://www.w3.org/2000/svg" xmlns:ev="http://www.w3.org/2001/xml-events" xmlns:xlink="http://www.w3.org/1999/xlink"><defs /><rect fill="none" height="300" width="300" x="0" y="0" /><path d="M153.937727005,146.520145431 m-5.8608059194,-0.732600739926 l-0.183150184981,-0.915750894791 7.14285724439,-3.29670326943 l1.83150178958,-0.183150184981 0.0,-1.83150178958 l1.83150178958,-2.74725280484 3.84615373403,-1.46520147985 l2.74725280484,0.366300369963 3.66300357916,2.9304029597 l2.56410264997,4.94505490415 0.915750894791,4.0293038889 l-2.01465194445,12.4542124583 0.732600739926,8.24175817358 l2.01465194445,4.39560419863 3.66300357916,2.19780209931 l4.57875459442,1.64835163472 1.64835163472,1.46520147985 l2.56410264997,10.0732602041 -0.183150184981,1.83150178958 l-0.915750894791,0.732600739926 -10.6227104278,1.83150178958 l-6.77655693466,-0.549450524828 -2.01465194445,-3.66300357916 l-0.549450524828,-5.12820529994 2.01465194445,-19.5970692208 l-0.915750894791,-4.94505490415 -0.183150184981,-5.8608059194 l-1.28205132499,-3.66300357916 -2.38095225418,-2.01465194445 l-5.49450560967,0.549450524828 -2.74725280484,-1.28205132499 l19.9633700124,37.7289391301 11.538461443,28.7545793734 m-12.2710620625,-19.7802196166 l0.732600739926,17.5824167945 m-13.1868130777,-55.6776547888 l3.29670326943,5.8608059194 4.39560419863,5.8608059194 l6.04395583334,11.7216118388 3.4798534243,5.49450560967 l2.74725280484,3.11355311457 6.41025614308,-14.6520143167 l14.102564093,-46.3369961679 0.0,-21.7948720429 l-0.915750894791,-13.3699634735 -3.4798534243,-6.22710622914 l-42.4908417111,0.366300369963 -22.3443213029,5.67765552361 l-27.4725266028,12.2710620625 -47.2527481468,27.4725266028 l-19.7802196166,16.1172155556 -12.0879116667,15.0183151082 l0.0,17.9487175861 0.366300369963,1.09890104966 l4.21245428469,0.732600739926 10.6227104278,-6.9597068486 l17.9487175861,-6.59340653887 26.3736261555,-13.5531138693 l53.2967034983,-31.6849818512 41.5750897321,-23.8095244692 l16.3003659514,-7.87545786385 -1.83150178958,4.39560419863 l-5.49450560967,3.84615373403 -8.24175817358,10.0732602041 l-12.2710620625,19.7802196166 -20.329670804,25.8241749681 l-18.8644695651,26.5567765513 -22.5274716987,34.0659350691 l2.01465194445,0.0 27.1062277386,-11.3553110472 l30.4029310081,-18.3150183777 66.1172157845,-45.2380937931 l29.1208782375,-27.289376207 -37.9120856711,25.0915753123 l-30.2197806123,25.2747257081 -21.2454208555,10.6227104278 l46.3369961679,-42.6739921068 37.7289391301,-32.7838822985 l19.413918825,-14.102564093 -3.66300357916,10.6227104278 l-2.56410264997,11.1721606514 -2.19780209931,12.4542124583 l-1.28205132499,12.8205122862 0.915750894791,5.8608059194 l8.79120839725,33.5164838817 m-120.329671262,-0.183150184981 l3.4798534243,0.549450524828 " fill="none" stroke="black" stroke-width="1" /></svg>