<?xml version="1.0" encoding="utf-8" ?>
<svg baseProfile="full" height="300" version="1.1" width="300" xmlns="http://www.w3.org/2000/svg" xmlns:ev="http://www.w3.org/2001/xml-events" xmlns:xlink="http://www.w3.org/1999/xlink"><defs /><rect fill="none" height="300" width="300" x="0" y="0" /><path d="M150.086865766,129.847116502 m-1.04239050115,0.694927038855 l-3.8220985423,0.347463519428 -45.3439866286,0.0 l-74.8783868655,1.21612234656 0.173731759714,3.99583050199 l1.91104927115,1.56358580886 16.5045160587,5.90687977314 l18.2418338272,4.34329396428 25.1911049014,4.69075742657 l161.744264323,25.8860309118 26.2334948312,4.69075742657 l0.0,32.1403759756 -2.0847810023,4.1695620046 l-118.485057554,0.0 -32.1403759756,-0.694927038855 l-31.7929120562,-1.56358580886 -33.7039599561,-3.99583050199 l-31.4454481368,-5.55941631084 -0.347463519428,-34.3988877949 l1.21612234656,-9.38151485315 6.60180669772,-11.8137595463 l12.8561503902,-13.2036133954 17.1994438974,-11.987491506 l23.8012510522,-10.945100662 28.1445445594,-8.16539296366 l31.6191800965,-6.08061127575 33.7039599561,-3.47463508001 l30.7505202981,-1.73731754 29.1869344892,-0.868658770002 l34.9200836739,0.347463519428 0.0,9.20778289346 l-2.25851273344,3.99583050199 -6.08061127575,5.38568435116 l-10.7713687023,5.21195284855 -16.6782480184,3.99583050199 l-43.780402648,1.56358580886 -24.1487149716,-0.694927038855 l-19.6316876764,-1.21612234656 -14.7671992043,-2.25851273344 l-9.20778289346,-2.77970815542 -1.73731754,-1.38985407771 l0.173731759714,-1.21612234656 2.0847810023,-3.12717161772 l5.03822088887,-4.34329396428 10.945100662,-6.42807519511 l16.5045160587,-6.42807519511 24.843640982,-5.03822088887 l31.7929120562,-3.47463508001 32.6615718546,-2.60597642427 l25.0173729417,-1.21612234656 -0.521195250574,-1.04239050115 l-3.47463508001,-0.347463519428 -33.1827640771,-1.21612234656 " fill="none" stroke="black" stroke-width="1" /></svg>