<?xml version="1.0" encoding="utf-8" ?>
<svg baseProfile="full" height="300" version="1.1" width="300" xmlns="http://www.w3.org/2000/svg" xmlns:ev="http://www.w3.org/2001/xml-events" xmlns:xlink="http://www.w3.org/1999/xlink"><defs /><rect fill="none" height="300" width="300" x="0" y="0" /><path d="M114.701001181,167.441859474 m2.90697685217,49.0033225187 l2.49169424962,6.64451836317 18.687707555,-2.90697685217 l19.9335539969,-4.98338849923 3.737541511,-3.737541511 l-5.39867082865,-6.64451836317 -17.8571428962,-4.56810616982 l15.3654489197,-1.24584712481 4.98338849923,-7.475083022 l-4.56810616982,-6.22923603376 -13.2890367263,-6.22923603376 l2.49169424962,-40.2823908696 4.56810616982,2.90697685217 l21.179402624,-2.49169424962 36.5448493586,-10.3820598742 l46.9269081402,-24.0863783836 21.5946833146,-26.5780734527 l-4.56810616982,-1.24584712481 -7.89036535141,0.415282397698 l-28.654485646,16.1960135785 -41.112956621,16.1960135785 l-39.4518251182,10.7973416573 -24.916944135,-2.49169424962 l-91.3621277667,7.475083022 -12.0431891918,11.212624533 l1.24584712481,14.950166044 18.2724246793,12.0431891918 l101.328899302,-5.39867082865 " fill="none" stroke="black" stroke-width="1" /></svg>