<?xml version="1.0" encoding="utf-8" ?>
<svg baseProfile="full" height="300" version="1.1" width="300" xmlns="http://www.w3.org/2000/svg" xmlns:ev="http://www.w3.org/2001/xml-events" xmlns:xlink="http://www.w3.org/1999/xlink"><defs /><rect fill="none" height="300" width="300" x="0" y="0" /><path d="M118.560607946,40.9090914606 m-28.7878779114,4.54545427593 l29.5454545375,3.78787864632 m0.757575754178,-10.6060608076 l9.09090855186,-11.3636364372 15.9090902149,-2.27272713797 l17.4242424707,15.9090902149 1.51515150836,25.7575753929 l-2.27272713797,60.6060583412 m-42.4242432305,-81.8181799564 l-3.03030301671,45.454545749 0.757575754178,34.8484849413 l6.81818166304,33.333331689 19.6969683629,7.57575729264 l27.2727266521,2.27272713797 18.9393937299,-20.4545449891 l19.6969683629,-31.0606057967 0.757575754178,-24.9999987668 l-22.7272728745,0.757575754178 -9.84848418147,17.4242424707 l-6.06060603343,18.1818171037 -12.1212120669,5.30303040382 m-4.54545427593,35.6060615675 l0.0,6.06060603343 -6.81818166304,6.06060603343 l-12.8787876965,21.9696962483 2.27272713797,71.212123135 m-21.2121216153,-27.2727266521 l36.3636342074,-1.51515150836 0.757575754178,-2.27272713797 " fill="none" stroke="black" stroke-width="1" /></svg>