<?xml version="1.0" encoding="utf-8" ?>
<svg baseProfile="full" height="300" version="1.1" width="300" xmlns="http://www.w3.org/2000/svg" xmlns:ev="http://www.w3.org/2001/xml-events" xmlns:xlink="http://www.w3.org/1999/xlink"><defs /><rect fill="none" height="300" width="300" x="0" y="0" /><path d="M33.8315183679,117.221464981 m-1.35869570924,14.9456521314 l-1.6983695807,9.17119586982 -1.01902172608,-1.01902172608 m5.09510896551,-57.4048918723 l17.3233705721,4.75543509405 3.05706528994,3.3967391614 l7.81250038399,31.9293501725 -0.33967392731,42.1195654226 l2.03804345216,1.6983695807 20.720108393,4.75543509405 l10.190217931,0.679347854621 8.15217380862,4.07608690431 l7.47282606571,-0.679347854621 m-76.4266286739,-92.3913073348 l-4.07608690431,20.0407615438 -2.71739141848,7.47282606571 l0.0,9.85054361273 -3.05706528994,12.9076089027 l0.679347854621,1.6983695807 3.73641303285,1.01902172608 l6.79347832279,-1.35869570924 -0.33967392731,-5.43478283697 l5.43478283697,-26.4945664419 m66.2364134238,75.06793855 l-20.380435862,10.8695656739 -32.6086952345,-2.37771754703 l-7.47282606571,-8.15217380862 -7.13315219425,-15.9646750863 l8.83152155154,15.9646750863 4.41576077577,4.07608690431 m54.0081522641,-8.83152155154 l7.47282606571,-16.9836962538 5.43478283697,-21.0597827113 l4.07608690431,-25.4755434871 -1.6983695807,-19.0217403762 l1.6983695807,-5.77445670842 -0.33967392731,-5.77445670842 l1.6983695807,-7.81250038399 m-17.3233705721,102.921196903 l21.0597827113,12.9076089027 13.9266309639,10.8695656739 l12.2282611598,13.9266309639 11.5489134168,9.5108701881 l5.77445670842,3.3967391614 10.5298913556,2.03804345216 l18.0027174214,1.01902172608 m-86.9565253915,-52.6494585655 l22.7581525154,-2.71739141848 19.0217403762,-5.77445670842 l11.8885868415,0.33967392731 24.1168480012,-5.43478283697 l27.1739132912,-13.247283221 26.4945664419,-10.190217931 l14.9456521314,-2.03804345216 11.8885868415,-5.43478283697 l2.37771754703,0.0 m-140.624996188,-46.875002304 l40.7608717241,46.875002304 19.7010872255,30.5706528994 " fill="none" stroke="black" stroke-width="1" /></svg>