<?xml version="1.0" encoding="utf-8" ?>
<svg baseProfile="full" height="300" version="1.1" width="300" xmlns="http://www.w3.org/2000/svg" xmlns:ev="http://www.w3.org/2001/xml-events" xmlns:xlink="http://www.w3.org/1999/xlink"><defs /><rect fill="none" height="300" width="300" x="0" y="0" /><path d="M99.1228093772,119.298243896 m-0.43859650135,10.5263154554 l-12.7192981786,71.4912289268 -6.14035116314,23.245613634 m35.5263159603,-107.894734284 l4.38596486926,49.1228093051 -0.43859650135,46.0526302618 l-2.19298243463,11.8421053201 36.4035099727,-0.8771930027 l-8.77192973852,1.31578943193 -39.4736844003,-0.8771930027 m-28.5087730926,3.5087720108 l-36.4035099727,-0.43859650135 2.19298243463,-1.7543860054 l14.9122809017,0.43859650135 44.2982468527,7.0175440216 m-76.7543883853,-105.701758484 l43.4210528403,0.43859650135 27.192982074,2.19298243463 l10.9649124616,0.0 17.543859477,-2.63157886386 l10.0877196032,-5.26315772772 6.57894759237,-11.4035083139 l28.947367791,-30.2631588095 14.0350880432,-9.21052616775 l8.33333330929,-1.7543860054 23.245613634,-0.43859650135 l9.21052616775,1.31578943193 7.45614045083,3.94736844003 l9.64912259699,9.64912259699 1.31578943193,23.6842106402 l10.0877196032,2.19298243463 21.9298249233,1.7543860054 l-2.63157886386,-7.45614045083 -13.596491037,-7.45614045083 " fill="none" stroke="black" stroke-width="1" /></svg>