<?xml version="1.0" encoding="utf-8" ?>
<svg baseProfile="full" height="300" version="1.1" width="300" xmlns="http://www.w3.org/2000/svg" xmlns:ev="http://www.w3.org/2001/xml-events" xmlns:xlink="http://www.w3.org/1999/xlink"><defs /><rect fill="none" height="300" width="300" x="0" y="0" /><path d="M134.375002091,143.140244214 m-6.09756108871,-35.8231725241 l-6.85975609947,-16.0060972312 -10.6707321559,-9.14634113175 l-22.8658543333,-4.57317056587 -3.04878054436,-7.62195111023 l-0.762195136089,-14.4817072097 3.04878054436,-30.4878044409 l33.536584484,10.6707321559 28.9634144194,22.1036583199 l16.0060972312,54.8780487958 15.2439022205,32.7743904758 m-45.7317086667,-1.52439027218 l-57.1646328254,20.5792682984 -6.09756108871,6.09756108871 l29.7256104328,22.1036583199 25.152438363,8.38414612099 l45.7317086667,-3.04878054436 34.2987804974,1.52439027218 l17.5304882554,-16.768292242 3.04878054436,-3.81097555512 l0.762195136089,-7.62195111023 -9.14634113175,-19.0548782769 l-9.90853614251,-12.9573171882 -7.62195111023,-3.04878054436 l-10.6707321559,0.762195136089 -16.768292242,7.62195111023 m-16.0060972312,21.3414643118 l17.5304882554,22.1036583199 22.1036583199,6.85975609947 m-38.1097565538,-27.4390243979 l28.2012204113,-1.52439027218 16.0060972312,9.90853614251 m-68.5975609947,18.2926822635 l-0.762195136089,62.5000009086 24.3902443548,18.2926822635 " fill="none" stroke="black" stroke-width="1" /></svg>