<?xml version="1.0" encoding="utf-8" ?>
<svg baseProfile="full" height="300" version="1.1" width="300" xmlns="http://www.w3.org/2000/svg" xmlns:ev="http://www.w3.org/2001/xml-events" xmlns:xlink="http://www.w3.org/1999/xlink"><defs /><rect fill="none" height="300" width="300" x="0" y="0" /><path d="M138.690476254,223.214286911 m1.78571422419,-21.4285714733 l0.0,5.95238087781 -14.2857137935,52.3809510983 l-1.19047621471,14.880952586 m50.5952378529,-102.380953291 l-13.6904765671,65.4761920049 -2.9761904389,22.6190474923 m19.0476194354,-86.9047634782 l-69.0476184958,-16.071428605 -2.9761904389,-9.5238097177 l0.0,-6.54761888729 5.95238087781,-41.6666653616 l0.595238107356,-35.1190480404 -8.92857170822,-3.57142844838 l-10.7142857367,-11.9047617556 -4.76190485885,-11.3095237461 l1.19047621471,-9.5238097177 9.5238097177,-3.57142844838 l39.8809521162,19.0476194354 6.54761888729,5.95238087781 l-1.19047621471,13.0952377746 -4.76190485885,19.0476194354 l1.78571422419,44.0476205316 17.2619046239,8.92857170822 l15.4761898125,2.38095242942 35.1190480404,-19.6428566619 l2.9761904389,4.76190485885 0.0,20.2380954544 l-10.7142857367,21.4285714733 -11.3095237461,13.6904765671 l-14.880952586,-1.78571422419 m-39.2857133237,22.0238102658 l5.95238087781,-33.333334795 " fill="none" stroke="black" stroke-width="1" /></svg>