<?xml version="1.0" encoding="utf-8" ?>
<svg baseProfile="full" height="300" version="1.1" width="300" xmlns="http://www.w3.org/2000/svg" xmlns:ev="http://www.w3.org/2001/xml-events" xmlns:xlink="http://www.w3.org/1999/xlink"><defs /><rect fill="none" height="300" width="300" x="0" y="0" /><path d="M137.279509702,167.469470068 m42.4016290662,-0.3392130419 l-65.4681139075,38.6702848802 m17.2998654158,-67.5033945015 l-1.69606515372,16.9606519835 0.3392130419,22.048848114 l5.76662165653,36.2957944236 2.37449134908,8.81953853164 l1.01763906992,10.5156039085 9.15875196398,42.0624156339 m-18.9959307926,-128.561733789 l-29.5115347011,-9.15875196398 -8.14111255939,-4.74898269816 l-9.83717793622,-7.80190001949 -7.46268658714,-13.2293086899 l0.3392130419,-10.8548173408 2.37449134908,-7.12347360102 l14.9253731743,-9.15875196398 22.3880597614,-6.7842606149 l9.15875196398,-1.69606515372 8.48032599173,-4.40976926582 l26.1194039474,-25.4409770828 16.9606519835,-11.1940298807 l9.15875196398,-4.40976926582 29.1723212688,-5.42740867041 l9.15875196398,1.3568521676 2.7137043352,3.39213030745 l-2.03527813985,3.73134329357 -5.42740867041,3.05291732133 l-10.8548173408,0.678426083801 -7.80190001949,2.37449134908 l-4.07055627969,3.39213030745 -9.15875196398,12.2116692853 " fill="none" stroke="black" stroke-width="1" /></svg>