<?xml version="1.0" encoding="utf-8" ?>
<svg baseProfile="full" height="300" version="1.1" width="300" xmlns="http://www.w3.org/2000/svg" xmlns:ev="http://www.w3.org/2001/xml-events" xmlns:xlink="http://www.w3.org/1999/xlink"><defs /><rect fill="none" height="300" width="300" x="0" y="0" /><path d="M156.811986156,275.0 m-1.36239786961,-44.9591276808 l-12.9427794252,-70.8446847391 -38.1471412451,47.683922972 l70.163492189,1.36239786961 m-30.6539515061,-57.9019080022 l12.2615806024,1.36239786961 34.0599465162,10.8991829569 l37.4659415262,3.40599456201 5.44959147843,-2.72479573921 l2.0435966924,-10.8991829569 -11.5803817796,-16.3487735392 l1.36239786961,4.0871933848 19.7547685492,3.40599456201 l-62.67030245,-20.4359682681 -18.3923709037,-8.1743867696 l-4.76839265564,-16.3487735392 -0.681198934804,-14.9863758936 l-4.76839265564,-6.81198912401 -11.5803817796,-8.1743867696 l-15.6675756125,-5.44959147843 -6.81198912401,-9.53678531127 l-6.81198912401,-1.36239786961 4.0871933848,10.8991829569 l-14.9863758936,44.9591276808 -8.1743867696,10.8991829569 l-20.4359682681,11.5803817796 -12.9427794252,0.0 l32.0163509439,4.0871933848 18.3923709037,6.13079030122 l27.2479564961,0.0 m-17.0299732581,-79.019074197 l-16.3487735392,-17.0299732581 -35.4223423696,-8.1743867696 l-12.2615806024,-7.49318794681 -1.36239786961,-4.0871933848 l10.2179841341,40.8719365363 36.7847418073,5.44959147843 " fill="none" stroke="black" stroke-width="1" /></svg>