<?xml version="1.0" encoding="utf-8" ?>
<svg baseProfile="full" height="300" version="1.1" width="300" xmlns="http://www.w3.org/2000/svg" xmlns:ev="http://www.w3.org/2001/xml-events" xmlns:xlink="http://www.w3.org/1999/xlink"><defs /><rect fill="none" height="300" width="300" x="0" y="0" /><path d="M138.493063466,255.926861847 m5.35939478073,-30.8953339841 l1.8915510137,-18.6002524987 0.0,-92.6860052698 m79.7604043608,151.639349931 l-0.94577550685,-118.537207088 -4.09836049512,-69.6721333936 m-74.7162688772,30.5800751016 l5.35939478073,-4.09836049512 23.9596468647,-13.5561161857 l43.5056760107,-12.2950823148 11.0340476145,-5.044136313 l15.447666992,0.0 8.82723875511,-1.57629254598 l10.7187895615,-3.46784355967 10.403530679,-4.72887784528 l0.0,-8.19672099025 -7.25094600178,-2.20680968878 l-5.67465324845,0.0 6.62042865163,2.5220681565 l-11.6645653793,0.0 12.2950823148,-6.93568711935 l3.15258509195,-3.7831020274 0.315258519563,-2.20680968878 l-1.57629254598,-3.46784355967 -6.62042865163,-4.09836049512 l-80.3909221256,0.315258519563 -26.7969734889,6.62042865163 l-15.447666992,8.19672099025 -13.2408573033,9.77301374358 l-29.3190428896,27.7427484774 -16.7087008629,18.9155113811 m63.6822212627,1.8915510137 l-24.2749057471,10.403530679 -21.4375791229,15.1324081096 l-8.19672099025,8.82723875511 m-10.403530679,-36.8852461149 l-14.1866331211,23.0138718762 -7.5662040548,17.9697347338 l-7.5662040548,27.1122323714 0.0,5.35939478073 l0.94577550685,2.5220681565 1.26103407825,1.57629254598 l3.15258509195,0.630517039126 5.044136313,-2.5220681565 l5.35939478073,-3.7831020274 8.51197987268,-9.14249680813 l8.19672099025,-6.3051701839 13.8713742387,-27.1122323714 m-47.604034847,46.9735170821 l-5.67465324845,7.25094600178 -12.6103403678,19.8612863696 l-8.19672099025,16.3934419805 35.9394694676,-33.4174017258 l10.403530679,-11.9798234324 m-8.19672099025,-19.8612863696 l0.0,0.0 m0.315258519563,0.315258519563 l-0.315258519563,2.83732662423 " fill="none" stroke="black" stroke-width="1" /></svg>