<?xml version="1.0" encoding="utf-8" ?>
<svg baseProfile="full" height="300" version="1.1" width="300" xmlns="http://www.w3.org/2000/svg" xmlns:ev="http://www.w3.org/2001/xml-events" xmlns:xlink="http://www.w3.org/1999/xlink"><defs /><rect fill="none" height="300" width="300" x="0" y="0" /><path d="M39.4230798403,179.1132476 m-14.4230770295,50.2136780827 l51.2820497866,2.13675219156 -10.6837606064,-0.534188047889 l-16.5598288697,-4.27350438311 m-19.7649580354,-5.87606826327 l10.6837606064,-2.13675219156 21.9017098756,-1.06837609578 m-36.8589755679,-8.54700876623 l5.34188030322,-1.60256405583 56.0897421297,-1.06837609578 m36.3247869051,-39.5299160708 l2.67094015161,70.5128191592 7.47863284612,0.534188047889 l28.846154059,-4.27350438311 18.6965807099,0.0 l-11.2179485665,-3.20512811166 m-44.337608414,-10.6837606064 l30.9829058992,0.0 m-20.2991452928,-13.3547011094 l18.6965807099,-4.80769234317 4.27350438311,-2.67094015161 m-25.6410248933,-25.6410248933 l-2.67094015161,-1.60256405583 -0.534188047889,-11.7521365265 l10.1495726464,-52.3504271121 3.20512811166,-30.9829058992 l2.13675219156,-8.01282080618 8.01282080618,-6.41025622332 l2.13675219156,2.67094015161 8.54700876623,27.7777767335 l5.87606826327,5.34188030322 15.4914529496,8.01282080618 l30.4487172364,7.47863284612 27.2435908815,1.06837609578 l7.47863284612,-3.73931642306 16.0256416124,-15.4914529496 l8.54700876623,-15.4914529496 " fill="none" stroke="black" stroke-width="1" /></svg>