<?xml version="1.0" encoding="utf-8" ?>
<svg baseProfile="full" height="300" version="1.1" width="300" xmlns="http://www.w3.org/2000/svg" xmlns:ev="http://www.w3.org/2001/xml-events" xmlns:xlink="http://www.w3.org/1999/xlink"><defs /><rect fill="none" height="300" width="300" x="0" y="0" /><path d="M191.294641537,185.7142846 m-3.34821414398,7.81250028101 l-7.81250028101,81.4732151189 m3.34821414398,-10.044642799 l-83.7053547006,10.044642799 m14.5089278349,-100.44642799 l110.491070789,-4.46428577 5.58035702898,-3.34821414398 l25.669643361,-42.4107137139 5.58035702898,-18.973214339 l-4.46428577,-12.2767853169 -62.5000022481,-12.2767853169 l-35.71428616,-1.1160714425 -29.0178556698,10.044642799 l-20.0892855979,12.2767853169 -2.232142885,12.2767853169 l7.81250028101,32.3660709149 6.69642828796,10.044642799 m-4.46428577,-52.4553594491 l-79.2410696647,-79.2410696647 12.2767853169,8.92857153999 l55.8035717579,58.0357113396 36.8303559508,27.901785879 m-10.044642799,-41.294643923 l-16.741071821,-6.69642828796 -60.2678567938,-42.4107137139 l29.0178556698,26.7857131518 17.85714308,22.3214281159 l22.3214281159,14.5089278349 m27.901785879,82.589287846 l-15.625000562,26.7857131518 -5.58035702898,36.8303559508 " fill="none" stroke="black" stroke-width="1" /></svg>