<?xml version="1.0" encoding="utf-8" ?>
<svg baseProfile="full" height="300" version="1.1" width="300" xmlns="http://www.w3.org/2000/svg" xmlns:ev="http://www.w3.org/2001/xml-events" xmlns:xlink="http://www.w3.org/1999/xlink"><defs /><rect fill="none" height="300" width="300" x="0" y="0" /><path d="M43.5096197531,64.9038456324 m4.32692298419,-3.3653846838 l0.480769229249,-4.80769213438 4.80769213438,-2.88461521739 l7.21153851779,-1.44230760869 4.80769213438,2.40384606719 l1.44230760869,4.80769213438 -0.961538458498,2.88461521739 l-5.28846128458,6.24999958497 11.5384608695,23.0769217391 l6.24999958497,35.0961536561 -2.88461521739,1.44230760869 l-9.61538426876,0.0 -2.40384606719,-2.40384606719 l-12.0192306522,-34.1346140909 2.40384606719,-17.3076919367 l-1.923076917,-2.40384606719 -9.61538426876,-1.923076917 l-1.923076917,-2.40384606719 1.44230760869,-1.44230760869 m36.0576906916,60.096151996 l105.288460968,-68.2692281817 54.3269196639,-33.1730770553 l9.61538426876,44.2307694071 9.13461511857,113.942306937 l-27.4038447233,8.17307681818 -39.4230766403,14.9038455533 l-32.6923072727,0.961538458498 -15.8653838537,-12.4999991699 l-12.9807689526,-14.4230770356 -9.13461511857,-7.21153851779 l-32.2115374901,-31.7307677075 m162.499994269,46.6346132608 l10.5769225692,65.3846145454 0.480769229249,13.4615387352 m-88.9423085969,-59.6153822134 l1.923076917,44.2307694071 1.44230760869,16.8269221541 l2.40384606719,6.73076936759 18.7500000198,0.0 " fill="none" stroke="black" stroke-width="1" /></svg>