<?xml version="1.0" encoding="utf-8" ?>
<svg baseProfile="full" height="300" version="1.1" width="300" xmlns="http://www.w3.org/2000/svg" xmlns:ev="http://www.w3.org/2001/xml-events" xmlns:xlink="http://www.w3.org/1999/xlink"><defs /><rect fill="none" height="300" width="300" x="0" y="0" /><path d="M76.1111147026,115.277774844 m79.9999992984,4.99999995615 l70.5555555864,-1.11111112167 -16.1111108074,0.0 l-32.7777778151,6.11111089512 -99.999999123,36.1111120936 l4.44444448667,9.44444444282 42.2222215271,29.9999997369 l22.2222217025,1.66666659115 31.1111121375,-17.2222217464 l9.44444444282,-19.4444436243 1.66666659115,-12.7777779905 l-21.1111107636,-18.3333326853 107.222218034,44.9999996054 m-117.222217946,-39.9999996492 l-31.1111121375,28.3333340593 m28.8888873363,-71.666667987 l-48.8888871609,56.1111119183 m44.4444434051,-26.1111121813 l-15.5555560687,35.5555558934 m12.2222217902,-22.2222217025 l0.0,0.0 m-2.77777771282,31.1111121375 l0.0,3.3333331823 m9.44444444282,-5.55555542563 l0.0,0.0 m-16.6666670077,-8.88888897334 l-64.99999943,47.7777776836 m70.5555555864,-29.4444435366 l-6.6666663646,-8.88888897334 -18.8888888856,-9.9999999123 l-56.6666681185,-15.5555560687 -28.8888873363,1.66666659115 l8.33333350386,7.22222183408 148.333330084,22.7777779028 l28.8888873363,-16.1111108074 -3.3333331823,-1.11111112167 l-74.444443142,-12.2222217902 -74.9999993423,-4.44444448667 l-39.9999996492,13.8888889295 43.3333339277,12.7777779905 l150.555554885,-35.5555558934 -14.9999998685,-27.777777859 l-34.4444434928,-11.6666663207 -39.9999996492,1.66666659115 l-64.99999943,46.1111120059 83.888886854,17.7777779467 l45.5555558057,-25.555555981 -11.1111108513,-10.5555553818 l-59.9999994738,-24.9999997808 -39.9999996492,-2.22222224333 l-33.3333340154,19.9999998246 76.6666679431,46.666665283 l70.5555555864,-21.6666669639 18.8888888856,-34.9999996931 l-9.44444444282,-12.7777779905 -11.6666663207,39.4444434489 l-2.77777771282,-32.7777778151 -43.8888872048,-5.55555542563 l-41.1111120498,29.4444435366 59.4444432735,21.1111107636 l32.2222216148,-23.3333326415 -57.2222243188,-22.7777779028 l-24.9999997808,38.3333339716 " fill="none" stroke="black" stroke-width="1" /></svg>