<?xml version="1.0" encoding="utf-8" ?>
<svg baseProfile="full" height="300" version="1.1" width="300" xmlns="http://www.w3.org/2000/svg" xmlns:ev="http://www.w3.org/2001/xml-events" xmlns:xlink="http://www.w3.org/1999/xlink"><defs /><rect fill="none" height="300" width="300" x="0" y="0" /><path d="M110.685481706,164.86895203 m7.05645199622,22.6814518978 l4.03225818883,45.8669366494 5.04032257029,26.2096765698 l-2.52016128514,1.00806454721 -6.04838695174,7.56048418694 l11.088709522,0.504032273604 m53.4274188472,-114.415319892 l-5.04032257029,25.2016135145 -8.5685485684,13.6088711387 l23.6895176053,16.633064283 -4.53629037956,9.07258075912 l6.04838695174,-8.06451637767 6.55241914246,7.56048418694 l-5.04032257029,-11.5927423758 m-7.56048418694,-51.9153255902 l-13.6088711387,4.03225818883 -17.1370971368,12.0967739035 l-24.1935478069,8.06451637767 -31.2499998032,-2.52016128514 l-56.9556435192,-16.633064283 -7.56048418694,-10.0806451406 l-9.57661294985,-18.649194372 -3.02419347587,-18.649194372 l1.51209673793,-16.633064283 32.2580655107,13.6088711387 l58.9717749343,-17.6411286645 23.6895176053,-13.6088711387 l9.57661294985,-11.5927423758 33.2661285661,-28.2258079849 l8.06451637767,-4.03225818883 13.1048382849,-3.02419347587 l22.177419044,14.1129039924 2.52016128514,5.54435476101 l-0.504032273604,12.6008067572 -19.6572587534,18.649194372 l-4.53629037956,7.56048418694 -5.04032257029,45.3629037956 l-1.51209673793,3.52822599811 -13.6088711387,16.1290327553 l-2.52016128514,-1.00806454721 -2.01612909442,-6.55241914246 m48.8911284676,-97.7822569353 l19.1532258997,6.55241914246 26.2096765698,-4.53629037956 l-9.57661294985,9.07258075912 -20.1612902811,10.5846773313 l-16.1290327553,0.0 0.504032273604,-5.04032257029 m-28.2258079849,-20.6653231349 l2.01612909442,2.52016128514 -2.52016128514,-1.51209673793 l1.00806454721,-1.00806454721 m-56.4516159698,28.7298381865 l2.52016128514,13.6088711387 " fill="none" stroke="black" stroke-width="1" /></svg>