<?xml version="1.0" encoding="utf-8" ?>
<svg baseProfile="full" height="300" version="1.1" width="300" xmlns="http://www.w3.org/2000/svg" xmlns:ev="http://www.w3.org/2001/xml-events" xmlns:xlink="http://www.w3.org/1999/xlink"><defs /><rect fill="none" height="300" width="300" x="0" y="0" /><path d="M256.570512835,49.8397409719 m-12.8205135435,8.81410266588 l-18.4294883505,7.21153873645 -0.801282096468,3.20512838587 l50.4807711552,29.6474379646 m-25.641027087,-54.4871820328 l-6.41025677174,-6.41025677174 -20.8333331906,-7.21153873645 l-44.0705154375,1.60256419294 -28.0448719271,20.8333331906 l-4.80769231529,8.81410266588 -3.20512838587,16.826923367 l5.60897480703,73.7179534021 37.6602597198,10.4166665953 l12.0192315788,0.0 3.20512838587,-8.81410266588 l-2.40384615765,-52.8846159953 4.00641035058,-4.80769231529 l39.2628215411,2.40384615765 31.250001894,6.41025677174 m-141.025642654,41.6666663812 l5.60897480703,32.0512828047 -2.40384615765,28.0448719271 l-48.8782051176,-19.2307692612 -33.6538467341,-3.20512838587 m112.980770727,-28.8461549458 l6.41025677174,113.782053746 m-128.205131219,-86.5384648374 l-0.801282096468,-8.01282070117 -17.6282053318,-24.0384631575 m15.2243594376,27.2435910164 l-2.40384615765,4.80769231529 " fill="none" stroke="black" stroke-width="1" /></svg>