<?xml version="1.0" encoding="utf-8" ?>
<svg baseProfile="full" height="300" version="1.1" width="300" xmlns="http://www.w3.org/2000/svg" xmlns:ev="http://www.w3.org/2001/xml-events" xmlns:xlink="http://www.w3.org/1999/xlink"><defs /><rect fill="none" height="300" width="300" x="0" y="0" /><path d="M75.0000010308,45.1492527713 m-9.70149205233,18.6567165425 l14.1791042974,-2.98507466643 m-8.20895496454,-15.6716413852 l7.46268642064,-16.4179099291 7.46268642064,-2.98507466643 l12.6865672096,-0.746268666607 14.9253728413,14.1791042974 l14.1791042974,32.0895522959 8.95522350844,11.1940301218 l11.9402986657,2.23880587711 38.8059682093,23.8805973314 l8.20895496454,10.4477615779 10.4477615779,33.5820893837 l28.3582085948,54.4776125396 -2.98507466643,1.49253733321 m-57.4626867151,-45.5223860861 l0.746268666607,111.940295328 m-53.731343014,-108.955225079 l0.746268666607,96.2686588512 -1.49253733321,-8.20895496454 m-40.2985072605,-192.537317702 l8.95522350844,30.5970152082 31.3432827704,23.1343278058 l0.0,47.7611946628 m0.0,-2.98507466643 l7.46268642064,-5.97014933285 8.95522350844,-0.746268666607 l27.6119410326,12.6865672096 11.1940301218,-0.746268666607 m5.97014933285,0.746268666607 l24.6268648936,3.73134321032 m-115.671642956,-121.641791307 l-2.98507466643,2.98507466643 " fill="none" stroke="black" stroke-width="1" /></svg>