<?xml version="1.0" encoding="utf-8" ?>
<svg baseProfile="full" height="300" version="1.1" width="300" xmlns="http://www.w3.org/2000/svg" xmlns:ev="http://www.w3.org/2001/xml-events" xmlns:xlink="http://www.w3.org/1999/xlink"><defs /><rect fill="none" height="300" width="300" x="0" y="0" /><path d="M132.500004098,142.857138813 m-5.71428591966,67.1428616701 l-1.42857147991,62.8571422974 -3.57142858233,1.42857147991 l-9.28571403219,0.714285739957 23.5714283615,-1.78571429117 m52.1428588994,-123.571432425 l-27.8571439758,51.4285723373 5.71428591966,14.6428576104 l8.92857169074,12.1428574618 8.92857169074,4.64285701609 l7.14285716467,-4.64285701609 -10.0000005943,7.49999997592 m-52.8571454615,-95.0000000082 l26.7857141326,3.21428577108 21.7857138355,6.78571435342 l23.9285716426,5.00000029715 8.92857169074,0.714285739957 l11.4285718393,-12.8571430843 6.07142873091,-10.7142862168 l0.714285739957,-21.7857138355 -1.42857147991,-5.00000029715 m-98.9285760999,32.8571442729 l-6.78571435342,-5.00000029715 -2.50000014858,-6.42857154216 l0.714285739957,-80.7142837997 -1.42857147991,-8.92857169074 l-15.7142855744,-6.78571435342 -6.42857154216,0.357142869979 l-5.35714310841,5.71428591966 -7.49999997592,4.64285701609 l-6.07142873091,10.3571429358 -0.357142869979,3.92857139359 l6.07142873091,2.50000014858 3.57142858233,-0.714285739957 l-4.28571420484,2.85714295983 -4.64285701609,0.714285739957 l-1.78571429117,-0.714285739957 -2.85714295983,-8.92857169074 l0.357142869979,-17.8571433815 4.28571420484,-8.57142840968 " fill="none" stroke="black" stroke-width="1" /></svg>