<?xml version="1.0" encoding="utf-8" ?>
<svg baseProfile="full" height="300" version="1.1" width="300" xmlns="http://www.w3.org/2000/svg" xmlns:ev="http://www.w3.org/2001/xml-events" xmlns:xlink="http://www.w3.org/1999/xlink"><defs /><rect fill="none" height="300" width="300" x="0" y="0" /><path d="M25.0,107.550335488 m0.67114096315,-2.6845638526 l20.4697982173,-7.38255026358 19.1275165117,-5.0335572788 l57.0469804331,-12.080537116 34.2281896724,-4.69798685241 l35.2348987445,-1.3422819263 31.8791935977,0.67114096315 l25.5033559376,5.7046981316 17.4496639383,9.06040283699 l8.3892619842,12.080537116 0.0,14.4295305422 l-11.4093962632,17.4496639383 -25.1677850697,18.7919474096 l-36.9127530836,19.1275165117 -44.2953015815,19.1275165117 l-48.3221484639,18.120805674 -51.6778536108,16.7785239684 m99.6644276755,-140.268453242 l13.4228188216,-7.7181211314 16.1073822327,-1.00671138955 l17.1140948362,7.38255026358 11.4093962632,23.8255033641 l0.0,45.6375850528 m4.02684555819,-4.02684555819 l-0.335570481575,3.69127513179 -1.6778523527,2.3489934262 l-5.0335572788,4.36241598458 -8.3892619842,3.69127513179 l-9.06040283699,1.00671138955 -26.1744976732,-1.00671138955 l-9.39597370482,-2.6845638526 -8.3892619842,-5.0335572788 l-6.71140941079,-8.05369111637 -10.7382554104,-21.8120816886 m-0.67114096315,-9.73154368978 l-0.335570481575,-4.02684555819 1.3422819263,-4.02684555819 l9.39597370482,-13.0872488366 17.7852348062,-13.0872488366 l8.72483196916,-4.02684555819 " fill="none" stroke="black" stroke-width="1" /></svg>