<?xml version="1.0" encoding="utf-8" ?>
<svg baseProfile="full" height="300" version="1.1" width="300" xmlns="http://www.w3.org/2000/svg" xmlns:ev="http://www.w3.org/2001/xml-events" xmlns:xlink="http://www.w3.org/1999/xlink"><defs /><rect fill="none" height="300" width="300" x="0" y="0" /><path d="M157.102270392,140.909090563 m-2.13068191161,0.0 l-9.5170455106,4.68749994394 -1.56249998131,0.0 l0.0,2.41477278333 1.56249998131,0.710227272727 l11.9318181071,0.284090918434 4.1193182005,-1.56249998131 l-5.68181818182,4.68749994394 -1.84659085303,0.710227272727 l-2.55681821919,0.142045459217 -1.70454541717,1.27840910959 l-0.142045459217,4.1193182005 0.568181836867,6.10795467625 l0.568181836867,1.27840910959 1.42045454545,1.13636367373 l1.27840910959,0.0 6.96022729141,-3.83522732878 l5.82386380453,-4.40340907222 m-10.6534089975,-16.6193184247 l5.25568206109,0.0 1.56249998131,-11.3636363636 l0.568181836867,-11.2215907409 3.12499996263,-6.8181816687 l1.84659085303,-1.84659085303 0.710227272727,0.0 l6.39204554797,4.1193182005 3.69318170607,3.83522732878 l2.13068191161,5.68181818182 0.426136354294,8.66477252173 l0.852272708587,4.82954556666 m0.0,0.710227272727 l0.994318237875,7.38636341214 2.84090909091,10.9375002429 l0.710227272727,5.82386380453 -0.142045459217,10.9375002429 l1.27840910959,8.66477252173 1.13636367373,2.41477278333 m-25.1420453237,-26.8465898066 l0.0,34.6590900869 m0.0,-0.142045459217 l3.55113645706,-4.54545469494 19.7443191348,-21.4488636177 l34.8011357096,-34.2329562085 43.8920465944,-38.3522732878 l8.38068202372,-8.52272764644 0.852272708587,-0.994318237875 l0.0,-0.710227272727 -53.4090943472,19.6022735121 l-109.374997945,56.6761376903 -79.4034074279,41.903410866 l-7.81250028028,14.4886370737 0.0,-1.70454541717 " fill="none" stroke="black" stroke-width="1" /></svg>