<?xml version="1.0" encoding="utf-8" ?>
<svg baseProfile="full" height="300" version="1.1" width="300" xmlns="http://www.w3.org/2000/svg" xmlns:ev="http://www.w3.org/2001/xml-events" xmlns:xlink="http://www.w3.org/1999/xlink"><defs /><rect fill="none" height="300" width="300" x="0" y="0" /><path d="M252.18254217,40.2116406199 m-16.534392224,-12.5661378466 l-7.93650788472,-2.64550277324 -20.5026457314,1.32275138662 l-9.25925992385,3.96825394236 -37.6984126699,7.27513230016 l-3.3068783578,2.64550277324 5.29100554649,52.2486772703 l21.8253969005,87.9629640565 0.661375693311,33.068784448 m-1.32275138662,-2.64550277324 l38.3597891245,0.0 11.2433866775,-2.64550277324 l9.25925992385,-6.6137567156 0.661375693311,-6.6137567156 l-32.4074079935,-23.1481480696 -14.5502646003,-7.27513230016 l-7.93650788472,-0.661375693311 -6.6137567156,4.62962996193 l-14.5502646003,1.32275138662 -72.7513264817,2.64550277324 l-3.96825394236,-11.9047622621 -5.95238113104,-61.5079406742 l-9.92063550841,13.2275134312 -13.2275134312,23.8095245242 l-13.2275134312,28.4391544861 2.64550277324,68.7830677542 l-1.32275138662,38.3597891245 1.32275138662,3.3068783578 l8.59788346928,-5.95238113104 35.7142867863,-8.59788346928 l20.5026457314,-15.8730157694 -50.2645513866,11.2433866775 l-8.59788346928,6.6137567156 m195.105831375,-234.788362969 " fill="none" stroke="black" stroke-width="1" /></svg>