<?xml version="1.0" encoding="utf-8" ?>
<svg baseProfile="full" height="300" version="1.1" width="300" xmlns="http://www.w3.org/2000/svg" xmlns:ev="http://www.w3.org/2001/xml-events" xmlns:xlink="http://www.w3.org/1999/xlink"><defs /><rect fill="none" height="300" width="300" x="0" y="0" /><path d="M105.782311901,160.629252404 m1.13378686836,1.41723353885 l7.65306122164,28.628118566 0.0,39.9659853854 l-0.850340104665,-3.96825413249 m-8.78684790357,-62.6417249898 l-16.7233561686,0.566893434182 -5.95238082587,-0.850340104665 l-15.0226753999,-7.65306122164 -13.888888718,-13.6054416746 l-11.6213153541,-23.5260777516 0.283446717091,-5.95238082587 l3.40136041866,-6.23582749636 0.0,-3.40136041866 l-9.9206345855,-9.35374124454 -0.850340104665,-1.70068020933 l-9.35374124454,-5.95238082587 -0.283446717091,-3.11791374818 l0.850340104665,-1.41723353885 6.80272083732,-5.10204081442 l4.81859414394,-2.55102040721 9.9206345855,-2.55102040721 l20.1247162144,-0.283446717091 56.405896002,11.0544220132 l12.7551020361,1.41723353885 34.2970534671,1.41723353885 l47.9024936503,6.5192745397 38.2653061082,-10.4875286722 l17.8571428505,-11.9047616517 " fill="none" stroke="black" stroke-width="1" /></svg>