<?xml version="1.0" encoding="utf-8" ?>
<svg baseProfile="full" height="300" version="1.1" width="300" xmlns="http://www.w3.org/2000/svg" xmlns:ev="http://www.w3.org/2001/xml-events" xmlns:xlink="http://www.w3.org/1999/xlink"><defs /><rect fill="none" height="300" width="300" x="0" y="0" /><path d="M179.532964454,64.1483546119 m41.2087912138,8.24175770067 l1.37362635873,-7.55494463423 -1.37362635873,-3.4340657839 l-7.55494463423,-4.8076923685 -35.7142830684,-2.06043942517 m6.18131850137,0.0 l-6.8681315678,4.12087885033 -1.37362635873,4.12087885033 l-6.18131850137,65.2472476354 -8.24175770067,37.0879110082 l-7.55494463423,17.8571415342 -19.230769474,24.7252740055 l-3.4340657839,0.0 -25.4120879754,-20.6043956069 l-16.4835154013,-39.8351632739 12.3626370027,-3.4340657839 l18.5439555041,-10.3021978034 2.06043942517,-3.4340657839 l13.0494500692,-48.763734041 16.4835154013,-49.4505480109 l13.0494500692,-6.18131850137 15.7967032384,-0.686813179367 l3.4340657839,11.6758239363 0.686813179367,35.0274727124 m-4.8076923685,-24.0384600356 l-6.8681315678,-2.74725271747 m-31.5934064767,153.846155792 l-6.18131850137,41.8956015698 -0.686813179367,19.230769474 l-7.55494463423,15.1098892685 m-5.49450543494,-81.0439544877 l-13.0494500692,61.8131850137 -30.2197785369,-46.0164817753 " fill="none" stroke="black" stroke-width="1" /></svg>