<?xml version="1.0" encoding="utf-8" ?>
<svg baseProfile="full" height="300" version="1.1" width="300" xmlns="http://www.w3.org/2000/svg" xmlns:ev="http://www.w3.org/2001/xml-events" xmlns:xlink="http://www.w3.org/1999/xlink"><defs /><rect fill="none" height="300" width="300" x="0" y="0" /><path d="M152.628505517,102.832944372 m0.292056077796,-1.46028034096 l-11.0981306681,0.876168185364 -1.16822431118,1.46028034096 l0.292056077796,1.46028034096 4.38084121496,3.21261671168 l13.4345796747,2.33644862237 3.79672877123,-0.584112155592 l3.79672877123,-2.62850465214 0.584112155592,-1.46028034096 l-0.876168185364,-1.46028034096 -6.42523342337,-1.75233637073 l-2.33644862237,-4.38084121496 -5.54906533405,-0.292056077796 l9.63785013505,0.584112155592 1.46028034096,8.46962601596 l-0.584112155592,7.30140189687 -6.71728983733,24.8247659883 l0.0,4.67289724473 15.7710279128,2.04439259259 l51.4018673869,0.292056077796 4.38084121496,2.04439259259 l-5.25700930428,12.2663547872 -3.21261671168,2.33644862237 l-7.30140189687,0.584112155592 -4.08878518519,-1.16822431118 l-27.7453255177,-2.04439259259 -17.8154197371,-4.38084121496 l-4.67289724473,-2.33644862237 -1.46028034096,-10.8060750225 m5.84112136382,11.6822427276 l-2.92056068191,16.647195618 -2.92056068191,8.17757037038 l-17.5233648598,10.8060750225 -1.75233637073,0.0 l-0.584112155592,-1.46028034096 -0.292056077796,-5.25700930428 m72.1378481901,-20.151869512 l0.876168185364,18.399532565 -3.79672877123,6.42523342337 l-4.08878518519,3.21261671168 -11.3901870821,1.46028034096 m85.8644873522,-43.8084098445 l-60.1635536587,45.2686919143 -6.42523342337,5.84112136382 l-0.876168185364,1.46028034096 1.75233637073,0.292056077796 l21.0280372171,-51.6939238009 -2.62850465214,0.0 l-4.96495327451,2.62850465214 -51.6939238009,33.5864476499 l-4.08878518519,-9.05373807551 -1.16822431118,-1.46028034096 l-3.79672877123,-1.75233637073 -19.2757002701,-4.08878518519 l-59.2873844169,-17.5233648598 -25.1168224023,-13.1425232607 l-33.2943912359,-4.38084121496 " fill="none" stroke="black" stroke-width="1" /></svg>