<?xml version="1.0" encoding="utf-8" ?>
<svg baseProfile="full" height="300" version="1.1" width="300" xmlns="http://www.w3.org/2000/svg" xmlns:ev="http://www.w3.org/2001/xml-events" xmlns:xlink="http://www.w3.org/1999/xlink"><defs /><rect fill="none" height="300" width="300" x="0" y="0" /><path d="M130.803566975,266.071433018 m-0.892857182707,-66.0714324012 l2.67857140131,-28.5714298466 76.7857168319,-5.35714280261 m-3.57142873083,-8.92857153344 l41.9642889086,-45.5357170521 2.67857140131,-3.57142873083 l-1.78571436541,-4.46428576672 -31.2499997798,-14.2857149233 l-44.6428588417,-4.46428576672 -41.0714306981,8.03571449755 l-31.2499997798,26.7857157748 -8.03571449755,3.57142873083 l-4.46428576672,-0.892857182707 -10.7142856052,-15.1785719592 l-2.67857140131,-16.0714289951 4.46428576672,-62.4999995596 m12.5000008515,86.6071430522 l7.14285746165,19.6428571387 33.0357162006,33.928572062 m26.7857157748,-1.78571436541 l3.57142873083,54.464285062 -2.67857140131,53.5714315497 m-25.000001703,-19.6428571387 l-18.7500001028,5.35714280261 m-32.1428579902,-235.714285664 l-24.1071434926,0.0 -9.82142856933,15.1785719592 l16.0714289951,2.67857140131 16.0714289951,-2.67857140131 " fill="none" stroke="black" stroke-width="1" /></svg>