<?xml version="1.0" encoding="utf-8" ?>
<svg baseProfile="full" height="300" version="1.1" width="300" xmlns="http://www.w3.org/2000/svg" xmlns:ev="http://www.w3.org/2001/xml-events" xmlns:xlink="http://www.w3.org/1999/xlink"><defs /><rect fill="none" height="300" width="300" x="0" y="0" /><path d="M186.350843872,175.015635248 m-0.781738570153,-3.43964966754 l-1.40712944684,-2.65791120022 -1.40712944684,-2.18886811983 l-3.12695428061,-2.81425889368 -5.31582240044,-2.65791120022 l-6.72295184728,-2.18886811983 -3.59599756667,-0.156347719172 l-2.65791120022,1.40712944684 -1.56347714031,3.28330197407 l-0.469043131808,17.1982491604 -0.938086263616,7.03564723421 l-4.84677911438,20.6378980052 2.50156350676,-3.75234505447 m29.3933721299,-29.8624125366 l-1.25078175338,-0.781738570153 -5.31582240044,-1.40712944684 l2.50156350676,2.65791120022 6.56660394815,3.59599756667 l10.006254027,3.9086929536 -10.4752969017,-1.09443405991 l-29.2370242308,-5.00312701351 -14.0712944684,-0.781738570153 l23.2958089998,5.7848656865 24.0775484954,3.12695428061 l23.139462746,1.71982483377 33.6147588251,0.781738570153 l24.3902442937,-1.25078175338 2.34521581329,-4.69043162659 l0.0,-6.72295184728 -1.71982483377,-5.7848656865 l-27.2045031874,-19.5434643567 -40.4940598055,-23.608504798 l-12.5078171224,-34.2401504216 76.6103784353,0.0 l-1.87617252723,4.06504044139 -0.781738570153,10.1626019262 l7.97373380633,26.73545949 0.0,59.2557813758 l0.0,-7.34834303248 -1.71982483377,-5.31582240044 l-34.8655420181,-19.2307685584 -50.8130079854,-23.2958089998 l-56.9105694702,-23.4521568989 -57.2232652685,-3.12695428061 l-37.0544093153,4.22138834053 1.40712944684,9.84990612789 l47.8424011926,5.47216988824 57.5359610667,1.40712944684 l50.9693558846,-7.97373380633 26.73545949,-12.8205129207 l-5.15947450131,-9.53721032963 -37.6798009118,-9.06816745491 l-153.064408971,0.0 " fill="none" stroke="black" stroke-width="1" /></svg>