<?xml version="1.0" encoding="utf-8" ?>
<svg baseProfile="full" height="300" version="1.1" width="300" xmlns="http://www.w3.org/2000/svg" xmlns:ev="http://www.w3.org/2001/xml-events" xmlns:xlink="http://www.w3.org/1999/xlink"><defs /><rect fill="none" height="300" width="300" x="0" y="0" /><path d="M98.9644966219,25.0 m25.8875727778,36.9822484934 l13.3136093019,8.13609435719 28.1065083101,2.21893480257 l35.5029568412,-12.5739644488 13.3136093019,25.8875727778 l20.710059779,6.65680465097 -3.69822475204,22.9289933653 l11.8343195957,12.5739644488 4.43786960515,15.5325438613 l-76.9230725073,2.95857989893 -15.5325438613,-5.17751494475 l-8.8757392103,13.3136093019 -5.17751494475,20.710059779 l2.95857989893,89.4970437669 -21.4497036591,10.3550298895 m14.053254155,-126.479288368 l-85.7988146365,0.739644974732 34.763314907,4.43786960515 l49.5562119692,1.47928994946 7.39644950408,-4.43786960515 l12.5739644488,-2.95857989893 -15.5325438613,9.61538406341 l-8.13609435719,2.21893480257 -45.8579867307,0.0 l-8.8757392103,-1.47928994946 -5.17751494475,-3.69822475204 l-8.13609435719,0.0 -5.17751494475,28.8461541362 l-5.17751494475,71.7455595085 " fill="none" stroke="black" stroke-width="1" /></svg>