<?xml version="1.0" encoding="utf-8" ?>
<svg baseProfile="full" height="300" version="1.1" width="300" xmlns="http://www.w3.org/2000/svg" xmlns:ev="http://www.w3.org/2001/xml-events" xmlns:xlink="http://www.w3.org/1999/xlink"><defs /><rect fill="none" height="300" width="300" x="0" y="0" /><path d="M75.7812512224,164.648437361 m2.3437499161,27.3437491068 l0.781250014854,30.4687507077 -1.9531249729,-1.56250002971 l-3.12500005941,1.9531249729 -16.7968751267,16.4062496696 m21.0937500157,-17.187499556 l6.25000011883,1.17187495805 14.4531254675,6.64062506202 m-24.2187495612,-65.2343732214 l29.6874997937,0.390625007427 11.7187503513,-2.3437499161 l1.56250002971,6.25000011883 1.9531249729,44.1406232057 l-13.6718745534,10.9375004649 m12.1093747806,-10.5468750078 l10.1562495508,13.281250124 5.85937517563,5.46875023244 m-53.9062514103,-66.7968750496 l-18.3593759271,-0.390625007427 -10.9375004649,-4.6874998322 l-16.4062496696,-13.6718745534 -9.37499966439,-14.0625000104 l56.6406254988,0.0 42.5781254884,4.6874998322 l24.6093750183,0.781250014854 1.17187495805,3.12500005941 l-5.85937517563,6.64062506202 -24.6093750183,14.4531254675 l-5.07812477539,5.85937517563 m40.6249982031,-27.3437491068 l19.5312502429,-72.2656273374 2.3437499161,-1.56250002971 l21.8750009297,-5.07812477539 12.890624667,-1.17187495805 l21.8750009297,0.781250014854 23.8281241042,9.37499966439 l14.8437498968,19.9218756999 2.73437511622,5.46875023244 l-23.0468752455,-11.3281248942 -12.5000002377,-4.296874889 l-12.1093747806,-1.9531249729 -29.2968743366,-0.781250014854 " fill="none" stroke="black" stroke-width="1" /></svg>