<?xml version="1.0" encoding="utf-8" ?>
<svg baseProfile="full" height="300" version="1.1" width="300" xmlns="http://www.w3.org/2000/svg" xmlns:ev="http://www.w3.org/2001/xml-events" xmlns:xlink="http://www.w3.org/1999/xlink"><defs /><rect fill="none" height="300" width="300" x="0" y="0" /><path d="M48.5169539836,120.127115068 m2.33050842073,4.8728814967 l4.23728808836,12.288135512 1.90677966763,7.83898332577 l-0.211864411385,-18.8559320211 -2.96610182907,-22.0338973906 l-1.48305091453,-4.4491524649 -0.635593199318,-9.3220336829 l0.635593199318,-1.69491529108 7.83898332577,-0.423728822771 l6.56779650908,1.90677966763 9.3220336829,5.93220365814 l62.9237268022,43.2203406193 12.7118648225,7.83898332577 l12.9237283629,5.72033900289 1.48305091453,-1.27118639864 l1.05932202209,-13.5593223287 0.0,-30.7203393373 l-0.635593199318,-8.89830492981 -4.23728808836,-10.8050851548 m28.6016950145,3.38983058216 l-1.69491529108,2.54237279727 -2.54237279727,12.7118648225 l0.0,19.9152552973 1.90677966763,4.4491524649 l7.20338991742,6.77966116433 3.17796620562,1.48305091453 l3.17796620562,0.0 4.4491524649,-5.29661024979 l1.48305091453,-4.23728808836 3.38983058216,-17.1610170087 l0.0,-4.66101684145 -1.05932202209,-2.54237279727 l-4.8728814967,-5.72033900289 -6.35593241123,-4.8728814967 l-4.4491524649,-2.11864404418 -8.05084742362,-0.635593199318 l-7.20338991742,4.66101684145 m-154.449155308,56.7796607184 l10.8050851548,7.83898332577 15.0423726858,7.41525401527 l20.5508470334,7.41525401527 30.9322039926,9.7457629934 l40.8898294116,9.11016958505 50.0000006689,9.53389833815 l49.7881360136,5.50847434764 31.9915250392,2.54237279727 l0.0,-19.9152552973 -1.27118639864,-0.635593199318 l-2.54237279727,1.05932202209 -3.17796620562,0.211864411385 l-12.9237283629,-6.14406775599 " fill="none" stroke="black" stroke-width="1" /></svg>