<?xml version="1.0" encoding="utf-8" ?>
<svg baseProfile="full" height="300" version="1.1" width="300" xmlns="http://www.w3.org/2000/svg" xmlns:ev="http://www.w3.org/2001/xml-events" xmlns:xlink="http://www.w3.org/1999/xlink"><defs /><rect fill="none" height="300" width="300" x="0" y="0" /><path d="M202.401749284,151.637548947 m2.18340619585,25.1091714317 l1.09170309792,71.5065490545 m-25.1091714317,-114.628819358 l-15.8296944711,-5.4585153101 -28.3842787509,-3.82096093249 l-2.18340619585,2.72925765505 0.545851548961,55.1310067144 m-0.545851548961,0.545851548961 l-8.73362478338,11.4628820794 m9.27947624259,-16.3755466484 l2.18340619585,14.1921393754 m66.5938852036,50.7641950407 l-3.27510911426,7.64192186497 -10.9170306202,13.100436457 m13.100436457,-11.4628820794 l4.36681239169,22.9257641588 m-5.4585153101,-123.362442705 l-3.82096093249,-0.545851548961 -7.09606968772,-6.00436676931 l-26.7467250913,-15.8296944711 -11.4628820794,-33.842794779 l-2.72925765505,-18.0131003079 -3.27510911426,-8.18777332418 l-42.0305688213,-1.63755455713 -2.72925765505,1.09170309792 l-2.72925765505,10.9170306202 0.545851548961,-14.1921393754 l-4.9126638509,-18.5589524852 -1.09170309792,41.484716644 l0.545851548961,-21.2882104993 1.63755455713,-6.55021822851 l0.0,33.2969426018 5.4585153101,-14.7379915527 l-4.36681239169,-19.6506554036 0.545851548961,-6.00436676931 l12.5545857159,-21.2882104993 31.113536765,-7.09606968772 l18.0131003079,3.82096093249 8.18777332418,6.00436676931 " fill="none" stroke="black" stroke-width="1" /></svg>