<?xml version="1.0" encoding="utf-8" ?>
<svg baseProfile="full" height="300" version="1.1" width="300" xmlns="http://www.w3.org/2000/svg" xmlns:ev="http://www.w3.org/2001/xml-events" xmlns:xlink="http://www.w3.org/1999/xlink"><defs /><rect fill="none" height="300" width="300" x="0" y="0" /><path d="M242.74193773,271.415766578 m-3.58422959136,-0.89605739784 l-1.79211479568,-4.48028684186 -4.48028684186,-68.1003604678 l-8.06451643322,-61.827960893 -3.58422959136,-108.422947349 l-85.1254470485,0.0 -60.9319024638,2.68817204618 l-9.85663093422,-0.89605739784 -5.37634409236,-3.58422959136 l-26.8817222299,1.79211479568 8.06451643322,5.37634409236 l8.06451643322,31.3620073037 10.7526881847,84.2293980491 l0.89605739784,84.2293980491 12.5448038644,42.1146990246 m51.0752691721,-250.0 l11.6487454352,121.863804928 0.0,70.7885310405 l-4.48028684186,53.7634444598 -55.5555566033,0.89605739784 l-12.5448038644,-1.79211479568 64.5161314658,2.68817204618 l119.17562964,-12.5448038644 19.7132618684,0.0 m-62.7240146073,-231.182810706 l1.79211479568,63.6200730365 19.7132618684,155.913987519 l-46.5949817409,11.6487454352 -14.3369183654,0.0 l-8.96057368372,-4.48028684186 -2.68817204618,-218.637992696 m1.79211479568,5.37634409236 l-3.58422959136,-1.79211479568 2.68817204618,-8.06451643322 m-56.4516150325,6.27240193222 l26.8817222299,181.899653677 -0.89605739784,15.2329756159 l-12.5448038644,22.4014347987 -3.58422959136,0.0 l-16.1290328664,-9.85663093422 -15.2329756159,-0.89605739784 l0.0,-46.5949817409 -11.6487454352,-46.5949817409 l0.0,-26.8817222299 8.06451643322,-77.9569937594 l0.0,-11.6487454352 -3.58422959136,-8.96057368372 l17.9211473674,7.16845918272 54.6594981741,6.27240193222 " fill="none" stroke="black" stroke-width="1" /></svg>