<?xml version="1.0" encoding="utf-8" ?>
<svg baseProfile="full" height="300" version="1.1" width="300" xmlns="http://www.w3.org/2000/svg" xmlns:ev="http://www.w3.org/2001/xml-events" xmlns:xlink="http://www.w3.org/1999/xlink"><defs /><rect fill="none" height="300" width="300" x="0" y="0" /><path d="M110.670736395,130.487813864 m-6.70731675086,-40.2439005052 l0.609756095605,-5.48780476018 23.7804878288,-31.0975613772 l6.09756075552,-3.6585363731 42.0731708975,-9.14634153433 l21.9512190407,17.073171078 12.8048775064,30.4878045797 l0.0,23.7804878288 -10.9756095204,17.073171078 m-88.4146329603,0.0 l-6.70731675086,18.9024382619 -0.609756095605,14.6341454924 l5.48780476018,21.9512190407 4.2682927695,29.2682909848 l6.09756075552,10.365853525 18.2926830687,3.04878037776 l38.4146333212,-23.7804878288 4.2682927695,-6.09756075552 l9.14634153433,-31.7073149662 0.609756095605,-39.6341469161 m-68.2926843119,107.317068014 l-1.82926818655,37.8048765238 m40.8536573026,-57.3170747916 l9.75609752967,60.9756091594 m21.3414622433,-135.975611826 l4.2682927695,-2.43902438242 37.8048765238,-8.53658553899 l-26.8292670034,37.8048765238 29.2682909848,-3.04878037776 l-29.8780477823,34.146342156 0.0,6.70731675086 l-24.9999998195,22.5609758382 m-73.7804890721,-84.7560985925 l-46.3414620628,53.6585340069 9.75609752967,-1.21951219121 l20.1219502526,-10.365853525 -3.6585363731,10.9756095204 l6.09756075552,24.9999998195 26.2195118102,-11.5853655157 l-14.0243902992,14.0243902992 m-23.1707310314,-117.682920737 l11.5853655157,-15.8536574831 3.04878037776,15.2439022899 l51.829266823,-78.6585370348 " fill="none" stroke="black" stroke-width="1" /></svg>