<?xml version="1.0" encoding="utf-8" ?>
<svg baseProfile="full" height="300" version="1.1" width="300" xmlns="http://www.w3.org/2000/svg" xmlns:ev="http://www.w3.org/2001/xml-events" xmlns:xlink="http://www.w3.org/1999/xlink"><defs /><rect fill="none" height="300" width="300" x="0" y="0" /><path d="M189.791665273,120.000000829 m-0.83333334361,8.33333316205 l5.8333335423,59.5833324923 1.66666668722,52.9166668397 l2.08333329051,22.083332715 0.0,5.8333335423 l-2.08333329051,-1.66666668722 m-4.16666658102,-41.2499997551 l-1.2499999469,-2.4999998938 -1.2499999469,2.4999998938 l-8.33333316205,49.1666668619 m21.2500006046,-55.4166653632 l12.0833331398,18.3333327373 7.08333335217,14.5833327595 m-69.9999981227,-136.250000653 l-14.1666667043,12.5000002912 -16.2500002689,25.4166655413 l9.16666636863,1.66666668722 26.6666669955,-0.416666671805 l-2.08333329051,-0.83333334361 -4.16666658102,22.9166670178 l-3.74999997773,11.6666670846 m12.9166663464,-35.4166662128 l-2.08333329051,0.416666671805 10.4166667266,21.6666655636 l2.91666677115,4.99999978761 4.58333318432,1.2499999469 m-19.1666670401,-30.4166669733 l4.58333318432,6.25000014559 18.7499998887,15.8333331175 m14.9999999109,-52.0833325369 l-10.4166667266,0.83333334361 -21.2500006046,-3.33333337444 l-19.5833341915,-0.416666671805 1.2499999469,-2.4999998938 l0.416666671805,-10.8333327818 0.416666671805,-73.7499981005 l37.9166669287,9.16666636863 19.5833341915,2.91666677115 l0.0,42.9166683607 -5.8333335423,21.2500006046 l-6.25000014559,12.0833331398 m-29.5833326705,-85.8333367213 l-17.9166666821,-7.49999995547 -26.2499998441,-1.66666668722 l-21.2500006046,0.83333334361 -14.5833327595,8.33333316205 l-3.74999997773,6.25000014559 0.416666671805,7.91666655876 l8.74999976534,11.2499999332 4.99999978761,4.99999978761 l11.6666670846,7.49999995547 13.7499995529,3.74999997773 " fill="none" stroke="black" stroke-width="1" /></svg>