<?xml version="1.0" encoding="utf-8" ?>
<svg baseProfile="full" height="300" version="1.1" width="300" xmlns="http://www.w3.org/2000/svg" xmlns:ev="http://www.w3.org/2001/xml-events" xmlns:xlink="http://www.w3.org/1999/xlink"><defs /><rect fill="none" height="300" width="300" x="0" y="0" /><path d="M86.0403430538,190.339706156 m0.0,0.0 m113.588107801,-127.919323406 l15.3927809767,0.0 32.9087038681,5.30785548513 l27.0700643008,1.06157113194 -2.65392774256,2.12314226387 l-14.8619961962,2.65392774256 -46.1783443265,5.83864096381 m-1.06157113194,-10.6157109703 l47.7707000644,2.65392774256 m-58.3864124311,-11.6772819276 l-6.3694264425,-5.83864096381 -14.3312100193,-1.06157113194 l-3.71549904906,7.43099809811 3.18471322125,53.0785562477 l-5.83864096381,28.1316338617 -7.9617835768,-1.59235661063 l-35.0318457829,-15.3927809767 -42.9936300579,-38.7473462284 l-12.2080681045,-6.3694264425 0.530785565968,6.3694264425 l11.6772819276,25.47770577 9.02335453418,13.2696390619 l3.18471322125,2.12314226387 -38.7473462284,-41.4012743201 l-6.90021192119,-2.65392774256 -4.24628452775,0.530785565968 l12.2080681045,38.7473462284 1.06157113194,9.55414001287 l-36.0934181367,-25.47770577 -1.06157113194,3.71549904906 l6.3694264425,9.55414001287 9.55414001287,20.70063716 l8.49256905549,6.90021192119 33.970276222,11.6772819276 l42.462843881,4.24628452775 20.1698509831,6.3694264425 l16.4543519341,0.530785565968 -4.24628452775,39.2781324053 l0.0,30.2547757765 -11.6772819276,7.9617835768 m10.0849254916,-7.43099809811 l6.90021192119,4.77707000644 " fill="none" stroke="black" stroke-width="1" /></svg>