<?xml version="1.0" encoding="utf-8" ?>
<svg baseProfile="full" height="300" version="1.1" width="300" xmlns="http://www.w3.org/2000/svg" xmlns:ev="http://www.w3.org/2001/xml-events" xmlns:xlink="http://www.w3.org/1999/xlink"><defs /><rect fill="none" height="300" width="300" x="0" y="0" /><path d="M157.389160665,157.389160412 m-46.1822642544,-0.615763549043 l-17.857142416,-13.5467974714 -40.6403924143,-36.3300490898 l7.3891621835,-1.84729054588 59.7290617258,17.2413797782 l50.492610819,2.46305419617 14.778324367,-16.6256155204 l19.7044335694,-27.7093592007 10.4679802325,-17.857142416 l6.15763528792,-24.0147785139 8.6206898891,-9.23645333689 l5.54187184013,-3.07881764396 m1.23152709809,-1.23152709809 l7.3891621835,0.0 3.07881764396,3.07881764396 l-0.615763549043,3.07881764396 -18.4729066738,11.6995071281 l-3.69458109175,11.6995071281 -3.69458109175,32.0197025252 l-5.54187184013,16.0098512626 -7.3891621835,12.3152705758 l-34.4827595564,41.2561566721 -20.3201962071,33.8669952986 l-2.46305419617,-3.07881764396 1.23152709809,-0.615763549043 m89.2857136999,-149.630533203 l-19.0886693116,-1.23152709809 -7.3891621835,-3.69458109175 m-76.970441504,119.458123452 l-2.46305419617,123.768473256 m35.0985205741,-116.99506642 l38.1773386231,27.0935949429 -9.23645333689,6.77339873571 l-9.23645333689,12.3152705758 -9.85221678468,20.9359604649 " fill="none" stroke="black" stroke-width="1" /></svg>