<?xml version="1.0" encoding="utf-8" ?>
<svg baseProfile="full" height="300" version="1.1" width="300" xmlns="http://www.w3.org/2000/svg" xmlns:ev="http://www.w3.org/2001/xml-events" xmlns:xlink="http://www.w3.org/1999/xlink"><defs /><rect fill="none" height="300" width="300" x="0" y="0" /><path d="M203.379828515,25.0 m-19.8497856444,0.0 l-4.82832608523,4.82832608523 7.51072977956,4.2918454875 l16.0944207546,-6.97424847612 m-17.703861842,6.97424847612 l0.0,42.3819721602 -1.6094419696,10.1931327682 l-2.68240334148,1.07296137188 -8.58369097501,-1.6094419696 l-18.7768230375,0.0 -30.0429191183,6.4377678784 l-13.9484969522,1.07296137188 -15.0214595591,0.0 l-13.9484969522,-5.36480668295 -3.75536488978,0.0 l-1.07296137188,2.68240334148 -0.536480685938,65.9871212829 l3.2188839392,19.8497856444 11.8025745613,20.3862655364 l6.97424847612,-11.8025745613 16.0944207546,-10.7296133659 l31.1158789023,-10.1931327682 56.8669504159,-28.9699565114 l17.16738195,-3.75536488978 -25.214593033,-19.3133043409 l-7.51072977956,-23.6051491227 -9.12017157273,-6.97424847612 m38.6266086818,54.7210308478 l0.536480685938,50.429186066 10.1931327682,9.12017157273 l-0.536480685938,2.68240334148 m-134.656649083,-2.68240334148 l13.9484969522,46.6738197648 6.97424847612,32.1888415091 m105.150211268,-87.4463508375 l-1.07296137188,11.8025745613 m-1.07296137188,-16.6309006466 l-8.58369097501,9.65665217046 m-90.128751709,77.2532173636 l11.8025745613,-0.536480685938 m-15.5579394511,2.14592274375 l0.0,1.07296137188 " fill="none" stroke="black" stroke-width="1" /></svg>