<?xml version="1.0" encoding="utf-8" ?>
<svg baseProfile="full" height="300" version="1.1" width="300" xmlns="http://www.w3.org/2000/svg" xmlns:ev="http://www.w3.org/2001/xml-events" xmlns:xlink="http://www.w3.org/1999/xlink"><defs /><rect fill="none" height="300" width="300" x="0" y="0" /><path d="M79.4294282913,47.522524312 m-15.7657656234,19.519518873 l36.0360351463,-11.2612617239 1.50150154673,1.50150154673 m-17.2672679108,-11.2612617239 l6.00600618691,-9.7597594365 15.7657656234,-10.510511074 l32.2822828843,-0.750750773364 6.00600618691,8.25825813666 l-12.7627630237,20.2702705105 -14.2642643236,9.00900878658 m5.255255537,11.2612617239 l-1.50150154673,42.7927919832 m-12.7627630237,-48.7988011328 l0.0,47.2972978578 -2.25225219665,24.77477441 l2.25225219665,10.510511074 m6.00600618691,-5.255255537 l3.00300309346,-5.255255537 109.609612664,-13.5135136737 l9.7597594365,21.7717718103 -1.50150154673,3.75375374337 l-3.75375374337,3.75375374337 -87.8378388788,15.0150149735 l-26.2762757098,-10.510511074 -6.00600618691,-10.510511074 m48.0480494953,29.2792802847 l-20.2702705105,96.0960989906 m72.0720702926,-109.609612664 l-23.2732731102,98.3483460025 " fill="none" stroke="black" stroke-width="1" /></svg>