<?xml version="1.0" encoding="utf-8" ?>
<svg baseProfile="full" height="300" version="1.1" width="300" xmlns="http://www.w3.org/2000/svg" xmlns:ev="http://www.w3.org/2001/xml-events" xmlns:xlink="http://www.w3.org/1999/xlink"><defs /><rect fill="none" height="300" width="300" x="0" y="0" /><path d="M190.60734206,149.293786112 m0.0,113.70056397 l-1.41242940215,11.2994352172 -2.1186439871,0.706214701075 m45.1977408688,-127.824859385 l0.0,21.8926549204 3.53107338925,10.5932206322 l-2.1186439871,3.53107338925 -33.1920919956,9.8870060473 l-21.8926549204,-7.76836136345 -50.1412420344,-1.41242940215 m63.5593219355,-35.3107348215 l-126.412428357,18.3615810667 -0.706214701075,-4.2372879742 l4.94350302365,-7.0621467785 45.1977408688,-31.0734454538 l-43.0790943269,19.0677965806 -7.76836136345,2.8248588043 l3.53107338925,-3.53107338925 21.1864412645,-10.5932206322 l43.7853098409,-27.542373458 54.3785314021,-24.0112996043 l0.706214701075,-3.53107338925 -3.53107338925,-9.18079053335 l-15.5367227269,-20.4802257505 -3.53107338925,-14.124293557 m28.248587114,-8.4745759484 l0.706214701075,3.53107338925 19.0677965806,24.0112996043 " fill="none" stroke="black" stroke-width="1" /></svg>