<?xml version="1.0" encoding="utf-8" ?>
<svg baseProfile="full" height="300" version="1.1" width="300" xmlns="http://www.w3.org/2000/svg" xmlns:ev="http://www.w3.org/2001/xml-events" xmlns:xlink="http://www.w3.org/1999/xlink"><defs /><rect fill="none" height="300" width="300" x="0" y="0" /><path d="M59.556313647,131.655300066 m2.98634818129,83.1911229366 m2.98634818129,2.13310572352 l7.25255962832,4.26621144704 4.26621144704,4.69283253562 l7.25255962832,3.41296926987 m-17.9180879653,-17.9180879653 l-1.70648463493,0.853242317467 20.9044361466,4.26621144704 l11.0921494256,4.69283253562 m-26.0238892096,-6.39931745115 l8.95904398265,8.10580180549 11.5187710754,5.1194536242 m-29.863479568,-95.1365201514 l5.54607471279,2.5597268121 -7.6791807169,-0.853242317467 l-1.27986340605,2.13310572352 -15.7849830836,32.423207222 l-6.82593853974,28.1569952137 0.853242317467,3.41296926987 l3.41296926987,3.83959035845 13.6518770795,10.2389072484 l4.26621144704,5.97269636257 m217.576789972,36.6894192302 m-0.853242317467,-0.426621158734 l-245.307161291,-55.0341299677 m244.880539641,57.167233727 l-233.361773056,-25.1706481548 m234.641638005,31.5699661672 l0.0,0.0 m-234.215016355,-66.9795226928 l-3.83959035845,33.2764505215 -1.70648463493,7.25255962832 m4.69283253562,-27.303754159 l3.41296926987,8.53242289407 7.25255962832,7.6791807169 l1.27986340605,3.83959035845 m8.95904398265,-102.389079218 l-0.853242317467,1.70648463493 m-20.0511950918,-43.0887372425 l-9.38566507124,16.6382252608 -3.41296926987,9.81228672102 l-2.13310572352,16.6382252608 4.26621144704,8.53242289407 l7.25255962832,4.69283253562 5.54607471279,-2.5597268121 l5.1194536242,-5.54607471279 8.95904398265,-14.5051192566 l2.5597268121,-14.0784976069 m0.0,-13.6518770795 l-2.98634818129,31.1433445174 1.70648463493,7.25255962832 l4.26621144704,1.70648463493 19.624573442,-0.853242317467 l2.98634818129,-2.13310572352 6.82593853974,-20.4778144968 l0.853242317467,-7.6791807169 -2.13310572352,-15.3583614338 m-59.3003419759,14.931739784 l12.3720132525,-28.5836168635 13.6518770795,-15.7849830836 l34.1296915763,-15.3583614338 23.0375421507,-8.53242289407 l6.39931745115,2.13310572352 4.26621144704,3.41296926987 l2.13310572352,10.6655288982 -0.853242317467,2.98634818129 l-5.1194536242,2.13310572352 33.7030699265,1.70648463493 l-18.7713301425,9.81228672102 -28.1569952137,7.25255962832 l-17.0648457881,9.81228672102 -2.13310572352,1.70648463493 l1.27986340605,20.0511950918 m25.1706481548,-56.3139904274 l0.0,0.0 " fill="none" stroke="black" stroke-width="1" /></svg>