<?xml version="1.0" encoding="utf-8" ?>
<svg baseProfile="full" height="300" version="1.1" width="300" xmlns="http://www.w3.org/2000/svg" xmlns:ev="http://www.w3.org/2001/xml-events" xmlns:xlink="http://www.w3.org/1999/xlink"><defs /><rect fill="none" height="300" width="300" x="0" y="0" /><path d="M49.158126545,80.8199128928 m-15.7393853741,2.92825777762 l-8.41874117084,4.39238642568 31.4787707483,-1.46412888881 m-4.02635426366,-4.39238642568 l-2.19619321284,-13.543192402 15.7393853741,-1.09809660642 l7.68667636531,6.95461204128 6.95461204128,22.3279642904 l2.92825777762,13.1771597585 3.29428993963,28.5505134522 l2.19619321284,9.51683717539 0.732064444405,-2.19619321284 m-29.6486094567,-63.3235741401 l9.8828698189,15.7393853741 15.3733527306,31.1127381048 l-1.09809660642,1.83016105082 -1.09809660642,10.2489024624 l4.75841858769,14.2752567261 m-1.46412888881,-8.41874117084 l13.543192402,-12.079062791 16.8374823417,-10.6149341429 l103.221082207,15.3733527306 54.9048310432,17.5695457027 l-19.7657396378,35.1390914054 -35.1390914054,4.75841858769 l-81.2591544123,-15.0073210501 -23.4260622209,-27.4524155216 l-24.890190869,-10.2489024624 0.0,-1.09809660642 m65.5197661492,43.5578345023 l-0.366032222202,12.4450954345 -7.3206442033,22.6939969339 l6.22254771725,9.8828698189 m-8.78477285136,-9.8828698189 l-2.19619321284,0.0 -7.68667636531,5.49048339322 l0.0,2.92825777762 m6.58857987927,-8.41874117084 " fill="none" stroke="black" stroke-width="1" /></svg>