<?xml version="1.0" encoding="utf-8" ?>
<svg baseProfile="full" height="300" version="1.1" width="300" xmlns="http://www.w3.org/2000/svg" xmlns:ev="http://www.w3.org/2001/xml-events" xmlns:xlink="http://www.w3.org/1999/xlink"><defs /><rect fill="none" height="300" width="300" x="0" y="0" /><path d="M25.0,178.326403832 m7.79625798566,-18.9708941811 l0.779625747288,-6.23700597831 0.0,-14.2931395264 l-2.33887732733,-8.31600842688 25.4677750381,-0.25987526334 m-20.7900203835,19.7505195011 l14.033263964,0.25987526334 m22.3492723908,-28.5862790529 l-1.55925149458,4.15800421344 -2.07900210672,13.7733884015 l0.0,9.35550930931 -1.55925149458,13.253638644 l9.35550930931,3.11850298915 13.7733884015,2.07900210672 m3.89812899283,3.89812899283 l6.49688154077,-9.87525975053 4.15800421344,-13.513512839 l0.51975052668,25.9875261631 0.779625747288,1.03950105336 m-3.63825377222,-2.59875254794 l-6.23700597831,-4.41787943405 6.75675641952,0.0 m11.6943866366,6.75675641952 l-1.03950105336,-22.6091479533 1.81912688611,-8.05613286442 l0.779625747288,3.89812899283 4.41787943405,11.1746361954 l6.49688154077,-15.5925159713 2.33887732733,4.41787943405 l1.29937627397,7.27650754445 0.51975052668,18.7110186186 l1.29937627397,3.63825377222 m18.7110186186,-32.4844070201 l-0.25987526334,28.3264034904 -1.29937627397,-9.61538487178 m-0.779625747288,-36.6424105499 l-1.29937627397,3.11850298915 1.55925149458,0.0 l-0.51975052668,1.29937627397 -0.51975052668,-3.37837820976 m16.3721412913,41.8399163294 l7.79625798566,-12.7338875191 0.779625747288,-5.19750509587 l-1.81912688611,-12.2141377616 -0.779625747288,8.8357588681 l1.29937627397,12.2141377616 7.27650754445,1.29937627397 l6.49688154077,-0.51975052668 9.09563374685,-16.8918924162 l-0.25987526334,-14.8128892839 -1.03950105336,-2.33887732733 m33.7837848324,5.19750509587 l-1.81912688611,-0.51975052668 -4.41787943405,7.01663198198 l-4.67775465466,13.7733884015 -1.29937627397,10.135135313 l3.37837820976,1.03950105336 0.0,-5.71725553709 l-3.37837820976,-3.89812899283 3.37837820976,0.51975052668 l1.29937627397,-1.55925149458 m42.0997918919,-21.5696470709 l-4.41787943405,0.0 -3.37837820976,5.19750509587 l-4.41787943405,21.5696470709 0.51975052668,10.914760633 l4.15800421344,0.0 20.7900203835,-40.540541252 l-4.41787943405,-5.71725553709 -6.49688154077,-0.779625747288 m-36.1226621598,9.61538487178 l-2.59875254794,1.03950105336 -4.67775465466,3.63825377222 l-3.11850298915,23.1288977108 2.33887732733,9.35550930931 l12.9937630815,-7.5363824232 2.07900210672,-6.23700597831 l-0.51975052668,-1.55925149458 -4.15800421344,-2.85862776854 l0.0,-1.29937627397 7.01663198198,-3.37837820976 m-66.7879429775,-7.27650754445 l3.89812899283,12.7338875191 3.63825377222,6.75675641952 l2.85862776854,3.89812899283 4.15800421344,3.11850298915 l3.89812899283,-19.7505195011 -0.25987526334,-7.27650754445 l1.03950105336,-7.27650754445 m-95.1143464679,33.0041581451 " fill="none" stroke="black" stroke-width="1" /></svg>