<?xml version="1.0" encoding="utf-8" ?>
<svg baseProfile="full" height="300" version="1.1" width="300" xmlns="http://www.w3.org/2000/svg" xmlns:ev="http://www.w3.org/2001/xml-events" xmlns:xlink="http://www.w3.org/1999/xlink"><defs /><rect fill="none" height="300" width="300" x="0" y="0" /><path d="M44.9240985071,80.0284625138 m-19.9240985071,0.474383316361 l0.474383316361,2.3719165038 13.2827331701,3.32068329253 m0.474383316361,0.474383316361 l0.948766632723,-4.7438330076 6.16698272268,-10.4364324919 l11.3851989686,-14.2314996468 9.01328277685,-6.16698272268 l3.79506653089,-0.474383316361 5.69259948432,2.3719165038 l8.06451630014,7.11574982342 4.7438330076,9.01328277685 l0.948766632723,13.7571157845 -4.7438330076,7.59013306178 l-12.3339654454,9.96204925357 -8.06451630014,0.948766632723 l-19.9240985071,-4.7438330076 -1.42314987108,-7.59013306178 m46.0151797369,-15.6546487379 l0.474383316361,40.3225808767 8.5388995385,59.2979129071 m-0.474383316361,0.948766632723 l42.6944976925,5.69259948432 72.1062622148,2.84629974216 l62.1442110892,4.26944976925 m-101.043642875,-0.948766632723 l-7.11574982342,63.5673626763 m9.48766601521,-65.9392819883 l-10.9108163543,17.5521829394 -18.9753320304,9.96204925357 l-2.84629974216,4.26944976925 27.0398477065,6.64136658507 m-69.2599640327,-50.2846295062 l5.21821624596,-8.5388995385 10.9108163543,-2.3719165038 l49.8102456438,0.948766632723 50.2846295062,-0.948766632723 l40.3225808767,13.7571157845 " fill="none" stroke="black" stroke-width="1" /></svg>