<?xml version="1.0" encoding="utf-8" ?>
<svg baseProfile="full" height="300" version="1.1" width="300" xmlns="http://www.w3.org/2000/svg" xmlns:ev="http://www.w3.org/2001/xml-events" xmlns:xlink="http://www.w3.org/1999/xlink"><defs /><rect fill="none" height="300" width="300" x="0" y="0" /><path d="M205.205050524,97.5552042308 m-48.1072543194,0.0 l-21.293375679,1.18296527228 -10.2523656066,3.94321766071 l-20.8990534461,11.4353312679 -31.9400635186,20.8990534461 l-9.85804441112,9.46372217821 m140.378548929,-44.9526806059 l0.788643558077,-52.0504724989 3.94321766071,-10.6466878395 m5.52050503622,-7.09779189301 l0.788643558077,-2.36593054455 4.7318610891,-0.788643558077 l44.9526806059,-1.57728711615 -13.0126181247,3.15457423231 l-8.28075703561,7.09779189301 -11.8296535008,5.91482675042 l-7.09779189301,6.70347017881 -3.15457423231,5.52050503622 l-1.57728711615,9.85804441112 2.76025251811,3.94321766071 l-6.30914846462,20.5047312132 0.788643558077,19.3217665893 l-5.91482675042,34.7003149992 -0.788643558077,12.2239746963 l0.394321779038,48.8958987853 -1.18296527228,42.1924291252 l1.97160883035,29.9684544289 -8.67507874981,0.0 m2.36593054455,-125.394320677 l-20.1104110552,3.15457423231 -18.5331241984,0.394321779038 l-28.785489805,4.33753937491 -100.946375434,3.54889594651 " fill="none" stroke="black" stroke-width="1" /></svg>