<?xml version="1.0" encoding="utf-8" ?>
<svg baseProfile="full" height="300" version="1.1" width="300" xmlns="http://www.w3.org/2000/svg" xmlns:ev="http://www.w3.org/2001/xml-events" xmlns:xlink="http://www.w3.org/1999/xlink"><defs /><rect fill="none" height="300" width="300" x="0" y="0" /><path d="M34.1368533689,178.382580561 m5.44323510237,-1.74961120984 l8.7480560492,-0.972006213482 21.1897359909,-0.388802498179 l24.3001554649,-5.24883362952 107.892694683,0.19440124909 l4.47122876103,0.583203715303 20.6065315724,6.80404336651 l16.3297042842,8.55365457635 31.8818047228,11.4696736004 l-88.063760819,0.19440124909 -32.4650070956,-0.583203715303 l-9.9144638634,-0.972006213482 -35.5754286154,-0.19440124909 l-39.6578554536,-2.91601876831 -31.4930017771,0.0 l-7.38724727361,-3.69362363681 -5.44323510237,-0.19440124909 m2.13841364409,-3.11041998543 l6.60964240512,-2.13841364409 11.4696736004,0.0 l6.99844483936,0.777604996358 51.7107304038,0.0 l6.80404336651,1.74961120984 7.19284631221,0.972006213482 l125.194401217,0.972006213482 5.24883362952,1.55520999272 l6.80404336651,3.49922241968 5.44323510237,1.16640743061 l6.99844483936,0.19440124909 3.30482120256,2.33281486121 m-129.082430674,-95.0622056583 l-0.972006213482,5.44323510237 -1.74961120984,4.47122876103 l-1.36080877559,8.35925361496 -0.19440124909,30.7153958857 l1.94401242696,0.972006213482 5.83203753662,-1.36080877559 l4.08242607105,-1.55520999272 3.88802485393,-2.91601876831 l4.47122876103,-1.94401242696 m-4.08242607105,0.777604996358 l-1.36080877559,-1.94401242696 -1.94401242696,-0.777604996358 l-2.33281486121,0.19440124909 -5.44323510237,2.52721607834 l-0.388802498179,1.94401242696 0.777604996358,1.94401242696 m-2.91601876831,2.13841364409 l-4.86003119527,0.583203715303 -11.0808706547,0.0 l-17.6905135713,-6.99844483936 m5.24883362952,2.13841364409 l1.16640743061,-0.972006213482 3.49922241968,-1.16640743061 l3.88802485393,-0.583203715303 5.44323510237,8.35925361496 " fill="none" stroke="black" stroke-width="1" /></svg>