<?xml version="1.0" encoding="utf-8" ?>
<svg baseProfile="full" height="300" version="1.1" width="300" xmlns="http://www.w3.org/2000/svg" xmlns:ev="http://www.w3.org/2001/xml-events" xmlns:xlink="http://www.w3.org/1999/xlink"><defs /><rect fill="none" height="300" width="300" x="0" y="0" /><path d="M58.7653571991,185.811737095 m6.1391542127,36.1527962328 l1.36425651664,3.06957710635 3.41064117943,27.2851294354 m0.341064129159,-1.70532058971 l2.04638466279,2.04638466279 10.5729876114,-1.36425651664 m4.77489792039,-59.3451585859 l4.43383339866,47.0668501605 7.84447502675,17.7353335946 l2.72851303327,3.41064117943 0.341064129159,-1.36425651664 m-2.72851303327,-2.04638466279 l5.11596199347,0.0 65.4843092093,-17.7353335946 l8.86766679732,-3.41064117943 m-136.425650766,-69.5770834701 l6.82128235886,5.45702606655 83.219642804,39.9045023826 l28.9904502495,9.54979584079 3.41064117943,-5.11596199347 l3.75170525251,-41.609821402 -1.0231923314,-13.3015010933 l-17.7353335946,-31.0368355852 -7.84447502675,-7.84447502675 l-29.3315147712,-18.0763981164 -8.86766679732,-0.682128258319 l-14.6657573856,10.2319239869 -19.0995916816,17.0532063458 l-23.5334250802,35.1296062568 -21.8281042662,19.7817189304 l-0.341064129159,1.36425651664 m120.736697124,-81.5143273738 l2.3874489602,-0.341064129159 9.20873131905,-15.3478855318 l12.9604365716,-31.7189646287 7.50341050501,-16.3710773023 l1.70532058971,-0.341064129159 28.9904502495,5.79809013963 l19.7817189304,0.0 2.3874489602,12.9604365716 l43.6562085324,61.391542127 0.682128258319,-2.72851303327 m-112.551162959,9.54979584079 l-1.70532058971,0.0 1.0231923314,-18.4174626381 l8.5266031729,-19.7817189304 -6.1391542127,8.5266031729 l-45.0204630301,47.7489756147 8.5266031729,-16.0300145752 l25.9208731431,-59.0040940641 5.79809013963,-31.377900107 l-6.48021828578,22.1691687879 -7.50341050501,39.9045023826 l15.00682101,-20.804910701 20.804910701,-24.8976813725 l43.9972730541,-4.77489792039 11.2551157575,7.50341050501 l15.6889500535,43.3151440107 21.4870397445,31.377900107 " fill="none" stroke="black" stroke-width="1" /></svg>