<?xml version="1.0" encoding="utf-8" ?>
<svg baseProfile="full" height="300" version="1.1" width="300" xmlns="http://www.w3.org/2000/svg" xmlns:ev="http://www.w3.org/2001/xml-events" xmlns:xlink="http://www.w3.org/1999/xlink"><defs /><rect fill="none" height="300" width="300" x="0" y="0" /><path d="M147.954542127,80.9090910173 m-48.6363622453,0.909090909634 l-52.727271264,7.72727265715 15.4545453143,0.909090909634 l34.5454536692,7.72727265715 18.1818175948,2.27272719934 l33.6363641049,-2.72727257942 -0.909090909634,-50.4545461574 l5.45454515884,-22.2727266134 71.3636372285,58.6363641946 l-4.09090901861,33.6363641049 -4.09090901861,4.99999977876 l-8.18181803723,2.27272719934 -7.27272727708,0.0 l-14.0909085761,-4.99999977876 -28.1818171523,-4.99999977876 l-6.36363651693,-6.36363651693 -1.36363628971,-13.181817816 m12.7272730339,-7.72727265715 l0.0,0.0 m16.3636360745,0.0 l0.0,0.0 m-2.27272719934,29.0909091083 l0.909090909634,107.727272418 -10.4545455355,24.5454541117 l-5.45454515884,26.363635632 m14.5454545542,-77.7272713537 l14.9999993363,-13.181817816 19.5454543329,-13.181817816 l41.8181821422,-19.9999991151 -19.9999991151,11.8181810778 l-33.1818181269,22.7272725914 6.36363651693,0.454545454817 l45.4545451828,-9.54545417745 -27.7272711743,14.0909085761 " fill="none" stroke="black" stroke-width="1" /></svg>