<?xml version="1.0" encoding="utf-8" ?>
<svg baseProfile="full" height="300" version="1.1" width="300" xmlns="http://www.w3.org/2000/svg" xmlns:ev="http://www.w3.org/2001/xml-events" xmlns:xlink="http://www.w3.org/1999/xlink"><defs /><rect fill="none" height="300" width="300" x="0" y="0" /><path d="M25.0,94.5987651706 m6.79012355754,-0.617283987459 m-6.79012355754,1.23456797492 l6.48148161456,2.77777789281 23.7654332634,4.32098801371 l4.93827189967,3.08641983579 1.5432099179,8.9506175644 l-0.308641993729,16.0493826589 -2.77777789281,4.32098801371 l-5.24691384265,12.9629632291 1.5432099179,9.87654379934 l4.01234566473,6.79012355754 12.0370378062,5.55555578563 l9.56790145035,0.925925930437 4.32098801371,-6.79012355754 l2.77777789281,-7.09876590652 1.5432099179,-7.4074074435 l1.23456797492,-25.9259264582 -2.77777789281,-6.79012355754 l-0.925925930437,-10.8024692223 -3.39506177877,-2.77777789281 l-15.123457236,-5.55555578563 -21.6049384445,-4.62962995669 l-8.02469132945,-0.617283987459 -6.17283967158,0.617283987459 m24.6913586863,73.4567946091 l-19.1358029007,46.2962971309 -2.46913594983,9.87654379934 m26.5432111562,-25.9259264582 l7.71604979248,-14.814814887 5.24691384265,-17.5925927798 m-1.23456797492,1.23456797492 l0.308641993729,29.629629774 -1.5432099179,14.814814887 l-8.9506175644,33.9506194117 m20.0617299477,-91.0493890129 l-0.925925930437,76.2345692538 0.617283987459,14.814814887 l0.617283987459,3.70370372175 1.5432099179,-0.308641993729 m-1.23456797492,-130.864200063 l13.5802471151,-35.4938279086 15.7407419339,-28.7037059751 l0.925925930437,1.85185186087 -4.62962995669,21.6049384445 l-23.7654332634,39.8148175463 m6.48148161456,5.8641977286 l12.0370378062,-6.79012355754 21.9135807935,-16.0493826589 l22.2222231425,-18.5185198268 1.5432099179,2.16049400686 l-7.71604979248,22.8395078405 -3.39506177877,6.17283967158 l-27.7777789281,32.0987653178 -4.93827189967,4.32098801371 l-11.7283954572,7.4074074435 -0.925925930437,-0.308641993729 m-5.8641977286,3.39506177877 l70.0617287702,10.4938276853 86.7283961271,-2.77777789281 l-7.71604979248,4.32098801371 -158.950627836,14.814814887 l62.6543253868,4.01234566473 12.6543216921,2.46913594983 l22.2222231425,2.16049400686 m-61.4197559909,-12.3456793432 l-23.1481485654,-2.46913594983 -40.1234598953,-7.09876590652 l130.864200063,0.925925930437 93.2098789597,5.55555578563 " fill="none" stroke="black" stroke-width="1" /></svg>