<?xml version="1.0" encoding="utf-8" ?>
<svg baseProfile="full" height="300" version="1.1" width="300" xmlns="http://www.w3.org/2000/svg" xmlns:ev="http://www.w3.org/2001/xml-events" xmlns:xlink="http://www.w3.org/1999/xlink"><defs /><rect fill="none" height="300" width="300" x="0" y="0" /><path d="M106.923080081,194.230770836 m3.07692313141,-40.7692298469 l-1.5384615657,-52.307692728 m38.4615388896,96.9230768686 l-2.30769222207,-96.9230768686 m-79.2307727841,-36.1538479324 l2.30769222207,27.6923076767 8.46153823192,11.5384618693 l14.6153844947,12.3076925256 31.5384619705,13.076923182 l24.6153850513,0.0 8.46153823192,-3.84615378778 l9.23076888828,-9.23076888828 11.5384618693,-43.0769248516 l5.38461560645,-8.46153823192 12.3076925256,-3.84615378778 l40.7692298469,16.9230764638 -27.6923076767,-44.6153841406 l-15.3846151511,-0.769230782852 -19.2307694448,-7.69230757555 l-34.6153845959,1.5384615657 -58.4615379789,26.153846364 l-13.076923182,14.6153844947 m85.384618035,127.692311218 l-0.769230782852,79.9999963572 m-44.6153841406,-85.384618035 l16.9230764638,0.769230782852 0.0,8.46153823192 l-22.3076920703,63.8461556092 " fill="none" stroke="black" stroke-width="1" /></svg>