<?xml version="1.0" encoding="utf-8" ?>
<svg baseProfile="full" height="300" version="1.1" width="300" xmlns="http://www.w3.org/2000/svg" xmlns:ev="http://www.w3.org/2001/xml-events" xmlns:xlink="http://www.w3.org/1999/xlink"><defs /><rect fill="none" height="300" width="300" x="0" y="0" /><path d="M275.0,43.4478368673 m-22.2646304982,0.0 l-19.0839701939,-3.81679378773 -15.2671751509,0.0 l-22.2646304982,8.26971980368 -18.4478371288,12.0865140098 l-13.9949106945,12.0865140098 -8.90585286871,19.7201015853 l-3.81679378773,31.1704833669 -4.45292643435,6.36132311902 l-36.8956742577,13.9949106945 m3.18066155951,-2.54452933129 l-62.3409667337,4.45292643435 -9.54198509693,6.36132311902 l-15.9033082159,15.9033082159 0.0,3.18066155951 l23.5368966282,13.3587784663 28.625954454,1.90839689387 l3.18066155951,4.45292643435 2.54452933129,24.8091610847 m-3.81679378773,-31.8066164319 l18.4478371288,-2.54452933129 28.625954454,0.636132332822 l8.26971980368,32.4427494969 m-55.3435130601,-1.27226466564 l-2.54452933129,47.7099229742 m60.4325675387,-50.2544518871 l-43.2569982135,-0.636132332822 -20.3562346503,1.90839689387 " fill="none" stroke="black" stroke-width="1" /></svg>