<?xml version="1.0" encoding="utf-8" ?>
<svg baseProfile="full" height="300" version="1.1" width="300" xmlns="http://www.w3.org/2000/svg" xmlns:ev="http://www.w3.org/2001/xml-events" xmlns:xlink="http://www.w3.org/1999/xlink"><defs /><rect fill="none" height="300" width="300" x="0" y="0" /><path d="M119.396549498,101.724142541 m77.5862062709,81.8965470317 l-99.137928219,26.7241372115 38.7931031354,-6.03448296196 l8.62068945965,-5.17241356239 5.17241356239,-8.62068945965 l0.862068974316,-69.8275856438 -2.58620678119,-12.9310347565 l-6.89655179453,-12.9310347565 3.44827589726,23.2758618813 l-5.17241356239,94.8275874582 1.72413794863,62.0689650167 m-58.6206896865,-173.275863696 m37.9310331689,-27.5862071781 l0.0,0.0 m59.482759653,-49.1379291262 l-26.7241372115,3.44827589726 -25.862069513,7.75862062709 l-20.6896542496,9.48275829222 -32.7586201735,21.5517242161 l12.9310347565,-6.89655179453 15.5172412542,16.3793100867 l36.2068955037,14.6551724216 16.3793100867,1.72413794863 l23.2758618813,-3.44827589726 10.3448271248,-3.44827589726 l27.5862071781,-18.1034477519 8.62068945965,-17.2413789193 l-4.31034472983,-8.62068945965 -18.1034477519,-11.2068959573 l-18.1034477519,2.58620678119 " fill="none" stroke="black" stroke-width="1" /></svg>