<?xml version="1.0" encoding="utf-8" ?>
<svg baseProfile="full" height="300" version="1.1" width="300" xmlns="http://www.w3.org/2000/svg" xmlns:ev="http://www.w3.org/2001/xml-events" xmlns:xlink="http://www.w3.org/1999/xlink"><defs /><rect fill="none" height="300" width="300" x="0" y="0" /><path d="M118.023256476,172.932809101 m13.5658912242,47.8036192036 l-12.9198964849,32.9457376511 m23.9018096018,-67.1834596821 l9.68992278858,41.3436701114 -9.68992278858,41.3436701114 l0.645994845491,5.81395350319 m-8.39793246027,-97.5452183762 l-29.715763105,-43.9276490685 20.0258394667,-24.5478034913 l42.6356578904,9.04392804931 7.10594298173,40.6976745224 l-20.6718350557,6.45994824246 -23.9018096018,4.52196402466 m1.29198969098,-35.5297166082 l12.9198964849,9.04392804931 14.2118859635,5.81395350319 l26.4857885589,4.52196402466 30.3617586941,-1.93798443025 l1.93798443025,-6.45994824246 -79.4573622776,-19.3798455772 m-4.52196402466,-21.9638245342 l4.52196402466,-38.7596911543 -5.16795876393,-31.007750884 l-50.3875981607,-9.04392804931 9.04392804931,6.45994824246 l19.3798455772,7.10594298173 -2.58397938196,40.0516789333 l7.10594298173,25.1937990804 " fill="none" stroke="black" stroke-width="1" /></svg>