<?xml version="1.0" encoding="utf-8" ?>
<svg baseProfile="full" height="300" version="1.1" width="300" xmlns="http://www.w3.org/2000/svg" xmlns:ev="http://www.w3.org/2001/xml-events" xmlns:xlink="http://www.w3.org/1999/xlink"><defs /><rect fill="none" height="300" width="300" x="0" y="0" /><path d="M165.901061603,117.314483333 m1.32508832164,43.7279162121 l-1.7667845257,9.71731445555 -34.4522983963,-4.41696116898 l-64.9293316825,-1.32508832164 m98.0565424834,7.06713810278 l-3.53356905139,63.1625451232 -0.441696131424,38.4275635065 m-96.731452564,-108.657243246 l-10.1590110954,0.441696131424 10.6007065731,-1.32508832164 l-6.18374598519,10.1590110954 -2.20848058449,0.441696131424 l0.0,-2.65017664329 4.85865722778,-4.85865722778 l4.85865722778,-2.20848058449 -3.97526511019,-8.39222627917 l-7.50883416158,-7.50883416158 m102.915196225,116.607773467 l-1.32508832164,2.20848058449 -4.85865722778,2.20848058449 l11.042403213,-4.85865722778 2.65017664329,2.20848058449 l0.0,2.20848058449 6.18374598519,5.30035328657 m-66.6961135935,-202.738515971 l47.2614846824,31.8021208815 52.5618397121,3.0918729926 l14.5759716833,-5.74204934537 13.6925795657,-3.53356905139 l10.1590110954,-19.4346289111 -0.883392262848,-22.0848064259 l0.883392262848,-2.20848058449 4.85865722778,-1.32508832164 l-15.4593638009,-27.3851591315 -2.20848058449,-0.441696131424 l-10.6007065731,11.9257953306 -3.53356905139,21.6431097861 " fill="none" stroke="black" stroke-width="1" /></svg>