<?xml version="1.0" encoding="utf-8" ?>
<svg baseProfile="full" height="300" version="1.1" width="300" xmlns="http://www.w3.org/2000/svg" xmlns:ev="http://www.w3.org/2001/xml-events" xmlns:xlink="http://www.w3.org/1999/xlink"><defs /><rect fill="none" height="300" width="300" x="0" y="0" /><path d="M182.358156306,52.4822628145 m-7.9787236865,16.8439720975 l-3.10283711877,16.4007103183 -1.32978723249,17.730496822 l0.886524870252,54.5212769695 m-27.4822699574,-18.1737597673 l-26.5957463991,61.1702164847 28.3687958481,0.0 l10.1950360808,1.32978723249 1.32978723249,-2.21631210274 m0.443262435126,-60.7269535394 l1.32978723249,87.3226976061 4.87588656773,48.3156050643 m-47.4290791737,-247.783687897 l3.10283711877,-2.21631210274 2.65957446498,0.0 l5.31914892997,4.43262420549 3.98936184325,14.6276597032 l1.32978723249,10.6382978599 -0.886524870252,23.0496451688 l-2.21631210274,7.09219896202 -6.64893659978,8.86524841098 l30.141845297,-5.76241129221 16.4007103183,4.87588656773 l4.43262420549,-1.32978723249 5.31914892997,-4.43262420549 l3.54609948101,-5.31914892997 1.7730497405,2.65957446498 l0.0,31.914894746 -3.54609948101,4.43262420549 l-23.0496451688,12.8546102542 -27.9255329027,1.7730497405 m-3.10283711877,-42.9964543851 " fill="none" stroke="black" stroke-width="1" /></svg>