<?xml version="1.0" encoding="utf-8" ?>
<svg baseProfile="full" height="300" version="1.1" width="300" xmlns="http://www.w3.org/2000/svg" xmlns:ev="http://www.w3.org/2001/xml-events" xmlns:xlink="http://www.w3.org/1999/xlink"><defs /><rect fill="none" height="300" width="300" x="0" y="0" /><path d="M162.490878503,120.003646791 m-14.9525897553,3.46462437945 l0.182348656284,-0.911743251438 2.91757850055,-2.55288124795 l7.84099213028,-4.92341362973 m-9.84682725945,7.6586432641 l5.28811088233,-2.55288124795 6.1998542537,-1.09409187774 m-2.91757850055,-3.82932163205 l4.74106476355,3.82932163205 m-3.82932163205,-3.64697300575 l0.547045938869,-2.00583512918 1.82348650288,-2.91757850055 l2.18818375548,-1.09409187774 2.55288124795,1.09409187774 l3.64697300575,3.82932163205 1.82348650288,4.37636751095 l-0.364697312569,5.8351570011 1.45878925027,7.84099213028 l1.64113787658,5.65280813493 2.91757850055,5.8351570011 l6.1998542537,-2.00583512918 9.11743275425,-0.182348656284 l4.01167025835,0.729394625137 4.37636751095,2.00583512918 l5.4704597485,7.6586432641 4.01167025835,4.01167025835 l3.09992712685,5.1057624959 1.45878925027,9.29978162042 l-0.182348656284,2.00583512918 -0.911743251438,0.729394625137 l-6.9292487589,1.27644062397 -5.65280813493,0.0 l-7.84099213028,-0.911743251438 -1.09409187774,3.09992712685 l-1.09409187774,13.8584975178 -6.74690037247,0.0 l-0.364697312569,-0.911743251438 1.64113787658,-6.5645515063 l2.73522987425,-22.2465348074 -2.91757850055,-4.37636751095 l-19.1466079204,-10.940919497 -59.0809635567,-7.6586432641 l-4.55871637713,2.00583512918 0.364697312569,1.45878925027 l12.7644052803,4.01167025835 46.863604875,7.2939460115 l67.8337014571,4.01167025835 45.2224650794,-3.09992712685 l-9.48212952711,-1.09409187774 -68.9277869782,-3.28227575315 l-171.590083495,-14.040846384 14.4055431568,-0.182348656284 l50.1458806281,-3.46462437945 46.863604875,-2.37053238178 l-5.1057624959,2.91757850055 -35.0109400876,10.3938728985 l-71.2983222384,13.4938007449 " fill="none" stroke="black" stroke-width="1" /></svg>