<?xml version="1.0" encoding="utf-8" ?>
<svg baseProfile="full" height="300" version="1.1" width="300" xmlns="http://www.w3.org/2000/svg" xmlns:ev="http://www.w3.org/2001/xml-events" xmlns:xlink="http://www.w3.org/1999/xlink"><defs /><rect fill="none" height="300" width="300" x="0" y="0" /><path d="M135.677087944,129.81771001 m0.0,3.64583349891 l-10.6770835246,55.7291662613 -17.4479165782,54.9479153449 l-21.6145840213,0.0 0.260416672376,-38.0208340813 l2.08333337901,-17.4479165782 3.64583349891,-14.5833339956 l5.46874990579,-15.6250005139 m99.9999967114,-41.927083182 l-6.51041676658,8.33333351604 -13.8020830793,5.72916653535 l-9.89583329337,1.56249994861 -11.7187500428,0.520833344752 l-19.7916665867,0.0 0.260416672376,-1.0416666895 l10.9374998116,-1.82291674945 8.59374980302,0.260416672376 l25.26041615,4.16666675802 21.8749996232,9.63541700638 l0.781249974307,1.56249994861 -4.16666675802,8.07291654391 l-9.89583329337,7.29166699782 -15.1041665696,8.33333351604 l-19.5312496146,6.51041676658 -73.4374984413,13.2812505053 l-52.6041680769,1.0416666895 -3.64583349891,-1.82291674945 l8.07291654391,-5.20833327624 16.4062500599,-7.03125002569 l21.6145840213,-4.16666675802 44.5312501627,-4.68750001713 l82.2916645313,0.520833344752 35.9375010448,1.82291674945 l28.1250001028,1.56249994861 13.0208335332,2.08333337901 l-2.60416663812,2.60416663812 -14.3229170235,-0.260416672376 l-15.8854161157,-2.86458326767 -87.4999984927,-18.4895830964 l-11.9791670149,-4.16666675802 m-52.3437511048,16.1458330878 l29.687499195,-56.2500002055 20.312500531,-36.9791661928 l10.4166665525,-15.1041665696 3.12499989723,-1.82291674945 l4.68750001713,4.68750001713 6.77083305357,9.37500003426 l49.9999983557,59.8958323342 8.85416677515,12.2395839871 l5.20833327624,9.11458306213 1.56249994861,4.42708338757 l-2.60416663812,0.0 -11.9791670149,-8.59374980302 l-17.187499606,-14.8437495975 -13.5416661071,-14.8437495975 m28.9062510191,27.3437491864 l9.89583329337,9.89583329337 5.98958350747,9.11458306213 l1.56249994861,3.12499989723 0.0,4.68750001713 l-1.56249994861,1.0416666895 -5.46874990579,1.0416666895 l-8.59374980302,-3.38541652678 -9.11458306213,-5.20833327624 l-11.7187500428,-8.85416677515 -28.9062510191,-26.5625010106 l-8.85416677515,-11.1979167837 -5.72916653535,-10.6770835246 " fill="none" stroke="black" stroke-width="1" /></svg>