<?xml version="1.0" encoding="utf-8" ?>
<svg baseProfile="full" height="300" version="1.1" width="300" xmlns="http://www.w3.org/2000/svg" xmlns:ev="http://www.w3.org/2001/xml-events" xmlns:xlink="http://www.w3.org/1999/xlink"><defs /><rect fill="none" height="300" width="300" x="0" y="0" /><path d="M193.141594113,253.982302759 m-1.10619472085,-81.8584104342 l73.008848302,-18.8053100725 5.53097342235,-3.31858398065 l4.4247788834,-18.8053100725 -48.6725655346,-18.8053100725 l-26.5486718452,-5.53097342235 -48.6725655346,8.8495577668 l-23.2300882284,11.0619468447 4.4247788834,34.2920350731 l12.1681413837,7.74336322784 40.9292052171,-3.31858398065 m-56.4159316728,-45.3539833729 l-33.1858419893,-53.0973436905 -27.6548678393,-19.9115046115 l-17.6991155336,-1.10619472085 -11.0619468447,3.31858398065 l-14.3805304616,15.4867264557 13.2743359226,35.3982310672 m80.7522144401,21.0176991505 l-28.7610609231,-35.3982310672 -39.823009223,-18.8053100725 l-6.63716796131,11.0619468447 -1.10619472085,25.4424787614 m183.62832548,56.4159316728 l-3.31858398065,11.0619468447 -16.5929209946,21.0176991505 l-36.504424151,14.3805304616 -17.6991155336,1.10619472085 " fill="none" stroke="black" stroke-width="1" /></svg>