<?xml version="1.0" encoding="utf-8" ?>
<svg baseProfile="full" height="300" version="1.1" width="300" xmlns="http://www.w3.org/2000/svg" xmlns:ev="http://www.w3.org/2001/xml-events" xmlns:xlink="http://www.w3.org/1999/xlink"><defs /><rect fill="none" height="300" width="300" x="0" y="0" /><path d="M90.5674834975,275.0 m2.30061344278,-55.9815967166 m-4.60122688556,-1.53374237925 l-25.3067481228,-14.5705522246 -15.3374232881,-16.1042943517 l-4.60122688556,-21.4723938139 4.60122688556,-13.0368100975 l52.1472403902,-42.9447876278 57.5153368261,12.269939034 l20.7055217416,-1.53374237925 35.276074975,-9.96932483465 l10.736196907,-8.43558270759 8.43558270759,-13.0368100975 l4.60122688556,-15.3374232881 -2.30061344278,-8.43558270759 m-134.202459319,154.907981061 l46.012271882,-9.96932483465 19.1717796146,-19.9386496693 l13.8036811611,-26.8404902498 1.53374237925,-28.3742343945 l13.8036811611,-19.1717796146 8.43558270759,-6.90184058054 l11.5030679705,-3.0674847585 12.269939034,-26.0736201951 l6.13496951701,-29.1411044492 20.7055217416,-25.3067481228 l3.0674847585,7.66871164406 -5.36809845348,28.3742343945 l-10.736196907,19.1717796146 -16.8711654152,20.7055217416 m-136.503067466,170.245406367 l44.4785277373,0.766871189626 m-42.1779155555,0.0 l61.3496931525,-9.20245377112 m-74.3865022413,-49.8466282084 l-2.30061344278,30.6748465763 6.13496951701,3.83435582203 " fill="none" stroke="black" stroke-width="1" /></svg>