<?xml version="1.0" encoding="utf-8" ?>
<svg baseProfile="full" height="300" version="1.1" width="300" xmlns="http://www.w3.org/2000/svg" xmlns:ev="http://www.w3.org/2001/xml-events" xmlns:xlink="http://www.w3.org/1999/xlink"><defs /><rect fill="none" height="300" width="300" x="0" y="0" /><path d="M138.182773597,159.45378386 m2.10084038766,37.2899155856 l15.7563030802,78.2563005541 m-20.4831938661,-103.466386588 l-6.30252081754,11.554621614 -1.57563020438,14.1806723576 l9.97899158231,11.0294116034 3.67647076477,8.9285715612 m-2.62605039821,-64.6008388979 l-13.1302523365,-1.05042019383 -19.4327738449,-6.30252081754 l-21.5336138872,-11.554621614 -5.25210079643,-5.25210079643 l-11.0294116034,-18.3823524421 -0.525210096915,-13.6554616562 m68.8025189824,50.9453772417 l6.30252081754,0.525210096915 17.8571431224,-3.15126040877 l20.4831938661,-14.1806723576 18.9075631435,-19.4327738449 m-3.67647076477,-13.1302523365 l7.35294152954,4.72689078588 12.0798323154,12.0798323154 l9.45378157175,4.72689078588 m-8.40336155064,-14.7058830591 l5.25210079643,7.87815154009 8.9285715612,8.40336155064 l-1.57563020438,-7.35294152954 -17.331932421,-23.1092432279 l1.57563020438,4.20168077532 7.35294152954,5.25210079643 l0.525210096915,-7.87815154009 -5.25210079643,-12.0798323154 l15.7563030802,18.3823524421 -1.05042019383,-6.82773082809 l-6.30252081754,-11.0294116034 m3.67647076477,-8.40336155064 l-21.5336138872,-8.40336155064 -105.567229394,3.67647076477 l-9.97899158231,-11.554621614 -15.2310923787,-30.9873954589 " fill="none" stroke="black" stroke-width="1" /></svg>