<?xml version="1.0" encoding="utf-8" ?>
<svg baseProfile="full" height="300" version="1.1" width="300" xmlns="http://www.w3.org/2000/svg" xmlns:ev="http://www.w3.org/2001/xml-events" xmlns:xlink="http://www.w3.org/1999/xlink"><defs /><rect fill="none" height="300" width="300" x="0" y="0" /><path d="M141.368285171,31.3938617307 m52.4296677058,-6.39386173071 l15.9846547473,37.7237851364 -15.3452678173,4.47570346382 l-86.3171346262,1.91815847716 -5.11508955279,-4.47570346382 l16.6240399952,-15.9846547473 23.017902567,-10.2301791056 l21.7391303891,-0.639386194098 m-44.1176477082,31.3299225646 l1.91815847716,63.9386189893 m19.1815860332,-4.47570346382 l-30.6905356345,-1.2787723882 -13.4271095504,1.91815847716 l-7.03324781967,23.017902567 0.639386194098,3.19693086536 l67.1355469108,27.4936060308 1.2787723882,-3.83631695432 l-22.3785156369,-53.7084382015 m-32.6086964247,42.199486918 l3.83631695432,3.83631695432 -8.95140692765,81.2020459145 l0.0,7.03324781967 1.91815847716,-3.83631695432 m37.7237851364,-80.5626589845 l9.59079301661,37.0843982063 -8.95140692765,59.4629172076 l-0.639386194098,-3.83631695432 m2.55754477639,1.91815847716 l1.2787723882,-3.19693086536 -4.47570346382,6.39386173071 l8.3120199976,1.91815847716 -5.75447564175,-7.03324781967 l-1.91815847716,0.0 " fill="none" stroke="black" stroke-width="1" /></svg>