<?xml version="1.0" encoding="utf-8" ?>
<svg baseProfile="full" height="300" version="1.1" width="300" xmlns="http://www.w3.org/2000/svg" xmlns:ev="http://www.w3.org/2001/xml-events" xmlns:xlink="http://www.w3.org/1999/xlink"><defs /><rect fill="none" height="300" width="300" x="0" y="0" /><path d="M150.911080499,27.9154547548 m8.74635533572,-1.45772596919 l4.00874623549,1.09329441696 0.364431492296,2.18658883393 l2.18658883393,1.09329441696 5.46647244437,8.01749247097 l0.0,2.18658883393 -5.46647244437,5.83090387674 l52.4781339319,4.73760910023 34.6209894311,1.45772596919 l-21.1370259539,6.92419817386 -10.204082024,2.18658883393 l-31.3411079779,1.09329441696 -18.5860064067,-1.45772596919 l-4.37317766786,10.568512977 -5.46647244437,0.364431492296 l-5.83090387674,-2.91545193837 -1.82215740156,0.728862984593 l-7.28862960623,21.5014578657 -2.551020506,15.670553989 l-2.551020506,6.19533530911 -17.4927106714,5.46647244437 l-4.00874623549,4.37317766786 -8.01749247097,24.7813412365 l-5.83090387674,33.8921294427 -4.00874623549,41.5451880844 l-1.09329441696,51.0204062848 m1.45772596919,-71.4285703328 l-32.0699698839,0.364431492296 -12.7551015712,-2.91545193837 l-2.91545193837,-3.64431480312 -3.27988337074,-8.38192438274 l-5.46647244437,-18.5860064067 m105.685131687,-145.043732136 l-33.8921294427,-0.364431492296 -4.73760910023,0.364431492296 l-3.64431480312,2.551020506 " fill="none" stroke="black" stroke-width="1" /></svg>