<?xml version="1.0" encoding="utf-8" ?>
<svg baseProfile="full" height="300" version="1.1" width="300" xmlns="http://www.w3.org/2000/svg" xmlns:ev="http://www.w3.org/2001/xml-events" xmlns:xlink="http://www.w3.org/1999/xlink"><defs /><rect fill="none" height="300" width="300" x="0" y="0" /><path d="M225.947225576,60.5209726093 m-7.44248965484,-19.2828140248 l-2.02976988564,-2.368065052 -7.10419471098,-0.338294999482 l-4.736130104,1.69147494178 -7.44248965484,7.78078504371 l-8.45737493142,23.6806487399 -7.78078504371,50.7442478084 l-1.69147494178,77.4695514881 m45.3315287068,-142.08389244 l1.69147494178,-1.01488494282 1.35317999793,-3.04465493971 l1.35317999793,-8.45737493142 -2.368065052,-8.45737493142 l-8.45737493142,-11.84032437 -5.07442504785,1.01488494282 l-20.9742891891,17.2530452517 -10.8254399834,14.208389422 l-13.5317995343,24.0189441288 -6.76589976713,19.9594048025 l-1.35317999793,18.944520416 0.0,34.8443858923 l2.02976988564,23.6806487399 -1.35317999793,18.944520416 l-6.76589976713,1.01488494282 m4.05953977127,-5.07442504785 l-28.7550742328,0.0 -27.4018944574,6.42760482327 l-4.39783471513,2.368065052 -1.35317999793,3.38294988356 l2.70635999585,5.41271999171 14.8849793097,9.13396481913 l54.127198137,3.04465493971 26.7253036796,-2.70635999585 l13.1935050354,-3.04465493971 -3.72124482742,-10.4871445945 l-19.6211094137,-6.42760482327 -11.1637344823,-2.368065052 m-60.5548034053,14.208389422 l-41.2719876005,52.0974293639 m51.4208385862,-37.5507454431 l2.02976988564,-1.35317999793 -12.1786197588,25.3721239042 l-6.08930987942,20.9742891891 m63.5994619051,-50.0676605908 l-8.79566943026,52.7740201417 m33.4912043368,-51.7591339751 l9.81055470684,31.4614355637 2.02976988564,13.8700949231 m10.4871445945,-238.836259733 l0.0,4.39783471513 1.01488494282,-2.70635999585 m-58.8633300211,136.332885069 " fill="none" stroke="black" stroke-width="1" /></svg>