<?xml version="1.0" encoding="utf-8" ?>
<svg baseProfile="full" height="300" version="1.1" width="300" xmlns="http://www.w3.org/2000/svg" xmlns:ev="http://www.w3.org/2001/xml-events" xmlns:xlink="http://www.w3.org/1999/xlink"><defs /><rect fill="none" height="300" width="300" x="0" y="0" /><path d="M145.526839944,166.153093142 m0.0,107.355861937 m13.9165012027,-92.445329044 l0.994035776839,93.9363739646 m-32.8031791646,-173.956262418 l14.910536816,3.97614310736 61.1331974152,-5.46719652744 l30.8151079379,-12.4254471288 -18.8866792696,14.910536816 l42.7435379137,-13.9165012027 -28.8270367111,33.7972160856 l28.8270367111,-13.9165012027 -21.8687861098,22.8628230308 l-16.4015895823,11.4314115154 -31.8091448589,13.9165012027 l-29.8210736321,7.95228621472 -27.3359839448,0.994035776839 l-14.910536816,-1.49105358353 -8.9463218281,-7.95228621472 l-11.4314115154,-13.9165012027 -12.9224642817,-18.3896621167 l-0.49701788842,-2.98210716707 2.98210716707,-23.3598414913 l14.910536816,-29.3240551716 0.994035776839,-24.8508942575 l-0.994035776839,-2.48508936037 -18.3896621167,-14.910536816 l-2.98210716707,-0.49701788842 -22.3658045703,0.49701788842 l-14.910536816,8.9463218281 " fill="none" stroke="black" stroke-width="1" /></svg>