<?xml version="1.0" encoding="utf-8" ?>
<svg baseProfile="full" height="300" version="1.1" width="300" xmlns="http://www.w3.org/2000/svg" xmlns:ev="http://www.w3.org/2001/xml-events" xmlns:xlink="http://www.w3.org/1999/xlink"><defs /><rect fill="none" height="300" width="300" x="0" y="0" /><path d="M120.312499255,72.222224494 m4.16666667904,-7.63888898769 l8.33333335807,-25.6944462716 10.7638891112,-13.8888892346 l6.59722243212,1.04166666976 28.4722237531,25.0000009877 l1.04166666976,23.611112247 55.5555569385,1.73611115433 l-2.08333333952,1.04166666976 -30.5555559508,1.73611115433 l-30.9027785927,-0.347222242285 -1.38888896914,1.73611115433 l2.77777793828,84.7222223215 -1.04166666976,4.16666667904 l-8.68055600002,2.77777793828 -28.4722237531,-2.43055575309 l-27.0833350124,-29.16666721 0.347222242285,-63.8888930371 l3.12500012347,-3.47222230866 5.90277806174,-1.73611115433 m32.9861107904,103.472223062 l0.694444484569,71.1805612099 14.930556247,15.9722232593 l20.8333347655,9.72222301235 m-33.6805560742,-22.2222235062 l-17.708334642,9.02777772845 m27.0833350124,-83.6805617038 l2.08333333952,14.583333605 11.4583334815,48.6111114077 l27.7777784693,24.6527783458 4.86111150617,4.86111150617 l4.16666667904,7.2916668025 m-33.6805560742,-38.8888920494 l-6.25000024693,0.347222242285 -3.12500012347,18.0555554569 m4.86111150617,-15.2777779754 l2.43055575309,11.4583334815 1.38888896914,1.73611115433 m-58.33333442,-179.861123901 l1.38888896914,7.2916668025 -26.7361123704,35.069446642 l-29.8611124939,9.72222301235 20.8333347655,3.12500012347 l46.5277792101,-0.347222242285 " fill="none" stroke="black" stroke-width="1" /></svg>