<?xml version="1.0" encoding="utf-8" ?>
<svg baseProfile="full" height="300" version="1.1" width="300" xmlns="http://www.w3.org/2000/svg" xmlns:ev="http://www.w3.org/2001/xml-events" xmlns:xlink="http://www.w3.org/1999/xlink"><defs /><rect fill="none" height="300" width="300" x="0" y="0" /><path d="M179.186320742,29.7169848584 m-16.5094348367,-1.76886787971 l-8.84433998027,1.17924531778 -3.53773575942,5.30660383304 l-3.53773575942,14.7405663752 10.6132076661,9.4339625422 l-17.099056623,29.4811327505 -1.17924531778,-3.53773575942 l-7.66509408078,7.07547151884 -2.94811319749,7.66509408078 l-25.3537740413,36.5566034937 -25.9433958276,-2.94811319749 l-11.7924527899,2.94811319749 -8.84433998027,20.0471702083 l11.202830228,7.66509408078 37.1462268313,14.7405663752 l44.2216975745,6.48584895691 16.5094348367,-3.53773575942 l49.5283014075,-1.76886787971 11.7924527899,-4.7169812711 l-1.17924531778,-8.84433998027 -4.12735870917,-7.66509408078 l-25.9433958276,-16.5094348367 -30.6603763231,-4.12735870917 l-21.2264153321,2.35849063555 17.099056623,-66.0377393467 l2.94811319749,-4.7169812711 17.6886799605,-0.589622658888 l12.9716979138,1.76886787971 1.76886787971,-28.3018860754 l-5.89622639497,-8.25471741834 -10.0235851041,-8.84433998027 l-0.589622658888,2.94811319749 16.5094348367,18.8679250844 l47.1698111598,18.2783017469 -26.5330191652,-4.7169812711 l-57.7830188259,-5.89622639497 m-52.4764149928,125.58962198 l-8.25471741834,31.2499996607 -7.07547151884,63.6792459964 m66.6273564792,-96.6981156698 l-9.4339625422,71.3443431797 -5.89622639497,19.4575468707 l-0.589622658888,-2.94811319749 -7.07547151884,-0.589622658888 l-9.4339625422,2.94811319749 21.2264153321,-3.53773575942 l1.17924531778,-12.3820753519 19.4575468707,15.3301881616 " fill="none" stroke="black" stroke-width="1" /></svg>