<?xml version="1.0" encoding="utf-8" ?>
<svg baseProfile="full" height="300" version="1.1" width="300" xmlns="http://www.w3.org/2000/svg" xmlns:ev="http://www.w3.org/2001/xml-events" xmlns:xlink="http://www.w3.org/1999/xlink"><defs /><rect fill="none" height="300" width="300" x="0" y="0" /><path d="M141.935483549,110.554000641 m14.3758766826,-10.8695649366 l3.15568020241,-3.85694236711 16.4796640992,-7.71388473423 l3.50631128476,-0.350631140007 21.7391298733,4.90883607541 l14.3758766826,9.81767215082 3.85694236711,7.01262256952 l-1.05189336237,1.75315564238 -5.25946715776,2.80504912006 l-32.2580651113,5.61009824011 -5.25946715776,1.75315564238 l-5.61009824011,3.50631128476 -3.85694236711,3.85694236711 l-3.15568020241,5.25946715776 -5.25946715776,16.1290325556 l-2.10378672473,2.10378672473 -5.61009824011,11.2201964802 l-12.9733523532,9.81767215082 -8.41514689893,2.10378672473 l-15.0771388473,-0.701262280014 -21.3884983297,-15.4277694685 l-1.05189336237,-3.50631128476 0.701262280014,-5.25946715776 l2.80504912006,-6.31136040482 20.6872370875,-29.1023849089 l10.1683027719,-10.1683027719 23.8429172899,-16.1290325556 l1.75315564238,1.05189336237 5.96072932247,11.5708271013 m-15.0771388473,15.778401012 l-6.31136040482,9.46704060723 -2.80504912006,13.3239829743 l2.10378672473,0.701262280014 23.8429172899,-11.9214586449 m-31.5568020241,47.6858345797 l0.350631140007,37.5175308853 2.45441803771,51.1921463257 l-2.10378672473,-11.9214586449 -1.75315564238,-23.1416542027 l0.350631140007,-51.5427778693 -1.05189336237,-3.85694236711 m-16.4796640992,-3.50631128476 l-7.36325365187,21.3884983297 -0.701262280014,14.7265073037 l-11.5708271013,24.5441785321 -8.06451627782,43.127628203 l-0.701262280014,-2.45441803771 4.90883607541,-48.0364661233 l16.4796640992,-83.0995798934 24.1935488335,-42.4263688057 l49.7896201514,-73.9831671399 " fill="none" stroke="black" stroke-width="1" /></svg>