<?xml version="1.0" encoding="utf-8" ?>
<svg baseProfile="full" height="300" version="1.1" width="300" xmlns="http://www.w3.org/2000/svg" xmlns:ev="http://www.w3.org/2001/xml-events" xmlns:xlink="http://www.w3.org/1999/xlink"><defs /><rect fill="none" height="300" width="300" x="0" y="0" /><path d="M122.056978341,203.303067857 m2.97432679514,-0.469630533053 m4.07013125214,-1.25234815678 l9.23606757906,-2.97432679514 m-16.5936124081,3.130870289 l3.28741378285,-5.94865359028 2.97432679514,-6.88791455342 l1.72197863836,-2.50469631357 4.85284892735,-5.00939262714 l3.130870289,-4.85284892735 1.87852213221,-4.38321865171 m-6.41828427778,24.57733286 l-2.66123980742,1.5654351445 0.782717572249,0.469630533053 l8.45334990385,-1.87852213221 29.4301826111,-10.0187852543 l16.9066998077,-6.73137126549 6.57482756571,-3.28741378285 l12.8365685556,-8.76643730341 7.51408852885,-7.82717592842 l2.03506562607,-4.69630563942 -1.09580466293,-0.469630533053 l-2.66123980742,0.0 m16.9066998077,-8.76643730341 l-11.8973071806,2.81778330128 -16.1239829562,2.50469631357 l-20.5071999605,2.50469631357 -24.1077017607,1.87852213221 l-18.7852225577,0.939261066106 -53.6944264241,0.0 l-29.586723016,0.626174078392 -9.54915415492,0.626174078392 l-12.6800248558,1.72197863836 -5.63556660256,1.25234815678 l-0.626174078392,0.939261066106 1.09580466293,1.87852213221 l1.5654351445,1.25234815678 2.34815281971,1.25234815678 l9.39261127884,3.28741378285 8.45334990385,2.50469631357 l7.0444582532,1.40889165064 8.29680620406,1.25234815678 l29.7432667158,2.97432679514 43.3625554177,3.130870289 l16.1239829562,4.85284892735 10.6449592297,1.5654351445 l23.1684412094,0.469630533053 9.86224155449,-1.5654351445 l5.32247961485,-1.5654351445 2.50469631357,-1.87852213221 l2.81778330128,-5.94865359028 6.26174057799,-10.8015029295 l1.09580466293,-2.34815281971 1.09580466293,-5.79211030235 l-0.313087039196,-2.66123980742 -1.40889165064,-3.60050097649 l-2.50469631357,-3.91358796421 -4.53976193964,-4.07013125214 l-19.724483109,-12.523481156 -7.0444582532,-3.60050097649 l-5.79211030235,-2.66123980742 -8.76643730341,-2.19160932585 l-4.69630563942,-0.156543519598 -2.97432679514,0.626174078392 l-9.86224155449,2.97432679514 -11.1145895053,4.38321865171 m69.8184110277,20.9768310598 l4.53976193964,-1.5654351445 4.85284892735,-5.00939262714 l9.86224155449,-8.45334990385 8.76643730341,-7.0444582532 l16.4370687083,-11.8973071806 24.2642454605,-20.9768310598 m-10.1753289541,9.86224155449 l4.38321865171,7.35754565277 1.5654351445,4.85284892735 l-1.40889165064,0.626174078392 -21.603005859,-0.156543519598 " fill="none" stroke="black" stroke-width="1" /></svg>