<?xml version="1.0" encoding="utf-8" ?>
<svg baseProfile="full" height="300" version="1.1" width="300" xmlns="http://www.w3.org/2000/svg" xmlns:ev="http://www.w3.org/2001/xml-events" xmlns:xlink="http://www.w3.org/1999/xlink"><defs /><rect fill="none" height="300" width="300" x="0" y="0" /><path d="M35.8346721661,192.335478402 m-0.401284144524,43.3386868168 l2.00642065664,1.20385236759 11.2359563106,-1.20385236759 l8.82825078363,1.6051365781 -6.82183039093,-28.8924578779 l1.20385236759,-14.0449443325 m-3.21027315619,19.2616378814 l18.8603553865,-1.6051365781 28.0898886651,-7.22311446947 l-6.01926223385,-4.41412539182 -13.6436607819,-4.01284131328 l-13.6436607819,0.0 -4.41412539182,2.80898907765 m-8.42696670509,0.401284144524 l2.80898907765,-12.0385244677 -0.401284144524,-34.5104360332 l2.40770473518,-10.8346717042 -0.401284144524,-7.22311446947 l27.2873215637,-0.802568289049 10.4333870978,-1.6051365781 l25.6821852496,-8.02568262655 4.01284131328,-3.61155723474 l0.802568289049,-3.21027315619 0.0,-21.268058802 l-2.00642065664,-17.2552180166 -2.40770473518,-4.41412539182 l-7.62439854801,-6.82183039093 -12.4398080184,-6.82183039093 l-2.80898907765,-1.20385236759 -11.2359563106,-0.401284144524 l-8.42696670509,6.01926223385 -22.4719126212,10.8346717042 l-6.01926223385,5.61797815531 -5.2166935489,7.22311446947 l-13.2423761754,56.1797773301 -3.21027315619,40.1284141885 l0.401284144524,24.0770489354 m239.165338259,28.0898886651 l-3.61155723474,1.20385236759 m-147.672566241,-150.080273879 l39.3258449757,-10.0321035471 2.80898907765,0.0 l1.6051365781,3.61155723474 -2.00642065664,2.40770473518 l-5.61797815531,14.8475135454 -8.42696670509,12.8410926248 l-8.82825078363,2.00642065664 -25.6821852496,-7.22311446947 m168.53933199,133.226337302 m0.0,0.0 l-2.80898907765,0.0 -181.78170711,-160.112372148 " fill="none" stroke="black" stroke-width="1" /></svg>