<?xml version="1.0" encoding="utf-8" ?>
<svg baseProfile="full" height="300" version="1.1" width="300" xmlns="http://www.w3.org/2000/svg" xmlns:ev="http://www.w3.org/2001/xml-events" xmlns:xlink="http://www.w3.org/1999/xlink"><defs /><rect fill="none" height="300" width="300" x="0" y="0" /><path d="M138.472620733,55.2593598107 m5.76368898204,-17.2910659984 l10.0864559555,-7.9250719949 -11.5273779641,15.1296829855 l-2.1613832498,43.2276678391 12.9682999726,26.6570618973 l2.88184449102,27.3775219539 -3.60230549531,2.1613832498 l-8.64553299919,0.0 -22.3342939761,-2.88184449102 l-10.8069169598,2.88184449102 -21.6138339196,22.3342939761 l-2.88184449102,4.32276649959 -1.44092224551,12.2478389684 l30.979827923,5.04322797775 56.1959678118,-2.1613832498 m-51.8731998906,-34.5821319967 l3.60230549531,2.88184449102 36.7435178528,-2.88184449102 m-1.44092224551,40.345823822 l-5.04322797775,81.4121020141 -18.0115279504,1.44092224551 l59.798273781,-6.48414998632 m-38.9048999179,-242.074927768 l38.1844379659,-1.44092224551 7.9250719949,5.04322797775 l8.64553299919,15.8501439898 2.88184449102,23.7752159847 l-16.5706059418,1.44092224551 " fill="none" stroke="black" stroke-width="1" /></svg>