<?xml version="1.0" encoding="utf-8" ?>
<svg baseProfile="full" height="300" version="1.1" width="300" xmlns="http://www.w3.org/2000/svg" xmlns:ev="http://www.w3.org/2001/xml-events" xmlns:xlink="http://www.w3.org/1999/xlink"><defs /><rect fill="none" height="300" width="300" x="0" y="0" /><path d="M98.8213331936,175.124064199 m6.20347392364,44.0446647763 l6.8238212344,24.1935491998 2.48138965106,0.0 m42.18362366,-70.7196015871 l-8.06451585592,57.6923105092 8.06451585592,32.8784115505 m-64.5161268474,-91.8114183133 l8.06451585592,34.7394559309 26.0545903161,68.858563735 m-48.3870983997,-101.116627159 l8.68486398272,3.10173696182 78.1637725803,3.10173696182 l22.9528545783,-13.027295158 -16.1290317118,-52.1091806322 l-35.3598007935,-14.8883370903 -41.5632755332,11.1662532258 l-21.7121583247,34.1191078041 8.68486398272,24.8138956946 l58.312658636,0.0 m44.6650129031,-42.18362366 l-1.24069482553,-9.92555860424 1.86104213629,-26.6749384429 l-4.34243199136,-29.156329318 m1.24069482553,-0.620347412765 l12.4069478473,0.0 17.3697279654,18.610422587 l-13.027295158,50.2481395159 -19.8511172085,-6.8238212344 l-15.5086852171,-1.24069482553 m24.8138956946,-59.5533483613 l-9.92555860424,-13.6476424688 -7.44416854516,-14.8883370903 l9.92555860424,-9.30521129348 32.8784115505,1.86104213629 l12.4069478473,12.4069478473 1.24069482553,32.2580634237 l-3.10173696182,11.7866005365 -3.10173696182,3.10173696182 l-13.027295158,-6.20347392364 0.620347412765,-1.24069482553 m16.1290317118,-17.9900744602 l-3.10173696182,0.0 4.96277930212,1.86104213629 m-8.68486398272,8.68486398272 l2.48138965106,0.0 " fill="none" stroke="black" stroke-width="1" /></svg>