<?xml version="1.0" encoding="utf-8" ?>
<svg baseProfile="full" height="300" version="1.1" width="300" xmlns="http://www.w3.org/2000/svg" xmlns:ev="http://www.w3.org/2001/xml-events" xmlns:xlink="http://www.w3.org/1999/xlink"><defs /><rect fill="none" height="300" width="300" x="0" y="0" /><path d="M132.746955608,156.258458073 m2.70635998321,-13.8700948583 l1.3531799916,-79.4993234498 13.531799471,-27.7401897166 l33.4912041803,-10.1488500483 25.0338301784,1.3531799916 l3.72124481003,6.76589973551 0.0,1.69147493388 l17.5913387783,17.2530451711 2.70635998321,15.899865402 l-5.75101490869,13.8700948583 -5.41271996642,0.338294997901 l-11.8403243146,4.39783469458 -20.2977000966,3.72124481003 l-9.13396477645,5.75101490869 -1.01488493808,8.11907950461 l-1.69147493388,35.5209729439 0.0,16.5764543965 l-1.3531799916,10.4871445455 4.39783469458,14.2083893556 l3.38294986776,1.69147493388 1.3531799916,2.02976987615 l4.05953975231,10.8254399328 2.36806504093,2.36806504093 l-0.676589995802,5.07442502414 1.3531799916,7.78078500735 l-7.44248962006,10.8254399328 -5.41271996642,4.39783469458 l-11.1637344301,1.69147493388 -10.4871445455,4.73613008187 l-18.6062249402,5.07442502414 -16.2381590092,1.69147493388 l-15.5615700147,-1.01488493808 -30.4465492548,-12.1786197019 l-6.76589973551,-5.07442502414 -3.38294986776,-8.11907950461 m1.3531799916,-44.9932331077 l0.338294997901,-7.78078500735 8.11907950461,-6.08930985097 l39.5805140313,-1.69147493388 19.9594047093,0.676589995802 m-26.3870099475,85.2503379135 l1.3531799916,36.8741544931 m52.4357245078,-46.0081192695 l0.676589995802,9.810554661 -0.338294997901,12.5169150892 l1.01488493808,12.8552095865 1.3531799916,0.338294997901 m-3.38294986776,-3.72124481003 l-0.676589995802,3.04465492548 -7.44248962006,4.39783469458 l-23.0040596348,1.69147493388 -28.4167787112,-0.676589995802 m-5.41271996642,-1.01488493808 l-24.6955347911,1.3531799916 m63.599461608,-88.9715800535 l-19.9594047093,2.02976987615 -20.9742890911,10.4871445455 l-1.3531799916,1.3531799916 1.3531799916,1.01488493808 " fill="none" stroke="black" stroke-width="1" /></svg>