<?xml version="1.0" encoding="utf-8" ?>
<svg baseProfile="full" height="300" version="1.1" width="300" xmlns="http://www.w3.org/2000/svg" xmlns:ev="http://www.w3.org/2001/xml-events" xmlns:xlink="http://www.w3.org/1999/xlink"><defs /><rect fill="none" height="300" width="300" x="0" y="0" /><path d="M207.254196766,116.127100527 m-25.1798552485,-33.5731424343 l-11.3908870483,-11.3908870483 -16.7865712172,-8.39328560858 l-19.7841718683,-1.79856106101 -14.3884884881,5.99520366814 l-11.3908870483,10.7913667604 -17.3860907165,34.7721814329 l-11.3908870483,27.5779379775 52.7577916487,-2.39808154612 l39.5683437365,8.39328560858 31.1750581279,-4.19664280429 l14.3884884881,0.0 0.59952038653,-2.99760183407 l-4.79616309224,-10.7913667604 -8.99280589653,-14.9880095647 m7.79376453199,17.3860907165 l-14.3884884881,-46.1630692699 -4.79616309224,-9.59232618448 l-10.7913667604,-41.3669069663 19.184652369,-8.39328560858 l5.99520366814,3.59712212202 2.39808154612,5.99520366814 l0.0,6.59472395609 -12.5899276242,0.59952038653 l-0.59952038653,2.99760183407 11.3908870483,39.5683437365 l12.5899276242,61.1510804119 m-74.3405251695,-2.39808154612 l10.7913667604,131.894485431 m-8.39328560858,-132.494006507 l16.7865712172,15.587529064 11.3908870483,17.9856117931 l11.9904073363,45.5635481933 -79.7362085496,-2.99760183407 " fill="none" stroke="black" stroke-width="1" /></svg>