<?xml version="1.0" encoding="utf-8" ?>
<svg baseProfile="full" height="300" version="1.1" width="300" xmlns="http://www.w3.org/2000/svg" xmlns:ev="http://www.w3.org/2001/xml-events" xmlns:xlink="http://www.w3.org/1999/xlink"><defs /><rect fill="none" height="300" width="300" x="0" y="0" /><path d="M148.034586197,74.5282947976 m-95.9119452976,-23.584906175 l-13.3647798901,0.0 44.0251587449,0.0 l105.34591025,-7.07547164567 4.71698092475,11.7924530875 l3.93081752348,44.0251587449 -4.71698092475,36.9496870993 l-0.786163530549,39.3081762689 -29.8742133853,14.9371066926 l-25.1572329776,8.64779844823 -20.4402505016,2.35849046238 l-30.6603778207,-3.93081752348 14.9371066926,56.6037731654 l80.1886814087,-4.71698092475 20.4402505016,-3.93081752348 l33.8050314258,-12.5786164888 0.786163530549,-17.2955968965 l-11.0062896862,-48.7421370843 -1.5723270611,-22.0125793725 l9.43396184951,-31.4465401878 1.5723270611,-37.735847398 l6.28930824439,-41.6666654386 -1.5723270611,-3.1446541222 l-5.50314484312,-1.5723270611 -41.6666654386,-4.71698092475 l-79.4025169733,1.5723270611 -58.9622623351,6.28930824439 l-10.2201252508,3.1446541222 -3.93081752348,14.9371066926 l0.0,71.5408808922 3.1446541222,34.5911937929 l19.6540881345,66.8238984162 27.5157221472,36.9496870993 l25.9433953447,11.7924530875 11.0062896862,1.5723270611 l20.4402505016,0.786163530549 41.6666654386,-11.0062896862 l73.1132097631,-7.86163504695 " fill="none" stroke="black" stroke-width="1" /></svg>