<?xml version="1.0" encoding="utf-8" ?>
<svg baseProfile="full" height="300" version="1.1" width="300" xmlns="http://www.w3.org/2000/svg" xmlns:ev="http://www.w3.org/2001/xml-events" xmlns:xlink="http://www.w3.org/1999/xlink"><defs /><rect fill="none" height="300" width="300" x="0" y="0" /><path d="M262.37864238,174.757277543 m3.88349519275,45.1456324937 l0.0,2.91262123492 -3.39805837348,0.970873798187 l-9.70873766259,0.0 0.0,-33.9805811805 l-2.42718441565,-6.79611674695 -3.88349519275,-4.85436883129 l-20.8737864216,-0.970873798187 -2.42718441565,1.45631061746 l1.45631061746,39.805825566 -3.39805837348,1.45631061746 l-9.70873766259,-1.45631061746 -5.33980565057,-15.0485433132 l0.0,-19.902912783 m55.3398037827,1.94174759637 l1.94174759637,-2.42718441565 2.91262123492,-19.902912783 l7.28155356623,-29.6116491685 0.970873798187,-15.0485433132 l-5.82524246984,-8.25242720477 -8.25242720477,-4.85436883129 l-9.22330084331,-1.94174759637 -15.533980771,0.970873798187 l-14.5631071325,6.31067928911 -20.8737864216,16.9902905902 l-8.25242720477,9.70873766259 -5.33980565057,15.0485433132 l0.485436899094,16.0194169517 6.79611674695,10.6796113011 l12.6213585782,10.6796113011 15.0485433132,5.33980565057 m-14.5631071325,-78.1553387585 l-0.970873798187,-10.1941744819 2.91262123492,-22.8155349758 l0.0,15.533980771 9.22330084331,19.902912783 m-57.766991072,83.4951456862 l9.22330084331,-5.33980565057 -129.611647987,-21.8446600601 l15.0485433132,-0.485436899094 -30.5825240841,25.2427171564 m182.038842349,-25.2427171564 l1.45631061746,-2.91262123492 -3.88349519275,3.88349519275 l1.94174759637,-3.39805837348 57.2815536141,-51.9417466864 m0.0,0.0 m0.0,0.0 l-54.3689339756,47.5728146744 m51.9417466864,-46.1165023009 l-13.5922334939,-0.970873798187 -84.9514580598,78.6407762164 m18.4466016866,-68.9320372766 l-5.82524246984,-1.94174759637 -4.85436883129,1.94174759637 l-2.42718441565,-14.5631071325 -5.82524246984,0.0 m50.9708717707,-10.6796113011 l-1.94174759637,-2.91262123492 -1.94174759637,-17.4757280481 l-9.22330084331,-8.73786402404 -8.73786402404,-0.485436899094 l-9.22330084331,6.31067928911 -2.91262123492,4.36893201202 l-3.39805837348,12.1359223975 1.94174759637,21.8446600601 l13.5922334939,18.9320391445 m1.45631061746,-43.6893201202 l3.39805837348,1.94174759637 -3.88349519275,-4.85436883129 l3.39805837348,2.42718441565 " fill="none" stroke="black" stroke-width="1" /></svg>