<?xml version="1.0" encoding="utf-8" ?>
<svg baseProfile="full" height="300" version="1.1" width="300" xmlns="http://www.w3.org/2000/svg" xmlns:ev="http://www.w3.org/2001/xml-events" xmlns:xlink="http://www.w3.org/1999/xlink"><defs /><rect fill="none" height="300" width="300" x="0" y="0" /><path d="M158.896259575,110.042221041 m8.44390874439,32.2677924302 l8.44390874439,37.394450744 m-15.0784080187,3.01568152441 l8.44390874439,-1.20627264943 40.7117011746,0.0 l15.3799765282,-2.1109771861 2.71411341164,-1.20627264943 m-10.8564536466,3.92038586272 l-35.8866113702,26.5379970974 -3.61881774995,4.82509059774 l-0.301568162358,3.01568152441 1.5078407622,0.904704437488 l0.0,-4.82509059774 -5.12665871051,-15.9831119604 l-3.92038586272,-19.6019309004 -3.31724963718,-5.42822682328 l-2.41254529887,-1.20627264943 m-95.8986717622,-21.4113387836 l11.158022156,-1.5078407622 101.326898585,0.0 l44.93365396,-9.04704496993 m-9.04704496993,-21.1097702742 l6.63449927436,18.9987938815 4.22195437219,26.5379970974 l0.0,5.72979493605 1.80940887498,0.301568162358 l7.53920400937,-5.42822682328 20.2050663326,-21.7129072931 l18.0940899399,-16.2846804698 -1.80940887498,-1.20627264943 l-27.7442711353,-0.603136324717 -38.9022932914,-7.2376354999 m-137.816643801,23.5223167631 l0.0,4.82509059774 4.82509059774,22.0144758026 l-1.20627264943,4.82509059774 -3.01568152441,0.0 l-19.6019309004,-7.53920400937 -17.4909529209,-8.14234023492 l-7.2376354999,-1.80940887498 6.03136304882,-3.01568152441 l14.7768395093,-2.1109771861 14.7768395093,-6.33293116159 l6.03136304882,-0.603136324717 7.84077172544,-2.71411341164 m26.2364301748,-24.7285892142 l50.9650178022,0.904704437488 15.0784080187,-2.71411341164 l15.0784080187,-6.93606778383 -17.4909529209,-11.4595898721 l-12.0627260976,-11.4595898721 -1.5078407622,-0.301568162358 l-9.04704496993,4.22195437219 -9.348612686,6.03136304882 l-8.74547646046,10.8564536466 -15.6815434509,15.0784080187 m107.358262428,-23.2207482537 l-11.158022156,14.4752709998 -3.92038586272,6.63449927436 l-13.5705670582,15.0784080187 -9.348612686,7.2376354999 l-7.53920400937,8.74547646046 -24.7285892142,20.8082033515 l-8.74547646046,8.74547646046 -17.1893844114,9.65018119547 m-4.22195437219,-10.253317421 l14.1737040771,22.9191797442 -3.31724963718,1.80940887498 l-18.697225372,0.0 2.41254529887,-1.5078407622 l2.41254529887,-6.03136304882 0.904704437488,-8.44390874439 l-0.603136324717,-9.348612686 1.20627264943,-2.1109771861 l5.72979493605,-2.41254529887 m81.7249708586,-80.2171283113 l28.0458396448,21.1097702742 2.1109771861,-16.5862489793 l2.1109771861,-6.33293116159 -1.5078407622,-1.80940887498 l-8.14234023492,-1.5078407622 -46.4414965073,0.0 " fill="none" stroke="black" stroke-width="1" /></svg>