<?xml version="1.0" encoding="utf-8" ?>
<svg baseProfile="full" height="300" version="1.1" width="300" xmlns="http://www.w3.org/2000/svg" xmlns:ev="http://www.w3.org/2001/xml-events" xmlns:xlink="http://www.w3.org/1999/xlink"><defs /><rect fill="none" height="300" width="300" x="0" y="0" /><path d="M111.367483545,158.996611856 m0.846740040901,-1.05842501632 l0.211685010225,-14.81794995 2.32853500806,-8.89077008139 l0.635054995868,-1.05842501632 1.48179510639,6.77392032721 l1.05842501632,0.211685010225 6.77392032721,-13.5478406544 l1.90516505722,-2.32853500806 2.11685003264,-1.27010999174 l0.635054995868,1.05842501632 -0.635054995868,13.1244701467 l7.19729027805,-20.9568156294 4.02201508986,-6.56223507333 l1.27010999174,-0.846740040901 1.27010999174,1.48179510639 l2.54021998347,8.46740013055 5.29212522083,-6.77392032721 l2.32853500806,-1.48179510639 0.635054995868,7.83234548276 l-1.6934800818,6.35055037638 m-3.38696016361,4.65707001611 l-4.44538504069,3.59864513902 -5.08043996695,19.0516505722 l13.3361554005,-18.6282800644 2.32853500806,-2.11685003264 l-0.423370020451,6.1388651225 -4.86875526999,15.4530057116 l3.81033011444,-4.65707001611 0.635054995868,3.17527518819 l-0.211685010225,10.3725651878 -1.90516505722,6.1388651225 l-1.48179510639,1.90516505722 m-24.3437752361,-10.5842504417 l1.05842501632,-5.29212522083 8.04403017972,-25.1905162516 l0.423370020451,23.2853511944 1.05842501632,9.94919579386 l1.27010999174,-1.27010999174 15.4530057116,-30.0592704078 l0.423370020451,26.2489402933 -0.846740040901,4.23370006528 l-3.17527518819,5.71549517166 0.635054995868,0.423370020451 m7.83234548276,4.86875526999 l0.423370020451,-38.5266716522 -0.635054995868,-4.23370006528 l-7.83234548276,-14.3945805561 -2.11685003264,-1.6934800818 m-50.1693472494,54.1913626177 l35.3513950717,2.75190495889 25.4022015055,0.846740040901 l21.3801861372,2.32853500806 30.2709556616,-0.423370020451 m-108.171039981,-3.38696016361 l-5.29212522083,1.27010999174 -19.47502108,0.0 l-23.9204047283,-2.75190495889 -27.9424200967,-0.211685010225 m174.851823667,-16.2997456133 l-1.48179510639,1.90516505722 -30.6943261694,22.4386101789 l-15.2413204578,6.98560502417 -14.60626581,2.11685003264 l-33.8696005222,1.27010999174 -15.6646909655,1.6934800818 l-12.9127848928,3.17527518819 -13.7595259083,0.0 l-18.6282800644,-2.11685003264 -9.31414003222,-3.17527518819 m211.685004378,-34.7163415377 l29.4242168738,-6.1388651225 0.211685010225,-7.19729027805 m-113.03979191,-6.56223507333 l0.0,0.0 m0.0,0.0 l0.0,0.0 m4.02201508986,39.5850979216 l0.0,0.0 m0.0,0.0 l0.0,0.0 m-19.8983915877,-40.8552049894 l0.0,0.0 m0.0,0.0 l0.0,0.0 m-26.4606255472,-16.2997456133 l0.0,0.211685010225 m6.98560502417,24.7671457439 l-0.635054995868,0.846740040901 " fill="none" stroke="black" stroke-width="1" /></svg>