<?xml version="1.0" encoding="utf-8" ?>
<svg baseProfile="full" height="300" version="1.1" width="300" xmlns="http://www.w3.org/2000/svg" xmlns:ev="http://www.w3.org/2001/xml-events" xmlns:xlink="http://www.w3.org/1999/xlink"><defs /><rect fill="none" height="300" width="300" x="0" y="0" /><path d="M103.703704739,135.853903218 m2.05761322233,15.4320993366 l-1.54320983216,18.5185186626 -1.02880661116,-0.514403305582 m47.3251044519,-33.9506166459 l0.514403305582,31.3785998642 -3.60082322366,48.3539122473 m0.0,-2.57201644333 l25.2057612123,1.54320983216 m-24.1769561236,5.65843610765 l3.60082322366,5.14403288665 5.14403288665,0.514403305582 l16.4609057786,-3.60082322366 m-71.5020605755,-49.8971185269 l-9.25925933131,60.1851856535 -4.11522644466,16.4609057786 l-1.02880661116,16.975308323 3.08641966432,-5.14403288665 l5.14403288665,-3.08641966432 16.975308323,-4.11522644466 l8.74485611031,0.0 6.68724254965,-4.11522644466 m-40.1234580046,19.0329225603 l15.946501881,1.54320983216 13.888888997,-1.54320983216 l-10.8024689943,-15.946501881 -6.17283932865,-5.65843610765 l-13.3744850993,2.57201644333 m0.0,0.0 l15.946501881,-3.60082322366 32.9218115573,-2.57201644333 l1.02880661116,-1.54320983216 m-54.0123442949,-108.02468859 l35.4938283389,-3.08641966432 48.3539122473,3.08641966432 l5.65843610765,-1.54320983216 9.77366255231,-6.17283932865 l2.57201644333,-2.57201644333 1.54320983216,-5.65843610765 l-4.11522644466,-5.14403288665 -21.6049379886,-78.7037043162 l-14.4032928946,-3.08641966432 -121.913583,10.2880657733 l0.514403305582,3.08641966432 15.946501881,19.5473251046 l12.3456786573,22.6337444306 11.831276113,26.2345690076 l20.5761315466,31.8930037619 m86.9341558521,-79.2181082138 l101.851852644,-20.0617290023 " fill="none" stroke="black" stroke-width="1" /></svg>