<?xml version="1.0" encoding="utf-8" ?>
<svg baseProfile="full" height="300" version="1.1" width="300" xmlns="http://www.w3.org/2000/svg" xmlns:ev="http://www.w3.org/2001/xml-events" xmlns:xlink="http://www.w3.org/1999/xlink"><defs /><rect fill="none" height="300" width="300" x="0" y="0" /><path d="M114.562764511,84.414669835 m-16.5726382854,-2.46826525682 l-11.6361068441,0.35260931412 -3.52609302523,1.76304651262 l-10.9308883318,8.81523279501 -16.2200285655,17.27785587 l-22.2143863837,13.0465447964 -8.46262307503,7.05218605047 l17.98307531,0.35260931412 13.3991535887,-1.41043725648 l11.9887165641,-4.58392079365 19.7461220545,-14.8095906132 l7.40479530661,-2.46826525682 10.9308883318,-0.705218628239 l5.64174902591,2.82087451296 0.705218628239,1.76304651262 l-3.1734837691,10.2256698196 1.76304651262,4.23131153751 l5.28913976977,7.40479530661 7.40479530661,5.99435828205 l17.63046559,8.46262307503 24.6826507128,9.52045130729 l5.28913976977,3.52609302523 11.9887165641,11.9887165641 l3.1734837691,1.05782788438 17.27785587,0.0 l15.1622003332,4.58392079365 0.35260931412,-3.52609302523 l-7.05218605047,-14.8095906132 -7.05218605047,-23.2722136882 l-14.1043721009,-20.8039493591 -8.81523279501,-7.40479530661 l-16.2200285655,-8.81523279501 -46.8970370965,-15.5148091255 m5.28913976977,52.8913949147 l-9.52045130729,15.8674188455 -6.34696753819,16.2200285655 l-6.69957679433,13.3991535887 m-11.6361068441,-9.87306102727 l11.9887165641,2.46826525682 6.34696753819,3.1734837691 l-0.35260931412,9.1678415873 -2.82087451296,12.6939350764 m-3.87870228137,-18.3356831746 l-7.40479530661,15.1622003332 m51.8335694655,-49.3653014256 l-7.05218605047,21.5091669437 -5.28913976977,27.1509168973 m9.1678415873,3.1734837691 l-26.0930895927,-0.35260931412 -4.93653051363,-1.41043725648 l-1.41043725648,-1.41043725648 m15.8674188455,-3.1734837691 l17.98307531,3.1734837691 16.5726382854,1.05782788438 m-20.8039493591,-1.41043725648 l-5.64174902591,14.1043721009 -1.76304651262,13.3991535887 m-55.0070532346,-123.060651265 l-4.58392079365,5.28913976977 4.58392079365,-3.87870228137 l2.46826525682,-4.93653051363 -5.64174902591,5.99435828205 l0.35260931412,-4.93653051363 m162.552887953,-21.1565590791 l-10.2256698196,25.7404798727 m-11.2834980518,-12.3413253564 l23.9774331282,-8.81523279501 16.5726382854,-3.87870228137 l-21.8617766637,11.9887165641 -11.6361068441,4.58392079365 m18.6882928946,7.40479530661 l-1.41043725648,4.23131153751 m5.64174902591,-14.8095906132 l-0.705218628239,2.11565576876 m3.52609302523,8.81523279501 l-1.41043725648,5.64174902591 m5.64174902591,-8.11001428273 l-1.05782788438,10.5782795395 m13.7517633086,-18.3356831746 l-4.23131153751,10.9308883318 -2.46826525682,11.6361068441 m8.11001428273,-11.6361068441 l7.05218605047,17.63046559 m0.705218628239,-17.27785587 l-7.40479530661,6.34696753819 0.35260931412,1.76304651262 l4.58392079365,4.23131153751 " fill="none" stroke="black" stroke-width="1" /></svg>