<?xml version="1.0" encoding="utf-8" ?>
<svg baseProfile="full" height="300" version="1.1" width="300" xmlns="http://www.w3.org/2000/svg" xmlns:ev="http://www.w3.org/2001/xml-events" xmlns:xlink="http://www.w3.org/1999/xlink"><defs /><rect fill="none" height="300" width="300" x="0" y="0" /><path d="M57.9249601603,130.283307592 m1.91424194592,-2.29709028474 l16.8453289226,-9.57120998139 18.3767222779,-7.27411944484 l28.7136289369,-15.6967844098 27.9479332665,-8.03981612248 l2.67993887537,-6.5084227672 10.336906659,-8.42266446131 l6.12557442838,-6.89127110602 31.776417662,-1.91424194592 l5.35987775074,4.59418056947 3.44563555301,7.27411944484 l3.06278721419,20.6738133181 30.6278711347,17.2281777651 l16.4624810874,19.9081156332 1.91424194592,13.0168455344 l11.4854521791,25.2679933839 0.0,12.2511488568 l-2.67993887537,6.12557442838 -15.3139355673,10.336906659 l-14.9310877321,7.27411944484 -22.2052066733,7.27411944484 l-8.03981612248,0.765696803547 -19.9081156332,-7.27411944484 l-22.2052066733,-17.9938754499 -5.35987775074,-9.18836113895 l-1.14854514237,8.42266446131 -5.35987775074,19.1424199628 l-1.53139360709,24.5022977135 -11.4854521791,0.765696803547 l-3.82848389183,-0.382848401774 0.0,-1.91424194592 l6.89127110602,-25.6508422264 -4.59418056947,-31.0107199771 l-4.21133223065,-42.4961731635 0.765696803547,4.21133223065 l-9.95405781659,2.67993887537 -6.5084227672,0.765696803547 l-40.9647777937,-0.765696803547 -11.4854521791,7.27411944484 l-11.1026033367,13.0168455344 -1.91424194592,0.765696803547 l-3.82848389183,-1.91424194592 -29.0964777794,-0.382848401774 l0.382848401774,-1.91424194592 5.74272608956,-5.74272608956 l21.4395110029,-30.6278711347 m9.18836113895,9.95405781659 l-5.74272608956,1.14854514237 -14.5482388897,9.95405781659 m148.16232475,-62.0214399542 l-2.29709028474,1.53139360709 m-14.1653910545,113.323128436 l-2.29709028474,16.8453289226 -1.53139360709,25.6508422264 l13.782542212,-22.2052066733 3.82848389183,0.765696803547 l1.53139360709,-1.91424194592 0.382848401774,-9.18836113895 " fill="none" stroke="black" stroke-width="1" /></svg>