<?xml version="1.0" encoding="utf-8" ?>
<svg baseProfile="full" height="300" version="1.1" width="300" xmlns="http://www.w3.org/2000/svg" xmlns:ev="http://www.w3.org/2001/xml-events" xmlns:xlink="http://www.w3.org/1999/xlink"><defs /><rect fill="none" height="300" width="300" x="0" y="0" /><path d="M55.5232334507,115.843009984 m53.0523310409,-35.6104677856 l40.6976796544,-16.7151181563 m-39.2441894564,75.581398517 l56.6860527117,-29.0697695428 19.6220947282,-7.26744238571 m-72.6744257691,77.7616338139 l71.2209355712,-45.7848876992 26.162792971,-2.90697704988 l-12.3546523425,11.6279081995 m-66.8604726253,74.1279159671 l113.372105423,-57.4127939867 m-62.5000058555,79.9418691108 l92.2965204973,-71.2209355712 m-242.005827333,68.3139628233 l50.872095744,-50.145354469 13.8081406285,-10.9011640566 l39.9709345554,-41.4244209293 -57.4127939867,32.7034912137 l47.2383778971,-34.1569814116 46.5116327981,-24.709304685 l17.4418613433,-11.6279081995 m-98.1104736411,146.802341736 l168.604664113,-121.366286216 3.63372119286,0.726744262471 m-138.808145647,130.087219756 l142.441871142,-98.8372187401 m-103.197681686,101.744191488 l68.3139628233,-69.0407002742 20.3488398272,-13.8081406285 l19.6220947282,-26.8895380699 m-218.023269659,21.8023281131 l34.1569814116,-29.0697695428 59.5930292836,-43.6046562263 m-101.744191488,87.2093124525 l137.35465545,-119.186058567 m-157.703502925,86.4825673536 l58.1395390857,-42.8779111273 36.3372128846,-31.9767461147 m-86.4825673536,39.2441894564 l90.8430302994,-79.2151240118 m-101.744191488,58.8662841847 l31.2500029278,-27.6162812569 81.3953593088,-38.5174443575 m18.1686064423,123.546521513 l-23.2558163991,29.7965146418 36.3372128846,-30.5232578288 l24.709304685,-25.436047872 -93.7500106953,74.854661066 l66.1337275264,-73.4011708681 45.0581426002,-56.6860527117 l-77.7616338139,20.3488398272 -44.3313975012,21.8023281131 l-54.5058174148,41.4244209293 77.7616338139,-50.872095744 l29.0697695428,-42.8779111273 -2.90697704988,-7.26744238571 l-43.6046562263,-7.99418652868 -58.1395390857,37.7906992585 l18.1686064423,77.0348887149 29.7965146418,2.18023266791 l99.563963839,-52.3255859419 26.8895380699,-15.9883730574 l-104.651171884,124.273266612 29.7965146418,30.5232578288 l111.191870127,-53.0523310409 22.5290713001,-29.7965146418 l-96.6569834431,103.924426785 0.0,2.90697704988 l89.3895401014,-62.5000058555 4.36046533583,-5.81395409977 m-130.813964855,27.6162812569 l26.162792971,-33.4302363127 102.470936587,-89.3895401014 " fill="none" stroke="black" stroke-width="1" /></svg>