<?xml version="1.0" encoding="utf-8" ?>
<svg baseProfile="full" height="300" version="1.1" width="300" xmlns="http://www.w3.org/2000/svg" xmlns:ev="http://www.w3.org/2001/xml-events" xmlns:xlink="http://www.w3.org/1999/xlink"><defs /><rect fill="none" height="300" width="300" x="0" y="0" /><path d="M176.785714151,32.6530612908 m-2.55102039532,42.0918346352 l-25.5102031143,52.2959178944 -47.1938779427,57.3979578461 l-76.5306126986,80.3571409845 m45.9183662769,-184.948976773 l39.5408146594,70.1530610811 42.0918346352,63.7755094636 l7.6530607665,31.8877547318 m22.9591831384,-200.25510334 l-8.92857159336,-6.37755077857 -38.2653063493,5.10204079064 l-40.8163263252,25.5102031143 -34.4387747076,34.4387747076 m109.69387574,161.989793635 l-58.6734695119,2.55102039532 -42.0918346352,-14.0306115451 l-16.5816315209,2.55102039532 m127.551018927,-229.591831384 l17.8571431867,76.5306126986 39.5408146594,104.591835789 l3.82653038325,47.1938779427 m-202.806113248,12.7551015571 l8.92857159336,-48.4693862527 6.37755077857,-81.6326526503 l11.4795915692,-61.224486132 m209.183671577,188.775511771 l-26.7857131022,5.10204079064 -70.1530610811,1.27551019766 " fill="none" stroke="black" stroke-width="1" /></svg>