<?xml version="1.0" encoding="utf-8" ?>
<svg baseProfile="full" height="300" version="1.1" width="300" xmlns="http://www.w3.org/2000/svg" xmlns:ev="http://www.w3.org/2001/xml-events" xmlns:xlink="http://www.w3.org/1999/xlink"><defs /><rect fill="none" height="300" width="300" x="0" y="0" /><path d="M25.5988024552,91.7664639792 m0.0,0.898203559679 m0.59880240594,0.898203559679 l4.19161694004,50.8982032249 -0.29940120297,13.1736523399 l3.89221539246,38.6227555278 0.898203559679,22.1556893152 l-0.59880240594,2.09580847002 -1.19760481188,-4.49101809378 m-8.0838323325,-125.748498749 l35.6287432027,3.29341308498 m-29.3413170049,26.3473046798 l27.5449108702,-4.19161694004 19.7604785099,-2.09580847002 l9.88023925493,0.0 m35.6287432027,-34.1317354647 l13.7724554351,59.5808386526 4.79041924752,29.0419154573 l4.49101809378,16.7664677602 5.389221555,32.0359277824 m11.976047725,-69.1616755722 l44.9101785747,-17.0658677324 31.7365262348,-8.98203618757 l18.5628738949,-3.89221539246 11.6766469651,-0.29940120297 l3.59281423872,1.79640711936 m0.0,0.0 l-5.08982040126,-2.39520962376 -17.0658677324,-2.6946107775 l-7.18562847743,-2.09580847002 -5.68862270874,-3.29341308498 l-1.79640711936,0.29940120297 -0.898203559679,1.49700596562 l0.59880240594,7.78443078491 " fill="none" stroke="black" stroke-width="1" /></svg>