<?xml version="1.0" encoding="utf-8" ?>
<svg baseProfile="full" height="300" version="1.1" width="300" xmlns="http://www.w3.org/2000/svg" xmlns:ev="http://www.w3.org/2001/xml-events" xmlns:xlink="http://www.w3.org/1999/xlink"><defs /><rect fill="none" height="300" width="300" x="0" y="0" /><path d="M191.6006326,126.030111177 m-13.8668773596,-5.94294781212 l-8.32012652002,-0.79239303293 -9.90491284647,0.79239303293 l-70.1267807432,31.6957202748 -13.4706814295,7.92393006871 l22.9793973035,2.37717896849 44.7702036895,0.0 l3.96196503435,-0.79239303293 9.90491284647,-5.94294781212 l29.7147374971,-34.8652918854 -1.98098251718,-68.9381939952 l5.5467513608,-21.3946114982 6.33914426344,-4.75435793699 l11.0935027216,-0.396196516465 9.11251994384,1.98098251718 l2.37717896849,3.56576858304 4.35816148567,19.8098256929 l-1.58478606586,-4.35816148567 -4.75435793699,-5.94294781212 l-4.75435793699,0.0 1.98098251718,-2.37717896849 l4.35816148567,-0.79239303293 m-5.94294781212,1.98098251718 l-14.2630743321,-5.1505543883 -9.50871587397,3.96196503435 m-42.3930260239,122.028525768 l-1.98098251718,21.3946114982 -3.56576858304,20.9984145257 l1.18858948425,65.7686223846 -1.58478606586,7.13153716607 l-4.75435793699,-36.4500797754 0.396196516465,-71.3153716607 " fill="none" stroke="black" stroke-width="1" /></svg>