<?xml version="1.0" encoding="utf-8" ?>
<svg baseProfile="full" height="300" version="1.1" width="300" xmlns="http://www.w3.org/2000/svg" xmlns:ev="http://www.w3.org/2001/xml-events" xmlns:xlink="http://www.w3.org/1999/xlink"><defs /><rect fill="none" height="300" width="300" x="0" y="0" /><path d="M124.794238946,168.518519596 m-3.60082327361,41.6666675689 l-16.9753085584,18.5185189195 -1.54320985357,5.14403295801 m14.4032930944,-22.1193421931 l14.4032930944,1.02880662544 10.8024691442,11.8312762771 l2.05761325087,15.4320995507 m-16.460906007,-72.5308639636 l-9.77366268789,0.0 -12.8600827334,-23.6625525542 l13.8888891896,-25.7201654667 26.7489705696,-18.5185189195 l21.6049382883,2.57201647901 19.0329228243,34.9794249265 l-1.54320985357,31.8930042043 -23.6625525542,3.08641970714 l-49.897119219,-2.57201647901 m57.098768473,-66.8724318375 l0.514403312718,-21.0905357369 4.11522650174,-9.25925945976 l25.7201654667,0.514403312718 21.6049382883,23.1481486494 l0.514403312718,19.5473253758 -11.3168723723,15.4320995507 l-15.4320995507,2.57201647901 -8.23045300349,-2.05761325087 m22.1193421931,-44.7530882911 l-3.60082327361,0.514403312718 m-5.65843618615,23.6625525542 l15.9465021022,5.14403295801 m0.0,0.0 l0.0,0.0 m0.0,0.0 l5.65843618615,-1.54320985357 m-74.074075678,-14.9176956459 l-21.0905357369,-18.5185189195 -23.6625525542,-15.4320995507 l-26.7489705696,-5.65843618615 -44.2386843862,11.3168723723 l-5.65843618615,39.0946507516 19.5473253758,19.5473253758 l16.460906007,5.65843618615 58.641974774,3.60082327361 l11.3168723723,-6.68724264241 m45.2674894892,20.0617292806 l15.4320995507,-5.14403295801 53.4979411393,6.68724264241 l29.8353912918,31.8930042043 -3.60082327361,33.9506171169 l-47.3251051084,12.8600827334 -53.4979411393,-18.5185189195 " fill="none" stroke="black" stroke-width="1" /></svg>