<?xml version="1.0" encoding="utf-8" ?>
<svg baseProfile="full" height="300" version="1.1" width="300" xmlns="http://www.w3.org/2000/svg" xmlns:ev="http://www.w3.org/2001/xml-events" xmlns:xlink="http://www.w3.org/1999/xlink"><defs /><rect fill="none" height="300" width="300" x="0" y="0" /><path d="M75.4429079438,56.4960529432 m5.90551186391,-8.36614218484 l16.2401577876,-14.7637806308 17.224409657,16.7322843697 l3.44488219035,9.35039405426 1.47637796598,58.5629959412 l22.637796881,54.6259884635 14.7637806308,7.38189031542 l16.7322843697,5.90551186391 25.0984272019,4.92125999449 l1.47637796598,-1.47637796598 m-86.1220534641,-91.535440688 l0.0,0.0 m0.0,0.0 l3.93700812506,-0.984252031266 46.2598469261,42.814963441 l22.637796881,25.5905511945 20.6692918474,31.4960650005 m-61.0236236727,-19.6850399779 l-25.0984272019,49.2126012396 m72.8346512847,-42.3228368589 l2.95275593195,29.0354346796 27.0669309407,62.0078768368 m-149.114178286,-220.964566049 l19.1929146906,-1.96850406253 10.3346459237,0.492126015633 l17.7165362391,18.7007881085 0.0,1.96850406253 m-11.8110237278,-30.0196852543 l4.42913405977,-11.3188984405 22.637796881,-6.8897643807 l1.96850406253,18.7007881085 -19.6850399779,57.5787427771 m6.39763779862,-60.5314970906 l0.0,-0.984252031266 m-5.90551186391,10.8267718584 l11.3188984405,-2.46062999724 " fill="none" stroke="black" stroke-width="1" /></svg>