<?xml version="1.0" encoding="utf-8" ?>
<svg baseProfile="full" height="300" version="1.1" width="300" xmlns="http://www.w3.org/2000/svg" xmlns:ev="http://www.w3.org/2001/xml-events" xmlns:xlink="http://www.w3.org/1999/xlink"><defs /><rect fill="none" height="300" width="300" x="0" y="0" /><path d="M143.816260153,102.738515461 m-12.3674918949,-12.3674918949 l-9.71731439627,-20.3180220668 -1.76678451492,-14.1342761193 l4.41696114203,-0.883392257458 -28.2685522387,-22.9681972413 l-10.6007065085,-1.76678451492 -20.3180220668,23.8515905156 l16.7844524559,-0.883392257458 17.6678445681,4.41696114203 l-2.65017662712,45.9363944827 -6.18374594747,30.0353364631 l10.6007065085,12.3674918949 -5.30035325423,28.2685522387 l-2.65017662712,75.0883399956 -15.0176682315,-3.53356902983 l-9.71731439627,0.0 -8.83392228407,3.53356902983 l8.83392228407,5.30035325423 17.6678445681,2.65017662712 l-8.83392228407,1.76678451492 -15.0176682315,11.4840986207 l29.1519431888,-7.95053017187 -7.95053017187,7.95053017187 l0.883392257458,4.41696114203 17.6678445681,-1.76678451492 l-4.41696114203,-24.7349837899 15.9010603437,-77.7385151701 l-0.883392257458,-10.6007065085 37.1024733607,-4.41696114203 l83.9222587935,-116.607772755 m-90.9894049876,60.0706729261 l48.5865743055,-68.021203098 20.3180220668,-6.18374594747 l23.8515905156,11.4840986207 4.41696114203,2.65017662712 l-1.76678451492,1.76678451492 " fill="none" stroke="black" stroke-width="1" /></svg>