<?xml version="1.0" encoding="utf-8" ?>
<svg baseProfile="full" height="300" version="1.1" width="300" xmlns="http://www.w3.org/2000/svg" xmlns:ev="http://www.w3.org/2001/xml-events" xmlns:xlink="http://www.w3.org/1999/xlink"><defs /><rect fill="none" height="300" width="300" x="0" y="0" /><path d="M132.38950075,146.892259464 m2.76243093421,7.2513809184 l0.0,10.7044194726 -1.7265192771,0.690607733552 l-3.4530385542,-2.76243093421 -1.7265192771,-11.0497237368 l-2.0718230871,-1.03591154355 -2.76243093421,0.345303866776 l-9.66850849684,4.14364617419 -7.5966847284,15.1933694568 l-5.52486186841,18.301104201 -1.3812154671,15.538673721 l0.345303866776,29.6961322021 -5.52486186841,1.7265192771 l-58.7016558756,0.690607733552 -10.3591161168,1.3812154671 l13.8121542168,-14.5027618368 6.56077329841,-9.32320423261 l18.301104201,-12.776243241 14.157458481,-22.7900541852 l17.6104974895,-33.1491693936 11.0497237368,-6.21546948841 l8.28729234839,-2.0718230871 20.0276237052,7.2513809184 l1.03591154355,1.7265192771 -2.0718230871,1.3812154671 m-1.7265192771,15.538673721 l1.7265192771,-0.345303866776 -0.690607733552,1.3812154671 m-55.2486168672,71.1325984863 l2.0718230871,32.1132602347 m-26.9337017221,-30.7320431778 l0.0,22.4447517379 1.7265192771,6.56077329841 l23.1353584494,-22.0994474737 32.458564499,-23.1353584494 l108.425415417,-65.6077302587 31.7679559705,-20.3729279694 l24.5165736894,-64.2265204695 0.0,-36.9475126662 l-9.32320423261,0.0 -9.32320423261,12.776243241 " fill="none" stroke="black" stroke-width="1" /></svg>