<?xml version="1.0" encoding="utf-8" ?>
<svg baseProfile="full" height="300" version="1.1" width="300" xmlns="http://www.w3.org/2000/svg" xmlns:ev="http://www.w3.org/2001/xml-events" xmlns:xlink="http://www.w3.org/1999/xlink"><defs /><rect fill="none" height="300" width="300" x="0" y="0" /><path d="M106.367925619,259.964625871 m-12.9716977981,-44.8113205123 l1.17924530726,-33.0188693788 1.17924530726,-1.76886786393 m68.9858492142,90.212264357 l-4.12735867235,-1.76886786393 -4.12735867235,-7.07547145573 l-11.7924526848,-63.6792454284 m43.0424536179,-4.12735867235 l-11.7924526848,-4.71698122903 -76.0613229968,-5.3066037857 l-21.2264151428,-8.25471734471 -12.9716977981,-28.8915091552 l-2.35849061451,-17.0990564705 1.76886786393,-30.0707558198 l-3.53773572787,-6.48584889906 -4.71698122903,-3.53773572787 l-10.6132075714,-0.589622653629 -15.9198113571,-7.66509401241 l-4.12735867235,-5.3066037857 -1.17924530726,-5.89622634238 l0.0,-9.43396245806 9.43396245806,-12.3820752414 l22.9952835885,-7.07547145573 25.9433955962,10.0235850147 l17.6886798028,10.0235850147 16.5094346894,17.6886798028 l10.0235850147,20.0471700295 1.17924530726,30.6603760496 l5.3066037857,15.3301880248 22.4056602562,15.9198113571 l29.4811324875,8.25471734471 36.5566031676,2.35849061451 l0.589622653629,14.7405662438 -13.5613211304,22.4056602562 l-70.1650958788,10.0235850147 -46.5801874067,-54.2452845216 l104.363205717,-118.514153282 45.4009438446,-14.7405662438 l32.4292460465,-1.76886786393 m-108.490569043,179.834905382 l-7.66509401241,2.35849061451 -38.9150933943,-11.7924526848 l-19.4575466972,-11.7924526848 -67.2169792173,-64.858492093 l1.76886786393,-21.2264151428 123.820750863,-53.6556611893 " fill="none" stroke="black" stroke-width="1" /></svg>