<?xml version="1.0" encoding="utf-8" ?>
<svg baseProfile="full" height="300" version="1.1" width="300" xmlns="http://www.w3.org/2000/svg" xmlns:ev="http://www.w3.org/2001/xml-events" xmlns:xlink="http://www.w3.org/1999/xlink"><defs /><rect fill="none" height="300" width="300" x="0" y="0" /><path d="M114.052288576,30.7189531376 m-4.08496725616,1.6339869562 l-3.2679739124,33.4967324678 31.0457513618,-15.5228756809 l2.45098029996,-10.6209145436 -30.2287590928,-14.7058823371 m-3.2679739124,22.0588235057 l-16.3398690247,3.2679739124 -16.3398690247,17.1568623684 l28.5947702558,-13.8888889934 m23.6928101932,8.16993451233 l4.08496725616,67.8104593541 -1.6339869562,0.0 m1.6339869562,0.0 l13.0718956496,-20.4248368182 66.9934649356,-13.8888889934 l15.5228756809,35.9477114244 0.0,6.53594782481 l-22.8758179242,27.7777779868 -44.9346414299,0.0 l-25.3267968807,-35.9477114244 m25.3267968807,-4.08496725616 l16.3398690247,-5.71895448105 4.08496725616,19.6078423997 l10.6209145436,-2.45098029996 -4.08496725616,13.8888889934 l-4.08496725616,-3.2679739124 m-18.7908501307,23.6928101932 l3.2679739124,8.16993451233 13.8888889934,59.640523767 l-17.1568623684,35.9477114244 " fill="none" stroke="black" stroke-width="1" /></svg>