<?xml version="1.0" encoding="utf-8" ?>
<svg baseProfile="full" height="300" version="1.1" width="300" xmlns="http://www.w3.org/2000/svg" xmlns:ev="http://www.w3.org/2001/xml-events" xmlns:xlink="http://www.w3.org/1999/xlink"><defs /><rect fill="none" height="300" width="300" x="0" y="0" /><path d="M139.974937161,35.025063045 m-19.4235589285,-10.025063045 l-23.1829586006,3.13283209853 -13.7844610687,10.025063045 l-5.0125315225,13.1578947314 m-0.626566440312,7.51879687164 l-25.6892239498,21.9298242776 6.26566419707,1.25313288062 l32.5814528357,-1.87969921791 m-6.89223053435,-21.9298242776 l6.89223053435,19.4235589285 m4.38596518521,-36.3408525078 l4.38596518521,-1.87969921791 8.77193037043,6.89223053435 l0.626566440312,4.38596518521 -10.025063045,6.26566419707 l-5.63909785978,-8.77193037043 2.50626576125,-6.26566419707 m45.7393500398,-8.14536320892 l11.2781957196,26.9423566243 -2.50626576125,25.0626567883 l-5.0125315225,7.51879687164 m-46.9924810659,-50.1253135765 l0.626566440312,10.025063045 m-5.0125315225,23.8095241137 l0.0,3.75939843582 13.7844610687,15.6641609048 l18.1704262539,3.75939843582 m30.0751874865,-6.26566419707 l2.50626576125,-1.25313288062 58.2706800824,13.7844610687 l30.7017546481,28.1954892989 m-124.060152915,-22.5563914391 l1.25313288062,18.7969934154 28.1954892989,35.7142853463 l67.6691743174,1.25313288062 3.75939843582,-1.87969921791 l12.5313283941,-13.7844610687 m-55.1378442748,20.6766916031 l-1.25313288062,18.7969934154 6.26566419707,59.5238078116 m-40.7268193415,-85.2130350583 l9.39849670771,12.5313283941 34.4611543202,4.38596518521 l23.1829586006,-15.6641609048 8.77193037043,-1.87969921791 m-5.63909785978,1.25313288062 l11.2781957196,6.26566419707 1.87969921791,3.75939843582 m-15.6641609048,-6.26566419707 l10.025063045,18.1704262539 m-65.1629056714,-86.4661693813 l3.13283209853,-2.50626576125 56.3909785978,-4.38596518521 l11.2781957196,17.5438607409 -11.9047620569,0.0 l25.0626567883,16.9172935793 -3.75939843582,5.0125315225 m-64.5363451036,-6.89223053435 l33.8345871587,22.5563914391 m-29.4486236219,30.7017546481 l14.4110282302,74.5614065002 -40.10025218,1.87969921791 m40.7268193415,-6.26566419707 l-33.2080199972,-1.87969921791 m33.2080199972,0.626566440312 l-7.51879687164,25.0626567883 " fill="none" stroke="black" stroke-width="1" /></svg>