<?xml version="1.0" encoding="utf-8" ?>
<svg baseProfile="full" height="300" version="1.1" width="300" xmlns="http://www.w3.org/2000/svg" xmlns:ev="http://www.w3.org/2001/xml-events" xmlns:xlink="http://www.w3.org/1999/xlink"><defs /><rect fill="none" height="300" width="300" x="0" y="0" /><path d="M150.645994301,193.604654384 m-1.93798438908,19.3798451655 l-6.45994810522,28.4237713231 -10.3359173083,33.5917291274 m-66.5374694778,-222.222219578 l49.0956059396,76.8733850865 -0.645994831767,-8.39793228186 m-18.0878557144,-76.8733850865 l50.3875970903,48.4496103643 9.04392785718,16.1498706879 l-7.10594283077,-4.52196392859 m-61.3695048752,-65.8914739024 l-0.645994831767,-10.3359173083 -29.0697668984,-3.22997405261 l-13.565890936,3.87596877816 -15.5038751126,15.5038751126 l27.131781872,-0.645994831767 m62.6614960258,89.1472874212 l12.2739014849,40.6976736578 10.9819120338,9.68992258273 l20.6718346165,9.04392785718 8.39793228186,1.29198966353 l21.3178284923,-1.29198966353 16.1498706879,-6.45994810522 l30.361758049,-18.0878557144 34.2377247028,-25.8397924209 l-64.5994827518,-1.93798438908 -14.2118856615,-2.58397932707 l-3.87596877816,-1.29198966353 -34.2377247028,-31.0077502253 " fill="none" stroke="black" stroke-width="1" /></svg>