<?xml version="1.0" encoding="utf-8" ?>
<svg baseProfile="full" height="300" version="1.1" width="300" xmlns="http://www.w3.org/2000/svg" xmlns:ev="http://www.w3.org/2001/xml-events" xmlns:xlink="http://www.w3.org/1999/xlink"><defs /><rect fill="none" height="300" width="300" x="0" y="0" /><path d="M132.061501663,238.838273054 m-2.27790436044,-2.84738035691 l-2.84738035691,-30.1822315585 -3.98633272441,-7.97266544882 l-1.13895218022,-9.68109343823 0.0,-9.11161744176 l2.27790436044,-14.2369021591 1.13895218022,0.56947609011 m-2.27790436044,-0.56947609011 l-0.56947609011,-12.5284734206 -9.68109343823,-17.6537581379 l-10.8200454312,-14.2369021591 -29.6127548129,-19.3621868765 l-21.6400908623,-3.41685635338 -20.5011388694,30.7517083041 l-5.12528471735,25.6264235868 2.84738035691,22.7790428553 l2.84738035691,-17.6537581379 3.41685635338,-5.69476071382 l22.7790428553,-17.0842828906 7.97266544882,1.70842817669 l13.0979501662,24.4874715938 10.8200454312,30.7517083041 l44.4191352159,30.1822315585 0.56947609011,11.9589974241 l-2.84738035691,-1.70842817669 0.0,-18.2232348835 l-9.68109343823,-51.8223239191 9.68109343823,-62.6423700994 l48.405466442,-54.6697016541 12.5284734206,-0.56947609011 l46.1275624562,117.881542506 10.8200454312,18.2232348835 l9.11161744176,23.3485196009 17.0842828906,34.7380395303 l-138.382681375,-82.0045554776 11.3895214276,7.40318870323 l28.4738043182,26.7653770779 47.2665159473,47.8359896964 l17.0842828906,12.5284734206 2.84738035691,1.70842817669 l-73.4624162797,-89.4077471773 -2.27790436044,5.69476071382 l-2.84738035691,-0.56947609011 " fill="none" stroke="black" stroke-width="1" /></svg>