<?xml version="1.0" encoding="utf-8" ?>
<svg baseProfile="full" height="300" version="1.1" width="300" xmlns="http://www.w3.org/2000/svg" xmlns:ev="http://www.w3.org/2001/xml-events" xmlns:xlink="http://www.w3.org/1999/xlink"><defs /><rect fill="none" height="300" width="300" x="0" y="0" /><path d="M139.939025376,202.134140431 m3.65853642739,-0.914634106847 l10.0609752756,-5.48780484161 19.8170737521,-13.719512104 l45.4268275407,-26.8292674016 11.5853656876,-9.4512192712 l0.0,-5.18292683942 -14.6341457096,-3.35365842519 l-31.4024402419,1.5243902115 -39.9390226991,10.3658536788 l-38.4146338913,17.6829265336 -28.3536594178,22.2560977697 l-14.6341457096,15.5487809193 -1.82926821369,3.96341442958 l3.65853642739,-0.304878052326 14.3292689105,-8.23170726242 l19.2073169456,-8.84146326681 39.329269101,-15.8536577183 l18.9024385424,-10.9756096832 -14.9390241128,0.0 l-40.2439011023,11.5853656876 -32.9268290497,11.8902440909 l-5.18292683942,0.0 7.01219525364,-8.53658566567 l12.5000000953,-10.67073128 19.2073169456,-12.5000000953 l20.4268289544,-14.9390241128 28.9634130159,-17.3780481304 l0.609756104653,-1.82926821369 -7.31707285478,0.609756104653 l-23.4756097785,10.3658536788 -30.7926834354,17.0731713313 l-30.4878050321,20.7317073577 -22.5609761729,23.1707313752 l-7.92682885917,14.0243905073 0.0,2.13414641642 l50.3048787843,-37.1951202783 29.2682914191,-16.7682929281 l78.6585382021,-38.109755488 4.26829283283,-3.96341442958 l-26.8292674016,-1.21951220931 -36.280488277,8.53658566567 l-41.1585363121,15.2439025161 -62.8048804837,36.280488277 l18.9024385424,-21.6463409632 22.5609761729,-19.8170737521 l25.6097553928,-19.2073169456 39.6341475043,-20.7317073577 l6.4024388482,-1.5243902115 -47.8658547667,38.4146338913 l-35.3658530672,34.4512178575 -2.43902441861,4.87804883722 l42.3780499251,-17.6829265336 21.0365857609,-7.62195125803 l27.7439026113,-3.65853642739 4.26829283283,1.21951220931 l0.914634106847,10.67073128 -4.57317083503,12.5000000953 l-2.43902441861,16.1585361216 7.01219525364,0.609756104653 l25.0000001905,-13.719512104 23.1707313752,-14.9390241128 l77.1341461858,-28.6585378211 -4.87804883722,10.9756096832 l-38.109755488,31.0975618386 -50.6097571875,43.5975603296 l24.0853649808,-17.9878049369 46.6463411537,-22.2560977697 l23.7804881817,-8.23170726242 " fill="none" stroke="black" stroke-width="1" /></svg>