<?xml version="1.0" encoding="utf-8" ?>
<svg baseProfile="full" height="300" version="1.1" width="300" xmlns="http://www.w3.org/2000/svg" xmlns:ev="http://www.w3.org/2001/xml-events" xmlns:xlink="http://www.w3.org/1999/xlink"><defs /><rect fill="none" height="300" width="300" x="0" y="0" /><path d="M105.403646622,275.0 m11.0677084159,-67.708330211 l10.4166668451,-46.2239575193 0.651041677818,65.7552097808 l7.81249970561,39.7135400988 m-4.55729185178,-113.932294582 l1.30208335564,-26.0416662563 -1.9531249264,-54.0364597942 l3.9062498528,-9.76562527432 0.0,-15.6249994112 l-3.9062498528,22.1354168317 m3.9062498528,20.182291263 l18.8802081215,6.51041656407 -9.76562527432,1.9531249264 l-1.9531249264,-6.51041656407 -3.25520828204,0.0 l-0.651041677818,-12.3697915574 m3.25520828204,-22.1354168317 l47.5260423737,-18.8802081215 18.8802081215,-1.30208335564 l20.182291263,1.30208335564 5.20833342254,2.60416671127 l6.51041656407,9.76562527432 2.60416671127,25.390625542 l3.9062498528,3.25520828204 -18.2291674071,-3.25520828204 l-9.11458370356,-3.9062498528 -9.11458370356,-14.9739586969 l-3.25520828204,-0.651041677818 -18.2291674071,2.60416671127 l-18.8802081215,12.3697915574 -7.81249970561,-3.9062498528 m-30.5989598209,-4.55729185178 l-3.9062498528,-0.651041677818 -1.9531249264,-3.9062498528 l3.25520828204,-24.0885424004 1.9531249264,-2.60416671127 m9.76562527432,-6.51041656407 l4.55729185178,6.51041656407 1.30208335564,34.5052075327 m17.5781249799,22.1354168317 l-9.76562527432,11.7187499866 -3.25520828204,0.651041677818 m-14.9739586969,13.6718746989 l-29.2968749665,-20.8333336902 -31.2499988224,14.9739586969 l-13.0208331281,31.9010412496 -3.9062498528,17.5781249799 l-1.9531249264,54.0364597942 2.60416671127,37.1093738157 l18.8802081215,-46.8749999465 9.11458370356,-15.6249994112 l36.4583348142,-56.6406260772 27.3437493978,-27.994791825 l-41.6666673803,56.6406260772 24.0885424004,-41.0156249532 m14.3229162697,-27.994791825 l-21.4843744045,7.81249970561 -13.0208331281,1.9531249264 l-50.1302086567,78.1250021946 -7.16145813484,34.5052075327 l13.6718746989,-17.5781249799 16.2760418384,-40.364582526 " fill="none" stroke="black" stroke-width="1" /></svg>