<?xml version="1.0" encoding="utf-8" ?>
<svg baseProfile="full" height="300" version="1.1" width="300" xmlns="http://www.w3.org/2000/svg" xmlns:ev="http://www.w3.org/2001/xml-events" xmlns:xlink="http://www.w3.org/1999/xlink"><defs /><rect fill="none" height="300" width="300" x="0" y="0" /><path d="M83.9721971106,124.515584637 m0.0,-1.68492002629 l2.94861011527,-8.42459985438 3.79106998988,-2.5273799009 l5.89722023053,-2.31676493225 44.2291484043,-0.421230006572 l6.95029479675,13.0581297189 0.631844975226,2.73799486956 l-0.631844975226,2.73799486956 19.3765804408,-0.421230006572 l59.8146588553,0.631844975226 24.4313396885,3.79106998988 l7.16091004246,2.5273799009 16.4279703256,14.5324353306 l0.0,1.0530749818 -1.68492002629,5.89722023053 l-20.8508849444,32.6453254054 -3.15922508392,2.5273799009 l-0.421230006572,-3.15922508392 -2.1061499636,-5.89722023053 l-23.1676504307,-13.689975456 -16.6385844631,4.6335298645 l-6.10783492213,0.631844975226 -10.530750095,0.0 l-8.42459985438,-2.31676493225 m-147.851725173,-54.759901824 l-4.21229992719,2.31676493225 -4.84414511021,9.267059729 l0.0,1.26368995045 1.26368995045,1.0530749818 l6.52906485944,1.0530749818 5.05475980181,-15.3748952052 m-6.10783492213,15.1642799595 l-1.47430505763,10.3201348493 -0.631844975226,7.16091004246 l0.842460013144,-3.58045502123 m1.26368995045,-13.4793602103 l1.47430505763,1.0530749818 5.89722023053,1.89553499494 l11.5838252154,1.47430505763 2.31676493225,1.89553499494 l1.0530749818,5.89722023053 -4.00168495854,3.36984005257 l-1.68492002629,0.631844975226 -6.10783492213,0.210615003286 l-14.7430494681,-1.0530749818 m8.00336991707,0.631844975226 l0.842460013144,1.68492002629 0.0,12.6369003357 m18.7447347037,-20.4296544529 l12.0050545986,-14.5324353306 0.421230006572,-1.0530749818 l-0.631844975226,0.0 m-4.6335298645,1.47430505763 l5.89722023053,-2.31676493225 0.631844975226,3.36984005257 l-0.842460013144,1.0530749818 m-34.3302451547,30.3285599191 l3.58045502123,3.15922508392 2.94861011527,-0.842460013144 l0.842460013144,-1.0530749818 " fill="none" stroke="black" stroke-width="1" /></svg>