<?xml version="1.0" encoding="utf-8" ?>
<svg baseProfile="full" height="300" version="1.1" width="300" xmlns="http://www.w3.org/2000/svg" xmlns:ev="http://www.w3.org/2001/xml-events" xmlns:xlink="http://www.w3.org/1999/xlink"><defs /><rect fill="none" height="300" width="300" x="0" y="0" /><path d="M87.0318347129,29.2134812522 m-1.87265922389,0.468164805973 l-17.3220980519,27.6217233214 55.2434466429,19.1947569679 l7.95880162456,-44.94381891 -3.74531844778,-3.27715371879 l-22.471909455,-3.27715371879 -1.40449434094,1.40449434094 m1.40449434094,55.7116119877 l10.7677906144,36.9850179013 -14.0449443331,29.0262168926 l23.8764054895,28.0898886663 84.2696635355,1.87265922389 l22.471909455,-18.7265916231 -6.55430743758,-25.7490644055 l-28.5580515477,-20.1310864259 -24.8127337158,-4.21348317677 l-28.5580515477,2.80898868187 -22.0037465736,6.08614209274 l-4.68164790576,3.27715371879 m-5.14981263476,9.83146054052 l71.1610486603,2.80898868187 7.49063689556,1.40449434094 l-0.936329611946,2.34082395288 -37.921348591,11.7041200723 l-9.83146054052,4.68164790576 m6.08614209274,26.2172297503 l-3.27715371879,9.36329581153 -4.21348317677,23.4082401447 l55.2434466429,5.14981263476 6.08614209274,-0.468164805973 m-22.0037465736,-43.5393278023 l-0.468164805973,16.3857673623 3.74531844778,78.1835189793 m19.1947569679,-53.3707852635 l18.7265916231,-12.6404495303 m-44.94381891,72.09737935 l4.68164790576,-2.80898868187 7.95880162456,0.936329611946 " fill="none" stroke="black" stroke-width="1" /></svg>