<?xml version="1.0" encoding="utf-8" ?>
<svg baseProfile="full" height="300" version="1.1" width="300" xmlns="http://www.w3.org/2000/svg" xmlns:ev="http://www.w3.org/2001/xml-events" xmlns:xlink="http://www.w3.org/1999/xlink"><defs /><rect fill="none" height="300" width="300" x="0" y="0" /><path d="M122.311823928,136.827957936 m-4.83870974472,32.2580659078 l-1.07526885181,103.225804115 -0.537634425903,2.68817204111 l-1.6129031893,-3.76344106972 m50.5376376261,-141.935482073 l6.98924709471,123.118278139 m-10.7526881644,-140.322576939 l-4.30107540722,2.15053770361 -15.5913979092,20.4301076539 l-33.3333331683,-5.91397841972 -48.9247324919,-39.7849480472 l-10.7526881644,-15.0537642789 48.9247324919,-25.8064510289 l22.5806450039,-5.91397841972 13.4408605592,6.98924709471 l15.0537642789,19.3548389789 7.52688213945,16.6666665842 l-4.30107540722,19.8924740236 -6.45161275722,12.3655918842 l-3.22580637861,3.22580637861 -8.06451647695,2.15053770361 m18.2795703039,-74.7311863497 l26.3440860736,14.5161292342 20.9677426986,1.6129031893 l13.4408605592,-8.60215081445 10.2150538269,-21.5053763289 l10.2150538269,-6.45161275722 7.52688213945,-2.68817204111 l9.13978515194,5.91397841972 2.15053770361,5.91397841972 m-99.4623701181,39.2473130025 l27.4193561631,18.2795703039 17.2043016289,2.15053770361 l21.5053763289,-17.7419352592 11.2903225019,-24.1935487236 l10.2150538269,-3.76344106972 " fill="none" stroke="black" stroke-width="1" /></svg>