<?xml version="1.0" encoding="utf-8" ?>
<svg baseProfile="full" height="300" version="1.1" width="300" xmlns="http://www.w3.org/2000/svg" xmlns:ev="http://www.w3.org/2001/xml-events" xmlns:xlink="http://www.w3.org/1999/xlink"><defs /><rect fill="none" height="300" width="300" x="0" y="0" /><path d="M48.0263186942,64.9436020584 m-1.40977440893,6.57894775681 l0.0,14.5676691498 2.81954881786,6.10902238718 l45.1127810857,71.428572113 11.7481206411,14.0977450165 l7.51879725973,12.687970144 8.92857151412,23.4962412821 l3.75939862987,6.10902238718 1.87969931493,4.69924813279 l-4.69924813279,3.75939862987 -2.81954881786,7.51879725973 l17.3872188949,0.939849657467 1.87969931493,-4.69924813279 l-9.39849626558,-5.63909763572 0.0,-5.63909763572 l16.9172935253,-17.8571430282 27.2556392938,-39.9436094378 l15.5075186528,-26.3157910272 19.7368420341,-27.7255646635 l12.687970144,-9.39849626558 10.3383457685,-10.8082711381 l5.63909763572,-8.92857151412 7.51879725973,-6.57894775681 l-98.2142835645,-2.3496240664 -122.180457634,0.0 l-0.939849657467,2.3496240664 1.40977440893,0.0 m34.3045124203,-1.87969931493 l27.2556392938,39.4736840682 10.8082711381,18.3270683979 l19.7368420341,26.3157910272 18.7969925312,50.751880576 l0.0,-20.2067674037 m-22.0864676459,-122.650373113 l-1.40977440893,147.086472553 9.39849626558,-31.0150373055 m42.7631591829,-116.541353199 l-42.2932338133,129.229328288 -0.469924828733,2.3496240664 l6.57894775681,-0.939849657467 12.687970144,-14.0977450165 m61.5601492414,-93.5150397589 l-20.2067674037,31.9548880448 -27.7255646635,49.8120298367 l-16.4473681557,52.6315820545 m117.481203938,-137.687975051 l16.4473681557,23.0263159125 1.40977440893,10.8082711381 l0.0,69.0789502102 -8.92857151412,4.69924813279 l-20.2067674037,2.81954881786 -71.8984974826,2.3496240664 l-52.6315820545,15.5075186528 -0.939849657467,2.81954881786 l3.2894738784,0.939849657467 24.4360895487,-11.7481206411 l13.1578955136,-8.92857151412 m104.32331337,-85.0563929962 l-28.66541293,18.3270683979 -51.2218059456,23.4962412821 l-25.375940288,13.6278196469 -19.2669179008,13.1578955136 l-17.3872188949,24.9060149183 -0.469924828733,-3.2894738784 " fill="none" stroke="black" stroke-width="1" /></svg>