<?xml version="1.0" encoding="utf-8" ?>
<svg baseProfile="full" height="300" version="1.1" width="300" xmlns="http://www.w3.org/2000/svg" xmlns:ev="http://www.w3.org/2001/xml-events" xmlns:xlink="http://www.w3.org/1999/xlink"><defs /><rect fill="none" height="300" width="300" x="0" y="0" /><path d="M109.718672803,48.0179020663 m5.11508948825,30.6905352473 l19.820971031,70.9718675957 0.0,5.11508948825 m-8.95140681471,-108.695648892 l6.39386165004,35.1662403369 16.6240397855,42.1994863856 l4.47570340736,20.460357953 m-48.5933488768,-99.7442454415 l-17.2634267074,-1.91815845296 -1.27877237206,-3.83631690592 l15.9846545457,-13.427109381 19.820971031,0.639386186032 l4.47570340736,1.91815845296 1.91815845296,10.8695650574 m25.5754466002,106.138107933 l28.1329909238,1.91815845296 29.4117647677,-5.75447556915 m-88.2352943032,26.854218762 l9.59079289561,4.47570340736 24.9360613604,5.11508948825 l25.5754466002,-1.91815845296 8.31201989273,-15.3452676237 l17.9028136294,-19.1815857912 4.47570340736,-8.95140681471 l-1.91815845296,-4.47570340736 m-54.3478244459,54.3478244459 l-4.47570340736,20.460357953 -3.83631690592,47.3145783972 l-5.75447556915,17.9028136294 m21.0997431928,-91.4322221844 l24.9360613604,63.2992312606 15.3452676237,29.4117647677 l5.75447556915,6.39386165004 m-83.7595858493,-106.138107933 " fill="none" stroke="black" stroke-width="1" /></svg>