<?xml version="1.0" encoding="utf-8" ?>
<svg baseProfile="full" height="300" version="1.1" width="300" xmlns="http://www.w3.org/2000/svg" xmlns:ev="http://www.w3.org/2001/xml-events" xmlns:xlink="http://www.w3.org/1999/xlink"><defs /><rect fill="none" height="300" width="300" x="0" y="0" /><path d="M62.2257036582,172.727272745 m-3.91849506088,90.5172358548 l1.5673980759,2.74294669725 53.6833840351,4.70219396996 m30.1724126389,-107.75861804 l0.391849518974,108.15046801 4.31034451542,0.783699037949 l50.9404383687,-6.26959230359 m-122.648900405,-100.705326827 l-18.8087758798,0.0 -32.131660427,-8.2288395763 l-0.783699037949,-5.0940434245 33.3072082752,-19.2006258499 l50.1567384287,5.87774284905 6.26959230359,2.35109698498 l63.0877709441,12.1473346372 -123.432592098,2.35109698498 l-4.31034451542,1.95924753044 m101.880876737,-9.01253900085 l0.391849518974,-29.7805626689 30.1724126389,-83.0720946721 l3.1347961518,-3.1347961518 36.4420059734,-3.91849506088 l36.0501560034,7.83699012176 10.188086849,17.2413780617 l0.0,16.4576791526 -7.05329121267,18.8087758798 l-5.48589339451,0.0 -8.62068903084,-9.40438793992 l-3.1347961518,-9.40438793992 -9.79623790993,-10.971786789 l-18.4169279717,0.0 -16.4576791526,16.8495291226 l-8.2288395763,24.6865192444 -3.52664560634,18.8087758798 l-7.83699012176,14.8902813344 -17.6332280317,14.1065824253 l-5.87774284905,1.95924753044 m99.9216268875,-56.8181796714 l3.52664560634,8.62068903084 15.2821313044,3.52664560634 l-1.17554849249,-6.26959230359 " fill="none" stroke="black" stroke-width="1" /></svg>