<?xml version="1.0" encoding="utf-8" ?>
<svg baseProfile="full" height="300" version="1.1" width="300" xmlns="http://www.w3.org/2000/svg" xmlns:ev="http://www.w3.org/2001/xml-events" xmlns:xlink="http://www.w3.org/1999/xlink"><defs /><rect fill="none" height="300" width="300" x="0" y="0" /><path d="M134.085643672,146.093749524 m-6.65509272123,-7.81249995242 l3.4722220742,0.0 2.8935184586,1.4467592293 l-1.4467592293,-1.1574074215 -3.1828702664,-7.23379633683 l1.7361110371,0.289351855376 2.8935184586,2.31481484301 l0.86805551855,-15.3356477164 7.52314776399,-4.91898149382 l2.02546303521,-0.289351855376 m0.0,0.0 l7.81249995242,9.83796298763 3.1828702664,3.1828702664 l1.4467592293,0.289351855376 0.289351855376,4.62962968602 l-0.289351855376,2.02546303521 -1.4467592293,1.7361110371 l-5.20833330161,3.761573882 -2.31481484301,3.4722220742 l-5.20833330161,8.96990718361 -2.02546303521,5.49768510941 l0.289351855376,8.10185214085 2.02546303521,10.9953702188 l-0.289351855376,-16.2037042817 7.81249995242,-5.49768510941 l6.9444441484,-0.86805551855 0.86805551855,1.4467592293 l0.289351855376,5.49768510941 -6.07638872501,8.68055575644 l-9.54861079921,6.65509272123 1.4467592293,0.86805551855 l0.0,29.5138897242 -4.91898149382,3.1828702664 m1.7361110371,-60.7638864888 l-5.49768510941,2.60416665081 -2.31481484301,3.761573882 l-0.578703710752,12.4421296384 1.7361110371,5.49768510941 l4.62962968602,5.20833330161 3.1828702664,2.60416665081 l7.23379633683,1.4467592293 m28.6458331589,-40.2199085158 l0.0,0.0 m1.1574074215,-0.86805551855 l8.39120356802,-5.49768510941 m-13.8888882968,-23.1481476688 l0.0,-3.4722220742 7.81249995242,-10.1273144148 l0.86805551855,-4.34027787822 2.60416665081,-4.62962968602 l-6.9444441484,2.60416665081 m-71.4699052805,112.268515128 l13.8888882968,-2.8935184586 20.2546288296,-0.578703710752 l90.277779258,0.578703710752 -12.15277745,0.289351855376 l-9.83796298763,3.4722220742 -22.8587954804,2.60416665081 l-7.81249995242,1.7361110371 -42.5347229782,0.578703710752 l-26.3310186965,-4.91898149382 -61.0532386772,-0.86805551855 l6.07638872501,1.4467592293 41.9560186013,-0.578703710752 l9.54861079921,-1.1574074215 28.3564809704,-7.23379633683 l20.8333332065,-0.578703710752 11.2847224073,-2.60416665081 l28.9351853473,-0.289351855376 -134.259257088,0.289351855376 l74.3634271647,0.289351855376 31.8287041865,2.60416665081 l15.9143520933,2.8935184586 19.3865737868,0.289351855376 l27.4884244052,3.761573882 43.4027764984,0.0 l1.4467592293,0.86805551855 -7.81249995242,3.1828702664 l-3.761573882,0.578703710752 -114.583332636,0.0 l-34.7222230258,1.4467592293 -89.1203705043,0.0 " fill="none" stroke="black" stroke-width="1" /></svg>