<?xml version="1.0" encoding="utf-8" ?>
<svg baseProfile="full" height="300" version="1.1" width="300" xmlns="http://www.w3.org/2000/svg" xmlns:ev="http://www.w3.org/2001/xml-events" xmlns:xlink="http://www.w3.org/1999/xlink"><defs /><rect fill="none" height="300" width="300" x="0" y="0" /><path d="M144.358668599,252.434680059 m-8.31353962472,20.7838474995 l8.90736377204,-4.75059395968 0.59382424496,6.53206640162 l7.71971469626,-8.31353962472 1.18764848992,-2.96912112715 l-5.34441810699,-13.6579577317 0.0,-4.15676981236 l-2.37529697984,3.56294527447 m-2.96912112715,2.96912112715 l5.34441810699,-39.1923984097 1.18764848992,-37.4109267489 l-4.75059395968,-65.3206671408 m-7.71971469626,-2.37529697984 l25.5344422403,10.688836214 17.2209026156,-2.96912112715 l8.31353962472,-3.56294527447 27.9097403919,-15.4394293925 l14.8456060263,-18.4085509102 1.18764848992,-12.4703086559 l-16.6270792494,-19.0023758387 -30.2850369812,7.12589054894 l-5.34441810699,2.37529697984 -50.4750595522,38.5985766059 l-0.59382424496,24.3467939457 6.53206640162,-17.2209026156 m3.56294527447,-14.2517810979 l-16.033254321,-31.4726837135 -13.6579577317,-21.377672428 l-8.90736377204,-10.0950120667 -33.8479803028,10.0950120667 l1.18764848992,21.377672428 33.8479803028,-13.0641328032 l-2.37529697984,4.15676981236 16.033254321,0.59382424496 l16.033254321,24.9406173119 m-54.0380059984,-37.4109267489 " fill="none" stroke="black" stroke-width="1" /></svg>