<?xml version="1.0" encoding="utf-8" ?>
<svg baseProfile="full" height="300" version="1.1" width="300" xmlns="http://www.w3.org/2000/svg" xmlns:ev="http://www.w3.org/2001/xml-events" xmlns:xlink="http://www.w3.org/1999/xlink"><defs /><rect fill="none" height="300" width="300" x="0" y="0" /><path d="M249.041532357,110.463259776 m25.9584676429,-17.1725242473 l-7.9872204091,-0.399361033589 -16.3738023115,10.3833862166 l-22.3642184063,3.99361020455 -20.7667724332,1.59744413435 l-11.5814696457,6.78913750534 -9.98402577405,3.59424923663 l-16.773162754,3.59424923663 -22.7635777982,2.3961660702 l-8.78594234494,4.39297117247 -5.19169310831,4.79233214039 l-5.9904155695,9.18530383821 -6.78913750534,19.9680515481 l-1.59744413435,9.18530383821 0.399361033589,15.9744408182 l7.18849847326,14.3769969465 1.1980830351,6.78913750534 l2.79552730079,5.19169310831 12.3801915816,8.38658137702 l9.98402577405,-7.18849847326 5.19169310831,-5.9904155695 l12.3801915816,-24.3610216699 14.3769969465,-23.5623007847 l20.3674130414,-27.1565500214 55.5111845225,-58.7060722659 l1.1980830351,4.39297117247 -34.3450484946,9.18530383821 l-60.7028755294,20.3674130414 -58.3067107726,23.5623007847 l-45.1277941031,21.1661339265 -37.5399383393,22.7635777982 " fill="none" stroke="black" stroke-width="1" /></svg>