<?xml version="1.0" encoding="utf-8" ?>
<svg baseProfile="full" height="300" version="1.1" width="300" xmlns="http://www.w3.org/2000/svg" xmlns:ev="http://www.w3.org/2001/xml-events" xmlns:xlink="http://www.w3.org/1999/xlink"><defs /><rect fill="none" height="300" width="300" x="0" y="0" /><path d="M132.174888709,113.340802475 m-1.12107620756,0.44843049777 l1.34529141957,0.896860995541 2.46636762713,-1.12107620756 l-1.56950677906,-2.91479805117 -13.0044840667,-4.0358744062 l-3.13901355813,-2.24215241512 -6.72645754029,0.44843049777 l0.224215248885,1.12107620756 2.24215241512,0.672645709787 l-30.4932735534,30.2690580465 -24.6636774511,38.5650223658 l-32.7354262635,28.9237673643 0.0,19.5067266899 l22.869955755,-2.46636762713 64.5739904992,-11.2107623705 l45.9641270169,-3.81165919418 17.713003814,-7.3991028814 l6.95067245736,-4.48430483023 18.3856503349,-6.72645754029 l18.834080169,-8.29596431936 19.955156524,-25.3363216124 l4.93273525427,-2.24215241512 -0.224215248885,-1.34529141957 l-2.0179372031,-2.0179372031 -9.4170400845,-4.93273525427 l-28.2511208434,-10.9865468636 -39.6860975411,10.7623313566 l-4.93273525427,3.81165919418 -3.58744398216,1.79372199108 l-8.52017923643,10.7623313566 -2.69058283915,6.0538116093 l-1.56950677906,6.27802711626 0.0,3.13901355813 l1.56950677906,4.48430483023 4.70852004225,4.26008961821 l2.91479805117,0.896860995541 5.82959610233,-0.224215248885 l10.7623313566,-1.79372199108 10.3139015225,-6.50224203333 l19.7309410171,-14.3497759287 23.9910309302,-19.955156524 l3.36322877015,-6.50224203333 0.672645709787,-7.17488796433 l-1.56950677906,-6.0538116093 -1.79372199108,0.0 l-2.69058283915,1.56950677906 -1.79372199108,2.46636762713 l-0.896860995541,4.0358744062 0.672645709787,7.3991028814 l4.26008961821,9.19282516743 11.4349778775,19.5067266899 l1.12107620756,0.896860995541 15.0224212698,-37.892375845 l10.5381170294,-21.3004472062 8.74439474339,-22.645740248 l2.46636762713,-2.69058283915 1.34529141957,-4.48430483023 l-0.224215248885,-2.24215241512 -48.4304928744,12.5560542325 l-58.2959657425,41.7040371038 -18.6098658418,39.2376688867 l-26.0089681333,24.2152464372 -15.0224212698,23.3183844093 l-7.3991028814,6.72645754029 -28.4753363503,0.0 " fill="none" stroke="black" stroke-width="1" /></svg>