<?xml version="1.0" encoding="utf-8" ?>
<svg baseProfile="full" height="300" version="1.1" width="300" xmlns="http://www.w3.org/2000/svg" xmlns:ev="http://www.w3.org/2001/xml-events" xmlns:xlink="http://www.w3.org/1999/xlink"><defs /><rect fill="none" height="300" width="300" x="0" y="0" /><path d="M178.296698921,116.208788152 m0.0,7.14285720481 l2.19780208713,5.86080588693 2.93040294346,5.49450557923 l7.87545782021,10.6227103689 2.93040294346,2.74725278961 l3.29670325117,2.01465193328 m-19.0476179279,-34.9816829994 l6.04395579985,8.97435874332 6.77655689711,12.8205122151 l2.01465193328,6.59340650233 0.732600735866,7.14285720481 l-0.183150183967,1.09890104357 -0.549450521784,0.183150183967 m-58.6080569419,-45.4212439372 l0.366300367933,4.21245426135 3.66300355887,15.9340660352 l11.9047621686,40.6593413826 3.84615371272,15.2014654198 l1.28205131788,2.74725278961 m55.4945040855,-55.860804875 l-25.2747255681,2.19780208713 -117.948715463,5.31135518445 m92.1245406379,-19.780219507 l-5.67765549215,6.04395579985 -2.93040294346,4.02930386657 l-15.5677652456,24.7252743837 -13.9194136201,23.0769227582 l-8.79120834854,18.498168671 m100.366300693,-25.0915751733 l-37.1794877367,-8.24175812791 -20.6959695535,-5.49450557923 l-17.9487174866,-5.67765549215 -28.3882784245,-10.9890111585 m-11.5384613791,-26.3736260093 l4.57875456905,3.84615371272 30.9523800965,21.7948719221 l40.6593413826,32.9670325117 15.5677652456,13.5531137942 m-9.70695935872,-47.9853456093 l-4.57875456905,0.366300367933 -31.1355304913,11.5384613791 l-36.9963373419,12.2710619945 -25.0915751733,6.41025610755 l-22.3443211791,2.56410263576 m9.52380896394,-36.9963373419 l6.41025610755,-1.83150177943 4.76190448197,-0.549450521784 l18.498168671,0.0 6.95970681003,0.549450521784 l13.3699633994,3.47985340502 28.3882784245,10.4395599741 l21.2454207378,10.6227103689 16.6666666506,7.50915751251 l20.5128210861,7.14285720481 23.0769227582,5.31135518445 l11.7216117739,1.83150177943 12.0879115997,1.09890104357 l21.9780223169,0.915750889717 -3.11355309731,-3.29670325117 l-13.7362632253,-8.24175812791 -12.637362784,-5.49450557923 l-16.8498170454,-5.67765549215 -19.780219507,-5.49450557923 l-21.6117215274,-4.21245426135 -21.9780223169,-3.29670325117 l-20.3296706913,-2.19780208713 -37.728938921,-2.01465193328 l-72.7106219204,0.0 -9.52380896394,0.366300367933 l1.09890104357,1.09890104357 10.4395599741,4.39560417427 l7.87545782021,2.38095224099 23.9926728046,4.21245426135 l34.2490852751,2.38095224099 19.4139187174,0.549450521784 l39.560439014,-0.366300367933 17.7655670919,-1.09890104357 l16.1172154663,-2.01465193328 11.7216117739,-2.38095224099 l11.7216117739,-3.66300355887 -0.549450521784,-1.28205131788 l-7.32600711773,-3.11355309731 -18.6813190657,-4.39560417427 l-13.7362632253,-1.83150177943 " fill="none" stroke="black" stroke-width="1" /></svg>