<?xml version="1.0" encoding="utf-8" ?>
<svg baseProfile="full" height="300" version="1.1" width="300" xmlns="http://www.w3.org/2000/svg" xmlns:ev="http://www.w3.org/2001/xml-events" xmlns:xlink="http://www.w3.org/1999/xlink"><defs /><rect fill="none" height="300" width="300" x="0" y="0" /><path d="M135.099338367,275.0 m-2.75938196196,-46.3576166705 l3.31125828175,-46.3576166705 -2.20750564216,1.65562914088 l-27.5938203455,4.41501128433 -39.1832237872,4.41501128433 l-18.7637977769,-11.0375278478 -7.1743928833,-31.4569538581 l12.1412804874,-22.0750556957 27.0419432998,-11.5894041676 l41.3907290664,-7.1743928833 32.0088309039,3.31125828175 l17.6600451373,7.72626992906 43.5982343455,33.6644591373 l-4.96688760412,16.0044154519 -32.0088309039,19.8675504165 l-9.93377520824,2.20750564216 -35.3200902746,-0.551876410541 l-29.8013256247,-9.93377520824 m32.0088309039,-2.75938196196 l5.51876392391,18.7637977769 1.10375282108,48.0132478078 l1.65562914088,6.07064024371 11.5894041676,15.4525398581 m27.0419432998,-145.143488803 l-11.0375278478,-16.5562924977 5.51876392391,-17.6600451373 l17.6600451373,-24.8344380206 3.31125828175,-14.3487857666 l12.1412804874,-14.3487857666 13.7969101728,-9.38189888845 l30.3532026705,11.0375278478 1.10375282108,2.75938196196 l-7.1743928833,22.0750556957 -20.9713030561,6.6225165635 l-18.2119207311,-3.31125828175 -8.27814624886,-7.1743928833 l8.27814624886,-6.6225165635 7.72626992906,-1.10375282108 m22.0750556957,14.3487857666 l2.20750564216,1.65562914088 19.3156733707,4.41501128433 l-13.245033127,-14.9006628124 0.0,-1.10375282108 " fill="none" stroke="black" stroke-width="1" /></svg>