<?xml version="1.0" encoding="utf-8" ?>
<svg baseProfile="full" height="300" version="1.1" width="300" xmlns="http://www.w3.org/2000/svg" xmlns:ev="http://www.w3.org/2001/xml-events" xmlns:xlink="http://www.w3.org/1999/xlink"><defs /><rect fill="none" height="300" width="300" x="0" y="0" /><path d="M118.351914381,235.987259152 m-2.38853499099,-2.38853499099 l-0.796178373968,-5.1751591035 -0.796178373968,-33.041402847 l-3.98089173892,-28.264331294 0.0,-9.55413996395 m14.3312104696,80.4140161636 l-2.78662437435,-0.796178373968 -4.77706998198,3.5828026174 l-13.1369425813,15.1273887126 -11.1464974974,19.1082799279 m20.700636414,-31.0509567157 l5.97133787022,1.19426749549 9.15605136609,6.36942699175 l19.5063695731,18.3121027322 m-19.1082799279,-17.5159234418 l-0.796178373968,7.56369435632 3.18471349587,6.36942699175 m-28.264331294,-113.057325176 l-25.477707967,-0.398089186984 -16.7197451987,1.59235674794 l-1.99044586946,-1.19426749549 -0.398089186984,-1.99044586946 l9.15605136609,-14.7293001148 56.9267522332,-37.8184702106 l5.97133787022,0.398089186984 35.0318468836,49.7611469984 l-3.98089173892,1.19426749549 -33.8375800427,0.796178373968 l-25.477707967,5.97133787022 -7.96178347785,0.796178373968 m29.0605105844,-58.1210211688 l-2.78662437435,-6.76751611327 1.19426749549,-2.78662437435 l24.2834390314,-23.4872618357 11.5445860952,-7.1656052348 l22.6910825453,-3.5828026174 19.9044592183,0.398089186984 l7.1656052348,3.18471349587 1.19426749549,2.38853499099 l1.59235674794,9.95222960915 -0.796178373968,4.37898086045 l-8.7579617209,1.19426749549 -17.1178348439,-3.18471349587 l-24.6815286766,-1.19426749549 -7.1656052348,0.796178373968 l-5.5732487487,2.78662437435 -13.9331208244,11.5445860952 l-21.0987260592,31.4490442662 9.15605136609,-2.78662437435 l35.0318468836,-29.8566877801 21.8949053496,-16.3216566009 l-38.2165598558,18.7101923774 -34.2356696879,21.8949053496 l-2.78662437435,-0.398089186984 20.3025488635,-16.3216566009 l70.8598730576,-45.3821650906 -99.1242043516,83.9968145916 l-40.605097727,37.0222951096 -16.3216566009,19.5063695731 l49.7611469984,-46.5764340262 33.4394903975,-37.4203847548 l79.219747228,-75.6369404212 7.96178347785,-4.77706998198 l-44.5859899896,52.5477703254 -41.0031873722,39.0127391462 l-51.3535055792,71.2579627028 3.98089173892,-1.99044586946 l111.06687695,-90.366240536 44.1879003444,-23.0891721905 l33.041402847,44.5859899896 -29.4586002296,52.1496806802 " fill="none" stroke="black" stroke-width="1" /></svg>