<?xml version="1.0" encoding="utf-8" ?>
<svg baseProfile="full" height="300" version="1.1" width="300" xmlns="http://www.w3.org/2000/svg" xmlns:ev="http://www.w3.org/2001/xml-events" xmlns:xlink="http://www.w3.org/1999/xlink"><defs /><rect fill="none" height="300" width="300" x="0" y="0" /><path d="M192.857145897,185.551948461 m3.57142856228,-16.2337668134 l-2.92207799224,-24.0259753622 -15.5844153892,-23.376623938 l-16.8831165292,-17.5324679535 -3.24675327726,-14.2857142491 l-0.649350676807,-8.44155826462 -1.62337663863,-53.2467552846 l25.649350506,0.974025961823 9.09090968884,1.62337663863 l8.44155826462,7.46753283667 0.0,12.987013109 l-2.59740270723,0.0 9.41558454676,2.92207799224 l28.2467544945,0.324675338403 -22.7272725137,8.1168834067 l-12.6623382511,1.62337663863 8.76623397673,12.987013109 l20.1298702336,15.5844153892 14.9350656733,33.7662330585 l11.0389613989,28.5714284982 2.27272742221,17.5324679535 l-0.974025961823,10.3896108289 m-60.0649384054,7.46753283667 l-22.0779227979,-17.5324679535 -50.0000015803,-33.116885051 l-16.8831165292,-51.2987010119 -0.324675338403,-61.6883101325 l-4.54545484442,7.14285712455 -44.1558455958,39.610389043 l0.649350676807,2.27272742221 -18.1818193777,37.0129867628 l1.62337663863,18.8311690935 9.74026025888,24.0259753622 l-12.6623382511,22.7272725137 3.24675327726,30.5194827709 l-4.22077913231,14.2857142491 35.7142873312,7.14285712455 l12.337662539,-4.54545484442 m161.363637581,-47.077923588 l12.0129876811,27.2727273581 -11.3636362569,10.3896108289 l-9.74026025888,-6.49350655452 m-59.4155869812,-172.402598126 l0.649350676807,4.54545484442 m21.4285713737,12.0129876811 l-14.2857142491,0.649350676807 1.94805192365,11.688311969 l5.84415598449,5.51948069947 12.337662539,-0.974025961823 m-5.84415598449,-4.22077913231 l-9.74026025888,-2.27272742221 -11.0389613989,-11.688311969 l-4.22077913231,-6.49350655452 m58.4415598449,152.922082733 l31.8181822026,73.3766221014 10.0649351168,0.0 l-15.5844153892,-10.3896108289 m-192.857140655,-39.9350647551 l-4.54545484442,38.3116896113 -4.54545484442,12.0129876811 l2.59740270723,-7.79220769459 m195.454546351,-30.8441550662 l-12.337662539,11.0389613989 -67.5324661169,14.2857142491 l-44.1558455958,0.0 -31.8181822026,-11.3636362569 l-42.8571427473,-24.0259753622 m111.688315129,4.22077913231 l21.7532470858,37.0129867628 6.49350655452,7.46753283667 l-7.79220769459,-12.337662539 m-52.5974038604,-13.9610393912 l-18.1818193777,26.2987019302 -10.0649351168,0.0 l0.0,-6.49350655452 m91.8831171912,-74.0259735257 l-8.1168834067,12.987013109 -29.8701313467,15.2597413854 l-34.7402601948,-11.0389613989 -0.649350676807,11.0389613989 l-27.5974030703,12.987013109 -9.41558454676,-21.4285713737 l-34.4155844827,1.29870135361 -0.649350676807,-4.22077913231 m-29.5454556346,-31.1688307783 l0.0,-3.89610384729 " fill="none" stroke="black" stroke-width="1.5" /></svg>