<?xml version="1.0" encoding="utf-8" ?>
<svg baseProfile="full" height="300" version="1.1" width="300" xmlns="http://www.w3.org/2000/svg" xmlns:ev="http://www.w3.org/2001/xml-events" xmlns:xlink="http://www.w3.org/1999/xlink"><defs /><rect fill="none" height="300" width="300" x="0" y="0" /><path d="M87.0300743211,256.4379732 m2.34962406712,-6.57894775884 l32.4248134244,-37.593985074 m-1.40977440936,3.28947387942 l6.10902238907,-15.0375945241 15.0375945241,-28.1954900418 l15.5075186576,-20.20676741 m-5.63909763746,-4.69924813424 l10.3383457717,17.3872189003 5.16917288585,12.6879701479 l19.7368420402,70.0187960257 3.75939863103,8.45864676527 m-31.0150373151,-103.383462662 l0.939849657757,-31.0150373151 -3.28947387942,-8.45864676527 m-4.69924813424,-9.39849626849 l-8.45864676527,1.87969931551 -21.616542283,10.8082711415 l-49.8120298521,27.725564672 m-7.04887251045,-1.40977440936 l-16.4473681608,-23.9661666592 -17.8571430338,-41.3533830868 m-6.10902238907,-0.469924828879 l19.7368420402,-8.45864676527 15.9774440273,-4.69924813424 l89.7556368296,-20.20676741 m32.8947363215,7.04887251045 l39.0037611833,17.3872189003 27.725564672,10.3383457717 l24.906014926,6.57894775884 m0.0,1.40977440936 l-3.75939863103,45.5827064695 m-7.51879726206,-5.16917288585 l-6.10902238907,-4.69924813424 -24.906014926,-6.57894775884 l-62.0300746302,-4.69924813424 m40.4135348199,-35.2443606977 l27.725564672,2.34962406712 12.2180447781,3.75939863103 m-39.4736840804,6.57894775884 l47.4624079486,0.939849657757 m-42.2932338264,12.6879701479 l43.7030099357,-0.939849657757 m-70.9586467653,-1.87969931551 l29.6052636785,1.40977440936 41.3533830868,-0.469924828879 l9.8684210201,-4.22932338264 m-101.503761183,-9.39849626849 l2.81954881873,-1.40977440936 61.5601492605,-7.04887251045 m-69.0789502315,7.98872201367 l27.725564672,-0.469924828879 22.5563905498,-4.22932338264 l20.6766915434,-6.10902238907 m-106.20300499,-4.22932338264 l0.0,0.0 m-4.69924813424,-12.2180447781 l-18.796992537,5.16917288585 -56.8609054534,34.7744378006 m72.3684228746,-39.9436094502 l-8.45864676527,2.81954881873 -15.9774440273,8.92857151688 l-43.2330845659,34.3045124309 m61.090228836,-23.4962412894 l-13.1578955177,3.28947387942 -33.3646616913,26.7857139325 m59.6804527267,-31.4849626849 l-16.9172935305,3.28947387942 -18.796992537,8.92857151688 l-20.20676741,13.1578955177 m54.0413532347,-24.4360895563 l-6.10902238907,7.04887251045 -50.2819552219,36.1842114373 m66.2593980129,-30.0751890482 l-16.4473681608,6.10902238907 -20.20676741,12.2180447781 l-39.0037611833,29.6052636785 -3.28947387942,6.10902238907 " fill="none" stroke="black" stroke-width="1.5" /></svg>