<?xml version="1.0" encoding="utf-8" ?>
<svg baseProfile="full" height="300" version="1.1" width="300" xmlns="http://www.w3.org/2000/svg" xmlns:ev="http://www.w3.org/2001/xml-events" xmlns:xlink="http://www.w3.org/1999/xlink"><defs /><rect fill="none" height="300" width="300" x="0" y="0" /><path d="M79.6391822663,275.0 m-3.09278332935,-5.15463899525 l0.0,-18.0412361444 10.8247418222,-43.2989672889 l44.8453608183,25.7731956543 9.27835032707,6.70103049041 l4.12371133182,5.67010282697 7.73195883192,4.12371133182 l11.3402056539,3.09278332935 m-75.7731961459,-45.8762871256 l15.4639176638,-34.5360814716 14.4329900004,-15.4639176638 l18.0412361444,-11.3402056539 m-28.350515491,20.618555981 l-39.1752566352,-37.6288658181 -24.2268048373,-25.7731956543 l-6.70103049041,-5.67010282697 -2.06185566591,0.0 m69.0721629432,63.9175232699 l56.701030982,22.6804113079 45.8762871256,23.7113403275 l13.4020609808,8.76288649535 m-83.5051529436,-124.22680582 l-21.1340204908,27.8350509812 -1.03092783295,22.1649481542 l3.09278332935,3.6082475001 12.3711333174,7.73195883192 l9.27835032707,3.6082475001 30.9278353277,-1.54639166467 l20.618555981,-6.18556665869 27.3195864714,-25.2577311446 l-19.0721651639,-40.2061856547 -38.1443303279,-14.948453154 l-6.70103049041,-2.06185566591 -10.3092779905,-0.515463916477 l-19.0721651639,11.8556701637 -3.09278332935,9.27835032707 l1.54639166467,11.3402056539 m43.8144317987,-7.73195883192 l-9.79381415879,6.18556665869 -3.6082475001,6.18556665869 l0.515463916477,3.09278332935 8.76288649535,2.57731949763 l6.18556665869,-3.09278332935 1.03092783295,-5.15463899525 l-2.06185566591,-5.67010282697 m17.0103084809,13.4020609808 l-9.79381415879,12.8865978272 3.6082475001,4.63917516354 l3.09278332935,0.515463916477 6.18556665869,-0.515463916477 l5.15463899525,-2.57731949763 2.06185566591,-3.09278332935 l-2.06185566591,-10.8247418222 m-63.4020587601,10.3092779905 l14.4329900004,5.67010282697 8.76288649535,20.1030928274 l-15.4639176638,-12.8865978272 -7.73195883192,-14.948453154 m58.7628835966,-36.0824722887 l2.57731949763,-13.9175254906 13.4020609808,-4.63917516354 l6.70103049041,0.515463916477 0.0,6.70103049041 l-11.3402056539,26.8041219616 2.57731949763,0.515463916477 l58.7628835966,-19.0721651639 -2.06185566591,6.18556665869 l-7.73195883192,12.3711333174 -14.948453154,16.4948453273 l8.76288649535,-7.2164950002 17.0103084809,-19.5876283176 l-38.1443303279,28.350515491 -11.8556701637,4.63917516354 l-11.3402056539,-28.350515491 -27.3195864714,-43.2989672889 l-19.0721651639,2.57731949763 -4.63917516354,5.15463899525 l8.24742266364,-1.03092783295 32.9896906545,-14.948453154 l10.8247418222,-7.73195883192 7.73195883192,-8.24742266364 l-3.09278332935,21.6494836445 -6.70103049041,19.5876283176 " fill="none" stroke="black" stroke-width="1.5" /></svg>