<?xml version="1.0" encoding="utf-8" ?>
<svg baseProfile="full" height="300" version="1.1" width="300" xmlns="http://www.w3.org/2000/svg" xmlns:ev="http://www.w3.org/2001/xml-events" xmlns:xlink="http://www.w3.org/1999/xlink"><defs /><rect fill="none" height="300" width="300" x="0" y="0" /><path d="M90.2849749186,138.212435584 m-3.6269431528,1.55440408663 l-8.54922256167,5.95854936794 -6.47668400669,2.33160621514 m22.0207252138,-11.9170987359 l-11.6580310757,-4.14507779154 -6.99481864543,-1.55440408663 m1.55440408663,-0.518134723943 l2.33160621514,-8.03108792292 3.88601047217,-5.95854936794 l14.5077726112,-12.9533680134 11.6580310757,-5.69948170778 l5.95854936794,-18.9119173813 1.29533676726,0.518134723943 l0.259067361972,11.3989634156 1.29533676726,5.18134706903 l4.92227974966,3.6269431528 6.21761634652,2.84974085389 l5.69948170778,4.66321243029 3.10880817326,4.40414511092 l4.66321243029,9.84455949932 1.03626944789,2.59067353452 l0.259067361972,5.44041438841 m-68.6528481535,20.9844559363 l3.36787549263,4.14507779154 4.92227974966,1.8134715764 l8.03108792292,-0.518134723943 22.5388605341,-4.40414511092 l15.2849742285,14.7668389082 11.139896437,13.9896372909 l5.44041438841,8.80829022183 m-2.59067353452,-59.5854909531 l-4.66321243029,8.54922256167 -2.59067353452,6.73575098527 l-2.07253889577,8.54922256167 0.259067361972,4.66321243029 l2.07253889577,3.10880817326 7.51295328418,5.44041438841 l8.80829022183,12.1761663961 2.84974085389,1.55440408663 l1.8134715764,0.0 20.7253882761,-4.66321243029 l5.95854936794,-0.518134723943 19.6891189986,7.77202094434 l19.9481866588,12.9533680134 m-81.8652824639,-5.95854936794 l5.44041438841,13.9896372909 2.59067353452,3.6269431528 l12.9533680134,8.29015558309 3.88601047217,1.03626944789 l17.6165804437,1.03626944789 23.0569944913,-7.2538863056 l8.80829022183,-3.88601047217 m-190.932647434,-5.44041438841 l4.92227974966,0.0 34.9740932272,-5.95854936794 l4.14507779154,3.6269431528 14.5077726112,9.58549252074 l8.03108792292,0.518134723943 25.6476683666,-8.29015558309 l27.4611392614,-6.73575098527 m70.7253894348,0.259067361972 l3.10880817326,-0.518134723943 13.7305696307,-9.58549252074 l7.51295328418,-3.88601047217 5.44041438841,-1.29533676726 l20.9844559363,23.5751298116 8.80829022183,0.777202043315 m-119.948184887,6.47668400669 l0.777202043315,1.55440408663 0.0,10.8808287768 m38.860102677,-10.6217617982 l0.259067361972,6.21761634652 m-91.7098426448,-102.331605806 l0.0,3.36787549263 -1.03626944789,2.07253889577 l0.0,-7.51295328418 m8.54922256167,-4.14507779154 l0.0,5.69948170778 -1.8134715764,3.88601047217 l-2.84974085389,-3.88601047217 0.0,-2.84974085389 l-6.73575098527,13.9896372909 0.259067361972,-13.9896372909 l2.07253889577,0.259067361972 0.0,7.2538863056 l-0.777202043315,3.36787549263 0.0,-12.1761663961 l4.66321243029,10.1036271595 1.55440408663,-13.2124356735 " fill="none" stroke="black" stroke-width="1.5" /></svg>