<?xml version="1.0" encoding="utf-8" ?>
<svg baseProfile="full" height="300" version="1.1" width="300" xmlns="http://www.w3.org/2000/svg" xmlns:ev="http://www.w3.org/2001/xml-events" xmlns:xlink="http://www.w3.org/1999/xlink"><defs /><rect fill="none" height="300" width="300" x="0" y="0" /><path d="M155.736140678,118.570747658 m-0.956022945302,5.97514336884 l4.54110887228,-3.58508608418 4.78011456931,-2.39005728465 l2.39005728465,-0.239005736326 6.21414875146,0.717017169676 l6.21414875146,3.58508608418 17.208412701,15.7743778901 l6.93116615694,5.25812596336 11.4722747148,12.4282975029 l-5.01912026633,2.86806867871 -1.9120458906,2.15105158763 l1.67304019358,3.58508608418 1.67304019358,1.67304019358 l4.30210317526,2.86806867871 15.0573611134,5.01912026633 l5.01912026633,-0.478011472651 1.9120458906,19.1204582772 l-0.478011472651,5.01912026633 3.82409178121,0.239005736326 l0.478011472651,-1.67304019358 -0.717017169676,-22.2275339106 l1.19502864233,-0.717017169676 2.39005728465,-0.239005736326 l0.717017169676,2.39005728465 -0.717017169676,6.69216077432 l0.717017169676,15.2963671248 4.30210317526,-1.43403433935 l5.73613735741,-0.478011472651 -2.62906298168,-11.7112807262 l1.43403433935,-6.45315476289 1.19502864233,-0.956022945302 l3.82409178121,-0.239005736326 0.717017169676,1.19502864233 l1.9120458906,15.7743778901 13.1453155372,0.478011472651 l0.717017169676,-1.19502864233 -0.239005736326,-12.6673035143 l-3.82409178121,-15.7743778901 -21.7495218877,-21.2715098649 l-5.49713197479,-1.9120458906 -14.5793490906,-0.717017169676 l-10.5162519267,-2.62906298168 -13.3843215486,-13.3843215486 l-15.7743778901,-10.5162519267 -11.233269961,-5.73613735741 l-1.9120458906,-2.15105158763 -14.3403443367,-4.06309747823 l-1.19502864233,0.239005736326 -1.19502864233,1.19502864233 l-5.25812596336,13.3843215486 m63.5755235832,54.0152931869 l2.62906298168,15.7743778901 -1.9120458906,7.40917755099 l0.717017169676,-1.43403433935 2.39005728465,0.478011472651 l0.717017169676,-1.19502864233 0.0,-15.7743778901 m-50.9082200688,-19.5984703001 l-6.93116615694,-2.62906298168 -18.4034415006,-4.30210317526 l-11.233269961,1.67304019358 -8.12619495647,3.58508608418 l-19.3594642887,12.1892927491 -17.6864247239,8.60420635052 l-11.233269961,3.34608038716 -22.2275339106,1.67304019358 l-20.7934990996,-3.34608038716 -9.321223756,-3.34608038716 l-1.19502864233,-1.9120458906 0.239005736326,-24.6175915096 m146.032501947,9.79923515005 l8.36520033909,3.82409178121 4.30210317526,-0.956022945302 " fill="none" stroke="black" stroke-width="1.5" /></svg>