<?xml version="1.0" encoding="utf-8" ?>
<svg baseProfile="full" height="300" version="1.1" width="300" xmlns="http://www.w3.org/2000/svg" xmlns:ev="http://www.w3.org/2001/xml-events" xmlns:xlink="http://www.w3.org/1999/xlink"><defs /><rect fill="none" height="300" width="300" x="0" y="0" /><path d="M121.659923957,58.6538414874 m-9.10931202321,-6.07287446024 l-11.63967677,-2.53036441391 -15.1821871492,0.506072899425 l-7.59109357458,5.06072882782 -7.08502075837,10.6275304718 l-3.03643723012,10.1214576556 0.0,30.8704451174 l-2.53036441391,4.0485831954 -5.56680164403,3.54251037919 l-25.8097182867,4.0485831954 -8.603239207,4.55465601161 l-0.506072899425,6.57894727645 1.51821861506,5.56680164403 l8.09716639079,8.09716639079 6.57894727645,2.53036441391 l10.1214576556,0.0 7.08502075837,-2.0242915977 l13.6639680348,-7.59109357458 6.57894727645,-5.56680164403 l13.6639680348,-24.2914978409 11.1336032881,-9.61538483942 l2.53036441391,1.51821861506 2.53036441391,7.08502075837 l-2.0242915977,30.3643742983 6.07287446024,11.63967677 l22.2672065761,6.07287446024 10.1214576556,11.63967677 l13.1578945529,7.59109357458 27.3279360696,6.07287446024 l15.6882592997,-1.51821861506 12.1457489205,-11.63967677 l1.01214579885,-12.1457489205 6.07287446024,-1.01214579885 l36.4372480929,-42.0040510683 -3.54251037919,-1.51821861506 l-17.7125505645,7.08502075837 -20.7489887932,5.06072882782 l-21.2550609437,9.61538483942 11.1336032881,-14.1700415167 l9.10931202321,-7.08502075837 15.1821871492,-16.7004049321 l-3.54251037919,-8.09716639079 -24.7975713229,12.1457489205 l-26.3157891058,9.61538483942 -17.206478414,1.01214579885 l-29.8583008164,-12.1457489205 -2.0242915977,-5.06072882782 l-1.01214579885,-17.206478414 -4.55465601161,-24.7975713229 m21.7611344256,110.323891242 l-0.506072899425,19.2307696788 -5.56680164403,17.7125505645 l-2.0242915977,19.7368431608 -5.06072882782,17.7125505645 l-2.53036441391,0.506072899425 -1.51821861506,2.53036441391 l20.7489887932,-3.54251037919 11.63967677,-70.850202258 m29.3522273345,17.206478414 l-0.506072899425,15.1821871492 -21.2550609437,55.6680191031 l5.56680164403,1.51821861506 22.2672065761,-1.01214579885 l8.09716639079,-1.01214579885 3.03643723012,-2.53036441391 l-8.603239207,-52.1255100554 3.03643723012,-21.2550609437 l13.1578945529,-31.3765185993 m-117.408909338,-72.3684227038 l-0.506072899425,5.56680164403 4.0485831954,2.0242915977 l0.506072899425,-2.53036441391 2.53036441391,-1.51821861506 m27.8340095516,-18.2186240464 l-1.01214579885,7.59109357458 4.0485831954,12.1457489205 l13.1578945529,27.8340095516 -16.7004049321,-40.4858306225 l15.1821871492,32.8947390451 2.53036441391,7.59109357458 l-1.51821861506,-1.01214579885 m7.59109357458,-29.3522273345 l0.0,0.0 m-37.4493950567,69.8380606199 l-6.57894727645,12.1457489205 -16.7004049321,49.5951426458 l22.2672065761,-8.603239207 m-3.54251037919,5.56680164403 l16.7004049321,-27.3279360696 53.6437251754,-55.6680191031 l95.647770918,-33.9068833461 " fill="none" stroke="black" stroke-width="1.5" /></svg>