<?xml version="1.0" encoding="utf-8" ?>
<svg baseProfile="full" height="300" version="1.1" width="300" xmlns="http://www.w3.org/2000/svg" xmlns:ev="http://www.w3.org/2001/xml-events" xmlns:xlink="http://www.w3.org/1999/xlink"><defs /><rect fill="none" height="300" width="300" x="0" y="0" /><path d="M118.02325337,93.974636499 m-10.042283177,14.2706130455 l-1.58562361379,9.51374203036 0.0,4.75687101518 l3.17124722757,6.8710356018 10.5708243237,9.51374203036 l27.4841424072,8.9852008837 58.6680777079,13.2135307522 l14.7991548875,0.0 11.0993654703,-4.75687101518 l-1.05708246713,5.28541216183 -9.51374203036,10.5708243237 l-19.5560259026,5.28541216183 -1.58562361379,2.64270608092 l-3.17124722757,15.8562371808 -6.34249445515,6.34249445515 l-6.8710356018,3.17124722757 -25.8985196625,1.58562361379 l-32.7695552643,-4.75687101518 -10.042283177,-2.11416493426 l-20.613108196,-11.0993654703 -7.92811859039,-7.92811859039 l-6.34249445515,-10.5708243237 -1.58562361379,-8.45665973704 l0.0,-21.1416486473 2.11416493426,-6.8710356018 l21.6701904893,-35.9408035348 0.528541233565,-6.8710356018 l-4.75687101518,-9.51374203036 -16.3847776322,-11.0993654703 l0.0,-2.64270608092 7.39957744373,-6.8710356018 l8.9852008837,-2.11416493426 7.92811859039,11.0993654703 l12.6849889103,-0.528541233565 6.8710356018,8.9852008837 l12.1564484589,0.0 0.0,2.11416493426 l-3.17124722757,7.39957744373 -31.1839325196,22.7272727826 l-10.042283177,14.2706130455 -1.58562361379,6.34249445515 m-4.22832986852,50.7399556412 l-24.3128969178,35.4122616929 -2.64270608092,10.042283177 m4.22832986852,-15.3276953388 l-17.4418599255,2.64270608092 -22.7272727826,8.45665973704 m43.3403809785,-14.7991548875 l13.7420712036,25.3699778206 m70.2959815438,-37.5264262795 l-2.64270608092,14.2706130455 -1.05708246713,19.5560259026 m-4.75687101518,-9.51374203036 l-8.9852008837,4.75687101518 -16.3847776322,14.7991548875 m28.5412260911,-28.5412260911 l38.0549681214,9.51374203036 m-11.0993654703,-99.365755039 l-0.528541233565,1.58562361379 m-69.23889786,45.4545455652 l8.9852008837,-16.9133194741 11.0993654703,-11.627906617 l26.4270615044,-14.7991548875 m-26.9556033464,43.8689228205 l5.81395330849,-5.81395330849 25.8985196625,-15.8562371808 l60.7822395135,-6.8710356018 58.6680777079,31.1839325196 m-163.319240042,-31.7124743616 l10.042283177,-7.39957744373 17.9704017674,-5.81395330849 l42.2832972947,8.9852008837 32.2410134224,95.1374203036 m-88.2663819207,-59.1966195499 l-0.528541233565,-13.7420712036 3.69978872187,-11.0993654703 l22.7272727826,-26.9556033464 27.4841424072,4.75687101518 l11.627906617,15.3276953388 10.5708243237,100.422827598 " fill="none" stroke="black" stroke-width="1.5" /></svg>