<?xml version="1.0" encoding="utf-8" ?>
<svg baseProfile="full" height="300" version="1.1" width="300" xmlns="http://www.w3.org/2000/svg" xmlns:ev="http://www.w3.org/2001/xml-events" xmlns:xlink="http://www.w3.org/1999/xlink"><defs /><rect fill="none" height="300" width="300" x="0" y="0" /><path d="M126.31579021,188.815789724 m-22.3684208556,78.2894738601 l0.0,7.89473641622 25.6578948672,-84.2105263887 l19.7368423387,-55.9210512736 7.23684178699,11.842105057 l13.8157889447,32.8947366542 17.1052620909,68.4210483636 l8.55263104545,16.4473683271 -35.5263151711,-82.2368399047 l-5.26315789929,-42.1052631943 -3.94736820811,-13.1578943155 l29.6052626426,8.55263104545 22.3684208556,-1.31578947482 l29.6052626426,-11.1842104278 17.7631575856,-20.3947361025 l0.0,-19.078946844 -2.63157894965,-6.57894715776 l-7.89473641622,-9.86842116935 -10.5263157986,-5.92105252852 l-13.8157889447,-1.97368410406 -18.4210530802,3.28947357888 l-10.5263157986,5.26315789929 -21.710525361,19.078946844 l-6.57894715776,0.0 -13.8157889447,-11.842105057 l-35.5263151711,-38.8157891827 -17.7631575856,-9.86842116935 l-9.21052654012,-1.31578947482 -4.60526327006,2.63157894965 l-6.57894715776,21.710525361 5.92105252852,19.7368423387 l7.23684178699,8.55263104545 17.1052620909,11.1842104278 l-4.60526327006,1.31578947482 -17.7631575856,0.0 l-28.2894733842,-20.3947361025 -3.94736820811,1.97368410406 l-2.63157894965,19.078946844 1.97368410406,3.28947357888 l15.7894728324,11.842105057 35.5263151711,11.842105057 l25.6578948672,0.657894737411 21.0526315972,-1.97368410406 l36.8421061605,11.1842104278 m-32.2368411595,-8.55263104545 l15.1315790686,12.4999996863 m-17.1052620909,-15.7894728324 l4.60526327006,22.3684208556 m-1.31578947482,-21.0526315972 l-1.31578947482,3.94736820811 m9.86842116935,-42.1052631943 l7.23684178699,-0.657894737411 m58.5526297906,-21.710525361 l-5.26315789929,11.842105057 -25.6578948672,21.0526315972 l-24.3421056088,2.63157894965 m77.6315783655,-27.6315778895 l-3.28947357888,7.89473641622 -32.8947366542,31.5789456649 l-39.4736846774,-1.31578947482 m84.8684218833,1.31578947482 l-41.4473676997,15.7894728324 -13.1578943155,1.31578947482 l-41.4473676997,-20.3947361025 m3.94736820811,-23.0263146194 l-3.94736820811,41.4473676997 m-74.9999963868,-84.2105263887 l0.0,18.4210530802 3.94736820811,9.86842116935 l20.3947361025,-20.3947361025 -16.4473683271,-2.63157894965 l-9.21052654012,15.7894728324 " fill="none" stroke="black" stroke-width="1.5" /></svg>