<?xml version="1.0" encoding="utf-8" ?>
<svg baseProfile="full" height="300" version="1.1" width="300" xmlns="http://www.w3.org/2000/svg" xmlns:ev="http://www.w3.org/2001/xml-events" xmlns:xlink="http://www.w3.org/1999/xlink"><defs /><rect fill="none" height="300" width="300" x="0" y="0" /><path d="M47.3156535011,126.875810063 m-22.3156535011,-4.85122904048 l3.23415255184,-2.26390691392 5.49805946575,-1.29366106328 l25.5498047766,-3.88098297712 -0.646830531639,-6.79172031631 l5.17464425312,-17.7878396733 2.26390691392,-3.88098297712 l9.37904244287,-6.79172031631 9.05562765567,-2.26390691392 l21.0219926505,-2.9107373392 30.0776203062,-0.32341526582 l7.43855116703,0.970245744279 11.6429493568,3.55756776448 l12.9366102073,7.76196595423 0.646830531639,11.9663649949 l-1.61707627592,6.79172031631 -5.82147467839,14.8771023341 l-7.76196595423,6.46830510367 -13.5834406326,6.14488989103 l-15.5239319085,5.17464425312 22.3156535011,19.7283300982 l10.6727032934,8.08538159231 13.9068562707,8.40879637951 l12.2897797821,5.82147467839 41.3971540249,14.553686696 l17.1410083971,4.52781382784 21.0219926505,0.970245744279 l12.2897797821,1.61707627592 -5.17464425312,3.88098297712 l-12.9366102073,4.85122904048 -13.5834406326,2.26390691392 l-54.0103468924,-0.32341526582 -23.9327299897,-3.55756776448 l-1.29366106328,14.2302710579 0.0,25.5498047766 l-1.61707627592,1.29366106328 -1.94049148856,-0.32341526582 l-4.85122904048,-10.6727032934 -4.20439818976,-16.4941788227 l0.0,-3.55756776448 -2.9107373392,-6.46830510367 l-4.20439818976,9.05562765567 -3.88098297712,26.8434673289 l-3.88098297712,-7.11513552895 -2.9107373392,-15.8473475465 l0.0,-7.11513552895 -1.29366106328,-1.61707627592 l-21.6688222249,-9.37904244287 -17.1410083971,-6.14488989103 l-7.11513552895,-4.20439818976 -23.2858987136,-43.661060088 l-2.9107373392,-14.8771023341 -9.37904244287,-8.40879637951 l-5.17464425312,-1.94049148856 m55.3040094447,-47.2186287033 l-8.08538159231,10.9961189315 -1.29366106328,4.20439818976 l0.0,5.17464425312 2.58732212656,2.58732212656 l1.61707627592,0.646830531639 2.9107373392,-2.9107373392 l1.61707627592,-2.9107373392 0.646830531639,-7.43855116703 l-1.61707627592,-3.23415255184 -3.23415255184,-0.32341526582 m-19.4049161619,-7.43855116703 l0.970245744279,-2.58732212656 6.46830510367,-7.76196595423 l9.37904244287,-8.40879637951 23.6093143517,-10.3492885062 m-15.5239319085,20.3751613744 l28.7839577539,-7.43855116703 18.4346692477,-2.9107373392 m-8.08538159231,11.9663649949 l1.61707627592,0.970245744279 12.2897797821,-0.32341526582 l16.817592759,-2.9107373392 9.70245808095,-3.23415255184 m-9.70245808095,24.5795595641 l3.88098297712,-0.970245744279 1.94049148856,-2.26390691392 l5.17464425312,-10.0258728682 m-147.477353981,45.2781348748 l4.85122904048,5.82147467839 12.9366102073,3.23415255184 m11.3195337187,-15.8473475465 l1.61707627592,-0.32341526582 13.5834406326,7.76196595423 l10.0258728682,-7.43855116703 12.6131954201,-2.58732212656 " fill="none" stroke="black" stroke-width="1.5" /></svg>