<?xml version="1.0" encoding="utf-8" ?>
<svg baseProfile="full" height="300" version="1.1" width="300" xmlns="http://www.w3.org/2000/svg" xmlns:ev="http://www.w3.org/2001/xml-events" xmlns:xlink="http://www.w3.org/1999/xlink"><defs /><rect fill="none" height="300" width="300" x="0" y="0" /><path d="M113.103756466,90.5187821111 m-2.23613595391,-4.91949903977 l-25.4919494627,-23.7030409349 -1.78890882196,2.23613595391 l0.0,34.8837221753 -2.23613595391,-1.34168154293 l-18.7835418952,0.44722720549 -5.36672617172,3.57781764392 l-11.1806800637,13.8640428554 -17.8890876313,30.8586773994 l-3.13059051197,21.9141324071 2.68336308586,4.91949903977 l2.23613595391,0.0 4.02504477587,-4.02504477587 l19.2307696154,-0.894454410979 12.5223620479,1.78890882196 l22.3613601274,8.94454381564 13.8640428554,3.13059051197 l29.5169942386,0.44722720549 28.1753134311,-2.23613595391 l36.6726307031,0.0 12.0751343276,2.23613595391 l13.8640428554,5.81395330367 1.34168154293,3.13059051197 l-5.81395330367,42.4865816535 m-103.756708732,-55.9033991419 l4.47227190782,33.9892667347 0.0,15.2057248396 l-1.34168154293,5.81395330367 m-27.7280857108,-55.4561714216 l0.894454410979,22.3613601274 -1.34168154293,30.8586773994 m157.423969273,-41.5921309194 l-7.15563528783,48.7477650307 m1.78890882196,-48.7477650307 l1.78890882196,-2.68336308586 0.894454410979,-21.0196793199 l-6.70840815588,-25.0447240957 1.34168154293,-3.13059051197 l5.36672617172,-1.34168154293 8.05008955173,2.23613595391 l2.23613595391,3.13059051197 5.36672617172,11.1806800637 l8.49731668368,33.5420390145 4.47227190782,-16.5474068237 l2.68336308586,-25.939177183 -0.894454410979,-17.4418610876 l-8.94454381564,-26.3864049033 -2.68336308586,-3.13059051197 l-10.7334523434,-0.894454410979 -33.9892667347,12.0751343276 l-14.3112705757,9.39177094759 -3.13059051197,0.44722720549 l-15.2057248396,-11.6279066073 -16.5474068237,-4.91949903977 l-55.4561714216,0.0 -5.36672617172,-15.2057248396 m-38.9087669511,25.0447240957 l4.91949903977,18.7835418952 -0.44722720549,2.23613595391 l-1.34168154293,-2.68336308586 -5.81395330367,-18.3363153515 l3.13059051197,20.1252238793 -1.78890882196,-4.47227190782 l-1.34168154293,-13.4168163118 0.44722720549,4.91949903977 l3.57781764392,9.39177094759 m-3.13059051197,-29.0697688716 l8.05008955173,6.26118102393 4.02504477587,5.81395330367 m-14.7584971193,7.60286241978 l1.78890882196,14.7584971193 -0.894454410979,-12.9695885915 m-1.34168154293,29.5169942386 l-34.8837221753,15.6529513832 -1.78890882196,4.91949903977 " fill="none" stroke="black" stroke-width="1.5" /></svg>