<?xml version="1.0" encoding="utf-8" ?>
<svg baseProfile="full" height="300" version="1.1" width="300" xmlns="http://www.w3.org/2000/svg" xmlns:ev="http://www.w3.org/2001/xml-events" xmlns:xlink="http://www.w3.org/1999/xlink"><defs /><rect fill="none" height="300" width="300" x="0" y="0" /><path d="M148.191485334,152.978723091 m-2.1276595304,-9.14893617664 l-6.38297887109,-19.7872346683 -0.851063840149,-0.638297845126 l-1.7021276803,0.0 -6.59574451625,3.4042553606 l-4.46808498585,1.0638297652 0.425531920074,-3.4042553606 l5.31914896595,-4.46808498585 -5.95744702098,-1.48936175525 l-5.95744702098,0.0 8.93616997171,-4.68085091091 l1.7021276803,-0.212765960037 0.0,-6.59574451625 l0.638297845126,-3.8297872107 2.76595730556,-1.91489360535 l3.8297872107,-0.425531920074 7.6595744214,2.97872351049 l4.04255313575,4.89361711584 0.425531920074,2.97872351049 l-0.212765960037,10.425531727 1.0638297652,5.53191461111 l9.14893617664,23.8297880839 1.91489360535,0.0 l9.14893617664,-2.97872351049 15.1063826379,0.638297845126 l4.2553190608,0.851063840149 2.76595730556,1.27659569025 l4.2553190608,4.46808498585 6.80851072119,5.53191461111 l10.425531727,-3.4042553606 -5.10638276101,10.0000004366 m-64.2553177621,-12.7659577422 l1.48936175525,3.61702128565 2.34042545545,15.7446812527 l-0.425531920074,21.0638296588 2.1276595304,-10.425531727 l3.61702128565,7.87234062633 1.7021276803,1.27659569025 l1.7021276803,-1.7021276803 1.0638297652,-2.1276595304 l2.97872351049,-12.5531915372 2.1276595304,10.0000004366 l1.27659569025,3.4042553606 4.04255313575,7.02127636636 l0.851063840149,0.851063840149 0.851063840149,-0.212765960037 l1.0638297652,-1.91489360535 1.48936175525,-6.59574451625 l1.48936175525,-15.1063826379 7.44680821646,19.3617022584 l3.8297872107,3.4042553606 1.7021276803,0.212765960037 l1.91489360535,-2.97872351049 2.1276595304,-17.2340424481 l0.851063840149,-2.5531913805 2.1276595304,-1.27659569025 l4.89361711584,-1.27659569025 6.38297887109,-3.61702128565 m-181.276591654,2.97872351049 l2.97872351049,-0.638297845126 12.3404253323,-5.95744702098 l5.74468081605,-1.48936175525 4.68085091091,0.212765960037 l13.8297876473,6.59574451625 2.76595730556,0.851063840149 l4.04255313575,0.212765960037 5.53191461111,-1.27659569025 l14.0425527327,-5.74468081605 6.38297887109,-0.638297845126 l21.0638296588,6.80851072119 14.8936164329,2.97872351049 l11.914894042,4.04255313575 10.8510641368,-1.48936175525 l30.4255314807,-0.638297845126 9.78723423168,0.851063840149 l23.4042556741,3.8297872107 12.1276591274,0.851063840149 l43.1914903424,-2.76595730556 m-145.531914007,-72.3404245934 l0.0,2.1276595304 m-6.17021266615,23.4042556741 l-3.19148943554,1.27659569025 -5.74468081605,5.74468081605 l-11.4893616321,13.1914890325 -3.61702128565,5.74468081605 m-11.4893616321,29.3617026951 l0.212765960037,-0.851063840149 4.68085091091,-2.76595730556 " fill="none" stroke="black" stroke-width="1.5" /></svg>