<?xml version="1.0" encoding="utf-8" ?>
<svg baseProfile="full" height="300" version="1.1" width="300" xmlns="http://www.w3.org/2000/svg" xmlns:ev="http://www.w3.org/2001/xml-events" xmlns:xlink="http://www.w3.org/1999/xlink"><defs /><rect fill="none" height="300" width="300" x="0" y="0" /><path d="M25.0,167.571173912 m0.0,0.0 m0.0,0.444839869951 l0.0,0.0 m172.375442035,-14.2348758384 l2.44661917501,-17.1263348102 -2.22419927661,-12.0106762692 l-1.7793594798,-5.78291794363 0.0,-5.33807814682 m7.33985752503,39.8131673731 l3.55871895961,-10.8985764846 0.444839869951,-5.56049833781 l-2.66903907341,-9.11921729742 -2.89145897181,-15.124555432 l-0.222419934975,-5.78291794363 -1.1120996383,-2.44661917501 l-2.44661917501,-3.3362990612 -2.44661917501,-1.33451953671 l-4.67081845162,0.444839869951 -2.22419927661,3.3362990612 l-0.444839869951,6.67259812241 -5.78291794363,3.55871895961 l1.1120996383,0.889679739901 5.56049833781,0.0 l5.33807814682,-1.5569395814 m-2.66903907341,-5.78291794363 l2.00177937821,-1.7793594798 m11.3434168666,46.708183931 l4.44839855322,-2.22419927661 7.56227771602,-6.89501772822 l10.008896891,-3.55871895961 20.907474546,-1.1120996383 l11.3434168666,2.44661917501 4.44839855322,0.0 l5.78291794363,-0.889679739901 5.56049833781,-2.89145897181 l-1.7793594798,8.89679710643 -3.55871895961,7.78469732183 l-4.89323835002,3.78113885801 -5.56049833781,2.00177937821 l-18.9056939975,0.667259768353 -4.00355875641,0.667259768353 l-10.8985764846,4.67081845162 -8.89679710643,0.889679739901 l-8.67437750061,-1.5569395814 -6.89501772822,-4.22597865481 l-2.00177937821,-2.22419927661 -0.667259768353,-4.67081845162 m24.0213525385,7.11743791921 l2.00177937821,10.453737273 1.7793594798,26.6903924896 m0.222419934975,-1.7793594798 l-4.67081845162,1.7793594798 m-7.78469732183,-30.916371437 l3.55871895961,11.3434168666 1.5569395814,8.89679710643 l0.0,4.89323835002 -2.66903907341,3.1138791628 m29.1370099091,-33.3629888565 l1.1120996383,9.34163690323 -1.1120996383,16.4590754076 l-0.222419934975,1.1120996383 -3.78113885801,4.44839855322 l-0.667259768353,2.22419927661 m11.5658358873,-31.1387892873 l2.22419927661,4.22597865481 3.3362990612,14.0124556474 l0.667259768353,12.0106762692 -3.3362990612,5.56049833781 m-28.4697516768,-47.153024313 l1.33451953671,0.667259768353 3.55871895961,-0.889679739901 l5.33807814682,-4.67081845162 1.5569395814,-0.222419934975 l6.00533813462,3.1138791628 4.67081845162,0.222419934975 l7.11743791921,-2.66903907341 4.44839855322,-4.00355875641 m-42.7046251746,50.7117426874 l-4.22597865481,2.44661917501 -3.78113885801,0.0 " fill="none" stroke="black" stroke-width="1.5" /></svg>