<?xml version="1.0" encoding="utf-8" ?>
<svg baseProfile="full" height="300" version="1.1" width="300" xmlns="http://www.w3.org/2000/svg" xmlns:ev="http://www.w3.org/2001/xml-events" xmlns:xlink="http://www.w3.org/1999/xlink"><defs /><rect fill="none" height="300" width="300" x="0" y="0" /><path d="M120.984332629,137.512242153 m-5.14201771085,4.65230179974 l-9.79431951059,6.36630748863 1.22428993882,0.979431983269 l15.91577001,-0.244857995817 m-4.40744384419,-14.9363368993 l0.73457394719,-9.05974596603 1.95886396654,-3.42801202197 l3.91772793308,-4.16258588863 6.61116576628,-0.244857995817 l5.38687566641,2.6934378332 3.91772793308,4.8971597553 l1.46914789438,5.38687566641 1.22428993882,0.0 l1.46914789438,-2.44857987765 15.181195177,-11.2634678881 l11.5083261658,-11.9980414327 1.71400601098,-1.46914789438 l1.46914789438,0.0 24.975515976,11.5083261658 l26.4446630651,14.9363368993 23.2615080324,16.6503435545 l7.10088167739,6.12144985517 -14.6914799101,6.85602404394 l-16.8952018322,6.12144985517 -37.4632726756,10.5288936994 l-24.4857994207,8.32517177727 0.244857995817,-2.6934378332 l-2.20372192209,-4.16258588863 -7.5905975885,-10.2840354217 l-3.18315374431,-2.6934378332 -18.3643489213,-5.38687566641 l-6.85602404394,-4.8971597553 -6.12144985517,-6.36630748863 m19.5886390212,13.7120480879 l-5.63173394406,14.4466216324 -1.22428993882,0.979431983269 l-9.54946187714,0.244857995817 m10.0391777882,-2.20372192209 l-10.0391777882,9.30460359948 m7.10088167739,-7.83545586616 l1.22428993882,3.67286997752 0.489715991635,7.10088167739 m56.0724785862,-14.4466216324 l-0.73457394719,2.44857987765 0.0,7.10088167739 l-8.08031349961,4.8971597553 -3.91772793308,5.14201771085 m13.4671898102,-8.57002941072 l-4.40744384419,6.36630748863 -5.87659157752,6.12144985517 m9.54946187714,-11.9980414327 l3.18315374431,7.5905975885 0.979431983269,4.8971597553 m-56.8070534191,-30.6072486317 l-10.0391777882,-3.67286997752 -12.7326149773,-3.18315374431 l-23.2615080324,-0.979431983269 -14.4466216324,2.6934378332 l-31.096965187,12.487757988 -9.30460359948,-0.244857995817 l-9.05974596603,-3.42801202197 m186.092064259,-1.22428993882 l5.87659157752,-1.95886396654 14.4466216324,-0.489715991635 l3.42801202197,0.73457394719 7.10088167739,3.42801202197 l7.34573995505,6.12144985517 7.5905975885,2.6934378332 l7.34573995505,0.0 10.7737513328,-3.67286997752 m-96.4740480168,-69.2948101187 l-21.0577873987,16.1606269992 -2.44857987765,2.44857987765 l-3.67286997752,6.36630748863 m45.2987298302,-18.3643489213 l-41.3809999645,33.5455453867 m65.1322245522,-26.9343796204 l-13.2223315326,11.5083261658 -24.975515976,16.8952018322 l-10.2840354217,10.0391777882 m69.0499518411,-25.9549465098 l-21.3026456764,14.2017633548 -16.1606269992,8.81488768838 l-12.9774732549,9.05974596603 -8.57002941072,7.83545586616 " fill="none" stroke="black" stroke-width="1.5" /></svg>