<?xml version="1.0" encoding="utf-8" ?>
<svg baseProfile="full" height="300" version="1.1" width="300" xmlns="http://www.w3.org/2000/svg" xmlns:ev="http://www.w3.org/2001/xml-events" xmlns:xlink="http://www.w3.org/1999/xlink"><defs /><rect fill="none" height="300" width="300" x="0" y="0" /><path d="M174.413021961,124.519747668 m-10.9391676964,-2.66808960502 l-13.6072576524,-0.266808969276 -7.47065131522,0.800426863956 l-7.47065131522,1.60085372791 -8.27107774046,3.20170745583 l-9.07150486764,5.33617921003 -1.0672358771,1.33404480251 l0.533617938552,4.00213458301 6.40341491165,5.86979706084 l8.53788701684,3.73532565761 17.0757740337,2.93489853042 l12.8068298233,0.0 7.20384203884,-1.33404480251 l24.0128067961,-9.33831344207 3.20170745583,-3.73532565761 l-1.0672358771,-2.66808960502 -3.20170745583,-4.00213458301 l-8.00426916603,-3.73532565761 -14.6744933541,-2.66808960502 l-10.4055498456,0.533617938552 m-32.5506924091,19.7438639897 l-6.40341491165,11.2059762709 -7.47065131522,10.6723584201 l-8.00426916603,9.60512271845 -6.13660633722,5.60298813544 l-10.6723584201,6.40341491165 m87.5133415716,-38.9541094266 l9.60512271845,15.7417290557 7.73745988965,10.1387405693 l9.07150486764,9.60512271845 4.53575243382,3.73532565761 l2.66808960502,1.0672358771 m-23.4791882434,-64.0341533282 l4.26894350842,-3.46851638123 6.93703276246,-7.73745988965 l11.2059762709,-18.4098190117 25.6136596466,-58.1643548635 l5.33617921003,-4.00213458301 8.00426916603,-4.26894350842 l5.33617921003,0.533617938552 4.53575243382,1.60085372791 l5.33617921003,3.73532565761 1.60085372791,2.66808960502 l0.800426863956,6.67022418803 0.0,1.33404480251 l-1.33404480251,1.0672358771 -5.60298813544,-0.533617938552 l-8.27107774046,-5.86979706084 -8.53788701684,3.73532565761 l-2.40128067961,2.13447175421 -23.4791882434,47.4919950395 l-20.0106718621,30.9498395586 -4.53575243382,5.33617921003 m70.1707554537,-84.311630255 l10.4055498456,17.3425833101 4.26894350842,5.60298813544 l-5.06937028463,-11.2059762709 -7.73745988965,-13.3404483761 m-143.543222224,114.727854069 l-7.47065131522,9.60512271845 -13.0736390997,12.5400219508 l-12.2732126744,17.0757740337 -14.1408748013,14.6744933541 l-14.9413026304,20.2774811385 -24.5464253489,28.2817496026 l-6.93703276246,7.20384203884 -0.266808969276,-1.33404480251 l1.33404480251,-2.93489853042 m143.8100315,-114.994663345 l9.87193199483,12.5400219508 36.8196380233,56.5634992052 l24.5464253489,36.552828747 11.4727855473,15.4749197793 m-105.923159179,-119.530421044 l-0.266808969276,4.53575243382 -7.47065131522,27.2145153049 l-8.00426916603,22.1451446693 -6.13660633722,15.2081105029 l-10.9391676964,22.1451446693 -10.1387405693,26.6808967521 l-2.13447175421,4.53575243382 0.266808969276,-4.26894350842 m56.8303084816,-114.194235516 l5.33617921003,14.6744933541 15.2081105029,54.6958398861 l11.4727855473,33.884738791 2.66808960502,5.86979706084 m-18.6766268841,-115.261472621 l5.86979706084,4.53575243382 3.73532565761,4.80256135923 " fill="none" stroke="black" stroke-width="1.5" /></svg>