<?xml version="1.0" encoding="utf-8" ?>
<svg baseProfile="full" height="300" version="1.1" width="300" xmlns="http://www.w3.org/2000/svg" xmlns:ev="http://www.w3.org/2001/xml-events" xmlns:xlink="http://www.w3.org/1999/xlink"><defs /><rect fill="none" height="300" width="300" x="0" y="0" /><path d="M126.485147982,112.458749629 m-6.60066013944,-4.12541245148 l-7.01320133032,0.412541258715 -14.4389433088,4.95049483324 l-5.77557775768,3.7128712606 -9.07590728472,16.0891091577 l-1.23762370831,4.53795364236 -1.23762370831,9.48844901828 l0.412541258715,21.86468583 4.95049483324,20.2145210665 l3.30033006972,25.1650153571 2.06270622574,1.23762370831 l32.1782183154,-0.82508251743 2.88778887884,-4.12541245148 l4.12541245148,-1.23762370831 0.412541258715,11.1386137818 l4.12541245148,17.3267321877 9.90098966648,25.1650153571 l2.88778887884,11.1386137818 2.06270622574,0.412541258715 l11.1386137818,-7.4257425212 2.88778887884,-17.7392739212 l-15.264026776,-62.2937279631 9.07590728472,17.7392739212 l23.1023110307,52.8052811155 2.47524741662,1.65016503486 l2.88778887884,-1.23762370831 3.30033006972,-4.12541245148 l12.7887785453,-23.9273923271 1.23762370831,-5.36303602412 l-5.36303602412,-2.06270622574 -5.36303602412,-7.4257425212 l-12.3762378971,-29.2904283512 -14.0264026606,-56.9306941097 l-3.30033006972,-6.60066013944 m-30.9405931148,-11.1386137818 l1.23762370831,-15.264026776 5.77557775768,-23.1023110307 l9.90098966648,-12.3762378971 18.9768980366,-28.0528053213 l4.95049483324,-3.7128712606 4.53795364236,-1.65016503486 l9.07590728472,0.82508251743 9.07590728472,4.12541245148 l18.564356303,14.4389433088 4.12541245148,30.9405931148 l-22.6897692972,15.264026776 -7.4257425212,1.65016503486 l-9.07590728472,-0.82508251743 -10.7260720482,-7.83828371208 l-6.60066013944,-7.83828371208 -8.25082490296,-19.3894397701 m7.4257425212,-18.564356303 l-2.88778887884,-2.88778887884 0.0,-10.7260720482 l19.801979333,11.9636961636 14.8514850424,-11.9636961636 l3.7128712606,-1.23762370831 11.5511555154,-0.412541258715 l2.06270622574,7.4257425212 0.0,15.264026776 l-0.82508251743,-1.23762370831 m-38.3663378067,42.9042881929 l-6.60066013944,15.6765674242 -2.47524741662,9.48844901828 l-0.82508251743,16.5016498059 m-59.4059401696,4.12541245148 l-1.23762370831,55.693068909 2.88778887884,8.66336609384 l15.264026776,-28.4653470548 16.5016498059,-47.4422429207 l1.65016503486,-2.88778887884 1.65016503486,2.88778887884 l-0.412541258715,14.0264026606 -4.53795364236,37.5412543396 l0.412541258715,18.564356303 -3.7128712606,-18.564356303 l-1.23762370831,-32.5907578783 1.23762370831,-9.07590728472 l7.01320133032,-22.6897692972 " fill="none" stroke="black" stroke-width="1.5" /></svg>