<?xml version="1.0" encoding="utf-8" ?>
<svg baseProfile="full" height="300" version="1.1" width="300" xmlns="http://www.w3.org/2000/svg" xmlns:ev="http://www.w3.org/2001/xml-events" xmlns:xlink="http://www.w3.org/1999/xlink"><defs /><rect fill="none" height="300" width="300" x="0" y="0" /><path d="M81.8783055244,117.427250542 m19.8412702314,-1.65343911345 l61.5079382393,0.0 0.992063446319,1.98412689264 l0.330687833565,11.5740735766 -4.62962977866,4.96031755785 l-23.1481471533,0.0 4.62962977866,5.29100533704 l5.29100533704,2.97619044771 13.2275129076,4.29894156446 l11.2433862325,1.98412689264 6.61375645379,0.0 l-25.1322746984,-0.66137566713 -1.98412689264,-1.32275133426 l-7.93650757055,-1.32275133426 -6.2830686746,-4.29894156446 l-11.9047617908,-4.29894156446 -6.94444423298,1.65343911345 l-42.3280426963,0.0 m71.428570745,-18.1878309004 l0.0,0.0 m-67.4603191347,-8.59788312893 l-11.9047617908,-7.93650757055 -30.4232809055,-31.0846573339 l-3.96825378528,-2.64550266852 -2.31481488933,-0.330687833565 l-0.992063446319,2.31481488933 0.66137566713,11.9047617908 l7.27513201217,9.9206351157 5.95238089542,11.9047617908 l9.25925955732,12.5661373492 4.29894156446,7.93650757055 m26.7857140294,14.8809522385 l-3.96825378528,0.0 -5.62169311623,1.65343911345 l-12.235450005,5.95238089542 -5.29100533704,2.97619044771 l-10.2513224599,10.2513224599 -1.65343911345,6.61375645379 l-0.66137566713,20.1719567056 -0.66137566713,-1.65343911345 l-3.63756600609,-0.992063446319 -4.29894156446,0.992063446319 l-10.2513224599,0.0 -0.330687833565,-1.98412689264 l7.27513201217,-17.1957662579 5.95238089542,-9.25925955732 l2.64550266852,-1.98412689264 5.29100533704,-9.25925955732 l10.9126980183,-13.888888466 3.63756600609,-1.98412689264 l4.29894156446,-0.66137566713 1.32275133426,-1.32275133426 m40.6746016253,-17.1957662579 l7.27513201217,-9.25925955732 13.888888466,-13.2275129076 l11.9047617908,-13.2275129076 1.32275133426,14.2195766802 l-7.27513201217,10.9126980183 -6.61375645379,7.27513201217 m-86.6402077177,50.9259258252 l-1.98412689264,22.4867724649 m179.232803291,-15.2116404527 l6.61375645379,0.0 5.95238089542,-1.32275133426 l5.95238089542,-2.64550266852 16.5343915695,-3.3068782269 l5.29100533704,-2.64550266852 9.9206351157,0.0 l6.61375645379,-1.32275133426 0.0,46.2962943065 l-42.3280426963,0.66137566713 -1.32275133426,-1.32275133426 m26.4550258152,-31.415342068 l0.0,11.9047617908 -2.64550266852,2.97619044771 m-26.124337601,16.5343915695 l-55.2248656497,1.32275133426 -5.62169311623,2.97619044771 l-0.330687833565,3.63756600609 -1.32275133426,1.98412689264 l-8.92857134312,2.64550266852 -5.29100533704,5.29100533704 l-0.992063446319,1.98412689264 0.0,7.27513201217 l1.98412689264,1.32275133426 " fill="none" stroke="black" stroke-width="1.5" /></svg>