<?xml version="1.0" encoding="utf-8" ?>
<svg baseProfile="full" height="300" version="1.1" width="300" xmlns="http://www.w3.org/2000/svg" xmlns:ev="http://www.w3.org/2001/xml-events" xmlns:xlink="http://www.w3.org/1999/xlink"><defs /><rect fill="none" height="300" width="300" x="0" y="0" /><path d="M35.6732324767,239.285714696 m1.64203616026,-2.05254513283 l0.821018080132,-13.9573072272 2.05254513283,-8.21018053131 l11.4942533918,-27.5041049419 3.69458129309,-4.10509026566 l2.05254513283,4.51559923822 6.56814464105,2.05254513283 l34.4827580155,-0.821018080132 -2.05254513283,25.4515595391 l3.28407232053,13.9573072272 1.2315270527,17.2413790078 l-38.9983561737,2.87356334796 -27.5041049419,-8.21018053131 l-4.92610821079,0.821018080132 -4.51559923822,3.69458129309 m121.100167967,1.64203616026 l-3.69458129309,0.0 0.410509040066,-68.5550065184 l6.56814464105,-0.410509040066 12.315271337,-5.74712669592 l23.8095236488,-3.28407232053 13.5467977147,-4.51559923822 l1.64203616026,16.8308705752 7.79967155875,34.4827580155 l2.87356334796,20.5254518683 -22.5779972711,15.5993431175 l-12.315271337,3.28407232053 -13.9573072272,1.64203616026 l-30.3776693699,-4.92610821079 m-36.5353034183,-64.0394105203 l17.2413790078,2.46305410539 5.74712669592,-0.821018080132 l15.1888346849,-5.74712669592 34.4827580155,-5.33661718335 m40.2298847114,-7.79967155875 l-4.10509026566,-0.821018080132 -4.10509026566,-5.33661718335 l-4.92610821079,-22.9885067837 -4.92610821079,-32.4302126127 l-2.87356334796,-1.2315270527 -150.656818312,2.46305410539 l9.85221642157,54.1871908587 2.05254513283,23.8095236488 l2.05254513283,4.51559923822 m140.80459865,-66.9129727882 l-2.05254513283,-2.05254513283 -1.2315270527,-43.513956492 l3.28407232053,-18.4729064655 0.821018080132,-13.9573072272 l6.97865361362,-2.87356334796 7.79967155875,-1.2315270527 l35.3037770407,1.64203616026 3.28407232053,5.33661718335 l1.64203616026,10.2627259341 -9.85221642157,2.87356334796 l-17.2413790078,0.0 -11.4942533918,-3.28407232053 l-16.4203610626,0.0 m52.1346476159,-16.4203610626 l10.2627259341,-0.410509040066 18.0623969529,1.64203616026 l2.05254513283,1.64203616026 -0.821018080132,2.05254513283 l-23.8095236488,13.5467977147 -6.97865361362,2.05254513283 m-44.7454850297,56.2397384215 l2.87356334796,-6.56814464105 23.3990141362,1.2315270527 l-0.410509040066,-19.7044328431 1.64203616026,-36.9458129309 " fill="none" stroke="black" stroke-width="1.5" /></svg>