<?xml version="1.0" encoding="utf-8" ?>
<svg baseProfile="full" height="300" version="1.1" width="300" xmlns="http://www.w3.org/2000/svg" xmlns:ev="http://www.w3.org/2001/xml-events" xmlns:xlink="http://www.w3.org/1999/xlink"><defs /><rect fill="none" height="300" width="300" x="0" y="0" /><path d="M56.1366395813,141.233372137 m0.0,-3.92986680153 l9.67351889247,-16.0217650195 3.62756938585,0.0 l5.13905686192,7.55743658503 -0.30229746539,16.6263606461 l4.23216461487,3.02297455448 19.951631821,-1.51148727724 l48.0652950584,0.0 8.76662624776,18.1378481222 l0.906892346461,14.5102775434 -0.30229746539,22.9746067731 l-6.34824652464,2.11608230743 -5.4413542776,0.0 l-0.906892346461,-1.81378469292 0.0,-10.5804107419 l-0.604594930779,-3.62756938585 -1.51148727724,-2.41837972312 l-26.2998795386,-4.53446203055 -16.3240628328,0.0 l-2.41837972312,5.4413542776 -3.62756938585,12.3941960313 l-1.20918986156,1.81378469292 -12.6964930493,-0.30229746539 l4.53446203055,-12.6964930493 0.0,-3.92986680153 l-1.51148727724,-3.02297455448 -9.0689240611,-2.41837972312 l-15.7194672061,-1.51148727724 -1.51148727724,-2.11608230743 l-0.906892346461,-3.92986680153 -0.604594930779,-19.3470377849 l2.7206771388,-11.1850063685 2.41837972312,-5.4413542776 m6.04594910896,0.30229746539 l0.0,7.25513877169 m5.4413542776,-8.76662624776 l1.20918986156,5.13905686192 m-8.1620314164,15.1148731701 l-3.32527197016,-2.11608230743 -11.4873033866,-1.81378469292 l-23.5792023998,0.0 1.81378469292,1.81378469292 l35.3688028044,10.2781137238 0.906892346461,-6.04594910896 m-0.30229746539,1.51148727724 l-21.1608214837,-5.74365169328 m103.688029088,-5.74365169328 l7.55743658503,0.604594930779 53.8089471493,-15.7194672061 l2.7206771388,3.02297455448 65.5985491445,-0.30229746539 l-1.81378469292,0.0 -16.0217650195,9.0689240611 l-36.8802886898,12.9987908626 -43.5308342208,12.9987908626 l-22.6723089598,2.41837972312 m-76.1789598864,-42.0193483353 l25.0906898759,-6.95284175367 m-41.1124548953,9.0689240611 l-7.25513877169,-5.4413542776 -9.37122107912,-2.11608230743 m27.8113670147,0.0 l1.51148727724,0.0 25.6952839119,-10.5804107419 m-35.3688028044,10.5804107419 l-23.2769045865,-15.7194672061 m26.6021757613,13.9056835073 l0.906892346461,-15.1148731701 3.32527197016,-12.0918982179 m6.65054394033,89.177753135 l-3.32527197016,0.0 -19.0447399716,3.92986680153 l-1.51148727724,3.62756938585 19.3470377849,0.0 l8.76662624776,-4.83675944623 m-18.4401443449,0.604594930779 l0.906892346461,2.11608230743 m-2.41837972312,-2.41837972312 l-0.906892346461,1.20918986156 -6.04594910896,0.906892346461 " fill="none" stroke="black" stroke-width="1.5" /></svg>