<?xml version="1.0" encoding="utf-8" ?>
<svg baseProfile="full" height="300" version="1.1" width="300" xmlns="http://www.w3.org/2000/svg" xmlns:ev="http://www.w3.org/2001/xml-events" xmlns:xlink="http://www.w3.org/1999/xlink"><defs /><rect fill="none" height="300" width="300" x="0" y="0" /><path d="M79.3806626925,104.871603018 m-4.15407836562,-1.13293045206 l-15.105739692,0.0 -10.9516613264,2.26586090412 l-15.8610265772,7.17522640338 -4.53172180824,4.53172180824 l-3.776434923,11.3293052658 1.51057401888,10.9516613264 l7.17522640338,7.552869846 8.68580067064,4.15407836562 l13.5951659215,4.15407836562 17.3716013413,3.02114803775 l15.8610265772,0.377643504719 19.2598190512,-4.53172180824 l9.81873050173,-7.17522640338 4.53172180824,-6.04229607551 l1.51057401888,-3.776434923 -0.755287009439,-10.1963744411 l-3.776434923,-4.90936525087 -13.2175219821,-10.1963744411 l-24.169184302,-10.1963744411 -12.4622350969,-3.02114803775 l-6.41993951813,0.0 m40.4078538251,9.81873050173 l14.3504528068,3.02114803775 46.0725049677,4.15407836562 l109.89425919,0.0 0.377643504719,19.6374610035 l-1.8882174615,1.51057401888 -34.3655587432,-3.39879148038 l-33.6102708644,0.0 -23.7915403626,2.26586090412 l-62.311178465,1.13293045206 m-78.5498440139,-15.8610265772 l13.9728098609,3.02114803775 36.253774466,4.53172180824 l60.0453148286,3.02114803775 m-70.6193371833,-2.26586090412 l46.8277928465,4.15407836562 84.5921470442,0.755287009439 m-131.419939891,-8.68580067064 l24.169184302,2.64350459513 100.830812593,1.8882174615 l26.0574020119,1.51057401888 m-131.042295951,-13.9728098609 l131.419939891,6.04229607551 m-85.725070914,0.755287009439 l25.3021141331,1.13293045206 80.8157076503,-0.377643504719 m-54.380663686,-10.5740183805 l1.8882174615,4.53172180824 2.64350459513,16.6163134625 m-135.574015276,-22.6586105315 l-11.7069482116,-0.377643504719 -6.04229607551,1.8882174615 l-1.8882174615,1.8882174615 -0.755287009439,9.44108755589 l3.776434923,3.39879148038 7.552869846,3.776434923 l7.93051328862,1.8882174615 12.4622350969,0.377643504719 l5.66465263289,-0.377643504719 3.776434923,-2.64350459513 l0.377643504719,-4.15407836562 -2.26586090412,-4.15407836562 l-4.53172180824,-4.15407836562 -10.1963744411,-4.53172180824 l-13.2175219821,-2.26586090412 m194.864050174,0.755287009439 l1.51057401888,20.0151049429 m3.02114803775,-16.6163134625 l1.13293045206,20.0151049429 m-9.06344361649,-18.5045311724 l26.4350439642,0.755287009439 m-67.5981856681,-7.17522640338 l-2.26586090412,13.5951659215 0.377643504719,6.79758296075 m-136.329303154,13.9728098609 l-0.755287009439,7.93051328862 -4.53172180824,15.4833836314 l-5.28700919026,27.190331843 7.552869846,-17.3716013413 l9.44108755589,-15.8610265772 7.17522640338,-17.7492452807 m9.44108755589,-20.7703928217 l9.06344361649,45.6948650025 8.68580067064,29.0785495529 m-16.6163134625,-72.5075489319 l-17.7492452807,39.2749220069 -13.5951659215,23.7915403626 " fill="none" stroke="black" stroke-width="1.5" /></svg>