<?xml version="1.0" encoding="utf-8" ?>
<svg baseProfile="full" height="300" version="1.1" width="300" xmlns="http://www.w3.org/2000/svg" xmlns:ev="http://www.w3.org/2001/xml-events" xmlns:xlink="http://www.w3.org/1999/xlink"><defs /><rect fill="none" height="300" width="300" x="0" y="0" /><path d="M205.293005173,125.307186967 m-14.6502832126,-3.07183349661 l-20.7939502058,-0.708884659042 -4.48960297011,1.41776931808 l-2.12665405483,3.07183349661 -0.236294899299,8.27032104806 l2.36294891528,20.0850659353 1.41776931808,9.924385382 l2.12665405483,6.3799621645 4.962192691,4.72589783056 l6.85255188539,2.83553863617 4.25330810967,0.708884659042 l11.8147448872,-1.18147445764 6.14366699322,-2.12665405483 l7.08884705667,-3.78071838878 9.68809083239,-7.56143677756 l8.74291139062,-10.3969751029 1.89035919439,-3.78071838878 l0.945179597195,-22.2117212335 -0.708884659042,-6.3799621645 l-1.65406433395,-2.59924377572 -4.962192691,-3.78071838878 l-7.56143677756,-1.89035919439 -9.45179566111,1.65406433395 l-3.30812866789,1.41776931808 -11.1058606167,8.27032104806 m-26.937617199,35.4442334183 l-14.4139880413,0.236294899299 -7.79773132717,1.65406433395 l-4.962192691,1.89035919439 -6.61625733578,3.78071838878 l-10.1606805533,7.56143677756 -2.36294891528,3.07183349661 l-5.67107727233,11.1058606167 -9.68809083239,27.6465027128 l0.0,8.03402649845 -0.236294899299,1.18147445764 l-0.945179597195,0.0 m0.472589798597,-7.08884705667 l-0.945179597195,11.5784497159 1.41776931808,9.68809083239 m2.36294891528,-29.7731567677 l54.5841199118,-25.7561438293 12.759924329,-1.41776931808 l9.924385382,4.01701324922 -8.97920594022,6.85255188539 l-35.6805285896,36.862004446 -7.08884705667,5.43478272273 l-16.5406420961,0.0 m-9.2155011115,-26.2287341718 l-10.6332702742,-5.19848755144 -19.6124768361,-8.03402649845 l-41.351607727,-13.2325146716 -9.2155011115,-1.65406433395 l0.0,1.18147445764 20.3213611066,32.8449915076 l10.8695654455,14.4139880413 15.5954626543,9.924385382 l60.4914942205,0.0 m83.884686337,-117.911151214 l3.30812866789,3.07183349661 1.89035919439,-1.89035919439 l-0.708884659042,-1.18147445764 -3.78071838878,-0.472589798597 l-0.708884659042,1.18147445764 0.472589798597,1.18147445764 l2.36294891528,-0.708884659042 -0.472589798597,1.18147445764 l-0.708884659042,-1.18147445764 m-27.4102075416,13.7051037708 l12.0510400585,6.3799621645 6.3799621645,1.89035919439 l21.5028357196,-4.48960297011 -0.236294899299,-1.18147445764 l8.27032104806,-26.2287341718 12.0510400585,-25.9924390006 l15.8317578256,-28.591683398 8.74291139062,0.0 l-0.236294899299,1.18147445764 m-99.4801477479,59.3100183641 l-12.0510400585,-6.14366699322 -11.1058606167,-3.07183349661 l-14.4139880413,-1.18147445764 -4.962192691,1.18147445764 l5.90737244361,8.74291139062 21.0302453771,23.8657849457 l3.30812866789,2.83553863617 16.3043481682,10.3969751029 " fill="none" stroke="black" stroke-width="1.5" /></svg>