<?xml version="1.0" encoding="utf-8" ?>
<svg baseProfile="full" height="300" version="1.1" width="300" xmlns="http://www.w3.org/2000/svg" xmlns:ev="http://www.w3.org/2001/xml-events" xmlns:xlink="http://www.w3.org/1999/xlink"><defs /><rect fill="none" height="300" width="300" x="0" y="0" /><path d="M206.621880863,219.33780761 m2.15930896599,-37.1880994198 l6.71785039695,-36.7082524218 m-11.7562375634,79.1746637695 l-0.479846445653,1.19961607468 -4.31861793198,-1.43953925806 l-8.87715936294,0.0 -12.9558537959,2.15930896599 m-47.9846442497,-84.2130471486 l0.719769629028,16.0748554954 3.59884838185,35.5086374517 l-0.239923222827,-0.959692891306 -2.39923214936,0.239923222827 l-7.91746599822,5.0383874821 m13.1957772949,-26.6314780888 l-3.35892519847,12.476006798 -1.67946259924,14.1554700284 l4.0786947486,19.9136276919 -5.27831066548,-2.39923214936 l-13.9155465294,-1.19961607468 -18.4740879604,5.0383874821 m33.3493284858,-77.7351227756 l-0.959692891306,0.239923222827 0.0,-1.19961607468 l-20.1535499284,-6.47792689796 -12.9558537959,-7.91746599822 l-0.479846445653,-1.43953925806 9.59692859745,-8.87715936294 l1.43953925806,-4.0786947486 0.479846445653,-8.87715936294 l-1.43953925806,-3.59884838185 -3.11900169949,-3.11900169949 l-3.83877156522,-1.67946259924 -4.79846429873,-0.479846445653 l-5.27831066548,0.239923222827 -11.5163140645,2.15930896599 l-24.2322456238,-0.239923222827 -4.0786947486,-0.479846445653 l-2.87907851611,-1.43953925806 -0.959692891306,-1.91938578261 l0.719769629028,-2.63915533274 2.63915533274,-4.31861793198 l3.83877156522,-3.83877156522 4.31861793198,-2.87907851611 l4.0786947486,-1.67946259924 8.87715936294,0.0 l10.3166984632,0.959692891306 4.79846429873,1.67946259924 l9.1170822307,1.67946259924 10.7965448299,0.719769629028 l36.4683289228,-5.75815703223 9.83685209644,-2.63915533274 l7.43761963146,-0.479846445653 23.7523986259,4.31861793198 l18.7140114594,5.27831066548 3.11900169949,1.43953925806 l6.47792689796,8.1573894972 5.27831066548,4.0786947486 l13.6756230304,-3.83877156522 5.27831066548,-0.479846445653 l7.67754313045,0.239923222827 6.71785039695,2.15930896599 l7.1976967637,5.27831066548 7.67754313045,7.43761963146 l4.55854111535,6.47792689796 4.79846429873,10.556621331 l1.19961607468,8.87715936294 -1.67946259924,7.43761963146 l-5.51823416446,5.27831066548 -9.1170822307,2.39923214936 l-19.1938571949,-2.87907851611 -25.1919370949,-6.23800339898 m-79.4145872684,6.23800339898 l13.4357007939,-1.91938578261 35.9884819248,1.43953925806 l36.9481759208,-1.19961607468 m-177.30326376,-52.7831091796 l-3.35892519847,-2.15930896599 -9.1170822307,-1.67946259924 l-6.47792689796,3.11900169949 21.8330131589,4.79846429873 l3.83877156522,2.15930896599 -0.239923222827,0.479846445653 m21.1132426619,2.87907851611 l-0.479846445653,-0.959692891306 -5.99808053121,1.19961607468 l-10.3166984632,9.59692859745 -0.719769629028,2.87907851611 l11.9961610624,-1.19961607468 17.2744717279,-7.91746599822 l6.95777326471,-1.91938578261 3.83877156522,3.11900169949 " fill="none" stroke="black" stroke-width="1.5" /></svg>