<?xml version="1.0" encoding="utf-8" ?>
<svg baseProfile="full" height="300" version="1.1" width="300" xmlns="http://www.w3.org/2000/svg" xmlns:ev="http://www.w3.org/2001/xml-events" xmlns:xlink="http://www.w3.org/1999/xlink"><defs /><rect fill="none" height="300" width="300" x="0" y="0" /><path d="M143.279573061,222.388634301 m-1.53609836539,-66.4362539873 l-1.53609836539,-10.3686637769 -0.768049182694,2.30414742179 m19.9692774871,92.9339530003 l-3.45622125897,-52.9953939847 -4.22427031538,-43.3947762332 l-1.15207371089,-3.07219673077 m92.5499279669,81.7972351153 l0.384024591347,-9.21658968715 -5.37634440515,-19.5852544744 l-11.9047618897,-58.3717363692 m45.6989264334,88.7096776332 l-1.53609836539,-12.2887869231 -3.84024578718,-13.4408600025 l-5.37634440515,-42.6267302078 -4.22427031538,-12.6728109461 l-5.76036893335,-11.9047618897 m-118.279572872,13.4408600025 l1.92012289359,-1.53609836539 12.2887869231,-1.15207371089 l18.4331793743,0.0 9.60061472052,1.92012289359 l21.1213525872,0.0 10.3686637769,-3.84024578718 l21.5053776206,-15.3609831487 m-8.83256566412,3.84024578718 l12.6728109461,-1.53609836539 9.98463874356,0.384024591347 l12.2887869231,7.29646704615 m-120.199698039,11.1367128333 l-7.68049157435,-1.53609836539 -4.22427031538,-2.68817220257 l-5.76036893335,-5.37634440515 -6.52841798975,-9.60061472052 l-1.53609836539,-9.60061472052 0.0,-21.5053776206 l-0.768049182694,-2.68817220257 -3.45622125897,-3.45622125897 l-14.2089100693,-5.76036893335 -13.8248850359,-3.07219673077 l-12.6728109461,-0.384024591347 -18.4331793743,4.22427031538 l-1.92012289359,-3.07219673077 -0.384024591347,-6.14439346155 l0.384024591347,-3.07219673077 3.84024578718,-6.91244251795 l3.07219673077,-2.68817220257 6.14439346155,-2.68817220257 l15.7450081821,-1.15207371089 25.7296469256,5.37634440515 l13.8248850359,4.99231937178 23.0414757334,6.14439346155 l24.1935488128,0.768049182694 6.91244251795,2.30414742179 l13.0568359795,8.44854063075 6.14439346155,2.30414742179 l41.8586801411,-0.768049182694 3.07219673077,1.15207371089 l6.14439346155,6.14439346155 18.4331793743,28.0337951052 l16.8970812615,38.0184338487 m-221.582185608,-92.5499279669 l-21.5053776206,54.9155151102 -1.15207371089,2.30414742179 l-1.92012289359,0.0 m5.37634440515,8.83256566412 l-1.53609836539,2.68817220257 0.384024591347,45.6989264334 l1.15207371089,7.29646704615 m13.4408600025,-66.8202790206 l6.14439346155,29.1858681846 8.06451610255,23.8095237795 m0.0,-46.0829514668 l0.768049182694,7.68049157435 18.4331793743,41.8586801411 m-1.15207371089,-44.5468513333 l9.60061472052,29.9539182513 3.07219673077,15.3609831487 l1.15207371089,19.9692774871 m47.2350225255,-53.3794190181 l3.84024578718,20.3533025205 3.45622125897,39.9385549742 l5.37634440515,29.9539182513 2.68817220257,-1.53609836539 l12.6728109461,0.384024591347 -6.91244251795,-34.1781875564 l-5.76036893335,-40.706605041 m88.7096776332,61.4439325948 l2.30414742179,-1.53609836539 14.5929340923,0.0 l16.8970812615,1.92012289359 " fill="none" stroke="black" stroke-width="1.5" /></svg>